<svg class="error" xmlns="http://www.w3.org/2000/svg" viewBox="0 0 32 32">
<style type="text/css">
	.error0 {
		fill: #ffffff;
	}
	.error1 {
		fill: #CD7C3A;
	}
</style>
<path class="error0" d="M14.4,2.9c0.9-1.6,2.4-1.6,3.3,0l5.3,9.2c0.9,1.6,2.4,4.1,3.3,5.6l5.3,9.2c0.9,1.6,0.2,2.8-1.6,2.8H19.3c-1.8,0-4.7,0-6.5,0
	H2.1c-1.8,0-2.5-1.3-1.6-2.8l5.3-9.2c0.9-1.6,2.4-4.1,3.3-5.6L14.4,2.9z"/>
<g>
	<path class="error1" d="M18.2,24.8c0,1.3-0.9,2.2-2.2,2.2c-1.3,0-2.2-0.9-2.2-2.2c0-1.3,0.9-2.2,2.2-2.2
		C17.3,22.6,18.2,23.5,18.2,24.8z M17.4,20.5h-2.8l-0.8-7.4V8.4h4.4v4.7L17.4,20.5z"/>
</g>
</svg>
