<svg xmlns="http://www.w3.org/2000/svg" viewBox="0 0 145 146" aria-hidden="true">
	<path class="teal" d="M145 79V66h-18.3c-.3-3-.8-5.7-1.5-8.3l17.6-7.4-4.8-11.6-17.3 7.1c-1.4-2.6-2.9-5-4.6-7.3l13.2-13.2-8.8-8.8-12.9 12.9c-2.4-2-4.9-3.8-7.6-5.4l6.9-16.6-11.7-4.8-7 16.3C85.3 18 83 17.4 79 17V0H66v17.1c-2 .4-5.6 1-8.4 1.8L51 2.6 39.5 7.4 46.4 24c-2.6 1.5-5 3.2-7.3 5.2L26.4 16.4l-8.8 8.8 13 13c-1.8 2.4-3.4 4.9-4.8 7.6L8.4 38.6 3.6 50.2l17.6 7.5c-.7 2.6-1.2 5.3-1.5 8.3H0v13h19.7c.3 2 .9 5.5 1.6 8.2L3.6 94.4l4.8 11.5 17.5-7.3c1.4 2.6 3 5.1 4.9 7.5l-13.2 13.2 8.8 8.8 13-13c2.2 1.9 4.6 3.5 7.2 5l-7 16.9 11.5 4.8 6.7-16.7c2.7.8 6.2 1.4 8.2 1.8V146h13v-19.1c4-.4 6.2-1 9.1-1.8l7.1 16.7 11.6-4.8-7-16.9c2.6-1.5 5.1-3.3 7.4-5.2l13.2 13.2 8.8-8.8-13.4-13.4c1.7-2.3 3.3-4.7 4.7-7.3l17.5 7.3 4.8-11.5-17.7-7.1c.7-2.7 1.3-6.2 1.6-8.2H145zM87.3 50.3c2.1-2.1 5.5-2.1 7.6 0 2.1 2.1 2.1 5.5 0 7.6-2.1 2.1-5.5 2.1-7.6 0-2-2.1-2-5.5 0-7.6zm-14.1-7c1.8 0 3.3 1.5 3.3 3.3S75 50 73.2 50s-3.3-1.5-3.3-3.3 1.4-3.4 3.3-3.4zM44.4 72c0-1.8 1.5-3.3 3.3-3.3 1.8 0 3.3 1.5 3.3 3.3 0 1.8-1.5 3.3-3.3 3.3-1.8.1-3.3-1.4-3.3-3.3zM59 93.8c-2.1 2.1-5.5 2.1-7.6 0-2.1-2.1-2.1-5.5 0-7.6 2.1-2.1 5.5-2.1 7.6 0 2.1 2.1 2.1 5.5 0 7.6zm0-35.9c-2.1 2.1-5.5 2.1-7.6 0-2.1-2.1-2.1-5.5 0-7.6 2.1-2.1 5.5-2.1 7.6 0 2.1 2.1 2.1 5.5 0 7.6zm14.2 42.9c-1.8 0-3.3-1.5-3.3-3.3s1.5-3.3 3.3-3.3 3.3 1.5 3.3 3.3-1.5 3.3-3.3 3.3zm0-17.1c-6.4 0-11.6-5.2-11.6-11.6s5.2-11.6 11.6-11.6 11.6 5.2 11.6 11.6-5.2 11.6-11.6 11.6zm21.7 10.1c-2.1 2.1-5.5 2.1-7.6 0-2.1-2.1-2.1-5.5 0-7.6 2.1-2.1 5.5-2.1 7.6 0 2.1 2.1 2.1 5.5 0 7.6zm3.7-18.4c-1.8 0-3.3-1.5-3.3-3.3 0-1.8 1.5-3.3 3.3-3.3 1.8 0 3.3 1.5 3.3 3.3 0 1.8-1.5 3.3-3.3 3.3z"/>
</svg>
