<svg aria-hidden="true" xmlns="http://www.w3.org/2000/svg" width="252.9" height="174.5" viewBox="0 0 252.9 174.5"><path class="gear-set0" d="M207.6 138.5l-1-5.8-8.2 1.4c-.4-1.3-.8-2.5-1.3-3.6l7.3-4.7-3-4.8-7.2 4.5c-.8-1.1-1.7-2-2.6-2.9l4.9-6.9-4.6-3.3-4.8 6.8c-1.2-.7-2.5-1.3-3.8-1.8l1.8-7.9-5.6-1.2-1.9 7.8c-1.4-.2-2.4-.3-4.3-.1l-1.3-7.6-5.8 1 1.3 7.6c-.9.3-2.4.9-3.6 1.4l-4.2-6.8-4.8 3 4.4 6.9c-1 .9-2 1.8-2.9 2.9l-6.7-4.7-3.3 4.6 6.8 4.8c-.6 1.2-1.1 2.5-1.6 3.8l-8.3-1.9-1.3 5.6 8.4 2c-.1 1.2-.1 2.5 0 3.8l-8.8 1.5 1 5.8 8.8-1.5c.3.9.8 2.4 1.3 3.5l-7.4 4.6 3 4.8 7.3-4.6c.8 1.1 1.7 2.1 2.8 3l-4.9 6.9 4.6 3.3 4.8-6.8c1.1.7 2.3 1.2 3.6 1.7l-1.8 8.1 5.5 1.3 1.7-8c1.3.2 2.9.2 3.8.2l1.5 8.5 5.8-1-1.5-8.5c1.8-.5 2.7-.9 3.9-1.5l4.5 6.9 4.8-3-4.4-7c1-.9 2-1.9 2.9-2.9l6.9 4.9 3.3-4.6-7-5c.6-1.2 1.1-2.4 1.5-3.6l8.4 1.9 1.3-5.5-8.5-1.8c.1-1.3.1-2.9.1-3.8l8.4-1.7zm-28-8.4c.8-1.1 2.3-1.4 3.4-.6 1.1.8 1.4 2.3.6 3.4-.8 1.1-2.3 1.4-3.4.6-1-.8-1.3-2.3-.6-3.4zm-6.8-2c.8-.1 1.6.4 1.7 1.2s-.4 1.6-1.2 1.8c-.8.1-1.6-.4-1.7-1.2-.1-.9.4-1.7 1.2-1.8zm-10.7 15c-.1-.8.4-1.6 1.2-1.7.8-.1 1.6.4 1.7 1.2s-.4 1.6-1.2 1.7c-.7.2-1.5-.4-1.7-1.2zm8.2 8.6c-.8 1.1-2.3 1.4-3.4.6-1.1-.8-1.4-2.3-.6-3.4.8-1.1 2.3-1.4 3.4-.6 1.1.8 1.4 2.3.6 3.4zm-2.7-16c-.8 1.1-2.3 1.4-3.4.6s-1.4-2.3-.6-3.4 2.3-1.4 3.4-.6 1.4 2.3.6 3.4zm9.6 18.1c-.8.1-1.6-.4-1.7-1.2s.4-1.6 1.2-1.7 1.6.4 1.7 1.2c.2.7-.4 1.5-1.2 1.7zm-1.3-7.7c-2.9.5-5.6-1.4-6.1-4.3s1.4-5.6 4.3-6.1 5.6 1.4 6.1 4.3-1.4 5.6-4.3 6.1zm10.5 2.9c-.8 1.1-2.3 1.4-3.4.6-1.1-.8-1.4-2.3-.6-3.4.8-1.1 2.3-1.4 3.4-.6 1.1.7 1.4 2.3.6 3.4zm.2-8.5c-.8.1-1.6-.4-1.7-1.2s.4-1.6 1.2-1.7c.8-.1 1.6.4 1.7 1.2.2.7-.4 1.5-1.2 1.7z"/><path class="gear-set1" d="M146.4 89.2l-1.8-12.4-13.1 1.9c-.9-3.9-2.1-7-3.5-10.2l11.6-7-6.4-10.8-11.4 6.8c-2.2-3.1-4.7-5.9-7.4-8.5l7.8-10.4L112 31l-7.6 10.2c-3.1-1.9-6.4-3.6-9.9-4.9l3.1-12.1-12.1-3.1L82.3 33c-3.8-.6-7.6-.8-11.7-.6l-1.8-12-12.4 1.8 1.8 12c-3.5.9-7.1 2.3-10.4 3.8l-6.3-10.5L30.7 34l6.4 10.7c-3 2.3-5.7 4.9-8.2 7.8l-10.4-7.8L11 54.8l10.7 7.9c-1.8 3.2-3.3 6.6-4.5 10L4.3 69.5 1.2 81.7l13.1 3.4c-.4 3.5-.6 6.8-.5 10.8L0 98l1.8 12.4 13.9-2c.9 3.5 2.1 7 3.6 10.4l-11.6 6.9 6.4 10.7 11.5-6.8c2.1 3 4.5 5.7 7.1 8.2l-7.9 10.5 10.1 7.5 7.6-10.3c3.2 2.1 6.7 3.8 10.3 5.2l-3.1 12.1 12.2 3.1 2.9-11.9c3.7.6 7.5.8 11.1.7l1.8 12.1L90 165l-1.8-12.1c3.9-1 7.6-2.3 11-4l6.4 10.5 10.8-6.4-6.4-10.8c3-2.3 5.7-4.9 8.2-7.7l10.1 7.5 7.5-10.1-10.3-7.7c1.8-3.2 3.3-6.6 4.5-10.1l12.9 3.3 3.1-12.2-13.1-3.2c.5-3.6.6-7.3.4-10.9l13.1-1.9zm-66.6 46.5c-23.3 3.4-45.1-12.7-48.5-36.1S44 54.5 67.4 51.1c23.3-3.4 45.1 12.7 48.5 36.1s-12.7 45.1-36.1 48.5z"/><path class="gear-set1" d="M98.3 89.8c-.3-1.9-.8-3.8-1.5-5.5l2.9-1.7-4.1-7-2.9 1.7c-1.2-1.5-2.6-2.7-4.2-3.9-1.6-1.2-3.2-2.1-5-2.9l.8-3.3-7.9-2-.8 3.3c-1.9-.2-3.8-.1-5.7.2s-3.8.8-5.5 1.5l-1.7-2.9-7 4.1 1.7 2.9c-1.5 1.2-2.7 2.6-3.9 4.2-1.2 1.6-2.1 3.2-2.9 5l-3.3-.8-2 7.9 3.3.8c-.2 1.9-.1 3.8.2 5.7s.8 3.8 1.5 5.5l-2.9 1.7 4.1 7 2.9-1.7c1.2 1.5 2.6 2.7 4.2 3.9 1.5 1.2 3.2 2.1 5 2.9l-.8 3.3 7.9 2 .8-3.3c1.9.2 3.8.1 5.7-.2 1.9-.3 3.8-.8 5.5-1.5l1.7 2.9 7-4.1-1.7-2.9c1.5-1.2 2.7-2.6 3.9-4.2 1.2-1.6 2.1-3.2 2.9-5l3.3.8 2-7.9-3.3-.8c.1-1.8.1-3.7-.2-5.7zM60.5 79.5c2-1.9 4.4-3.3 7-4.1 1.1-.4 2.2-.6 3.3-.8s2.3-.2 3.4-.2c2.7.1 5.4.8 7.9 2 .4.2.9.5 1.3.7l-7.7 10.3c-1-.4-2.1-.5-3.2-.3s-2 .6-2.8 1.1l-10.3-7.6c.4-.4.8-.7 1.1-1.1zm4.3 31.1c-1-.4-2.1-1-3-1.7-.9-.7-1.6-1.5-2.6-2.2-1.7-2.1-2.9-4.5-4.2-7-.3-2.2-.7-4.2-.6-6.5.1-2.7.7-5.5 2-8 .2-.5.3-.8.5-1.1l10.2 7.6c-.3 1-.5 2-.3 3 .4 2.9 2.7 5.1 5.4 5.6l1.8 12.3c-.5 0-.7.4-1.2 0-2.5 0-5.5-.8-8-2zm24.1-5.7c-.7.9-1.5 1.8-2.3 2.6v-.1c-2 1.9-4.3 3.4-6.8 4.3-.4.5-1.1.3-1.5.4l-1.8-12.4c2.5-1.3 4.1-4 3.7-6.9-.1-1-.5-2-1-2.8l7.7-10.4c.3.3.6.7.8 1 1.9 2 3.3 4.5 4.2 7.1.7 2.2 1 4.3 1 6.6-.1 2.7-.8 5.3-2 7.8-.7.9-1.3 1.8-2 2.8z"/><path class="gear-set2" d="M240.3 87.9l5-7.1-6.9-4.8c1.8-3 2.8-5.3 3.7-8.1l8.4 1.8 2-9-8.1-1.9c.4-2.9.5-5.8.4-8.6l8.1-1.4-1.6-9-7.8 1.4c-.7-2.8-1.7-5.6-3-8.3l6.5-4.1-4.9-7.8-6.5 4c-1.8-2.4-3.7-4.5-6.4-6.8l4.1-5.8-7.2-5-4.1 5.8c-2.5-1.4-5.5-2.7-8.4-3.6l1.7-7.2-8.9-2-1.6 7.4c-3-.3-5.9-.3-8.8 0L194.6 0l-9 1.6 1.4 7.9c-2.8.8-5.5 2-8.1 3.3l-4.4-6.9-7.7 4.9 4.4 7.2c-2.3 1.8-4.2 3.6-6.4 6.3l-7.1-5-5 7.1 7.2 5c-1.4 2.5-2.6 5.2-3.5 7.9l-8.2-1.9-2 8.9 8.2 1.8c-.4 2.8-.5 5.7-.3 8.6l-8.1 1.4 1.6 9.1 7.9-1.4c.8 2.9 1.7 5.6 3 8.2l-6.7 4.2 4.9 7.8 6.4-4.2c1.9 2.4 4 4.6 6.2 6.5l-4.6 6.5 7.1 5 4.6-6.5c3 1.8 5.6 2.8 8.5 3.7l-1.6 7.7 9 2 1.7-7.8c2.9.3 5.8.3 8.7 0l1.4 8.1 9-1.6-1.5-8.3c2.7-.9 5.4-1.9 7.9-3.2l4.5 7.2 7.8-4.9-4.7-7.2c2.3-1.8 4.3-3.8 6.2-6l7 4.9zm-9.2-49.1c.6 1.4 1.1 2.8 1.5 4.2.4 1.5.7 3 .9 4.5v.2c.2 1.5.3 3 .3 4.6 0 1.4 0 2.9-.2 4.3l-17.7-4c-.1-1.2-.2-2.5-.6-3.7.1-.1 15.8-10.1 15.8-10.1zm-22.4 20.9c-3.6 5.2-10.7 6.4-15.9 2.8-5.2-3.6-6.4-10.7-2.8-15.9 3.6-5.2 10.7-6.4 15.9-2.8 5.1 3.6 6.4 10.7 2.8 15.9zm7.2-37.4c.5.3 1 .5 1.4.8.1.1.4.2.5.3.2.1.3.2.6.3.4.3.8.5 1.2.8l1.2.9c.2.1.3.2.5.4l.4.4c.4.4.9.8 1.4 1.2 1.2 1.1 2.3 2.3 3.4 3.6l-15.9 10c-.5-.5-1.1-1-1.7-1.4l-1.5-.9 4-18.2c1.6.4 3.1 1 4.5 1.8zm-27-1.9c.7-.2 1.4-.5 2.1-.7h.2c.7-.2 1.3-.4 2-.5h.2c1.5-.3 3-.5 4.5-.6 1.5-.1 3.1-.1 4.6-.1l-4 18c-1.3.1-2.7.3-4 .7L184.9 22c1.2-.5 2.6-1.1 4-1.6zM169 37.5c.3-.5.6-1.1.9-1.6.1-.1.2-.4.3-.5.1-.2.3-.4.3-.6.3-.4.5-.8.8-1.3l.9-1.2.3-.5c.2-.3.5-.6.7-.9.2-.3.4-.5.7-.8 1-1.1 2.1-2.2 3.2-3.2l9.6 15.1c-.3.4-.7.9-1 1.3-.4.6-.8 1.3-1.2 1.9l-17.4-3.9 1.9-3.8zm-1.3 30.7c-.6-1.3-1.1-2.8-1.5-4.2-.4-1.5-.8-2.9-1-4.5l-.2-2.1c0-.2 0-.3-.1-.4-.1-.7-.1-1.4-.1-2.1 0-1.4 0-2.9.2-4.3l17.7 4c.1 1.2.3 2.4.7 3.6l-15.7 10zM183 84.5c-.5-.3-1-.6-1.6-.9-.1-.1-.4-.2-.5-.3-.2-.1-.3-.2-.6-.3-.4-.3-.8-.5-1.2-.8l-1.2-.9c-.2-.1-.3-.2-.5-.4-.1-.1-.3-.2-.4-.4-.4-.3-.8-.7-1.2-1.1-1.2-1.1-2.3-2.3-3.3-3.5l16.1-10.2 1.2.9c.6.4 1.1.7 1.7 1l-4.1 18.6c-1.6-.4-3-1-4.4-1.7zm26.8 1.8c-.7.2-1.4.4-2.1.7-.1.1-.2 0-.4.1-.6.2-1.3.3-2 .5h-.2c-1.5.3-3 .5-4.5.6-1.5.1-2.9.1-4.4 0l4.1-18.5c1.1-.1 2.2-.3 3.4-.5l9.9 15.6c-1.2.4-2.5 1-3.8 1.5zm16.7-12.1c-.1.2-.3.4-.4.5-.1.1-.2.3-.4.4-.4.4-.8.9-1.2 1.4-1 1.1-2.1 2.2-3.2 3.1l-9.8-15.3c.4-.5.9-1 1.3-1.6.3-.4.6-.8.8-1.2l17.7 4c-.5 1.4-1.2 2.7-1.9 4-.2.3-.4.6-.5.9s-.4.6-.6.9l-.3.5c-.3.4-.5.8-.8 1.3-.1.3-.4.7-.7 1.1z"/></svg>