<?xml version="1.0" encoding="utf-8"?>
<!-- Generator: Adobe Illustrator 19.2.0, SVG Export Plug-In . SVG Version: 6.00 Build 0)  -->
<svg version="1.1" id="gear-holey" xmlns="http://www.w3.org/2000/svg" xmlns:xlink="http://www.w3.org/1999/xlink" x="0px" y="0px"
	 viewBox="0 0 145 146" style="enable-background:new 0 0 145 146;" xml:space="preserve">
<path class="teal" d="M145,79V66h-18.3c-0.3-3-0.8-5.7-1.5-8.3l17.6-7.4L138,38.7l-17.3,7.1c-1.4-2.6-2.9-5-4.6-7.3l13.2-13.2
	l-8.8-8.8l-12.9,12.9c-2.4-2-4.9-3.8-7.6-5.4l6.9-16.6L95.2,2.6l-7,16.3c-2.9-0.9-5.2-1.5-9.2-1.9V0H66v17.1c-2,0.4-5.6,1-8.4,1.8
	L51,2.6L39.5,7.4L46.4,24c-2.6,1.5-5,3.2-7.3,5.2L26.4,16.4l-8.8,8.8l13,13c-1.8,2.4-3.4,4.9-4.8,7.6L8.4,38.6L3.6,50.2l17.6,7.5
	C20.5,60.3,20,63,19.7,66H0v13h19.7c0.3,2,0.9,5.5,1.6,8.2L3.6,94.4l4.8,11.5l17.5-7.3c1.4,2.6,3,5.1,4.9,7.5l-13.2,13.2l8.8,8.8
	l13-13c2.2,1.9,4.6,3.5,7.2,5l-7,16.9l11.5,4.8l6.7-16.7c2.7,0.8,6.2,1.4,8.2,1.8V146h13v-19.1c4-0.4,6.2-1,9.1-1.8l7.1,16.7
	l11.6-4.8l-7-16.9c2.6-1.5,5.1-3.3,7.4-5.2l13.2,13.2l8.8-8.8l-13.4-13.4c1.7-2.3,3.3-4.7,4.7-7.3l17.5,7.3l4.8-11.5l-17.7-7.1
	c0.7-2.7,1.3-6.2,1.6-8.2H145z M87.3,50.3c2.1-2.1,5.5-2.1,7.6,0c2.1,2.1,2.1,5.5,0,7.6c-2.1,2.1-5.5,2.1-7.6,0
	C85.3,55.8,85.3,52.4,87.3,50.3z M73.2,43.3c1.8,0,3.3,1.5,3.3,3.3S75,50,73.2,50s-3.3-1.5-3.3-3.3S71.3,43.3,73.2,43.3z M44.4,72
	c0-1.8,1.5-3.3,3.3-3.3c1.8,0,3.3,1.5,3.3,3.3c0,1.8-1.5,3.3-3.3,3.3C45.9,75.4,44.4,73.9,44.4,72z M59,93.8c-2.1,2.1-5.5,2.1-7.6,0
	c-2.1-2.1-2.1-5.5,0-7.6c2.1-2.1,5.5-2.1,7.6,0C61.1,88.3,61.1,91.7,59,93.8z M59,57.9c-2.1,2.1-5.5,2.1-7.6,0
	c-2.1-2.1-2.1-5.5,0-7.6c2.1-2.1,5.5-2.1,7.6,0C61.1,52.4,61.1,55.8,59,57.9z M73.2,100.8c-1.8,0-3.3-1.5-3.3-3.3s1.5-3.3,3.3-3.3
	s3.3,1.5,3.3,3.3S75,100.8,73.2,100.8z M73.2,83.7c-6.4,0-11.6-5.2-11.6-11.6s5.2-11.6,11.6-11.6s11.6,5.2,11.6,11.6
	S79.6,83.7,73.2,83.7z M94.9,93.8c-2.1,2.1-5.5,2.1-7.6,0c-2.1-2.1-2.1-5.5,0-7.6c2.1-2.1,5.5-2.1,7.6,0C97,88.3,97,91.7,94.9,93.8z
	 M98.6,75.4c-1.8,0-3.3-1.5-3.3-3.3c0-1.8,1.5-3.3,3.3-3.3c1.8,0,3.3,1.5,3.3,3.3C101.9,73.9,100.4,75.4,98.6,75.4z"/>
</svg>
