<svg xmlns="http://www.w3.org/2000/svg" viewBox="0 0 326 326" aria-hidden="true">
	<path class="teal" d="M326 177v-28h-29.6c-.8-9-2.3-16.1-4.5-23.7l27.9-11.7-10.7-25.9L281.7 99c-3.9-7.5-8.4-14.6-13.6-21.2l20.5-20.5-19.8-19.8-20.1 20.1c-6.3-5.3-13-10-20.2-14.1l10.7-25.8L213.4 7l-10.7 25.3c-8.2-2.6-16.6-4.3-25.6-5.2V0h-28v27.1c-8 .9-16.4 2.7-24.3 5.1L114.3 7 88.5 17.7l10.7 25.8c-7.3 4.1-14.2 9-20.6 14.5L58.1 37.5 38.3 57.3l21 21c-5 6.4-9.4 13.4-13.1 20.7L18.7 87.6 8 113.5l27.9 11.8c-2.1 7.6-3.6 14.7-4.5 23.7H0v28h31.4c.8 8 2.3 16.2 4.5 24L8 212.5l10.7 25.8 27.5-11.4c3.7 7.2 8 14 12.9 20.4L38.3 268l19.8 19.8 20.2-20.2c6.5 5.6 13.5 10.6 21 14.8l-10.7 25.8 25.9 10.7 10.2-25.3c7.9 2.5 16.3 4.2 24.3 5.1V326h28v-27.2c9-.9 17.5-2.7 25.6-5.2l10.6 25.3 25.9-10.7-10.6-25.8c7.3-4.1 14.1-9 20.5-14.4l19.8 19.8 19.8-19.8-20.3-20.3c5-6.5 9.5-13.5 13.3-20.9l27.5 11.4 10.7-25.9-27.9-11.3c2.2-7.8 3.7-16 4.5-24H326zm-162.1 81.2c-52.6 0-95.3-42.7-95.3-95.3 0-52.6 42.7-95.3 95.3-95.3s95.3 42.7 95.3 95.3c0 52.6-42.6 95.3-95.3 95.3z"/>
	<path class="teal" d="M219.6 162.9c0-4.3-.5-8.6-1.5-12.7l7-2.9-6.9-16.7-7 2.9c-2.2-3.6-4.9-6.9-7.9-10-3.1-3.1-6.4-5.7-10-7.9l2.9-7-16.7-6.9-2.9 7c-4.1-1-8.4-1.5-12.7-1.5-4.3 0-8.6.5-12.7 1.5l-2.9-7-16.7 6.9 2.9 7c-3.6 2.2-6.9 4.9-10 7.9-3.1 3.1-5.7 6.4-7.9 10l-7-2.9-6.9 16.7 7 2.9c-1 4.1-1.5 8.4-1.5 12.7s.5 8.6 1.5 12.7l-7 2.9 6.9 16.7 7-2.9c2.2 3.6 4.9 6.9 7.9 10s6.4 5.7 10 7.9l-2.9 7 16.7 6.9 2.9-7c4.1 1 8.4 1.5 12.7 1.5s8.6-.5 12.7-1.5l2.9 7 16.7-6.9-2.9-7c3.6-2.2 6.9-4.9 10-7.9 3.1-3.1 5.7-6.4 7.9-10l7 2.9 6.9-16.7-7-2.9c1-4.1 1.5-8.4 1.5-12.7zm-80-35.1c5.1-3.5 10.8-5.8 16.7-6.9 2.5-.5 5.1-.7 7.6-.7s5.1.2 7.6.7c5.9 1.1 11.6 3.4 16.7 6.9.9.6 1.8 1.3 2.7 2l-20.3 20.3c-2.1-1.1-4.4-1.7-6.9-1.7-2.4 0-4.6.6-6.6 1.6l-20.2-20.2c.9-.6 1.8-1.3 2.7-2zm-.6 70c-2-1.3-4.2-2.9-6-4.8s-3-3.8-5-5.8c-3-5.1-5-10.8-7-16.7 0-5-.2-9.5.7-14.5h.1c1.1-6 3.4-12 7-17 .5-1 1-1.6 1.5-2.2l20.1 20c-1 2-1.7 4.2-1.7 6.6 0 6.6 4.2 12.2 10.2 14.1v27.8c-1-.1-1.6.7-2.6-.3h-.1c-5.7-1-12.2-3.7-17.2-7.2zm24.9 7.8zm30.1-12.5c-1.8 1.8-4 3.5-6 4.9v-.2c-5 3.5-10.6 6.2-16.5 7.2-1 1-2.5.2-3.5.3v-27.9c6-2 10.3-7.5 10.3-14 0-2.3-.4-4.5-1.3-6.4l20.4-20.4c.5.7 1.1 1.7 1.5 2.4 3.5 5.1 5.9 11 6.9 17 .9 5 .9 9.8 0 14.9-1.1 5.9-3.4 11.4-7 16.5-1.3 2-3 3.8-4.8 5.7z"/>
</svg>
