<svg id="gear-wheelie" xmlns="http://www.w3.org/2000/svg" viewBox="0 0 185 185" aria-hidden="true">
	<path class="teal" d="M185 100V85h-14.5c-.5-6-1.4-10.3-2.7-15.1l13.7-5.8-6.1-14.7-13.4 5.4c-2.3-4.5-5-8.7-8-12.6l10-10L152.8 21l-9.7 9.7c-3.8-3.3-8-6.3-12.4-8.8l5.1-12.3-14.7-6.1-5.2 12c-5-1.6-9.8-2.7-15.8-3.2V0H85v12.2c-5 .5-10.4 1.6-15.4 3.2L64.8 3.5 50.2 9.6l5.1 12.1c-4.5 2.5-8.6 5.5-12.5 8.8L33.2 21 22 32.2l9.8 9.8c-3.1 3.9-5.8 8.2-8.1 12.7l-13.1-5.4-6.1 14.6 13.3 5.8C16.4 74.5 15.5 79 15 85H0v15h15.1c.5 5 1.5 9.9 2.9 14.7l-13.5 5.5 6.1 14.6 13.3-5.6c2.3 4.4 5 8.6 8.1 12.5l-10.1 10L33.2 163l9.8-9.8c3.9 3.3 8 6.2 12.4 8.6l-5.2 12.6 14.7 6.1 4.9-12.4c5 1.5 10.2 2.6 15.2 3.1V185h15v-13.8c6-.5 10.7-1.6 15.6-3.2l5.3 12.5 14.7-6.1-5.3-12.8c4.4-2.5 8.5-5.4 12.3-8.6l10 10 11.2-11.2-10.3-10.3c3-3.9 5.7-8 8-12.4l13.6 5.7 6.1-14.7-13.8-5.5c1.4-4.8 2.3-9.6 2.8-14.6H185zm-61.7-60.4c2.2 1.4 4.3 2.9 6.3 4.5 2 1.7 3.9 3.5 5.7 5.4l.2.2c1.8 1.9 3.4 3.9 5 6.1 1.4 2 2.8 4.1 3.9 6.3l-29 12c-1.3-1.7-2.8-3.3-4.5-4.7l12.4-29.8zm-11 51.9c0 10.9-8.8 19.7-19.7 19.7-10.9 0-19.7-8.8-19.7-19.7s8.8-19.7 19.7-19.7c10.8 0 19.7 8.8 19.7 19.7zM85.5 31.4c.9-.1 1.9-.2 2.8-.3.3 0 .7-.1 1-.1.4 0 .7 0 1.1-.1.8 0 1.7-.1 2.5-.1s1.7 0 2.5.1c.4 0 .7 0 1.1.1.3 0 .7.1 1 .1 1 .1 2.1.2 3.1.3 2.8.4 5.6 1 8.3 1.7L96.4 63c-1.3-.2-2.5-.3-3.8-.3-1 0-2 .1-3 .2L77.2 33.1c2.7-.8 5.5-1.4 8.3-1.7zM45.3 55.6c.8-1 1.5-2.1 2.3-3l.3-.3c.8-.9 1.5-1.8 2.4-2.7l.2-.2c1.8-1.9 3.7-3.7 5.8-5.3 2-1.7 4.2-3.2 6.4-4.6L74.9 69c-1.8 1.4-3.5 3.1-4.9 4.9L41.3 62c1.2-2.2 2.6-4.4 4-6.4zM34.2 99.5c-.1-1-.2-2.1-.3-3.1 0-.3-.1-.7-.1-1 0-.4 0-.8-.1-1.1 0-.9-.1-1.7-.1-2.6 0-.9 0-1.7.1-2.6v-1c0-.6.1-1.3.1-1.9.1-.6.1-1.2.2-1.8.3-2.6.8-5.2 1.4-7.7L64 88.6c-.1.9-.1 1.9-.1 2.9 0 1.3.1 2.6.3 3.9l-28.5 11.8c-.7-2.5-1.1-5.1-1.5-7.7zm28.6 44.6c-2.2-1.3-4.3-2.8-6.3-4.4-2.1-1.7-4-3.4-5.8-5.4l-2.4-2.7c-.2-.2-.3-.4-.5-.5-.8-.9-1.5-1.9-2.3-2.9-1.5-2-2.8-4.1-4-6.3l29-12c1.4 1.6 2.9 3.1 4.6 4.4l-12.3 29.8zm37.7 7.9c-1 .1-2 .2-3.1.3-.3 0-.7.1-1 .1-.4 0-.7 0-1.1.1-.8 0-1.7.1-2.5.1s-1.7 0-2.5-.1c-.4 0-.7 0-1.1-.1-.3 0-.6-.1-1-.1-.9-.1-1.9-.2-2.8-.3-2.8-.4-5.5-.9-8.1-1.6L90 120c.9.1 1.7.1 2.6.1 1.2 0 2.3-.1 3.4-.2l12.6 30.4c-2.7.8-5.3 1.3-8.1 1.7zm39.7-24c-.7 1-1.5 2-2.3 3-.1.2-.3.3-.4.5-.7.9-1.5 1.7-2.3 2.6l-.2.2c-1.8 1.9-3.7 3.7-5.8 5.3-2 1.6-4 3.1-6.2 4.4l-12.5-30.2c1.5-1.2 2.9-2.6 4.2-4.1l29.4 12.2c-1.2 2-2.5 4.1-3.9 6.1zm11.6-33.7c0 .4 0 .8-.1 1.1 0 .3 0 .7-.1 1-.1 1-.2 2.1-.3 3.1-.3 2.6-.8 5.1-1.4 7.5l-29-12c.1-1.2.2-2.3.2-3.5 0-.9 0-1.7-.1-2.5l29-12c.6 2.5 1 5 1.3 7.6.1.6.1 1.2.2 1.8.1.6.1 1.3.1 1.9v1c0 .9.1 1.7.1 2.6.2.7.2 1.5.1 2.4z"/>
</svg>
