<svg xmlns="http://www.w3.org/2000/svg" viewBox="0 0 124 124"><style>.teal{fill:#408689}.navy{fill:#141e33}</style><path class="teal" d="M124 69.7V54.3h-12.6c-.6-3.6-1.5-7-2.8-10.3l10.9-6.3-7.7-13.3-10.9 6.3c-2.2-2.8-4.8-5.3-7.6-7.5l6.3-10.9-13.3-7.8L80 15.4c-3.3-1.3-6.7-2.2-10.3-2.8V0H54.3v12.6c-3.6.6-7 1.5-10.3 2.8L37.7 4.5l-13.3 7.7 6.3 10.9c-2.8 2.2-5.3 4.8-7.6 7.5l-10.9-6.3-7.7 13.4L15.4 44c-1.3 3.3-2.2 6.7-2.8 10.3H0v15.4h12.6c.6 3.6 1.5 7 2.8 10.3L4.5 86.3l7.7 13.3 10.9-6.3c2.2 2.8 4.8 5.3 7.6 7.6l-6.3 10.9 13.3 7.7 6.3-10.9c3.3 1.3 6.8 2.2 10.3 2.8V124h15.4v-12.5c3.6-.6 7.1-1.5 10.3-2.8l6.3 10.9 13.3-7.7-6.2-10.9c2.8-2.2 5.3-4.8 7.6-7.6l10.9 6.3 7.7-13.3-11-6.4c1.3-3.3 2.2-6.7 2.8-10.3H124z"/><circle class="navy" cx="62" cy="62" r="27.7"/></svg>