<?xml version="1.0" encoding="utf-8"?>
<!-- Generator: Adobe Illustrator 19.2.0, SVG Export Plug-In . SVG Version: 6.00 Build 0)  -->
<svg version="1.1" id="gear-double" xmlns="http://www.w3.org/2000/svg" xmlns:xlink="http://www.w3.org/1999/xlink" x="0px" y="0px"
	 viewBox="0 0 326 326" style="enable-background:new 0 0 326 326;" xml:space="preserve">
<path class="teal" d="M326,177v-28h-29.6c-0.8-9-2.3-16.1-4.5-23.7l27.9-11.7l-10.7-25.9L281.7,99c-3.9-7.5-8.4-14.6-13.6-21.2
	l20.5-20.5l-19.8-19.8l-20.1,20.1c-6.3-5.3-13-10-20.2-14.1l10.7-25.8L213.4,7l-10.7,25.3c-8.2-2.6-16.6-4.3-25.6-5.2V0h-28v27.1
	c-8,0.9-16.4,2.7-24.3,5.1L114.3,7L88.5,17.7l10.7,25.8C91.9,47.6,85,52.5,78.6,58L58.1,37.5L38.3,57.3l21,21
	c-5,6.4-9.4,13.4-13.1,20.7L18.7,87.6L8,113.5l27.9,11.8c-2.1,7.6-3.6,14.7-4.5,23.7H0v28h31.4c0.8,8,2.3,16.2,4.5,24L8,212.5
	l10.7,25.8l27.5-11.4c3.7,7.2,8,14,12.9,20.4L38.3,268l19.8,19.8l20.2-20.2c6.5,5.6,13.5,10.6,21,14.8l-10.7,25.8l25.9,10.7
	l10.2-25.3c7.9,2.5,16.3,4.2,24.3,5.1V326h28v-27.2c9-0.9,17.5-2.7,25.6-5.2l10.6,25.3l25.9-10.7l-10.6-25.8
	c7.3-4.1,14.1-9,20.5-14.4l19.8,19.8l19.8-19.8l-20.3-20.3c5-6.5,9.5-13.5,13.3-20.9l27.5,11.4l10.7-25.9L291.9,201
	c2.2-7.8,3.7-16,4.5-24H326z M163.9,258.2c-52.6,0-95.3-42.7-95.3-95.3c0-52.6,42.7-95.3,95.3-95.3s95.3,42.7,95.3,95.3
	C259.2,215.5,216.6,258.2,163.9,258.2z"/>
<path class="teal" d="M219.6,162.9c0-4.3-0.5-8.6-1.5-12.7l7-2.9l-6.9-16.7l-7,2.9c-2.2-3.6-4.9-6.9-7.9-10c-3.1-3.1-6.4-5.7-10-7.9
	l2.9-7l-16.7-6.9l-2.9,7c-4.1-1-8.4-1.5-12.7-1.5c-4.3,0-8.6,0.5-12.7,1.5l-2.9-7l-16.7,6.9l2.9,7c-3.6,2.2-6.9,4.9-10,7.9
	c-3.1,3.1-5.7,6.4-7.9,10l-7-2.9l-6.9,16.7l7,2.9c-1,4.1-1.5,8.4-1.5,12.7s0.5,8.6,1.5,12.7l-7,2.9l6.9,16.7l7-2.9
	c2.2,3.6,4.9,6.9,7.9,10s6.4,5.7,10,7.9l-2.9,7l16.7,6.9l2.9-7c4.1,1,8.4,1.5,12.7,1.5s8.6-0.5,12.7-1.5l2.9,7l16.7-6.9l-2.9-7
	c3.6-2.2,6.9-4.9,10-7.9c3.1-3.1,5.7-6.4,7.9-10l7,2.9l6.9-16.7l-7-2.9C219.1,171.5,219.6,167.2,219.6,162.9z M139.6,127.8
	c5.1-3.5,10.8-5.8,16.7-6.9l0,0c2.5-0.5,5.1-0.7,7.6-0.7c2.5,0,5.1,0.2,7.6,0.7c5.9,1.1,11.6,3.4,16.7,6.9c0.9,0.6,1.8,1.3,2.7,2
	l-20.3,20.3c-2.1-1.1-4.4-1.7-6.9-1.7c-2.4,0-4.6,0.6-6.6,1.6l-20.2-20.2C137.8,129.2,138.7,128.5,139.6,127.8L139.6,127.8z
	 M139,197.8L139,197.8c-2-1.3-4.2-2.9-6-4.8s-3-3.8-5-5.8v0c-3-5.1-5-10.8-7-16.7v0c0-5-0.2-9.5,0.7-14.5h0.1c1.1-6,3.4-12,7-17h0
	c0.5-1,1-1.6,1.5-2.2l20.1,20c-1,2-1.7,4.2-1.7,6.6c0,6.6,4.2,12.2,10.2,14.1v27.8c-1-0.1-1.6,0.7-2.6-0.3h-0.1
	C150.5,204,144,201.3,139,197.8z M163.9,205.6L163.9,205.6C163.9,205.6,163.9,205.6,163.9,205.6
	C163.9,205.6,163.9,205.6,163.9,205.6z M194,193.1c-1.8,1.8-4,3.5-6,4.9v-0.2c-5,3.5-10.6,6.2-16.5,7.2h0c-1,1-2.5,0.2-3.5,0.3
	v-27.9c6-2,10.3-7.5,10.3-14c0-2.3-0.4-4.5-1.3-6.4l20.4-20.4c0.5,0.7,1.1,1.7,1.5,2.4c3.5,5.1,5.9,11,6.9,17h0
	c0.9,5,0.9,9.8,0,14.9l0,0c-1.1,5.9-3.4,11.4-7,16.5l0,0C197.5,189.4,195.8,191.2,194,193.1z"/>
</svg>
