<svg class="gear" xmlns="http://www.w3.org/2000/svg" viewBox="0 0 124 124">
	<style>
		.cog {
			fill:#418789;
		}
		.center {
			fill:#141f33;
		}
	</style>
	<path class="cog" d="M124 73V51l-17.9-2.9c-.8-2.6-1.9-5.1-3.1-7.5l10.6-14.7-15.5-15.5L83.3 21c-2.4-1.2-4.8-2.3-7.4-3.1L73 0H51l-2.9 18.1c-2.5.8-4.9 1.8-7.2 3l-15-10.7-15.5 15.5L21.3 41c-1.1 2.2-2.1 4.6-2.9 7L0 51v22l18.5 3c.8 2.4 1.7 4.7 2.9 6.9l-11 15.2L26 113.7l15.2-10.9c2.2 1.1 4.5 2.1 6.9 2.9l3 18.4h22l2.9-18.3c2.5-.8 4.9-1.8 7.1-2.9l15 10.8 15.6-15.6L103 83.3c1.2-2.3 2.3-4.8 3.1-7.3l17.9-3zM62.1 89.6c-15.3 0-27.7-12.4-27.7-27.7 0-15.3 12.4-27.7 27.7-27.7 15.3 0 27.7 12.4 27.7 27.7 0 15.3-12.4 27.7-27.7 27.7z"/>
	<circle class="center" cx="62.1" cy="61.9" r="27.7"/>
</svg>
