<?xml version="1.0" encoding="utf-8"?>
<!-- Generator: Adobe Illustrator 19.0.1, SVG Export Plug-In . SVG Version: 6.00 Build 0)  -->
<svg version="1.1" id="Layer_1" xmlns="http://www.w3.org/2000/svg" xmlns:xlink="http://www.w3.org/1999/xlink" x="0px" y="0px"
	 viewBox="0 0 115 115" style="enable-background:new 0 0 115 115;" xml:space="preserve">
<style type="text/css">
	.gear0{fill:#418788;}
</style>
<path class="gear0" d="M115,71V45h-13.8c-1-3.3-2.3-6.4-3.9-9.4l9.6-9.6L88.5,7.7l-9.6,9.6c-2.8-1.5-5.8-2.7-8.9-3.6V0H44v13.7
	c-3.1,0.9-6,2.1-8.7,3.6l-9.6-9.6L7.2,26.1l9.6,9.6c-1.6,2.9-2.9,6.1-3.9,9.4H0v26h13c0.9,3,2.1,5.9,3.6,8.6L7.2,89l18.4,18.4
	l9.3-9.3c2.9,1.6,5.9,2.9,9.1,3.8V115h26v-13.1c3.2-0.9,6.3-2.2,9.2-3.8l9.3,9.3L106.9,89l-9.4-9.4c1.5-2.7,2.7-5.6,3.6-8.6H115z
	 M57,85.5c-15.3,0-27.7-12.4-27.7-27.7c0-15.3,12.4-27.7,27.7-27.7c15.3,0,27.7,12.4,27.7,27.7C84.6,73.1,72.2,85.5,57,85.5z"/>
</svg>
