<svg xmlns="http://www.w3.org/2000/svg" viewBox="0 0 124 124">
	<style>
		.teal {
			fill:#418789
		}
		.navy {
			fill:#141f33
		}
	</style>
	<path class="teal" d="M124 72.1V51.9h-10.7c-.5-2.3-1.1-4.6-1.8-6.8l9.3-5.4-10.1-17.5-9.3 5.4c-1.5-1.8-3.2-3.4-5-5l5.4-9.3-17.5-10-5.4 9.3c-2.2-.8-4.5-1.4-6.8-1.8V0H51.9v10.8c-2.3.5-4.6 1.1-6.8 1.8l-5.4-9.3-17.4 10 5.4 9.3c-1.8 1.5-3.4 3.2-5 5l-9.3-5.4L3.3 39.7l9.3 5.4c-.8 2.2-1.4 4.5-1.8 6.8H0v20.2h10.7c.5 2.3 1.1 4.6 1.8 6.8l-9.3 5.4 10.1 17.5 9.3-5.4c1.6 1.8 3.2 3.4 5 5l-5.4 9.3 17.5 10.1 5.4-9.3c2.2.8 4.5 1.4 6.8 1.8V124h20.2v-10.7c2.3-.5 4.6-1.1 6.8-1.8l5.4 9.3 17.5-10.1-5.4-9.3c1.8-1.6 3.4-3.2 5-5l9.3 5.4 10.1-17.5-9.3-5.4c.8-2.2 1.4-4.5 1.8-6.8H124z"/>
	<circle class="navy" cx="62" cy="62" r="27.7"/>
</svg>
