<?xml version="1.0" encoding="utf-8"?>
<!-- Generator: Adobe Illustrator 19.2.0, SVG Export Plug-In . SVG Version: 6.00 Build 0)  -->
<svg version="1.1" id="gear-wheelie" xmlns="http://www.w3.org/2000/svg" xmlns:xlink="http://www.w3.org/1999/xlink" x="0px" y="0px"
	 viewBox="0 0 185 185" style="enable-background:new 0 0 185 185;" xml:space="preserve">
<path class="teal" d="M185,100V85h-14.5c-0.5-6-1.4-10.3-2.7-15.1l13.7-5.8l-6.1-14.7L162,54.8c-2.3-4.5-5-8.7-8-12.6l10-10L152.8,21
	l-9.7,9.7c-3.8-3.3-8-6.3-12.4-8.8l5.1-12.3l-14.7-6.1l-5.2,12c-5-1.6-9.8-2.7-15.8-3.2V0H85v12.2c-5,0.5-10.4,1.6-15.4,3.2
	L64.8,3.5L50.2,9.6l5.1,12.1c-4.5,2.5-8.6,5.5-12.5,8.8L33.2,21L22,32.2l9.8,9.8c-3.1,3.9-5.8,8.2-8.1,12.7l-13.1-5.4L4.5,63.9
	l13.3,5.8c-1.4,4.8-2.3,9.3-2.8,15.3H0v15h15.1c0.5,5,1.5,9.9,2.9,14.7l-13.5,5.5l6.1,14.6l13.3-5.6c2.3,4.4,5,8.6,8.1,12.5
	l-10.1,10L33.2,163l9.8-9.8c3.9,3.3,8,6.2,12.4,8.6l-5.2,12.6l14.7,6.1l4.9-12.4c5,1.5,10.2,2.6,15.2,3.1V185h15v-13.8
	c6-0.5,10.7-1.6,15.6-3.2l5.3,12.5l14.7-6.1l-5.3-12.8c4.4-2.5,8.5-5.4,12.3-8.6l10,10l11.2-11.2l-10.3-10.3c3-3.9,5.7-8,8-12.4
	l13.6,5.7l6.1-14.7l-13.8-5.5c1.4-4.8,2.3-9.6,2.8-14.6H185z M123.3,39.6c2.2,1.4,4.3,2.9,6.3,4.5c2,1.7,3.9,3.5,5.7,5.4
	c0.1,0.1,0.1,0.1,0.2,0.2c1.8,1.9,3.4,3.9,5,6.1c1.4,2,2.8,4.1,3.9,6.3l-29,12c-1.3-1.7-2.8-3.3-4.5-4.7L123.3,39.6z M112.3,91.5
	c0,10.9-8.8,19.7-19.7,19.7c-10.9,0-19.7-8.8-19.7-19.7s8.8-19.7,19.7-19.7C103.4,71.8,112.3,80.6,112.3,91.5z M85.5,31.4
	c0.9-0.1,1.9-0.2,2.8-0.3c0.3,0,0.7-0.1,1-0.1c0.4,0,0.7,0,1.1-0.1c0.8,0,1.7-0.1,2.5-0.1c0.8,0,1.7,0,2.5,0.1c0.4,0,0.7,0,1.1,0.1
	c0.3,0,0.7,0.1,1,0.1c1,0.1,2.1,0.2,3.1,0.3c2.8,0.4,5.6,1,8.3,1.7L96.4,63c-1.3-0.2-2.5-0.3-3.8-0.3c-1,0-2,0.1-3,0.2L77.2,33.1
	C79.9,32.3,82.7,31.7,85.5,31.4z M45.3,55.6c0.8-1,1.5-2.1,2.3-3c0.1-0.1,0.2-0.2,0.3-0.3c0.8-0.9,1.5-1.8,2.4-2.7
	c0.1-0.1,0.1-0.1,0.2-0.2c1.8-1.9,3.7-3.7,5.8-5.3c2-1.7,4.2-3.2,6.4-4.6l12.2,29.5c-1.8,1.4-3.5,3.1-4.9,4.9L41.3,62
	C42.5,59.8,43.9,57.6,45.3,55.6z M34.2,99.5c-0.1-1-0.2-2.1-0.3-3.1c0-0.3-0.1-0.7-0.1-1c0-0.4,0-0.8-0.1-1.1c0-0.9-0.1-1.7-0.1-2.6
	c0-0.9,0-1.7,0.1-2.6c0-0.3,0-0.7,0-1c0-0.6,0.1-1.3,0.1-1.9c0.1-0.6,0.1-1.2,0.2-1.8c0.3-2.6,0.8-5.2,1.4-7.7L64,88.6
	c-0.1,0.9-0.1,1.9-0.1,2.9c0,1.3,0.1,2.6,0.3,3.9l-28.5,11.8C35,104.7,34.6,102.1,34.2,99.5z M62.8,144.1c-2.2-1.3-4.3-2.8-6.3-4.4
	c-2.1-1.7-4-3.4-5.8-5.4c0,0,0,0,0,0c-0.8-0.9-1.6-1.8-2.4-2.7c-0.2-0.2-0.3-0.4-0.5-0.5c-0.8-0.9-1.5-1.9-2.3-2.9
	c-1.5-2-2.8-4.1-4-6.3l29-12c1.4,1.6,2.9,3.1,4.6,4.4L62.8,144.1z M100.5,152c-1,0.1-2,0.2-3.1,0.3c-0.3,0-0.7,0.1-1,0.1
	c-0.4,0-0.7,0-1.1,0.1c-0.8,0-1.7,0.1-2.5,0.1c-0.8,0-1.7,0-2.5-0.1c-0.4,0-0.7,0-1.1-0.1c-0.3,0-0.6-0.1-1-0.1
	c-0.9-0.1-1.9-0.2-2.8-0.3c-2.8-0.4-5.5-0.9-8.1-1.6L90,120c0.9,0.1,1.7,0.1,2.6,0.1c1.2,0,2.3-0.1,3.4-0.2l12.6,30.4
	C105.9,151.1,103.3,151.6,100.5,152z M140.2,128c-0.7,1-1.5,2-2.3,3c-0.1,0.2-0.3,0.3-0.4,0.5c-0.7,0.9-1.5,1.7-2.3,2.6
	c-0.1,0.1-0.1,0.1-0.2,0.2c-1.8,1.9-3.7,3.7-5.8,5.3c-2,1.6-4,3.1-6.2,4.4l-12.5-30.2c1.5-1.2,2.9-2.6,4.2-4.1l29.4,12.2
	C142.9,123.9,141.6,126,140.2,128z M151.8,94.3c0,0.4,0,0.8-0.1,1.1c0,0.3,0,0.7-0.1,1c-0.1,1-0.2,2.1-0.3,3.1
	c-0.3,2.6-0.8,5.1-1.4,7.5l-29-12c0.1-1.2,0.2-2.3,0.2-3.5c0-0.9,0-1.7-0.1-2.5l29-12c0.6,2.5,1,5,1.3,7.6c0.1,0.6,0.1,1.2,0.2,1.8
	c0.1,0.6,0.1,1.3,0.1,1.9c0,0.3,0,0.7,0,1c0,0.9,0.1,1.7,0.1,2.6C151.9,92.6,151.9,93.4,151.8,94.3z"/>
</svg>
