<svg id="layout-portfolio" xmlns="http://www.w3.org/2000/svg" width="300" height="221.8" viewBox="0 0 300 221.8"><style>.layout-portfolio0{fill:#83a2a9}.layout-portfolio1{fill:#aecbcf}.layout-portfolio2{fill:#9dbbbf}</style><path class="layout-portfolio0" d="M0 0h300v221.8H0z"/><path class="layout-portfolio1" d="M12.2 11.8h276v69.8h-276z"/><path class="layout-portfolio0" d="M0 0h300v221.8H0z"/><path class="layout-portfolio1" d="M12.2 11.8h276v69.8h-276z"/><path class="layout-portfolio0" d="M0 0h300v221.8H0z"/><path class="layout-portfolio1" d="M10 10h280v71.6H10zM121.5 90.7h56.1v56.1h-56.1z"/><path class="layout-portfolio2" d="M187.2 90.7h56.1v56.1h-56.1zM55.8 90.7h56.1v56.1H55.8zM121.5 156.2h56.1v56.1h-56.1z"/><path class="layout-portfolio1" d="M187.2 156.2h56.1v56.1h-56.1zM55.8 156.2h56.1v56.1H55.8z"/></svg>