<svg id="layout-business" xmlns="http://www.w3.org/2000/svg" width="300" height="221.8" viewBox="0 0 300 221.8"><style>.layout-business0{fill:#83a2a9}.layout-business1{fill:#aecbcf}.layout-business2{fill:#9dbbbf}</style><path class="layout-business0" d="M0 0h300v221.8H0z"/><path class="layout-business1" d="M10 10h280v95.6H10zM204 182.1h85.5v5.7H204zM204 194.3h85.5v5.7H204zM204 206.4h43v5.7h-43z"/><path class="layout-business2" d="M204 115.7h86v58.7h-86zM106.6 182.1h85.5v5.7h-85.5zM106.6 194.3h85.5v5.7h-85.5zM106.6 206.4h43v5.7h-43z"/><path class="layout-business1" d="M106.6 115.7h86v58.7h-86z"/><g><path class="layout-business1" d="M10.5 182.1H96v5.7H10.5zM10.5 194.3H96v5.7H10.5zM10.5 206.4h43v5.7h-43z"/></g><path class="layout-business2" d="M10.5 115.7h86v58.7h-86z"/></svg>