<svg class="type-layout" id="layout-magazine" xmlns="http://www.w3.org/2000/svg" width="300" height="221.8" viewBox="0 0 300 221.8"><style>.layout-magazine0{fill:#83a2a9}.layout-magazine1{fill:#aecbcf}.layout-magazine2{fill:#9dbbbf}</style><path class="layout-magazine0" d="M0 0h300v221.8H0z"/><path class="layout-magazine1" d="M10 10h280v45.2H10z"/><path class="layout-magazine2" d="M94.3 63.5H206v5.7H94.3zM94.3 75.7H206v5.7H94.3zM94.3 87.8h56.2v5.7H94.3zM94.3 100.5H206v5.7H94.3zM94.3 112.7H206v5.7H94.3zM94.3 124.8h56.2v5.7H94.3z"/><path class="layout-magazine1" d="M216 129h74v5.7h-74zM216 141.1h37.2v5.7H216zM216 155.5h74v5.7h-74zM216 167.6h74v5.7h-74zM216 179.8h37.2v5.7H216z"/><g><path class="layout-magazine2" d="M94.3 194.2H206v5.7H94.3zM94.3 206.3h56.2v5.7H94.3z"/></g><path class="layout-magazine1" d="M94 139.2h112v45.9H94z"/><path class="layout-magazine2" d="M216 63.5h74v55.2h-74z"/><g><path class="layout-magazine1" d="M10 63.5h74.3v5.7H10zM10 75.7h74.3v5.7H10zM10 87.8h37.4v5.7H10z"/></g><g><path class="layout-magazine1" d="M10 103.7h74.3v5.7H10zM10 115.8h74.3v5.7H10zM10 128h37.4v5.7H10z"/></g><path class="layout-magazine2" d="M10 142.9h74.3v62.6H10z"/></svg>