<svg id="layout-classic" xmlns="http://www.w3.org/2000/svg" width="300" height="221.8" viewBox="0 0 300 221.8"><style>.layout-classic0{fill:#83a2a9}.layout-classic1{fill:#aecbcf}.layout-classic2{fill:#9dbbbf}</style><path class="layout-classic0" d="M0 0h300v221.8H0z"/><path class="layout-classic1" d="M10 10h280v45.2H10zM10 66.3h84.3v12.2H10z"/><path class="layout-classic2" d="M10 87.7h84.3V140H10zM106 66.3h182.2V72H106zM106 78.5h182.2v5.7H106zM106 90.7h91.6v5.7H106z"/><path class="layout-classic1" d="M106 104.9h182.2v5.7H106zM106 117.1h182.2v5.7H106zM106 129.2h91.6v5.7H106z"/><g><path class="layout-classic2" d="M106 143.4h182.2v5.7H106zM106 155.6h182.2v5.7H106zM106 167.8h91.6v5.7H106z"/></g><g><path class="layout-classic1" d="M106 182h182.2v5.7H106zM106 194.2h182.2v5.7H106zM106 206.3h91.6v5.7H106z"/></g></svg>