<svg class="love-and-labour" xmlns="http://www.w3.org/2000/svg" viewBox="0 0 32 32" aria-labelledby="title" role="img"><title id="title">Love</title><style>.heart{fill:#c64e4e;stroke:#e96461}.heart,.wrench{stroke-miterlimit:10}.wrench{fill:#418789;stroke:#366e6e}</style><title>love-and-labour</title><path class="heart" d="M16 30.5S-4.2 16.1 2.9 8C9.3.8 16 10 16 10S22.8.8 29.1 8C36.2 16.1 16 30.5 16 30.5z"/><path class="wrench" d="M10.8 7.8L7.5 8.9l4.2 3.6-.5 2.3-.3.2-2.3.8-4.1-3.6-.7 3.5 4.6 4 3.4-1.2 11.5 11.8c1.5 1.3 3.7 1.1 4.9-.3 1.3-1.5 1.1-3.7-.3-4.9l-13.2-9.7.7-3.5-4.6-4.1zm15.8 20.7c-.6.6-1.5.7-2.1.1-.6-.6-.7-1.5-.1-2.1.6-.6 1.5-.7 2.1-.1.5.5.6 1.4.1 2.1z"/></svg>