<?xml version="1.0" encoding="utf-8"?>
<!-- Generator: Adobe Illustrator 19.0.1, SVG Export Plug-In . SVG Version: 6.00 Build 0)  -->
<svg version="1.1" id="Magazine" xmlns="http://www.w3.org/2000/svg" xmlns:xlink="http://www.w3.org/1999/xlink" x="0px" y="0px"
	 width="190.7px" height="190.7px" viewBox="0 0 190.7 190.7" style="enable-background:new 0 0 190.7 190.7;" xml:space="preserve"
	>
<style type="text/css">
	.mobile-magazine0{clip-path:url(#SVGID_2_);}
	.mobile-magazine1{fill:#E5E5E4;}
	.mobile-magazine2{fill:#959595;}
	.mobile-magazine3{fill:#E9DFCB;}
	.mobile-magazine4{opacity:0.6;}
	.mobile-magazine5{clip-path:url(#SVGID_4_);fill:#D7C6A3;}
	.mobile-magazine6{fill:#F06A66;}
	.mobile-magazine7{fill:none;stroke:#C4C3C3;stroke-miterlimit:10;}
	.mobile-magazine8{fill:#C4C3C3;}
	.mobile-magazine9{fill:#FFFFFF;}
	.mobile-magazine10{fill:#E18687;}
	.mobile-magazine11{fill:#EFE4A5;}
	.mobile-magazine12{fill:#39C2DE;}
	.mobile-magazine13{fill:#AEBB86;}
	.mobile-magazine14{fill:#4F9DA2;}
	.mobile-magazine15{fill:#94BEC0;}
	.mobile-magazine16{clip-path:url(#SVGID_6_);fill:#E5E5E4;}
	.mobile-magazine17{clip-path:url(#SVGID_6_);fill:#C4C3C3;}
	.mobile-magazine18{clip-path:url(#SVGID_6_);fill:#FFFFFF;}
	.mobile-magazine19{clip-path:url(#SVGID_6_);fill:#959595;}
	.mobile-magazine20{clip-path:url(#SVGID_6_);fill:#F06A66;}
	.mobile-magazine21{clip-path:url(#SVGID_6_);fill:none;stroke:#C4C3C3;stroke-miterlimit:10;}
	.mobile-magazine22{clip-path:url(#SVGID_6_);}
	.mobile-magazine23{fill:#8BCDD8;}
	.mobile-magazine24{opacity:0.4;}
	.mobile-magazine25{clip-path:url(#SVGID_8_);}
</style>
<g>
	<defs>
		<rect id="SVGID_1_" width="190.7" height="190.7"/>
	</defs>
	<clipPath id="SVGID_2_">
		<use xlink:href="#SVGID_1_"  style="overflow:visible;"/>
	</clipPath>
	<g class="mobile-magazine0">
		<g>
			<path class="mobile-magazine1" d="M187.1,142.4c-8.3,9-21.7,12.4-33.7,7.5c-10.7-4.4-17.5-14.1-18.7-24.9l-8.7,0.9c1.5,13.8,10.3,26.4,24,32.1
				c15.5,6.3,32.7,2,43.5-9.6L187.1,142.4z"/>
			<path class="mobile-magazine1" d="M207.9,139.5c0,0.2,0,0.4-0.1,0.5c-0.8,4-4.6,6.6-8.6,5.8s-6.6-4.6-5.8-8.6c0.8-4,4.6-6.6,8.6-5.8
				c0.3,0.1,0.7,0.2,1,0.3l2.9-8.3c-0.7-0.2-1.4-0.5-2.2-0.6c-8.8-1.7-17.2,4-18.9,12.7c-1.7,8.7,4,17.2,12.7,18.9
				c8.8,1.7,17.2-4,18.9-12.7c0.1-0.4,0.1-0.8,0.2-1.2L207.9,139.5z"/>
			<circle class="mobile-magazine2" cx="191.2" cy="144.5" r="5.8"/>
		</g>
		<path class="mobile-magazine3" d="M196.4,45.3l-42.7,11.1l-6.5,138.2l41.7-14.9c0,0,5.7-15.5,10.5-65.4C204.1,64.4,196.4,45.3,196.4,45.3z"/>
		<g class="mobile-magazine4">
			<defs>
				<path id="SVGID_3_" class="mobile-magazine4" d="M196.4,45.3l-42.7,11.1l-6.5,138.2l41.7-14.9c0,0,5.7-15.5,10.5-65.4
					C204.1,64.4,196.4,45.3,196.4,45.3z"/>
			</defs>
			<clipPath id="SVGID_4_">
				<use xlink:href="#SVGID_3_"  style="overflow:visible;"/>
			</clipPath>
			<polygon class="mobile-magazine5" points="152.4,63.4 202.7,51.5 203.9,57.4 153.1,69.1 			"/>
			<polygon class="mobile-magazine5" points="154.7,75.3 205,63.4 203.9,65.3 153.2,77 			"/>
			<polygon class="mobile-magazine5" points="152.8,80.9 203.1,69 203.6,72.5 152.8,84.2 			"/>
			<polygon class="mobile-magazine5" points="154.7,87.5 205,75.6 206.2,81.6 155.4,93.3 			"/>
			<polygon class="mobile-magazine5" points="157,99.5 207.3,87.5 206.2,89.4 155.5,101.2 			"/>
			<polygon class="mobile-magazine5" points="155.1,105 205.4,93.1 205.9,96.7 155.1,108.4 			"/>
			<polygon class="mobile-magazine5" points="154.2,115.5 204.5,103.5 205.7,109.5 154.9,121.2 			"/>
			<polygon class="mobile-magazine5" points="156.5,127.4 206.8,115.5 205.7,117.4 154.9,129.1 			"/>
			<polygon class="mobile-magazine5" points="154.6,133 204.9,121 205.3,124.6 154.6,136.3 			"/>
			<polygon class="mobile-magazine5" points="151.2,141.1 201.5,129.2 202.7,135.1 151.9,146.8 			"/>
			<polygon class="mobile-magazine5" points="153.5,153 203.8,141.1 202.7,143 151.9,154.7 			"/>
			<polygon class="mobile-magazine5" points="151.6,158.6 201.9,146.7 202.4,150.3 151.6,162 			"/>
			<polygon class="mobile-magazine5" points="145.8,168.6 198.1,154.7 199.2,160.7 146.5,174.3 			"/>
			<polygon class="mobile-magazine5" points="150,178.6 200.3,163.5 199.2,165.5 148.5,180.3 			"/>
			<polygon class="mobile-magazine5" points="144.7,187.5 193.7,171.1 194.5,174.6 145,190.8 			"/>
		</g>
		<g>
			<circle class="mobile-magazine6" cx="20.2" cy="41" r="5.9"/>
			<path class="mobile-magazine7" d="M31.4,39"/>
			<path class="mobile-magazine7" d="M70.3,66.8C63.7,51.1,54.4,44.2,46,41.3l-5.2,4.6l2.1-9.7l-3.9,3.5C31.5,38.7,26,40.4,26,40.4"/>
		</g>
		<path class="mobile-magazine1" d="M71.4,58.6c-20.3,5.9-32,27.2-26.1,47.6l1.7,5.7l73.7-21.4l-1.7-5.7C113,64.3,91.7,52.6,71.4,58.6z"/>
		<circle class="mobile-magazine2" cx="78.9" cy="83.5" r="2"/>
		<circle class="mobile-magazine2" cx="90.5" cy="78.6" r="2"/>
		<g>
			<polygon class="mobile-magazine8" points="147.1,202.7 83.1,218.9 34.5,119.7 133.5,88.4 			"/>
			<g>
				<circle class="mobile-magazine9" cx="93.4" cy="136.2" r="23.3"/>

					<rect x="69.3" y="135.6" transform="matrix(-0.9443 0.329 -0.329 -0.9443 237.4187 254.2794)" class="mobile-magazine8" width="55.8" height="23.3"/>
				<g>
					<path class="mobile-magazine10" d="M72.4,126.1c-0.6,1.3-1.1,2.6-1.5,4c0,0.1,0,0.1-0.1,0.2c-0.2,0.6-0.3,1.2-0.4,1.8c0,0.1-0.1,0.3-0.1,0.4
						c-0.1,0.6-0.1,1.1-0.2,1.7c0,0.2,0,0.4-0.1,0.6c0,0.5,0,1.1,0,1.6c0,0.2,0,0.5,0,0.7c0,0.5,0.1,1.1,0.1,1.6
						c0,0.2,0,0.5,0.1,0.7c0.1,0.6,0.2,1.2,0.3,1.8c0,0.1,0.1,0.3,0.1,0.4c0.2,0.8,0.4,1.5,0.7,2.2l22-7.7L72.4,126.1z"/>
					<path class="mobile-magazine11" d="M85.7,114.3c-1.3,0.5-2.6,1.1-3.9,1.8c-0.1,0-0.1,0.1-0.2,0.1c-0.5,0.3-1.1,0.7-1.6,1
						c-0.1,0.1-0.2,0.1-0.3,0.2c-0.5,0.3-0.9,0.7-1.3,1.1c-0.1,0.1-0.3,0.2-0.4,0.4c-0.4,0.4-0.8,0.7-1.2,1.1
						c-0.2,0.2-0.3,0.3-0.5,0.5c-0.4,0.4-0.7,0.8-1,1.2c-0.1,0.2-0.3,0.4-0.4,0.5c-0.4,0.5-0.7,1-1,1.5c-0.1,0.1-0.2,0.2-0.3,0.4
						c-0.4,0.7-0.8,1.3-1.1,2.1l20.9,10.1L85.7,114.3z"/>
					<path class="mobile-magazine12" d="M103.5,115.3c1.3,0.6,2.5,1.4,3.6,2.2c0.1,0,0.1,0.1,0.2,0.1c0.5,0.4,1,0.8,1.4,1.2
						c0.1,0.1,0.2,0.2,0.3,0.3c0.4,0.4,0.8,0.8,1.2,1.2c0.1,0.1,0.3,0.3,0.4,0.4c0.4,0.4,0.7,0.8,1,1.2c0.1,0.2,0.3,0.4,0.4,0.5
						c0.3,0.4,0.6,0.9,0.9,1.3c0.1,0.2,0.3,0.4,0.4,0.6c0.3,0.5,0.6,1.1,0.9,1.6c0.1,0.1,0.1,0.3,0.2,0.4c0.3,0.7,0.6,1.4,0.9,2.2
						l-22,7.7L103.5,115.3z"/>
					<path class="mobile-magazine13" d="M85.7,114.3c1.3-0.5,2.7-0.8,4.1-1c0.1,0,0.1,0,0.2,0c0.6-0.1,1.2-0.1,1.9-0.2c0.1,0,0.3,0,0.4,0
						c0.6,0,1.1,0,1.7,0c0.2,0,0.4,0,0.6,0c0.5,0,1.1,0.1,1.6,0.2c0.2,0,0.5,0,0.7,0.1c0.5,0.1,1,0.2,1.6,0.3
						c0.2,0.1,0.5,0.1,0.7,0.1c0.6,0.2,1.2,0.3,1.8,0.5c0.1,0,0.3,0.1,0.4,0.1c0.7,0.3,1.4,0.6,2.2,0.9l-10.1,20.9L85.7,114.3z"/>
				</g>
				<path class="mobile-magazine9" d="M95,133.2c0.1,0.9-0.6,1.8-1.6,1.8c-0.9,0.1-1.8-0.6-1.8-1.6s0.7-13.6,0.7-13.6S94.9,132.3,95,133.2z"/>
				<circle class="mobile-magazine1" cx="93.4" cy="136.2" r="5.5"/>
			</g>
		</g>
		<path class="mobile-magazine14" d="M153.7,56.4L95,30.9c0,0,6.6,33.6,3.6,64.7c-3,31-10.4,66.8-10.4,66.8l57.3,32.9l1.6-0.7
			c0,0,5.4-27.7,8.9-64.9C159.6,92.5,153.7,56.4,153.7,56.4L153.7,56.4z"/>
		<polygon class="mobile-magazine15" points="95,30.9 143.3,20.7 196.4,45.3 153.7,56.4 		"/>
		<polygon class="mobile-magazine9" points="158.6,91.8 177.5,86.8 172.7,93.6 		"/>
		<polygon class="mobile-magazine9" points="177.5,148.1 196.4,143.1 199.2,146.4 		"/>
		<polygon class="mobile-magazine9" points="175.7,110.6 194.6,105.6 189.8,112.3 		"/>
		<polygon class="mobile-magazine9" points="181,66.8 199.9,61.8 202.7,65.1 		"/>
		<g>
			<defs>
				<polygon id="SVGID_5_" points="196.4,45.3 153.7,56.4 95,30.9 143.3,20.7 				"/>
			</defs>
			<clipPath id="SVGID_6_">
				<use xlink:href="#SVGID_5_"  style="overflow:visible;"/>
			</clipPath>
			<path class="mobile-magazine16" d="M216.8,71.5l0.2,0l4.9-0.9c-1-1.2-2.7-2.5-5.1-3.7c-5.6-2.9-13.9-4.8-22-5.4l0.6,2.1
				c6.2,0.5,12.5,2,16.8,4.2C214.7,69,216.2,70.3,216.8,71.5z"/>
			<path class="mobile-magazine17" d="M234,71.9c3.9,2.2,2.9,4.6-2.3,5.4c-5.2,0.8-12.6-0.3-16.6-2.5c-3.9-2.2-2.9-4.6,2.3-5.4
				C222.6,68.6,230,69.7,234,71.9z"/>
			<path class="mobile-magazine18" d="M231.3,72.3c2.8,1.6,2.1,3.3-1.7,3.9c-3.8,0.6-9.1-0.2-12-1.8c-2.8-1.6-2.1-3.3,1.7-3.9
				C223.1,69.9,228.5,70.7,231.3,72.3z"/>
			<polygon class="mobile-magazine18" points="249.6,74.9 216.3,80.2 207.4,75.3 240.7,70 			"/>
			<path class="mobile-magazine16" d="M184.7,32.2c6.4,1.9,10.3,4.8,9.2,7.3c-1,2.2-5.7,3.6-11.8,3.7l1.8,1.9c7.8-0.2,13.9-1.9,15.2-4.8
				c1.5-3.2-3.5-7-11.8-9.4L184.7,32.2z"/>
			<path class="mobile-magazine16" d="M180.1,27.7c0.1,0,0.2,0,0.3,0c2.4,0.2,4.5,1.1,4.6,1.9s-1.8,1.4-4.2,1.2c-2.4-0.2-4.5-1.1-4.6-1.9
				c0-0.1,0-0.1,0-0.2L171,28c0,0.1-0.1,0.3,0,0.5c0.3,1.8,4.8,3.7,10.1,4.2c5.3,0.5,9.5-0.7,9.2-2.5c-0.3-1.8-4.8-3.7-10.1-4.2
				c-0.2,0-0.5,0-0.7,0L180.1,27.7z"/>
			<path class="mobile-magazine19" d="M187.8,30.7c1.4,0.6,1.4,1.3,0.1,1.7s-3.5,0.1-4.9-0.5c-1.4-0.6-1.4-1.3-0.1-1.7S186.5,30.1,187.8,30.7z"/>
			<path class="mobile-magazine16" d="M163.1,64.1c-7.2-1.2-13.1-3.8-14.3-6.6c-1.1-2.4,1.8-4.4,7-5.2l-3.2-1.8c-6.6,1.1-10.4,3.6-9,6.7
				c1.6,3.5,9.2,6.9,18.4,8.5L163.1,64.1z"/>
			<path class="mobile-magazine16" d="M173.1,67.7c-0.1,0-0.2,0-0.3,0c-2,0.3-4.7-0.1-6.2-1c-1.4-0.8-1-1.7,1-2c2-0.3,4.7,0.1,6.2,1
				c0.1,0.1,0.2,0.1,0.3,0.2l4.6-0.4c-0.2-0.2-0.4-0.3-0.7-0.5c-3.1-1.8-9.2-2.7-13.5-2.1c-4.3,0.6-5.3,2.6-2.1,4.4
				c3.1,1.8,9.2,2.7,13.5,2.1c0.2,0,0.4-0.1,0.6-0.1L173.1,67.7z"/>
			<path class="mobile-magazine19" d="M166.1,64.6c1.1,0.6,0.8,1.3-0.8,1.6c-1.6,0.2-3.7-0.1-4.8-0.8c-1.1-0.6-0.8-1.3,0.8-1.6
				C162.8,63.7,165,64,166.1,64.6z"/>
			<path class="mobile-magazine17" d="M229.9,72.5c2.2,1.2,1.7,2.6-1.3,3.1c-2.9,0.5-7.1-0.2-9.4-1.4c-2.2-1.2-1.7-2.6,1.3-3.1
				C223.4,70.6,227.6,71.3,229.9,72.5z"/>
			<path class="mobile-magazine20" d="M130.5,23.9c1.4,0.6,1.4,1.4,0.1,1.7c-1.4,0.3-3.6,0.1-5-0.5c-1.4-0.6-1.4-1.4-0.1-1.7
				C126.9,23,129.1,23.2,130.5,23.9z"/>
			<path class="mobile-magazine21" d="M126.5,26.6"/>
			<path class="mobile-magazine17" d="M141.7,36.5c-7.9-2.1-12.8-4.4-14.7-6.8l-0.1-0.1l2.3-0.6l-5.9-0.3l2.8-0.7c-0.3-1.5,0.9-2.5,0.9-2.5
				l0.7,0.2c0,0-1.2,1-0.9,2.5l0,0.1l-1.6,0.4l5.9,0.3l-3.5,0.9c1.9,2.3,6.7,4.5,14.3,6.5L141.7,36.5z"/>
			<path class="mobile-magazine16" d="M139.7,35.6c-8.9,2.2-8.7,7.2,0.3,11.1l2.5,1.1l32.2-8l-2.5-1.1C163.1,34.8,148.6,33.4,139.7,35.6z"/>
			<path class="mobile-magazine19" d="M152.8,42c0.5,0.2,0.5,0.5,0,0.6c-0.5,0.1-1.2,0-1.7-0.2c-0.5-0.2-0.5-0.5,0-0.6
				C151.5,41.8,152.3,41.8,152.8,42z"/>
			<path class="mobile-magazine19" d="M158.4,40.7c0.5,0.2,0.5,0.5,0,0.6c-0.5,0.1-1.2,0-1.7-0.2c-0.5-0.2-0.5-0.5,0-0.6
				C157.1,40.4,157.9,40.4,158.4,40.7z"/>
			<polygon class="mobile-magazine17" points="221.7,62 192.9,68.5 138.4,50.1 180.9,38.9 			"/>
			<path class="mobile-magazine18" d="M164.8,53.4c-5.8-2.3-6.3-5.4-1.2-6.9s13.9-0.8,19.7,1.6c5.8,2.3,6.3,5.4,1.2,6.9
				C179.4,56.4,170.6,55.7,164.8,53.4z"/>
			<polygon class="mobile-magazine17" points="162.9,53.9 185.1,47.6 195.6,51.8 173.4,58.1 			"/>
			<g class="mobile-magazine22">
				<path class="mobile-magazine10" d="M160.1,49.6c0.1,0.3,0.2,0.6,0.4,0.9c0,0,0,0,0,0c0.1,0.1,0.2,0.3,0.3,0.4c0,0,0,0.1,0.1,0.1
					c0.1,0.1,0.3,0.2,0.4,0.4c0,0,0.1,0.1,0.1,0.1c0.1,0.1,0.3,0.2,0.5,0.3c0.1,0,0.1,0.1,0.2,0.1c0.2,0.1,0.3,0.2,0.5,0.3
					c0.1,0,0.2,0.1,0.2,0.1c0.2,0.1,0.5,0.2,0.7,0.4c0.1,0,0.1,0.1,0.2,0.1c0.3,0.1,0.7,0.3,1,0.4l9.2-2.6L160.1,49.6z"/>
				<path class="mobile-magazine11" d="M163.5,46.5c-0.6,0.2-1.1,0.3-1.5,0.6c0,0,0,0-0.1,0c-0.2,0.1-0.4,0.2-0.5,0.3c0,0-0.1,0-0.1,0.1
					c-0.1,0.1-0.3,0.2-0.4,0.3c0,0-0.1,0.1-0.1,0.1c-0.1,0.1-0.2,0.2-0.3,0.3c0,0-0.1,0.1-0.1,0.1c-0.1,0.1-0.1,0.2-0.2,0.3
					c0,0-0.1,0.1-0.1,0.1c0,0.1-0.1,0.2-0.1,0.4c0,0,0,0.1,0,0.1c0,0.2,0,0.3,0,0.5l13.9,1.1L163.5,46.5z"/>
				<path class="mobile-magazine23" d="M173.1,45.9c0.9,0.1,1.7,0.2,2.6,0.3c0,0,0.1,0,0.1,0c0.4,0.1,0.7,0.1,1.1,0.2c0.1,0,0.2,0,0.2,0
					c0.3,0.1,0.7,0.1,1,0.2c0.1,0,0.2,0,0.3,0.1c0.3,0.1,0.6,0.1,0.9,0.2c0.1,0,0.3,0.1,0.4,0.1c0.3,0.1,0.6,0.2,0.8,0.2
					c0.1,0,0.3,0.1,0.4,0.1c0.3,0.1,0.6,0.2,0.9,0.3c0.1,0,0.2,0,0.2,0.1c0.4,0.1,0.7,0.3,1.1,0.4l-9.2,2.6L173.1,45.9z"/>
				<path class="mobile-magazine13" d="M163.5,46.5c0.6-0.2,1.2-0.3,1.9-0.4c0,0,0.1,0,0.1,0c0.3,0,0.6-0.1,0.9-0.1c0.1,0,0.1,0,0.2,0
					c0.3,0,0.6-0.1,0.9-0.1c0.1,0,0.2,0,0.3,0c0.3,0,0.6,0,0.9,0c0.1,0,0.3,0,0.4,0c0.3,0,0.6,0,0.9,0c0.1,0,0.3,0,0.4,0
					c0.4,0,0.7,0,1.1,0c0.1,0,0.2,0,0.3,0c0.5,0,0.9,0,1.4,0.1l0.9,4.8L163.5,46.5z"/>
			</g>
			<path class="mobile-magazine18" d="M174,50c0.3,0.2,0.2,0.4-0.3,0.5c-0.5,0.1-1.1,0-1.4-0.2s-3.6-2.9-3.6-2.9S173.7,49.8,174,50z"/>
			<path class="mobile-magazine16" d="M176.2,50.1c1.4,0.5,1.5,1.3,0.3,1.6c-1.2,0.3-3.3,0.2-4.6-0.4c-1.4-0.5-1.5-1.3-0.3-1.6
				S174.8,49.6,176.2,50.1z"/>
		</g>
		<g>
			<path class="mobile-magazine9" d="M118.3,30.9c0.7-0.2,1.3-0.3,2-0.2c0.6,0,1.2,0.2,1.7,0.5c0.3,0.1,0.4,0.3,0.5,0.5c0,0.2,0,0.3-0.2,0.5
				c0.4,0,0.8,0,1.2,0.1c0.4,0.1,0.7,0.2,1,0.4l0.4,0.2c0.2,0.1,0.3,0.2,0.4,0.2c0.1,0,0.3,0,0.4,0l0.2,0l0.5,0.3l-0.5,0.1
				c-0.3,0.1-0.7,0.1-1,0c-0.3-0.1-0.7-0.2-0.9-0.3l-0.4-0.2c-0.3-0.2-0.6-0.3-1-0.3c-0.4,0-0.7,0-1.1,0.1l-1.4,0.4l1.9,1l0.8-0.1
				l0.5,0.3l-2.2,0.6l-0.5-0.3l0.6-0.3l-4.3-2.3L116,32l-0.5-0.3l0.7-0.2L118.3,30.9z M119.6,32.6l1.1-0.3c0.5-0.1,0.7-0.3,0.8-0.4
				c0.1-0.1-0.1-0.3-0.4-0.5c-0.3-0.2-0.6-0.3-1-0.3c-0.4,0-0.8,0-1.2,0.1l-1.2,0.3L119.6,32.6z"/>
			<path class="mobile-magazine9" d="M125,31.9c-0.6-0.3-0.9-0.6-0.9-1c0-0.3,0.3-0.6,0.9-0.7c0.6-0.2,1.3-0.2,2.1-0.1c0.8,0.1,1.4,0.3,2,0.7
				l0.1,0c0.6,0.3,0.9,0.6,0.9,1c0,0.3-0.3,0.6-0.9,0.7c-0.6,0.2-1.3,0.2-2.1,0.1C126.4,32.4,125.7,32.2,125,31.9L125,31.9z
				 M125.9,31.7c0.4,0.2,0.9,0.4,1.4,0.5c0.5,0.1,0.9,0.1,1.3,0c0.4-0.1,0.6-0.3,0.5-0.5c-0.1-0.2-0.3-0.4-0.7-0.7l-0.1,0
				c-0.4-0.2-0.9-0.4-1.4-0.5c-0.5-0.1-0.9-0.1-1.3,0c-0.4,0.1-0.6,0.3-0.5,0.5C125.2,31.2,125.4,31.4,125.9,31.7L125.9,31.7z"/>
			<path class="mobile-magazine9" d="M134.4,29.4c0.6,0.3,0.9,0.6,0.9,0.9c0,0.3-0.2,0.5-0.8,0.7c-0.3,0.1-0.6,0.1-0.9,0.1c-0.3,0-0.7,0-1-0.1
				l0.4,0.3l-0.7,0.2l-5.3-2.9l-0.8,0.1l-0.5-0.3l1.6-0.4l2.3,1.2c0-0.1,0-0.3,0.1-0.4c0.1-0.1,0.3-0.2,0.6-0.3
				c0.6-0.2,1.2-0.2,1.9,0C133,28.7,133.6,29,134.4,29.4L134.4,29.4z M133.4,29.6c-0.5-0.3-0.9-0.4-1.4-0.5c-0.5-0.1-0.9-0.1-1.3,0
				c-0.3,0.1-0.4,0.2-0.5,0.3c-0.1,0.1-0.1,0.2,0,0.4l1.8,1c0.3,0.1,0.6,0.1,0.9,0.1c0.3,0,0.6,0,0.8-0.1c0.4-0.1,0.6-0.3,0.5-0.5
				C134.1,30.1,133.9,29.8,133.4,29.6L133.4,29.6z"/>
			<path class="mobile-magazine9" d="M135,29c-0.6-0.3-0.9-0.6-0.9-1c0-0.3,0.3-0.6,0.9-0.7c0.6-0.2,1.3-0.2,2.1-0.1c0.8,0.1,1.4,0.3,2,0.7l0.1,0
				c0.6,0.3,0.9,0.7,0.9,1c0,0.3-0.3,0.6-0.9,0.7c-0.6,0.2-1.3,0.2-2.1,0.1C136.4,29.6,135.7,29.4,135,29L135,29z M135.9,28.8
				c0.4,0.2,0.9,0.4,1.4,0.5c0.5,0.1,0.9,0.1,1.3,0c0.4-0.1,0.6-0.3,0.5-0.5c-0.1-0.2-0.3-0.4-0.7-0.7l-0.1,0
				c-0.4-0.2-0.9-0.4-1.4-0.5c-0.5-0.1-0.9-0.1-1.3,0c-0.4,0.1-0.6,0.3-0.5,0.5C135.2,28.3,135.4,28.6,135.9,28.8L135.9,28.8z"/>
			<path class="mobile-magazine9" d="M138.5,25.6l1,0.5l0.9-0.2l0.5,0.3l-0.9,0.2l2.4,1.3c0.2,0.1,0.4,0.2,0.5,0.2c0.2,0,0.3,0,0.5,0
				c0.1,0,0.2,0,0.2-0.1c0.1,0,0.1-0.1,0.2-0.1l0.6,0.2c0,0-0.1,0.1-0.2,0.2c-0.1,0.1-0.3,0.1-0.4,0.2c-0.3,0.1-0.7,0.1-1.1,0.1
				c-0.4,0-0.8-0.2-1.1-0.4l-2.4-1.3l-0.7,0.2l-0.5-0.3l0.7-0.2l-1-0.5L138.5,25.6z"/>
			<path class="mobile-magazine9" d="M129.1,39.9l-0.5-0.3l0.6-0.3l-4.3-2.3l-0.8,0.1l-0.5-0.3l0.7-0.2l0.8-0.2l0.7-0.2l0.5,0.3l-0.6,0.3l4.3,2.3
				l2.2-0.6l-0.6-0.4l0.7-0.2l1.2,0.6L129.1,39.9z"/>
			<path class="mobile-magazine9" d="M133.8,38.2l0.6-0.3l-2.9-1.5l-0.8,0.1l-0.5-0.3l1.5-0.4l3.4,1.9l0.8-0.1l0.5,0.3l-2.2,0.6L133.8,38.2z
				 M130.7,35.3l-0.8,0.2l-0.7-0.4l0.8-0.2L130.7,35.3z"/>
			<path class="mobile-magazine9" d="M135.2,35.3l-0.5,0.2l3.2,1l0.4,0.1l0,0l-0.2-0.2l-1.3-1.5l-0.6,0.1l-0.5-0.3l1.8-0.5l0.5,0.3l-0.3,0.1
				l1.9,2.3l-0.6,0.2l-5-1.4l-0.4,0.1l-0.5-0.3l1.8-0.5L135.2,35.3z"/>
			<path class="mobile-magazine9" d="M141.5,36l0.6-0.3l-2.8-1.6l-0.8,0.1l-0.5-0.3l1.5-0.4l3.4,1.9l0.8-0.1l0.5,0.3l-2.2,0.6L141.5,36z
				 M138.5,33.1l-0.8,0.2l-0.7-0.4l0.8-0.2L138.5,33.1z"/>
			<path class="mobile-magazine9" d="M144.2,35.3l0.6-0.3l-2.8-1.6l-0.8,0.1l-0.5-0.3l1.4-0.4l0.6,0.3c-0.1-0.2,0-0.3,0.1-0.4
				c0.1-0.1,0.3-0.2,0.6-0.3c0.5-0.1,1-0.2,1.5-0.1c0.5,0.1,1,0.2,1.6,0.5l1.9,1.1l0.8-0.1l0.5,0.3l-2.2,0.6l-0.5-0.3l0.6-0.3
				l-1.9-1.1c-0.3-0.2-0.7-0.3-1-0.3c-0.3,0-0.6,0-1,0.1c-0.2,0.1-0.4,0.2-0.5,0.3c-0.1,0.1-0.1,0.2,0,0.4l2.3,1.3l0.8-0.1l0.5,0.3
				l-2.2,0.6L144.2,35.3z"/>
			<path class="mobile-magazine9" d="M148.5,32.9c-0.6-0.4-1-0.7-1-1c-0.1-0.3,0.2-0.5,0.8-0.7c0.3-0.1,0.6-0.1,0.9-0.1c0.3,0,0.6,0,1,0.1
				l-0.4-0.3l0.7-0.2l3.9,2.2c0.5,0.3,0.7,0.5,0.7,0.8c0,0.3-0.4,0.5-1,0.6c-0.2,0.1-0.5,0.1-0.8,0.2c-0.3,0-0.6,0.1-0.9,0.1
				l-0.3-0.4c0.2,0,0.5,0,0.7-0.1c0.3,0,0.5-0.1,0.7-0.1c0.4-0.1,0.6-0.2,0.6-0.4c0-0.1-0.2-0.3-0.5-0.5l-0.4-0.2
				c0,0.1,0,0.3-0.2,0.4c-0.1,0.1-0.3,0.2-0.6,0.3c-0.6,0.2-1.2,0.2-1.9,0.1C149.7,33.4,149.1,33.2,148.5,32.9L148.5,32.9z
				 M149.4,32.7c0.4,0.2,0.8,0.4,1.2,0.4c0.4,0.1,0.9,0.1,1.3-0.1c0.3-0.1,0.4-0.2,0.5-0.3c0.1-0.1,0.1-0.2,0-0.3l-1.8-1
				c-0.3-0.1-0.5-0.1-0.8-0.1c-0.3,0-0.5,0-0.8,0.1c-0.4,0.1-0.6,0.3-0.5,0.5C148.6,32.2,148.9,32.4,149.4,32.7L149.4,32.7z"/>
		</g>
		<g class="mobile-magazine24">
			<defs>
				<path id="SVGID_7_" class="mobile-magazine24" d="M95,30.9c0,0,6.6,33.6,3.6,64.7c-3,31-10.4,66.8-10.4,66.8l57.3,32.9l1.6-0.7
					c0,0,5.4-27.7,8.9-64.9c3.6-37.2-2.4-73.3-2.4-73.3L95,30.9z"/>
			</defs>
			<clipPath id="SVGID_8_">
				<use xlink:href="#SVGID_7_"  style="overflow:visible;"/>
			</clipPath>
			<g class="mobile-magazine25">
				<polygon class="mobile-magazine15" points="168.4,71.2 75.8,29.9 74.7,35.9 167.7,76.9 				"/>
				<polygon class="mobile-magazine15" points="166.2,83.1 73.6,41.8 74.7,43.7 167.7,84.8 				"/>
				<polygon class="mobile-magazine15" points="168,88.7 75.5,49.8 75,53.3 168.1,92 				"/>
				<polygon class="mobile-magazine15" points="166.1,95.3 73.5,56.4 72.3,62.4 165.4,101 				"/>
				<polygon class="mobile-magazine15" points="163.9,107.2 71.3,68.3 72.3,70.2 165.4,109 				"/>
				<polygon class="mobile-magazine15" points="165.7,112.8 73.2,73.9 72.7,77.5 165.7,116.2 				"/>
				<polygon class="mobile-magazine15" points="166.6,123.2 74.1,84.3 72.9,90.3 165.9,129 				"/>
				<polygon class="mobile-magazine15" points="164.4,135.2 71.8,96.2 72.9,98.2 165.9,136.9 				"/>
				<polygon class="mobile-magazine15" points="166.3,143.1 73.7,101.8 73.2,105.4 166.3,146.5 				"/>
				<polygon class="mobile-magazine15" points="169.6,151.2 77,110 75.9,115.9 168.9,157 				"/>
				<polygon class="mobile-magazine15" points="167.4,164.3 74.8,121.9 75.9,123.8 168.9,166.1 				"/>
				<polygon class="mobile-magazine15" points="169.3,169.9 76.7,127.5 76.2,131 169.3,173.3 				"/>
				<polygon class="mobile-magazine15" points="175,179.9 80.5,135.5 79.3,141.5 174.3,185.6 				"/>
				<polygon class="mobile-magazine15" points="170.9,191.1 78.3,144.3 79.3,146.2 172.4,192.8 				"/>
				<polygon class="mobile-magazine15" points="176.1,200 84.8,151.9 84,155.4 175.8,203.3 				"/>
			</g>
		</g>
		<polygon class="mobile-magazine3" points="114.5,65 98.7,60 95,66.8 		"/>
		<polygon class="mobile-magazine3" points="150.5,91.8 131.6,86.8 136.4,93.6 		"/>
		<polygon class="mobile-magazine3" points="122.2,127.7 103.3,122.7 108.1,129.5 		"/>
		<polygon class="mobile-magazine3" points="108.6,145.5 92.8,140.5 89.1,147.3 		"/>
		<path class="mobile-magazine1" d="M100.9,160.9c-9.1,8.2-22.8,10.3-34.3,4.3c-10-5.3-15.9-15.3-16.2-25.9c0-0.2,0.1-0.4,0.1-0.6
			c0-2.4-2-4.4-4.4-4.4s-4.4,2-4.4,4.4c0,0,0,0.1,0,0.1l0,0c0.2,13.9,7.7,27.3,20.9,34.2c14.8,7.8,32.4,5.1,44.2-5.5L100.9,160.9z"
			/>
		<g>
			<path class="mobile-magazine1" d="M121,155.2c0,0.2,0,0.4,0,0.6c0,4.1-3.4,7.3-7.4,7.3c-4.1,0-7.3-3.4-7.3-7.4c0-4.1,3.4-7.3,7.4-7.3
				c0.3,0,0.7,0,1,0.1l1.3-8.7c-0.7-0.1-1.5-0.2-2.2-0.2c-8.9-0.1-16.2,7.1-16.3,16c-0.1,8.9,7.1,16.2,16,16.3
				c8.9,0.1,16.2-7.1,16.3-16c0-0.4,0-0.8,0-1.2L121,155.2z"/>
			<circle class="mobile-magazine2" cx="104.9" cy="163.5" r="5.8"/>
		</g>
		<path class="mobile-magazine1" d="M123.6,211.3l-9.9,2.5c0,4.4-0.9,8.9-2.7,13.2c-1.8,4.3-4.5,8.1-7.7,11.2c1.7,0.3,3.4,0.9,5,1.7
			c1.6,0.8,3,1.8,4.3,2.9c3-3.5,5.6-7.4,7.4-11.9C122.9,224.5,124,217.8,123.6,211.3z"/>
		<g>
			<path class="mobile-magazine8" d="M90.4,245.8c4.1-5.1,11.3-7,17.4-4c6.1,3,9.1,9.8,7.6,16.2l5,2.4c2.8-9.1-1.3-19.2-10.2-23.6
				c-8.9-4.3-19.4-1.4-24.8,6.5L90.4,245.8z"/>
			<path class="mobile-magazine8" d="M96.6,264.7c-5.5-2.7-7.8-9.4-5.1-14.9c2.7-5.5,9.4-7.8,14.9-5.1c5.5,2.7,7.8,9.4,5.1,14.9
				C108.9,265.1,102.2,267.4,96.6,264.7"/>
		</g>
	</g>
</g>
</svg>
