<svg id="Business" xmlns="http://www.w3.org/2000/svg" width="190.7" height="190.7" viewBox="0 0 190.7 190.7" aria-hidden="true"><style>.mobile-business0{fill:#cecbcb}.mobile-business1{fill:#ecebec}.mobile-business2{fill:#e75b5a}.mobile-business3{fill:none;stroke:#cecbcb;stroke-miterlimit:10}.mobile-business4{fill:#9e9b9a}.mobile-business5{fill:#FFF}.mobile-business6{fill:#5c928f}.mobile-business7{opacity:.49;fill:#68abae}.mobile-business8{fill:none}.mobile-business9{fill:#68abae}</style><path class="mobile-business0" d="M55.7 189.2L43.2 117l103.4-2.3-12.3 74.5z"/><path class="mobile-business0" d="M144.9 116.2L133 187.7H56.9l-12-69.2 100-2.3m3.5-3.1l-107 2.4 13 75.1h81.1l12.9-77.5z"/><path class="mobile-business1" d="M179.1 139.4c-5.9-11.5-16.6-18.8-28.4-21l-1.5 8.9c9.1 1.7 17.3 7.4 21.9 16.3 6.2 11.9 3.9 25.9-4.6 35.3l6.7 6.1c11-12.2 13.9-30.3 5.9-45.6z"/><circle class="mobile-business2" cx="117.4" cy="16.2" r="6.1"/><path class="mobile-business0" d="M95.6 70.5c-4.8-14.2-4.3-26.6 1.5-36.8l.2-.3h5.7l-8.2-6.1h7c5.1-5.6 10.3-8 10.5-8.1l.5 1.1c-.1 0-5.3 2.4-10.3 8l-.2.2h-3.9l8.2 6.1h-8.7c-5.4 9.8-5.8 21.8-1.2 35.5l-1.1.4z"/><path class="mobile-business1" d="M95.5 65.6C73.7 65.6 56 83.3 56 105.2v6.1h79.1v-6.1c0-21.9-17.7-39.6-39.6-39.6z"/><circle class="mobile-business4" cx="90.9" cy="99.7" r="2.1"/><circle class="mobile-business4" cx="104.6" cy="99.7" r="2.1"/><path class="mobile-business0" d="M86.9 109.3c-5.2 0-9.5-4.3-9.5-9.5s4.3-9.5 9.5-9.5 9.5 4.3 9.5 9.5c0 5.3-4.3 9.5-9.5 9.5zm0-16.6c-3.9 0-7.1 3.2-7.1 7.1s3.2 7.1 7.1 7.1c3.9 0 7.1-3.2 7.1-7.1s-3.2-7.1-7.1-7.1z"/><path class="mobile-business0" d="M104.6 108c-5.2 0-9.5-4.3-9.5-9.5s4.3-9.5 9.5-9.5 9.5 4.3 9.5 9.5c0 5.3-4.3 9.5-9.5 9.5zm0-16.6c-3.9 0-7.1 3.2-7.1 7.1s3.2 7.1 7.1 7.1 7.1-3.2 7.1-7.1-3.2-7.1-7.1-7.1zM113 94.8l-1.1-2.2c7.6-3.9 14.5-5.4 21.6-4.7l-.2 2.4c-6.8-.6-13 .8-20.3 4.5zM77.6 97.4c-.2-.3-5.9-6.8-19.4-5l-.3-2.4c14.9-1.9 21.3 5.5 21.6 5.9l-1.9 1.5.9-.8-.9.8z"/><path class="mobile-business5" d="M131.9 190.7l4.7-6.6.5-2.7-6.7 9.3zM125 190.7l13.7-19 .4-2.7-15.6 21.7zM118.2 190.7l22.5-31.4.5-2.7-24.5 34.1zM111.3 190.7l31.5-43.8.4-2.7-33.4 46.5zM104.4 190.7l40.5-56.2.4-2.7-42.4 58.9zM97.6 190.7l49.3-68.6.5-2.7-51.3 71.3zM89.2 190.7h1.5l55.8-77.5H145zM82.3 190.7h1.5l55.7-77.4-1.5.1zM75.5 190.7H77l55.5-77.2H131zM68.6 190.7h1.5l55.5-77.1-1.6.1zM61.7 190.7h1.5l55.4-76.9h-1.5zM54.9 190.7h1.5l55.2-76.7h-1.5zM53.4 185.2l51.2-71.1h-1.5l-49.9 69.4zM52.1 177.5l45.5-63.2h-1.5l-44.3 61.5zM50.8 169.8l39.8-55.4-1.5.1-38.6 53.6zM49.5 162.1l34.2-47.5h-1.6l-32.9 45.8zM48.1 154.4l28.6-39.7-1.5.1-27.4 37.9zM46.8 146.7l22.9-31.8h-1.5L46.5 145zM45.5 139l17.2-23.9h-1.5l-16 22.3zM44.1 131.3l11.6-16.1-1.5.1-10.4 14.4zM42.8 123.7l6-8.3h-1.6l-4.7 6.6z"/><path class="mobile-business6" d="M106.8 190.7l-14.1-77-12.4 77z"/><path class="mobile-business7" d="M92.7 113.7l.8 77h13.3z"/><path class="mobile-business1" d="M178.6 185.1c-4.4-8.1-14.5-11.1-22.6-6.7-4.8 2.6-7.8 7.2-8.5 12.2h9.3c.6-1.7 1.8-3.3 3.5-4.2 3.7-2 8.3-.6 10.3 3 .2.4.4.8.5 1.2h9.3c-.2-1.8-.8-3.7-1.8-5.5z"/><circle class="mobile-business4" cx="169.1" cy="182.9" r="5.9"/><path class="mobile-business6" d="M139.3 190.7h45.6v-.3l-45.8-2.2z"/><path class="mobile-business1" d="M156 178.5c-4.8 2.6-7.8 7.2-8.5 12.2h9.3c.5-1.6 1.6-2.9 3-3.9l-3-8.7c-.2.1-.5.2-.8.4zM42.4 138.8c-3.9-1.6-7.6-3.9-10.8-7.2-9.4-9.6-11.4-23.6-6-35.1l-8.2-3.8c-6.9 14.8-4.4 32.9 7.8 45.3 5.4 5.5 12 9.1 19 10.9l-1.8-10.1z"/><path class="mobile-business1" d="M25.3 75c-.2 0-.4.1-.6.1-4 1.3-6.2 5.5-5 9.5 1.3 4 5.5 6.2 9.5 5 4-1.3 6.2-5.5 5-9.5-.1-.3-.2-.7-.4-1l8.2-3.9.9 2.1c2.7 8.8-2.1 18.1-10.9 20.9-8.8 2.7-18.1-2.1-20.9-10.9-2.8-8.7 2.1-18 10.9-20.8l1.2-.3 2.1 8.8z"/><circle class="mobile-business4" cx="21.8" cy="93.4" r="5.9"/><path class="mobile-business8" d="M0 0h190.7v190.7H0z"/><path class="mobile-business0" d="M54.4 190.7h2l-12.6-73.2 102.2-2.3-12.5 75.5h2l12.9-77.6-107 2.4z"/><path class="mobile-business9" d="M100.6 132.7l-15.8-.6-4.2-19.4 25.6.9z"/></svg>