<?xml version="1.0" encoding="utf-8"?>
<!-- Generator: Adobe Illustrator 19.0.1, SVG Export Plug-In . SVG Version: 6.00 Build 0)  -->
<svg version="1.1" id="Portfolio" xmlns="http://www.w3.org/2000/svg" xmlns:xlink="http://www.w3.org/1999/xlink" x="0px" y="0px"
	 width="190.7px" height="190.7px" viewBox="0 0 190.7 190.7" style="enable-background:new 0 0 190.7 190.7;" xml:space="preserve"
	>
<style type="text/css">
	.mobile-portfolio0{clip-path:url(#SVGID_2_);}
	.mobile-portfolio1{fill:#EA6361;}
	.mobile-portfolio2{fill:none;stroke:#C4C3C3;stroke-miterlimit:10;}
	.mobile-portfolio3{fill:#C4C3C3;}
	.mobile-portfolio4{fill:#E5E5E4;}
	.mobile-portfolio5{fill:#FFFFFF;}
	.mobile-portfolio6{fill:#E18687;}
	.mobile-portfolio7{fill:#EFE4A5;}
	.mobile-portfolio8{fill:#8BCDD8;}
	.mobile-portfolio9{fill:#AEBB86;}
	.mobile-portfolio10{fill:#383838;}
	.mobile-portfolio11{fill:#94BEC0;}
	.mobile-portfolio12{fill:#EEC25F;}
	.mobile-portfolio13{fill:#959595;}
	.mobile-portfolio14{fill:#4F9DA2;}
	.mobile-portfolio15{fill:#D35333;}
	.mobile-portfolio16{fill:none;}
	.mobile-portfolio17{fill:#F06A66;}
	.mobile-portfolio18{fill:#D39F5C;}
</style>
<g>
	<defs>
		<rect id="SVGID_1_" width="190.7" height="190.7"/>
	</defs>
	<clipPath id="SVGID_2_">
		<use xlink:href="#SVGID_1_"  style="overflow:visible;"/>
	</clipPath>
	<g class="mobile-portfolio0">
		<circle class="mobile-portfolio1" cx="65.9" cy="18.6" r="6"/>
		<path class="mobile-portfolio2" d="M75.8,24.5"/>
		<path class="mobile-portfolio3" d="M87.3,72l-1.1-0.4c4.6-13.5,4.2-25.3-1.2-34.9l-8.5,0l8.1-6l-3.8,0l-0.2-0.2c-4.9-5.5-10.1-7.8-10.1-7.8
			l0.5-1.1c0.2,0.1,5.3,2.4,10.3,7.9l6.9,0l-8.1,6l5.6,0l0.2,0.3C91.6,45.8,92.1,58,87.3,72z"/>
		<path class="mobile-portfolio4" d="M23.7,207c-0.2,0-0.4,0-0.6-0.1c-4.1-0.7-6.8-4.5-6.1-8.6c0.7-4.1,4.5-6.8,8.6-6.1c4.1,0.7,6.8,4.5,6.1,8.6
			c-0.1,0.3-0.1,0.7-0.3,1l8.5,2.7c0.2-0.7,0.4-1.4,0.5-2.2c1.5-8.9-4.5-17.4-13.4-18.9c-8.9-1.5-17.4,4.5-18.9,13.4
			c-1.5,8.9,4.5,17.4,13.4,18.9c0.4,0.1,0.8,0.1,1.2,0.1L23.7,207z"/>
		<path class="mobile-portfolio4" d="M76.4,256.3c1.4-0.7,3-1.2,4.6-1.4c2.1-0.3,4.1-0.2,6.1,0.3c-2.4-4.2-3.9-8.9-4.4-14
			c-1.1-11.3,3.4-21.8,11.1-28.9l-6.4-7.8c-10.2,9.2-16.1,22.9-14.8,37.7C73.1,247.1,74.4,251.9,76.4,256.3z"/>
		<path class="mobile-portfolio4" d="M32.9,132.5c-6.6,2.6-12.5,7-17.1,13.1c-10.1,13.6-10.2,31.7-1.5,45.2l7.5-4.8c-6.8-10.5-6.7-24.4,1.2-35
			c3.1-4.2,7.1-7.4,11.6-9.5L32.9,132.5z"/>
		<polygon class="mobile-portfolio3" points="119.2,229.2 52.2,226.8 33.1,116.3 138.3,113.9 		"/>
		<circle class="mobile-portfolio5" cx="85.7" cy="149.1" r="23.6"/>

			<rect x="58" y="149.1" transform="matrix(-0.9987 5.183915e-02 -5.183915e-02 -0.9987 180.8166 317.1486)" class="mobile-portfolio3" width="56.7" height="23.6"/>
		<g>
			<path class="mobile-portfolio6" d="M68.1,133.3c-1,1.1-1.8,2.2-2.6,3.5c0,0.1-0.1,0.1-0.1,0.2c-0.3,0.5-0.6,1.1-0.9,1.7
				c-0.1,0.1-0.1,0.2-0.2,0.4c-0.2,0.5-0.5,1.1-0.7,1.6c-0.1,0.2-0.2,0.4-0.2,0.5c-0.2,0.5-0.3,1-0.5,1.6c-0.1,0.2-0.1,0.4-0.2,0.7
				c-0.1,0.5-0.2,1-0.3,1.6c0,0.2-0.1,0.5-0.1,0.7c-0.1,0.6-0.1,1.2-0.2,1.9c0,0.2,0,0.3,0,0.5c0,0.8,0,1.6,0,2.4l23.6-1.2
				L68.1,133.3z"/>
			<path class="mobile-portfolio7" d="M84.5,125.5c-1.4,0.1-2.9,0.3-4.3,0.6c-0.1,0-0.1,0-0.2,0c-0.6,0.2-1.2,0.3-1.8,0.5c-0.1,0-0.3,0.1-0.4,0.1
				c-0.5,0.2-1.1,0.4-1.6,0.7c-0.2,0.1-0.4,0.1-0.5,0.2c-0.5,0.2-1,0.5-1.4,0.8c-0.2,0.1-0.4,0.2-0.6,0.3c-0.5,0.3-0.9,0.6-1.3,0.9
				c-0.2,0.1-0.4,0.3-0.6,0.4c-0.5,0.4-1,0.8-1.4,1.2c-0.1,0.1-0.2,0.2-0.4,0.3c-0.6,0.5-1.1,1.1-1.7,1.7l17.5,15.8L84.5,125.5z"/>
			<path class="mobile-portfolio8" d="M101.5,131.6c1.1,1,2,2,2.9,3.2c0,0.1,0.1,0.1,0.1,0.2c0.4,0.5,0.7,1,1.1,1.6c0.1,0.1,0.2,0.2,0.2,0.4
				c0.3,0.5,0.6,1,0.8,1.5c0.1,0.2,0.2,0.3,0.3,0.5c0.2,0.5,0.4,1,0.6,1.5c0.1,0.2,0.2,0.4,0.3,0.6c0.2,0.5,0.3,1,0.5,1.5
				c0.1,0.2,0.1,0.5,0.2,0.7c0.2,0.6,0.3,1.2,0.4,1.8c0,0.1,0.1,0.3,0.1,0.4c0.1,0.8,0.2,1.6,0.2,2.4l-23.6,1.2L101.5,131.6z"/>
			<path class="mobile-portfolio9" d="M84.5,125.5c1.4-0.1,2.9,0,4.3,0.2c0.1,0,0.1,0,0.2,0c0.6,0.1,1.2,0.2,1.9,0.4c0.1,0,0.3,0.1,0.4,0.1
				c0.6,0.1,1.1,0.3,1.7,0.5c0.2,0.1,0.4,0.1,0.6,0.2c0.5,0.2,1,0.4,1.5,0.6c0.2,0.1,0.4,0.2,0.6,0.3c0.5,0.2,1,0.5,1.4,0.7
				c0.2,0.1,0.4,0.2,0.6,0.3c0.5,0.3,1,0.7,1.6,1c0.1,0.1,0.3,0.2,0.4,0.3c0.6,0.5,1.2,1,1.8,1.5l-15.8,17.5L84.5,125.5z"/>
		</g>
		<path class="mobile-portfolio5" d="M88.1,146.7c-0.2,0.9-1.1,1.5-2.1,1.3c-0.9-0.2-1.5-1.1-1.3-2.1c0.2-0.9,4.6-13,4.6-13S88.3,145.7,88.1,146.7
			z"/>
		<circle class="mobile-portfolio4" cx="85.7" cy="149.1" r="5.5"/>
		<path class="mobile-portfolio4" d="M153.1,61.8c-0.2,0.1-0.3,0.2-0.5,0.3c-3.5,2.2-4.6,6.8-2.4,10.3s6.8,4.6,10.3,2.4c3.5-2.2,4.6-6.8,2.4-10.3
			c-0.2-0.3-0.4-0.6-0.6-0.8l6.9-5.7c0.5,0.6,0.9,1.2,1.3,1.8c4.8,7.7,2.4,17.8-5.3,22.5c-7.7,4.8-17.8,2.4-22.5-5.3
			c-4.8-7.7-2.4-17.8,5.3-22.5c0.4-0.2,0.7-0.4,1.1-0.6L153.1,61.8z"/>
		<g>
			<path class="mobile-portfolio10" d="M134.5,55.5c1.8,1.1,4.1,0.5,5.2-1.3c1.1-1.8,0.5-4.1-1.3-5.2c-1.8-1.1-8.2-0.5-8.2-0.5
				S132.7,54.4,134.5,55.5z"/>
			<path class="mobile-portfolio11" d="M135.9,49.5c-0.9,1.4-2.2,2.4-3.9,3c-1.1-1.9-2-4-2-4s3.8-0.3,6.3,0C136.3,48.9,136.1,49.2,135.9,49.5z"/>
		</g>
		<path class="mobile-portfolio12" d="M145.7,61.7c3.6,2.1,33,18.1,33.9,16.7c0.9-1.4-27.2-19.7-30.8-21.9c-3.6-2.1-7.2-2.7-8-1.3
			S142.2,59.5,145.7,61.7z"/>
		<path class="mobile-portfolio4" d="M162.9,64.5c-0.2-0.3-0.4-0.6-0.6-0.8l6.9-5.7c0.5,0.6,0.9,1.2,1.3,1.8c4.6,7.4,2.5,17-4.4,21.9l-3.6-8.8
			C164.3,70.6,164.6,67.2,162.9,64.5z"/>
		<path class="mobile-portfolio4" d="M86.3,67.2c-21.5,0-38.9,17.4-38.9,38.9v6h77.9v-6C125.2,84.6,107.8,67.2,86.3,67.2z"/>
		<circle class="mobile-portfolio13" cx="81.7" cy="100.7" r="2.1"/>
		<circle class="mobile-portfolio13" cx="95.2" cy="100.7" r="2.1"/>
		<circle class="mobile-portfolio14" cx="112.4" cy="197.1" r="1.7"/>
		<circle class="mobile-portfolio14" cx="106.5" cy="186.3" r="0.9"/>
		<circle class="mobile-portfolio11" cx="50.4" cy="151.8" r="1.5"/>
		<circle class="mobile-portfolio15" cx="95.8" cy="84.7" r="1.5"/>
		<circle class="mobile-portfolio15" cx="100.5" cy="93" r="1.1"/>
		<path class="mobile-portfolio15" d="M110.9,75.9c-0.3,0.1-0.5,0.4-0.6,0.8c-0.8,2.4-0.2,6.8-0.2,6.8c-0.2,2.4-6.1,3.3-4.8,6
			c1.3,2.7,9,3.1,10.1,1c1.1-2.1,5.1-1.3,5,1.6c-0.1,2,1.7,2.3,2.9,1.6C120.8,86.6,116.5,80.5,110.9,75.9z"/>
		<path class="mobile-portfolio16" d="M86.3,67.2c-21.5,0-38.9,17.4-38.9,38.9v6h77.9v-6C125.2,84.6,107.8,67.2,86.3,67.2z"/>
		<path class="mobile-portfolio17" d="M122.3,154.7c-1.6-8.9-10.7,4-10.7,4s-3.4,6.9,3.6,8.1c7.1,1.2,7.4,7.9,5.1,9.5c-2.4,1.6-8.3,9.5-2.8,11.1
			c2.4,0.7,5.6,0.8,8.5,0.7l5-30.1C127.2,159.1,123.1,159.2,122.3,154.7z"/>
		<path class="mobile-portfolio11" d="M62.3,170.7c-4.9-0.2-1.9-14-9.9-14.3c-7.9-0.3,0.7,12.1-3.6,14.3c0,0-2.7,1.7-5.9,2.8l6,34.4
			c2.5,3.7,4.8,8,8.5,6.1c6-3.1,6.4-20.8,1.6-23s-3.4-11.4,3.3-11.4C69,179.6,67.1,170.9,62.3,170.7z"/>
		<path class="mobile-portfolio14" d="M123.7,202c-2.8,2.5-5,9-8.1,8c0,0-16.5-3.9-11.3-11.3s-10.4-4.8-10.4-4.8s-7.3,2.5-3.2,8.3
			c4.2,5.9-0.4,10.9-3.2,10.3c-2.8-0.5-12.6,0.9-9.8,5.9c2,3.6,6.7,7.6,9.2,9.6l21.4,0.8c1-3.9,6.6-6.9,10.5-3
			c0.3,0.3,0.6,0.5,0.9,0.7L123.7,202z"/>
		<polygon class="mobile-portfolio16" points="119.2,229.2 52.2,226.8 33.1,116.3 138.3,113.9 		"/>
		<path class="mobile-portfolio12" d="M47.2,192.1c-3.5-0.5-7-0.9-10.2-0.5c-3.2,0.4-5.3,2.3-5.3,4c0.1,2.7,5.7,2.4,2.6,5.2
			c-3.1,2.8-6.6-3-11.2-3.6c-4.6-0.6-8.2,2.7-8.6,5.5c-1.1,8.1,11.9,16.4,28.9,18.6S75,218.8,76,210.7
			C77.1,202.7,64.1,194.3,47.2,192.1z M43.4,200.2c-2.2-0.3-3.8-1.4-3.7-2.4c0.1-1,2-1.6,4.2-1.4c2.2,0.3,3.8,1.4,3.7,2.4
			C47.5,199.8,45.6,200.5,43.4,200.2z"/>
		<path class="mobile-portfolio6" d="M22.3,208.3c-0.5,1.6,2.2,3.4,3.4,3.1s3.6-0.7,3.9-1.4c0.2-0.8-2.3-2.4-3.1-2.5c-0.7-0.1-2.3-1.4-2.9-0.9
			S22.3,208.3,22.3,208.3z"/>
		<path class="mobile-portfolio18" d="M31.9,213.5c-0.5,1.6,2.2,3.4,3.4,3.1s3.6-0.7,3.9-1.4s-2.3-2.4-3.1-2.5c-0.7-0.1-2.3-1.4-2.9-0.9
			C32.5,212.1,31.9,213.5,31.9,213.5z"/>
		<path class="mobile-portfolio7" d="M42.6,216c-0.5,1.6,2.2,3.4,3.4,3.1s3.6-0.7,3.9-1.4c0.2-0.8-2.3-2.4-3.1-2.5c-0.7-0.1-2.3-1.4-2.9-0.9
			C43.2,214.6,42.6,216,42.6,216z"/>
		<path class="mobile-portfolio9" d="M53.8,214.2c-0.5,1.6,2.2,3.4,3.4,3.1s3.6-0.7,3.9-1.4c0.2-0.8-2.3-2.4-3.1-2.5s-2.3-1.4-2.9-0.9
			C54.4,212.9,53.8,214.2,53.8,214.2z"/>
		<path class="mobile-portfolio8" d="M62.1,210.8c-0.5,1.6,2.2,3.4,3.4,3.1c1.2-0.2,3.6-0.7,3.9-1.4c0.2-0.8-2.3-2.4-3.1-2.5
			c-0.7-0.1-2.3-1.4-2.9-0.9S62.1,210.8,62.1,210.8z"/>
		<path class="mobile-portfolio4" d="M28.1,183.6l-2.1,8.7c3.9,0.8,6.5,4.6,5.8,8.5c-0.1,0.3-0.1,0.7-0.3,1l8.5,2.7c0.2-0.7,0.4-1.4,0.5-2.2
			C42,193.7,36.4,185.5,28.1,183.6z"/>
		<circle class="mobile-portfolio13" cx="18.5" cy="189.5" r="5.9"/>
		<path class="mobile-portfolio3" d="M69,269.9c0.4-6.6,5.4-12.3,12.3-13.3c6.9-1,13.3,2.9,15.6,9.2l5.6-0.8c-2.9-9.3-12.2-15.3-22.1-13.9
			c-9.9,1.5-17,10-17.1,19.7L69,269.9z"/>
		<circle class="mobile-portfolio3" cx="83.4" cy="270.8" r="11.3"/>
		<path class="mobile-portfolio4" d="M159.8,78.6l-7.9,4c5.6,11.1,4,25-5,34.7c-1.9,2-4,3.7-6.2,5.1l-1.8,10.8c5.4-2.1,10.3-5.4,14.5-9.9
			C165,110.9,167,93,159.8,78.6z"/>
		<circle class="mobile-portfolio13" cx="154.4" cy="79.5" r="5.9"/>
	</g>
</g>
</svg>
