<?xml version="1.0" encoding="utf-8"?>
<!-- Generator: Adobe Illustrator 19.0.1, SVG Export Plug-In . SVG Version: 6.00 Build 0)  -->
<svg version="1.1" id="Business" xmlns="http://www.w3.org/2000/svg" xmlns:xlink="http://www.w3.org/1999/xlink" x="0px" y="0px"
	 width="190.7px" height="190.7px" viewBox="0 0 190.7 190.7" style="enable-background:new 0 0 190.7 190.7;" xml:space="preserve"
	>
<style type="text/css">
	.mobile-business0{clip-path:url(#SVGID_2_);}
	.mobile-business1{fill:#ECEBEC;}
	.mobile-business2{fill:#9E9B9A;}
	.mobile-business3{fill:#E75B5A;}
	.mobile-business4{fill:none;stroke:#CECBCB;stroke-miterlimit:10;}
	.mobile-business5{fill:#CECBCB;}
	.mobile-business6{fill:#FFFFFF;}
	.mobile-business7{fill:none;}
	.mobile-business8{fill:#5C928F;}
	.mobile-business9{opacity:0.49;fill:#68ABAE;}
	.mobile-business10{fill:#68ABAE;}
	.mobile-business11{fill:none;stroke:#5C928F;stroke-width:5;stroke-miterlimit:10;}
	.mobile-business12{opacity:0.5;fill:#5C928F;}
</style>
<g>
	<defs>
		<rect id="SVGID_1_" width="190.7" height="190.7"/>
	</defs>
	<clipPath id="SVGID_2_">
		<use xlink:href="#SVGID_1_"  style="overflow:visible;"/>
	</clipPath>
	<g class="mobile-business0">
		<path class="mobile-business1" d="M93.5,242.4c-0.5,5-2,9.6-4.3,13.8c2.1-0.4,4.3-0.4,6.5-0.1c1.5,0.2,3,0.6,4.4,1.2c1.9-4.3,3.1-9,3.6-13.9
			c0.4-3.9,0.2-7.7-0.4-11.4l-10.5-0.4C93.6,235.1,93.9,238.7,93.5,242.4z"/>
		<path class="mobile-business1" d="M179.1,139.4c-5.9-11.5-16.6-18.8-28.4-21l-1.5,8.9c9.1,1.7,17.3,7.4,21.9,16.3c6.2,11.9,3.9,25.9-4.6,35.3
			l6.7,6.1C184.2,172.8,187.1,154.7,179.1,139.4z"/>
		<path class="mobile-business1" d="M167.1,200c0.2-0.1,0.3-0.2,0.5-0.2c3.7-2,5-6.6,3-10.3c-2-3.7-6.6-5-10.3-3c-3.7,2-5,6.6-3,10.3
			c0.2,0.3,0.4,0.6,0.6,0.9l-7.3,5.4c-0.5-0.6-0.9-1.3-1.3-1.9c-4.4-8.1-1.4-18.2,6.7-22.6c8.1-4.4,18.2-1.4,22.6,6.7
			c4.4,8.1,1.4,18.2-6.7,22.6c-0.4,0.2-0.8,0.4-1.1,0.5L167.1,200z"/>
		<circle class="mobile-business2" cx="169.1" cy="182.9" r="5.9"/>
		<g>
			<circle class="mobile-business3" cx="117.4" cy="16.2" r="6.1"/>
			<path class="mobile-business4" d="M107.4,22.2"/>
			<path class="mobile-business5" d="M95.6,70.5c-4.8-14.2-4.3-26.6,1.5-36.8l0.2-0.3l5.7,0l-8.2-6.1l7,0c5.1-5.6,10.3-8,10.5-8.1l0.5,1.1
				c-0.1,0-5.3,2.4-10.3,8l-0.2,0.2l-3.9,0l8.2,6.1l-8.7,0c-5.4,9.8-5.8,21.8-1.2,35.5L95.6,70.5z"/>
		</g>
		<path class="mobile-business1" d="M95.5,65.6C73.7,65.6,56,83.3,56,105.2v6.1h79.1v-6.1C135.1,83.3,117.4,65.6,95.5,65.6z"/>
		<circle class="mobile-business2" cx="90.9" cy="99.7" r="2.1"/>
		<circle class="mobile-business2" cx="104.6" cy="99.7" r="2.1"/>
		<g>
			<polygon class="mobile-business5" points="62.1,226.4 43.2,117 146.6,114.7 127.7,228.7 			"/>
			<path class="mobile-business5" d="M144.9,116.2l-18.4,111l-63.1-2.2L44.9,118.5L144.9,116.2 M148.4,113.1l-107,2.4l19.4,112.3l68.1,2.4
				L148.4,113.1L148.4,113.1z"/>
		</g>
		<path class="mobile-business5" d="M86.9,109.3c-5.2,0-9.5-4.3-9.5-9.5c0-5.2,4.3-9.5,9.5-9.5c5.2,0,9.5,4.3,9.5,9.5
			C96.4,105.1,92.1,109.3,86.9,109.3z M86.9,92.7c-3.9,0-7.1,3.2-7.1,7.1s3.2,7.1,7.1,7.1c3.9,0,7.1-3.2,7.1-7.1
			S90.8,92.7,86.9,92.7z"/>
		<path class="mobile-business5" d="M104.6,108c-5.2,0-9.5-4.3-9.5-9.5c0-5.2,4.3-9.5,9.5-9.5c5.2,0,9.5,4.3,9.5,9.5
			C114.1,103.8,109.8,108,104.6,108z M104.6,91.4c-3.9,0-7.1,3.2-7.1,7.1s3.2,7.1,7.1,7.1s7.1-3.2,7.1-7.1S108.5,91.4,104.6,91.4z"
			/>
		<path class="mobile-business5" d="M113,94.8l-1.1-2.2c7.6-3.9,14.5-5.4,21.6-4.7l-0.2,2.4C126.5,89.7,120.3,91.1,113,94.8z"/>
		<path class="mobile-business5" d="M77.6,97.4c-0.2-0.3-5.9-6.8-19.4-5L57.9,90c14.9-1.9,21.3,5.5,21.6,5.9L77.6,97.4l0.9-0.8L77.6,97.4z"/>
		<polygon class="mobile-business6" points="124.1,230.1 130.5,221.3 130.9,218.6 122.7,230 		"/>
		<polygon class="mobile-business6" points="117.4,229.8 132.5,208.9 133,206.2 116,229.8 		"/>
		<polygon class="mobile-business6" points="110.7,229.6 134.6,196.5 135,193.8 109.3,229.6 		"/>
		<polygon class="mobile-business6" points="104,229.4 136.6,184.1 137.1,181.4 102.6,229.3 		"/>
		<polygon class="mobile-business6" points="138.7,171.7 139.1,169 95.9,229.1 97.3,229.1 		"/>
		<polygon class="mobile-business6" points="90.6,228.9 140.7,159.3 141.2,156.6 89.2,228.8 		"/>
		<polygon class="mobile-business6" points="83.9,228.7 142.8,146.9 143.2,144.2 82.5,228.6 		"/>
		<polygon class="mobile-business6" points="77.2,228.4 144.9,134.5 145.3,131.8 75.8,228.4 		"/>
		<polygon class="mobile-business6" points="70.5,228.2 146.9,122.1 147.4,119.4 69.1,228.1 		"/>
		<polygon class="mobile-business6" points="146.5,113.2 145,113.2 62.4,227.9 63.8,227.9 		"/>
		<polygon class="mobile-business6" points="60.1,223.6 139.5,113.3 138,113.4 59.8,221.9 		"/>
		<polygon class="mobile-business6" points="58.8,215.9 132.5,113.5 131,113.5 58.5,214.3 		"/>
		<polygon class="mobile-business6" points="57.4,208.2 125.6,113.6 124,113.7 57.1,206.6 		"/>
		<polygon class="mobile-business6" points="56.1,200.5 118.6,113.8 117.1,113.8 55.8,198.9 		"/>
		<polygon class="mobile-business6" points="54.8,192.9 111.6,114 110.1,114 54.5,191.2 		"/>
		<polygon class="mobile-business6" points="53.4,185.2 104.6,114.1 103.1,114.1 53.2,183.5 		"/>
		<polygon class="mobile-business6" points="52.1,177.5 97.6,114.3 96.1,114.3 51.8,175.8 		"/>
		<polygon class="mobile-business6" points="50.8,169.8 90.6,114.4 89.1,114.5 50.5,168.1 		"/>
		<polygon class="mobile-business6" points="49.5,162.1 83.7,114.6 82.1,114.6 49.2,160.4 		"/>
		<polygon class="mobile-business6" points="48.1,154.4 76.7,114.7 75.2,114.8 47.8,152.7 		"/>
		<polygon class="mobile-business6" points="46.8,146.7 69.7,114.9 68.2,114.9 46.5,145 		"/>
		<polygon class="mobile-business6" points="45.5,139 62.7,115.1 61.2,115.1 45.2,137.4 		"/>
		<polygon class="mobile-business6" points="44.1,131.3 55.7,115.2 54.2,115.3 43.8,129.7 		"/>
		<polygon class="mobile-business6" points="42.8,123.7 48.8,115.4 47.2,115.4 42.5,122 		"/>
		<polygon class="mobile-business7" points="129,230.3 60.8,227.8 41.4,115.5 148.4,113.1 		"/>
		<g>
			<path class="mobile-business5" d="M146,115.2l-18.7,113l-64.8-2.3L43.8,117.5L146,115.2 M148.4,113.1l-107,2.4l19.4,112.3l68.1,2.4
				L148.4,113.1L148.4,113.1z"/>
		</g>
		<g>
			<polygon class="mobile-business8" points="93.7,206 107.3,193.2 92.7,113.7 92.7,113.7 92.7,113.7 92.7,113.7 92.7,113.7 79.8,193.6 93.7,206
				93.7,206 93.7,206 93.7,206 			"/>
			<polyline class="mobile-business9" points="93.7,206 93.7,206 93.7,206 93.7,206 93.7,206 107.3,193.2 92.7,113.7 92.7,113.7 92.7,113.7
				92.7,113.7 92.7,113.7 			"/>
		</g>
		<polygon class="mobile-business10" points="100.6,132.7 84.8,132.1 80.6,112.7 106.2,113.6 		"/>
		<polygon class="mobile-business11" points="176.2,217.3 143.6,215.6 141.8,190.8 181.8,192.7 		"/>
		<polygon class="mobile-business10" points="201.7,258.3 118,256.7 114.9,201.2 205.7,202.9 		"/>
		<polygon class="mobile-business12" points="201.7,258.3 118,256.7 114.9,201.2 205.7,202.9 		"/>
		<polyline class="mobile-business10" points="118,256.7 114.9,201.2 205.7,202.9 		"/>
		<path class="mobile-business1" d="M149.4,201.1c0.4,0.7,0.8,1.3,1.3,1.9l7.3-5.4c-0.2-0.3-0.4-0.6-0.6-0.9c-1.9-3.5-0.8-7.8,2.5-9.9l-3-8.7
			c-0.3,0.1-0.5,0.2-0.8,0.4C148,182.9,145,193,149.4,201.1z"/>
		<g>
			<path class="mobile-business1" d="M42.4,138.8c-3.9-1.6-7.6-3.9-10.8-7.2c-9.4-9.6-11.4-23.6-6-35.1l-8.2-3.8c-6.9,14.8-4.4,32.9,7.8,45.3
				c5.4,5.5,12,9.1,19,10.9L42.4,138.8z"/>
			<path class="mobile-business1" d="M25.3,75c-0.2,0-0.4,0.1-0.6,0.1c-4,1.3-6.2,5.5-5,9.5c1.3,4,5.5,6.2,9.5,5c4-1.3,6.2-5.5,5-9.5
				c-0.1-0.3-0.2-0.7-0.4-1l8.2-3.9c0.3,0.7,0.6,1.4,0.9,2.1c2.7,8.8-2.1,18.1-10.9,20.9c-8.8,2.7-18.1-2.1-20.9-10.9
				C8.3,78.6,13.2,69.3,22,66.5c0.4-0.1,0.8-0.2,1.2-0.3L25.3,75z"/>
			<circle class="mobile-business2" cx="21.8" cy="93.4" r="5.9"/>
		</g>
		<path class="mobile-business5" d="M79.1,267.4c2.4-6.3,8.9-10.4,15.9-9.3c7,1,12,6.8,12.5,13.6l5.7,0.8c-0.1-9.9-7.3-18.5-17.3-20
			c-10.1-1.5-19.5,4.7-22.4,14.1L79.1,267.4z"/>
		<circle class="mobile-business5" cx="92.8" cy="272.6" r="11.5"/>
	</g>
</g>
</svg>
