<svg id="mobile-robot-base" xmlns="http://www.w3.org/2000/svg" xmlns:xlink="http://www.w3.org/1999/xlink" width="190.7" height="190.7" viewBox="0 0 190.7 190.7" aria-hidden="true"><style>.mobile-robot-base0{clip-path:url(#SVGID_2_)}.mobile-robot-base1{fill:#e5e5e4}.mobile-robot-base2{fill:#ea6361}.mobile-robot-base3{fill:none;stroke:#c4c3c3;stroke-miterlimit:10}.mobile-robot-base4{fill:#c4c3c3}.mobile-robot-base5{fill:#959595}.mobile-robot-base6{fill:#FFF}.mobile-robot-base7{fill:#e18687}.mobile-robot-base8{fill:#efe4a5}.mobile-robot-base9{fill:#8bcdd8}.mobile-robot-base10{fill:#aebb86}</style><defs><path id="SVGID_1_" d="M0 0h190.7v190.7H0z"/></defs><clipPath id="SVGID_2_"><use xlink:href="#SVGID_1_" overflow="visible"/></clipPath><g class="mobile-robot-base0"><path class="mobile-robot-base1" d="M95.1 248.9c-.4 4.5-1.7 8.8-3.5 12.6 1.8-.2 3.6-.2 5.4.1 2 .3 3.8.8 5.6 1.6 1.7-4.2 2.8-8.7 3.2-13.4.4-4.1.2-8.1-.4-12l-11-.4c.8 3.8 1 7.6.7 11.5z"/><circle class="mobile-robot-base2" cx="120.1" cy="11.7" r="6.4"/><path class="mobile-robot-base4" d="M97.3 68.6c-5-14.9-4.5-27.9 1.5-38.6l.2-.3h6l-8.6-6.4h7.3c5.3-5.9 10.8-8.3 11-8.4l.5 1.2c-.1 0-5.6 2.5-10.8 8.3l-.2.2h-4l8.6 6.4h-9.1c-5.7 10.3-6.1 22.8-1.3 37.2l-1.1.4z"/><path class="mobile-robot-base1" d="M97.2 63.5c-22.9 0-41.5 18.6-41.5 41.5v6.4h83V105c0-22.9-18.6-41.5-41.5-41.5z"/><circle class="mobile-robot-base5" cx="92.3" cy="99.3" r="2.2"/><circle class="mobile-robot-base5" cx="106.7" cy="99.3" r="2.2"/><path class="mobile-robot-base1" d="M40.2 133.1c-7 2.8-13.4 7.5-18.2 14-10.8 14.5-10.9 33.8-1.6 48.1l8-5.1c-7.2-11.2-7.2-26.1 1.2-37.3 3.3-4.5 7.6-7.9 12.3-10.1l-1.7-9.6z"/><path class="mobile-robot-base4" d="M132.2 236.2l-71.4-2.6-20.4-117.7 112.2-2.6z"/><circle class="mobile-robot-base6" cx="96.5" cy="150.8" r="25.2"/><path class="mobile-robot-base4" d="M127.926 174.463l-60.322 3.13-1.306-25.166 60.322-3.13z"/><path class="mobile-robot-base7" d="M77.8 134c-1 1.1-1.9 2.4-2.8 3.7 0 .1-.1.1-.1.2-.3.6-.7 1.2-1 1.8-.1.1-.1.3-.2.4-.3.6-.5 1.1-.7 1.7-.1.2-.2.4-.2.6-.2.5-.4 1.1-.5 1.7-.1.2-.1.5-.2.7-.1.6-.2 1.1-.3 1.7 0 .2-.1.5-.1.7-.1.7-.2 1.3-.2 2v3l25.1-1.3L77.8 134z"/><path class="mobile-robot-base8" d="M95.2 125.7c-1.5.1-3.1.3-4.6.7h-.2c-.7.2-1.3.4-1.9.6-.1 0-.3.1-.4.1-.6.2-1.2.5-1.7.7-.2.1-.4.2-.6.2-.5.2-1 .5-1.5.8-.2.1-.4.2-.7.4-.5.3-1 .6-1.4.9-.2.1-.4.3-.6.4-.5.4-1 .8-1.5 1.3-.1.1-.3.2-.4.3l-1.8 1.8 18.7 16.8-1.4-25z"/><path class="mobile-robot-base9" d="M113.3 132.2c1.1 1 2.2 2.2 3.1 3.4 0 .1.1.1.1.2.4.5.8 1.1 1.1 1.7.1.1.2.2.2.4.3.5.6 1.1.9 1.6.1.2.2.4.3.5.2.5.5 1.1.7 1.6.1.2.2.5.3.7.2.5.4 1.1.5 1.6.1.2.2.5.2.7.2.6.3 1.3.4 1.9 0 .2.1.3.1.5.1.8.2 1.7.3 2.5l-25.1 1.3 16.9-18.6z"/><path class="mobile-robot-base10" d="M95.2 125.7c1.5-.1 3.1 0 4.6.2h.2c.7.1 1.3.2 2 .4.1 0 .3.1.4.1.6.1 1.2.3 1.8.5.2.1.4.1.6.2.5.2 1.1.4 1.6.6.2.1.5.2.7.3.5.2 1 .5 1.5.8.2.1.4.2.7.4.6.3 1.1.7 1.7 1.1.1.1.3.2.4.3.7.5 1.3 1 2 1.6l-16.8 18.7-1.4-25.2z"/><path class="mobile-robot-base6" d="M99.1 148.2c-.2 1-1.2 1.7-2.2 1.4s-1.7-1.2-1.4-2.2c.2-1 4.9-13.9 4.9-13.9s-1.1 13.7-1.3 14.7z"/><circle class="mobile-robot-base1" cx="96.5" cy="150.8" r="5.9"/><g><path class="mobile-robot-base1" d="M31.1 212.5c-.2 0-.4 0-.6-.1-4.3-.7-7.3-4.8-6.5-9.2.7-4.3 4.8-7.3 9.2-6.5 4.3.7 7.2 4.8 6.5 9.2-.1.4-.2.7-.3 1.1l9.1 2.9c.2-.8.4-1.5.6-2.4 1.6-9.5-4.8-18.5-14.3-20.1-9.5-1.6-18.5 4.8-20.1 14.3-1.6 9.5 4.8 18.5 14.3 20.1.4.1.9.1 1.3.2l.8-9.5z"/><circle class="mobile-robot-base5" cx="24.9" cy="193.9" r="6.2"/></g><g><path class="mobile-robot-base1" d="M176.4 192.5l-7.8-5.3c7.5-11 7.8-25.9-.3-37.4-4.2-5.9-10-10.1-16.4-12.2l1.5-9.5c8.9 2.6 16.9 8.1 22.7 16.2 10.4 14.9 9.9 34.1.3 48.2z"/><path class="mobile-robot-base1" d="M170.6 209.8c.2-.1.4-.1.6-.2 4-1.8 5.8-6.5 4-10.5-1.8-4-6.5-5.8-10.5-4-4 1.8-5.8 6.5-4 10.5.2.3.3.7.5 1l-8.1 5-1.2-2.1c-3.9-8.8 0-19.1 8.9-23.1 8.8-3.9 19.1 0 23.1 8.9 3.9 8.8 0 19.1-8.9 23.1-.4.2-.8.3-1.2.5l-3.2-9.1z"/><circle class="mobile-robot-base5" cx="171.8" cy="191" r="6.2"/></g><path class="mobile-robot-base4" d="M79.9 275.1c2.5-6.6 9.4-10.9 16.7-9.8 7.3 1.1 12.6 7.1 13.1 14.2l6 .9c-.1-10.4-7.6-19.4-18.2-21-10.6-1.6-20.4 4.9-23.5 14.8l5.9.9z"/><circle class="mobile-robot-base4" cx="94.3" cy="280.6" r="12.1"/></g></svg>