<svg id="Classic" xmlns="http://www.w3.org/2000/svg" width="190.7" height="190.7" viewBox="-210 301.3 190.7 190.7" aria-hidden="true"><style>.mobile-classic0{fill:#e5e5e4}.mobile-classic1{fill:#c4c3c3}.mobile-classic2{fill:#FFF}.mobile-classic3{fill:#4b9ca0}.mobile-classic4{fill:none;stroke:#c4c3c3;stroke-miterlimit:10}.mobile-classic5{fill:#959595}.mobile-classic6{fill:#f06a66}.mobile-classic7{fill:#bb4926}.mobile-classic8{fill:#d2b12a}</style><path class="mobile-classic0" d="M-165.4 422.4c-6.3 2.5-11.9 6.7-16.2 12.5-9.6 13-9.7 30.1-1.4 42.9l7.1-4.6c-6.4-9.9-6.4-23.2 1.1-33.3 3-4 6.8-7 11-9l-1.6-8.5z"/><path class="mobile-classic1" d="M-150.5 492h70.9l14.4-87.2-100 2.2z"/><path class="mobile-classic2" d="M-89.5 405.6c0 9.7-11.5 17.6-25.7 17.6-13.8 0-25-7.4-25.6-16.8l-24.4.6 14.7 85h70.9l14.5-87.2-24.4.5v.3z"/><circle class="mobile-classic3" cx="-94.2" cy="314.1" r="5.7"/><path class="mobile-classic4" d="M-114 364.7c-5.2-15.5-2.9-26.5 1.3-34h6.7l-7.7-5.7h5.1c4.8-5.3 9.8-7.6 9.8-7.6"/><path class="mobile-classic0" d="M-114.6 360.3c-20.4 0-37 16.6-37 37v5.7h74v-5.7c0-20.4-16.6-37-37-37z"/><circle class="mobile-classic5" cx="-123.2" cy="391.7" r="2.1"/><circle class="mobile-classic5" cx="-105.8" cy="391.7" r="2.1"/><path class="mobile-classic6" d="M-114.6 450.9c-20.9 10.8-42.1 19.6-42.1 19.6l3.4 21.5h37.5c6.8-2.8 13.1-6.2 17.1-9.9 13.4-12.6 19-77.4 19-77.4l-4.9-.5s-9.1 35.9-30 46.7z"/><path class="mobile-classic7" d="M-77.6 403.1l-4.6.9s-11.5 41.6-32.4 52.4c-21 10.8-42.1 19.6-42.1 19.6l.9 5.7c-1.3.4-2 .7-2 .7l1.1 9.6h56.4c4.1-2.5 7.8-5.3 11-8.4 27.7-27 18.5-80.5 18.5-80.5h-6.8z"/><path class="mobile-classic0" d="M-63.8 413.9l-2.4 14.1c1.6 5.7 1.5 12-.7 18-.9 2.5-2.1 4.7-3.6 6.7-5.5 7.7-14.4 12.3-23.7 12.3v8.5c7.7 0 15.1-2.4 21.3-6.7.2-.2.5-.3.7-.5.1-.1.3-.2.4-.3 3.7-2.8 6.9-6.2 9.5-10.3 1.3-2.1 2.5-4.4 3.4-6.8 4.4-12.1 2.2-25.2-4.9-35z"/><path class="mobile-classic6" d="M-72.6 449.4c2.1.6 4.1 1.6 5.2 3.4 2.8 4.8-1.7 39.4-1.6 38.9.1-.5 13.8-1.1 13.8-1.1s1.5-44.5-7.4-44.9c-3.1-.1-6.1.2-8.7.7-.4.9-.8 2.3-1.3 3z"/><path class="mobile-classic7" d="M-65.2 447.6c-7.8-.3-11.2 5.4-12 6.8-2.8 2.1-4 4.8-4 4.8s4.5-4.8 7.4 0c2 3.5.2 22.8-.9 32.8h17c.1-5.3.8-44.1-7.5-44.4zm-11 6.1c.7-.5 1.5-1 2.5-1.1-1 .3-1.8.7-2.5 1.1z"/><path class="mobile-classic0" d="M-109.8 478.1c.1.1.3.2.4.3 3.3 2 7.7 1 9.8-2.3 2.1-3.3 1-7.7-2.3-9.8-3.3-2-7.7-1-9.8 2.3-.2.3-.3.6-.5.9l-7.8-3.4c.3-.7.6-1.3 1-1.9 4.5-7.3 14.1-9.6 21.4-5.1s9.6 14.1 5.1 21.4-14.1 9.6-21.4 5.1c-.3-.2-.7-.4-1-.7l5.1-6.8z"/><circle class="mobile-classic5" cx="-95.4" cy="469.4" r="5.6"/><path class="mobile-classic8" d="M-151.8 388.8c-1.9-.5-3.1-2.4-2.6-4.4.5-1.9 2.4-3.1 4.4-2.6 1.9.5 5.9 5.2 5.9 5.2s-5.7 2.3-7.7 1.8zM-146.6 381.6c-1.9-.5-3.1-2.4-2.6-4.4.5-1.9 2.4-3.1 4.4-2.6 1.9.5 5.9 5.2 5.9 5.2s-5.8 2.3-7.7 1.8zM-140.9 389.5c-1.9-.5-3.1-2.4-2.6-4.4.5-1.9 2.4-3.1 4.4-2.6 1.9.5 5.9 5.2 5.9 5.2s-5.8 2.3-7.7 1.8z"/><g><path class="mobile-classic8" d="M-77.1 388.8c1.9-.5 3.1-2.4 2.6-4.4-.5-1.9-2.4-3.1-4.4-2.6-1.9.5-5.9 5.2-5.9 5.2s5.7 2.3 7.7 1.8zM-82.3 381.6c1.9-.5 3.1-2.4 2.6-4.4-.5-1.9-2.4-3.1-4.4-2.6-1.9.5-5.9 5.2-5.9 5.2s5.8 2.3 7.7 1.8zM-88 389.5c1.9-.5 3.1-2.4 2.6-4.4-.5-1.9-2.4-3.1-4.4-2.6-1.9.5-5.9 5.2-5.9 5.2s5.8 2.3 7.7 1.8z"/></g><g><path class="mobile-classic0" d="M-170.2 470.8c-8.5-1.4-16.5 4.3-17.9 12.8-.5 2.9-.1 5.8.9 8.4h10.4c-2.3-1.5-3.6-4.2-3-7.1.6-3.9 4.3-6.5 8.2-5.8 3.9.7 6.5 4.3 5.8 8.2-.1.3-.1.7-.2 1l8.1 2.5c.2-.7.4-1.4.5-2.1 1.4-8.5-4.3-16.5-12.8-17.9z"/><circle class="mobile-classic5" cx="-179" cy="476.6" r="5.6"/></g></svg>