<svg id="Magazine" xmlns="http://www.w3.org/2000/svg" width="190.7" height="190.7" viewBox="0 0 190.7 190.7"><style>.mobile-magazine0{fill:#eae0cc}.mobile-magazine1{fill:#d7c7a3}.mobile-magazine2{fill:#f06a66}.mobile-magazine3{fill:none;stroke:#c4c4c3;stroke-miterlimit:10}.mobile-magazine4{fill:#e5e5e5}.mobile-magazine5{fill:#969696}.mobile-magazine6{fill:#c4c4c3}.mobile-magazine7{fill:#FFF}.mobile-magazine8{fill:#e28888}.mobile-magazine9{fill:#efe4a6}.mobile-magazine10{fill:#39c3de}.mobile-magazine11{fill:#afbb87}.mobile-magazine12{fill:#509ea3}.mobile-magazine13{fill:#95bec0}.mobile-magazine14{fill:#8cced8}</style><path class="mobile-magazine0" d="M190.7 46.9l-35.8 9.3s6 36.4 2.5 73.8c-2.7 28.3-6.4 51.1-8.1 60.6h12.4l28.8-10.3s.1-.3.3-.8V46.9z"/><path class="mobile-magazine1" d="M190.7 107.3l-35.2 8.4.7 5.8 34.5-8zM190.7 119.9l-33.1 7.8-1.5 1.8 34.6-8zM190.7 125.1l-34.9 8.3v3.4l34.9-7.9zM190.7 132.5l-38.2 9.1.7 5.8 37.5-8.6zM190.7 145l-36 8.5-1.6 1.8 37.6-8.6zM190.7 150.1l-37.9 9v3.4l37.9-8.8zM190.7 157.6l-41 10.8-.4 6.2 41.4-10.7zM190.7 167.5l-39.5 11.8-1.5 1.8 41-12zM149.2 190.7l41.5-13.5v-3.8l-42.1 14.1-.1 3.2z"/><circle class="mobile-magazine2" cx="20.4" cy="40.6" r="5.9"/><path class="mobile-magazine3" d="M70.9 66.6c-6.6-15.7-16.1-22.7-24.5-25.7l-5.3 4.6 2.1-9.8-4 3.5c-7.5-.8-12.9.8-12.9.8"/><path class="mobile-magazine4" d="M72 58.3c-20.5 5.9-32.3 27.4-26.3 47.9l1.7 5.8 74.2-21.7-1.7-5.8C114 64.2 92.4 52.4 72 58.3z"/><circle class="mobile-magazine5" cx="79.5" cy="83.5" r="2"/><circle class="mobile-magazine5" cx="91.2" cy="78.6" r="2"/><path class="mobile-magazine6" d="M134.5 88.4l-99.7 31.5 34.7 70.8h77.2z"/><circle class="mobile-magazine7" cx="94.2" cy="136.6" r="23.4"/><path class="mobile-magazine6" d="M67.603 145.81l53.07-18.49 7.698 22.097-53.07 18.49z"/><path class="mobile-magazine8" d="M73 126.4c-.6 1.3-1.1 2.6-1.5 4 0 .1 0 .1-.1.2-.1.6-.2 1.2-.4 1.9 0 .1-.1.2-.1.4-.1.6-.1 1.2-.2 1.8v3c0 .5.1 1.1.1 1.5 0 .2 0 .5.1.7.1.6.2 1.2.4 1.8 0 .1 0 .4.1.5.2.7.4 1.5.7 2.2l22.1-7.7L73 126.4z"/><path class="mobile-magazine9" d="M86.4 114.5c-1.3.5-2.6 1.1-3.9 1.8-.1 0-.1.1-.2.1-.6.4-1.1.7-1.5 1.1-.1.1-.2.1-.4.2-.5.4-.9.7-1.3 1.1-.1.1-.4.2-.5.4-.4.4-.8.7-1.2 1.2l-.5.5c-.4.4-.7.8-1.1 1.2-.1.2-.4.4-.5.6-.4.5-.7.9-1.1 1.5-.1.1-.1.2-.2.4-.4.7-.8 1.3-1.2 2.1l21.2 10-7.6-22.2z"/><path class="mobile-magazine10" d="M104.4 115.5c1.3.6 2.5 1.4 3.7 2.2l.1.1c.5.4.9.8 1.4 1.2.1.1.2.1.4.2.5.4.8.8 1.2 1.2.1.1.2.2.4.5.4.4.7.8 1.1 1.3.1.2.4.4.5.6.4.5.6.8.8 1.3.1.2.2.4.4.6.4.5.6 1.1.8 1.7.1.1.1.2.2.4.4.7.6 1.4.9 2.1l-22.1 7.7 10.2-21.1z"/><path class="mobile-magazine11" d="M86.4 114.5c1.3-.5 2.7-.8 4.1-1.1h.2c.6-.1 1.3-.1 1.9-.2h2.9c.6 0 1.1.1 1.7.1.2 0 .5 0 .7.1.5.1 1.1.2 1.5.4.2 0 .5.1.7.1.6.1 1.2.4 1.8.6.1 0 .2.1.5.1.7.2 1.4.6 2.1.9l-10.2 21.1-7.9-22.1z"/><path class="mobile-magazine7" d="M95.7 133.5c.1.9-.6 1.8-1.7 1.9-.9.1-1.8-.6-1.9-1.7-.1-.9.7-13.6.7-13.6s2.9 12.5 2.9 13.4z"/><circle class="mobile-magazine4" cx="94.2" cy="136.6" r="5.6"/><path class="mobile-magazine12" d="M95.7 30.5s6.6 33.8 3.7 65.2S89 163 89 163l48.1 27.7h12.1c1.7-9.5 5.4-32.3 8.1-60.5 3.7-37.6-2.4-74.1-2.4-74.1L95.7 30.5z"/><path class="mobile-magazine13" d="M190.7 41.6l-46.2-21.4-48.8 10.3 59.2 25.6 35.8-9.2z"/><path class="mobile-magazine7" d="M159.9 91.9l19-5.1-4.8 6.9zM190.7 147.7v-2.3l-11.8 3.1zM190.7 107.2l-13.6 3.5 13.6 1.7z"/><path class="mobile-magazine4" d="M190.7 41.9c-1.9.5-4.4.8-7.1.8l1.8 1.9c1.9-.1 3.7-.2 5.4-.4v-2.3zM150.8 54.4c1.2-1.1 3.3-1.9 6.3-2.4l-3.2-1.8c-3.1.5-5.6 1.3-7.2 2.4l4.1 1.8z"/><path class="mobile-magazine5" d="M167.4 64.4c1.1.6.7 1.3-.8 1.5-1.5.2-3.8-.1-4.9-.7-1.1-.6-.7-1.3.8-1.5s3.9.1 4.9.7z"/><path class="mobile-magazine2" d="M126.6 24.6c1.4.6 3.7.8 5 .5 1.4-.4 1.3-1.1 0-1.8-.2-.1-.6-.2-.8-.2l-5 1.1c.2.1.5.2.8.4z"/><path class="mobile-magazine6" d="M142.8 36c-7.9-2.1-12.9-4.4-14.8-6.9V29l2.4-.6-5.9-.2 2.8-.7c-.2-1.5.8-2.5.9-2.5l.7.1s-1.2.9-.8 2.5l-1.5.4 5.9.2-3.5.8c1.9 2.4 6.7 4.6 14.3 6.6l-.5.4z"/><path class="mobile-magazine4" d="M140.8 35.2c-9 2.2-8.8 7.2.4 11.2l2.6 1.1 32.4-8-2.6-1.1c-9.1-4-23.8-5.4-32.8-3.2z"/><path class="mobile-magazine5" d="M154.1 41.7c.5.2.5.5 0 .6s-1.3 0-1.8-.1c-.5-.2-.5-.5 0-.6.5-.2 1.3-.1 1.8.1zM159.6 40.3c.5.2.5.5 0 .6s-1.3 0-1.8-.1c-.5-.2-.5-.5 0-.6.6-.1 1.4-.1 1.8.1z"/><path class="mobile-magazine6" d="M190.7 43.3l-8.4-4.8L140 49.6l2.8 1.3 14.1 4.8 33.8-8.8z"/><path class="mobile-magazine8" d="M161.4 49.3c0 .4.2.6.4.9l.4.4s0 .1.1.1l.4.4.1.1c.1.1.4.2.5.4.1 0 .1.1.2.1.1.1.4.2.6.4.1 0 .1.1.2.1.2.1.5.2.7.4.1 0 .1.1.1.1.4.1.7.4 1.1.5l9.3-2.6-14.1-1.3z"/><path class="mobile-magazine9" d="M164.8 46.2c-.6.1-1.1.4-1.5.6h-.1c-.2.1-.4.2-.5.2 0 0-.1 0-.1.1-.1.1-.2.2-.4.2l-.1.1-.2.2-.1.1c-.1.1-.1.2-.2.4 0 0 0 .1-.1.1 0 .1-.1.2-.1.4v.6l14.1 1.1-10.7-4.1z"/><path class="mobile-magazine14" d="M174.5 45.6c.8.1 1.8.1 2.6.2h.1c.4 0 .7.1 1.1.2h.2c.4.1.7.1.9.2.1 0 .2 0 .4.1.4.1.6.1.9.2.1 0 .2.1.4.1.2.1.6.1.8.2.1 0 .2.1.4.1.4.1.6.2.9.4.1 0 .1 0 .2.1.4.1.7.2 1.1.4l-9.3 2.6-.7-4.8z"/><path class="mobile-magazine11" d="M164.8 46.2c.6-.1 1.2-.4 1.9-.4h.1c.4 0 .6-.1.9-.1h.2c.2 0 .6 0 .9-.1h4.2c.5 0 .9 0 1.4.1l.8 4.9-10.4-4.4z"/><path class="mobile-magazine7" d="M175.4 49.8c.4.2.2.4-.2.5-.5.1-1.2 0-1.4-.2-.4-.2-3.7-2.8-3.7-2.8s4.9 2.2 5.3 2.5z"/><path class="mobile-magazine4" d="M177.6 49.9c1.4.6 1.5 1.3.2 1.7-1.2.4-3.3.2-4.6-.4-1.4-.6-1.5-1.3-.2-1.7 1.3-.3 3.2-.2 4.6.4z"/><path class="mobile-magazine7" d="M119.3 30.5c.7-.2 1.3-.2 2-.2.6 0 1.2.2 1.7.5.2.1.4.4.5.5 0 .1 0 .4-.2.5h1.2c.4.1.7.2 1.1.4l.5.2c.1.1.4.1.5.2H127.2l.5.2-.5.1c-.4.1-.7.1-1.1 0-.4-.1-.7-.2-.9-.4l-.5-.2c-.4-.1-.6-.2-1.1-.4-.4 0-.7 0-1.1.1l-1.4.4 1.9 1.1.8-.1.5.2-2.2.6-.5-.2.6-.2-4.4-2.4-.8.1-.5-.2.7-.2 2.1-.6zm1.2 1.6l1.1-.4c.5-.1.7-.2.8-.5 0-.1-.1-.4-.4-.5s-.6-.2-.9-.2c-.4 0-.8 0-1.2.1l-1.2.4 1.8 1.1zM126 31.4c-.6-.4-.9-.7-.9-.9 0-.4.4-.6.9-.7.6-.2 1.3-.2 2.1-.1.7.1 1.4.4 2 .7h.1c.6.4.9.7.9.9 0 .4-.4.6-.9.7-.6.2-1.3.2-2.1.1s-1.4-.3-2.1-.7zm1-.2c.5.2.9.4 1.4.5.5.1.9.1 1.3 0s.6-.2.5-.5c-.1-.2-.4-.5-.7-.7h-.1c-.5-.2-.9-.4-1.4-.5-.5-.1-.9-.1-1.3 0s-.6.2-.5.5c-.1.2.2.4.8.7zM135.5 28.9c.6.4.9.6.9.9 0 .2-.2.5-.8.7-.4.1-.6.1-.9.1s-.7 0-1.1-.1l.5.4-.7.2-5.3-3-.8.1-.5-.2 1.5-.5 2.2 1.3c0-.1 0-.2.1-.4.1-.1.4-.2.6-.2.6-.1 1.2-.2 2 0 .9.1 1.5.4 2.3.7zm-1 .3c-.5-.2-.9-.5-1.4-.6-.5-.1-.9-.1-1.3 0-.2.1-.5.1-.5.2-.1.1-.1.2 0 .4l1.8.9c.2.1.6.1.8.1.2 0 .6 0 .8-.1.4-.1.6-.2.5-.5.1 0-.2-.2-.7-.4zM136.1 28.6c-.6-.4-.9-.7-.9-.9 0-.4.4-.6.9-.7.6-.2 1.3-.2 2.1-.1.7.1 1.4.4 2 .7h.1c.6.4.9.7.9.9 0 .4-.4.6-.9.7-.6.2-1.3.2-2.1.1-.7-.1-1.4-.4-2.1-.7zm.9-.3c.5.2.8.4 1.4.5.5.1.9.1 1.3 0s.6-.2.5-.5c-.1-.2-.4-.5-.7-.7h-.1c-.5-.2-.8-.4-1.4-.5-.5-.1-.9-.1-1.3 0s-.6.2-.5.5c.1.3.4.5.8.7zM139.6 25.2l.9.6.9-.2.6.4-.9.2 2.5 1.3c.2.1.4.1.6.2h.5c.1 0 .1 0 .2-.1.1 0 .1-.1.2-.1l.6.2s-.1.1-.2.1c-.1.1-.2.1-.5.1-.4.1-.7.1-1.1.1-.4 0-.7-.1-1.2-.4l-2.5-1.3-.7.2-.6-.5.7-.2-.9-.6h.9zM130.1 39.6l-.5-.2.6-.2-4.3-2.4-.8.1-.5-.2.7-.2.8-.2.7-.2.5.2-.6.2 4.3 2.4 2.1-.6-.6-.4.7-.2 1.2.6-4.3 1.3zM134.9 37.8l.6-.2-2.8-1.5-.8.1-.5-.2 1.5-.5 3.4 1.9.8-.1.5.2-2.2.6-.5-.3zm-3.1-2.8l-.8.2-.7-.4.8-.2.7.4zM136.2 34.9l-.5.2 3.2.9.4.1-.2-.2-1.3-1.5-.6.1-.5-.2 1.8-.5.5.2-.4.1 1.9 2.4-.6.2-5.1-1.4-.5.1-.5-.2 1.8-.5.6.2zM142.6 35.7l.6-.2-2.8-1.5-.8.1-.5-.2 1.5-.5 3.4 1.9.8-.1.5.2-2.2.6-.5-.3zm-3-3l-.8.2-.7-.4.8-.2.7.4zM145.4 34.9l.6-.2-2.8-1.5-.8.1-.5-.2 1.4-.4.7.3c0-.1 0-.4.1-.5.1-.1.4-.2.6-.4.5-.1 1.1-.2 1.5-.1.5.1 1.1.2 1.5.5l1.9 1.1.8-.1.5.2-2.2.6-.5-.2.6-.2-1.9-1.1c-.4-.2-.7-.4-.9-.4-.4 0-.6 0-.9.1-.2.1-.4.1-.5.2-.1.1-.1.2 0 .4l2.4 1.3.8-.1.5.2-2.2.6-.7-.2zM149.7 32.5c-.6-.4-.9-.7-1.1-.9-.1-.4.2-.6.7-.7.2-.1.6-.1.9-.1.4 0 .6 0 .9.1l-.5-.4.7-.2 3.9 2.1c.5.2.7.6.7.8s-.4.5-.9.6c-.2.1-.5.1-.8.1s-.6.1-.9.1l-.4-.4c.2 0 .5 0 .7-.1.2 0 .5-.1.7-.1.4-.1.6-.2.6-.4s-.1-.4-.5-.5l-.4-.2c0 .1 0 .2-.1.4-.1.1-.4.2-.6.2-.6.1-1.2.2-1.9.1-.4.1-1.1-.2-1.7-.5zm.9-.3c.4.2.8.4 1.3.5s.8.1 1.3 0c.2-.1.5-.1.5-.2.1-.1.1-.2 0-.4l-1.8-1.1c-.2-.1-.6-.1-.8-.1-.2 0-.6 0-.8.1-.4.1-.6.2-.5.5 0 .3.2.5.8.7z"/><path class="mobile-magazine13" d="M156.1 64.9L97.2 38.6c.2 2 .6 4.3.9 6.9l58.7 25.9c-.2-2.4-.5-4.6-.7-6.5zM157.4 78.5l-58.6-26c0 .5.1.9.1 1.4l58.4 25.8c.2-.4.2-.7.1-1.2zM157.7 83.8L99.4 59.3c.1 1.3.2 2.5.2 3.8l58.2 24.3c.2-1.3.1-2.5-.1-3.6zM158.2 91.5L100 67c.1 2.1.1 4.3.2 6.5l58.2 24.3c-.1-2.3-.2-4.3-.2-6.3zM158.4 105.7v-1.2L100.2 80v1.4l58.2 24.3zM157 133c0-.4.1-.7.1-1.1l-58.9-24.8c0 .5-.1.8-.1 1.3L157 133zM156.1 141.8c.1-1.1.2-2.1.4-3.3l-58.9-26.1c-.1 1.2-.4 2.4-.5 3.5l59 25.9zM155 150.8c.2-1.9.5-3.9.7-5.8l-59.2-26.4c-.2 2-.6 4-.9 6l59.4 26.2zM154 159.3c0-.4.1-.7.1-1.1L94.7 131c-.1.5-.1.8-.2 1.3l59.5 27zM153.1 165.9c.1-1.1.4-2.1.5-3.2l-59.5-27.3c-.2 1.2-.4 2.4-.6 3.4l59.6 27.1zM151.7 175.2c.2-1.9.6-3.8.8-5.8l-59.5-28c-.4 2.1-.7 4.1-1.1 6l59.8 27.8zM150.6 182c0-.4.1-.7.1-.9L91.4 151c-.1.5-.1.8-.2 1.2l59.4 29.8zM149.3 189.7c.1-.9.4-2.1.6-3.3L90.5 155c-.2 1.3-.5 2.6-.7 3.5l59.5 31.2zM157.7 125.4c.1-2 .2-4 .4-5.9L99.5 94.7c0 .2 0 .6-.1.8-.1 1.8-.4 3.5-.6 5.3l58.9 24.6zM158.3 112.8c0-1.2 0-2.2.1-3.4l-58.3-24.5c0 1.2-.1 2.4-.1 3.7l58.3 24.2z"/><path class="mobile-magazine0" d="M115.4 64.8l-15.9-5-3.8 6.8zM151.7 91.9l-19-5.1 4.8 6.9zM123.2 128.1l-19.1-5.1 4.9 6.9zM109.5 145.9l-15.9-5-3.8 6.8z"/><path class="mobile-magazine4" d="M101.7 161.4c-9.2 8.3-23 10.4-34.5 4.3-10.1-5.2-16-15.4-16.2-26 0-.2.1-.4.1-.6 0-2.5-2-4.5-4.5-4.5s-4.5 2-4.5 4.5v.1c.1 14 7.8 27.4 21.1 34.4 14.9 7.8 32.7 5.1 44.5-5.6l-6-6.6z"/><path class="mobile-magazine4" d="M121.9 155.8v.6c0 4.1-3.4 7.3-7.5 7.3s-7.3-3.4-7.3-7.5 3.4-7.3 7.5-7.3c.4 0 .7 0 1.1.1l1.3-8.8c-.7-.1-1.5-.2-2.2-.2-9-.1-16.3 7.1-16.4 16.1s7.1 16.3 16.1 16.4 16.3-7.1 16.4-16.1v-1.2l-9 .6z"/><circle class="mobile-magazine5" cx="105.8" cy="164.2" r="5.8"/><path class="mobile-magazine1" d="M190.7 54.6L156 62.8c.2 1.7.5 3.5.7 5.8l34-7.9v-6.1zM190.7 66.9l-33.5 7.9c0 .5.1.9.1 1.4l33.4-7.7v-1.6zM190.7 72.2L157.5 80c.1 1.1.1 2.2.2 3.3l32.9-7.6v-3.5zM190.7 79.3L158 87c.1 1.9.2 3.9.2 5.9l32.5-7.5v-6.1zM190.7 91.8l-32.2 7.6v1.4l32.2-7.5v-1.5zM190.7 97.1l-32.2 7.7v3.4l32.2-7.5v-3.6z"/><path class="mobile-magazine7" d="M190.7 66v-1.6l-8.2 2.2z"/></svg>