<svg id="Portfolio" xmlns="http://www.w3.org/2000/svg" width="190.7" height="190.7" viewBox="0 0 190.7 190.7" aria-hidden="true"><style>.mobile-portfolio0{fill:#ea6361}.mobile-portfolio1{fill:none;stroke:#c4c3c3;stroke-miterlimit:10}.mobile-portfolio2{fill:#c4c3c3}.mobile-portfolio3{fill:#e5e5e4}.mobile-portfolio4{fill:#FFF}.mobile-portfolio5{fill:#e18687}.mobile-portfolio6{fill:#efe4a5}.mobile-portfolio7{fill:#8bcdd8}.mobile-portfolio8{fill:#aebb86}.mobile-portfolio9{fill:#383838}.mobile-portfolio10{fill:#94bec0}.mobile-portfolio11{fill:#eec25f}.mobile-portfolio12{fill:#959595}.mobile-portfolio13{fill:#4f9da2}.mobile-portfolio14{fill:#d35333}.mobile-portfolio15{fill:none}.mobile-portfolio16{fill:#f06a66}</style><circle class="mobile-portfolio0" cx="65.9" cy="18.5" r="6"/><path class="mobile-portfolio2" d="M87.3 71.9l-1.1-.4c4.6-13.5 4.2-25.3-1.2-35h-8.5l8.1-6h-3.8l-.2-.2c-4.9-5.5-10.1-7.8-10.1-7.8l.5-1.1c.2.1 5.3 2.4 10.3 7.9h6.9l-8.1 6h5.6l.2.3c5.7 10.1 6.2 22.3 1.4 36.3z"/><path class="mobile-portfolio3" d="M27.1 183.3c-6.7-1.1-13 1.9-16.5 7.3h27.5c-2.4-3.8-6.3-6.5-11-7.3z"/><path class="mobile-portfolio3" d="M32.9 132.4c-6.6 2.6-12.5 7-17.1 13.1-10.1 13.6-10.2 31.7-1.5 45.2l7.5-4.8c-6.8-10.5-6.7-24.4 1.2-35 3.1-4.2 7.1-7.4 11.6-9.5l-1.7-9z"/><path class="mobile-portfolio2" d="M45.9 190.6h79.7l12.7-76.8-105.2 2.4z"/><circle class="mobile-portfolio4" cx="85.7" cy="149" r="23.6"/><path class="mobile-portfolio2" d="M115.163 171.142l-56.627 2.94-1.223-23.57 56.626-2.94z"/><path class="mobile-portfolio5" d="M68.1 133.2c-1 1.1-1.8 2.2-2.6 3.5 0 .1-.1.1-.1.2-.3.5-.6 1.1-.9 1.7-.1.1-.1.2-.2.4-.2.5-.5 1.1-.7 1.6-.1.2-.2.4-.2.5-.2.5-.3 1-.5 1.6-.1.2-.1.4-.2.7-.1.5-.2 1-.3 1.6 0 .2-.1.5-.1.7-.1.6-.1 1.2-.2 1.9v2.9l23.6-1.2-17.6-16.1z"/><path class="mobile-portfolio6" d="M84.5 125.4c-1.4.1-2.9.3-4.3.6H80c-.6.2-1.2.3-1.8.5-.1 0-.3.1-.4.1-.5.2-1.1.4-1.6.7-.2.1-.4.1-.5.2-.5.2-1 .5-1.4.8l-.6.3c-.5.3-.9.6-1.3.9-.2.1-.4.3-.6.4-.5.4-1 .8-1.4 1.2-.1.1-.2.2-.4.3-.6.5-1.1 1.1-1.7 1.7L85.7 149l-1.2-23.6z"/><path class="mobile-portfolio7" d="M101.5 131.5c1.1 1 2 2 2.9 3.2 0 .1.1.1.1.2.4.5.7 1 1.1 1.6.1.1.2.2.2.4.3.5.6 1 .8 1.5.1.2.2.3.3.5l.6 1.5.3.6c.2.5.3 1 .5 1.5.1.2.1.5.2.7.2.6.3 1.2.4 1.8 0 .1.1.3.1.4.1.8.2 1.6.2 2.4L85.7 149l15.8-17.5z"/><path class="mobile-portfolio8" d="M84.5 125.4c1.4-.1 2.9 0 4.3.2h.2c.6.1 1.2.2 1.9.4.1 0 .3.1.4.1.6.1 1.1.3 1.7.5.2.1.4.1.6.2l1.5.6.6.3c.5.2 1 .5 1.4.7l.6.3c.5.3 1 .7 1.6 1 .1.1.3.2.4.3l1.8 1.5L85.7 149l-1.2-23.6z"/><path class="mobile-portfolio4" d="M88.1 146.5c-.2.9-1.1 1.5-2.1 1.3-.9-.2-1.5-1.1-1.3-2.1.2-.9 4.6-13 4.6-13s-1 12.9-1.2 13.8z"/><circle class="mobile-portfolio3" cx="85.7" cy="149" r="5.5"/><path class="mobile-portfolio3" d="M153.1 61.7c-.2.1-.3.2-.5.3-3.5 2.2-4.6 6.8-2.4 10.3s6.8 4.6 10.3 2.4c3.5-2.2 4.6-6.8 2.4-10.3-.2-.3-.4-.6-.6-.8l6.9-5.7c.5.6.9 1.2 1.3 1.8 4.8 7.7 2.4 17.8-5.3 22.5-7.7 4.8-17.8 2.4-22.5-5.3-4.8-7.7-2.4-17.8 5.3-22.5.4-.2.7-.4 1.1-.6l4 7.9z"/><path class="mobile-portfolio9" d="M134.5 55.4c1.8 1.1 4.1.5 5.2-1.3 1.1-1.8.5-4.1-1.3-5.2-1.8-1.1-8.2-.5-8.2-.5s2.5 5.9 4.3 7z"/><path class="mobile-portfolio10" d="M135.9 49.4c-.9 1.4-2.2 2.4-3.9 3-1.1-1.9-2-4-2-4s3.8-.3 6.3 0c0 .4-.2.7-.4 1z"/><path class="mobile-portfolio11" d="M145.7 61.6c3.6 2.1 33 18.1 33.9 16.7.9-1.4-27.2-19.7-30.8-21.9-3.6-2.1-7.2-2.7-8-1.3s1.4 4.3 4.9 6.5z"/><path class="mobile-portfolio3" d="M162.9 64.4c-.2-.3-.4-.6-.6-.8l6.9-5.7c.5.6.9 1.2 1.3 1.8 4.6 7.4 2.5 17-4.4 21.9l-3.6-8.8c1.8-2.3 2.1-5.7.4-8.4zM86.3 67.1c-21.5 0-38.9 17.4-38.9 38.9v6h77.9v-6c-.1-21.5-17.5-38.9-39-38.9z"/><circle class="mobile-portfolio12" cx="81.7" cy="100.6" r="2.1"/><circle class="mobile-portfolio12" cx="95.2" cy="100.6" r="2.1"/><circle class="mobile-portfolio13" cx="106.5" cy="186.2" r=".9"/><circle class="mobile-portfolio10" cx="50.4" cy="151.7" r="1.5"/><circle class="mobile-portfolio14" cx="95.8" cy="84.6" r="1.5"/><circle class="mobile-portfolio14" cx="100.5" cy="92.9" r="1.1"/><path class="mobile-portfolio14" d="M110.9 75.8c-.3.1-.5.4-.6.8-.8 2.4-.2 6.8-.2 6.8-.2 2.4-6.1 3.3-4.8 6 1.3 2.7 9 3.1 10.1 1 1.1-2.1 5.1-1.3 5 1.6-.1 2 1.7 2.3 2.9 1.6-2.5-7.1-6.8-13.2-12.4-17.8z"/><path class="mobile-portfolio15" d="M86.3 67.1c-21.5 0-38.9 17.4-38.9 38.9v6h77.9v-6c-.1-21.5-17.5-38.9-39-38.9z"/><path class="mobile-portfolio16" d="M122.3 154.6c-1.6-8.9-10.7 4-10.7 4s-3.4 6.9 3.6 8.1 7.4 7.9 5.1 9.5c-2.4 1.6-8.3 9.5-2.8 11.1 2.4.7 5.6.8 8.5.7l5-30.1c-3.8 1.1-7.9 1.2-8.7-3.3z"/><path class="mobile-portfolio10" d="M62.3 170.6c-4.9-.2-1.9-14-9.9-14.3-7.9-.3.7 12.1-3.6 14.3 0 0-2.7 1.7-5.9 2.8l3 17.1h12.5c-4-2.8-2.5-11 3.9-11 6.7 0 4.8-8.7 0-8.9z"/><path class="mobile-portfolio12" d="M19.5 183.7c-3.2-.6-6.2 1.6-6.8 4.8-.1.7-.1 1.4 0 2.1h11.5v-.1c.6-3.2-1.5-6.3-4.7-6.8z"/><path class="mobile-portfolio3" d="M159.8 78.5l-7.9 4c5.6 11.1 4 25-5 34.7-1.9 2-4 3.7-6.2 5.1l-1.8 10.8c5.4-2.1 10.3-5.4 14.5-9.9 11.6-12.4 13.6-30.3 6.4-44.7z"/><circle class="mobile-portfolio12" cx="154.4" cy="79.4" r="5.9"/></svg>