<?xml version="1.0" encoding="utf-8"?>
<!-- Generator: Adobe Illustrator 19.0.1, SVG Export Plug-In . SVG Version: 6.00 Build 0)  -->
<svg version="1.1" id="Classic" xmlns="http://www.w3.org/2000/svg" xmlns:xlink="http://www.w3.org/1999/xlink" x="0px" y="0px"
	 width="190.7px" height="190.7px" viewBox="0 0 190.7 190.7" style="enable-background:new 0 0 190.7 190.7;" xml:space="preserve"
	>
<style type="text/css">
	.mobile-traditional0{clip-path:url(#SVGID_2_);}
	.mobile-traditional1{fill:#E5E5E4;}
	.mobile-traditional2{fill:#C4C3C3;}
	.mobile-traditional3{fill:#FFFFFF;}
	.mobile-traditional4{fill:#4B9CA0;}
	.mobile-traditional5{fill:none;stroke:#C4C3C3;stroke-miterlimit:10;}
	.mobile-traditional6{fill:#959595;}
	.mobile-traditional7{fill:#F06A66;}
	.mobile-traditional8{fill:#BB4926;}
	.mobile-traditional9{fill:#D2B12A;}
</style>
<g>
	<defs>
		<rect id="SVGID_1_" width="190.7" height="190.7"/>
	</defs>
	<clipPath id="SVGID_2_">
		<use xlink:href="#SVGID_1_"  style="overflow:visible;"/>
	</clipPath>
	<g class="mobile-traditional0">
		<path class="mobile-traditional1" d="M44.6,121.1c-6.3,2.5-11.9,6.7-16.2,12.5c-9.6,13-9.7,30.1-1.4,42.9l7.1-4.6c-6.4-9.9-6.4-23.2,1.1-33.3
			c3-4,6.8-7,11-9L44.6,121.1z"/>
		<path class="mobile-traditional1" d="M92.9,214.3c0.7,3.2,0.9,6.6,0.6,10.1c-0.5,5.2-2.2,10-4.7,14.1c2.2-0.5,4.5-0.6,6.8-0.2
			c1.3,0.2,2.5,0.5,3.6,0.9c2-4.3,3.3-9,3.8-13.9c0.3-3.6,0.2-7.2-0.3-10.7L92.9,214.3z"/>
		<polygon class="mobile-traditional2" points="126.7,213 62.9,210.7 44.8,105.7 144.8,103.5 		"/>
		<path class="mobile-traditional3" d="M120.5,104c0,0.1,0,0.2,0,0.3c0,9.7-11.5,17.6-25.7,17.6c-13.8,0-25-7.4-25.6-16.8l-24.4,0.6l18.2,105
			l63.7,2.3l18.2-109.5L120.5,104z"/>
		<g>
			<circle class="mobile-traditional4" cx="115.8" cy="12.8" r="5.7"/>
			<path class="mobile-traditional5" d="M106.5,18.5"/>
			<path class="mobile-traditional5" d="M96,63.4c-5.2-15.5-2.9-26.5,1.3-34l6.7,0l-7.7-5.7l5.1,0c4.8-5.3,9.8-7.6,9.8-7.6"/>
		</g>
		<path class="mobile-traditional1" d="M95.4,59c-20.4,0-37,16.6-37,37v5.7h74V96C132.4,75.6,115.8,59,95.4,59z"/>
		<circle class="mobile-traditional6" cx="86.8" cy="90.4" r="2.1"/>
		<circle class="mobile-traditional6" cx="104.2" cy="90.4" r="2.1"/>
		<path class="mobile-traditional7" d="M125.4,102.9c0,0-9.1,35.9-30,46.7s-42.1,19.6-42.1,19.6l5.1,32.2c0,0,39.5-8,52.9-20.6s19-77.4,19-77.4
			L125.4,102.9z"/>
		<path class="mobile-traditional8" d="M139.2,101.8l-6.8,0l-4.6,0.9c0,0-11.5,41.6-32.4,52.4c-21,10.8-42.1,19.6-42.1,19.6l0.9,5.7
			c-1.3,0.4-2,0.7-2,0.7l3.4,29.6c0,0,44.6-8.6,65.1-28.4C148.4,155.3,139.2,101.8,139.2,101.8z"/>
		<path class="mobile-traditional1" d="M146.2,112.6l-2.4,14.1c1.6,5.7,1.5,12-0.7,18c-0.9,2.5-2.1,4.7-3.6,6.7l0,0c-5.5,7.7-14.4,12.3-23.7,12.3
			l0,8.5c7.7,0,15.1-2.4,21.3-6.7l0,0c0.2-0.2,0.5-0.3,0.7-0.5c0.1-0.1,0.3-0.2,0.4-0.3c3.7-2.8,6.9-6.2,9.5-10.3c0,0,0,0,0,0l0,0
			c1.3-2.1,2.5-4.4,3.4-6.8C155.5,135.5,153.3,122.4,146.2,112.6z"/>
		<path class="mobile-traditional7" d="M137.4,148.1c2.1,0.6,4.1,1.6,5.2,3.4c2.8,4.8-1.7,39.4-1.6,38.9c0.1-0.5,13.8-1.1,13.8-1.1
			s1.5-44.5-7.4-44.9c-3.1-0.1-6.1,0.2-8.7,0.7C138.3,146,137.9,147.4,137.4,148.1z"/>
		<path class="mobile-traditional8" d="M144.8,146.3c-7.8-0.3-11.2,5.4-12,6.8c-2.8,2.1-4,4.8-4,4.8s4.5-4.8,7.4,0c2.8,4.8-1.7,39.4-1.6,38.9
			s13.8-1.1,13.8-1.1s0.1-1.6,0.1-4.2c2.2-0.1,3.8-0.2,3.8-0.2S153.7,146.6,144.8,146.3z M133.8,152.4c0.7-0.5,1.5-1,2.5-1.1
			C135.3,151.6,134.5,152,133.8,152.4z"/>
		<g>
			<g>
				<path class="mobile-traditional1" d="M100.2,176.8c0.1,0.1,0.3,0.2,0.4,0.3c3.3,2,7.7,1,9.8-2.3s1-7.7-2.3-9.8c-3.3-2-7.7-1-9.8,2.3
					c-0.2,0.3-0.3,0.6-0.5,0.9l-7.8-3.4c0.3-0.7,0.6-1.3,1-1.9c4.5-7.3,14.1-9.6,21.4-5.1c7.3,4.5,9.6,14.1,5.1,21.4
					c-4.5,7.3-14.1,9.6-21.4,5.1c-0.3-0.2-0.7-0.4-1-0.7L100.2,176.8z"/>
			</g>
			<circle class="mobile-traditional6" cx="114.6" cy="168.1" r="5.6"/>
		</g>
		<g>
			<path class="mobile-traditional9" d="M58.2,87.5c-1.9-0.5-3.1-2.4-2.6-4.4c0.5-1.9,2.4-3.1,4.4-2.6c1.9,0.5,5.9,5.2,5.9,5.2S60.2,88,58.2,87.5z"
				/>
			<path class="mobile-traditional9" d="M63.4,80.3c-1.9-0.5-3.1-2.4-2.6-4.4c0.5-1.9,2.4-3.1,4.4-2.6c1.9,0.5,5.9,5.2,5.9,5.2S65.3,80.8,63.4,80.3z
				"/>
			<path class="mobile-traditional9" d="M69.1,88.2c-1.9-0.5-3.1-2.4-2.6-4.4c0.5-1.9,2.4-3.1,4.4-2.6c1.9,0.5,5.9,5.2,5.9,5.2S71,88.7,69.1,88.2z"
				/>
		</g>
		<g>
			<path class="mobile-traditional9" d="M132.9,87.5c1.9-0.5,3.1-2.4,2.6-4.4c-0.5-1.9-2.4-3.1-4.4-2.6c-1.9,0.5-5.9,5.2-5.9,5.2
				S130.9,88,132.9,87.5z"/>
			<path class="mobile-traditional9" d="M127.7,80.3c1.9-0.5,3.1-2.4,2.6-4.4c-0.5-1.9-2.4-3.1-4.4-2.6c-1.9,0.5-5.9,5.2-5.9,5.2
				S125.8,80.8,127.7,80.3z"/>
			<path class="mobile-traditional9" d="M122,88.2c1.9-0.5,3.1-2.4,2.6-4.4c-0.5-1.9-2.4-3.1-4.4-2.6c-1.9,0.5-5.9,5.2-5.9,5.2S120.1,88.7,122,88.2z
				"/>
		</g>
		<g>
			<path class="mobile-traditional2" d="M80,247.7c2.2-5.9,8.4-9.7,14.9-8.7c6.5,1,11.3,6.4,11.7,12.7l5.3,0.8c0-9.2-6.8-17.3-16.2-18.7
				c-9.4-1.4-18.2,4.4-21,13.2L80,247.7z"/>
			<circle class="mobile-traditional2" cx="92.8" cy="252.6" r="10.8"/>
		</g>
		<g>
			<path class="mobile-traditional1" d="M36.5,191.9c-0.2,0-0.4,0-0.5-0.1c-3.9-0.7-6.5-4.3-5.8-8.2c0.6-3.9,4.3-6.5,8.2-5.8
				c3.9,0.7,6.5,4.3,5.8,8.2c-0.1,0.3-0.1,0.7-0.2,1l8.1,2.5c0.2-0.7,0.4-1.4,0.5-2.1c1.4-8.5-4.3-16.5-12.8-17.9
				c-8.5-1.4-16.5,4.3-17.9,12.8c-1.4,8.5,4.3,16.5,12.8,17.9c0.4,0.1,0.8,0.1,1.2,0.1L36.5,191.9z"/>
			<circle class="mobile-traditional6" cx="31" cy="175.3" r="5.6"/>
		</g>
	</g>
</g>
</svg>
