<?xml version="1.0" encoding="utf-8"?>
<!-- Generator: Adobe Illustrator 19.0.1, SVG Export Plug-In . SVG Version: 6.00 Build 0)  -->
<svg version="1.1" id="Modern" xmlns="http://www.w3.org/2000/svg" xmlns:xlink="http://www.w3.org/1999/xlink" x="0px" y="0px"
	 width="190.7px" height="190.7px" viewBox="0 0 190.7 190.7" style="enable-background:new 0 0 190.7 190.7;" xml:space="preserve"
	>
<style type="text/css">
	.mobile-modern0{clip-path:url(#SVGID_2_);}
	.mobile-modern1{fill:#C4C3C3;}
	.mobile-modern2{fill:#E5E5E4;}
	.mobile-modern3{fill:none;}
	.mobile-modern4{fill:#3CBEB7;}
	.mobile-modern5{opacity:0.6;fill:#94BEC0;}
	.mobile-modern6{opacity:0.6;}
	.mobile-modern7{fill:#94BEC0;}
	.mobile-modern8{opacity:0.2;fill:#127168;}
	.mobile-modern9{fill:#959595;}
	.mobile-modern10{fill:#C4AE7F;}
	.mobile-modern11{fill:#BB4926;}
	.mobile-modern12{fill:#60371A;}
	.mobile-modern13{fill:#383838;}
</style>
<g>
	<defs>
		<rect id="SVGID_1_" width="190.7" height="190.7"/>
	</defs>
	<clipPath id="SVGID_2_">
		<use xlink:href="#SVGID_1_"  style="overflow:visible;"/>
	</clipPath>
	<g class="mobile-modern0">
		<polygon class="mobile-modern1" points="132.2,224.8 61,224.8 40.7,107.4 152.5,107.4 		"/>
		<path class="mobile-modern2" d="M32.8,182.4c-10.5-8-15.5-22-11.5-35.4c3.6-11.9,13.4-20.2,24.8-22.6l-1.9-9.3c-14.7,3-27.3,13.7-32,29.1
			C7,161.5,13.5,179.6,27,189.9L32.8,182.4z"/>
		<path class="mobile-modern2" d="M156.5,184.2c10.5-8,15.5-22,11.5-35.4c-3.6-11.9-13.4-20.2-24.8-22.6l1.9-9.3c14.7,3,27.3,13.7,32,29.1
			c5.2,17.3-1.2,35.3-14.8,45.7L156.5,184.2z"/>
		<g>
			<g>
				<path class="mobile-modern2" d="M94.3,227.7c1.4,4.5,2,9.4,1.5,14.4c-0.5,5.6-2.3,10.8-5,15.4c2.2-0.4,4.5-0.5,6.9-0.1
					c1.6,0.2,3.1,0.7,4.6,1.2c2.2-4.8,3.7-10,4.2-15.5c0.5-5.3,0.1-10.5-1.1-15.4H94.3z"/>
			</g>
			<g>
				<path class="mobile-modern1" d="M80.7,268.2c2.5-6.6,9.3-10.8,16.6-9.7c7.3,1.1,12.6,7.1,13.1,14.2l5.9,0.9c-0.1-10.3-7.6-19.4-18.1-20.9
					c-10.5-1.6-20.4,4.9-23.4,14.7L80.7,268.2z"/>
				<circle class="mobile-modern1" cx="95" cy="273.6" r="12"/>
			</g>
		</g>
		<g>
			<polygon class="mobile-modern3" points="132.2,224.8 61,224.8 40.7,107.4 152.5,107.4 			"/>
			<path class="mobile-modern4" d="M177.7,176c8.1-19.6,1.5-42.8-16.7-55.1c-2.9-2-5.9-3.5-9.1-4.7l0.6-8.7h-40.3H79.7h-39l0.4,5.7
				c-4.4,1.3-8.7,3.2-12.7,6c-18.3,12.3-24.8,35.5-16.7,55.1l-3.9,2.6l7.1,10.5l17.6-11.9L25.3,165l-1.8,1.2
				c-4-13,0.8-27.6,12.6-35.6c1.9-1.3,3.9-2.3,6-3.2l5.8,80.4c0,0,19.5,10.1,50,10.1c30.5,0,47.4-10.1,47.4-10.1l5.6-76.9
				c0.8,0.4,1.6,0.9,2.4,1.4c11.9,8,16.6,22.6,12.6,35.6l-1.8-1.2l-7.1,10.5l17.6,11.9l7.1-10.5L177.7,176z"/>
			<path class="mobile-modern3" d="M178.1,176c8.1-19.6,1.5-42.8-16.7-55.1c-2.9-2-5.9-3.5-9.1-4.7l0.6-8.7h-40.3H80.2h-39l0.4,5.7
				c-4.4,1.3-8.7,3.2-12.7,6c-18.3,12.3-24.8,35.5-16.7,55.1l-3.9,2.6l7.1,10.5l17.6-11.9L25.8,165l-1.8,1.2
				c-4-13,0.8-27.6,12.6-35.6c1.9-1.3,3.9-2.3,6-3.2l5.8,80.4c0,0,19.5,10.1,50,10.1s47.4-10.1,47.4-10.1l5.6-76.9
				c0.8,0.4,1.6,0.9,2.4,1.4c11.9,8,16.6,22.6,12.6,35.6l-1.8-1.2l-7.1,10.5l17.6,11.9l7.1-10.5L178.1,176z"/>
			<path class="mobile-modern3" d="M177.7,176c8.1-19.6,1.5-42.8-16.7-55.1c-2.9-2-5.9-3.5-9.1-4.7l0.6-8.7h-40.3H79.7h-39l0.4,5.7
				c-4.4,1.3-8.7,3.2-12.7,6c-18.3,12.3-24.8,35.5-16.7,55.1l-3.9,2.6l7.1,10.5l17.6-11.9L25.3,165l-1.8,1.2
				c-4-13,0.8-27.6,12.6-35.6c1.9-1.3,3.9-2.3,6-3.2l5.8,80.4c0,0,19.5,10.1,50,10.1c30.5,0,47.4-10.1,47.4-10.1l5.6-76.9
				c0.8,0.4,1.6,0.9,2.4,1.4c11.9,8,16.6,22.6,12.6,35.6l-1.8-1.2l-7.1,10.5l17.6,11.9l7.1-10.5L177.7,176z"/>
			<path class="mobile-modern3" d="M177.7,176c8.1-19.6,1.5-42.8-16.7-55.1c-2.9-2-5.9-3.5-9.1-4.7l0.6-8.7h-40.3H79.7h-39l0.4,5.7
				c-4.4,1.3-8.7,3.2-12.7,6c-18.3,12.3-24.8,35.5-16.7,55.1l-3.9,2.6l7.1,10.5l17.6-11.9L25.3,165l-1.8,1.2
				c-4-13,0.8-27.6,12.6-35.6c1.9-1.3,3.9-2.3,6-3.2l5.8,80.4c0,0,19.5,10.1,50,10.1c30.5,0,47.4-10.1,47.4-10.1l5.6-76.9
				c0.8,0.4,1.6,0.9,2.4,1.4c11.9,8,16.6,22.6,12.6,35.6l-1.8-1.2l-7.1,10.5l17.6,11.9l7.1-10.5L177.7,176z"/>
			<path class="mobile-modern5" d="M97.9,218c13.9,0,24.9-2.1,32.9-4.4H63.9C72.4,215.9,84,218,97.9,218z"/>
			<path class="mobile-modern5" d="M47.3,198.8l0.7,9c0,0,1.6,0.8,4.6,2h88.6c2.7-1.2,4.1-2,4.1-2l0.7-9H47.3z"/>
			<g class="mobile-modern6">
				<polygon class="mobile-modern7" points="14.8,187.3 19.6,184.1 12.6,184.1 				"/>
				<polygon class="mobile-modern8" points="147,184.1 46.2,184.1 47,195.1 146.2,195.1 				"/>
				<polygon class="mobile-modern7" points="166.9,184.1 174.5,189.1 177.9,184.1 				"/>
			</g>
			<g class="mobile-modern6">
				<path class="mobile-modern7" d="M162.3,169.3l-5.4,8l4.5,3h19l1.1-1.7l-3.9-2.6c0.9-2.2,1.6-4.5,2.2-6.8H162.3z"/>
				<polygon class="mobile-modern8" points="148,169.3 45.1,169.3 45.9,180.3 147.2,180.3 				"/>
				<path class="mobile-modern7" d="M32.4,175.5l-4.2-6.2H9.9c0.5,1.7,1,3.3,1.7,4.9l-3.9,2.6l2.4,3.5h15L32.4,175.5z"/>
			</g>
			<g class="mobile-modern6">
				<path class="mobile-modern7" d="M22.2,154.5h-14c-0.2,3.7,0,7.4,0.8,11.1h14.3C22.3,161.9,22,158.2,22.2,154.5z"/>
				<path class="mobile-modern7" d="M166.4,165.5h14.1c0.6-3.7,0.7-7.4,0.3-11.1h-14C167.3,158.1,167.2,161.9,166.4,165.5z"/>
				<polygon class="mobile-modern7" points="25.3,165 24.4,165.5 25.7,165.5 				"/>
				<polygon class="mobile-modern8" points="149.1,154.5 44,154.5 44.8,165.5 148.3,165.5 				"/>
			</g>
			<g class="mobile-modern6">
				<path class="mobile-modern7" d="M160.8,139.7c2.5,3.3,4.3,7.1,5.3,11.1h14.2c-0.7-3.8-1.8-7.5-3.5-11.1H160.8z"/>
				<polygon class="mobile-modern8" points="150.2,139.7 43,139.7 43.8,150.8 149.4,150.8 				"/>
				<path class="mobile-modern7" d="M11.6,139.7c-1.4,3.6-2.4,7.3-2.9,11.1h14.1c0.8-3.9,2.3-7.7,4.5-11.1H11.6z"/>
			</g>
			<path class="mobile-modern8" d="M13.3,136H30c1.8-2,3.8-3.8,6.1-5.4c1.9-1.3,3.9-2.3,6-3.2l0.6,8.5h107.7l0.4-5c0.8,0.4,1.6,0.9,2.4,1.4
				c1.6,1.1,3,2.2,4.3,3.5H175c-2.3-4.1-5.3-7.8-8.9-11.1H21.3C18,128.2,15.4,132,13.3,136z"/>
			<path class="mobile-modern8" d="M40.8,110.1l0.2,3c-4.4,1.3-8.7,3.2-12.7,6c-1,0.7-1.9,1.4-2.9,2.1h135.9c-0.1-0.1-0.3-0.2-0.4-0.3
				c-2.9-2-5.9-3.5-9.1-4.7l0.4-6.1H40.8z"/>
			<path class="mobile-modern8" d="M8.7,178.3l6.1,9.1l5-3.4v-57.4c-6.1,6.8-9.8,15.2-11.1,23.9v12.9c0.5,3.7,1.5,7.3,2.9,10.8l-2.9,2V178.3z"
				/>
			<path class="mobile-modern8" d="M152.7,116.5c-0.3-0.1-0.5-0.2-0.8-0.3l0.6-8.7h-10.9v102.3c2.4-1.1,3.6-1.8,3.6-1.8l5.6-76.9
				c0.6,0.4,1.3,0.7,1.9,1.1V116.5z"/>
			<path class="mobile-modern8" d="M112.1,217.3c4-0.4,7.7-1,11.1-1.7V107.4h-10.9h-0.2V217.3z"/>
			<path class="mobile-modern8" d="M97.3,218c0.2,0,0.4,0,0.6,0c3.7,0,7.2-0.2,10.5-0.4V107.4H97.3V218z"/>
			<path class="mobile-modern8" d="M82.5,217.1c3.5,0.4,7.2,0.7,11.1,0.8V107.4H82.5V217.1z"/>
			<path class="mobile-modern8" d="M67.8,214.6c3.3,0.8,7,1.5,11.1,2.1V107.4H67.8V214.6z"/>
			<path class="mobile-modern8" d="M53,210.1c2.7,1.1,6.4,2.3,11.1,3.6V107.4H53V210.1z"/>
			<path class="mobile-modern8" d="M49.3,107.4h-8.6l0.4,5.7c-1,0.3-1.9,0.6-2.8,0.9v15.3c1.3-0.7,2.6-1.3,3.9-1.9l5.8,80.4
				c0,0,0.5,0.2,1.4,0.7V107.4z"/>
			<g class="mobile-modern6">
				<path class="mobile-modern7" d="M25.3,165l-1.8,1.2c0-0.1,0-0.2-0.1-0.2v15.5l8.9-6L25.3,165z"/>
				<path class="mobile-modern8" d="M34.5,115.6c-2.1,1-4.2,2.2-6.2,3.5c-1.7,1.2-3.4,2.4-4.9,3.8v25.1c1.8-6.2,5.6-11.9,11.1-16.1V115.6z"/>
			</g>
			<path class="mobile-modern8" d="M126.8,214.7c4.5-1.1,8.2-2.3,11.1-3.4V107.4h-11.1V214.7z"/>
			<path class="mobile-modern8" d="M164,166.8l-7.1,10.5l10.6,7.1v-58.2c-2-1.9-4.1-3.7-6.5-5.3c-1.5-1-3-1.9-4.5-2.7V135
				c9.4,8.3,13,21.3,9.4,33L164,166.8z"/>
			<path class="mobile-modern8" d="M171.2,130.3v56.6l3.3,2.2l7.1-10.5l-3.9-2.6C184,160.7,181.3,143.1,171.2,130.3z"/>
		</g>
		<g>
			<path class="mobile-modern2" d="M42.8,202.5c-0.2,0-0.4,0.1-0.6,0.1c-4.3,0.8-8.4-2.1-9.2-6.4c-0.8-4.3,2.1-8.4,6.4-9.2
				c4.3-0.8,8.4,2.1,9.2,6.4c0.1,0.4,0.1,0.7,0.1,1.1l9.5-0.4c0-0.8-0.1-1.6-0.2-2.4c-1.7-9.5-10.8-15.7-20.2-14
				c-9.5,1.7-15.7,10.8-14,20.2c1.7,9.5,10.8,15.7,20.2,14c0.4-0.1,0.9-0.2,1.3-0.3L42.8,202.5z"/>
			<circle class="mobile-modern9" cx="30.8" cy="187.2" r="6.2"/>
		</g>
		<g>
			<path class="mobile-modern2" d="M146.4,204.3c0.2,0,0.4,0.1,0.6,0.1c4.3,0.8,8.4-2.1,9.2-6.4c0.8-4.3-2.1-8.4-6.4-9.2
				c-4.3-0.8-8.4,2.1-9.2,6.4c-0.1,0.4-0.1,0.7-0.1,1.1L131,196c0-0.8,0.1-1.6,0.2-2.4c1.7-9.5,10.8-15.7,20.2-14
				c9.5,1.7,15.7,10.8,14,20.2c-1.7,9.5-10.8,15.7-20.2,14c-0.4-0.1-0.9-0.2-1.3-0.3L146.4,204.3z"/>
			<circle class="mobile-modern9" cx="158.5" cy="189" r="6.2"/>
		</g>
		<g>
			<g>
				<g>
					<path class="mobile-modern10" d="M119.5,58.4c0,0,1.8-26.6-10.3-26.6s-2.3,1.6-8.2,0c-6-1.6-15.6-2.5-17.1,0s-8.2,18.7-6.6,24.4
						C78.9,61.9,119.5,58.4,119.5,58.4z"/>
					<path class="mobile-modern11" d="M101.4,43.8c7.4,0.6,13.2,1.8,17.8,3.5c0.7,5.8,0.3,11.1,0.3,11.1s-40.6,3.5-42.2-2.2
						c-0.7-2.5,0.2-7.2,1.6-11.7C84.4,43.4,91.7,43.1,101.4,43.8z"/>
					<path class="mobile-modern10" d="M135.9,72.3c0,0-1.3-17.1-34.9-19.6s-38.3,7.9-40.5,12s1.3,17.1,13.6,19c12.3,1.9,33-1.6,40.4-3.8
						S137.5,76.9,135.9,72.3z"/>
				</g>
				<path class="mobile-modern2" d="M97.9,57.2c-22.8,0-41.4,18.5-41.4,41.4v6.4h82.7v-6.4C139.2,75.7,120.7,57.2,97.9,57.2z"/>
				<g>
					<path class="mobile-modern12" d="M104.1,111.7H91.8c-3.3,0-6.1-2.7-6.1-6.1v-3.2c0-3.3,2.7-6.1,6.1-6.1h12.3c3.3,0,6.1,2.7,6.1,6.1v3.2
						C110.2,109,107.4,111.7,104.1,111.7z"/>
					<path class="mobile-modern12" d="M136.9,99.7l-25.4,2.1l0-0.1l-13.1,1.1l-13.1-1.1l0,0.1l-25.4-2.1c0,0-0.2,9.2-0.2,21.2
						s34.4,26.5,38.7,26.5c4.3,0,38.7-14.5,38.7-26.5S136.9,99.7,136.9,99.7z"/>
					<path class="mobile-modern2" d="M97.9,108.4c-1.9,0-3.8,0.4-5.6,0.9c2.5-2.3,4.5-5.2,5.6-8.5c1.1,3.3,3,6.2,5.6,8.5
						C101.7,108.7,99.8,108.4,97.9,108.4z"/>
				</g>
				<g>
					<path class="mobile-modern13" d="M88.2,95.1c1.4-3.3,4.6-5.5,8.4-5.4c3.3,0.1,6.2,2.1,7.5,4.9l2.3-1.1c-1.8-3.6-5.4-6.1-9.7-6.3
						c-4.8-0.2-9.1,2.7-10.8,6.9L88.2,95.1z"/>
					<g>
						<path class="mobile-modern13" d="M93,98.4H74.6c-1.1,0-2-0.9-2-2V85c0-1.1,0.9-2,2-2H93c1.1,0,2,0.9,2,2v11.4C95,97.5,94.1,98.4,93,98.4z
							"/>
						<path class="mobile-modern13" d="M77,86.8h-5.7c-0.6,0-1-0.4-1-1V84c0-0.5,0.4-1,1-1H77c0.6,0,1,0.5,1,1v1.8C78,86.3,77.6,86.8,77,86.8z"
							/>
						<path class="mobile-modern2" d="M91.4,96.6H77.1c-0.6,0-1-0.4-1-1v-7.9c0-0.5,0.4-1,1-1h14.3c0.6,0,1,0.5,1,1v7.9
							C92.4,96.2,92,96.6,91.4,96.6z"/>
					</g>
					<g>
						<path class="mobile-modern13" d="M100.5,98.4h18.4c1.1,0,2-0.9,2-2V85c0-1.1-0.9-2-2-2h-18.4c-1.1,0-2,0.9-2,2v11.4
							C98.5,97.5,99.4,98.4,100.5,98.4z"/>
						<path class="mobile-modern13" d="M116.4,86.8h5.7c0.5,0,1-0.4,1-1V84c0-0.5-0.5-1-1-1h-5.7c-0.5,0-1,0.5-1,1v1.8
							C115.4,86.3,115.9,86.8,116.4,86.8z"/>
						<path class="mobile-modern2" d="M102,96.6h14.3c0.5,0,1-0.4,1-1v-7.9c0-0.5-0.5-1-1-1H102c-0.6,0-1,0.5-1,1v7.9
							C101,96.2,101.5,96.6,102,96.6z"/>
					</g>
					<circle class="mobile-modern9" cx="103.6" cy="93.8" r="2.2"/>
					<circle class="mobile-modern9" cx="89.2" cy="93.8" r="2.2"/>
				</g>
			</g>
			<path class="mobile-modern11" d="M91.2,105.8c-4.1,0-8.5,12.3-11.2,12.3c-1.7,0-2.1-1-2.2-1.8c0,0,0,0,0-0.1v-5.4h-9.2v5.4
				c0,5.5,2.3,8.7,10.7,7.5c5.3-0.8,8.2-16.2,11.9-16.2c2.4,0,4.1,0,4.1,0v-1.7C95.3,105.8,95.3,105.8,91.2,105.8z"/>
		</g>
	</g>
</g>
</svg>
