<svg id="Modern" xmlns="http://www.w3.org/2000/svg" width="190.7" height="190.7" viewBox="0 0 190.7 190.7"><style>.mobile-modern0{fill:#e5e5e4}.mobile-modern1{fill:#c4c3c3}.mobile-modern2{fill:#3cbeb7}.mobile-modern3{fill:#959595}.mobile-modern4{fill:#c4ae7f}.mobile-modern5{fill:#c54e27}.mobile-modern6{opacity:.3;fill:#60371a}.mobile-modern7{opacity:.2;fill:#127168}.mobile-modern8{fill:none}.mobile-modern9{fill:#60371a}.mobile-modern10{fill:#383838}</style><path class="mobile-modern0" d="M157.5 70.9c10.8 7.9 16.1 22 12.2 35.6-3.4 12.1-13.2 20.7-24.7 23.3l2.1 9.3c14.8-3.3 27.4-14.4 31.8-30 5-17.6-1.9-35.7-15.8-45.9l-5.6 7.7zM45.4 130.9l-1.9-9.4c-14.9 3-27.6 13.9-32.3 29.4-4.3 14.3-.8 29.1 8.1 39.7H31l.8-1.1c-10.6-8.1-15.7-22.3-11.6-35.8 3.7-12 13.6-20.4 25.2-22.8z"/><path class="mobile-modern1" d="M53.2 190.7h86.4l13.3-76.9h-113z"/><path class="mobile-modern2" d="M176.1 65.9l-17.8 12 7.1 10.6 1.8-1.2c4 13.1-.8 27.9-12.7 36-.6.4-1.2.8-1.9 1.1l.8-10.6H40.3l.4 5.7c-4.5 1.3-8.8 3.3-12.9 6C9.4 138 2.8 161.4 11 181.2l-4 2.7 4.6 6.8h8.3l12.1-8.1-7.1-10.6-1.8 1.2c-4-13.1.8-27.9 12.7-36 1.9-1.3 4-2.4 6.1-3.2l4.1 56.7h102l3.6-50.1c20.6-7 33.2-27.2 31.1-48.1h-.1c-.4-4.5-1.5-9-3.3-13.4l3.9-2.7-7.1-10.5z"/><path class="mobile-modern0" d="M141.3 53.7c.2-.1.4-.2.5-.3 4-1.9 8.8-.1 10.6 3.9 1.9 4 .1 8.8-3.9 10.6-4 1.8-8.8.1-10.6-3.9-.2-.3-.3-.7-.4-1.1l-9.2 2.8c.2.8.5 1.5.8 2.3 4.1 8.8 14.5 12.7 23.4 8.6 8.8-4.1 12.7-14.5 8.6-23.3s-14.5-12.7-23.4-8.6l-1.2.6 4.8 8.4z"/><circle class="mobile-modern3" cx="157.5" cy="65.7" r="6.3"/><path class="mobile-modern4" d="M135.4 47.3s8.2-25.7-3.6-28.6-2.6 1-8.1-2-14.7-6.3-16.8-4.2-12.6 16.4-12.4 22.4c.1 6 40.9 12.4 40.9 12.4z"/><path class="mobile-modern5" d="M121.1 28.6c7.1 2.3 12.5 5 16.6 7.7-.8 5.9-2.4 11-2.4 11s-40.7-6.4-40.9-12.4c-.1-2.7 2-7 4.4-11.1 5.7.3 13 1.7 22.3 4.8z"/><path class="mobile-modern4" d="M148.4 65.8s2.8-17.1-29.5-27.7-39.5-1.5-42.7 2-2.9 17 8.8 21.9 32.8 6.5 40.6 6.1 23.2 2.5 22.8-2.3z"/><path class="mobile-modern6" d="M130.9 58.7s1.5-9-15.5-14.6-20.8-.8-22.4 1c-1.7 1.8-1.5 9 4.6 11.5 6.1 2.6 17.3 3.4 21.4 3.2 4-.1 12.1 1.5 11.9-1.1z"/><path class="mobile-modern0" d="M147.4 68.4c-3.7 1.1-7.8-.7-9.5-4.3-.2-.3-.3-.7-.4-1.1l-9.2 2.8c.2.8.5 1.5.8 2.3 3.9 8.5 13.6 12.3 22.2 9.1l-3.9-8.8z"/><path class="mobile-modern7" d="M31.9 182.5l-3.3-4.9h-19c.4 1.2.8 2.5 1.3 3.7L7 183.9l3.3 4.9h12.4l9.2-6.3zM148.8 177.6H44.9l.8 11.2H148zM24.8 171.9l-1.8 1.2c-1.1-3.4-1.5-7-1.4-10.5H7.5c-.1 3.7.3 7.5 1.1 11.2H26l-1.2-1.9zM149.9 162.6h-106l.8 11.2h104.4zM10.4 147.7c-1.3 3.6-2.2 7.4-2.6 11.2H22c.6-3.9 1.9-7.7 4-11.2H10.4zM151 147.7H42.8l.8 11.2h106.6zM19.5 132.7c-3.1 3.4-5.6 7.2-7.5 11.2h16.5c2-2.5 4.4-4.8 7.2-6.7 1.9-1.3 4-2.4 6.1-3.2l.7 9.9h108.7l.2-3.3c5.3-1.8 10.1-4.5 14.3-7.9H19.5zM177.8 117.8h-17.1c-1.8 2-3.8 3.9-6.2 5.5-.6.4-1.2.8-1.9 1.1l.5-6.6H40.6l.1 1.7c-4.5 1.3-8.8 3.3-12.9 6-1.6 1.1-3.1 2.2-4.5 3.4h146.5c3.3-3.3 5.9-7.1 8-11.1zM182.4 102.8H168c-.8 4-2.3 7.8-4.5 11.2h16c1.5-3.6 2.4-7.3 2.9-11.2zM153.4 113.8H40.3v.2h113.1zM168.5 99h14.2c.1-2.2.1-4.4-.2-6.6h-.1c-.1-1.6-.4-3.1-.7-4.7h-14.5c1.3 3.8 1.6 7.6 1.3 11.3zM165.4 88.5l1-.7H165zM158.3 77.9l4.2 6.2H181c-.5-1.7-1-3.3-1.7-4.9l3.9-2.7-2.4-3.6h-15.1l-7.4 5zM176.1 65.9l-4.8 3.2h6.9z"/><path class="mobile-modern7" d="M7.7 168c.4 4.5 1.5 8.9 3.2 13.2l-3.2 2.2v1.5l3.8 5.7h7.3v-57.3c-6.5 7.4-10.3 16.6-11.2 26.2v8.5zM24.8 171.9l-1.8 1.2c-.1-.4-.2-.8-.3-1.3v16.9l9.3-6.3-7.2-10.5zM33.9 122.1c-2 1-4.1 2.1-6 3.4-1.9 1.3-3.6 2.6-5.2 4.1v26c1.7-6.6 5.5-12.6 11.2-17v-16.5zM40.7 119.5c-1.1.3-2.1.7-3.1 1V136c1.4-.8 2.8-1.5 4.2-2l4.1 56.7h2.9v-76.9h-8.5l.4 5.7zM52.5 113.8h11.2v76.9H52.5zM67.5 113.8h11.2v76.9H67.5zM82.4 113.8h11.2v76.9H82.4zM97.3 113.8h11.2v76.9H97.3zM112.3 113.8v76.9h11.2v-76.9h-10.8zM127.2 113.8h11.2v76.9h-11.2zM142.2 190.7h5.7l3.6-50.1c.6-.2 1.2-.4 1.9-.7v-16c-.2.1-.5.3-.7.4l.7-9.6v-1h-11.2v77zM165.4 88.5l1.8-1.2c.5 1.5.8 3.1 1 4.6V71.1l-10 6.7 7.2 10.7zM157.1 121.3v17c4.2-2 7.9-4.7 11.2-7.8v-29.2c-1.1 7.6-5 14.8-11.2 20zM183.2 76.5l-7.1-10.6-4.1 2.7v57.9c7.8-9.3 11.8-21.6 10.6-34.1h-.1c-.4-4.5-1.5-9-3.3-13.4l4-2.5z"/><path class="mobile-modern8" d="M176.1 65.9l-17.8 12 7.1 10.6 1.8-1.2c4 13.1-.8 27.9-12.7 36-.6.4-1.2.8-1.9 1.1l.8-10.6H40.3l.4 5.7c-4.5 1.3-8.8 3.3-12.9 6C9.4 138 2.8 161.4 11 181.2l-4 2.7 4.6 6.8h8.3l12.1-8.1-7.1-10.6-1.8 1.2c-4-13.1.8-27.9 12.7-36 1.9-1.3 4-2.4 6.1-3.2l4.1 56.7h102l3.6-50.1c20.6-7 33.2-27.2 31.1-48.1h-.1c-.4-4.5-1.5-9-3.3-13.4l3.9-2.7-7.1-10.5z"/><circle class="mobile-modern3" cx="103.5" cy="99.1" r="2.2"/><circle class="mobile-modern3" cx="88.9" cy="99.1" r="2.2"/><path class="mobile-modern0" d="M97.7 63c-23.1 0-41.8 18.7-41.8 41.8v6.5h83.6v-6.5c0-23.1-18.7-41.8-41.8-41.8z"/><path class="mobile-modern9" d="M104.1 118.1H91.5c-3.3 0-6.1-2.7-6.1-6.1v-3.4c0-3.3 2.7-6.1 6.1-6.1H104c3.3 0 6.1 2.7 6.1 6.1v3.4c0 3.4-2.7 6.1-6 6.1z"/><path class="mobile-modern9" d="M137.2 105.9l-25.7 2.1v-.1L98.2 109 85 108v.1L59.3 106s-.2 9.3-.2 21.5 34.8 26.8 39.2 26.8c4.3 0 39.2-14.7 39.2-26.8s-.3-21.6-.3-21.6z"/><path class="mobile-modern0" d="M97.7 114.7c-2 0-3.8.4-5.6.9 2.6-2.3 4.5-5.2 5.6-8.6 1.1 3.4 3.1 6.3 5.6 8.6-1.7-.5-3.6-.9-5.6-.9z"/><path class="mobile-modern10" d="M87.9 101.3c1.4-3.3 4.7-5.6 8.5-5.4 3.4.1 6.2 2.1 7.6 4.9l2.3-1.1c-1.8-3.6-5.5-6.2-9.8-6.3-4.9-.2-9.2 2.8-10.9 7l2.3.9z"/><path class="mobile-modern10" d="M92.8 104.6H74.2c-1.1 0-2-.9-2-2V91.1c0-1.1.9-2 2-2h18.6c1.1 0 2 .9 2 2v11.5c0 1.1-.9 2-2 2z"/><path class="mobile-modern10" d="M76.7 92.9h-5.8c-.6 0-1-.5-1-1v-1.8c0-.5.4-1 1-1h5.8c.6 0 1 .5 1 1v1.8c0 .5-.5 1-1 1z"/><path class="mobile-modern0" d="M91.2 102.8H76.7c-.5 0-1-.4-1-1v-8c0-.6.5-1 1-1h14.5c.5 0 1 .4 1 1v8c0 .6-.4 1-1 1z"/><path class="mobile-modern10" d="M100.3 104.6h18.6c1.1 0 2-.9 2-2V91.1c0-1.1-.9-2-2-2h-18.6c-1.1 0-2 .9-2 2v11.5c0 1.1.9 2 2 2z"/><path class="mobile-modern10" d="M116.5 92.9h5.8c.5 0 1-.5 1-1v-1.8c0-.5-.5-1-1-1h-5.8c-.5 0-1 .5-1 1v1.8c0 .5.4 1 1 1z"/><path class="mobile-modern0" d="M101.9 102.8h14.5c.5 0 1-.4 1-1v-8c0-.6-.5-1-1-1h-14.5c-.6 0-1 .4-1 1v8c0 .6.4 1 1 1z"/><circle class="mobile-modern3" cx="103.5" cy="100" r="2.2"/><circle class="mobile-modern3" cx="89" cy="100" r="2.2"/><path class="mobile-modern5" d="M91 112.1c-4.1 0-8.6 12.4-11.3 12.4-1.7 0-2.1-1-2.2-1.8v-5.5h-9.3v5.4c0 5.6 2.4 8.8 10.8 7.6 5.3-.8 8.3-16.4 12.1-16.4h4.1V112c-.1.1-.1.1-4.2.1z"/><path class="mobile-modern0" d="M36.9 184.8c-4.1.7-7.7 2.9-10.2 5.8h26.6c-3.9-4.5-10-6.9-16.4-5.8z"/><path class="mobile-modern3" d="M24.8 190.7h10.1c-1.4-1.9-3.7-2.9-6.1-2.5-1.7.3-3 1.2-4 2.5z"/></svg>