<svg id="pipe-main-right" xmlns="http://www.w3.org/2000/svg" width="263.7" height="306.3" viewBox="0 0 263.7 306.3" aria-hidden="true"><style>.pipe-main-right0{fill:#a0c3c6}.pipe-main-right1{fill:#4d9da3}</style><path class="pipe-main-right0" d="M30 58.3h30v61H30zM202 57.3h30v194h-30zM76 3.3h113v30H76zM202 251.7v10.4c0 22.7 18.4 41.1 41.1 41.1h11.3v-29.9h-8.5c-7.5 0-13.5-6.1-13.5-13.5v-8H202z"/><path class="pipe-main-right1" d="M235.2 245.3h-3.4v-.2c0-1-.8-1.8-1.8-1.8s-1.8.8-1.8 1.8v.2h-9.3v-.2c0-1-.8-1.8-1.8-1.8s-1.8.8-1.8 1.8v.2H206v-.2c0-1-.8-1.8-1.8-1.8s-1.8.8-1.8 1.8v.2h-2.9v9h2.9c0 1 .8 1.8 1.8 1.8s1.8-.8 1.8-1.8h9.4c0 1 .8 1.8 1.8 1.8s1.8-.8 1.8-1.8h9.4c0 1 .8 1.8 1.8 1.8s1.8-.8 1.8-1.8h3.5v-9zM261.6 290.1c1 0 1.8-.8 1.8-1.8s-.8-1.8-1.8-1.8h-.3v-9.3h.3c1 0 1.8-.8 1.8-1.8s-.8-1.8-1.8-1.8h-.3v-3.1h-9v3.1c-.9.1-1.7.9-1.7 1.8 0 1 .7 1.7 1.7 1.8v9.4c-.9.1-1.7.9-1.7 1.8 0 1 .7 1.7 1.7 1.8v9.4c-.9.1-1.7.9-1.7 1.8 0 1 .7 1.7 1.7 1.8v3.3h9v-3.3h.3c1 0 1.8-.8 1.8-1.8s-.8-1.8-1.8-1.8h-.3v-9.3h.3z"/><path class="pipe-main-right0" d="M81.6 3.2H71.1C48.4 3.2 30 21.6 30 44.3v11.3h30v-8.5c0-7.5 6.1-13.5 13.5-13.5h8V3.2z"/><path class="pipe-main-right1" d="M88.3 20.3c1 0 1.8-.8 1.8-1.8s-.8-1.8-1.8-1.8h-.1V7.3h.1c1 0 1.8-.8 1.8-1.8s-.8-1.8-1.8-1.8h-.1V.3h-9v3.3h-.1c-1 0-1.8.8-1.8 1.8s.8 1.8 1.8 1.8h.1v9.3h-.1c-1 0-1.8.8-1.8 1.8s.8 1.8 1.8 1.8h.1v9.3h-.1c-1 0-1.8.8-1.8 1.8s.8 1.8 1.8 1.8h.1v3.1h9V33h.1c1 0 1.8-.8 1.8-1.8s-.8-1.8-1.8-1.8h-.1l.1-9.1zM63.2 53.3h-3.4c-.1-.9-.9-1.7-1.8-1.7-1 0-1.7.8-1.8 1.7h-9.4c-.1-.9-.9-1.7-1.8-1.7-1 0-1.7.8-1.8 1.7h-9.4c-.1-.9-.9-1.7-1.8-1.7-1 0-1.7.8-1.8 1.7h-3v9h2.9v.3c0 1 .8 1.8 1.8 1.8s1.8-.8 1.8-1.8v-.3H43v.3c0 1 .8 1.8 1.8 1.8s1.8-.8 1.8-1.8v-.3h9.3v.3c0 1 .8 1.8 1.8 1.8s1.8-.8 1.8-1.8v-.3h3.4v-9z"/><path class="pipe-main-right0" d="M180.8 3.2h10.4c22.7 0 41.1 18.4 41.1 41.1v11.3h-29.9v-8.5c0-7.5-6.1-13.5-13.5-13.5h-8V3.2z"/><path class="pipe-main-right1" d="M185.1 18.4c0-1-.8-1.8-1.8-1.8V7.3c1 0 1.8-.8 1.8-1.8s-.8-1.8-1.8-1.8V.3h-9v3.3h-.2c-1 0-1.8.8-1.8 1.8s.8 1.8 1.8 1.8h.2v9.3h-.2c-1 0-1.8.8-1.8 1.8s.8 1.8 1.8 1.8h.2v9.3h-.2c-1 0-1.8.8-1.8 1.8s.8 1.8 1.8 1.8h.2v3.1h9V33c1 0 1.8-.8 1.8-1.8s-.8-1.8-1.8-1.8v-9.3c1 .2 1.8-.7 1.8-1.7zM235.2 53.3h-3c-.1-.9-.9-1.7-1.8-1.7-1 0-1.7.8-1.8 1.7h-9.4c-.1-.9-.9-1.7-1.8-1.7-1 0-1.7.8-1.8 1.7h-9.4c-.1-.9-.9-1.7-1.8-1.7-1 0-1.7.8-1.8 1.7h-3.3v9h3.3v.3c0 1 .8 1.8 1.8 1.8s1.8-.8 1.8-1.8v-.3h9.3v.3c0 1 .8 1.8 1.8 1.8s1.8-.8 1.8-1.8v-.3h9.3v.3c0 1 .8 1.8 1.8 1.8s1.8-.8 1.8-1.8v-.3h3v-9z"/><path class="pipe-main-right0" d="M8.5 173.2h10.4c22.7 0 41.1-18.4 41.1-41.1v-11.3H30.1v8.5c0 7.5-6.1 13.5-13.5 13.5h-8v30.4z"/><path class="pipe-main-right1" d="M11.5 159.8c1 0 1.8-.8 1.8-1.8s-.8-1.8-1.8-1.8h-.2v-9.3h.2c1 0 1.8-.8 1.8-1.8s-.8-1.8-1.8-1.8h-.2v-2.8h-9v2.8c-1 0-1.8.8-1.8 1.8s.8 1.8 1.8 1.8v9.3c-1 0-1.8.8-1.8 1.8s.8 1.8 1.8 1.8v9.3c-1 0-1.8.8-1.8 1.8s.8 1.8 1.8 1.8v3.6h9v-3.6h.2c1 0 1.8-.8 1.8-1.8s-.8-1.8-1.8-1.8h-.2v-9.3h.2zM63.2 113.3h-2.8c-.1-.9-.9-1.7-1.8-1.7-1 0-1.8.8-1.8 1.7h-9.4c-.1-.9-.9-1.7-1.8-1.7-1 0-1.8.8-1.8 1.7h-9.4c-.1-.9-.9-1.7-1.8-1.7-1 0-1.8.8-1.8 1.7h-3.5v9h3.5v.3c0 1 .8 1.8 1.8 1.8s1.8-.8 1.8-1.8v-.3h9.3v.3c0 1 .8 1.8 1.8 1.8s1.8-.8 1.8-1.8v-.3h9.3v.3c0 1 .8 1.8 1.8 1.8s1.8-.8 1.8-1.8v-.3H63v-9z"/><g><path class="pipe-main-right0" d="M230 213.3h15v7h-15z"/><path class="pipe-main-right1" d="M245.4 221.3h.4s2.4-.5 2.4-4.7c0-4-2.4-4.3-2.4-4.3h-.3c.5-1.1 3.6-7.9 4.1-9.6.5-1.7-.9-3-2.2-3H243c-1.4 0-2.5 1.1-2.5 2.5v10h-1.2v9h1.2v10.1c0 1.4 1.1 2.5 2.5 2.5h4.4c1.4 0 2.8-1.2 2.2-3-.6-1.5-3.9-8.8-4.2-9.5z"/></g></svg>