<?xml version="1.0" encoding="utf-8"?>
<!-- Generator: Adobe Illustrator 19.1.0, SVG Export Plug-In . SVG Version: 6.00 Build 0)  -->
<svg version="1.1" id="Layer_1" xmlns="http://www.w3.org/2000/svg" xmlns:xlink="http://www.w3.org/1999/xlink" x="0px" y="0px"
	 viewBox="0 0 944 944" style="enable-background:new 0 0 944 944;" xml:space="preserve" aria-hidden="true">
<style type="text/css">
	.st0{fill:#4C9EA4;}
	.st1{fill:#A1C4C6;}
</style>
<rect x="41" y="899" class="st0" width="149" height="29"/>
<g>
	<circle class="st1" cx="59.8" cy="914.5" r="5.1"/>
</g>
<g>
	<circle class="st1" cx="82.2" cy="914.5" r="5.1"/>
</g>
<g>
	<circle class="st1" cx="104.7" cy="914.5" r="5.1"/>
</g>
<g>
	<circle class="st1" cx="127.2" cy="914.5" r="5.1"/>
</g>
<g>
	<circle class="st1" cx="149.6" cy="914.5" r="5.1"/>
</g>
<g>
	<circle class="st1" cx="172.1" cy="914.5" r="5.1"/>
</g>
<g id="Pipe_sections_1_">
	<rect x="100" y="549" class="st1" width="30" height="317"/>
	<rect x="237" y="325" class="st1" width="631" height="30"/>
	<rect x="157" y="493" class="st1" width="80" height="30"/>
	<circle class="st1" cx="115.4" cy="756.4" r="62"/>
	<polygon class="st1" points="88.6,845 48.7,899 115.4,899 182.2,899 142.3,845 	"/>
	<path class="st1" d="M130.3,549.8c0.4-14.8,12.6-26.8,27.5-26.8h1.9v-30h-1.9c-31.5,0-57.1,25.4-57.5,56.8H130.3z"/>
	<path class="st1" d="M207.7,381.8c0.4-14.8,12.6-26.8,27.5-26.8h1.9v-30h-1.9c-31.5,0-57.1,25.4-57.5,56.8H207.7z"/>
	<path class="st1" d="M207.7,381.8c0.4,14.8,12.6,26.8,27.5,26.8h1.9v30h-1.9c-31.5,0-57.1-25.4-57.5-56.8H207.7z"/>
	<path class="st1" d="M266.6,466c-0.4-14.8-12.6-26.8-27.5-26.8h-1.9v-30h1.9c31.5,0,57.1,25.4,57.5,56.8H266.6z"/>
	<path class="st1" d="M266.6,466c-0.4,14.8-12.6,26.8-27.5,26.8h-1.9v30h1.9c31.5,0,57.1-25.4,57.5-56.8H266.6z"/>
	<path class="st1" d="M896.3,298.2c-0.4,14.8-12.6,26.8-27.5,26.8h-1.9v30h1.9c31.5,0,57.1-25.4,57.5-56.8H896.3z"/>
	<rect x="896" y="10" class="st1" width="30" height="288"/>
	<rect x="423" y="340" class="st1" width="30" height="46"/>
</g>
<rect x="86" y="833" class="st0" width="59" height="14"/>
<g>
	<g>
		<path class="st0" d="M246.2,539.9c-17.5,0-31.7-14.2-31.7-31.7c0-17.5,14.2-31.7,31.7-31.7s31.7,14.2,31.7,31.7
			C277.9,525.7,263.7,539.9,246.2,539.9z M246.2,485.1c-12.8,0-23.2,10.4-23.2,23.2c0,12.8,10.4,23.2,23.2,23.2s23.2-10.4,23.2-23.2
			C269.4,495.5,259,485.1,246.2,485.1z"/>
	</g>
	<g>
		<path class="st0" d="M246.5,520.8c-6.9,0-12.5-5.6-12.5-12.5c0-6.9,5.6-12.5,12.5-12.5c6.9,0,12.5,5.6,12.5,12.5
			C259,515.2,253.4,520.8,246.5,520.8z M246.5,504.3c-2.2,0-4,1.8-4,4s1.8,4,4,4c2.2,0,4-1.8,4-4S248.7,504.3,246.5,504.3z"/>
	</g>
	<g>
		<rect x="244.7" y="470.5" class="st0" width="3.1" height="75"/>
	</g>
	<g>
		<rect x="208.7" y="506.5" class="st0" width="75" height="3.1"/>
	</g>
	<g>

			<rect x="208.7" y="506.5" transform="matrix(0.7071 0.7071 -0.7071 0.7071 431.3329 -25.3298)" class="st0" width="75" height="3.1"/>
	</g>
	<g>

			<rect x="244.7" y="470.5" transform="matrix(0.7071 0.7071 -0.7071 0.7071 431.3329 -25.3298)" class="st0" width="3.1" height="75"/>
	</g>
</g>
<rect x="893" y="294" class="st0" width="36" height="9"/>
<rect x="420" y="381" class="st0" width="36" height="9"/>
<rect x="863" y="321" class="st0" width="9" height="36"/>
<rect x="237" y="321" class="st0" width="9" height="36"/>
<rect x="97.2" y="549.8" class="st0" width="36" height="9"/>
<rect x="97.2" y="670.3" class="st0" width="36" height="9"/>
</svg>
