<svg id="pipe-corner" xmlns="http://www.w3.org/2000/svg" width="64.8" height="63.2" viewBox="0 0 64.8 63.2" aria-hidden="true"><style>.pipe-corner0{fill:#d9e7e8}.pipe-corner1{fill:#a0c3c6}</style><path class="pipe-corner0" d="M2.7 8.7v10.4c0 22.7 18.4 41.1 41.1 41.1h11.3V30.3h-8.5c-7.5 0-13.5-6.1-13.5-13.5v-8H2.7z"/><path class="pipe-corner1" d="M19.8 2c0-1-.8-1.8-1.8-1.8S16.2 1 16.2 2v.2H6.8V2C6.8 1 6 .2 5 .2 3.9.2 3.1 1 3.1 2v.2h-3v9h3.1c0 1 .8 1.8 1.8 1.8s1.8-.8 1.8-1.8h9.3c0 1 .8 1.8 1.8 1.8s1.8-.8 1.8-1.8H29c0 1 .8 1.8 1.8 1.8s1.8-.8 1.8-1.8h3.3v-9h-3.3V2c0-1-.8-1.8-1.8-1.8S29 1 29 2v.2h-9.3V2zM54.1 27.2v3.3h-.3c-1 0-1.8.8-1.8 1.8s.8 1.8 1.8 1.8h.3v9.3h-.3c-1 0-1.8.8-1.8 1.8s.8 1.8 1.8 1.8h.3v9.3h-.3c-1 0-1.8.8-1.8 1.8s.8 1.8 1.8 1.8h.3v3h9v-3c.9-.1 1.7-.9 1.7-1.8 0-1-.7-1.7-1.7-1.8v-9.4c.9-.1 1.7-.9 1.7-1.8 0-1-.7-1.7-1.7-1.8v-9.4c.9-.1 1.7-.9 1.7-1.8 0-1-.7-1.7-1.7-1.8V27h-9z"/></svg>