<?xml version="1.0" encoding="utf-8"?>
<svg version="1.1" id="pipe-main-right" xmlns="http://www.w3.org/2000/svg" xmlns:xlink="http://www.w3.org/1999/xlink" x="0px" y="0px"
	 width="263.7px" height="306.3px" viewBox="0 0 263.7 306.3" style="enable-background:new 0 0 263.7 306.3;" xml:space="preserve" aria-hidden="true"
	>
<style type="text/css">
	.pipe-main-right0{fill:#A0C3C6;}
	.pipe-main-right1{fill:#4D9DA3;}
</style>
<g>
	<rect x="30" y="58.3" class="pipe-main-right0" width="30" height="61"/>
	<rect x="202" y="57.3" class="pipe-main-right0" width="30" height="194"/>
	<rect x="76" y="3.3" class="pipe-main-right0" width="113" height="30"/>
	<path class="pipe-main-right0" d="M202,251.7v10.4c0,22.7,18.4,41.1,41.1,41.1h11.3v-29.9h-8.5c-7.5,0-13.5-6.1-13.5-13.5v-8H202z"/>
	<path class="pipe-main-right1" d="M235.2,245.3h-3.4v-0.2c0-1-0.8-1.8-1.8-1.8c-1,0-1.8,0.8-1.8,1.8v0.2h-9.3v-0.2c0-1-0.8-1.8-1.8-1.8
		c-1,0-1.8,0.8-1.8,1.8v0.2h-9.3v-0.2c0-1-0.8-1.8-1.8-1.8c-1,0-1.8,0.8-1.8,1.8v0.2h-2.9v9h2.9c0,1,0.8,1.8,1.8,1.8
		s1.8-0.8,1.8-1.8h9.4c0,1,0.8,1.8,1.8,1.8s1.8-0.8,1.8-1.8h9.4c0,1,0.8,1.8,1.8,1.8s1.8-0.8,1.8-1.8h3.5V245.3z"/>
	<path class="pipe-main-right1" d="M261.6,290.1c1,0,1.8-0.8,1.8-1.8c0-1-0.8-1.8-1.8-1.8h-0.3v-9.3h0.3c1,0,1.8-0.8,1.8-1.8c0-1-0.8-1.8-1.8-1.8
		h-0.3v-3.1h-9v3.1c-0.9,0.1-1.7,0.9-1.7,1.8c0,1,0.7,1.7,1.7,1.8v9.4c-0.9,0.1-1.7,0.9-1.7,1.8c0,1,0.7,1.7,1.7,1.8v9.4
		c-0.9,0.1-1.7,0.9-1.7,1.8c0,1,0.7,1.7,1.7,1.8v3.3h9v-3.3h0.3c1,0,1.8-0.8,1.8-1.8c0-1-0.8-1.8-1.8-1.8h-0.3v-9.3H261.6z"/>
	<path class="pipe-main-right0" d="M81.6,3.2H71.1c-22.7,0-41.1,18.4-41.1,41.1v11.3H60v-8.5c0-7.5,6.1-13.5,13.5-13.5h8V3.2z"/>
	<g>
		<path class="pipe-main-right1" d="M88.3,20.3c1,0,1.8-0.8,1.8-1.8c0-1-0.8-1.8-1.8-1.8h-0.1V7.3h0.1c1,0,1.8-0.8,1.8-1.8c0-1-0.8-1.8-1.8-1.8
			h-0.1V0.3h-9v3.3h-0.1c-1,0-1.8,0.8-1.8,1.8c0,1,0.8,1.8,1.8,1.8h0.1v9.3h-0.1c-1,0-1.8,0.8-1.8,1.8c0,1,0.8,1.8,1.8,1.8h0.1v9.3
			h-0.1c-1,0-1.8,0.8-1.8,1.8c0,1,0.8,1.8,1.8,1.8h0.1v3.1h9v-3.1h0.1c1,0,1.8-0.8,1.8-1.8c0-1-0.8-1.8-1.8-1.8h-0.1L88.3,20.3
			L88.3,20.3z"/>
	</g>
	<path class="pipe-main-right1" d="M63.2,53.3h-3.4c-0.1-0.9-0.9-1.7-1.8-1.7c-1,0-1.7,0.8-1.8,1.7h-9.4c-0.1-0.9-0.9-1.7-1.8-1.7
		c-1,0-1.7,0.8-1.8,1.7h-9.4c-0.1-0.9-0.9-1.7-1.8-1.7c-1,0-1.7,0.8-1.8,1.7h-3v9h2.9v0.3c0,1,0.8,1.8,1.8,1.8c1,0,1.8-0.8,1.8-1.8
		v-0.3h9.3v0.3c0,1,0.8,1.8,1.8,1.8c1,0,1.8-0.8,1.8-1.8v-0.3h9.3v0.3c0,1,0.8,1.8,1.8,1.8c1,0,1.8-0.8,1.8-1.8v-0.3h3.4V53.3z"/>
	<g>
		<path class="pipe-main-right0" d="M180.8,3.2h10.4c22.7,0,41.1,18.4,41.1,41.1v11.3h-29.9v-8.5c0-7.5-6.1-13.5-13.5-13.5h-8V3.2z"/>
		<path class="pipe-main-right1" d="M185.1,18.4c0-1-0.8-1.8-1.8-1.8V7.3c1,0,1.8-0.8,1.8-1.8c0-1-0.8-1.8-1.8-1.8V0.3h-9v3.3h-0.2
			c-1,0-1.8,0.8-1.8,1.8c0,1,0.8,1.8,1.8,1.8h0.2v9.3h-0.2c-1,0-1.8,0.8-1.8,1.8c0,1,0.8,1.8,1.8,1.8h0.2v9.3h-0.2
			c-1,0-1.8,0.8-1.8,1.8c0,1,0.8,1.8,1.8,1.8h0.2v3.1h9v-3.1c1,0,1.8-0.8,1.8-1.8c0-1-0.8-1.8-1.8-1.8v-9.3
			C184.3,20.3,185.1,19.4,185.1,18.4z"/>
		<path class="pipe-main-right1" d="M235.2,53.3h-3c-0.1-0.9-0.9-1.7-1.8-1.7c-1,0-1.7,0.8-1.8,1.7h-9.4c-0.1-0.9-0.9-1.7-1.8-1.7
			c-1,0-1.7,0.8-1.8,1.7h-9.4c-0.1-0.9-0.9-1.7-1.8-1.7c-1,0-1.7,0.8-1.8,1.7h-3.3v9h3.3v0.3c0,1,0.8,1.8,1.8,1.8
			c1,0,1.8-0.8,1.8-1.8v-0.3h9.3v0.3c0,1,0.8,1.8,1.8,1.8c1,0,1.8-0.8,1.8-1.8v-0.3h9.3v0.3c0,1,0.8,1.8,1.8,1.8
			c1,0,1.8-0.8,1.8-1.8v-0.3h3V53.3z"/>
	</g>
	<path class="pipe-main-right0" d="M8.5,173.2h10.4c22.7,0,41.1-18.4,41.1-41.1v-11.3H30.1v8.5c0,7.5-6.1,13.5-13.5,13.5h-8V173.2z"/>
	<path class="pipe-main-right1" d="M11.5,159.8c1,0,1.8-0.8,1.8-1.8c0-1-0.8-1.8-1.8-1.8h-0.2v-9.3h0.2c1,0,1.8-0.8,1.8-1.8c0-1-0.8-1.8-1.8-1.8
		h-0.2v-2.8h-9v2.8c-1,0-1.8,0.8-1.8,1.8c0,1,0.8,1.8,1.8,1.8v9.3c-1,0-1.8,0.8-1.8,1.8c0,1,0.8,1.8,1.8,1.8v9.3
		c-1,0-1.8,0.8-1.8,1.8c0,1,0.8,1.8,1.8,1.8v3.6h9v-3.6h0.2c1,0,1.8-0.8,1.8-1.8c0-1-0.8-1.8-1.8-1.8h-0.2v-9.3H11.5z"/>
	<path class="pipe-main-right1" d="M63.2,113.3h-2.8c-0.1-0.9-0.9-1.7-1.8-1.7c-1,0-1.8,0.8-1.8,1.7h-9.4c-0.1-0.9-0.9-1.7-1.8-1.7
		c-1,0-1.8,0.8-1.8,1.7h-9.4c-0.1-0.9-0.9-1.7-1.8-1.7c-1,0-1.8,0.8-1.8,1.7h-3.5v9h3.5v0.3c0,1,0.8,1.8,1.8,1.8
		c1,0,1.8-0.8,1.8-1.8v-0.3h9.3v0.3c0,1,0.8,1.8,1.8,1.8c1,0,1.8-0.8,1.8-1.8v-0.3h9.3v0.3c0,1,0.8,1.8,1.8,1.8c1,0,1.8-0.8,1.8-1.8
		v-0.3h2.8V113.3z"/>
	<g>
		<rect x="230" y="213.3" class="pipe-main-right0" width="15" height="7"/>
		<path class="pipe-main-right1" d="M245.4,221.3h0.4c0,0,2.4-0.5,2.4-4.7c0-4-2.4-4.3-2.4-4.3h-0.3c0.5-1.1,3.6-7.9,4.1-9.6c0.5-1.7-0.9-3-2.2-3
			h-4.4c-1.4,0-2.5,1.1-2.5,2.5v10h-1.2v9h1.2v10.1c0,1.4,1.1,2.5,2.5,2.5h4.4c1.4,0,2.8-1.2,2.2-3C249,229.3,245.7,222,245.4,221.3
			z"/>
	</g>
</g>
</svg>
