<svg id="pipe-chute" xmlns="http://www.w3.org/2000/svg" width="197" height="603" viewBox="0 0 197 603">
	<path class="teal" d="M0 574h149v29H0z"/>
	<circle class="teal-light" cx="18.8" cy="589.5" r="5.1"/>
	<circle class="teal-light" cx="41.2" cy="589.5" r="5.1"/>
	<circle class="teal-light" cx="63.7" cy="589.5" r="5.1"/>
	<circle class="teal-light" cx="86.2" cy="589.5" r="5.1"/>
	<circle class="teal-light" cx="108.6" cy="589.5" r="5.1"/>
	<circle class="teal-light" cx="131.1" cy="589.5" r="5.1"/>
	<circle class="teal-light" cx="74.4" cy="431.4" r="62"/>
	<path class="teal-light" d="M47.6 520L7.7 574h133.5l-39.9-54z"/>
	<path class="teal-light" d="M116.5 30H197V0h-80.5C85.1 0 59.4 26 59 57c.4 31 26 57 57.5 57h3.9c14.9 0 27.1 12 27.5 27-.4 15-12.6 27-27.5 27H116.8c-31.1 0-56.5 24.5-57.5 56H59v317h30V225h.3c.4-15 12.6-27 27.5-27h3.6c31.5 0 57.1-25 57.5-57-.4-31-26-57-57.5-57h-3.9C101.6 84 89.4 72 89 57c.4-15 12.6-27 27.5-27z"/>
	<path class="teal" d="M45 508h59v14H45z"/>
	<g class="tap">
		<path class="teal" d="M74.4 317.9c-17.5 0-31.7-14.2-31.7-31.7s14.2-31.7 31.7-31.7 31.7 14.2 31.7 31.7-14.2 31.7-31.7 31.7zm0-54.8c-12.8 0-23.2 10.4-23.2 23.2s10.4 23.2 23.2 23.2 23.2-10.4 23.2-23.2-10.4-23.2-23.2-23.2z"/><path class="teal" d="M74.6 298.8c-6.9 0-12.5-5.6-12.5-12.5s5.6-12.5 12.5-12.5 12.5 5.6 12.5 12.5-5.6 12.5-12.5 12.5zm0-16.5c-2.2 0-4 1.8-4 4s1.8 4 4 4 4-1.8 4-4-1.8-4-4-4z"/><path class="teal" d="M73 248h3v76h-3z"/><path class="teal" d="M37 284h75v4H37z"/><path class="teal" d="M49.01 258.337l53.033 53.033-2.192 2.192-53.03-53.033z"/><path class="teal" d="M99.85 258.408l2.193 2.192-53.032 53.033-2.19-2.192z"/>
	</g>
	<path class="teal" d="M56 225h36v9H56zM56 345h36v9H56z"/>
</svg>
