<svg id="pipe-bend" xmlns="http://www.w3.org/2000/svg" viewBox="0 0 199.3 190.3" aria-hidden="true"><style>.st0{fill:#a1c4c6}.st1{fill:#4c9ea4}</style><path class="st0" d="M2.8 171.3h30v23h-30zM141.9 27.3h-3.8c-14.9 0-27.1-12-27.5-27h-30c.4 31 26 57 57.4 57h3.8c14.9 0 27.1 12 27.5 27-.4 15-12.6 27-27.5 27H59.7c-31 .5-56.1 25.3-56.5 57h30c.4-15 12.6-27 27.5-27H141.9c31.4 0 57-26 57.4-57-.4-31-26-57-57.4-57z"/><path class="st1" d="M149.1 158.1c-17.4 0-31.6-14.2-31.6-31.7s14.2-31.7 31.6-31.7 31.6 14.2 31.6 31.7-14.2 31.7-31.6 31.7zm0-54.9c-12.8 0-23.1 10.4-23.1 23.2s10.4 23.2 23.1 23.2 23.1-10.4 23.1-23.2-10.4-23.2-23.1-23.2z"/><path class="st1" d="M149.3 139c-6.9 0-12.5-5.6-12.5-12.5s5.6-12.5 12.5-12.5 12.5 5.6 12.5 12.5-5.6 12.5-12.5 12.5zm0-16.5c-2.2 0-4 1.8-4 4s1.8 4 4 4 4-1.8 4-4-1.8-4-4-4z"/><path class="st1" d="M147.8 88.3h3v75h-3z"/><path class="st1" d="M111.8 124.3h75v3h-75z"/><path class="st1" d="M174.5 153.8l-53-53.1 2.2-2.2 52.9 53.1z"/><path class="st1" d="M123.7 153.8l-2.2-2.2 53-53.1 2.1 2.2zM-.2 168.3h36v9h-36z"/></svg>