<?xml version="1.0" encoding="utf-8"?>
<svg version="1.1" id="pipe-main-left" xmlns="http://www.w3.org/2000/svg" xmlns:xlink="http://www.w3.org/1999/xlink" x="0px" y="0px"
	 width="108.8px" height="458.7px" viewBox="0 0 108.8 458.7" style="enable-background:new 0 0 108.8 458.7;" xml:space="preserve" aria-hidden="true"
	>
<style type="text/css">
	.pipe-main-left0{fill:#A0C3C6;}
	.pipe-main-left1{fill:#4D9DA3;}
</style>
<rect x="48.3" y="58" class="pipe-main-left0" width="30" height="343"/>
<path class="pipe-main-left0" d="M100,2.6H89.6C66.9,2.6,48.5,21,48.5,43.7V55h29.9v-8.5C78.4,39.1,84.5,33,92,33h8V2.6z"/>
<path class="pipe-main-left1" d="M106.7,19.7c1,0,1.8-0.8,1.8-1.8c0-1-0.8-1.8-1.8-1.8h-0.2V6.7h0.2c1,0,1.8-0.8,1.8-1.8c0-1-0.8-1.8-1.8-1.8
	h-0.2V0h-9v3.1c-1,0-1.8,0.8-1.8,1.8c0,1,0.8,1.8,1.8,1.8v9.3c-1,0-1.8,0.8-1.8,1.8c0,1,0.8,1.8,1.8,1.8v9.3c-1,0-1.8,0.8-1.8,1.8
	c0,1,0.8,1.8,1.8,1.8V36h9v-3.3h0.2c1,0,1.8-0.8,1.8-1.8c0-1-0.8-1.8-1.8-1.8h-0.2v-9.3H106.7z"/>
<path class="pipe-main-left1" d="M81.6,54h-3.3v-0.3c0-1-0.8-1.8-1.8-1.8c-1,0-1.8,0.8-1.8,1.8V54h-9.3v-0.3c0-1-0.8-1.8-1.8-1.8
	c-1,0-1.8,0.8-1.8,1.8V54h-9.3v-0.3c0-1-0.8-1.8-1.8-1.8c-1,0-1.8,0.8-1.8,1.8V54h-3v9h3c0.1,0.9,0.9,1.7,1.8,1.7
	c1,0,1.7-0.7,1.8-1.7h9.4c0.1,0.9,0.9,1.7,1.8,1.7c1,0,1.7-0.7,1.8-1.7h9.4c0.1,0.9,0.9,1.7,1.8,1.7c1,0,1.7-0.7,1.8-1.7h3.3V54z"/>
<path class="pipe-main-left0" d="M27.2,454.8h10.4c22.7,0,41.1-18.4,41.1-41.1v-11.3H48.7v8.5c0,7.5-6.1,13.5-13.5,13.5h-8V454.8z"/>
<path class="pipe-main-left1" d="M31.4,439.6c0-1-0.8-1.8-1.8-1.8v-9.3c1,0,1.8-0.8,1.8-1.8c0-1-0.8-1.8-1.8-1.8V421h-9v3.7h-0.2
	c-1,0-1.8,0.8-1.8,1.8c0,1,0.8,1.8,1.8,1.8h0.2v9.3h-0.2c-1,0-1.8,0.8-1.8,1.8c0,1,0.8,1.8,1.8,1.8h0.2v9.3h-0.2
	c-1,0-1.8,0.8-1.8,1.8c0,1,0.8,1.8,1.8,1.8h0.2v2.6h9v-2.6c1,0,1.8-0.8,1.8-1.8c0-1-0.8-1.8-1.8-1.8v-9.3
	C30.6,441.4,31.4,440.6,31.4,439.6z"/>
<path class="pipe-main-left1" d="M81.6,395h-3.3v-0.3c0-1-0.8-1.8-1.8-1.8c-1,0-1.8,0.8-1.8,1.8v0.3h-9.3v-0.3c0-1-0.8-1.8-1.8-1.8
	c-1,0-1.8,0.8-1.8,1.8v0.3h-9.3v-0.3c0-1-0.8-1.8-1.8-1.8c-1,0-1.8,0.8-1.8,1.8v0.3h-3v9h3c0.1,0.9,0.9,1.7,1.8,1.7
	c1,0,1.7-0.7,1.8-1.7h9.4c0.1,0.9,0.9,1.7,1.8,1.7c1,0,1.7-0.7,1.8-1.7h9.4c0.1,0.9,0.9,1.7,1.8,1.7c1,0,1.7-0.7,1.8-1.7h3.3V395z"
	/>
<rect x="4.3" y="297" class="pipe-main-left0" width="46" height="30"/>
<path class="pipe-main-left1" d="M9.8,330.3V327h0.3c1,0,1.8-0.8,1.8-1.8c0-1-0.8-1.8-1.8-1.8H9.8V314h0.3c1,0,1.8-0.8,1.8-1.8
	c0-1-0.8-1.8-1.8-1.8H9.8V301h0.3c1,0,1.8-0.8,1.8-1.8c0-1-0.8-1.8-1.8-1.8H9.8v-3h-9v36H9.8z"/>
</svg>
