<?xml version="1.0" encoding="utf-8"?>
<!-- Generator: Adobe Illustrator 19.1.0, SVG Export Plug-In . SVG Version: 6.00 Build 0)  -->
<svg version="1.1" id="pipe-bend" xmlns="http://www.w3.org/2000/svg" xmlns:xlink="http://www.w3.org/1999/xlink" x="0px" y="0px"
	 viewBox="0 0 199.3 190.3" style="enable-background:new 0 0 199.3 190.3;" xml:space="preserve" aria-hidden="true">
<style type="text/css">
	.st0{fill:#A1C4C6;}
	.st1{fill:#4C9EA4;}
</style>
<g>
	<rect x="2.8" y="171.3" class="st0" width="30" height="23"/>
	<path class="st0" d="M141.9,27.3h-2.1h-1.7c-14.9,0-27.1-12-27.5-27h-30c0.4,31,26,57,57.4,57h1.7h2.1c14.9,0,27.1,12,27.5,27
		c-0.4,15-12.6,27-27.5,27h-2.1h-77h-2.1h-0.9v0c-31,0.5-56.1,25.3-56.5,57h30c0.4-15,12.6-27,27.5-27h2.1h77h2.1
		c31.4,0,57-26,57.4-57C198.9,53.3,173.3,27.3,141.9,27.3z"/>
</g>
<g>
	<g>
		<path class="st1" d="M149.1,158.1c-17.4,0-31.6-14.2-31.6-31.7s14.2-31.7,31.6-31.7s31.6,14.2,31.6,31.7S166.5,158.1,149.1,158.1z
			 M149.1,103.2c-12.8,0-23.1,10.4-23.1,23.2s10.4,23.2,23.1,23.2s23.1-10.4,23.1-23.2S161.8,103.2,149.1,103.2z"/>
	</g>
	<g>
		<path class="st1" d="M149.3,139c-6.9,0-12.5-5.6-12.5-12.5c0-6.9,5.6-12.5,12.5-12.5c6.9,0,12.5,5.6,12.5,12.5
			C161.8,133.4,156.2,139,149.3,139z M149.3,122.5c-2.2,0-4,1.8-4,4c0,2.2,1.8,4,4,4c2.2,0,4-1.8,4-4
			C153.3,124.3,151.5,122.5,149.3,122.5z"/>
	</g>
	<g>
		<rect x="147.8" y="88.3" class="st1" width="3" height="75"/>
	</g>
	<g>
		<rect x="111.8" y="124.3" class="st1" width="75" height="3"/>
	</g>
	<g>
		<polygon class="st1" points="174.5,153.8 121.5,100.7 123.7,98.5 176.6,151.6 		"/>
	</g>
	<g>
		<polygon class="st1" points="123.7,153.8 121.5,151.6 174.5,98.5 176.6,100.7 		"/>
	</g>
</g>
<rect x="-0.2" y="168.3" class="st1" width="36" height="9"/>
</svg>
