<svg xmlns="http://www.w3.org/2000/svg" width="197" height="603" viewBox="0 0 197 603"><path class="teal" d="M0 574h149v29H0z"/><circle class="teal-light" cx="18.8" cy="589.5" r="5.1"/><circle class="teal-light" cx="41.2" cy="589.5" r="5.1"/><circle class="teal-light" cx="63.7" cy="589.5" r="5.1"/><circle class="teal-light" cx="86.2" cy="589.5" r="5.1"/><circle class="teal-light" cx="108.6" cy="589.5" r="5.1"/><circle class="teal-light" cx="131.1" cy="589.5" r="5.1"/><circle class="teal-light" cx="74.4" cy="431.4" r="62"/><path class="teal-light" d="M47.6 520L7.7 574h133.5l-39.9-54z"/><path class="teal-light" d="M116.5 30H197V0h-80.5C85.1 0 59.4 26 59 57c.4 31 26 57 57.5 57h3.9c14.9 0 27.1 12 27.5 27-.4 15-12.6 27-27.5 27h-3.6c-31.1 0-56.5 24.5-57.5 56H59v317h30V225h.3c.4-15 12.6-27 27.5-27h3.6c31.5 0 57.1-25 57.5-57-.4-31-26-57-57.5-57h-3.9C101.6 84 89.4 72 89 57c.4-15 12.6-27 27.5-27z"/><path class="teal" d="M45 508h59v14H45zM56 225h36v9H56zm0 120h36v9H56z"/></svg>