<svg id="pipe-main-left" xmlns="http://www.w3.org/2000/svg" width="108.8" height="387" viewBox="-45 -129.7 108.8 387" aria-hidden="true"><style>.pipe-main-left0{fill:#a0c3c6}.pipe-main-left1{fill:#4d9da3}</style><path class="pipe-main-left0" d="M3.3-71.7h30v273h-30v-273zM55-127.1H44.6c-22.7 0-41.1 18.4-41.1 41.1v11.3h29.9v-8.5c0-7.4 6.1-13.5 13.6-13.5h8v-30.4z"/><path class="pipe-main-left1" d="M61.7-110c1 0 1.8-.8 1.8-1.8s-.8-1.8-1.8-1.8h-.2v-9.4h.2c1 0 1.8-.8 1.8-1.8s-.8-1.8-1.8-1.8h-.2v-3.1h-9v3.1c-1 0-1.8.8-1.8 1.8s.8 1.8 1.8 1.8v9.3c-1 0-1.8.8-1.8 1.8s.8 1.8 1.8 1.8v9.3c-1 0-1.8.8-1.8 1.8s.8 1.8 1.8 1.8v3.5h9V-97h.2c1 0 1.8-.8 1.8-1.8s-.8-1.8-1.8-1.8h-.2v-9.3h.2v-.1zM36.6-75.7h-3.3v-.3c0-1-.8-1.8-1.8-1.8s-1.8.8-1.8 1.8v.3h-9.3v-.3c0-1-.8-1.8-1.8-1.8s-1.8.8-1.8 1.8v.3H7.5v-.3c0-1-.8-1.8-1.8-1.8S3.9-77 3.9-76v.3h-3v9h3c.1.9.9 1.7 1.8 1.7 1 0 1.7-.7 1.8-1.7h9.4c.1.9.9 1.7 1.8 1.7 1 0 1.7-.7 1.8-1.7h9.4c.1.9.9 1.7 1.8 1.7 1 0 1.7-.7 1.8-1.7h3.3v-9h-.2z"/><path class="pipe-main-left0" d="M-17.8 255.1h10.4c22.7 0 41.1-18.4 41.1-41.1v-11.3h-30v8.5c0 7.5-6.1 13.5-13.5 13.5h-8v30.4z"/><path class="pipe-main-left1" d="M-13.6 239.9c0-1-.8-1.8-1.8-1.8v-9.3c1 0 1.8-.8 1.8-1.8s-.8-1.8-1.8-1.8v-3.9h-9v3.7h-.2c-1 0-1.8.8-1.8 1.8s.8 1.8 1.8 1.8h.2v9.3h-.2c-1 0-1.8.8-1.8 1.8s.8 1.8 1.8 1.8h.2v9.3h-.2c-1 0-1.8.8-1.8 1.8s.8 1.8 1.8 1.8h.2v2.6h9v-2.6c1 0 1.8-.8 1.8-1.8s-.8-1.8-1.8-1.8v-9.3c1 .2 1.8-.6 1.8-1.6zm50.2-44.6h-3.3v-.3c0-1-.8-1.8-1.8-1.8s-1.8.8-1.8 1.8v.3h-9.3v-.3c0-1-.8-1.8-1.8-1.8s-1.8.8-1.8 1.8v.3H7.5v-.3c0-1-.8-1.8-1.8-1.8s-1.8.8-1.8 1.8v.3h-3v9h3c.1.9.9 1.7 1.8 1.7 1 0 1.7-.7 1.8-1.7h9.4c.1.9.9 1.7 1.8 1.7 1 0 1.7-.7 1.8-1.7h9.4c.1.9.9 1.7 1.8 1.7 1 0 1.7-.7 1.8-1.7h3.3v-9h-.2z"/><path class="pipe-main-left0" d="M-40.7 97.3h46v30h-46v-30z"/><path class="pipe-main-left1" d="M-35.2 130.6v-3.3h.3c1 0 1.8-.8 1.8-1.8s-.8-1.8-1.8-1.8h-.3v-9.4h.3c1 0 1.8-.8 1.8-1.8s-.8-1.8-1.8-1.8h-.3v-9.4h.3c1 0 1.8-.8 1.8-1.8s-.8-1.8-1.8-1.8h-.3v-3h-9v36h9v-.1z"/></svg>