<?xml version="1.0" encoding="utf-8"?>
<!-- Generator: Adobe Illustrator 19.0.1, SVG Export Plug-In . SVG Version: 6.00 Build 0)  -->
<svg version="1.1" id="Layer_1" xmlns="http://www.w3.org/2000/svg" xmlns:xlink="http://www.w3.org/1999/xlink" x="0px" y="0px"
	 width="188.3px" height="226.2px" viewBox="0 0 188.3 226.2" style="enable-background:new 0 0 188.3 226.2;" xml:space="preserve"
	>
<style type="text/css">
	.magazine0{fill:#E5E5E5;}
	.magazine1{fill:#969696;}
	.magazine2{fill:#EAE0CC;}
	.magazine3{opacity:0.6;}
	.magazine4{clip-path:url(#SVGID_2_);fill:#D7C7A3;}
	.magazine5{fill:#F06A66;}
	.magazine6{fill:none;stroke:#C4C4C3;stroke-miterlimit:10;}
	.magazine7{fill:#C4C4C3;}
	.magazine8{fill:#FFFFFF;}
	.magazine9{fill:#E28888;}
	.magazine10{fill:#EFE4A6;}
	.magazine11{fill:#39C3DE;}
	.magazine12{fill:#AFBB87;}
	.magazine13{fill:#509EA3;}
	.magazine14{fill:#95BEC0;}
	.magazine15{clip-path:url(#SVGID_4_);fill:#E5E5E5;}
	.magazine16{clip-path:url(#SVGID_4_);fill:#C4C4C3;}
	.magazine17{clip-path:url(#SVGID_4_);fill:#FFFFFF;}
	.magazine18{clip-path:url(#SVGID_4_);fill:#969696;}
	.magazine19{clip-path:url(#SVGID_4_);fill:#F06A66;}
	.magazine20{clip-path:url(#SVGID_4_);fill:none;stroke:#C4C4C3;stroke-miterlimit:10;}
	.magazine21{clip-path:url(#SVGID_4_);}
	.magazine22{fill:#8CCED8;}
	.magazine23{opacity:0.4;}
	.magazine24{clip-path:url(#SVGID_6_);}
</style>
<g>
	<g>
		<path class="magazine0" d="M154.2,121c-7.1,7.7-18.5,10.6-28.7,6.4c-9.1-3.7-14.9-12-15.9-21.2l-7.4,0.8c1.2,11.8,8.8,22.5,20.5,27.3
			c13.2,5.4,27.9,1.7,37-8.2L154.2,121z"/>
		<path class="magazine0" d="M172,118.6c0,0.2,0,0.3-0.1,0.5c-0.7,3.4-4,5.6-7.3,4.9c-3.4-0.7-5.6-4-4.9-7.3c0.7-3.4,4-5.6,7.3-4.9
			c0.3,0.1,0.6,0.1,0.8,0.2l2.4-7.1c-0.6-0.2-1.2-0.4-1.8-0.5c-7.5-1.5-14.7,3.4-16.1,10.9c-1.5,7.5,3.4,14.7,10.9,16.1
			c7.5,1.5,14.7-3.4,16.1-10.9c0.1-0.3,0.1-0.7,0.1-1L172,118.6z"/>
		<circle class="magazine1" cx="157.7" cy="122.9" r="4.9"/>
	</g>
	<path class="magazine2" d="M162.2,38.4l-36.4,9.5l-5.5,117.7l35.5-12.7c0,0,4.9-13.2,8.9-55.7C168.7,54.6,162.2,38.4,162.2,38.4z"/>
	<g class="magazine3">
		<defs>
			<path id="SVGID_1_" class="magazine3" d="M162.2,38.4l-36.4,9.5l-5.5,117.7l35.5-12.7c0,0,4.9-13.2,8.9-55.7
				C168.7,54.6,162.2,38.4,162.2,38.4z"/>
		</defs>
		<clipPath id="SVGID_2_">
			<use xlink:href="#SVGID_1_"  style="overflow:visible;"/>
		</clipPath>
		<polygon class="magazine4" points="124.7,53.8 167.6,43.6 168.6,48.7 125.3,58.6 		"/>
		<polygon class="magazine4" points="126.6,63.9 169.5,53.8 168.6,55.4 125.4,65.4 		"/>
		<polygon class="magazine4" points="125.1,68.7 167.9,58.5 168.3,61.6 125,71.5 		"/>
		<polygon class="magazine4" points="126.7,74.3 169.6,64.2 170.6,69.3 127.3,79.2 		"/>
		<polygon class="magazine4" points="128.6,84.5 171.5,74.3 170.6,76 127.3,86 		"/>
		<polygon class="magazine4" points="127,89.3 169.9,79.1 170.3,82.2 127,92.1 		"/>
		<polygon class="magazine4" points="126.3,98.1 169.1,88 170.1,93.1 126.9,103 		"/>
		<polygon class="magazine4" points="128.2,108.3 171,98.1 170.1,99.8 126.9,109.8 		"/>
		<polygon class="magazine4" points="126.6,113 169.4,102.9 169.8,105.9 126.6,115.9 		"/>
		<polygon class="magazine4" points="123.7,120 166.6,109.8 167.6,114.9 124.3,124.8 		"/>
		<polygon class="magazine4" points="125.6,130.1 168.5,120 167.6,121.6 124.3,131.6 		"/>
		<polygon class="magazine4" points="124,134.9 166.9,124.7 167.3,127.8 124,137.7 		"/>
		<polygon class="magazine4" points="119.1,143.4 163.6,131.6 164.6,136.7 119.7,148.2 		"/>
		<polygon class="magazine4" points="122.7,151.9 165.5,139.1 164.6,140.7 121.4,153.4 		"/>
		<polygon class="magazine4" points="118.2,159.5 159.9,145.5 160.6,148.5 118.4,162.3 		"/>
	</g>
	<g>
		<circle class="magazine5" cx="12.1" cy="34.7" r="5"/>
		<path class="magazine6" d="M21.6,33"/>
		<path class="magazine6" d="M54.8,56.6c-5.6-13.3-13.5-19.2-20.7-21.7l-4.5,3.9l1.8-8.3l-3.4,3c-6.3-0.8-10.9,0.7-10.9,0.7"/>
	</g>
	<path class="magazine0" d="M55.7,49.7c-17.3,5-27.3,23.2-22.2,40.5l1.4,4.9l62.7-18.3l-1.4-4.9C91.2,54.6,73,44.6,55.7,49.7z"/>
	<circle class="magazine1" cx="62.1" cy="70.9" r="1.7"/>
	<circle class="magazine1" cx="72" cy="66.8" r="1.7"/>
	<g>
		<polygon class="magazine7" points="120.2,172.4 65.7,186.3 24.3,101.7 108.6,75.1 		"/>
		<g>
			<circle class="magazine8" cx="74.5" cy="115.8" r="19.8"/>

				<rect x="53.9" y="115.3" transform="matrix(-0.9443 0.329 -0.329 -0.9443 192.256 217.84)" class="magazine7" width="47.5" height="19.8"/>
			<g>
				<path class="magazine9" d="M56.6,107.2c-0.5,1.1-0.9,2.2-1.3,3.4c0,0.1,0,0.1-0.1,0.2c-0.1,0.5-0.2,1-0.3,1.6c0,0.1-0.1,0.2-0.1,0.3
					c-0.1,0.5-0.1,1-0.2,1.5c0,0.2,0,0.3,0,0.5c0,0.5,0,0.9,0,1.4c0,0.2,0,0.4,0,0.6c0,0.4,0.1,0.9,0.1,1.3c0,0.2,0,0.4,0.1,0.6
					c0.1,0.5,0.2,1,0.3,1.5c0,0.1,0,0.3,0.1,0.4c0.2,0.6,0.3,1.3,0.6,1.9l18.7-6.5L56.6,107.2z"/>
				<path class="magazine10" d="M67.9,97.1c-1.1,0.4-2.2,0.9-3.3,1.5c-0.1,0-0.1,0.1-0.2,0.1c-0.5,0.3-0.9,0.6-1.3,0.9
					c-0.1,0.1-0.2,0.1-0.3,0.2c-0.4,0.3-0.8,0.6-1.1,0.9c-0.1,0.1-0.3,0.2-0.4,0.3c-0.3,0.3-0.7,0.6-1,1c-0.1,0.1-0.3,0.3-0.4,0.4
					c-0.3,0.3-0.6,0.7-0.9,1c-0.1,0.2-0.3,0.3-0.4,0.5c-0.3,0.4-0.6,0.8-0.9,1.3c-0.1,0.1-0.1,0.2-0.2,0.3c-0.3,0.6-0.7,1.1-1,1.8
					l17.8,8.6L67.9,97.1z"/>
				<path class="magazine11" d="M83.1,98c1.1,0.5,2.1,1.2,3.1,1.9c0,0,0.1,0.1,0.1,0.1c0.4,0.3,0.8,0.7,1.2,1c0.1,0.1,0.2,0.1,0.3,0.2
					c0.4,0.3,0.7,0.7,1,1c0.1,0.1,0.2,0.2,0.3,0.4c0.3,0.3,0.6,0.7,0.9,1.1c0.1,0.2,0.3,0.3,0.4,0.5c0.3,0.4,0.5,0.7,0.7,1.1
					c0.1,0.2,0.2,0.3,0.3,0.5c0.3,0.4,0.5,0.9,0.7,1.4c0.1,0.1,0.1,0.2,0.2,0.3c0.3,0.6,0.5,1.2,0.8,1.8l-18.7,6.5L83.1,98z"/>
				<path class="magazine12" d="M67.9,97.1c1.1-0.4,2.3-0.7,3.5-0.9c0.1,0,0.1,0,0.2,0c0.5-0.1,1.1-0.1,1.6-0.2c0.1,0,0.2,0,0.4,0
					c0.5,0,1,0,1.5,0c0.2,0,0.3,0,0.5,0c0.5,0,0.9,0.1,1.4,0.1c0.2,0,0.4,0,0.6,0.1c0.4,0.1,0.9,0.2,1.3,0.3c0.2,0,0.4,0.1,0.6,0.1
					c0.5,0.1,1,0.3,1.5,0.5c0.1,0,0.2,0.1,0.4,0.1c0.6,0.2,1.2,0.5,1.8,0.8l-8.6,17.8L67.9,97.1z"/>
			</g>
			<path class="magazine8" d="M75.8,113.3c0.1,0.8-0.5,1.5-1.4,1.6c-0.8,0.1-1.5-0.5-1.6-1.4c-0.1-0.8,0.6-11.5,0.6-11.5
				S75.8,112.5,75.8,113.3z"/>
			<circle class="magazine0" cx="74.5" cy="115.8" r="4.7"/>
		</g>
	</g>
	<path class="magazine13" d="M125.8,47.8L75.8,26.1c0,0,5.6,28.6,3.1,55.1c-2.5,26.4-8.8,56.9-8.8,56.9l48.8,28.1l1.3-0.6
		c0,0,4.6-23.6,7.6-55.2C130.9,78.6,125.8,47.8,125.8,47.8L125.8,47.8z"/>
	<polygon class="magazine14" points="75.8,26.1 117,17.4 162.2,38.4 125.8,47.8 	"/>
	<polygon class="magazine8" points="130,78 146.1,73.8 142,79.5 	"/>
	<polygon class="magazine8" points="146.1,125.9 162.2,121.6 164.6,124.5 	"/>
	<polygon class="magazine8" points="144.6,94 160.7,89.7 156.6,95.5 	"/>
	<polygon class="magazine8" points="149.1,56.6 165.2,52.4 167.6,55.3 	"/>
	<g>
		<defs>
			<polygon id="SVGID_3_" points="162.2,38.4 125.8,47.8 75.8,26.1 117,17.4 			"/>
		</defs>
		<clipPath id="SVGID_4_">
			<use xlink:href="#SVGID_3_"  style="overflow:visible;"/>
		</clipPath>
		<path class="magazine15" d="M179.6,60.7l0.2,0l4.2-0.8c-0.9-1-2.3-2.1-4.3-3.1c-4.8-2.4-11.8-4.1-18.7-4.6l0.5,1.8
			c5.3,0.4,10.6,1.7,14.3,3.6C177.8,58.6,179,59.6,179.6,60.7z"/>
		<path class="magazine16" d="M194.2,61c3.4,1.9,2.5,3.9-2,4.6c-4.4,0.7-10.8-0.2-14.1-2.1c-3.4-1.9-2.5-3.9,2-4.6
			C184.5,58.2,190.8,59.1,194.2,61z"/>
		<path class="magazine17" d="M192,61.3c2.4,1.3,1.8,2.8-1.4,3.3c-3.2,0.5-7.8-0.2-10.2-1.5c-2.4-1.3-1.8-2.8,1.4-3.3
			C185,59.3,189.5,60,192,61.3z"/>
		<polygon class="magazine17" points="207.5,63.6 179.2,68.1 171.6,63.9 199.9,59.4 		"/>
		<path class="magazine15" d="M152.3,27.2c5.5,1.6,8.8,4,7.8,6.2c-0.9,1.9-4.9,3.1-10.1,3.2l1.5,1.6c6.7-0.1,11.9-1.6,13-4.1
			c1.3-2.8-3-5.9-10.1-8L152.3,27.2z"/>
		<path class="magazine15" d="M148.3,23.4c0.1,0,0.2,0,0.3,0c2.1,0.2,3.8,0.9,3.9,1.6c0.1,0.7-1.5,1.2-3.6,1c-2.1-0.2-3.8-0.9-3.9-1.6
			c0-0.1,0-0.1,0-0.2l-4.5-0.6c0,0.1-0.1,0.3,0,0.4c0.2,1.6,4.1,3.2,8.6,3.6c4.5,0.4,8.1-0.6,7.8-2.2c-0.2-1.6-4.1-3.2-8.6-3.6
			c-0.2,0-0.4,0-0.6,0L148.3,23.4z"/>
		<path class="magazine18" d="M154.9,25.9c1.2,0.5,1.2,1.1,0,1.4s-3,0.1-4.2-0.4s-1.2-1.1,0-1.4C151.9,25.3,153.7,25.4,154.9,25.9z"/>
		<path class="magazine15" d="M133.9,54.3c-6.1-1-11.2-3.2-12.2-5.6c-0.9-2.1,1.5-3.7,5.9-4.4l-2.7-1.5c-5.7,0.9-8.8,3-7.6,5.7
			c1.3,3,7.8,5.9,15.7,7.2L133.9,54.3z"/>
		<path class="magazine15" d="M142.3,57.4c-0.1,0-0.1,0-0.2,0c-1.7,0.2-4-0.1-5.2-0.8c-1.2-0.7-0.9-1.5,0.8-1.7c1.7-0.2,4,0.1,5.2,0.8
			c0.1,0.1,0.2,0.1,0.3,0.2l4-0.3c-0.2-0.1-0.4-0.3-0.6-0.4c-2.7-1.5-7.8-2.3-11.5-1.8c-3.7,0.5-4.5,2.2-1.8,3.8
			c2.7,1.5,7.8,2.3,11.5,1.8c0.2,0,0.3-0.1,0.5-0.1L142.3,57.4z"/>
		<path class="magazine18" d="M136.4,54.9c0.9,0.5,0.6,1.1-0.7,1.3c-1.3,0.2-3.2-0.1-4.1-0.6c-0.9-0.5-0.6-1.1,0.7-1.3
			C133.6,54,135.4,54.3,136.4,54.9z"/>
		<path class="magazine16" d="M190.7,61.5c1.9,1.1,1.4,2.2-1.1,2.6c-2.5,0.4-6.1-0.1-8-1.2c-1.9-1.1-1.4-2.2,1.1-2.6
			C185.2,60,188.8,60.5,190.7,61.5z"/>
		<path class="magazine19" d="M106.1,20.1c1.2,0.5,1.2,1.2,0,1.5c-1.2,0.3-3.1,0.1-4.2-0.4c-1.2-0.5-1.2-1.2,0-1.5
			C103,19.4,104.9,19.6,106.1,20.1z"/>
		<path class="magazine20" d="M102.7,22.4"/>
		<path class="magazine16" d="M115.6,30.9c-6.7-1.8-10.9-3.7-12.5-5.8l0-0.1l2-0.5l-5-0.2l2.4-0.6c-0.2-1.3,0.7-2.1,0.8-2.1l0.6,0.1
			c0,0-1,0.8-0.7,2.1l0,0l-1.3,0.3l5,0.2l-3,0.7c1.6,2,5.7,3.9,12.1,5.6L115.6,30.9z"/>
		<path class="magazine15" d="M113.9,30.1c-7.6,1.9-7.4,6.1,0.3,9.5l2.2,0.9l27.4-6.8l-2.2-0.9C133.9,29.5,121.5,28.2,113.9,30.1z"/>
		<path class="magazine18" d="M125.1,35.6c0.4,0.2,0.4,0.4,0,0.5c-0.4,0.1-1.1,0-1.5-0.1c-0.4-0.2-0.4-0.4,0-0.5
			C124,35.4,124.6,35.4,125.1,35.6z"/>
		<path class="magazine18" d="M129.8,34.4c0.4,0.2,0.4,0.4,0,0.5c-0.4,0.1-1.1,0-1.5-0.1c-0.4-0.2-0.4-0.4,0-0.5
			C128.8,34.2,129.4,34.2,129.8,34.4z"/>
		<polygon class="magazine16" points="183.7,52.6 159.2,58.1 112.8,42.5 149,32.9 		"/>
		<path class="magazine17" d="M135.3,45.3c-4.9-2-5.4-4.6-1-5.8s11.9-0.6,16.8,1.3s5.4,4.6,1,5.8C147.7,47.8,140.2,47.2,135.3,45.3z"/>
		<polygon class="magazine16" points="133.7,45.7 152.6,40.3 161.5,43.9 142.6,49.3 		"/>
		<g class="magazine21">
			<path class="magazine9" d="M131.3,42.1c0,0.3,0.2,0.5,0.3,0.8c0,0,0,0,0,0c0.1,0.1,0.2,0.2,0.3,0.3c0,0,0,0.1,0.1,0.1
				c0.1,0.1,0.2,0.2,0.3,0.3c0,0,0.1,0.1,0.1,0.1c0.1,0.1,0.3,0.2,0.4,0.3c0.1,0,0.1,0.1,0.2,0.1c0.1,0.1,0.3,0.2,0.5,0.3
				c0.1,0,0.1,0.1,0.2,0.1c0.2,0.1,0.4,0.2,0.6,0.3c0.1,0,0.1,0.1,0.1,0.1c0.3,0.1,0.6,0.3,0.9,0.4l7.9-2.2L131.3,42.1z"/>
			<path class="magazine10" d="M134.2,39.4c-0.5,0.1-0.9,0.3-1.3,0.5c0,0,0,0-0.1,0c-0.2,0.1-0.3,0.2-0.4,0.2c0,0-0.1,0-0.1,0.1
				c-0.1,0.1-0.2,0.2-0.3,0.2c0,0-0.1,0.1-0.1,0.1c-0.1,0.1-0.2,0.2-0.2,0.2c0,0-0.1,0.1-0.1,0.1c-0.1,0.1-0.1,0.2-0.2,0.3
				c0,0,0,0.1-0.1,0.1c0,0.1-0.1,0.2-0.1,0.3c0,0,0,0.1,0,0.1c0,0.1,0,0.3,0,0.4l11.9,0.9L134.2,39.4z"/>
			<path class="magazine22" d="M142.4,38.9c0.7,0.1,1.5,0.1,2.2,0.2c0,0,0.1,0,0.1,0c0.3,0,0.6,0.1,0.9,0.2c0.1,0,0.1,0,0.2,0
				c0.3,0.1,0.6,0.1,0.8,0.2c0.1,0,0.2,0,0.3,0.1c0.3,0.1,0.5,0.1,0.8,0.2c0.1,0,0.2,0.1,0.3,0.1c0.2,0.1,0.5,0.1,0.7,0.2
				c0.1,0,0.2,0.1,0.3,0.1c0.3,0.1,0.5,0.2,0.8,0.3c0.1,0,0.1,0,0.2,0.1c0.3,0.1,0.6,0.2,0.9,0.3l-7.9,2.2L142.4,38.9z"/>
			<path class="magazine12" d="M134.2,39.4c0.5-0.1,1-0.3,1.6-0.3c0,0,0.1,0,0.1,0c0.3,0,0.5-0.1,0.8-0.1c0.1,0,0.1,0,0.2,0
				c0.2,0,0.5,0,0.8-0.1c0.1,0,0.2,0,0.3,0c0.2,0,0.5,0,0.7,0c0.1,0,0.2,0,0.3,0c0.3,0,0.5,0,0.8,0c0.1,0,0.2,0,0.3,0
				c0.3,0,0.6,0,0.9,0c0.1,0,0.1,0,0.2,0c0.4,0,0.8,0,1.2,0.1l0.7,4.1L134.2,39.4z"/>
		</g>
		<path class="magazine17" d="M143.1,42.4c0.3,0.2,0.2,0.3-0.2,0.4s-1,0-1.2-0.2s-3.1-2.4-3.1-2.4S142.8,42.2,143.1,42.4z"/>
		<path class="magazine15" d="M145,42.5c1.2,0.5,1.3,1.1,0.2,1.4c-1,0.3-2.8,0.2-3.9-0.3c-1.2-0.5-1.3-1.1-0.2-1.4
			C142.1,41.9,143.8,42,145,42.5z"/>
	</g>
	<g>
		<path class="magazine8" d="M95.7,26.1c0.6-0.2,1.1-0.2,1.7-0.2c0.5,0,1,0.2,1.4,0.4c0.2,0.1,0.4,0.3,0.4,0.4c0,0.1,0,0.3-0.2,0.4
			c0.4,0,0.7,0,1,0c0.3,0.1,0.6,0.2,0.9,0.3l0.4,0.2c0.1,0.1,0.3,0.1,0.4,0.2c0.1,0,0.2,0,0.3,0l0.2,0l0.4,0.2l-0.4,0.1
			c-0.3,0.1-0.6,0.1-0.9,0c-0.3-0.1-0.6-0.2-0.8-0.3l-0.4-0.2c-0.3-0.1-0.5-0.2-0.9-0.3c-0.3,0-0.6,0-0.9,0.1l-1.2,0.3l1.6,0.9
			l0.7-0.1l0.4,0.2L98,29.3l-0.4-0.2l0.5-0.2l-3.7-2L93.7,27l-0.4-0.2l0.6-0.2L95.7,26.1z M96.7,27.6l0.9-0.3
			c0.4-0.1,0.6-0.2,0.7-0.4c0-0.1-0.1-0.3-0.3-0.4c-0.2-0.1-0.5-0.2-0.8-0.2c-0.3,0-0.7,0-1,0.1l-1,0.3L96.7,27.6z"/>
		<path class="magazine8" d="M101.4,26.9c-0.5-0.3-0.8-0.6-0.8-0.8c0-0.3,0.3-0.5,0.8-0.6c0.5-0.2,1.1-0.2,1.8-0.1
			c0.6,0.1,1.2,0.3,1.7,0.6l0.1,0c0.5,0.3,0.8,0.6,0.8,0.8c0,0.3-0.3,0.5-0.8,0.6c-0.5,0.2-1.1,0.2-1.8,0.1
			C102.5,27.4,102,27.2,101.4,26.9L101.4,26.9z M102.2,26.8c0.4,0.2,0.8,0.3,1.2,0.4c0.4,0.1,0.8,0.1,1.1,0c0.3-0.1,0.5-0.2,0.4-0.4
			c-0.1-0.2-0.3-0.4-0.6-0.6l-0.1,0c-0.4-0.2-0.8-0.3-1.2-0.4c-0.4-0.1-0.8-0.1-1.1,0c-0.3,0.1-0.5,0.2-0.4,0.4
			C101.5,26.3,101.7,26.5,102.2,26.8L102.2,26.8z"/>
		<path class="magazine8" d="M109.4,24.8c0.5,0.3,0.8,0.5,0.8,0.8c0,0.2-0.2,0.4-0.7,0.6c-0.3,0.1-0.5,0.1-0.8,0.1c-0.3,0-0.6,0-0.9-0.1
			l0.4,0.3l-0.6,0.2l-4.5-2.4l-0.7,0.1l-0.4-0.2l1.3-0.4l1.9,1.1c0-0.1,0-0.2,0.1-0.3c0.1-0.1,0.3-0.2,0.5-0.2c0.5-0.1,1-0.2,1.7,0
			C108.2,24.3,108.7,24.5,109.4,24.8L109.4,24.8z M108.6,25c-0.4-0.2-0.8-0.4-1.2-0.5c-0.4-0.1-0.8-0.1-1.1,0
			c-0.2,0.1-0.4,0.1-0.4,0.2c-0.1,0.1-0.1,0.2,0,0.3l1.5,0.8c0.2,0.1,0.5,0.1,0.7,0.1c0.2,0,0.5,0,0.7-0.1c0.3-0.1,0.5-0.2,0.4-0.4
			C109.2,25.4,109,25.2,108.6,25L108.6,25z"/>
		<path class="magazine8" d="M109.9,24.5c-0.5-0.3-0.8-0.6-0.8-0.8c0-0.3,0.3-0.5,0.8-0.6c0.5-0.2,1.1-0.2,1.8-0.1
			c0.6,0.1,1.2,0.3,1.7,0.6l0.1,0c0.5,0.3,0.8,0.6,0.8,0.8c0,0.3-0.3,0.5-0.8,0.6c-0.5,0.2-1.1,0.2-1.8,0.1
			C111.1,25,110.5,24.8,109.9,24.5L109.9,24.5z M110.7,24.4c0.4,0.2,0.7,0.3,1.2,0.4c0.4,0.1,0.8,0.1,1.1,0c0.3-0.1,0.5-0.2,0.4-0.4
			c-0.1-0.2-0.3-0.4-0.6-0.6l-0.1,0c-0.4-0.2-0.7-0.3-1.2-0.4c-0.4-0.1-0.8-0.1-1.1,0c-0.3,0.1-0.5,0.2-0.4,0.4
			C110.1,23.9,110.3,24.1,110.7,24.4L110.7,24.4z"/>
		<path class="magazine8" d="M112.9,21.6l0.8,0.5l0.8-0.2l0.5,0.3l-0.8,0.2l2.1,1.1c0.2,0.1,0.3,0.1,0.5,0.2c0.1,0,0.3,0,0.4,0
			c0.1,0,0.1,0,0.2-0.1s0.1-0.1,0.2-0.1l0.5,0.2c0,0-0.1,0.1-0.2,0.1s-0.2,0.1-0.4,0.1c-0.3,0.1-0.6,0.1-0.9,0.1
			c-0.3,0-0.6-0.1-1-0.3l-2.1-1.1l-0.6,0.2l-0.5-0.3l0.6-0.2l-0.8-0.5L112.9,21.6z"/>
		<path class="magazine8" d="M104.8,33.8l-0.4-0.2l0.5-0.2l-3.6-2l-0.7,0.1l-0.4-0.2l0.6-0.2l0.7-0.2l0.6-0.2l0.4,0.2l-0.5,0.2l3.6,2
			l1.8-0.5l-0.5-0.3l0.6-0.2l1,0.5L104.8,33.8z"/>
		<path class="magazine8" d="M108.8,32.3l0.5-0.2l-2.4-1.3l-0.7,0.1l-0.4-0.2l1.3-0.4l2.9,1.6l0.7-0.1l0.4,0.2l-1.9,0.5L108.8,32.3z
			 M106.3,29.9l-0.7,0.2l-0.6-0.3l0.7-0.2L106.3,29.9z"/>
		<path class="magazine8" d="M110,29.9l-0.4,0.2l2.7,0.8l0.3,0.1l0,0l-0.2-0.2l-1.1-1.3l-0.5,0.1l-0.4-0.2L112,29l0.4,0.2l-0.3,0.1l1.6,2
			l-0.5,0.2l-4.3-1.2l-0.4,0.1l-0.4-0.2l1.5-0.4L110,29.9z"/>
		<path class="magazine8" d="M115.4,30.5l0.5-0.2l-2.4-1.3l-0.7,0.1l-0.4-0.2l1.3-0.4l2.9,1.6l0.7-0.1l0.4,0.2l-1.9,0.5L115.4,30.5z
			 M112.9,28l-0.7,0.2l-0.6-0.3l0.7-0.2L112.9,28z"/>
		<path class="magazine8" d="M117.8,29.8l0.5-0.2l-2.4-1.3l-0.7,0.1l-0.4-0.2l1.2-0.3l0.6,0.3c0-0.1,0-0.3,0.1-0.4
			c0.1-0.1,0.3-0.2,0.5-0.3c0.4-0.1,0.9-0.2,1.3-0.1c0.4,0.1,0.9,0.2,1.3,0.4l1.6,0.9l0.7-0.1l0.4,0.2l-1.9,0.5l-0.4-0.2l0.5-0.2
			l-1.6-0.9c-0.3-0.2-0.6-0.3-0.8-0.3c-0.3,0-0.5,0-0.8,0.1c-0.2,0.1-0.3,0.1-0.4,0.2c-0.1,0.1-0.1,0.2,0,0.3l2,1.1l0.7-0.1l0.4,0.2
			l-1.9,0.5L117.8,29.8z"/>
		<path class="magazine8" d="M121.4,27.8c-0.5-0.3-0.8-0.6-0.9-0.8c-0.1-0.3,0.2-0.5,0.6-0.6c0.2-0.1,0.5-0.1,0.8-0.1c0.3,0,0.5,0,0.8,0.1
			l-0.4-0.3l0.6-0.2l3.3,1.8c0.4,0.2,0.6,0.5,0.6,0.7c0,0.2-0.3,0.4-0.8,0.5c-0.2,0.1-0.4,0.1-0.7,0.1c-0.3,0-0.5,0.1-0.8,0.1
			l-0.3-0.3c0.2,0,0.4,0,0.6-0.1c0.2,0,0.4-0.1,0.6-0.1c0.3-0.1,0.5-0.2,0.5-0.3c0-0.1-0.1-0.3-0.4-0.4l-0.3-0.2
			c0,0.1,0,0.2-0.1,0.3c-0.1,0.1-0.3,0.2-0.5,0.2c-0.5,0.1-1,0.2-1.6,0.1C122.4,28.3,121.9,28.1,121.4,27.8L121.4,27.8z M122.2,27.6
			c0.3,0.2,0.7,0.3,1.1,0.4c0.4,0.1,0.7,0.1,1.1,0c0.2-0.1,0.4-0.1,0.4-0.2c0.1-0.1,0.1-0.2,0-0.3l-1.5-0.9
			c-0.2-0.1-0.5-0.1-0.7-0.1c-0.2,0-0.5,0-0.7,0.1c-0.3,0.1-0.5,0.2-0.4,0.4C121.5,27.2,121.7,27.4,122.2,27.6L122.2,27.6z"/>
	</g>
	<g class="magazine23">
		<defs>
			<path id="SVGID_5_" class="magazine23" d="M75.8,26.1c0,0,5.6,28.6,3.1,55.1c-2.5,26.4-8.8,56.9-8.8,56.9l48.8,28.1l1.3-0.6
				c0,0,4.6-23.6,7.6-55.2c3-31.7-2.1-62.4-2.1-62.4L75.8,26.1z"/>
		</defs>
		<clipPath id="SVGID_6_">
			<use xlink:href="#SVGID_5_"  style="overflow:visible;"/>
		</clipPath>
		<g class="magazine24">
			<polygon class="magazine14" points="138.3,60.4 59.5,25.2 58.5,30.3 137.8,65.3 			"/>
			<polygon class="magazine14" points="136.4,70.6 57.6,35.4 58.5,37 137.7,72 			"/>
			<polygon class="magazine14" points="138,75.3 59.2,42.2 58.8,45.2 138.1,78.2 			"/>
			<polygon class="magazine14" points="136.4,81 57.5,47.8 56.5,52.9 135.8,85.9 			"/>
			<polygon class="magazine14" points="134.5,91.1 55.6,58 56.5,59.6 135.8,92.6 			"/>
			<polygon class="magazine14" points="136.1,95.9 57.2,62.7 56.8,65.8 136.1,98.7 			"/>
			<polygon class="magazine14" points="136.8,104.8 58,71.6 57,76.7 136.2,109.6 			"/>
			<polygon class="magazine14" points="134.9,114.9 56.1,81.8 57,83.4 136.2,116.4 			"/>
			<polygon class="magazine14" points="136.5,121.7 57.7,86.5 57.3,89.6 136.5,124.5 			"/>
			<polygon class="magazine14" points="139.4,128.6 60.5,93.4 59.5,98.5 138.8,133.5 			"/>
			<polygon class="magazine14" points="137.5,139.8 58.6,103.6 59.5,105.2 138.8,141.2 			"/>
			<polygon class="magazine14" points="139.1,144.5 60.2,108.4 59.8,111.4 139.1,147.4 			"/>
			<polygon class="magazine14" points="144,153 63.5,115.2 62.5,120.3 143.4,157.9 			"/>
			<polygon class="magazine14" points="140.4,162.5 61.6,122.7 62.5,124.3 141.7,164 			"/>
			<polygon class="magazine14" points="144.9,170.1 67.2,129.2 66.5,132.2 144.7,173 			"/>
		</g>
	</g>
	<polygon class="magazine2" points="92.4,55.1 79,50.9 75.8,56.6 	"/>
	<polygon class="magazine2" points="123.1,78 107,73.8 111.1,79.5 	"/>
	<polygon class="magazine2" points="99,108.6 82.9,104.3 87,110.1 	"/>
	<polygon class="magazine2" points="87.4,123.7 74,119.5 70.8,125.2 	"/>
	<path class="magazine0" d="M80.8,136.8c-7.8,7-19.4,8.8-29.2,3.6c-8.5-4.5-13.5-13.1-13.8-22.1c0-0.2,0.1-0.3,0.1-0.5
		c0-2.1-1.7-3.8-3.8-3.8s-3.8,1.7-3.8,3.8c0,0,0,0,0,0.1l0,0c0.1,11.8,6.6,23.2,17.8,29.1c12.6,6.6,27.6,4.3,37.6-4.7L80.8,136.8z"
		/>
	<g>
		<path class="magazine0" d="M97.9,132c0,0.2,0,0.3,0,0.5c0,3.5-2.9,6.2-6.3,6.2c-3.5,0-6.2-2.9-6.2-6.3c0-3.5,2.9-6.2,6.3-6.2
			c0.3,0,0.6,0,0.9,0.1l1.1-7.4c-0.6-0.1-1.3-0.2-1.9-0.2c-7.6-0.1-13.8,6-13.9,13.6c-0.1,7.6,6,13.8,13.6,13.9
			c7.6,0.1,13.8-6,13.9-13.6c0-0.3,0-0.7,0-1L97.9,132z"/>
		<circle class="magazine1" cx="84.3" cy="139.1" r="4.9"/>
	</g>
	<path class="magazine0" d="M100.2,179.8l-8.4,2.1c0,3.7-0.8,7.6-2.3,11.2c-1.6,3.7-3.8,6.9-6.5,9.5c1.5,0.3,2.9,0.7,4.3,1.4
		c1.4,0.7,2.6,1.5,3.7,2.4c2.6-2.9,4.7-6.3,6.3-10.1C99.6,191,100.5,185.3,100.2,179.8z"/>
	<g>
		<path class="magazine7" d="M71.9,209.2c3.5-4.4,9.6-5.9,14.8-3.4c5.2,2.5,7.8,8.4,6.5,13.8l4.3,2.1c2.4-7.8-1.1-16.4-8.7-20.1
			c-7.6-3.7-16.5-1.2-21.2,5.5L71.9,209.2z"/>
		<path class="magazine7" d="M77.2,225.2c-4.7-2.3-6.7-8-4.4-12.7c2.3-4.7,8-6.7,12.7-4.4c4.7,2.3,6.7,8,4.4,12.7
			C87.6,225.6,81.9,227.6,77.2,225.2"/>
	</g>
</g>
</svg>
