<?xml version="1.0" encoding="utf-8"?>
<!-- Generator: Adobe Illustrator 19.0.1, SVG Export Plug-In . SVG Version: 6.00 Build 0)  -->
<svg version="1.1" id="Layer_1" xmlns="http://www.w3.org/2000/svg" xmlns:xlink="http://www.w3.org/1999/xlink" x="0px" y="0px"
	 width="188.3px" height="226.2px" viewBox="0 0 188.3 226.2" style="enable-background:new 0 0 188.3 226.2;" xml:space="preserve"
	>
<style type="text/css">
	.business0{fill:#E5E5E5;}
	.business1{fill:#969696;}
	.business2{fill:#EA6361;}
	.business3{fill:none;stroke:#C4C4C3;stroke-miterlimit:10;}
	.business4{fill:#C4C4C3;}
	.business5{fill:#FFFFFF;}
	.business6{fill:none;}
	.business7{fill:#59918E;}
	.business8{opacity:0.49;fill:#62AAAC;}
	.business9{fill:#62AAAC;}
	.business10{fill:none;stroke:#59918E;stroke-width:5;stroke-miterlimit:10;}
	.business11{opacity:0.5;fill:#59918E;}
</style>
<g>
	<path class="business0" d="M81.9,191.8c-0.4,4.1-1.6,8-3.5,11.4c1.7-0.3,3.5-0.4,5.4-0.1c1.3,0.2,2.5,0.5,3.6,1c1.5-3.6,2.6-7.4,3-11.5
		c0.3-3.2,0.2-6.4-0.3-9.4l-8.7-0.3C82,185.7,82.2,188.7,81.9,191.8z"/>
	<path class="business0" d="M152.6,106.7c-4.9-9.5-13.7-15.6-23.5-17.4l-1.3,7.3c7.5,1.4,14.3,6.1,18.1,13.5c5.1,9.8,3.2,21.4-3.8,29.2
		l5.5,5C156.8,134.3,159.2,119.4,152.6,106.7z"/>
	<path class="business0" d="M142.7,156.8c0.1-0.1,0.3-0.1,0.4-0.2c3-1.7,4.2-5.5,2.5-8.5c-1.7-3-5.5-4.2-8.5-2.5c-3,1.7-4.2,5.5-2.5,8.5
		c0.1,0.3,0.3,0.5,0.5,0.7l-6,4.4c-0.4-0.5-0.7-1-1-1.6c-3.6-6.7-1.2-15,5.5-18.6c6.7-3.6,15-1.2,18.6,5.5c3.6,6.7,1.2,15-5.5,18.6
		c-0.3,0.2-0.6,0.3-0.9,0.4L142.7,156.8z"/>
	<circle class="business1" cx="144.3" cy="142.6" r="4.9"/>
	<g>
		<circle class="business2" cx="101.6" cy="5" r="5"/>
		<path class="business3" d="M93.4,10"/>
		<path class="business4" d="M83.7,49.8c-4-11.7-3.6-22,1.2-30.4l0.1-0.3l4.7,0l-6.8-5l5.8,0c4.2-4.6,8.5-6.6,8.7-6.6l0.4,0.9
			c0,0-4.4,2-8.5,6.6l-0.1,0.2l-3.2,0l6.8,5l-7.2,0c-4.5,8.1-4.8,18-1,29.3L83.7,49.8z"/>
	</g>
	<path class="business0" d="M83.6,45.8c-18,0-32.7,14.6-32.7,32.7v5.1h65.3v-5.1C116.3,60.4,101.6,45.8,83.6,45.8z"/>
	<circle class="business1" cx="79.7" cy="74" r="1.7"/>
	<circle class="business1" cx="91.1" cy="74" r="1.7"/>
	<g>
		<polygon class="business4" points="56.2,178.3 40.7,88.5 125.5,86.6 109.9,180.2 		"/>
		<path class="business4" d="M123.7,88.1l-15,90.5l-51.2-1.8l-15-86.9L123.7,88.1 M127.2,85l-88.3,2l16,92.7l56.3,2L127.2,85L127.2,85z"/>
	</g>
	<path class="business4" d="M76.4,81.9c-4.3,0-7.8-3.5-7.8-7.9c0-4.3,3.5-7.8,7.8-7.8c4.3,0,7.9,3.5,7.9,7.8
		C84.3,78.4,80.8,81.9,76.4,81.9z M76.4,68.2c-3.2,0-5.8,2.6-5.8,5.8s2.6,5.9,5.8,5.9s5.9-2.6,5.9-5.9S79.7,68.2,76.4,68.2z"/>
	<path class="business4" d="M91.1,80.8c-4.3,0-7.9-3.5-7.9-7.9c0-4.3,3.5-7.8,7.9-7.8c4.3,0,7.8,3.5,7.8,7.8
		C98.9,77.3,95.4,80.8,91.1,80.8z M91.1,67.1c-3.2,0-5.9,2.6-5.9,5.8s2.6,5.9,5.9,5.9s5.8-2.6,5.8-5.9S94.3,67.1,91.1,67.1z"/>
	<path class="business4" d="M98,69.9l-0.9-1.8c6.3-3.2,11.9-4.5,17.9-3.9l-0.2,2C109.2,65.7,104,66.8,98,69.9z"/>
	<path class="business4" d="M68.8,72c-0.2-0.2-4.9-5.6-16-4.1l-0.3-2c12.3-1.6,17.6,4.6,17.8,4.8L68.8,72l0.8-0.6L68.8,72z"/>
	<polygon class="business5" points="107.2,181.6 112.4,174.3 112.8,172.1 106,181.5 	"/>
	<polygon class="business5" points="101.7,181.4 114.1,164.1 114.5,161.8 100.5,181.3 	"/>
	<polygon class="business5" points="96.1,181.2 115.8,153.8 116.2,151.6 94.9,181.1 	"/>
	<polygon class="business5" points="90.6,181 117.5,143.6 117.9,141.4 89.4,180.9 	"/>
	<polygon class="business5" points="119.2,133.4 119.6,131.1 83.9,180.7 85.1,180.8 	"/>
	<polygon class="business5" points="79.6,180.6 120.9,123.1 121.3,120.9 78.4,180.5 	"/>
	<polygon class="business5" points="74,180.4 122.6,112.9 123,110.7 72.8,180.4 	"/>
	<polygon class="business5" points="68.5,180.2 124.3,102.7 124.7,100.5 67.3,180.2 	"/>
	<polygon class="business5" points="63,180 126,92.4 126.4,90.2 61.8,180 	"/>
	<polygon class="business5" points="125.7,85.1 124.4,85.1 56.2,179.8 57.4,179.8 	"/>
	<polygon class="business5" points="54.3,176.2 119.9,85.2 118.7,85.2 54.1,174.9 	"/>
	<polygon class="business5" points="53.2,169.9 114.1,85.3 112.9,85.3 53,168.5 	"/>
	<polygon class="business5" points="52.2,163.5 108.4,85.4 107.1,85.5 51.9,162.2 	"/>
	<polygon class="business5" points="51.1,157.2 102.6,85.6 101.4,85.6 50.8,155.8 	"/>
	<polygon class="business5" points="50,150.8 96.9,85.7 95.6,85.7 49.7,149.5 	"/>
	<polygon class="business5" points="48.9,144.5 91.1,85.8 89.8,85.9 48.6,143.1 	"/>
	<polygon class="business5" points="47.8,138.1 85.3,86 84.1,86 47.5,136.8 	"/>
	<polygon class="business5" points="46.7,131.8 79.6,86.1 78.3,86.1 46.4,130.4 	"/>
	<polygon class="business5" points="45.6,125.4 73.8,86.2 72.6,86.3 45.3,124.1 	"/>
	<polygon class="business5" points="44.5,119.1 68,86.4 66.8,86.4 44.2,117.7 	"/>
	<polygon class="business5" points="43.4,112.8 62.3,86.5 61,86.5 43.1,111.4 	"/>
	<polygon class="business5" points="42.3,106.4 56.5,86.6 55.3,86.6 42,105 	"/>
	<polygon class="business5" points="41.2,100.1 50.8,86.7 49.5,86.8 40.9,98.7 	"/>
	<polygon class="business5" points="40.1,93.7 45,86.9 43.7,86.9 39.8,92.3 	"/>
	<polygon class="business6" points="111.2,181.7 55,179.7 38.9,87 127.2,85 	"/>
	<g>
		<path class="business4" d="M124.9,87.1l-15.4,92.6l-52.9-1.9L41.3,89L124.9,87.1 M127.2,85l-88.3,2l16,92.7l56.3,2L127.2,85L127.2,85z"
			/>
	</g>
	<g>
		<polygon class="business7" points="82.1,161.7 93.3,151.2 81.2,85.5 81.2,85.5 81.2,85.5 81.2,85.5 81.2,85.5 70.6,151.4 82.1,161.7
			82.1,161.7 82.1,161.7 82.1,161.7 		"/>
		<polyline class="business8" points="82.1,161.7 82.1,161.7 82.1,161.7 82.1,161.7 82.1,161.7 93.3,151.2 81.2,85.5 81.2,85.5 81.2,85.5
			81.2,85.5 81.2,85.5 		"/>
	</g>
	<polygon class="business9" points="87.8,101.1 74.8,100.7 71.3,84.7 92.4,85.4 	"/>
	<polygon class="business10" points="150.2,171 123.3,169.6 121.8,149.2 154.8,150.7 	"/>
	<polygon class="business9" points="171.2,204.9 102.1,203.5 99.6,157.7 174.5,159.1 	"/>
	<polygon class="business11" points="171.2,204.9 102.1,203.5 99.6,157.7 174.5,159.1 	"/>
	<polyline class="business9" points="102.1,203.5 99.6,157.7 174.5,159.1 	"/>
	<path class="business0" d="M128,157.6c0.3,0.6,0.7,1.1,1,1.6l6-4.4c-0.2-0.2-0.3-0.5-0.5-0.7c-1.6-2.9-0.6-6.4,2.1-8.2l-2.5-7.2
		c-0.2,0.1-0.4,0.2-0.7,0.3C126.9,142.6,124.4,150.9,128,157.6z"/>
	<g>
		<path class="business0" d="M39.8,106.2c-3.3-1.3-6.3-3.3-8.9-5.9c-7.8-7.9-9.4-19.5-5-29l-6.8-3.2c-5.7,12.2-3.6,27.2,6.4,37.4
			c4.5,4.6,9.9,7.5,15.7,9L39.8,106.2z"/>
		<path class="business0" d="M25.6,53.6c-0.2,0-0.3,0.1-0.5,0.1c-3.3,1-5.1,4.5-4.1,7.8c1,3.3,4.5,5.1,7.8,4.1c3.3-1,5.1-4.5,4.1-7.8
			c-0.1-0.3-0.2-0.6-0.3-0.8l6.8-3.2c0.3,0.6,0.5,1.2,0.7,1.8c2.3,7.2-1.8,15-9,17.2c-7.2,2.3-15-1.8-17.2-9c-2.3-7.2,1.8-15,9-17.2
			c0.3-0.1,0.7-0.2,1-0.3L25.6,53.6z"/>
		<circle class="business1" cx="22.8" cy="68.7" r="4.9"/>
	</g>
	<path class="business4" d="M70,212.4c2-5.2,7.4-8.6,13.1-7.7c5.7,0.9,9.9,5.6,10.3,11.2l4.7,0.7c0-8.2-6-15.3-14.3-16.5
		c-8.3-1.2-16.1,3.8-18.5,11.6L70,212.4z"/>
	<circle class="business4" cx="81.3" cy="216.7" r="9.5"/>
</g>
</svg>
