<?xml version="1.0" encoding="utf-8"?>
<!-- Generator: Adobe Illustrator 19.0.1, SVG Export Plug-In . SVG Version: 6.00 Build 0)  -->
<svg version="1.1" id="Layer_1" xmlns="http://www.w3.org/2000/svg" xmlns:xlink="http://www.w3.org/1999/xlink" x="0px" y="0px"
	 viewBox="0 0 172.3 208.8" style="enable-background:new 0 0 172.3 208.8;" xml:space="preserve" aria-hidden="true">
<style type="text/css">
	.magazine0{fill:#E5E5E5;}
	.magazine1{fill:#C4C4C3;}
	.magazine2{fill:#FFFFFF;}
	.magazine3{fill:#969696;}
	.magazine4{fill:#39C3DE;}
	.magazine5{fill:none;stroke:#C4C4C3;stroke-miterlimit:10;}
	.magazine6{fill:#C82027;}
	.magazine7{fill:#F3D41A;}
	.magazine8{fill:#A1C63A;}
	.magazine9{fill:#C3DB66;}
	.magazine10{fill:#A4B554;}
	.magazine11{fill:#EAE0CC;}
	.magazine12{clip-path:url(#SVGID_2_);fill:#E5E5E5;}
	.magazine13{clip-path:url(#SVGID_2_);fill:#C4C4C3;}
	.magazine14{clip-path:url(#SVGID_2_);fill:#FFFFFF;}
	.magazine15{clip-path:url(#SVGID_2_);fill:#969696;}
	.magazine16{clip-path:url(#SVGID_2_);fill:#39C3DE;}
	.magazine17{clip-path:url(#SVGID_2_);fill:none;stroke:#C4C4C3;stroke-miterlimit:10;}
	.magazine18{clip-path:url(#SVGID_2_);fill:#C3DB66;}
	.magazine19{clip-path:url(#SVGID_2_);}
	.magazine20{opacity:0.6;}
	.magazine21{clip-path:url(#SVGID_4_);fill:#D7C7A3;}
	.magazine22{clip-path:url(#SVGID_6_);fill:#E5E5E5;}
	.magazine23{clip-path:url(#SVGID_6_);fill:#C4C4C3;}
	.magazine24{clip-path:url(#SVGID_6_);fill:#FFFFFF;}
	.magazine25{clip-path:url(#SVGID_6_);fill:#969696;}
	.magazine26{clip-path:url(#SVGID_6_);fill:#39C3DE;}
	.magazine27{clip-path:url(#SVGID_6_);fill:none;stroke:#C4C4C3;stroke-miterlimit:10;}
	.magazine28{clip-path:url(#SVGID_6_);}
	.magazine29{opacity:0.4;}
	.magazine30{clip-path:url(#SVGID_8_);}
	.magazine31{fill:#E0D4B9;}
	.magazine32{fill:none;}
	.magazine33{fill:#F06A66;}
	.magazine34{fill:#E28888;}
	.magazine35{fill:#EFE4A6;}
	.magazine36{fill:#AFBB87;}
	.magazine37{fill:#509EA3;}
	.magazine38{fill:#95BEC0;}
	.magazine39{fill:#8CCED8;}
	.magazine40{fill:#001833;}
	.magazine41{fill:#4B9DA1;}
	.magazine42{fill:#418788;}
	.magazine43{fill:#BC4926;}
	.magazine44{fill:#C8E2E1;}
	.magazine45{fill:#D45334;}
</style>
<path class="magazine0" d="M-228.9,445l0.1,0.2l8.4,3.6c3.5-3.4,6.4-7.5,8.4-12.3c4.8-11.4,3.6-23.9-2.3-33.9l-7.1,4.6
	c4.4,7.7,5.3,17.2,1.6,26C-221.8,438.1-225,442.1-228.9,445z"/>
<path class="magazine1" d="M-235.2,471.9c-8.3-4.1-11.8-14.1-7.7-22.5c4.1-8.3,14.1-11.8,22.5-7.7c8.3,4.1,11.8,14.1,7.7,22.5
	C-216.8,472.5-226.9,476-235.2,471.9"/>
<path class="magazine2" d="M-233.2,467.7c-6-2.9-8.5-10.2-5.6-16.2c2.9-6,10.2-8.5,16.2-5.6c6,2.9,8.5,10.2,5.6,16.2
	C-219.9,468.2-227.2,470.7-233.2,467.7"/>
<rect x="-240.8" y="434.8" transform="matrix(-0.4386 0.8987 -0.8987 -0.4386 85.9442 875.1119)" class="magazine2" width="21" height="59.2"/>
<g>
	<path class="magazine0" d="M-155,361.2c-7.1,7.7-18.5,10.6-28.7,6.4c-9.1-3.7-14.9-12-15.9-21.2l-7.4,0.8c1.2,11.8,8.8,22.5,20.5,27.3
		c13.2,5.4,27.9,1.7,37-8.2L-155,361.2z"/>
	<path class="magazine0" d="M-137.3,358.8c0,0.2,0,0.3-0.1,0.5c-0.7,3.4-4,5.6-7.3,4.9s-5.6-4-4.9-7.3c0.7-3.4,4-5.6,7.3-4.9
		c0.3,0.1,0.6,0.1,0.8,0.2l2.4-7.1c-0.6-0.2-1.2-0.4-1.8-0.5c-7.5-1.5-14.7,3.4-16.1,10.9c-1.5,7.5,3.4,14.7,10.9,16.1
		c7.5,1.5,14.7-3.4,16.1-10.9c0.1-0.3,0.1-0.7,0.1-1L-137.3,358.8z"/>
	<circle class="magazine3" cx="-151.5" cy="363" r="4.9"/>
</g>
<path class="magazine1" d="M-232,465.4c-4.7-2.3-6.7-8-4.4-12.7c2.3-4.7,8-6.7,12.7-4.4c4.7,2.3,6.7,8,4.4,12.7
	C-221.6,465.7-227.3,467.7-232,465.4"/>
<g>
	<circle class="magazine4" cx="-297.2" cy="274.8" r="5"/>
	<path class="magazine5" d="M-287.6,273.1"/>
	<path class="magazine5" d="M-254.5,296.8c-5.6-13.3-13.5-19.2-20.7-21.7l-4.5,3.9l1.8-8.3l-3.4,3c-6.3-0.8-10.9,0.7-10.9,0.7"/>
</g>
<path class="magazine0" d="M-253.6,289.8c-17.3,5-27.3,23.2-22.2,40.5l1.4,4.9l62.7-18.3l-1.4-4.9C-218.1,294.7-236.2,284.7-253.6,289.8z"
	/>
<circle class="magazine3" cx="-246.2" cy="309.1" r="1.7"/>
<circle class="magazine3" cx="-240.3" cy="306.9" r="1.7"/>
<g>
	<polygon class="magazine2" points="-186.9,414.2 -244.5,428.9 -288.4,340.6 -198.4,312.3 	"/>
	<g>
		<polygon class="magazine1" points="-189,412.6 -243.6,426.4 -284.9,341.9 -200.7,315.2 		"/>
		<g>
			<circle class="magazine2" cx="-234.8" cy="355.9" r="19.8"/>

				<rect x="-255.3" y="355.4" transform="matrix(-0.9443 0.329 -0.329 -0.9443 -330.0666 786.4661)" class="magazine1" width="47.5" height="19.8"/>
			<g>
				<path class="magazine6" d="M-252.7,347.3c-0.5,1.1-0.9,2.2-1.3,3.4c0,0.1,0,0.1-0.1,0.2c-0.1,0.5-0.2,1-0.3,1.6c0,0.1-0.1,0.2-0.1,0.3
					c-0.1,0.5-0.1,1-0.2,1.5c0,0.2,0,0.3,0,0.5c0,0.5,0,0.9,0,1.4c0,0.2,0,0.4,0,0.6c0,0.4,0.1,0.9,0.1,1.3c0,0.2,0,0.4,0.1,0.6
					c0.1,0.5,0.2,1,0.3,1.5c0,0.1,0,0.3,0.1,0.4c0.2,0.6,0.3,1.3,0.6,1.9l18.7-6.5L-252.7,347.3z"/>
				<path class="magazine7" d="M-241.4,337.2c-1.1,0.4-2.2,0.9-3.3,1.5c-0.1,0-0.1,0.1-0.2,0.1c-0.5,0.3-0.9,0.6-1.3,0.9
					c-0.1,0.1-0.2,0.1-0.3,0.2c-0.4,0.3-0.8,0.6-1.1,0.9c-0.1,0.1-0.3,0.2-0.4,0.3c-0.3,0.3-0.7,0.6-1,1c-0.1,0.1-0.3,0.3-0.4,0.4
					c-0.3,0.3-0.6,0.7-0.9,1c-0.1,0.2-0.3,0.3-0.4,0.5c-0.3,0.4-0.6,0.8-0.9,1.3c-0.1,0.1-0.1,0.2-0.2,0.3c-0.3,0.6-0.7,1.1-1,1.8
					l17.8,8.6L-241.4,337.2z"/>
				<path class="magazine4" d="M-226.2,338.1c1.1,0.5,2.1,1.2,3.1,1.9c0,0,0.1,0.1,0.1,0.1c0.4,0.3,0.8,0.7,1.2,1c0.1,0.1,0.2,0.1,0.3,0.2
					c0.4,0.3,0.7,0.7,1,1c0.1,0.1,0.2,0.2,0.3,0.4c0.3,0.3,0.6,0.7,0.9,1.1c0.1,0.2,0.3,0.3,0.4,0.5c0.3,0.4,0.5,0.7,0.7,1.1
					c0.1,0.2,0.2,0.3,0.3,0.5c0.3,0.4,0.5,0.9,0.7,1.4c0.1,0.1,0.1,0.2,0.2,0.3c0.3,0.6,0.5,1.2,0.8,1.8l-18.7,6.5L-226.2,338.1z"/>
				<path class="magazine8" d="M-241.4,337.2c1.1-0.4,2.3-0.7,3.5-0.9c0.1,0,0.1,0,0.2,0c0.5-0.1,1.1-0.1,1.6-0.2c0.1,0,0.2,0,0.4,0
					c0.5,0,1,0,1.5,0c0.2,0,0.3,0,0.5,0c0.5,0,0.9,0.1,1.4,0.1c0.2,0,0.4,0,0.6,0.1c0.4,0.1,0.9,0.2,1.3,0.3c0.2,0,0.4,0.1,0.6,0.1
					c0.5,0.1,1,0.3,1.5,0.5c0.1,0,0.2,0.1,0.4,0.1c0.6,0.2,1.2,0.5,1.8,0.8l-8.6,17.8L-241.4,337.2z"/>
			</g>
			<path class="magazine2" d="M-233.5,353.4c0.1,0.8-0.5,1.5-1.4,1.6c-0.8,0.1-1.5-0.5-1.6-1.4c-0.1-0.8,0.6-11.5,0.6-11.5
				S-233.5,352.6-233.5,353.4z"/>
			<circle class="magazine0" cx="-234.8" cy="355.9" r="4.7"/>
		</g>
	</g>
</g>
<g>
	<g>
		<g>
			<polygon class="magazine9" points="-141.5,396.4 -177.4,413.6 -232,390.3 -196,373.1 			"/>
			<polygon class="magazine10" points="-177.4,413.6 -232,390.3 -232,392 -177.4,415.3 			"/>
			<polygon class="magazine11" points="-177.4,413.6 -141.5,396.4 -141.5,398.1 -177.4,415.3 			"/>
		</g>
		<g>
			<polygon class="magazine9" points="-141.5,393.8 -177.4,410.9 -232,387.7 -196,370.5 			"/>
			<polygon class="magazine10" points="-177.4,410.9 -232,387.7 -232,389.4 -177.4,412.7 			"/>
			<polygon class="magazine11" points="-177.4,410.9 -141.5,393.8 -141.5,395.5 -177.4,412.7 			"/>
		</g>
		<g>
			<polygon class="magazine9" points="-140.6,391.2 -176.5,408.3 -231.1,385 -195.2,367.9 			"/>
			<polygon class="magazine10" points="-176.5,408.3 -231.1,385 -231.1,386.8 -176.5,410.1 			"/>
			<polygon class="magazine11" points="-176.5,408.3 -140.6,391.2 -140.6,392.9 -176.5,410.1 			"/>
		</g>
		<g>
			<polygon class="magazine9" points="-139.7,388.6 -175.7,405.7 -230.2,382.4 -194.3,365.3 			"/>
			<polygon class="magazine10" points="-175.7,405.7 -230.2,382.4 -230.2,384.2 -175.7,407.4 			"/>
			<polygon class="magazine11" points="-175.7,405.7 -139.7,388.6 -139.7,390.3 -175.7,407.4 			"/>
		</g>
		<g>
			<polygon class="magazine9" points="-139.7,385.9 -175.7,403.1 -230.2,379.8 -194.3,362.7 			"/>
			<polygon class="magazine10" points="-175.7,403.1 -230.2,379.8 -230.2,381.5 -175.7,404.8 			"/>
			<polygon class="magazine11" points="-175.7,403.1 -139.7,385.9 -139.7,387.7 -175.7,404.8 			"/>
		</g>
		<g>
			<polygon class="magazine9" points="-140.6,383.3 -176.5,400.5 -231.1,377.2 -195.2,360 			"/>
			<polygon class="magazine10" points="-176.5,400.5 -231.1,377.2 -231.1,378.9 -176.5,402.2 			"/>
			<polygon class="magazine11" points="-176.5,400.5 -140.6,383.3 -140.6,385.1 -176.5,402.2 			"/>
		</g>
		<g>
			<polygon class="magazine9" points="-141.5,380.7 -177.4,397.9 -232,374.6 -196,357.4 			"/>
			<polygon class="magazine10" points="-177.4,397.9 -232,374.6 -232,376.3 -177.4,399.6 			"/>
			<polygon class="magazine11" points="-177.4,397.9 -141.5,380.7 -141.5,382.5 -177.4,399.6 			"/>
		</g>
		<g>
			<polygon class="magazine9" points="-140.6,378.1 -176.5,395.2 -231.1,372 -195.2,354.8 			"/>
			<polygon class="magazine10" points="-176.5,395.2 -231.1,372 -231.1,373.7 -176.5,397 			"/>
			<polygon class="magazine11" points="-176.5,395.2 -140.6,378.1 -140.6,379.8 -176.5,397 			"/>
		</g>
		<g>
			<polygon class="magazine9" points="-139.7,375.5 -175.7,392.6 -230.2,369.3 -194.3,352.2 			"/>
			<polygon class="magazine10" points="-175.7,392.6 -230.2,369.3 -230.2,371.1 -175.7,394.4 			"/>
			<polygon class="magazine11" points="-175.7,392.6 -139.7,375.5 -139.7,377.2 -175.7,394.4 			"/>
		</g>
		<g>
			<polygon class="magazine9" points="-139.7,372.9 -175.7,390 -230.2,366.7 -194.3,349.6 			"/>
			<polygon class="magazine10" points="-175.7,390 -230.2,366.7 -230.2,368.5 -175.7,391.8 			"/>
			<polygon class="magazine11" points="-175.7,390 -139.7,372.9 -139.7,374.6 -175.7,391.8 			"/>
		</g>
		<g>
			<polygon class="magazine9" points="-139.7,370.2 -175.7,387.4 -230.2,364.1 -194.3,347 			"/>
			<polygon class="magazine10" points="-175.7,387.4 -230.2,364.1 -230.2,365.8 -175.7,389.1 			"/>
			<polygon class="magazine11" points="-175.7,387.4 -139.7,370.2 -139.7,372 -175.7,389.1 			"/>
		</g>
		<g>
			<polygon class="magazine9" points="-139.7,367.6 -175.7,384.8 -230.2,361.5 -194.3,344.3 			"/>
			<polygon class="magazine10" points="-175.7,384.8 -230.2,361.5 -230.2,363.2 -175.7,386.5 			"/>
			<polygon class="magazine11" points="-175.7,384.8 -139.7,367.6 -139.7,369.4 -175.7,386.5 			"/>
		</g>
		<g>
			<polygon class="magazine9" points="-139.7,365 -175.7,382.2 -230.2,358.9 -194.3,341.7 			"/>
			<polygon class="magazine10" points="-175.7,382.2 -230.2,358.9 -230.2,360.6 -175.7,383.9 			"/>
			<polygon class="magazine11" points="-175.7,382.2 -139.7,365 -139.7,366.8 -175.7,383.9 			"/>
		</g>
		<g>
			<polygon class="magazine9" points="-139.7,362.4 -175.7,379.5 -230.2,356.3 -194.3,339.1 			"/>
			<polygon class="magazine10" points="-175.7,379.5 -230.2,356.3 -230.2,358 -175.7,381.3 			"/>
			<polygon class="magazine11" points="-175.7,379.5 -139.7,362.4 -139.7,364.1 -175.7,381.3 			"/>
		</g>
		<g>
			<polygon class="magazine9" points="-139.7,359.8 -175.7,376.9 -230.2,353.6 -194.3,336.5 			"/>
			<polygon class="magazine10" points="-175.7,376.9 -230.2,353.6 -230.2,355.4 -175.7,378.7 			"/>
			<polygon class="magazine11" points="-175.7,376.9 -139.7,359.8 -139.7,361.5 -175.7,378.7 			"/>
		</g>
		<g>
			<polygon class="magazine9" points="-139.3,357 -175.2,374.2 -229.8,350.9 -193.8,333.7 			"/>
			<polygon class="magazine10" points="-175.2,374.2 -229.8,350.9 -229.8,352.6 -175.2,375.9 			"/>
			<polygon class="magazine11" points="-175.2,374.2 -139.3,357 -139.3,358.7 -175.2,375.9 			"/>
		</g>
		<g>
			<polygon class="magazine9" points="-138.4,354.4 -174.4,371.5 -228.9,348.2 -193,331.1 			"/>
			<polygon class="magazine10" points="-174.4,371.5 -228.9,348.2 -228.9,350 -174.4,373.3 			"/>
			<polygon class="magazine11" points="-174.4,371.5 -138.4,354.4 -138.4,356.1 -174.4,373.3 			"/>
		</g>
		<g>
			<polygon class="magazine9" points="-137.6,351.8 -173.5,368.9 -228,345.6 -192.1,328.5 			"/>
			<polygon class="magazine10" points="-173.5,368.9 -228,345.6 -228,347.4 -173.5,370.7 			"/>
			<polygon class="magazine11" points="-173.5,368.9 -137.6,351.8 -137.6,353.5 -173.5,370.7 			"/>
		</g>
		<g>
			<polygon class="magazine9" points="-137.6,349.2 -173.5,366.3 -228,343 -192.1,325.9 			"/>
			<polygon class="magazine10" points="-173.5,366.3 -228,343 -228,344.8 -173.5,368 			"/>
			<polygon class="magazine11" points="-173.5,366.3 -137.6,349.2 -137.6,350.9 -173.5,368 			"/>
		</g>
		<g>
			<polygon class="magazine9" points="-137.6,346.5 -173.5,363.7 -228,340.4 -192.1,323.3 			"/>
			<polygon class="magazine10" points="-173.5,363.7 -228,340.4 -228,342.1 -173.5,365.4 			"/>
			<polygon class="magazine11" points="-173.5,363.7 -137.6,346.5 -137.6,348.3 -173.5,365.4 			"/>
		</g>
		<g>
			<polygon class="magazine9" points="-136.7,343.9 -172.6,361.1 -227.2,337.8 -191.2,320.6 			"/>
			<polygon class="magazine10" points="-172.6,361.1 -227.2,337.8 -227.2,339.5 -172.6,362.8 			"/>
			<polygon class="magazine11" points="-172.6,361.1 -136.7,343.9 -136.7,345.7 -172.6,362.8 			"/>
		</g>
		<g>
			<polygon class="magazine9" points="-136.7,341.3 -172.6,358.5 -227.2,335.2 -191.2,318 			"/>
			<polygon class="magazine10" points="-172.6,358.5 -227.2,335.2 -227.2,336.9 -172.6,360.2 			"/>
			<polygon class="magazine11" points="-172.6,358.5 -136.7,341.3 -136.7,343.1 -172.6,360.2 			"/>
		</g>
		<g>
			<polygon class="magazine9" points="-135.8,338.7 -171.8,355.8 -226.3,332.6 -190.4,315.4 			"/>
			<polygon class="magazine10" points="-171.8,355.8 -226.3,332.6 -226.3,334.3 -171.8,357.6 			"/>
			<polygon class="magazine11" points="-171.8,355.8 -135.8,338.7 -135.8,340.4 -171.8,357.6 			"/>
		</g>
		<g>
			<polygon class="magazine9" points="-136.7,336.1 -172.6,353.2 -227.2,329.9 -191.2,312.8 			"/>
			<polygon class="magazine10" points="-172.6,353.2 -227.2,329.9 -227.2,331.7 -172.6,355 			"/>
			<polygon class="magazine11" points="-172.6,353.2 -136.7,336.1 -136.7,337.8 -172.6,355 			"/>
		</g>
		<g>
			<polygon class="magazine9" points="-136.7,333.5 -172.6,350.6 -227.2,327.3 -191.2,310.2 			"/>
			<polygon class="magazine10" points="-172.6,350.6 -227.2,327.3 -227.2,329.1 -172.6,352.3 			"/>
			<polygon class="magazine11" points="-172.6,350.6 -136.7,333.5 -136.7,335.2 -172.6,352.3 			"/>
		</g>
		<g>
			<polygon class="magazine9" points="-137.6,330.8 -173.5,348 -228,324.7 -192.1,307.6 			"/>
			<polygon class="magazine10" points="-173.5,348 -228,324.7 -228,326.4 -173.5,349.7 			"/>
			<polygon class="magazine11" points="-173.5,348 -137.6,330.8 -137.6,332.6 -173.5,349.7 			"/>
		</g>
		<g>
			<polygon class="magazine9" points="-139.3,328.2 -175.2,345.4 -229.8,322.1 -193.8,304.9 			"/>
			<polygon class="magazine10" points="-175.2,345.4 -229.8,322.1 -229.8,323.8 -175.2,347.1 			"/>
			<polygon class="magazine11" points="-175.2,345.4 -139.3,328.2 -139.3,330 -175.2,347.1 			"/>
		</g>
		<g>
			<polygon class="magazine9" points="-140.2,325.6 -176.1,342.8 -230.6,319.5 -194.7,302.3 			"/>
			<polygon class="magazine10" points="-176.1,342.8 -230.6,319.5 -230.6,321.2 -176.1,344.5 			"/>
			<polygon class="magazine11" points="-176.1,342.8 -140.2,325.6 -140.2,327.4 -176.1,344.5 			"/>
		</g>
		<g>
			<polygon class="magazine9" points="-141.1,323 -177,340.1 -231.5,316.9 -195.6,299.7 			"/>
			<polygon class="magazine10" points="-177,340.1 -231.5,316.9 -231.5,318.6 -177,341.9 			"/>
			<polygon class="magazine11" points="-177,340.1 -141.1,323 -141.1,324.7 -177,341.9 			"/>
		</g>
		<g>
			<polygon class="magazine9" points="-141.1,320.4 -177,337.5 -231.5,314.2 -195.6,297.1 			"/>
			<polygon class="magazine10" points="-177,337.5 -231.5,314.2 -231.5,316 -177,339.3 			"/>
			<polygon class="magazine11" points="-177,337.5 -141.1,320.4 -141.1,322.1 -177,339.3 			"/>
		</g>
		<g>
			<polygon class="magazine9" points="-141.5,317.9 -177.4,335.1 -232,311.8 -196,294.6 			"/>
			<polygon class="magazine10" points="-177.4,335.1 -232,311.8 -232,313.5 -177.4,336.8 			"/>
			<polygon class="magazine11" points="-177.4,335.1 -141.5,317.9 -141.5,319.7 -177.4,336.8 			"/>
		</g>
		<g>
			<polygon class="magazine9" points="-141.5,315.3 -177.4,332.5 -232,309.2 -196,292 			"/>
			<polygon class="magazine10" points="-177.4,332.5 -232,309.2 -232,310.9 -177.4,334.2 			"/>
			<polygon class="magazine11" points="-177.4,332.5 -141.5,315.3 -141.5,317 -177.4,334.2 			"/>
		</g>
		<g>
			<polygon class="magazine9" points="-142.4,312.7 -178.3,329.8 -232.8,306.5 -196.9,289.4 			"/>
			<polygon class="magazine10" points="-178.3,329.8 -232.8,306.5 -232.8,308.3 -178.3,331.6 			"/>
			<polygon class="magazine11" points="-178.3,329.8 -142.4,312.7 -142.4,314.4 -178.3,331.6 			"/>
		</g>
		<g>
			<polygon class="magazine9" points="-143.2,310.1 -179.2,327.2 -233.7,303.9 -197.8,286.8 			"/>
			<polygon class="magazine10" points="-179.2,327.2 -233.7,303.9 -233.7,305.7 -179.2,329 			"/>
			<polygon class="magazine11" points="-179.2,327.2 -143.2,310.1 -143.2,311.8 -179.2,329 			"/>
		</g>
		<g>
			<polygon class="magazine9" points="-143.2,307.5 -179.2,324.6 -233.7,301.3 -197.8,284.2 			"/>
			<polygon class="magazine10" points="-179.2,324.6 -233.7,301.3 -233.7,303.1 -179.2,326.3 			"/>
			<polygon class="magazine11" points="-179.2,324.6 -143.2,307.5 -143.2,309.2 -179.2,326.3 			"/>
		</g>
		<g>
			<polygon class="magazine9" points="-144.1,304.8 -180,322 -234.6,298.7 -198.6,281.6 			"/>
			<polygon class="magazine10" points="-180,322 -234.6,298.7 -234.6,300.4 -180,323.7 			"/>
			<polygon class="magazine11" points="-180,322 -144.1,304.8 -144.1,306.6 -180,323.7 			"/>
		</g>
		<g>
			<polygon class="magazine9" points="-145,302.2 -180.9,319.4 -235.4,296.1 -199.5,278.9 			"/>
			<polygon class="magazine10" points="-180.9,319.4 -235.4,296.1 -235.4,297.8 -180.9,321.1 			"/>
			<polygon class="magazine11" points="-180.9,319.4 -145,302.2 -145,304 -180.9,321.1 			"/>
		</g>
		<g>
			<polygon class="magazine9" points="-145.8,299.6 -181.8,316.8 -236.3,293.5 -200.4,276.3 			"/>
			<polygon class="magazine10" points="-181.8,316.8 -236.3,293.5 -236.3,295.2 -181.8,318.5 			"/>
			<polygon class="magazine11" points="-181.8,316.8 -145.8,299.6 -145.8,301.4 -181.8,318.5 			"/>
		</g>
		<g>
			<polygon class="magazine9" points="-146.7,297 -182.7,314.1 -237.2,290.9 -201.3,273.7 			"/>
			<polygon class="magazine10" points="-182.7,314.1 -237.2,290.9 -237.2,292.6 -182.7,315.9 			"/>
			<polygon class="magazine11" points="-182.7,314.1 -146.7,297 -146.7,298.7 -182.7,315.9 			"/>
		</g>
		<g>
			<polygon class="magazine9" points="-147.6,294.4 -183.5,311.5 -238.1,288.2 -202.1,271.1 			"/>
			<polygon class="magazine10" points="-183.5,311.5 -238.1,288.2 -238.1,290 -183.5,313.3 			"/>
			<polygon class="magazine11" points="-183.5,311.5 -147.6,294.4 -147.6,296.1 -183.5,313.3 			"/>
		</g>
		<g>
			<polygon class="magazine9" points="-147.6,291.8 -183.5,308.9 -238.1,285.6 -202.1,268.5 			"/>
			<polygon class="magazine10" points="-183.5,308.9 -238.1,285.6 -238.1,287.4 -183.5,310.6 			"/>
			<polygon class="magazine11" points="-183.5,308.9 -147.6,291.8 -147.6,293.5 -183.5,310.6 			"/>
		</g>
		<g>
			<polygon class="magazine9" points="-147.6,289.1 -183.5,306.3 -238.1,283 -202.1,265.9 			"/>
			<polygon class="magazine10" points="-183.5,306.3 -238.1,283 -238.1,284.7 -183.5,308 			"/>
			<polygon class="magazine11" points="-183.5,306.3 -147.6,289.1 -147.6,290.9 -183.5,308 			"/>
		</g>
		<g>
			<defs>
				<polygon id="SVGID_1_" points="-147.6,289.1 -183.5,306.3 -237.8,282.7 -202.1,265.9 				"/>
			</defs>
			<clipPath id="SVGID_2_">
				<use xlink:href="#SVGID_1_"  style="overflow:visible;"/>
			</clipPath>
			<path class="magazine12" d="M-124.5,317l0.2,0l4.4-1.7c-1.1-1.3-2.8-2.6-5.1-3.8c-5.5-2.8-13.3-4.1-20.7-4l0.8,2.4
				c5.7-0.1,11.6,1,15.9,3.1C-126.8,314.3-125.2,315.6-124.5,317z"/>
			<path class="magazine13" d="M-108.8,315.5c3.9,2.2,3.2,5.2-1.4,6.7c-4.6,1.6-11.6,1.1-15.4-1.1c-3.9-2.2-3.2-5.2,1.4-6.7
				C-119.6,312.9-112.7,313.4-108.8,315.5z"/>
			<path class="magazine14" d="M-111.2,316.3c2.8,1.6,2.3,3.7-1,4.9c-3.4,1.1-8.3,0.8-11.1-0.8c-2.8-1.6-2.3-3.7,1-4.9
				C-118.9,314.4-114,314.7-111.2,316.3z"/>
			<polygon class="magazine14" points="-94.2,317.4 -123.9,327.4 -132.6,322.5 -102.9,312.6 			"/>
			<path class="magazine12" d="M-158.7,273.7c6.1,1.5,10,4.5,9.3,7.6c-0.6,2.8-4.8,4.9-10.3,5.8l1.9,2c7.1-1.1,12.5-3.9,13.3-7.4
				c0.9-4-4.1-7.9-12-9.9L-158.7,273.7z"/>
			<path class="magazine12" d="M-163.5,268.9c0.1,0,0.2,0,0.3,0c2.2,0,4.2,0.8,4.4,1.7c0.2,1-1.4,1.8-3.7,1.8c-2.2,0-4.2-0.8-4.4-1.7
				c0-0.1,0-0.2,0-0.3l-4.9-0.2c0,0.2,0,0.4,0,0.5c0.5,2.2,4.8,3.9,9.8,3.8c4.9-0.1,8.5-1.9,8.1-4c-0.5-2.2-4.8-3.9-9.8-3.8
				c-0.2,0-0.4,0-0.7,0L-163.5,268.9z"/>
			<path class="magazine15" d="M-156,271.6c1.3,0.6,1.4,1.4,0.3,2c-1.2,0.5-3.2,0.5-4.5,0c-1.3-0.6-1.4-1.4-0.3-2S-157.4,271-156,271.6z"
				/>
			<path class="magazine12" d="M-174.4,314.2c-6.7-0.7-12.4-3.1-13.9-6.2c-1.3-2.8,1.1-5.4,5.7-7l-3.1-1.7c-5.9,2-9,5.4-7.3,9
				c1.9,4.1,9.2,7.2,17.9,8L-174.4,314.2z"/>
			<path class="magazine12" d="M-164.9,317.3c-0.1,0-0.1,0.1-0.2,0.1c-1.8,0.6-4.3,0.4-5.7-0.4c-1.4-0.8-1.1-1.9,0.6-2.5
				c1.8-0.6,4.3-0.4,5.7,0.4c0.1,0.1,0.2,0.1,0.3,0.2l4.2-1c-0.2-0.2-0.4-0.3-0.7-0.5c-3.1-1.8-8.7-2.2-12.6-1
				c-3.9,1.2-4.5,3.7-1.4,5.5c3.1,1.8,8.7,2.2,12.6,1c0.2-0.1,0.3-0.1,0.5-0.2L-164.9,317.3z"/>
			<path class="magazine15" d="M-171.6,314.5c1.1,0.6,0.9,1.5-0.5,2c-1.4,0.4-3.4,0.3-4.5-0.4s-0.9-1.5,0.5-2
				C-174.7,313.7-172.7,313.9-171.6,314.5z"/>
			<path class="magazine13" d="M-112.5,316.7c2.2,1.2,1.8,2.9-0.8,3.8c-2.6,0.9-6.5,0.6-8.7-0.6c-2.2-1.2-1.8-2.9,0.8-3.8
				C-118.6,315.3-114.7,315.5-112.5,316.7z"/>
			<path class="magazine16" d="M-209.2,269.9c1.3,0.6,1.5,1.5,0.3,2c-1.2,0.6-3.3,0.5-4.6,0c-1.3-0.6-1.5-1.5-0.3-2
				C-212.6,269.3-210.5,269.3-209.2,269.9z"/>
			<path class="magazine17" d="M-212.5,273.5"/>
			<path class="magazine13" d="M-197.3,283.7c-7.4-1.6-12.2-3.8-14.2-6.5l-0.1-0.1l2-0.9l-5.4,0.3l2.5-1.2c-0.4-1.8,0.5-3.1,0.5-3.1
				l0.6,0.1c0,0-0.9,1.3-0.5,3l0,0.1l-1.4,0.6l5.4-0.3l-3.1,1.4c2,2.6,6.6,4.7,13.8,6.2L-197.3,283.7z"/>
			<path class="magazine12" d="M-199.3,282.8c-7.8,3.6-7.1,9.6,1.7,13.3l2.5,1l28.3-13.1l-2.5-1C-178,279.3-191.5,279.2-199.3,282.8z"/>
			<path class="magazine15" d="M-186.6,289c0.5,0.2,0.5,0.5,0.1,0.7c-0.4,0.2-1.1,0.2-1.6,0c-0.5-0.2-0.5-0.5-0.1-0.7
				C-187.7,288.8-187,288.9-186.6,289z"/>
			<path class="magazine15" d="M-181.6,286.8c0.5,0.2,0.5,0.5,0.1,0.7c-0.4,0.2-1.1,0.2-1.6,0c-0.5-0.2-0.5-0.5-0.1-0.7
				C-182.8,286.6-182.1,286.6-181.6,286.8z"/>
			<polygon class="magazine18" points="-119.5,305.3 -146.3,316.8 -201,300.4 -161.1,281.1 			"/>
			<polygon class="magazine13" points="-121.3,305.2 -146.7,316.1 -198.7,300.3 -161.3,282.1 			"/>
			<path class="magazine14" d="M-174.2,301.2c-5.6-2.1-6.5-5.7-2-8c4.5-2.3,12.6-2.5,18.2-0.3c5.6,2.1,6.5,5.7,2,8
				C-160.5,303.2-168.7,303.4-174.2,301.2z"/>
			<polygon class="magazine13" points="-175.8,302.1 -156.4,292 -146.4,295.9 -165.8,305.9 			"/>
			<g class="magazine19">
				<path class="magazine6" d="M-179,297.3c0.1,0.3,0.2,0.7,0.5,1c0,0,0,0,0,0.1c0.1,0.1,0.2,0.3,0.4,0.4c0,0,0.1,0.1,0.1,0.1
					c0.1,0.1,0.3,0.3,0.4,0.4c0,0,0.1,0.1,0.1,0.1c0.1,0.1,0.3,0.2,0.5,0.3c0.1,0,0.1,0.1,0.2,0.1c0.2,0.1,0.3,0.2,0.5,0.3
					c0.1,0,0.2,0.1,0.2,0.1c0.2,0.1,0.5,0.2,0.7,0.4c0.1,0,0.1,0.1,0.2,0.1c0.3,0.1,0.6,0.3,1,0.4l8.1-4.2L-179,297.3z"/>
				<path class="magazine7" d="M-176.2,293.2c-0.5,0.3-0.9,0.5-1.3,0.8c0,0,0,0-0.1,0c-0.2,0.1-0.3,0.3-0.4,0.4c0,0-0.1,0.1-0.1,0.1
					c-0.1,0.1-0.2,0.3-0.3,0.4c0,0-0.1,0.1-0.1,0.1c-0.1,0.1-0.1,0.2-0.2,0.4c0,0.1-0.1,0.1-0.1,0.2c-0.1,0.1-0.1,0.3-0.1,0.4
					c0,0.1,0,0.1-0.1,0.2c0,0.1,0,0.3,0,0.4c0,0,0,0.1,0,0.1c0,0.2,0,0.4,0.1,0.6l12.8-0.2L-176.2,293.2z"/>
				<path class="magazine4" d="M-167.5,291.4c0.8,0,1.6,0,2.4,0.1c0,0,0.1,0,0.1,0c0.3,0,0.7,0.1,1,0.1c0.1,0,0.2,0,0.2,0
					c0.3,0,0.6,0.1,0.9,0.1c0.1,0,0.2,0,0.3,0c0.3,0,0.6,0.1,0.8,0.2c0.1,0,0.2,0,0.4,0.1c0.3,0.1,0.5,0.1,0.8,0.2
					c0.1,0,0.2,0.1,0.4,0.1c0.3,0.1,0.6,0.2,0.9,0.3c0.1,0,0.1,0,0.2,0.1c0.4,0.1,0.7,0.2,1.1,0.4l-8.1,4.2L-167.5,291.4z"/>
				<path class="magazine8" d="M-176.2,293.2c0.5-0.3,1-0.5,1.6-0.7c0,0,0.1,0,0.1,0c0.3-0.1,0.5-0.2,0.8-0.3c0.1,0,0.1,0,0.2-0.1
					c0.3-0.1,0.5-0.1,0.8-0.2c0.1,0,0.2,0,0.3-0.1c0.3-0.1,0.5-0.1,0.8-0.1c0.1,0,0.2,0,0.3-0.1c0.3,0,0.5-0.1,0.8-0.1
					c0.1,0,0.2,0,0.4,0c0.3,0,0.7-0.1,1-0.1c0.1,0,0.2,0,0.2,0c0.4,0,0.8,0,1.3-0.1l1.4,5.7L-176.2,293.2z"/>
			</g>
			<path class="magazine14" d="M-166.3,296.2c0.3,0.2,0.2,0.5-0.2,0.6c-0.4,0.1-1,0.1-1.3-0.1c-0.3-0.2-3.6-3-3.6-3
				S-166.6,296-166.3,296.2z"/>
			<path class="magazine12" d="M-164.2,296.1c1.3,0.5,1.5,1.3,0.5,1.9c-1,0.5-3,0.6-4.3,0.1s-1.5-1.3-0.5-1.9
				C-167.4,295.6-165.5,295.6-164.2,296.1z"/>
		</g>
	</g>
	<g>
		<path class="magazine2" d="M-219.4,279.7c0.6-0.3,1.2-0.5,1.8-0.5c0.6,0,1.1,0.1,1.6,0.4c0.3,0.1,0.4,0.3,0.5,0.5c0.1,0.2,0,0.4-0.2,0.6
			c0.4-0.1,0.8-0.1,1.1-0.1c0.3,0.1,0.7,0.2,1,0.3l0.4,0.2c0.2,0.1,0.3,0.1,0.4,0.2c0.1,0,0.2,0,0.3,0l0.2-0.1l0.5,0.3l-0.4,0.2
			c-0.3,0.1-0.6,0.2-0.9,0.2c-0.3,0-0.6-0.1-0.9-0.3l-0.4-0.2c-0.3-0.2-0.6-0.2-1-0.2c-0.3,0-0.7,0.1-1,0.2l-1.2,0.6l1.8,1l0.7-0.3
			l0.5,0.3l-2,1l-0.5-0.3l0.5-0.4l-4.2-2.3l-0.7,0.3l-0.5-0.3l0.6-0.3L-219.4,279.7z M-218.1,281.5l1-0.5c0.4-0.2,0.6-0.4,0.7-0.6
			c0-0.2-0.1-0.4-0.4-0.5c-0.3-0.2-0.6-0.2-0.9-0.2c-0.3,0-0.7,0.1-1.1,0.3l-1.1,0.5L-218.1,281.5z"/>
		<path class="magazine2" d="M-213.2,280c-0.6-0.3-0.9-0.7-1-1c-0.1-0.4,0.2-0.7,0.8-1c0.6-0.3,1.2-0.4,1.9-0.4c0.7,0,1.4,0.2,1.9,0.5
			l0.1,0c0.6,0.3,0.9,0.7,1,1c0,0.4-0.2,0.7-0.8,1c-0.6,0.3-1.2,0.4-1.9,0.4C-211.9,280.6-212.5,280.4-213.2,280L-213.2,280z
			 M-212.4,279.7c0.4,0.2,0.9,0.4,1.3,0.4c0.5,0.1,0.9,0,1.2-0.2c0.4-0.2,0.5-0.4,0.4-0.6c-0.1-0.2-0.3-0.5-0.8-0.7l-0.1,0
			c-0.4-0.2-0.9-0.4-1.3-0.4c-0.5-0.1-0.9,0-1.2,0.2c-0.4,0.2-0.5,0.4-0.4,0.6C-213.1,279.2-212.9,279.4-212.4,279.7L-212.4,279.7z"
			/>
		<path class="magazine2" d="M-205,276c0.6,0.3,0.9,0.6,1,1c0.1,0.3-0.1,0.6-0.6,0.9c-0.3,0.1-0.5,0.2-0.8,0.3c-0.3,0-0.6,0-0.9,0l0.4,0.3
			l-0.6,0.3l-5.1-2.8l-0.7,0.3l-0.5-0.3l1.4-0.7l2.2,1.2c0-0.2,0-0.3,0.1-0.5c0.1-0.1,0.3-0.3,0.5-0.4c0.5-0.3,1.1-0.3,1.8-0.3
			C-206.3,275.4-205.7,275.6-205,276L-205,276z M-205.8,276.4c-0.5-0.3-0.9-0.4-1.4-0.5c-0.5-0.1-0.9,0-1.2,0.2
			c-0.2,0.1-0.4,0.2-0.4,0.4c0,0.1,0,0.3,0.1,0.4l1.7,1c0.3,0.1,0.5,0.1,0.8,0c0.3,0,0.5-0.1,0.7-0.2c0.3-0.2,0.5-0.4,0.4-0.6
			C-205.1,276.8-205.3,276.6-205.8,276.4L-205.8,276.4z"/>
		<path class="magazine2" d="M-204.4,275.5c-0.6-0.3-0.9-0.7-1-1.1c-0.1-0.4,0.2-0.7,0.8-1c0.6-0.3,1.2-0.4,1.9-0.4c0.7,0,1.3,0.2,1.9,0.6
			l0.1,0c0.6,0.3,0.9,0.7,0.9,1.1c0,0.4-0.2,0.7-0.8,1c-0.6,0.3-1.2,0.4-1.9,0.4C-203.1,276.1-203.7,275.9-204.4,275.5L-204.4,275.5
			z M-203.6,275.2c0.4,0.2,0.9,0.4,1.3,0.4c0.5,0.1,0.9,0,1.2-0.2c0.4-0.2,0.5-0.4,0.4-0.6c-0.1-0.2-0.3-0.5-0.8-0.7l-0.1,0
			c-0.4-0.2-0.8-0.4-1.3-0.4c-0.5-0.1-0.9,0-1.2,0.2c-0.4,0.2-0.5,0.4-0.4,0.6C-204.3,274.7-204.1,274.9-203.6,275.2L-203.6,275.2z"
			/>
		<path class="magazine2" d="M-201.7,271.1l1,0.5l0.8-0.4l0.5,0.3l-0.8,0.4l2.4,1.3c0.2,0.1,0.4,0.2,0.5,0.2c0.2,0,0.3,0,0.4-0.1
			c0.1,0,0.1-0.1,0.2-0.1c0.1,0,0.1-0.1,0.2-0.1l0.6,0.2c0,0.1-0.1,0.1-0.2,0.2c-0.1,0.1-0.2,0.2-0.4,0.2c-0.3,0.2-0.6,0.2-1,0.2
			c-0.4,0-0.7-0.1-1.1-0.3l-2.4-1.3l-0.6,0.3l-0.5-0.3l0.6-0.3l-1-0.5L-201.7,271.1z"/>
		<path class="magazine2" d="M-208.5,289.2l-0.5-0.2l0.5-0.4l-4.2-2.3l-0.7,0.3l-0.5-0.3l0.6-0.3l0.7-0.4l0.6-0.3l0.5,0.3l-0.5,0.4
			l4.2,2.3l1.9-1l-0.5-0.4l0.6-0.3l1.2,0.6L-208.5,289.2z"/>
		<path class="magazine2" d="M-204.4,286.6l0.5-0.4l-2.8-1.5l-0.7,0.3l-0.5-0.3l1.3-0.7l3.4,1.8l0.7-0.3l0.5,0.2l-1.9,1L-204.4,286.6z
			 M-207.5,283.5l-0.7,0.4l-0.7-0.4l0.7-0.4L-207.5,283.5z"/>
		<path class="magazine2" d="M-203.5,283l-0.4,0.3l3.1,0.8l0.3,0.1l0,0l-0.2-0.2l-1.4-1.6l-0.6,0.2l-0.5-0.3l1.6-0.8l0.5,0.3l-0.3,0.2
			l2,2.6l-0.6,0.3l-4.8-1.2l-0.4,0.1l-0.5-0.3l1.6-0.8L-203.5,283z"/>
		<path class="magazine2" d="M-197.6,283.2l0.5-0.4l-2.8-1.5l-0.7,0.3l-0.5-0.3l1.3-0.7l3.3,1.8l0.7-0.3l0.5,0.2l-1.9,1L-197.6,283.2z
			 M-200.7,280l-0.7,0.4l-0.7-0.4l0.7-0.4L-200.7,280z"/>
		<path class="magazine2" d="M-195.2,281.9l0.5-0.4l-2.8-1.5l-0.7,0.3l-0.5-0.3l1.3-0.6l0.6,0.3c-0.1-0.2-0.1-0.4,0-0.5
			c0.1-0.2,0.3-0.3,0.5-0.4c0.4-0.2,0.9-0.3,1.4-0.3c0.5,0,1,0.2,1.5,0.4l1.9,1.1l0.7-0.3l0.4,0.3l-1.9,1l-0.4-0.3l0.5-0.4l-1.9-1
			c-0.3-0.2-0.7-0.3-0.9-0.3c-0.3,0-0.6,0.1-0.9,0.2c-0.2,0.1-0.4,0.2-0.4,0.4c-0.1,0.1-0.1,0.3,0,0.4l2.3,1.3l0.7-0.3l0.4,0.2
			l-1.9,1L-195.2,281.9z"/>
		<path class="magazine2" d="M-191.6,278.6c-0.6-0.3-1-0.7-1.1-1.1c-0.1-0.4,0.1-0.7,0.6-0.9c0.3-0.1,0.5-0.2,0.8-0.3c0.3,0,0.6,0,0.9,0
			l-0.4-0.3l0.6-0.3l3.8,2.1c0.5,0.3,0.7,0.6,0.7,0.9c0,0.3-0.3,0.6-0.8,0.9c-0.2,0.1-0.4,0.2-0.7,0.3c-0.3,0.1-0.5,0.1-0.8,0.2
			l-0.4-0.4c0.2,0,0.4-0.1,0.7-0.2c0.2-0.1,0.4-0.1,0.6-0.2c0.3-0.2,0.5-0.3,0.5-0.5c0-0.2-0.2-0.4-0.5-0.5l-0.4-0.2
			c0,0.2,0,0.3-0.1,0.4s-0.3,0.3-0.5,0.4c-0.5,0.3-1.1,0.4-1.7,0.3C-190.4,279.1-191,279-191.6,278.6L-191.6,278.6z M-190.8,278.3
			c0.4,0.2,0.8,0.3,1.2,0.4c0.4,0,0.8,0,1.1-0.2c0.2-0.1,0.4-0.2,0.4-0.4s0-0.3,0-0.4l-1.8-1c-0.3,0-0.5-0.1-0.8,0
			c-0.2,0-0.5,0.1-0.7,0.2c-0.4,0.2-0.5,0.4-0.4,0.6C-191.6,277.7-191.4,278-190.8,278.3L-190.8,278.3z"/>
	</g>
</g>
<g>
	<path class="magazine0" d="M-228.4,377c-7.8,7-19.4,8.8-29.2,3.6c-8.7-4.6-13.7-13.4-13.8-22.6l-7.5,0.1c0.1,11.8,6.6,23.2,17.8,29.1
		c12.6,6.6,27.6,4.3,37.6-4.7L-228.4,377z"/>
	<path class="magazine0" d="M-211.3,372.1c0,0.2,0,0.3,0,0.5c0,3.5-2.9,6.2-6.3,6.2c-3.5,0-6.2-2.9-6.2-6.3c0-3.5,2.9-6.2,6.3-6.2
		c0.3,0,0.6,0,0.9,0.1l1.1-7.4c-0.6-0.1-1.3-0.2-1.9-0.2c-7.6-0.1-13.8,6-13.9,13.6c-0.1,7.6,6,13.8,13.6,13.9
		c7.6,0.1,13.8-6,13.9-13.6c0-0.3,0-0.7,0-1L-211.3,372.1z"/>
	<circle class="magazine3" cx="-225" cy="379.2" r="4.9"/>
</g>
<g>
	<path class="magazine0" d="M-152.7,125.6c-7.1,7.7-18.5,10.6-28.7,6.4c-9.1-3.7-14.9-12-15.9-21.2l-7.4,0.8c1.2,11.8,8.8,22.5,20.5,27.3
		c13.2,5.4,27.9,1.7,37-8.2L-152.7,125.6z"/>
	<path class="magazine0" d="M-135,123.2c0,0.2,0,0.3-0.1,0.5c-0.7,3.4-4,5.6-7.3,4.9c-3.4-0.7-5.6-4-4.9-7.3c0.7-3.4,4-5.6,7.3-4.9
		c0.3,0.1,0.6,0.1,0.8,0.2l2.4-7.1c-0.6-0.2-1.2-0.4-1.8-0.5c-7.5-1.5-14.7,3.4-16.1,10.9c-1.5,7.5,3.4,14.7,10.9,16.1
		c7.5,1.5,14.7-3.4,16.1-10.9c0.1-0.3,0.1-0.7,0.1-1L-135,123.2z"/>
	<circle class="magazine3" cx="-149.2" cy="127.4" r="4.9"/>
</g>
<path class="magazine11" d="M-144.8,42.9l-36.4,9.5l-5.5,117.7l35.5-12.7c0,0,4.9-13.2,8.9-55.7C-138.2,59.2-144.8,42.9-144.8,42.9z"/>
<g class="magazine20">
	<defs>
		<path id="SVGID_3_" class="magazine20" d="M-144.8,42.9l-36.4,9.5l-5.5,117.7l35.5-12.7c0,0,4.9-13.2,8.9-55.7
			C-138.2,59.2-144.8,42.9-144.8,42.9z"/>
	</defs>
	<clipPath id="SVGID_4_">
		<use xlink:href="#SVGID_3_"  style="overflow:visible;"/>
	</clipPath>
	<polygon class="magazine21" points="-182.2,58.3 -139.3,48.2 -138.3,53.3 -181.6,63.2 	"/>
	<polygon class="magazine21" points="-180.3,68.5 -137.4,58.3 -138.3,60 -181.6,70 	"/>
	<polygon class="magazine21" points="-181.9,73.2 -139,63.1 -138.6,66.1 -181.9,76.1 	"/>
	<polygon class="magazine21" points="-180.2,78.9 -137.4,68.7 -136.4,73.8 -179.6,83.8 	"/>
	<polygon class="magazine21" points="-178.3,89.1 -135.5,78.9 -136.4,80.5 -179.6,90.5 	"/>
	<polygon class="magazine21" points="-179.9,93.8 -137.1,83.7 -136.7,86.7 -179.9,96.7 	"/>
	<polygon class="magazine21" points="-180.7,102.7 -137.8,92.5 -136.8,97.6 -180.1,107.6 	"/>
	<polygon class="magazine21" points="-178.8,112.8 -135.9,102.7 -136.8,104.3 -180.1,114.3 	"/>
	<polygon class="magazine21" points="-180.4,117.6 -137.5,107.5 -137.1,110.5 -180.4,120.5 	"/>
	<polygon class="magazine21" points="-183.2,124.5 -140.4,114.4 -139.4,119.4 -182.6,129.4 	"/>
	<polygon class="magazine21" points="-181.3,134.7 -138.5,124.5 -139.4,126.2 -182.6,136.2 	"/>
	<polygon class="magazine21" points="-182.9,139.4 -140.1,129.3 -139.7,132.3 -182.9,142.3 	"/>
	<polygon class="magazine21" points="-187.8,147.9 -143.3,136.1 -142.3,141.2 -187.2,152.8 	"/>
	<polygon class="magazine21" points="-184.3,156.4 -141.4,143.6 -142.3,145.3 -185.6,157.9 	"/>
	<polygon class="magazine21" points="-188.8,164.1 -147,150.1 -146.3,153.1 -188.5,166.9 	"/>
</g>
<path class="magazine0" d="M-226.6,209.5l0.1,0.2l8.4,3.6c3.5-3.4,6.4-7.5,8.4-12.3c4.8-11.4,3.6-23.9-2.3-33.9l-7.1,4.6
	c4.4,7.7,5.3,17.2,1.6,26C-219.5,202.5-222.7,206.5-226.6,209.5z"/>
<path class="magazine1" d="M-232.9,236.4c-8.3-4.1-11.8-14.1-7.7-22.5c4.1-8.3,14.1-11.8,22.5-7.7c8.3,4.1,11.8,14.1,7.7,22.5
	C-214.5,237-224.6,240.4-232.9,236.4"/>
<path class="magazine2" d="M-230.9,232.2c-6-2.9-8.5-10.2-5.6-16.2c2.9-6,10.2-8.5,16.2-5.6c6,2.9,8.5,10.2,5.6,16.2
	C-217.6,232.6-224.8,235.1-230.9,232.2"/>
<rect x="-238.5" y="199.2" transform="matrix(-0.4386 0.8987 -0.8987 -0.4386 -122.3891 534.1368)" class="magazine2" width="21" height="59.2"/>
<path class="magazine1" d="M-229.7,229.8c-4.7-2.3-6.7-8-4.4-12.7c2.3-4.7,8-6.7,12.7-4.4c4.7,2.3,6.7,8,4.4,12.7
	C-219.3,230.2-225,232.1-229.7,229.8"/>
<g>
	<circle class="magazine4" cx="-294.8" cy="39.3" r="5"/>
	<path class="magazine5" d="M-285.3,37.6"/>
	<path class="magazine5" d="M-252.2,61.2c-5.6-13.3-13.5-19.2-20.7-21.7l-4.5,3.9l1.8-8.3l-3.4,3c-6.3-0.8-10.9,0.7-10.9,0.7"/>
</g>
<path class="magazine0" d="M-251.2,54.2c-17.3,5-27.3,23.2-22.2,40.5l1.4,4.9l62.7-18.3l-1.4-4.9C-215.8,59.1-233.9,49.2-251.2,54.2z"/>
<circle class="magazine3" cx="-243.9" cy="73.5" r="1.7"/>
<circle class="magazine3" cx="-238" cy="71.3" r="1.7"/>
<g>
	<polygon class="magazine2" points="-184.6,178.7 -242.1,193.4 -286.1,105 -196.1,76.7 	"/>
	<g>
		<polygon class="magazine1" points="-186.7,177 -241.3,190.8 -282.6,106.3 -198.3,79.7 		"/>
		<g>
			<circle class="magazine2" cx="-232.5" cy="120.4" r="19.8"/>

				<rect x="-253" y="119.8" transform="matrix(-0.9443 0.329 -0.329 -0.9443 -403.0298 327.6957)" class="magazine1" width="47.5" height="19.8"/>
			<g>
				<path class="magazine6" d="M-250.3,111.8c-0.5,1.1-0.9,2.2-1.3,3.4c0,0.1,0,0.1-0.1,0.2c-0.1,0.5-0.2,1-0.3,1.6c0,0.1-0.1,0.2-0.1,0.3
					c-0.1,0.5-0.1,1-0.2,1.5c0,0.2,0,0.3,0,0.5c0,0.5,0,0.9,0,1.4c0,0.2,0,0.4,0,0.6c0,0.4,0.1,0.9,0.1,1.3c0,0.2,0,0.4,0.1,0.6
					c0.1,0.5,0.2,1,0.3,1.5c0,0.1,0,0.3,0.1,0.4c0.2,0.6,0.3,1.3,0.6,1.9l18.7-6.5L-250.3,111.8z"/>
				<path class="magazine7" d="M-239,101.7c-1.1,0.4-2.2,0.9-3.3,1.5c-0.1,0-0.1,0.1-0.2,0.1c-0.5,0.3-0.9,0.6-1.3,0.9
					c-0.1,0.1-0.2,0.1-0.3,0.2c-0.4,0.3-0.8,0.6-1.1,0.9c-0.1,0.1-0.3,0.2-0.4,0.3c-0.3,0.3-0.7,0.6-1,1c-0.1,0.1-0.3,0.3-0.4,0.4
					c-0.3,0.3-0.6,0.7-0.9,1c-0.1,0.2-0.3,0.3-0.4,0.5c-0.3,0.4-0.6,0.8-0.9,1.3c-0.1,0.1-0.1,0.2-0.2,0.3c-0.3,0.6-0.7,1.1-1,1.8
					l17.8,8.6L-239,101.7z"/>
				<path class="magazine4" d="M-223.9,102.5c1.1,0.5,2.1,1.2,3.1,1.9c0,0,0.1,0.1,0.1,0.1c0.4,0.3,0.8,0.7,1.2,1c0.1,0.1,0.2,0.1,0.3,0.2
					c0.4,0.3,0.7,0.7,1,1c0.1,0.1,0.2,0.2,0.3,0.4c0.3,0.3,0.6,0.7,0.9,1.1c0.1,0.2,0.3,0.3,0.4,0.5c0.3,0.4,0.5,0.7,0.7,1.1
					c0.1,0.2,0.2,0.3,0.3,0.5c0.3,0.4,0.5,0.9,0.7,1.4c0.1,0.1,0.1,0.2,0.2,0.3c0.3,0.6,0.5,1.2,0.8,1.8l-18.7,6.5L-223.9,102.5z"/>
				<path class="magazine8" d="M-239,101.7c1.1-0.4,2.3-0.7,3.5-0.9c0.1,0,0.1,0,0.2,0c0.5-0.1,1.1-0.1,1.6-0.2c0.1,0,0.2,0,0.4,0
					c0.5,0,1,0,1.5,0c0.2,0,0.3,0,0.5,0c0.5,0,0.9,0.1,1.4,0.1c0.2,0,0.4,0,0.6,0.1c0.4,0.1,0.9,0.2,1.3,0.3c0.2,0,0.4,0.1,0.6,0.1
					c0.5,0.1,1,0.3,1.5,0.5c0.1,0,0.2,0.1,0.4,0.1c0.6,0.2,1.2,0.5,1.8,0.8l-8.6,17.8L-239,101.7z"/>
			</g>
			<path class="magazine2" d="M-231.1,117.8c0.1,0.8-0.5,1.5-1.4,1.6c-0.8,0.1-1.5-0.5-1.6-1.4c-0.1-0.8,0.6-11.5,0.6-11.5
				S-231.2,117-231.1,117.8z"/>
			<circle class="magazine0" cx="-232.5" cy="120.4" r="4.7"/>
		</g>
	</g>
</g>
<path class="magazine10" d="M-182.1,52.7l-49-22c0,0,5.6,28.6,3.1,55.1s-8.8,56.9-8.8,56.9l48.8,28.1l1.3-0.6c0,0,4.6-23.6,7.6-55.2
	s-2.1-62.4-2.1-62.4L-182.1,52.7z"/>
<polygon class="magazine9" points="-231.1,30.6 -190,22 -144.8,42.9 -182.1,52.7 "/>
<polygon class="magazine2" points="-176.9,82.6 -160.8,78.3 -164.9,84.1 "/>
<polygon class="magazine2" points="-160.8,130.5 -144.8,126.2 -142.3,129.1 "/>
<polygon class="magazine2" points="-162.3,98.5 -146.3,94.3 -150.3,100 "/>
<polygon class="magazine2" points="-157.8,61.2 -141.8,57 -139.3,59.8 "/>
<g>
	<defs>
		<polygon id="SVGID_5_" points="-144.8,42.3 -184.4,52.1 -231.1,31.8 -191.5,22 		"/>
	</defs>
	<clipPath id="SVGID_6_">
		<use xlink:href="#SVGID_5_"  style="overflow:visible;"/>
	</clipPath>
	<path class="magazine22" d="M-127.4,65.3l0.2,0l4.2-0.8c-0.9-1-2.3-2.1-4.3-3.1c-4.8-2.4-11.8-4.1-18.7-4.6l0.5,1.8
		c5.3,0.4,10.6,1.7,14.3,3.6C-129.2,63.1-127.9,64.2-127.4,65.3z"/>
	<path class="magazine23" d="M-112.7,65.6c3.4,1.9,2.5,3.9-2,4.6c-4.4,0.7-10.8-0.2-14.1-2.1c-3.4-1.9-2.5-3.9,2-4.6
		C-122.4,62.8-116.1,63.7-112.7,65.6z"/>
	<path class="magazine24" d="M-115,65.9c2.4,1.3,1.8,2.8-1.4,3.3c-3.2,0.5-7.8-0.2-10.2-1.5c-2.4-1.3-1.8-2.8,1.4-3.3
		C-122,63.9-117.4,64.6-115,65.9z"/>
	<polygon class="magazine24" points="-99.4,68.2 -127.8,72.6 -135.4,68.5 -107,64 	"/>
	<path class="magazine22" d="M-154.7,31.7c5.5,1.6,8.8,4,7.8,6.2c-0.9,1.9-4.9,3.1-10.1,3.2l1.5,1.6c6.7-0.1,11.9-1.6,13-4.1
		c1.3-2.8-3-5.9-10.1-8L-154.7,31.7z"/>
	<path class="magazine22" d="M-158.6,27.9c0.1,0,0.2,0,0.3,0c2.1,0.2,3.8,0.9,3.9,1.6c0.1,0.7-1.5,1.2-3.6,1c-2.1-0.2-3.8-0.9-3.9-1.6
		c0-0.1,0-0.1,0-0.2l-4.5-0.6c0,0.1-0.1,0.3,0,0.4c0.2,1.6,4.1,3.2,8.6,3.6c4.5,0.4,8.1-0.6,7.8-2.2c-0.2-1.6-4.1-3.2-8.6-3.6
		c-0.2,0-0.4,0-0.6,0L-158.6,27.9z"/>
	<path class="magazine25" d="M-152,30.5c1.2,0.5,1.2,1.1,0,1.4s-3,0.1-4.2-0.4c-1.2-0.5-1.2-1.1,0-1.4S-153.2,30-152,30.5z"/>
	<path class="magazine22" d="M-173.1,58.9c-6.1-1-11.2-3.2-12.2-5.6c-0.9-2.1,1.5-3.7,5.9-4.4l-2.7-1.5c-5.7,0.9-8.8,3-7.6,5.7
		c1.3,3,7.8,5.9,15.7,7.2L-173.1,58.9z"/>
	<path class="magazine22" d="M-164.6,62c-0.1,0-0.1,0-0.2,0c-1.7,0.2-4-0.1-5.2-0.8c-1.2-0.7-0.9-1.5,0.8-1.7c1.7-0.2,4,0.1,5.2,0.8
		c0.1,0.1,0.2,0.1,0.3,0.2l4-0.3c-0.2-0.1-0.4-0.3-0.6-0.4c-2.7-1.5-7.8-2.3-11.5-1.8c-3.7,0.5-4.5,2.2-1.8,3.8
		c2.7,1.5,7.8,2.3,11.5,1.8c0.2,0,0.3-0.1,0.5-0.1L-164.6,62z"/>
	<path class="magazine25" d="M-170.5,59.4c0.9,0.5,0.6,1.1-0.7,1.3c-1.3,0.2-3.2-0.1-4.1-0.6c-0.9-0.5-0.6-1.1,0.7-1.3
		C-173.3,58.6-171.5,58.9-170.5,59.4z"/>
	<path class="magazine23" d="M-116.2,66.1c1.9,1.1,1.4,2.2-1.1,2.6c-2.5,0.4-6.1-0.1-8-1.2c-1.9-1.1-1.4-2.2,1.1-2.6
		C-121.7,64.5-118.1,65.1-116.2,66.1z"/>
	<path class="magazine26" d="M-200.9,24.7c1.2,0.5,1.2,1.2,0,1.5c-1.2,0.3-3.1,0.1-4.2-0.4c-1.2-0.5-1.2-1.2,0-1.5
		C-203.9,24-202,24.2-200.9,24.7z"/>
	<path class="magazine27" d="M-204.3,27"/>
	<path class="magazine23" d="M-191.3,35.4c-6.7-1.8-10.9-3.7-12.5-5.8l0-0.1l2-0.5l-5-0.2l2.4-0.6c-0.2-1.3,0.7-2.1,0.8-2.1l0.6,0.1
		c0,0-1,0.8-0.7,2.1l0,0l-1.3,0.3l5,0.2l-3,0.7c1.6,2,5.7,3.9,12.1,5.6L-191.3,35.4z"/>
	<path class="magazine22" d="M-193.1,34.7c-7.6,1.9-7.4,6.1,0.3,9.5l2.2,0.9l27.4-6.8l-2.2-0.9C-173.1,34-185.5,32.8-193.1,34.7z"/>
	<path class="magazine25" d="M-181.9,40.2c0.4,0.2,0.4,0.4,0,0.5c-0.4,0.1-1.1,0-1.5-0.1c-0.4-0.2-0.4-0.4,0-0.5
		C-182.9,39.9-182.3,40-181.9,40.2z"/>
	<path class="magazine25" d="M-177.1,39c0.4,0.2,0.4,0.4,0,0.5c-0.4,0.1-1.1,0-1.5-0.1c-0.4-0.2-0.4-0.4,0-0.5
		C-178.2,38.7-177.5,38.8-177.1,39z"/>
	<polygon class="magazine24" points="-121.6,57.4 -147.4,63.2 -196.3,46.9 -157.6,36.7 	"/>
	<polygon class="magazine23" points="-123.2,57.2 -147.7,62.7 -194.1,47 -157.9,37.5 	"/>
	<path class="magazine24" d="M-171.7,49.8c-4.9-2-5.4-4.6-1-5.8s11.9-0.6,16.8,1.3s5.4,4.6,1,5.8C-159.2,52.4-166.8,51.8-171.7,49.8z"/>
	<polygon class="magazine23" points="-173.3,50.3 -154.4,44.9 -145.5,48.5 -164.3,53.9 	"/>
	<g class="magazine28">
		<path class="magazine6" d="M-175.7,46.6c0,0.3,0.2,0.5,0.3,0.8c0,0,0,0,0,0c0.1,0.1,0.2,0.2,0.3,0.3c0,0,0,0.1,0.1,0.1
			c0.1,0.1,0.2,0.2,0.3,0.3c0,0,0.1,0.1,0.1,0.1c0.1,0.1,0.3,0.2,0.4,0.3c0.1,0,0.1,0.1,0.2,0.1c0.1,0.1,0.3,0.2,0.5,0.3
			c0.1,0,0.1,0.1,0.2,0.1c0.2,0.1,0.4,0.2,0.6,0.3c0.1,0,0.1,0.1,0.1,0.1c0.3,0.1,0.6,0.3,0.9,0.4l7.9-2.2L-175.7,46.6z"/>
		<path class="magazine7" d="M-172.7,44c-0.5,0.1-0.9,0.3-1.3,0.5c0,0,0,0-0.1,0c-0.2,0.1-0.3,0.2-0.4,0.2c0,0-0.1,0-0.1,0.1
			c-0.1,0.1-0.2,0.2-0.3,0.2c0,0-0.1,0.1-0.1,0.1c-0.1,0.1-0.2,0.2-0.2,0.2c0,0-0.1,0.1-0.1,0.1c-0.1,0.1-0.1,0.2-0.2,0.3
			c0,0,0,0.1-0.1,0.1c0,0.1-0.1,0.2-0.1,0.3c0,0,0,0.1,0,0.1c0,0.1,0,0.3,0,0.4l11.9,0.9L-172.7,44z"/>
		<path class="magazine4" d="M-164.6,43.4c0.7,0.1,1.5,0.1,2.2,0.2c0,0,0.1,0,0.1,0c0.3,0,0.6,0.1,0.9,0.2c0.1,0,0.1,0,0.2,0
			c0.3,0.1,0.6,0.1,0.8,0.2c0.1,0,0.2,0,0.3,0.1c0.3,0.1,0.5,0.1,0.8,0.2c0.1,0,0.2,0.1,0.3,0.1c0.2,0.1,0.5,0.1,0.7,0.2
			c0.1,0,0.2,0.1,0.3,0.1c0.3,0.1,0.5,0.2,0.8,0.3c0.1,0,0.1,0,0.2,0.1c0.3,0.1,0.6,0.2,0.9,0.3l-7.9,2.2L-164.6,43.4z"/>
		<path class="magazine8" d="M-172.7,44c0.5-0.1,1-0.3,1.6-0.3c0,0,0.1,0,0.1,0c0.3,0,0.5-0.1,0.8-0.1c0.1,0,0.1,0,0.2,0
			c0.2,0,0.5,0,0.8-0.1c0.1,0,0.2,0,0.3,0c0.2,0,0.5,0,0.7,0c0.1,0,0.2,0,0.3,0c0.3,0,0.5,0,0.8,0c0.1,0,0.2,0,0.3,0
			c0.3,0,0.6,0,0.9,0c0.1,0,0.1,0,0.2,0c0.4,0,0.8,0,1.2,0.1l0.7,4.1L-172.7,44z"/>
	</g>
	<path class="magazine24" d="M-163.8,47c0.3,0.2,0.2,0.3-0.2,0.4s-1,0-1.2-0.2c-0.3-0.2-3.1-2.4-3.1-2.4S-164.1,46.8-163.8,47z"/>
	<path class="magazine22" d="M-162,47c1.2,0.5,1.3,1.1,0.2,1.4c-1,0.3-2.8,0.2-3.9-0.3c-1.2-0.5-1.3-1.1-0.2-1.4
		C-164.9,46.4-163.1,46.6-162,47z"/>
</g>
<g>
	<path class="magazine2" d="M-211.3,30.7c0.6-0.2,1.1-0.2,1.7-0.2c0.5,0,1,0.2,1.4,0.4c0.2,0.1,0.4,0.3,0.4,0.4c0,0.1,0,0.3-0.2,0.4
		c0.4,0,0.7,0,1,0c0.3,0.1,0.6,0.2,0.9,0.3l0.4,0.2c0.1,0.1,0.3,0.1,0.4,0.2c0.1,0,0.2,0,0.3,0l0.2,0l0.4,0.2l-0.4,0.1
		c-0.3,0.1-0.6,0.1-0.9,0c-0.3-0.1-0.6-0.2-0.8-0.3l-0.4-0.2c-0.3-0.1-0.5-0.2-0.9-0.3c-0.3,0-0.6,0-0.9,0.1l-1.2,0.3l1.6,0.9
		l0.7-0.1l0.4,0.2l-1.9,0.5l-0.4-0.2l0.5-0.2l-3.7-2l-0.7,0.1l-0.4-0.2l0.6-0.2L-211.3,30.7z M-210.2,32.1l0.9-0.3
		c0.4-0.1,0.6-0.2,0.7-0.4c0-0.1-0.1-0.3-0.3-0.4c-0.2-0.1-0.5-0.2-0.8-0.2c-0.3,0-0.7,0-1,0.1l-1,0.3L-210.2,32.1z"/>
	<path class="magazine2" d="M-205.6,31.5c-0.5-0.3-0.8-0.6-0.8-0.8c0-0.3,0.3-0.5,0.8-0.6c0.5-0.2,1.1-0.2,1.8-0.1
		c0.6,0.1,1.2,0.3,1.7,0.6l0.1,0c0.5,0.3,0.8,0.6,0.8,0.8c0,0.3-0.3,0.5-0.8,0.6c-0.5,0.2-1.1,0.2-1.8,0.1
		C-204.4,32-205,31.8-205.6,31.5L-205.6,31.5z M-204.8,31.3c0.4,0.2,0.8,0.3,1.2,0.4c0.4,0.1,0.8,0.1,1.1,0c0.3-0.1,0.5-0.2,0.4-0.4
		c-0.1-0.2-0.3-0.4-0.6-0.6l-0.1,0c-0.4-0.2-0.8-0.3-1.2-0.4c-0.4-0.1-0.8-0.1-1.1,0s-0.5,0.2-0.4,0.4
		C-205.4,30.9-205.2,31.1-204.8,31.3L-204.8,31.3z"/>
	<path class="magazine2" d="M-197.6,29.4c0.5,0.3,0.8,0.5,0.8,0.8c0,0.2-0.2,0.4-0.7,0.6c-0.3,0.1-0.5,0.1-0.8,0.1c-0.3,0-0.6,0-0.9-0.1
		l0.4,0.3l-0.6,0.2l-4.5-2.4l-0.7,0.1l-0.4-0.2l1.3-0.4l1.9,1.1c0-0.1,0-0.2,0.1-0.3c0.1-0.1,0.3-0.2,0.5-0.2c0.5-0.1,1-0.2,1.7,0
		C-198.8,28.8-198.2,29-197.6,29.4L-197.6,29.4z M-198.4,29.5c-0.4-0.2-0.8-0.4-1.2-0.5c-0.4-0.1-0.8-0.1-1.1,0
		c-0.2,0.1-0.4,0.1-0.4,0.2c-0.1,0.1-0.1,0.2,0,0.3l1.5,0.8c0.2,0.1,0.5,0.1,0.7,0.1c0.2,0,0.5,0,0.7-0.1c0.3-0.1,0.5-0.2,0.4-0.4
		C-197.8,29.9-198,29.8-198.4,29.5L-198.4,29.5z"/>
	<path class="magazine2" d="M-197,29.1c-0.5-0.3-0.8-0.6-0.8-0.8c0-0.3,0.3-0.5,0.8-0.6c0.5-0.2,1.1-0.2,1.8-0.1c0.6,0.1,1.2,0.3,1.7,0.6
		l0.1,0c0.5,0.3,0.8,0.6,0.8,0.8c0,0.3-0.3,0.5-0.8,0.6c-0.5,0.2-1.1,0.2-1.8,0.1C-195.9,29.6-196.4,29.4-197,29.1L-197,29.1z
		 M-196.2,28.9c0.4,0.2,0.7,0.3,1.2,0.4c0.4,0.1,0.8,0.1,1.1,0c0.3-0.1,0.5-0.2,0.4-0.4c-0.1-0.2-0.3-0.4-0.6-0.6l-0.1,0
		c-0.4-0.2-0.7-0.3-1.2-0.4c-0.4-0.1-0.8-0.1-1.1,0c-0.3,0.1-0.5,0.2-0.4,0.4C-196.9,28.5-196.7,28.7-196.2,28.9L-196.2,28.9z"/>
	<path class="magazine2" d="M-194.1,26.2l0.8,0.5l0.8-0.2l0.5,0.3l-0.8,0.2l2.1,1.1c0.2,0.1,0.3,0.1,0.5,0.2c0.1,0,0.3,0,0.4,0
		c0.1,0,0.1,0,0.2-0.1s0.1-0.1,0.2-0.1l0.5,0.2c0,0-0.1,0.1-0.2,0.1s-0.2,0.1-0.4,0.1c-0.3,0.1-0.6,0.1-0.9,0.1
		c-0.3,0-0.6-0.1-1-0.3l-2.1-1.1l-0.6,0.2l-0.5-0.3l0.6-0.2l-0.8-0.5L-194.1,26.2z"/>
	<path class="magazine2" d="M-202.1,38.4l-0.4-0.2l0.5-0.2l-3.6-2l-0.7,0.1l-0.4-0.2l0.6-0.2l0.7-0.2l0.6-0.2l0.4,0.2l-0.5,0.2l3.6,2
		l1.8-0.5l-0.5-0.3l0.6-0.2l1,0.5L-202.1,38.4z"/>
	<path class="magazine2" d="M-198.1,36.9l0.5-0.2l-2.4-1.3l-0.7,0.1l-0.4-0.2l1.3-0.4l2.9,1.6l0.7-0.1l0.4,0.2l-1.9,0.5L-198.1,36.9z
		 M-200.7,34.4l-0.7,0.2l-0.6-0.3l0.7-0.2L-200.7,34.4z"/>
	<path class="magazine2" d="M-196.9,34.4l-0.4,0.2l2.7,0.8l0.3,0.1l0,0l-0.2-0.2l-1.1-1.3l-0.5,0.1l-0.4-0.2l1.5-0.4l0.4,0.2l-0.3,0.1
		l1.6,2l-0.5,0.2l-4.3-1.2l-0.4,0.1l-0.4-0.2l1.5-0.4L-196.9,34.4z"/>
	<path class="magazine2" d="M-191.5,35.1l0.5-0.2l-2.4-1.3l-0.7,0.1l-0.4-0.2l1.3-0.4l2.9,1.6l0.7-0.1l0.4,0.2l-1.9,0.5L-191.5,35.1z
		 M-194.1,32.6l-0.7,0.2l-0.6-0.3l0.7-0.2L-194.1,32.6z"/>
	<path class="magazine2" d="M-189.2,34.4l0.5-0.2l-2.4-1.3l-0.7,0.1l-0.4-0.2l1.2-0.3l0.6,0.3c0-0.1,0-0.3,0.1-0.4
		c0.1-0.1,0.3-0.2,0.5-0.3c0.4-0.1,0.9-0.2,1.3-0.1c0.4,0.1,0.9,0.2,1.3,0.4l1.6,0.9l0.7-0.1l0.4,0.2l-1.9,0.5l-0.4-0.2l0.5-0.2
		l-1.6-0.9c-0.3-0.2-0.6-0.3-0.8-0.3c-0.3,0-0.5,0-0.8,0.1c-0.2,0.1-0.3,0.1-0.4,0.2c-0.1,0.1-0.1,0.2,0,0.3l2,1.1l0.7-0.1l0.4,0.2
		l-1.9,0.5L-189.2,34.4z"/>
	<path class="magazine2" d="M-185.6,32.4c-0.5-0.3-0.8-0.6-0.9-0.8c-0.1-0.3,0.2-0.5,0.6-0.6c0.2-0.1,0.5-0.1,0.8-0.1c0.3,0,0.5,0,0.8,0.1
		l-0.4-0.3l0.6-0.2l3.3,1.8c0.4,0.2,0.6,0.5,0.6,0.7c0,0.2-0.3,0.4-0.8,0.5c-0.2,0.1-0.4,0.1-0.7,0.1c-0.3,0-0.5,0.1-0.8,0.1
		l-0.3-0.3c0.2,0,0.4,0,0.6-0.1c0.2,0,0.4-0.1,0.6-0.1c0.3-0.1,0.5-0.2,0.5-0.3c0-0.1-0.1-0.3-0.4-0.4l-0.3-0.2c0,0.1,0,0.2-0.1,0.3
		c-0.1,0.1-0.3,0.2-0.5,0.2c-0.5,0.1-1,0.2-1.6,0.1C-184.5,32.8-185,32.7-185.6,32.4L-185.6,32.4z M-184.8,32.2
		c0.3,0.2,0.7,0.3,1.1,0.4c0.4,0.1,0.7,0.1,1.1,0c0.2-0.1,0.4-0.1,0.4-0.2c0.1-0.1,0.1-0.2,0-0.3l-1.5-0.9c-0.2-0.1-0.5-0.1-0.7-0.1
		c-0.2,0-0.5,0-0.7,0.1c-0.3,0.1-0.5,0.2-0.4,0.4C-185.5,31.7-185.2,31.9-184.8,32.2L-184.8,32.2z"/>
</g>
<g class="magazine29">
	<defs>
		<path id="SVGID_7_" class="magazine29" d="M-182.1,52.7l-49-22c0,0,5.6,28.6,3.1,55.1s-8.8,56.9-8.8,56.9l48.8,28.1l1.3-0.6
			c0,0,4.6-23.6,7.6-55.2c3-31.7-2.1-62.4-2.1-62.4L-182.1,52.7z"/>
	</defs>
	<clipPath id="SVGID_8_">
		<use xlink:href="#SVGID_7_"  style="overflow:visible;"/>
	</clipPath>
	<g class="magazine30">
		<polygon class="magazine9" points="-168.6,65 -247.4,29.8 -248.4,34.9 -169.2,69.8 		"/>
		<polygon class="magazine9" points="-170.5,75.1 -249.3,40 -248.4,41.6 -169.2,76.6 		"/>
		<polygon class="magazine9" points="-168.9,79.9 -247.7,46.7 -248.1,49.8 -168.9,82.7 		"/>
		<polygon class="magazine9" points="-170.6,85.5 -249.4,52.4 -250.4,57.5 -171.2,90.4 		"/>
		<polygon class="magazine9" points="-172.5,95.7 -251.3,62.5 -250.4,64.2 -171.2,97.2 		"/>
		<polygon class="magazine9" points="-170.9,100.5 -249.7,67.3 -250.1,70.3 -170.9,103.3 		"/>
		<polygon class="magazine9" points="-170.1,109.3 -249,76.2 -250,81.2 -170.7,114.2 		"/>
		<polygon class="magazine9" points="-172,119.5 -250.9,86.3 -250,88 -170.7,121 		"/>
		<polygon class="magazine9" points="-170.4,126.2 -249.3,91.1 -249.7,94.1 -170.4,129.1 		"/>
		<polygon class="magazine9" points="-167.6,133.2 -246.4,98 -247.4,103.1 -168.2,138 		"/>
		<polygon class="magazine9" points="-169.5,144.3 -248.3,108.2 -247.4,109.8 -168.2,145.8 		"/>
		<polygon class="magazine9" points="-167.9,149.1 -246.7,112.9 -247.1,116 -167.9,151.9 		"/>
		<polygon class="magazine9" points="-163,157.6 -243.4,119.8 -244.4,124.9 -163.6,162.4 		"/>
		<polygon class="magazine9" points="-166.5,167.1 -245.3,127.3 -244.4,128.9 -165.2,168.6 		"/>
		<polygon class="magazine9" points="-162,174.7 -239.8,133.7 -240.4,136.7 -162.3,177.5 		"/>
	</g>
</g>
<polygon class="magazine11" points="-214.5,59.7 -228,55.5 -231.1,61.2 "/>
<polygon class="magazine11" points="-183.8,82.6 -199.9,78.3 -195.8,84.1 "/>
<polygon class="magazine11" points="-208,113.1 -224.1,108.9 -220,114.6 "/>
<polygon class="magazine11" points="-219.5,128.3 -233,124 -236.1,129.8 "/>
<path class="magazine0" d="M-226.1,141.4c-7.8,7-19.4,8.8-29.2,3.6c-8.5-4.5-13.5-13.1-13.8-22.1c0-0.2,0.1-0.3,0.1-0.5
	c0-2.1-1.7-3.8-3.8-3.8s-3.8,1.7-3.8,3.8c0,0,0,0,0,0.1l0,0c0.1,11.8,6.6,23.2,17.8,29.1c12.6,6.6,27.6,4.3,37.6-4.7L-226.1,141.4z"
	/>
<g>
	<path class="magazine0" d="M-209,136.6c0,0.2,0,0.3,0,0.5c0,3.5-2.9,6.2-6.3,6.2c-3.5,0-6.2-2.9-6.2-6.3c0-3.5,2.9-6.2,6.3-6.2
		c0.3,0,0.6,0,0.9,0.1l1.1-7.4c-0.6-0.1-1.3-0.2-1.9-0.2c-7.6-0.1-13.8,6-13.9,13.6c-0.1,7.6,6,13.8,13.6,13.9
		c7.6,0.1,13.8-6,13.9-13.6c0-0.3,0-0.7,0-1L-209,136.6z"/>
	<circle class="magazine3" cx="-222.7" cy="143.6" r="4.9"/>
</g>
<g>
	<path class="magazine0" d="M147.1,103.6c-7.1,7.7-18.5,10.6-28.7,6.4c-9.1-3.7-14.9-12-15.9-21.2l-7.4,0.8c1.2,11.8,8.8,22.5,20.5,27.3
		c13.2,5.4,27.9,1.7,37-8.2L147.1,103.6z"/>
	<path class="magazine0" d="M164.9,101.2c0,0.2,0,0.3-0.1,0.5c-0.7,3.4-4,5.6-7.3,4.9c-3.4-0.7-5.6-4-4.9-7.3c0.7-3.4,4-5.6,7.3-4.9
		c0.3,0.1,0.6,0.1,0.8,0.2l2.4-7.1c-0.6-0.2-1.2-0.4-1.8-0.5c-7.5-1.5-14.7,3.4-16.1,10.9c-1.5,7.5,3.4,14.7,10.9,16.1
		c7.5,1.5,14.7-3.4,16.1-10.9c0.1-0.3,0.1-0.7,0.1-1L164.9,101.2z"/>
	<circle class="magazine3" cx="150.6" cy="105.5" r="4.9"/>
</g>
<path class="magazine11" d="M155.1,21l-36.4,9.5l-5.5,117.7l35.5-12.7c0,0,4.9-13.2,8.9-55.7C161.7,37.2,155.1,21,155.1,21z"/>
<path class="magazine31" d="M118.2,40.9l0,0.4l39.3-9.1c-0.3-2-0.6-3.7-0.9-5.1l-38.3,9.1L118.2,40.9z"/>
<path class="magazine31" d="M118.3,48l40-9.3c0-0.5-0.1-0.9-0.1-1.4l-38.6,9.2L118.3,48z"/>
<path class="magazine31" d="M158.5,41.7L118,51.3l0,2.9l40.8-9.4C158.7,43.7,158.6,42.6,158.5,41.7z"/>
<path class="magazine31" d="M158.8,47.6l-39.2,9.3l0.6,4.9l38.7-8.9C158.9,51.1,158.9,49.3,158.8,47.6z"/>
<path class="magazine31" d="M158.9,58.2l-37.3,8.9l-1.3,1.5l38.6-8.9C158.8,59.2,158.9,58.7,158.9,58.2z"/>
<path class="magazine31" d="M158.7,62.6l-38.8,9.2l0,2.9l38.7-8.9C158.7,64.7,158.7,63.7,158.7,62.6z"/>
<path class="magazine31" d="M158.3,71.4l-39.1,9.3l0.6,4.9l38.1-8.8C158,75,158.1,73.2,158.3,71.4z"/>
<path class="magazine31" d="M157.3,82.3l-36.3,8.6l-1.3,1.5l37.4-8.7C157.2,83.2,157.3,82.7,157.3,82.3z"/>
<path class="magazine31" d="M156.9,86.8l-37.4,8.9l0,2.9l37.1-8.5C156.6,88.9,156.8,87.8,156.9,86.8z"/>
<path class="magazine31" d="M156.2,93.2l-39.5,9.4l0.6,4.9l38.3-8.8C155.7,96.9,155.9,95.1,156.2,93.2z"/>
<path class="magazine31" d="M154.8,104.1l-36.3,8.6l-1.3,1.5l37.4-8.6C154.7,105.1,154.7,104.6,154.8,104.1z"/>
<path class="magazine31" d="M154.1,108.6l-37.2,8.8l0,2.9l36.7-8.5C153.8,110.8,154,109.8,154.1,108.6z"/>
<path class="magazine31" d="M114,130.5l38.2-9.9c0.3-1.7,0.6-3.5,1-5.6l-38.9,10.3L114,130.5z"/>
<path class="magazine31" d="M151.6,123.7l-36,10.8l-1.3,1.5l37-10.8C151.4,124.7,151.5,124.2,151.6,123.7z"/>
<path class="magazine31" d="M113.3,144.3l36.2-11.8c0.2-0.9,0.5-2.1,0.9-3.5l-37,12.4L113.3,144.3z"/>
<path class="magazine32" d="M155.1,21l-36.4,9.5l-5.5,117.7l35.5-12.7c0,0,4.9-13.2,8.9-55.7C161.7,37.2,155.1,21,155.1,21z"/>
<g>
	<circle class="magazine33" cx="5" cy="17.3" r="5"/>
	<path class="magazine5" d="M14.5,15.6"/>
	<path class="magazine5" d="M47.7,39.2C42.1,25.9,34.1,20,27,17.5l-4.5,3.9l1.8-8.3l-3.4,3C14.6,15.4,10,16.8,10,16.8"/>
</g>
<path class="magazine0" d="M48.6,32.2c-17.3,5-27.3,23.2-22.2,40.5l1.4,4.9l62.7-18.3l-1.4-4.9C84.1,37.2,65.9,27.2,48.6,32.2z"/>
<circle class="magazine3" cx="55" cy="53.5" r="1.7"/>
<circle class="magazine3" cx="64.9" cy="49.4" r="1.7"/>
<g>
	<polygon class="magazine1" points="113.1,155 58.6,168.8 17.2,84.3 101.5,57.7 	"/>
	<g>
		<circle class="magazine2" cx="67.4" cy="98.4" r="19.8"/>

			<rect x="46.8" y="97.9" transform="matrix(-0.9443 0.329 -0.329 -0.9443 172.7308 186.3147)" class="magazine1" width="47.5" height="19.8"/>
		<g>
			<path class="magazine34" d="M49.5,89.8c-0.5,1.1-0.9,2.2-1.3,3.4c0,0.1,0,0.1-0.1,0.2c-0.1,0.5-0.2,1-0.3,1.6c0,0.1-0.1,0.2-0.1,0.3
				c-0.1,0.5-0.1,1-0.2,1.5c0,0.2,0,0.3,0,0.5c0,0.5,0,0.9,0,1.4c0,0.2,0,0.4,0,0.6c0,0.4,0.1,0.9,0.1,1.3c0,0.2,0,0.4,0.1,0.6
				c0.1,0.5,0.2,1,0.3,1.5c0,0.1,0,0.3,0.1,0.4c0.2,0.6,0.3,1.3,0.6,1.9l18.7-6.5L49.5,89.8z"/>
			<path class="magazine35" d="M60.8,79.7c-1.1,0.4-2.2,0.9-3.3,1.5c-0.1,0-0.1,0.1-0.2,0.1c-0.5,0.3-0.9,0.6-1.3,0.9
				c-0.1,0.1-0.2,0.1-0.3,0.2c-0.4,0.3-0.8,0.6-1.1,0.9c-0.1,0.1-0.3,0.2-0.4,0.3c-0.3,0.3-0.7,0.6-1,1c-0.1,0.1-0.3,0.3-0.4,0.4
				c-0.3,0.3-0.6,0.7-0.9,1c-0.1,0.2-0.3,0.3-0.4,0.5c-0.3,0.4-0.6,0.8-0.9,1.3c-0.1,0.1-0.1,0.2-0.2,0.3c-0.3,0.6-0.7,1.1-1,1.8
				l17.8,8.6L60.8,79.7z"/>
			<path class="magazine4" d="M76,80.6c1.1,0.5,2.1,1.2,3.1,1.9c0,0,0.1,0.1,0.1,0.1c0.4,0.3,0.8,0.7,1.2,1c0.1,0.1,0.2,0.1,0.3,0.2
				c0.4,0.3,0.7,0.7,1,1c0.1,0.1,0.2,0.2,0.3,0.4c0.3,0.3,0.6,0.7,0.9,1.1c0.1,0.2,0.3,0.3,0.4,0.5c0.3,0.4,0.5,0.7,0.7,1.1
				c0.1,0.2,0.2,0.3,0.3,0.5c0.3,0.4,0.5,0.9,0.7,1.4c0.1,0.1,0.1,0.2,0.2,0.3c0.3,0.6,0.5,1.2,0.8,1.8l-18.7,6.5L76,80.6z"/>
			<path class="magazine36" d="M60.8,79.7c1.1-0.4,2.3-0.7,3.5-0.9c0.1,0,0.1,0,0.2,0c0.5-0.1,1.1-0.1,1.6-0.2c0.1,0,0.2,0,0.4,0
				c0.5,0,1,0,1.5,0c0.2,0,0.3,0,0.5,0c0.5,0,0.9,0.1,1.4,0.1c0.2,0,0.4,0,0.6,0.1c0.4,0.1,0.9,0.2,1.3,0.3c0.2,0,0.4,0.1,0.6,0.1
				c0.5,0.1,1,0.3,1.5,0.5c0.1,0,0.2,0.1,0.4,0.1c0.6,0.2,1.2,0.5,1.8,0.8l-8.6,17.8L60.8,79.7z"/>
		</g>
		<path class="magazine2" d="M68.7,95.8c0.1,0.8-0.5,1.5-1.4,1.6c-0.8,0.1-1.5-0.5-1.6-1.4c-0.1-0.8,0.6-11.5,0.6-11.5S68.7,95,68.7,95.8z
			"/>
		<circle class="magazine0" cx="67.4" cy="98.4" r="4.7"/>
	</g>
</g>
<path class="magazine37" d="M118.7,30.4L68.7,8.7c0,0,5.6,28.6,3.1,55.1S63,120.7,63,120.7l48.8,28.1l1.3-0.6c0,0,4.6-23.6,7.6-55.2
	C123.8,61.2,118.7,30.4,118.7,30.4L118.7,30.4z"/>
<polygon class="magazine38" points="68.7,8.7 109.9,0 155.1,21 118.7,30.4 "/>
<polygon class="magazine2" points="122.9,60.6 139,56.3 134.9,62.1 "/>
<polygon class="magazine2" points="139,108.5 155.1,104.2 157.5,107.1 "/>
<polygon class="magazine2" points="137.5,76.5 153.6,72.3 149.5,78 "/>
<polygon class="magazine2" points="142,39.2 158.1,35 160.5,37.9 "/>
<path class="magazine0" d="M149.3,18.3c-1.7,0.5-3.9,0.8-6.4,0.8l1.5,1.6c3-0.1,5.8-0.4,8-1L149.3,18.3z"/>
<path class="magazine0" d="M115.2,28.9c1-0.9,2.8-1.6,5.3-2l-2.7-1.5c-2.6,0.4-4.7,1.1-6.1,2L115.2,28.9z"/>
<path class="magazine33" d="M94.8,3.7C96,4.2,97.9,4.4,99,4.1c1.2-0.3,1.1-0.9,0-1.5c-0.2-0.1-0.5-0.2-0.7-0.2l-4.2,0.9
	C94.3,3.5,94.5,3.6,94.8,3.7z"/>
<path class="magazine5" d="M95.6,5"/>
<path class="magazine1" d="M108.5,13.4c-6.7-1.8-10.9-3.7-12.5-5.8l0-0.1l2-0.5l-5-0.2l2.4-0.6c-0.2-1.3,0.7-2.1,0.8-2.1l0.6,0.1
	c0,0-1,0.8-0.7,2.1l0,0l-1.3,0.3l5,0.2l-3,0.7c1.6,2,5.7,3.9,12.1,5.6L108.5,13.4z"/>
<path class="magazine0" d="M106.8,12.7c-7.6,1.9-7.4,6.1,0.3,9.5l2.2,0.9l27.4-6.8l-2.2-0.9C126.8,12,114.4,10.8,106.8,12.7z"/>
<path class="magazine3" d="M118,18.2c0.4,0.2,0.4,0.4,0,0.5c-0.4,0.1-1.1,0-1.5-0.1c-0.4-0.2-0.4-0.4,0-0.5C116.9,17.9,117.6,18,118,18.2z
	"/>
<path class="magazine3" d="M122.7,17c0.4,0.2,0.4,0.4,0,0.5c-0.4,0.1-1.1,0-1.5-0.1c-0.4-0.2-0.4-0.4,0-0.5
	C121.7,16.8,122.3,16.8,122.7,17z"/>
<polygon class="magazine1" points="108.5,26 120.4,30 152.6,21.6 141.9,15.5 106.1,24.9 "/>
<polygon class="magazine1" points="145.5,22.9 126.6,28.3 126.7,28.3 146.3,23.2 "/>
<g>
	<path class="magazine34" d="M124.2,24.6c0,0.3,0.2,0.5,0.3,0.8c0,0,0,0,0,0c0.1,0.1,0.2,0.2,0.3,0.3c0,0,0,0.1,0.1,0.1
		c0.1,0.1,0.2,0.2,0.3,0.3c0,0,0.1,0.1,0.1,0.1c0.1,0.1,0.3,0.2,0.4,0.3c0.1,0,0.1,0.1,0.2,0.1c0.1,0.1,0.3,0.2,0.5,0.3
		c0.1,0,0.1,0.1,0.2,0.1c0.2,0.1,0.4,0.2,0.6,0.3c0.1,0,0.1,0.1,0.1,0.1c0.3,0.1,0.6,0.3,0.9,0.4l7.9-2.2L124.2,24.6z"/>
	<path class="magazine35" d="M127.1,22c-0.5,0.1-0.9,0.3-1.3,0.5c0,0,0,0-0.1,0c-0.2,0.1-0.3,0.2-0.4,0.2c0,0-0.1,0-0.1,0.1
		c-0.1,0.1-0.2,0.2-0.3,0.2c0,0-0.1,0.1-0.1,0.1c-0.1,0.1-0.2,0.2-0.2,0.2c0,0-0.1,0.1-0.1,0.1c-0.1,0.1-0.1,0.2-0.2,0.3
		c0,0,0,0.1-0.1,0.1c0,0.1-0.1,0.2-0.1,0.3c0,0,0,0.1,0,0.1c0,0.1,0,0.3,0,0.4l11.9,0.9L127.1,22z"/>
	<path class="magazine39" d="M135.3,21.5c0.7,0.1,1.5,0.1,2.2,0.2c0,0,0.1,0,0.1,0c0.3,0,0.6,0.1,0.9,0.2c0.1,0,0.1,0,0.2,0
		c0.3,0.1,0.6,0.1,0.8,0.2c0.1,0,0.2,0,0.3,0.1c0.3,0.1,0.5,0.1,0.8,0.2c0.1,0,0.2,0.1,0.3,0.1c0.2,0.1,0.5,0.1,0.7,0.2
		c0.1,0,0.2,0.1,0.3,0.1c0.3,0.1,0.5,0.2,0.8,0.3c0.1,0,0.1,0,0.2,0.1c0.3,0.1,0.6,0.2,0.9,0.3l-7.9,2.2L135.3,21.5z"/>
	<path class="magazine36" d="M127.1,22c0.5-0.1,1-0.3,1.6-0.3c0,0,0.1,0,0.1,0c0.3,0,0.5-0.1,0.8-0.1c0.1,0,0.1,0,0.2,0
		c0.2,0,0.5,0,0.8-0.1c0.1,0,0.2,0,0.3,0c0.2,0,0.5,0,0.7,0c0.1,0,0.2,0,0.3,0c0.3,0,0.5,0,0.8,0c0.1,0,0.2,0,0.3,0
		c0.3,0,0.6,0,0.9,0c0.1,0,0.1,0,0.2,0c0.4,0,0.8,0,1.2,0.1l0.7,4.1L127.1,22z"/>
</g>
<path class="magazine2" d="M136,25c0.3,0.2,0.2,0.3-0.2,0.4c-0.4,0.1-1,0-1.2-0.2c-0.3-0.2-3.1-2.4-3.1-2.4S135.7,24.8,136,25z"/>
<path class="magazine0" d="M137.9,25.1c1.2,0.5,1.3,1.1,0.2,1.4c-1,0.3-2.8,0.2-3.9-0.3c-1.2-0.5-1.3-1.1-0.2-1.4S136.7,24.6,137.9,25.1z"
	/>
<polygon class="magazine32" points="155.1,21 118.7,30.4 68.7,8.7 109.9,0 "/>
<g>
	<path class="magazine2" d="M88.6,8.7c0.6-0.2,1.1-0.2,1.7-0.2c0.5,0,1,0.2,1.4,0.4C91.9,9,92,9.2,92.1,9.3c0,0.1,0,0.3-0.2,0.4
		c0.4,0,0.7,0,1,0c0.3,0.1,0.6,0.2,0.9,0.3l0.4,0.2c0.1,0.1,0.3,0.1,0.4,0.2c0.1,0,0.2,0,0.3,0l0.2,0l0.4,0.2l-0.4,0.1
		c-0.3,0.1-0.6,0.1-0.9,0c-0.3-0.1-0.6-0.2-0.8-0.3l-0.4-0.2c-0.3-0.1-0.5-0.2-0.9-0.3c-0.3,0-0.6,0-0.9,0.1l-1.2,0.3l1.6,0.9
		l0.7-0.1l0.4,0.2l-1.9,0.5l-0.4-0.2l0.5-0.2l-3.7-2l-0.7,0.1l-0.4-0.2l0.6-0.2L88.6,8.7z M89.6,10.1l0.9-0.3
		c0.4-0.1,0.6-0.2,0.7-0.4c0-0.1-0.1-0.3-0.3-0.4c-0.2-0.1-0.5-0.2-0.8-0.2c-0.3,0-0.7,0-1,0.1l-1,0.3L89.6,10.1z"/>
	<path class="magazine2" d="M94.3,9.5c-0.5-0.3-0.8-0.6-0.8-0.8c0-0.3,0.3-0.5,0.8-0.6c0.5-0.2,1.1-0.2,1.8-0.1c0.6,0.1,1.2,0.3,1.7,0.6
		l0.1,0c0.5,0.3,0.8,0.6,0.8,0.8c0,0.3-0.3,0.5-0.8,0.6c-0.5,0.2-1.1,0.2-1.8,0.1C95.4,10,94.9,9.8,94.3,9.5L94.3,9.5z M95.1,9.3
		c0.4,0.2,0.8,0.3,1.2,0.4c0.4,0.1,0.8,0.1,1.1,0c0.3-0.1,0.5-0.2,0.4-0.4c-0.1-0.2-0.3-0.4-0.6-0.6l-0.1,0
		c-0.4-0.2-0.8-0.3-1.2-0.4c-0.4-0.1-0.8-0.1-1.1,0c-0.3,0.1-0.5,0.2-0.4,0.4C94.4,8.9,94.6,9.1,95.1,9.3L95.1,9.3z"/>
	<path class="magazine2" d="M102.3,7.4c0.5,0.3,0.8,0.5,0.8,0.8c0,0.2-0.2,0.4-0.7,0.6c-0.3,0.1-0.5,0.1-0.8,0.1c-0.3,0-0.6,0-0.9-0.1
		l0.4,0.3l-0.6,0.2L96,6.8l-0.7,0.1l-0.4-0.2l1.3-0.4l1.9,1.1c0-0.1,0-0.2,0.1-0.3c0.1-0.1,0.3-0.2,0.5-0.2c0.5-0.1,1-0.2,1.7,0
		C101.1,6.9,101.6,7.1,102.3,7.4L102.3,7.4z M101.5,7.6c-0.4-0.2-0.8-0.4-1.2-0.5c-0.4-0.1-0.8-0.1-1.1,0c-0.2,0.1-0.4,0.1-0.4,0.2
		c-0.1,0.1-0.1,0.2,0,0.3l1.5,0.8c0.2,0.1,0.5,0.1,0.7,0.1c0.2,0,0.5,0,0.7-0.1c0.3-0.1,0.5-0.2,0.4-0.4
		C102.1,8,101.9,7.8,101.5,7.6L101.5,7.6z"/>
	<path class="magazine2" d="M102.8,7.1c-0.5-0.3-0.8-0.6-0.8-0.8c0-0.3,0.3-0.5,0.8-0.6c0.5-0.2,1.1-0.2,1.8-0.1c0.6,0.1,1.2,0.3,1.7,0.6
		l0.1,0c0.5,0.3,0.8,0.6,0.8,0.8c0,0.3-0.3,0.5-0.8,0.6c-0.5,0.2-1.1,0.2-1.8,0.1C104,7.6,103.4,7.4,102.8,7.1L102.8,7.1z
		 M103.6,6.9c0.4,0.2,0.7,0.3,1.2,0.4c0.4,0.1,0.8,0.1,1.1,0c0.3-0.1,0.5-0.2,0.4-0.4c-0.1-0.2-0.3-0.4-0.6-0.6l-0.1,0
		c-0.4-0.2-0.7-0.3-1.2-0.4c-0.4-0.1-0.8-0.1-1.1,0c-0.3,0.1-0.5,0.2-0.4,0.4C103,6.5,103.2,6.7,103.6,6.9L103.6,6.9z"/>
	<path class="magazine2" d="M105.8,4.2l0.8,0.5l0.8-0.2l0.5,0.3l-0.8,0.2l2.1,1.1c0.2,0.1,0.3,0.1,0.5,0.2c0.1,0,0.3,0,0.4,0
		c0.1,0,0.1,0,0.2-0.1c0.1,0,0.1-0.1,0.2-0.1l0.5,0.2c0,0-0.1,0.1-0.2,0.1c-0.1,0.1-0.2,0.1-0.4,0.1c-0.3,0.1-0.6,0.1-0.9,0.1
		c-0.3,0-0.6-0.1-1-0.3l-2.1-1.1l-0.6,0.2L105.3,5l0.6-0.2l-0.8-0.5L105.8,4.2z"/>
	<path class="magazine2" d="M97.7,16.4l-0.4-0.2l0.5-0.2l-3.6-2l-0.7,0.1l-0.4-0.2l0.6-0.2l0.7-0.2l0.6-0.2l0.4,0.2l-0.5,0.2l3.6,2
		l1.8-0.5l-0.5-0.3l0.6-0.2l1,0.5L97.7,16.4z"/>
	<path class="magazine2" d="M101.8,14.9l0.5-0.2l-2.4-1.3l-0.7,0.1l-0.4-0.2l1.3-0.4l2.9,1.6l0.7-0.1l0.4,0.2l-1.9,0.5L101.8,14.9z
		 M99.2,12.5l-0.7,0.2l-0.6-0.3l0.7-0.2L99.2,12.5z"/>
	<path class="magazine2" d="M102.9,12.4l-0.4,0.2l2.7,0.8l0.3,0.1l0,0l-0.2-0.2l-1.1-1.3l-0.5,0.1l-0.4-0.2l1.5-0.4l0.4,0.2l-0.3,0.1
		l1.6,2l-0.5,0.2l-4.3-1.2l-0.4,0.1l-0.4-0.2l1.5-0.4L102.9,12.4z"/>
	<path class="magazine2" d="M108.3,13.1l0.5-0.2l-2.4-1.3l-0.7,0.1l-0.4-0.2l1.3-0.4l2.9,1.6l0.7-0.1l0.4,0.2l-1.9,0.5L108.3,13.1z
		 M105.8,10.6l-0.7,0.2l-0.6-0.3l0.7-0.2L105.8,10.6z"/>
	<path class="magazine2" d="M110.7,12.4l0.5-0.2l-2.4-1.3l-0.7,0.1l-0.4-0.2l1.2-0.3l0.6,0.3c0-0.1,0-0.3,0.1-0.4c0.1-0.1,0.3-0.2,0.5-0.3
		c0.4-0.1,0.9-0.2,1.3-0.1c0.4,0.1,0.9,0.2,1.3,0.4l1.6,0.9l0.7-0.1l0.4,0.2l-1.9,0.5l-0.4-0.2l0.5-0.2l-1.6-0.9
		c-0.3-0.2-0.6-0.3-0.8-0.3c-0.3,0-0.5,0-0.8,0.1c-0.2,0.1-0.3,0.1-0.4,0.2c-0.1,0.1-0.1,0.2,0,0.3l2,1.1l0.7-0.1l0.4,0.2l-1.9,0.5
		L110.7,12.4z"/>
	<path class="magazine2" d="M114.3,10.4c-0.5-0.3-0.8-0.6-0.9-0.8c-0.1-0.3,0.2-0.5,0.6-0.6c0.2-0.1,0.5-0.1,0.8-0.1c0.3,0,0.5,0,0.8,0.1
		l-0.4-0.3l0.6-0.2l3.3,1.8c0.4,0.2,0.6,0.5,0.6,0.7c0,0.2-0.3,0.4-0.8,0.5c-0.2,0.1-0.4,0.1-0.7,0.1c-0.3,0-0.5,0.1-0.8,0.1
		l-0.3-0.3c0.2,0,0.4,0,0.6-0.1c0.2,0,0.4-0.1,0.6-0.1c0.3-0.1,0.5-0.2,0.5-0.3c0-0.1-0.1-0.3-0.4-0.4l-0.3-0.2c0,0.1,0,0.2-0.1,0.3
		c-0.1,0.1-0.3,0.2-0.5,0.2c-0.5,0.1-1,0.2-1.6,0.1C115.4,10.9,114.8,10.7,114.3,10.4L114.3,10.4z M115.1,10.2
		c0.3,0.2,0.7,0.3,1.1,0.4c0.4,0.1,0.7,0.1,1.1,0c0.2-0.1,0.4-0.1,0.4-0.2c0.1-0.1,0.1-0.2,0-0.3l-1.5-0.9c-0.2-0.1-0.5-0.1-0.7-0.1
		c-0.2,0-0.5,0-0.7,0.1c-0.3,0.1-0.5,0.2-0.4,0.4C114.4,9.8,114.6,10,115.1,10.2L115.1,10.2z"/>
</g>
<path class="magazine38" d="M119.7,37.8L69.9,15.6c0.2,1.7,0.5,3.6,0.8,5.8l49.6,21.9C120.1,41.3,119.9,39.4,119.7,37.8z"/>
<path class="magazine38" d="M120.8,49.3L71.3,27.3c0,0.4,0.1,0.8,0.1,1.2l49.4,21.8C120.9,50,120.9,49.7,120.8,49.3z"/>
<path class="magazine38" d="M121.1,53.8L71.8,33.1c0.1,1.1,0.2,2.1,0.2,3.2l49.2,20.5C121.3,55.7,121.2,54.7,121.1,53.8z"/>
<path class="magazine38" d="M121.5,60.3L72.3,39.6c0.1,1.8,0.1,3.6,0.2,5.5l49.2,20.5C121.6,63.7,121.5,62,121.5,60.3z"/>
<path class="magazine38" d="M121.7,72.3c0-0.3,0-0.6,0-1L72.5,50.6c0,0.4,0,0.8,0,1.2L121.7,72.3z"/>
<path class="magazine38" d="M121.6,78.3c0-1,0-1.9,0.1-2.9L72.4,54.7c0,1-0.1,2-0.1,3.1L121.6,78.3z"/>
<path class="magazine38" d="M121.1,88.9c0.1-1.7,0.2-3.4,0.3-5L71.9,63c0,0.2,0,0.5-0.1,0.7c-0.1,1.5-0.3,3-0.5,4.5L121.1,88.9z"/>
<path class="magazine38" d="M120.5,95.4c0-0.3,0.1-0.6,0.1-0.9l-49.8-21c0,0.4-0.1,0.7-0.1,1.1L120.5,95.4z"/>
<path class="magazine38" d="M119.7,102.8c0.1-0.9,0.2-1.8,0.3-2.8L70.2,77.9c-0.1,1-0.3,2-0.4,3L119.7,102.8z"/>
<path class="magazine38" d="M118.8,110.4c0.2-1.6,0.4-3.3,0.6-4.9l-50-22.3c-0.2,1.7-0.5,3.4-0.8,5.1L118.8,110.4z"/>
<path class="magazine38" d="M117.9,117.6c0-0.3,0.1-0.6,0.1-0.9l-50.2-23c-0.1,0.4-0.1,0.7-0.2,1.1L117.9,117.6z"/>
<path class="magazine38" d="M117.2,123.2c0.1-0.9,0.3-1.8,0.4-2.7L67.3,97.4c-0.2,1-0.3,2-0.5,2.9L117.2,123.2z"/>
<path class="magazine38" d="M116,131c0.2-1.6,0.5-3.2,0.7-4.9l-50.3-23.6c-0.3,1.8-0.6,3.5-0.9,5.1L116,131z"/>
<path class="magazine38" d="M115.1,136.8c0-0.3,0.1-0.6,0.1-0.8L65,110.6c-0.1,0.4-0.1,0.7-0.2,1L115.1,136.8z"/>
<path class="magazine38" d="M114,143.3c0.1-0.8,0.3-1.8,0.5-2.8L64.3,114c-0.2,1.1-0.4,2.2-0.6,3L114,143.3z"/>
<path class="magazine32" d="M68.7,8.7c0,0,5.6,28.6,3.1,55.1S63,120.7,63,120.7l48.8,28.1l1.3-0.6c0,0,4.6-23.6,7.6-55.2
	c3-31.7-2.1-62.4-2.1-62.4L68.7,8.7z"/>
<polygon class="magazine11" points="85.3,37.7 71.9,33.5 68.7,39.2 "/>
<polygon class="magazine11" points="116,60.6 99.9,56.3 104,62.1 "/>
<polygon class="magazine11" points="91.9,91.2 75.8,86.9 79.9,92.7 "/>
<polygon class="magazine11" points="80.3,106.3 66.9,102 63.7,107.8 "/>
<path class="magazine0" d="M73.7,119.4c-7.8,7-19.4,8.8-29.2,3.6C36,118.6,31,110,30.8,101c0-0.2,0.1-0.3,0.1-0.5c0-2.1-1.7-3.8-3.8-3.8
	s-3.8,1.7-3.8,3.8c0,0,0,0,0,0.1l0,0c0.1,11.8,6.6,23.2,17.8,29.1c12.6,6.6,27.6,4.3,37.6-4.7L73.7,119.4z"/>
<g>
	<path class="magazine0" d="M90.8,114.6c0,0.2,0,0.3,0,0.5c0,3.5-2.9,6.2-6.3,6.2c-3.5,0-6.2-2.9-6.2-6.3c0-3.5,2.9-6.2,6.3-6.2
		c0.3,0,0.6,0,0.9,0.1l1.1-7.4c-0.6-0.1-1.3-0.2-1.9-0.2c-7.6-0.1-13.8,6-13.9,13.6c-0.1,7.6,6,13.8,13.6,13.9
		c7.6,0.1,13.8-6,13.9-13.6c0-0.3,0-0.7,0-1L90.8,114.6z"/>
	<circle class="magazine3" cx="77.2" cy="121.7" r="4.9"/>
</g>
<path class="magazine0" d="M93.1,162.4l-8.4,2.1c0,3.7-0.8,7.6-2.3,11.2c-1.6,3.7-3.8,6.9-6.5,9.5c1.5,0.3,2.9,0.7,4.3,1.4
	c1.4,0.7,2.6,1.5,3.7,2.4c2.6-2.9,4.7-6.3,6.3-10.1C92.5,173.6,93.4,167.9,93.1,162.4z"/>
<g>
	<path class="magazine1" d="M64.8,191.8c3.5-4.4,9.6-5.9,14.8-3.4c5.2,2.5,7.8,8.4,6.5,13.8l4.3,2.1c2.4-7.8-1.1-16.4-8.7-20.1
		c-7.6-3.7-16.5-1.2-21.2,5.5L64.8,191.8z"/>
	<path class="magazine1" d="M70.1,207.8c-4.7-2.3-6.7-8-4.4-12.7c2.3-4.7,8-6.7,12.7-4.4c4.7,2.3,6.7,8,4.4,12.7
		C80.5,208.2,74.9,210.1,70.1,207.8"/>
</g>
<rect x="290.5" y="78.4" class="magazine40" width="156.2" height="95.1"/>
<rect x="645.2" y="132.4" class="magazine41" width="150" height="150"/>
<rect x="645.2" y="248" class="magazine42" width="150" height="75"/>
<rect x="645.2" y="25.5" class="magazine38" width="150" height="167"/>
<rect x="425.6" y="196.7" class="magazine43" width="182.1" height="40.3"/>
<rect x="794.5" y="25.4" class="magazine44" width="88" height="296"/>
<g>
	<path class="magazine34" d="M222.5,14.5c-0.8,0.9-1.5,1.9-2.2,2.9c0,0.1-0.1,0.1-0.1,0.2c-0.3,0.5-0.5,0.9-0.8,1.4
		c-0.1,0.1-0.1,0.2-0.2,0.3c-0.2,0.4-0.4,0.9-0.6,1.3c-0.1,0.2-0.1,0.3-0.2,0.5c-0.2,0.4-0.3,0.9-0.4,1.3c-0.1,0.2-0.1,0.4-0.2,0.6
		c-0.1,0.4-0.2,0.9-0.3,1.3c0,0.2-0.1,0.4-0.1,0.6c-0.1,0.5-0.1,1-0.2,1.6c0,0.1,0,0.3,0,0.4c0,0.7,0,1.3,0,2l19.8-1L222.5,14.5z"/>
	<path class="magazine35" d="M236.2,8c-1.2,0.1-2.4,0.2-3.6,0.5c-0.1,0-0.1,0-0.2,0c-0.5,0.1-1,0.3-1.5,0.5c-0.1,0-0.2,0.1-0.3,0.1
		c-0.5,0.2-0.9,0.4-1.4,0.6c-0.1,0.1-0.3,0.1-0.4,0.2c-0.4,0.2-0.8,0.4-1.2,0.6c-0.2,0.1-0.3,0.2-0.5,0.3c-0.4,0.2-0.8,0.5-1.1,0.7
		c-0.2,0.1-0.3,0.2-0.5,0.3c-0.4,0.3-0.8,0.6-1.2,1c-0.1,0.1-0.2,0.2-0.3,0.2c-0.5,0.4-1,0.9-1.4,1.4l14.7,13.3L236.2,8z"/>
	<path class="magazine39" d="M250.5,13.1c0.9,0.8,1.7,1.7,2.5,2.7c0,0,0.1,0.1,0.1,0.1c0.3,0.4,0.6,0.9,0.9,1.3c0.1,0.1,0.1,0.2,0.2,0.3
		c0.3,0.4,0.5,0.8,0.7,1.3c0.1,0.1,0.2,0.3,0.2,0.4c0.2,0.4,0.4,0.8,0.5,1.3c0.1,0.2,0.2,0.4,0.2,0.5c0.2,0.4,0.3,0.9,0.4,1.3
		c0.1,0.2,0.1,0.4,0.2,0.6c0.1,0.5,0.2,1,0.3,1.5c0,0.1,0.1,0.2,0.1,0.4c0.1,0.7,0.2,1.3,0.2,2l-19.8,1L250.5,13.1z"/>
	<path class="magazine36" d="M236.2,8c1.2-0.1,2.4,0,3.6,0.2c0.1,0,0.1,0,0.2,0c0.5,0.1,1,0.2,1.6,0.3c0.1,0,0.2,0,0.3,0.1
		c0.5,0.1,0.9,0.3,1.4,0.4c0.2,0.1,0.3,0.1,0.5,0.1c0.4,0.2,0.8,0.3,1.3,0.5c0.2,0.1,0.4,0.1,0.5,0.2c0.4,0.2,0.8,0.4,1.2,0.6
		c0.2,0.1,0.4,0.2,0.5,0.3c0.4,0.3,0.9,0.6,1.3,0.9c0.1,0.1,0.2,0.1,0.3,0.2c0.5,0.4,1,0.8,1.5,1.3l-13.3,14.7L236.2,8z"/>
</g>
<path class="magazine45" d="M269.7-25c0,0-3.1-5.4,0.2-5.9c3.3-0.5-1.3-4-1.3-4s-2.5-1.3-3,1.3c-0.5,2.6-3,2.6-3.6,1.8
	c-0.6-0.9-3.4-3.2-4.1-1.1s-0.2,5.7-0.2,5.7c-0.2,2-5.1,2.8-4.1,5c1.1,2.2,7.6,2.6,8.5,0.8c0.9-1.7,4.2-1.1,4.2,1.3s3.2,1.9,3.3,0.1
	c0.1-1.8,5.2-0.6,5.4-3.5S270.4-23.3,269.7-25z"/>
<g>
	<path class="magazine33" d="M281.4,32.4c0,0-12.1,7.5-13.5,0c-1.3-7.5-9,3.3-9,3.3s-2.9,5.8,3.1,6.8c5.9,1,6.2,6.7,4.3,8
		c-2,1.3-7,8-2.3,9.3c4.7,1.3,13,0,13,0c4.7,0.3,6.7,11.5,11.7,8.9s5.3-17.4,1.3-19.3c-4-1.9-2.9-9.6,2.7-9.6c5.6,0,4.1-7.3,0-7.5
		c-4.1-0.2-1.6-11.8-8.3-12S285,30.6,281.4,32.4z"/>
	<path class="magazine38" d="M206.3,45.9c0,0-12.1,7.5-13.5,0c-1.3-7.5-9,3.3-9,3.3s-2.9,5.8,3.1,6.8c5.9,1,6.2,6.7,4.3,8
		c-2,1.3-7,8-2.3,9.3c4.7,1.3,13,0,13,0c4.7,0.3,6.7,11.5,11.7,8.9s5.3-17.4,1.3-19.3s-2.9-9.6,2.7-9.6c5.6,0,4.1-7.3,0-7.5
		s-1.6-11.8-8.3-12C202.7,33.7,209.9,44,206.3,45.9z"/>
	<path class="magazine37" d="M262.3,78.8c0,0-13.9-3.3-9.5-9.5s-8.7-4-8.7-4s-6.2,2.1-2.7,7c3.5,4.9-0.3,9.1-2.7,8.7
		c-2.3-0.5-10.6,0.7-8.2,5c2.4,4.2,9.2,9.2,9.2,9.2c3.1,3.5-3.4,12.8,2,14.5s16.1-8.5,14.6-12.7c-1.5-4.2,4.7-8.8,8.7-4.8
		c4,4,8.1-2.3,5.3-5.3s7.2-9.5,2.6-14.3C268.4,67.6,266.2,80.1,262.3,78.8z"/>
</g>
</svg>
