<?xml version="1.0" encoding="utf-8"?>
<!-- Generator: Adobe Illustrator 19.0.1, SVG Export Plug-In . SVG Version: 6.00 Build 0)  -->
<svg version="1.1" id="Layer_1" xmlns="http://www.w3.org/2000/svg" xmlns:xlink="http://www.w3.org/1999/xlink" x="0px" y="0px"
	 width="188.3px" height="226.2px" viewBox="0 0 188.3 226.2" style="enable-background:new 0 0 188.3 226.2;" xml:space="preserve"
	>
<style type="text/css">
	.classic0{fill:#E5E5E5;}
	.classic1{fill:#C4C4C3;}
	.classic2{fill:#FFFFFF;}
	.classic3{fill:#4B9DA1;}
	.classic4{fill:none;stroke:#C4C4C3;stroke-miterlimit:10;}
	.classic5{fill:#969696;}
	.classic6{fill:#F06A66;}
	.classic7{fill:#BC4926;}
	.classic8{fill:#D3B22A;}
</style>
<g>
	<path class="classic0" d="M55.7,100.6c-5.5,2.2-10.5,5.9-14.3,11c-8.5,11.5-8.6,26.6-1.2,37.9l6.3-4.1c-5.7-8.8-5.6-20.5,1-29.4
		c2.6-3.5,6-6.2,9.7-7.9L55.7,100.6z"/>
	<path class="classic0" d="M98.4,182.9c0.6,2.9,0.8,5.9,0.5,8.9c-0.4,4.6-1.9,8.8-4.1,12.5c1.9-0.4,4-0.5,6-0.2c1.1,0.2,2.2,0.4,3.2,0.8
		c1.8-3.8,2.9-7.9,3.3-12.3c0.3-3.2,0.2-6.4-0.3-9.4L98.4,182.9z"/>
	<polygon class="classic1" points="128.2,181.7 71.9,179.7 55.9,87 144.2,85 	"/>
	<path class="classic2" d="M122.7,85.5c0,0.1,0,0.2,0,0.3c0,8.6-10.1,15.5-22.7,15.5c-12.2,0-22.1-6.6-22.6-14.8L55.9,87l16,92.7l56.3,2
		l16-96.7L122.7,85.5z"/>
	<g>
		<circle class="classic3" cx="118.6" cy="5" r="5"/>
		<path class="classic4" d="M110.3,10"/>
		<path class="classic4" d="M101.1,49.6c-4.6-13.7-2.6-23.4,1.2-30l5.9,0l-6.8-5l4.5,0c4.2-4.7,8.6-6.7,8.6-6.7"/>
	</g>
	<path class="classic0" d="M100.6,45.8c-18,0-32.7,14.6-32.7,32.7v5.1h65.3v-5.1C133.2,60.4,118.6,45.8,100.6,45.8z"/>
	<circle class="classic5" cx="93" cy="73.5" r="1.9"/>
	<circle class="classic5" cx="108.3" cy="73.5" r="1.9"/>
	<path class="classic6" d="M127.1,84.6c0,0-8,31.7-26.5,41.2s-37.2,17.3-37.2,17.3l4.5,28.4c0,0,34.9-7.1,46.7-18.2S131.3,85,131.3,85
		L127.1,84.6z"/>
	<path class="classic7" d="M139.2,83.5l-6,0l-4,0.8c0,0-10.1,36.7-28.6,46.3c-18.5,9.5-37.2,17.3-37.2,17.3l0.8,5.1
		c-1.1,0.4-1.8,0.6-1.8,0.6l3,26.1c0,0,39.3-7.6,57.4-25.1C147.4,130.8,139.2,83.5,139.2,83.5z"/>
	<path class="classic0" d="M145.4,93.1l-2.2,12.5c1.4,5.1,1.3,10.6-0.6,15.9c-0.8,2.2-1.9,4.1-3.1,5.9l0,0c-4.8,6.8-12.7,10.9-21,10.9
		l0,7.5c6.8,0,13.3-2.1,18.8-5.9l0,0c0.2-0.1,0.4-0.3,0.6-0.5c0.1-0.1,0.3-0.2,0.4-0.3c3.3-2.4,6.1-5.5,8.3-9.1c0,0,0,0,0,0l0,0
		c1.2-1.9,2.2-3.9,3-6C153.6,113.3,151.7,101.8,145.4,93.1z"/>
	<path class="classic6" d="M137.6,124.5c1.9,0.5,3.7,1.4,4.6,3c2.5,4.2-1.5,34.8-1.5,34.4c0.1-0.4,12.2-1,12.2-1s1.3-39.3-6.5-39.6
		c-2.7-0.1-5.4,0.2-7.7,0.6C138.5,122.6,138.1,123.8,137.6,124.5z"/>
	<path class="classic7" d="M144.2,122.8c-6.9-0.3-9.9,4.7-10.6,6c-2.5,1.8-3.6,4.2-3.6,4.2s4-4.2,6.5,0c2.5,4.2-1.5,34.8-1.5,34.4
		s12.2-1,12.2-1s0-1.4,0.1-3.7c1.9-0.1,3.3-0.2,3.3-0.2S152.1,123.1,144.2,122.8z M134.5,128.2c0.6-0.4,1.3-0.8,2.2-1
		C135.9,127.5,135.1,127.9,134.5,128.2z"/>
	<g>
		<g>
			<path class="classic0" d="M104.8,149.7c0.1,0.1,0.3,0.2,0.4,0.3c2.9,1.8,6.8,0.9,8.6-2.1s0.9-6.8-2.1-8.6c-2.9-1.8-6.8-0.9-8.6,2.1
				c-0.2,0.3-0.3,0.5-0.4,0.8l-6.9-3c0.3-0.6,0.5-1.1,0.9-1.7c4-6.5,12.4-8.5,18.9-4.5c6.5,4,8.5,12.4,4.5,18.9
				c-4,6.5-12.4,8.5-18.9,4.5c-0.3-0.2-0.6-0.4-0.9-0.6L104.8,149.7z"/>
		</g>
		<circle class="classic5" cx="117.5" cy="142.1" r="4.9"/>
	</g>
	<g>
		<path class="classic8" d="M67.8,70.9c-1.7-0.4-2.7-2.2-2.3-3.9c0.4-1.7,2.2-2.7,3.9-2.3c1.7,0.4,5.2,4.6,5.2,4.6S69.5,71.3,67.8,70.9z"
			/>
		<path class="classic8" d="M72.3,64.6c-1.7-0.4-2.7-2.2-2.3-3.9c0.4-1.7,2.2-2.7,3.9-2.3c1.7,0.4,5.2,4.6,5.2,4.6S74,65,72.3,64.6z"/>
		<path class="classic8" d="M77.3,71.6c-1.7-0.4-2.7-2.2-2.3-3.9c0.4-1.7,2.2-2.7,3.9-2.3c1.7,0.4,5.2,4.6,5.2,4.6S79,72,77.3,71.6z"/>
	</g>
	<g>
		<path class="classic8" d="M133.7,70.9c1.7-0.4,2.7-2.2,2.3-3.9c-0.4-1.7-2.2-2.7-3.9-2.3c-1.7,0.4-5.2,4.6-5.2,4.6S132,71.3,133.7,70.9
			z"/>
		<path class="classic8" d="M129.1,64.6c1.7-0.4,2.7-2.2,2.3-3.9s-2.2-2.7-3.9-2.3c-1.7,0.4-5.2,4.6-5.2,4.6S127.4,65,129.1,64.6z"/>
		<path class="classic8" d="M124.1,71.6c1.7-0.4,2.7-2.2,2.3-3.9c-0.4-1.7-2.2-2.7-3.9-2.3c-1.7,0.4-5.2,4.6-5.2,4.6S122.4,72,124.1,71.6
			z"/>
	</g>
	<g>
		<path class="classic1" d="M87,212.4c2-5.2,7.4-8.6,13.1-7.7c5.7,0.9,9.9,5.6,10.3,11.2l4.7,0.7c0-8.2-6-15.3-14.3-16.5
			c-8.3-1.2-16.1,3.8-18.5,11.6L87,212.4z"/>
		<circle class="classic1" cx="98.3" cy="216.7" r="9.5"/>
	</g>
	<g>
		<path class="classic0" d="M48.5,163.1c-0.2,0-0.3,0-0.5-0.1c-3.4-0.6-5.7-3.8-5.1-7.2c0.6-3.4,3.8-5.7,7.2-5.1c3.4,0.6,5.7,3.8,5.1,7.2
			c0,0.3-0.1,0.6-0.2,0.9l7.1,2.2c0.2-0.6,0.4-1.2,0.5-1.9c1.3-7.5-3.8-14.6-11.3-15.8c-7.5-1.3-14.6,3.8-15.8,11.3
			c-1.3,7.5,3.8,14.6,11.3,15.8c0.3,0.1,0.7,0.1,1,0.1L48.5,163.1z"/>
		<circle class="classic5" cx="43.7" cy="148.5" r="4.9"/>
	</g>
</g>
</svg>
