<?xml version="1.0" encoding="utf-8"?>
<!-- Generator: Adobe Illustrator 19.0.1, SVG Export Plug-In . SVG Version: 6.00 Build 0)  -->
<svg version="1.1" id="Layer_1" xmlns="http://www.w3.org/2000/svg" xmlns:xlink="http://www.w3.org/1999/xlink" x="0px" y="0px"
	 viewBox="0 0 120.7 226.2" style="enable-background:new 0 0 120.7 226.2;" xml:space="preserve">
<style type="text/css">
	.classic0{fill:#E5E5E5;}
	.classic1{fill:#878787;}
	.classic2{fill:#C4C4C3;}
	.classic3{fill:#969696;}
	.classic4{fill:#FFFFFF;}
	.classic5{fill:#39C3DE;}
	.classic6{fill:none;stroke:#C4C4C3;stroke-miterlimit:10;}
	.classic7{fill:#020202;}
	.classic8{fill:none;stroke:#020202;stroke-miterlimit:10;}
	.classic9{fill:#EE303D;}
	.classic10{fill:#C82027;}
	.classic11{fill:#B2202A;}
	.classic12{fill:#D3B22A;}
	.classic13{fill:#4B9DA1;}
	.classic14{fill:#F06A66;}
	.classic15{fill:#BC4926;}
	.classic16{fill:#001833;}
	.classic17{fill:#418788;}
	.classic18{fill:#95BEC0;}
	.classic19{fill:#C8E2E1;}
</style>
<path class="classic0" d="M65.8-96.8c0.6,2.9,0.8,5.9,0.5,8.9c-0.4,3.9-1.5,7.5-3.2,10.8c1.6-0.3,3.3-0.3,5.1,0c1.3,0.2,2.6,0.6,3.8,1
	c1.4-3.4,2.4-7.1,2.8-11c0.3-3.2,0.2-6.4-0.3-9.4L65.8-96.8z"/>
<rect x="-314.3" y="-31.3" class="classic1" width="235" height="296.7"/>
<path class="classic0" d="M-196.3,138.3c10.5,0,20.3-6.5,24.1-16.9c3.4-9.2,1.2-19.1-4.9-26l5.6-4.9c7.8,8.9,10.7,21.7,6.3,33.6
	c-5,13.4-17.6,21.7-31.1,21.7L-196.3,138.3z"/>
<path class="classic0" d="M-221,205.8l0.1,0.2l9.1,0.9c2.3-4.3,3.8-9.1,4.3-14.3c1.2-12.4-3.8-23.9-12.4-31.6l-5.4,6.5
	c6.5,6,10.2,14.8,9.4,24.3C-216.4,197-218.2,201.8-221,205.8z"/>
<circle class="classic2" cx="-216.5" cy="216.7" r="16.8"/>
<circle class="classic1" cx="-216.5" cy="216.7" r="12.1"/>
<rect x="-246.2" y="214.2" transform="matrix(0.9891 0.1474 -0.1474 0.9891 30.7574 34.3847)" class="classic1" width="59.2" height="21"/>
<circle class="classic2" cx="-216.5" cy="216.7" r="9.5"/>
<g>
	<path class="classic0" d="M-268.4,145.5c-5.7-8.8-5.6-20.5,1-29.4c5.9-7.9,15.4-11.5,24.5-10.1l1.1-7.4c-11.7-1.7-24,2.9-31.5,13.1
		c-8.5,11.5-8.6,26.6-1.2,37.9L-268.4,145.5z"/>
	<path class="classic0" d="M-266.3,163.1c-0.2,0-0.3,0-0.5-0.1c-3.4-0.6-5.7-3.8-5.1-7.2c0.6-3.4,3.8-5.7,7.2-5.1
		c3.4,0.6,5.7,3.8,5.1,7.2c0,0.3-0.1,0.6-0.2,0.9l7.1,2.2c0.2-0.6,0.4-1.2,0.5-1.9c1.3-7.5-3.8-14.6-11.3-15.8
		c-7.5-1.3-14.6,3.8-15.8,11.3c-1.3,7.5,3.8,14.6,11.3,15.8c0.3,0.1,0.7,0.1,1,0.1L-266.3,163.1z"/>
	<circle class="classic3" cx="-271.1" cy="148.5" r="4.9"/>
</g>
<polygon class="classic1" points="-185.1,183.9 -244.4,181.9 -261.9,84.8 -167.6,82.8 "/>
<polygon class="classic2" points="-186.6,181.7 -242.9,179.7 -258.9,87 -170.6,85 "/>
<path class="classic4" d="M-192.1,85.5c0,0.1,0,0.2,0,0.3c0,8.6-10.1,15.5-22.7,15.5c-12.2,0-22.1-6.6-22.6-14.8l-21.5,0.5l16,92.7
	l56.3,2l16-96.7L-192.1,85.5z"/>
<g>
	<circle class="classic5" cx="-196.2" cy="5" r="5"/>
	<path class="classic6" d="M-204.5,10"/>
	<path class="classic6" d="M-213.7,49.7c-4.6-13.7-2.6-23.4,1.2-30l5.9,0l-6.8-5l4.5,0c4.2-4.7,8.6-6.7,8.6-6.7"/>
</g>
<path class="classic0" d="M-214.3,45.8c-18,0-32.7,14.6-32.7,32.7v5.1h65.3v-5.1C-181.6,60.4-196.2,45.8-214.3,45.8z"/>
<path class="classic0" d="M-227.7-73.9l0.1,0.2l9.1,0.9c2.3-4.3,3.8-9.1,4.3-14.3c1.2-12.4-3.8-23.9-12.4-31.6l-5.4,6.5
	c6.5,6,10.2,14.8,9.4,24.3C-223.1-82.7-224.9-77.9-227.7-73.9z"/>
<circle class="classic2" cx="-223.2" cy="-63" r="16.8"/>
<circle class="classic4" cx="-223.2" cy="-63" r="12.1"/>
<rect x="-252.9" y="-65.5" transform="matrix(0.9891 0.1474 -0.1474 0.9891 -10.5502 32.3167)" class="classic4" width="59.2" height="21"/>
<circle class="classic2" cx="-223.2" cy="-63" r="9.5"/>
<g>
	<circle class="classic5" cx="-202.9" cy="-274.7" r="5"/>
	<path class="classic6" d="M-211.2-269.7"/>
	<path class="classic6" d="M-220.4-230.1c-4.6-13.7-2.6-23.4,1.2-30l5.9,0l-6.8-5l4.5,0c4.2-4.7,8.6-6.7,8.6-6.7"/>
</g>
<path class="classic0" d="M-221.5-233.9c-18,0-32.7,14.6-32.7,32.7v5.1h65.3v-5.1C-188.8-219.3-203.4-233.9-221.5-233.9z"/>
<polygon class="classic4" points="-191.8,-95.8 -251.1,-97.8 -268.6,-194.9 -174.3,-196.9 "/>
<polygon class="classic2" points="-193.3,-98 -249.6,-100 -265.6,-192.7 -177.3,-194.7 "/>
<circle class="classic3" cx="-227.8" cy="-207.5" r="1.9"/>
<circle class="classic3" cx="-212.5" cy="-207.5" r="1.9"/>
<polygon class="classic7" points="-190.5,-114.9 -177.3,-194.7 -265.6,-192.7 -252.2,-114.9 "/>
<rect x="-256.3" y="-200.3" class="classic7" width="70" height="7.7"/>
<circle class="classic8" cx="-227.8" cy="-208.6" r="5.2"/>
<circle class="classic8" cx="-227.8" cy="-208.6" r="5.2"/>
<circle class="classic8" cx="-212.5" cy="-208.6" r="5.2"/>
<line class="classic8" x1="-223.1" y1="-208.7" x2="-217.7" y2="-208.7"/>
<g>
	<g>
		<path class="classic0" d="M-274.8-132.6c-7.1-7.7-9-19.3-3.9-29.2c4.5-8.8,13.3-13.9,22.4-14.1l-0.2-7.5c-11.8,0.3-23.2,6.8-28.9,18.1
			c-6.5,12.7-4,27.6,5.1,37.6L-274.8-132.6z"/>
		<path class="classic0" d="M-269.8-115.5c-0.2,0-0.3,0-0.5,0c-3.5,0-6.3-2.8-6.3-6.3c0-3.5,2.8-6.3,6.3-6.3c3.5,0,6.3,2.8,6.3,6.3
			c0,0.3,0,0.6-0.1,0.9l7.4,1c0.1-0.6,0.1-1.3,0.1-1.9c0-7.6-6.2-13.7-13.8-13.7c-7.6,0-13.7,6.2-13.7,13.8
			c0,7.6,6.2,13.7,13.8,13.7c0.3,0,0.7,0,1-0.1L-269.8-115.5z"/>
		<circle class="classic3" cx="-277" cy="-129.1" r="4.9"/>
	</g>
	<path class="classic7" d="M-286.3-131.5l9.1-6.2c-5.7-11.8-1.3-26.2,10.3-32.7c3.9-2.2,8.1-3.2,12.2-3.2l0-11c-6,0-12,1.5-17.6,4.6
		C-289.4-170.4-295.6-148.8-286.3-131.5z"/>
</g>
<g>
	<g>
		<path class="classic0" d="M-170.4-132.6c7.1-7.7,9-19.3,3.9-29.2c-4.5-8.8-13.3-13.9-22.4-14.1l0.2-7.5c11.8,0.3,23.2,6.8,28.9,18.1
			c6.5,12.7,4,27.6-5.1,37.6L-170.4-132.6z"/>
		<path class="classic0" d="M-175.4-115.5c0.2,0,0.3,0,0.5,0c3.5,0,6.3-2.8,6.3-6.3c0-3.5-2.8-6.3-6.3-6.3c-3.5,0-6.3,2.8-6.3,6.3
			c0,0.3,0,0.6,0.1,0.9l-7.4,1c-0.1-0.6-0.1-1.3-0.1-1.9c0-7.6,6.2-13.7,13.8-13.7c7.6,0,13.7,6.2,13.7,13.8
			c0,7.6-6.2,13.7-13.8,13.7c-0.3,0-0.7,0-1-0.1L-175.4-115.5z"/>
		<circle class="classic3" cx="-168.2" cy="-129.1" r="4.9"/>
	</g>
	<path class="classic7" d="M-159-131.5l-9.1-6.2c5.7-11.8,1.3-26.2-10.3-32.7c-3.9-2.2-8.1-3.2-12.2-3.2l0-11c6,0,12,1.5,17.6,4.6
		C-155.8-170.4-149.6-148.8-159-131.5z"/>
</g>
<path class="classic2" d="M54.4-67.3c2-5.2,7.4-8.6,13.1-7.7c5.7,0.9,9.9,5.6,10.3,11.2l4.7,0.7c0-8.2-6-15.3-14.3-16.5
	c-8.3-1.2-16.1,3.8-18.5,11.6L54.4-67.3z"/>
<circle class="classic2" cx="65.7" cy="-63" r="9.5"/>
<g>
	<circle class="classic5" cx="86" cy="-274.7" r="5"/>
	<path class="classic6" d="M77.7-269.7"/>
	<path class="classic6" d="M68.5-230.1c-4.6-13.7-2.6-23.4,1.2-30l5.9,0l-6.8-5l4.5,0c4.2-4.7,8.6-6.7,8.6-6.7"/>
</g>
<path class="classic0" d="M67.5-233.9c-18,0-32.7,14.6-32.7,32.7v5.1h65.3v-5.1C100.1-219.3,85.5-233.9,67.5-233.9z"/>
<polygon class="classic2" points="95.6,-98 39.3,-100 23.3,-192.7 111.6,-194.7 "/>
<circle class="classic3" cx="61.1" cy="-207.5" r="1.9"/>
<circle class="classic3" cx="76.4" cy="-207.5" r="1.9"/>
<polygon class="classic7" points="98.4,-114.9 111.6,-194.7 23.3,-192.7 36.7,-114.9 "/>
<rect x="32.7" y="-200.3" class="classic7" width="70" height="7.7"/>
<circle class="classic8" cx="61.1" cy="-208.6" r="5.2"/>
<circle class="classic8" cx="61.1" cy="-208.6" r="5.2"/>
<circle class="classic8" cx="76.4" cy="-208.6" r="5.2"/>
<line class="classic8" x1="65.9" y1="-208.7" x2="71.2" y2="-208.7"/>
<g>
	<g>
		<path class="classic0" d="M14.1-132.6c-7.1-7.7-9-19.3-3.9-29.2c4.5-8.8,13.3-13.9,22.4-14.1l-0.2-7.5c-11.8,0.3-23.2,6.8-28.9,18.1
			c-6.5,12.7-4,27.6,5.1,37.6L14.1-132.6z"/>
		<path class="classic0" d="M19.1-115.5c-0.2,0-0.3,0-0.5,0c-3.5,0-6.3-2.8-6.3-6.3c0-3.5,2.8-6.3,6.3-6.3c3.5,0,6.3,2.8,6.3,6.3
			c0,0.3,0,0.6-0.1,0.9l7.4,1c0.1-0.6,0.1-1.3,0.1-1.9c0-7.6-6.2-13.7-13.8-13.7c-7.6,0-13.7,6.2-13.7,13.8
			c0,7.6,6.2,13.7,13.8,13.7c0.3,0,0.7,0,1-0.1L19.1-115.5z"/>
		<circle class="classic3" cx="11.9" cy="-129.1" r="4.9"/>
	</g>
	<path class="classic7" d="M2.7-131.5l9.1-6.2c-5.7-11.8-1.3-26.2,10.3-32.7c3.9-2.2,8.1-3.2,12.2-3.2l0-11c-6,0-12,1.5-17.6,4.6
		C-0.5-170.4-6.7-148.8,2.7-131.5z"/>
</g>
<g>
	<g>
		<path class="classic0" d="M118.5-132.6c7.1-7.7,9-19.3,3.9-29.2c-4.5-8.8-13.3-13.9-22.4-14.1l0.2-7.5c11.8,0.3,23.2,6.8,28.9,18.1
			c6.5,12.7,4,27.6-5.1,37.6L118.5-132.6z"/>
		<path class="classic0" d="M113.5-115.5c0.2,0,0.3,0,0.5,0c3.5,0,6.3-2.8,6.3-6.3c0-3.5-2.8-6.3-6.3-6.3c-3.5,0-6.3,2.8-6.3,6.3
			c0,0.3,0,0.6,0.1,0.9l-7.4,1c-0.1-0.6-0.1-1.3-0.1-1.9c0-7.6,6.2-13.7,13.8-13.7c7.6,0,13.7,6.2,13.7,13.8
			c0,7.6-6.2,13.7-13.8,13.7c-0.3,0-0.7,0-1-0.1L113.5-115.5z"/>
		<circle class="classic3" cx="120.7" cy="-129.1" r="4.9"/>
	</g>
	<path class="classic7" d="M130-131.5l-9.1-6.2c5.7-11.8,1.3-26.2-10.3-32.7c-3.9-2.2-8.1-3.2-12.2-3.2l0-11c6,0,12,1.5,17.6,4.6
		C133.1-170.4,139.3-148.8,130-131.5z"/>
</g>
<circle class="classic3" cx="-221.8" cy="73.5" r="1.9"/>
<circle class="classic3" cx="-206.5" cy="73.5" r="1.9"/>
<path class="classic9" d="M-187.8,84.6c0,0-8,31.7-26.5,41.2c-18.5,9.5-37.2,17.3-37.2,17.3l4.5,28.4c0,0,34.9-7.1,46.7-18.2
	c11.8-11.1,16.8-68.4,16.8-68.4L-187.8,84.6z"/>
<path class="classic10" d="M-185.6,84.3c0,0-10.1,36.7-28.6,46.3s-37.2,17.3-37.2,17.3l4.5,30.4c0,0,34.9-9.1,46.7-20.2
	c11.8-11.1,18.7-74.6,18.7-74.6L-185.6,84.3z"/>
<path class="classic11" d="M-181.6,83.5c0,0-13.6,44.2-32.1,53.7s-37.7,16.3-37.7,16.3l3.4,21.4c0,0,37.9-2.9,56-20.4
	c24.5-23.7,16.4-71,16.4-71L-181.6,83.5z"/>
<path class="classic0" d="M-168.1,130.1l-6.8-3.2c-4.8,7.2-12.9,11.4-21.4,11.5l0,7.5C-184.9,145.8-174.2,139.9-168.1,130.1z"/>
<path class="classic9" d="M-177.2,124.5c1.9,0.5,3.7,1.4,4.6,3c2.5,4.2-1.5,34.8-1.5,34.4c0.1-0.4,12.2-1,12.2-1s1.3-39.3-6.5-39.6
	c-2.7-0.1-5.4,0.2-7.7,0.6C-176.4,122.6-176.8,123.9-177.2,124.5z"/>
<path class="classic10" d="M-181.3,129.1c0,0,4-4.2,6.5,0c2.5,4.2-1.5,34.8-1.5,34.4s12.2-1,12.2-1s1.3-39.3-6.5-39.6
	C-178.5,122.5-181.3,129.1-181.3,129.1z"/>
<path class="classic11" d="M-184.8,133c0,0,4-4.2,6.5,0c2.5,4.2-1.5,34.8-1.5,34.4c0.1-0.4,12.2-1,12.2-1s1.3-39.3-6.5-39.6
	C-181.9,126.4-184.8,133-184.8,133z"/>
<g>
	<g>
		<path class="classic0" d="M-210,149.8c0.1,0.1,0.3,0.2,0.4,0.3c2.9,1.8,6.8,0.9,8.6-2.1c1.8-2.9,0.9-6.8-2.1-8.6
			c-2.9-1.8-6.8-0.9-8.6,2.1c-0.2,0.3-0.3,0.5-0.4,0.8l-6.9-3c0.3-0.6,0.5-1.1,0.9-1.7c4-6.5,12.4-8.5,18.9-4.5
			c6.5,4,8.5,12.4,4.5,18.9c-4,6.5-12.4,8.5-18.9,4.5c-0.3-0.2-0.6-0.4-0.9-0.6L-210,149.8z"/>
	</g>
	<circle class="classic3" cx="-197.3" cy="142.1" r="4.9"/>
</g>
<g>
	<path class="classic12" d="M-247.1,70.9c-1.7-0.4-2.7-2.2-2.3-3.9c0.4-1.7,2.2-2.7,3.9-2.3c1.7,0.4,5.2,4.6,5.2,4.6
		S-245.4,71.4-247.1,70.9z"/>
	<path class="classic12" d="M-242.5,64.6c-1.7-0.4-2.7-2.2-2.3-3.9c0.4-1.7,2.2-2.7,3.9-2.3c1.7,0.4,5.2,4.6,5.2,4.6
		S-240.8,65-242.5,64.6z"/>
	<path class="classic12" d="M-237.5,71.6c-1.7-0.4-2.7-2.2-2.3-3.9c0.4-1.7,2.2-2.7,3.9-2.3c1.7,0.4,5.2,4.6,5.2,4.6
		S-235.8,72-237.5,71.6z"/>
</g>
<g>
	<path class="classic12" d="M-181.2,70.9c1.7-0.4,2.7-2.2,2.3-3.9c-0.4-1.7-2.2-2.7-3.9-2.3c-1.7,0.4-5.2,4.6-5.2,4.6
		S-182.9,71.4-181.2,70.9z"/>
	<path class="classic12" d="M-185.7,64.6c1.7-0.4,2.7-2.2,2.3-3.9c-0.4-1.7-2.2-2.7-3.9-2.3c-1.7,0.4-5.2,4.6-5.2,4.6
		S-187.4,65-185.7,64.6z"/>
	<path class="classic12" d="M-190.7,71.6c1.7-0.4,2.7-2.2,2.3-3.9c-0.4-1.7-2.2-2.7-3.9-2.3c-1.7,0.4-5.2,4.6-5.2,4.6
		S-192.4,72-190.7,71.6z"/>
</g>
<path class="classic0" d="M20.9,100.6c-5.5,2.2-10.5,5.9-14.3,11c-8.5,11.5-8.6,26.6-1.2,37.9l6.3-4.1c-5.7-8.8-5.6-20.5,1-29.4
	c2.6-3.5,6-6.2,9.7-7.9L20.9,100.6z"/>
<path class="classic0" d="M63.6,182.9c0.6,2.9,0.8,5.9,0.5,8.9c-0.4,4.6-1.9,8.8-4.1,12.5c1.9-0.4,4-0.5,6-0.2c1.1,0.2,2.2,0.4,3.2,0.8
	c1.8-3.8,2.9-7.9,3.3-12.3c0.3-3.2,0.2-6.4-0.3-9.4L63.6,182.9z"/>
<polygon class="classic2" points="93.4,181.7 37.1,179.7 21.1,87 109.4,85 "/>
<path class="classic4" d="M87.9,85.5c0,0.1,0,0.2,0,0.3c0,8.6-10.1,15.5-22.7,15.5c-12.2,0-22.1-6.6-22.6-14.8L21.1,87l16,92.7l56.3,2
	l16-96.7L87.9,85.5z"/>
<g>
	<circle class="classic13" cx="83.8" cy="5" r="5"/>
	<path class="classic6" d="M75.5,10"/>
	<path class="classic6" d="M66.3,49.7c-4.6-13.7-2.6-23.4,1.2-30l5.9,0l-6.8-5l4.5,0C75.3,9.9,79.7,8,79.7,8"/>
</g>
<path class="classic0" d="M65.7,45.8c-18,0-32.7,14.6-32.7,32.7v5.1h65.3v-5.1C98.4,60.4,83.8,45.8,65.7,45.8z"/>
<circle class="classic3" cx="58.2" cy="73.5" r="1.9"/>
<circle class="classic3" cx="73.5" cy="73.5" r="1.9"/>
<path class="classic14" d="M92.2,84.6c0,0-8,31.7-26.5,41.2c-18.5,9.5-37.2,17.3-37.2,17.3l4.5,28.4c0,0,34.9-7.1,46.7-18.2
	S96.5,85,96.5,85L92.2,84.6z"/>
<path class="classic15" d="M104.4,83.5l-6,0l-4,0.8c0,0-10.1,36.7-28.6,46.3c-18.5,9.5-37.2,17.3-37.2,17.3l0.8,5.1
	c-1.1,0.4-1.8,0.6-1.8,0.6l3,26.1c0,0,39.3-7.6,57.4-25.1C112.5,130.9,104.4,83.5,104.4,83.5z"/>
<path class="classic0" d="M110.6,93.1l-2.2,12.5c1.4,5.1,1.3,10.6-0.6,15.9c-0.8,2.2-1.9,4.1-3.1,5.9l0,0c-4.8,6.8-12.7,10.9-21,10.9
	l0,7.5c6.8,0,13.3-2.1,18.8-5.9l0,0c0.2-0.1,0.4-0.3,0.6-0.5c0.1-0.1,0.3-0.2,0.4-0.3c3.3-2.4,6.1-5.5,8.3-9.1c0,0,0,0,0,0l0,0
	c1.2-1.9,2.2-3.9,3-6C118.8,113.3,116.8,101.8,110.6,93.1z"/>
<path class="classic14" d="M102.8,124.5c1.9,0.5,3.7,1.4,4.6,3c2.5,4.2-1.5,34.8-1.5,34.4c0.1-0.4,12.2-1,12.2-1s1.3-39.3-6.5-39.6
	c-2.7-0.1-5.4,0.2-7.7,0.6C103.6,122.6,103.2,123.9,102.8,124.5z"/>
<path class="classic15" d="M109.4,122.8c-6.9-0.3-9.9,4.7-10.6,6c-2.5,1.8-3.6,4.2-3.6,4.2s4-4.2,6.5,0c2.5,4.2-1.5,34.8-1.5,34.4
	s12.2-1,12.2-1s0-1.4,0.1-3.7c1.9-0.1,3.3-0.2,3.3-0.2S117.2,123.1,109.4,122.8z M99.7,128.3c0.6-0.4,1.3-0.8,2.2-1
	C101,127.5,100.3,127.9,99.7,128.3z"/>
<g>
	<g>
		<path class="classic0" d="M70,149.8c0.1,0.1,0.3,0.2,0.4,0.3c2.9,1.8,6.8,0.9,8.6-2.1c1.8-2.9,0.9-6.8-2.1-8.6
			c-2.9-1.8-6.8-0.9-8.6,2.1c-0.2,0.3-0.3,0.5-0.4,0.8l-6.9-3c0.3-0.6,0.5-1.1,0.9-1.7c4-6.5,12.4-8.5,18.9-4.5
			c6.5,4,8.5,12.4,4.5,18.9c-4,6.5-12.4,8.5-18.9,4.5c-0.3-0.2-0.6-0.4-0.9-0.6L70,149.8z"/>
	</g>
	<circle class="classic3" cx="82.7" cy="142.1" r="4.9"/>
</g>
<g>
	<path class="classic12" d="M32.9,70.9c-1.7-0.4-2.7-2.2-2.3-3.9c0.4-1.7,2.2-2.7,3.9-2.3s5.2,4.6,5.2,4.6S34.6,71.4,32.9,70.9z"/>
	<path class="classic12" d="M37.5,64.6c-1.7-0.4-2.7-2.2-2.3-3.9c0.4-1.7,2.2-2.7,3.9-2.3c1.7,0.4,5.2,4.6,5.2,4.6S39.2,65,37.5,64.6z"/>
	<path class="classic12" d="M42.5,71.6c-1.7-0.4-2.7-2.2-2.3-3.9c0.4-1.7,2.2-2.7,3.9-2.3c1.7,0.4,5.2,4.6,5.2,4.6S44.2,72,42.5,71.6z"/>
</g>
<g>
	<path class="classic12" d="M98.8,70.9c1.7-0.4,2.7-2.2,2.3-3.9c-0.4-1.7-2.2-2.7-3.9-2.3c-1.7,0.4-5.2,4.6-5.2,4.6S97.1,71.4,98.8,70.9z
		"/>
	<path class="classic12" d="M94.3,64.6c1.7-0.4,2.7-2.2,2.3-3.9s-2.2-2.7-3.9-2.3c-1.7,0.4-5.2,4.6-5.2,4.6S92.6,65,94.3,64.6z"/>
	<path class="classic12" d="M89.3,71.6c1.7-0.4,2.7-2.2,2.3-3.9c-0.4-1.7-2.2-2.7-3.9-2.3C86,65.9,82.5,70,82.5,70S87.6,72,89.3,71.6z"/>
</g>
<g>
	<path class="classic2" d="M52.1,212.4c2-5.2,7.4-8.6,13.1-7.7c5.7,0.9,9.9,5.6,10.3,11.2l4.7,0.7c0-8.2-6-15.3-14.3-16.5
		c-8.3-1.2-16.1,3.8-18.5,11.6L52.1,212.4z"/>
	<circle class="classic2" cx="63.5" cy="216.7" r="9.5"/>
</g>
<g>
	<path class="classic0" d="M13.7,163.1c-0.2,0-0.3,0-0.5-0.1c-3.4-0.6-5.7-3.8-5.1-7.2c0.6-3.4,3.8-5.7,7.2-5.1c3.4,0.6,5.7,3.8,5.1,7.2
		c0,0.3-0.1,0.6-0.2,0.9l7.1,2.2c0.2-0.6,0.4-1.2,0.5-1.9c1.3-7.5-3.8-14.6-11.3-15.8c-7.5-1.3-14.6,3.8-15.8,11.3
		c-1.3,7.5,3.8,14.6,11.3,15.8c0.3,0.1,0.7,0.1,1,0.1L13.7,163.1z"/>
	<circle class="classic3" cx="8.9" cy="148.5" r="4.9"/>
</g>
<rect x="271.7" y="-93.7" class="classic16" width="156.2" height="95.1"/>
<rect x="626.5" y="-39.7" class="classic13" width="150" height="150"/>
<rect x="626.5" y="75.9" class="classic17" width="150" height="75"/>
<rect x="626.5" y="-146.6" class="classic18" width="150" height="167"/>
<rect x="406.9" y="24.6" class="classic15" width="182.1" height="40.3"/>
<rect x="498" y="-309.6" class="classic14" width="110.4" height="121.6"/>
<rect x="775.7" y="-146.7" class="classic19" width="88" height="296"/>
</svg>
