<svg id="robot-chute" xmlns="http://www.w3.org/2000/svg" viewBox="0 0 255.6 607" aria-hidden="true"><style>.sr0{fill:#4d9da3}.sr1{fill:#a0c3c6}</style><path class="sr0" d="M0 578h149v29H0z"/><circle class="sr1" cx="18.8" cy="593.5" r="5.1"/><circle class="sr1" cx="41.2" cy="593.5" r="5.1"/><circle class="sr1" cx="63.7" cy="593.5" r="5.1"/><circle class="sr1" cx="86.2" cy="593.5" r="5.1"/><circle class="sr1" cx="108.6" cy="593.5" r="5.1"/><circle class="sr1" cx="131.1" cy="593.5" r="5.1"/><circle class="sr1" cx="74.4" cy="435.4" r="62"/><path class="sr1" d="M47.6 524L7.7 578h133.5l-39.9-54z"/><path class="sr1" d="M198.1 88H194.2c-14.9 0-27.1-12-27.5-27 .4-15 12.6-27 27.5-27h1.8V4h-1.8c-31.5 0-57.1 25-57.5 57 .4 31 26 57 57.5 57H198.1c14.9 0 27.1 12 27.5 27-.4 15-12.6 27-27.5 27H116c-30.8.4-55.8 24.7-56.7 56H59v317h30V229h.3c.4-15 12.6-27 27.5-27h81.3c31.5 0 57.1-26 57.5-57-.4-31-26.1-57-57.5-57z"/><path class="sr0" d="M45 512h59v14H45zM205.2 218.9c-17.5 0-31.7-14.2-31.7-31.7s14.2-31.7 31.7-31.7 31.7 14.2 31.7 31.7-14.2 31.7-31.7 31.7zm0-54.8c-12.8 0-23.2 10.4-23.2 23.2s10.4 23.2 23.2 23.2 23.2-10.4 23.2-23.2-10.4-23.2-23.2-23.2z"/><path class="sr0" d="M205.5 199.8c-6.9 0-12.5-5.6-12.5-12.5s5.6-12.5 12.5-12.5 12.5 5.6 12.5 12.5-5.6 12.5-12.5 12.5zm0-16.5c-2.2 0-4 1.8-4 4s1.8 4 4 4 4-1.8 4-4-1.8-4-4-4z"/><path class="sr0" d="M204 149h3v76h-3z"/><path class="sr0" d="M168 185h75v4h-75z"/><path class="sr0" d="M179.757 159.39l53.032 53.033-2.193 2.192-53.032-53.032z"/><path class="sr0" d="M230.668 159.39l2.192 2.193-53.033 53.032-2.192-2.192zM196 0h9v36h-9zM56 229h36v9H56zM56 349h36v9H56z"/></svg>