<?xml version="1.0" encoding="utf-8"?>
<!-- Generator: Adobe Illustrator 19.0.1, SVG Export Plug-In . SVG Version: 6.00 Build 0)  -->
<svg version="1.1" id="Layer_1" xmlns="http://www.w3.org/2000/svg" xmlns:xlink="http://www.w3.org/1999/xlink" x="0px" y="0px"
	 width="188.3px" height="226.2px" viewBox="0 0 188.3 226.2" style="enable-background:new 0 0 188.3 226.2;" xml:space="preserve"
	>
<style type="text/css">
	.portfolio0{fill:#E5E5E5;}
	.portfolio1{fill:#EA6361;}
	.portfolio2{fill:none;stroke:#C4C4C3;stroke-miterlimit:10;}
	.portfolio3{fill:#C4C4C3;}
	.portfolio4{fill:#969696;}
	.portfolio5{fill:#FFFFFF;}
	.portfolio6{fill:#E28888;}
	.portfolio7{fill:#EFE4A6;}
	.portfolio8{fill:#8CCED8;}
	.portfolio9{fill:#AFBB87;}
	.portfolio10{fill:#383838;}
	.portfolio11{fill:#95BEC0;}
	.portfolio12{fill:#EEC260;}
	.portfolio13{fill:#509EA3;}
	.portfolio14{fill:#D45334;}
	.portfolio15{fill:none;}
	.portfolio16{fill:#F06A66;}
	.portfolio17{fill:#D39F5B;}
</style>
<g>
	<path class="portfolio0" d="M151.6,89.3c-3.3,9.9-12.5,17.2-23.5,17.7c-7.2,0.3-13.8-2.5-18.7-7.1l-1.5,8.4c5.8,4.1,12.8,6.4,20.4,6.1
		c14.3-0.5,26.1-10,30.3-22.8L151.6,89.3z"/>
	<g>
		<circle class="portfolio1" cx="48.6" cy="4.6" r="5"/>
		<path class="portfolio2" d="M56.9,9.7"/>
		<path class="portfolio3" d="M66.6,49.5l-0.9-0.3c3.8-11.3,3.5-21.2-1-29.3l-7.2,0l6.8-5l-3.2,0L61,14.6C56.9,10,52.5,8.1,52.5,8l0.4-0.9
			c0.2,0.1,4.5,2,8.7,6.6l5.8,0l-6.8,5l4.7,0l0.1,0.3C70.2,27.5,70.6,37.7,66.6,49.5z"/>
	</g>
	<path class="portfolio0" d="M166.8,79.7c0,0.1,0.1,0.3,0.1,0.5c0.8,3.4-1.3,6.7-4.6,7.5s-6.7-1.3-7.5-4.6c-0.8-3.4,1.3-6.7,4.6-7.5
		c0.3-0.1,0.6-0.1,0.9-0.1l-0.7-7.4c-0.6,0.1-1.3,0.1-1.9,0.3c-7.4,1.8-12,9.2-10.2,16.5c1.7,7.4,9.2,12,16.5,10.2
		c7.4-1.8,12-9.2,10.2-16.5c-0.1-0.3-0.2-0.7-0.3-1L166.8,79.7z"/>
	<circle class="portfolio4" cx="155.5" cy="89.5" r="4.9"/>
	<path class="portfolio0" d="M13.2,162.8c-0.2,0-0.3,0-0.5-0.1c-3.4-0.6-5.7-3.8-5.1-7.2c0.6-3.4,3.8-5.7,7.2-5.1c3.4,0.6,5.7,3.8,5.1,7.2
		c0,0.3-0.1,0.6-0.2,0.9l7.1,2.2c0.2-0.6,0.4-1.2,0.5-1.9c1.3-7.5-3.8-14.6-11.3-15.8c-7.5-1.3-14.6,3.8-15.8,11.3
		c-1.3,7.5,3.8,14.6,11.3,15.8c0.3,0.1,0.7,0.1,1,0.1L13.2,162.8z"/>
	<path class="portfolio0" d="M57.4,204.1c1.2-0.6,2.5-1,3.9-1.2c1.8-0.3,3.5-0.2,5.1,0.2c-2-3.5-3.3-7.4-3.7-11.7
		c-0.9-9.5,2.8-18.3,9.4-24.3l-5.4-6.5c-8.6,7.7-13.5,19.2-12.4,31.6C54.7,196.5,55.8,200.5,57.4,204.1z"/>
	<path class="portfolio0" d="M20.9,100.2c-5.5,2.2-10.5,5.9-14.3,11c-8.5,11.5-8.6,26.6-1.2,37.9l6.3-4.1c-5.7-8.8-5.6-20.5,1-29.4
		c2.6-3.5,6-6.2,9.7-7.9L20.9,100.2z"/>
	<polygon class="portfolio3" points="93.4,181.4 37.1,179.4 21.1,86.7 109.4,84.7 	"/>
	<g>
		<circle class="portfolio5" cx="65.2" cy="114.2" r="19.8"/>

			<rect x="42" y="114.2" transform="matrix(-0.9987 5.183915e-02 -5.183915e-02 -0.9987 137.8104 244.65)" class="portfolio3" width="47.5" height="19.8"/>
		<g>
			<path class="portfolio6" d="M50.5,100.9c-0.8,0.9-1.5,1.9-2.2,2.9c0,0.1-0.1,0.1-0.1,0.2c-0.3,0.5-0.5,0.9-0.8,1.4
				c-0.1,0.1-0.1,0.2-0.2,0.3c-0.2,0.4-0.4,0.9-0.6,1.3c-0.1,0.2-0.1,0.3-0.2,0.5c-0.2,0.4-0.3,0.9-0.4,1.3
				c-0.1,0.2-0.1,0.4-0.2,0.6c-0.1,0.4-0.2,0.9-0.3,1.3c0,0.2-0.1,0.4-0.1,0.6c-0.1,0.5-0.1,1-0.2,1.6c0,0.1,0,0.3,0,0.4
				c0,0.7,0,1.3,0,2l19.8-1L50.5,100.9z"/>
			<path class="portfolio7" d="M64.2,94.4c-1.2,0.1-2.4,0.2-3.6,0.5c-0.1,0-0.1,0-0.2,0c-0.5,0.1-1,0.3-1.5,0.5c-0.1,0-0.2,0.1-0.3,0.1
				c-0.5,0.2-0.9,0.4-1.4,0.6c-0.1,0.1-0.3,0.1-0.4,0.2c-0.4,0.2-0.8,0.4-1.2,0.6c-0.2,0.1-0.3,0.2-0.5,0.3
				c-0.4,0.2-0.8,0.5-1.1,0.7c-0.2,0.1-0.3,0.2-0.5,0.3c-0.4,0.3-0.8,0.6-1.2,1c-0.1,0.1-0.2,0.2-0.3,0.2c-0.5,0.4-1,0.9-1.4,1.4
				l14.7,13.3L64.2,94.4z"/>
			<path class="portfolio8" d="M78.5,99.5c0.9,0.8,1.7,1.7,2.5,2.7c0,0,0.1,0.1,0.1,0.1c0.3,0.4,0.6,0.9,0.9,1.3c0.1,0.1,0.1,0.2,0.2,0.3
				c0.3,0.4,0.5,0.8,0.7,1.3c0.1,0.1,0.2,0.3,0.2,0.4c0.2,0.4,0.4,0.8,0.5,1.3c0.1,0.2,0.2,0.4,0.2,0.5c0.2,0.4,0.3,0.9,0.4,1.3
				c0.1,0.2,0.1,0.4,0.2,0.6c0.1,0.5,0.2,1,0.3,1.5c0,0.1,0.1,0.2,0.1,0.4c0.1,0.7,0.2,1.3,0.2,2l-19.8,1L78.5,99.5z"/>
			<path class="portfolio9" d="M64.2,94.4c1.2-0.1,2.4,0,3.6,0.2c0.1,0,0.1,0,0.2,0c0.5,0.1,1,0.2,1.6,0.3c0.1,0,0.2,0,0.3,0.1
				c0.5,0.1,0.9,0.3,1.4,0.4c0.2,0.1,0.3,0.1,0.5,0.1c0.4,0.2,0.8,0.3,1.3,0.5c0.2,0.1,0.4,0.1,0.5,0.2c0.4,0.2,0.8,0.4,1.2,0.6
				c0.2,0.1,0.4,0.2,0.5,0.3c0.4,0.3,0.9,0.6,1.3,0.9c0.1,0.1,0.2,0.1,0.3,0.2c0.5,0.4,1,0.8,1.5,1.3l-13.3,14.7L64.2,94.4z"/>
		</g>
		<path class="portfolio5" d="M67.3,112.1c-0.2,0.8-0.9,1.3-1.7,1.1c-0.8-0.2-1.3-0.9-1.1-1.7c0.2-0.8,3.8-10.9,3.8-10.9
			S67.4,111.3,67.3,112.1z"/>
		<circle class="portfolio0" cx="65.2" cy="114.2" r="4.7"/>
	</g>
	<g>
		<g>
			<path class="portfolio10" d="M181.6,87.1c-1.7-0.4-2.7-2.2-2.3-3.9c0.4-1.7,2.2-2.7,3.9-2.3c1.7,0.4,5.2,4.6,5.2,4.6
				S183.3,87.5,181.6,87.1z"/>
			<path class="portfolio11" d="M184.2,82.6c-0.3,1.4-0.1,2.8,0.5,4.1c1.8-0.5,3.5-1.2,3.5-1.2s-2-2.4-3.8-3.8
				C184.4,82,184.3,82.3,184.2,82.6z"/>
		</g>
		<path class="portfolio12" d="M171.2,84c-3.4-0.9-30.4-8.8-30-10.2c0.3-1.4,27.9,4.5,31.3,5.3s5.9,2.7,5.5,4
			C177.7,84.5,174.6,84.9,171.2,84z"/>
	</g>
	<path class="portfolio0" d="M159.4,75.6c0.3-0.1,0.6-0.1,0.9-0.1l-0.7-7.4c-0.6,0.1-1.3,0.1-1.9,0.3c-7.1,1.7-11.6,8.6-10.4,15.7l7.3-3.1
		C154.9,78.3,156.8,76.2,159.4,75.6z"/>
	<path class="portfolio0" d="M65.7,45.5c-18,0-32.7,14.6-32.7,32.7v5.1h65.3v-5.1C98.4,60.1,83.8,45.5,65.7,45.5z"/>
	<circle class="portfolio4" cx="61.9" cy="73.6" r="1.7"/>
	<circle class="portfolio4" cx="73.2" cy="73.6" r="1.7"/>
	<circle class="portfolio13" cx="87.7" cy="154.5" r="1.4"/>
	<circle class="portfolio13" cx="82.7" cy="145.5" r="0.7"/>
	<circle class="portfolio11" cx="35.6" cy="116.5" r="1.2"/>
	<circle class="portfolio14" cx="73.7" cy="60.1" r="1.3"/>
	<circle class="portfolio14" cx="77.7" cy="67.1" r="0.9"/>
	<path class="portfolio14" d="M86.4,52.8c-0.2,0.1-0.4,0.3-0.5,0.7c-0.6,2-0.2,5.7-0.2,5.7c-0.2,2-5.1,2.8-4.1,5c1.1,2.2,7.6,2.6,8.5,0.8
		c0.9-1.7,4.2-1.1,4.2,1.3c-0.1,1.7,1.5,1.9,2.5,1.4C94.7,61.8,91.1,56.6,86.4,52.8z"/>
	<path class="portfolio15" d="M65.7,45.5c-18,0-32.7,14.6-32.7,32.7v5.1h65.3v-5.1C98.4,60.1,83.8,45.5,65.7,45.5z"/>
	<path class="portfolio16" d="M95.9,118.9c-1.3-7.5-9,3.3-9,3.3S84,128,90,129s6.2,6.7,4.3,8c-2,1.3-7,8-2.3,9.3c2,0.6,4.7,0.7,7.1,0.6
		l4.2-25.3C100,122.6,96.6,122.7,95.9,118.9z"/>
	<path class="portfolio11" d="M45.6,132.3c-4.1-0.2-1.6-11.8-8.3-12c-6.6-0.2,0.6,10.2-3,12c0,0-2.3,1.4-4.9,2.4l5,28.9
		c2.1,3.1,4.1,6.7,7.1,5.1c5-2.6,5.3-17.4,1.3-19.3s-2.9-9.6,2.7-9.6C51.2,139.8,49.7,132.5,45.6,132.3z"/>
	<path class="portfolio13" d="M97.1,158.6c-2.3,2.1-4.2,7.6-6.8,6.7c0,0-13.9-3.3-9.5-9.5s-8.7-4-8.7-4s-6.2,2.1-2.7,7
		c3.5,4.9-0.3,9.1-2.7,8.7c-2.3-0.5-10.6,0.7-8.2,5c1.7,3,5.6,6.4,7.7,8.1l17.9,0.6c0.8-3.3,5.6-5.8,8.8-2.5
		c0.2,0.2,0.5,0.5,0.7,0.6L97.1,158.6z"/>
	<polygon class="portfolio15" points="93.4,181.4 37.1,179.4 21.1,86.7 109.4,84.7 	"/>
	<g>
		<path class="portfolio12" d="M32.9,150.3c-3-0.4-5.9-0.7-8.6-0.4s-4.5,1.9-4.4,3.3c0.1,2.3,4.8,2,2.2,4.4c-2.6,2.3-5.5-2.5-9.4-3
			c-3.9-0.5-6.9,2.3-7.2,4.6c-0.9,6.8,10,13.8,24.2,15.6s26.5-2.1,27.4-8.9C58,159.2,47.1,152.2,32.9,150.3z M29.8,157
			c-1.8-0.2-3.2-1.1-3.1-2c0.1-0.9,1.7-1.4,3.5-1.1s3.2,1.1,3.1,2C33.2,156.8,31.6,157.3,29.8,157z"/>
		<path class="portfolio6" d="M12,163.8c-0.4,1.3,1.8,2.8,2.8,2.6s3.1-0.5,3.2-1.2c0.2-0.7-2-2-2.6-2.1c-0.6-0.1-1.9-1.2-2.5-0.8
			S12,163.8,12,163.8z"/>
		<path class="portfolio17" d="M20.1,168.2c-0.4,1.3,1.8,2.8,2.8,2.6s3.1-0.5,3.2-1.2c0.2-0.7-2-2-2.6-2.1s-1.9-1.2-2.5-0.8
			S20.1,168.2,20.1,168.2z"/>
		<path class="portfolio7" d="M29,170.3c-0.4,1.3,1.8,2.8,2.8,2.6c1-0.2,3.1-0.5,3.3-1.2c0.2-0.7-2-2-2.6-2.1c-0.6-0.1-1.9-1.2-2.5-0.8
			S29,170.3,29,170.3z"/>
		<path class="portfolio9" d="M38.4,168.8c-0.4,1.3,1.8,2.8,2.8,2.6s3.1-0.5,3.2-1.2c0.2-0.7-2-2-2.6-2.1s-1.9-1.2-2.5-0.8
			S38.4,168.8,38.4,168.8z"/>
		<path class="portfolio8" d="M45.4,165.9c-0.4,1.3,1.8,2.8,2.8,2.6s3.1-0.5,3.2-1.2c0.2-0.7-2-2-2.6-2.1s-1.9-1.2-2.5-0.8
			S45.4,165.9,45.4,165.9z"/>
	</g>
	<path class="portfolio0" d="M16.9,143.2l-1.8,7.3c3.3,0.7,5.4,3.8,4.9,7.2c0,0.3-0.1,0.6-0.2,0.9l7.1,2.2c0.2-0.6,0.4-1.2,0.5-1.9
		C28.5,151.6,23.9,144.8,16.9,143.2z"/>
	<circle class="portfolio4" cx="8.9" cy="148.1" r="4.9"/>
	<path class="portfolio3" d="M51.2,215.6c0.4-5.6,4.6-10.3,10.3-11.2c5.7-0.9,11.2,2.5,13.1,7.7l4.7-0.7c-2.4-7.8-10.2-12.9-18.5-11.6
		c-8.3,1.2-14.3,8.4-14.3,16.5L51.2,215.6z"/>
	<circle class="portfolio3" cx="63.3" cy="216.4" r="9.5"/>
</g>
</svg>
