<?xml version="1.0" encoding="utf-8"?>
<!-- Generator: Adobe Illustrator 19.0.1, SVG Export Plug-In . SVG Version: 6.00 Build 0)  -->
<svg version="1.1" id="Layer_1" xmlns="http://www.w3.org/2000/svg" xmlns:xlink="http://www.w3.org/1999/xlink" x="0px" y="0px"
	 width="188.3px" height="226.2px" viewBox="0 0 188.3 226.2" style="enable-background:new 0 0 188.3 226.2;" xml:space="preserve"
	>
<style type="text/css">
	.modern0{fill:#C4C4C3;}
	.modern1{fill:#E5E5E5;}
	.modern2{fill:none;}
	.modern3{fill:#3CBFB8;}
	.modern4{opacity:0.1;fill:#127067;}
	.modern5{opacity:0.1;}
	.modern6{fill:#127067;}
	.modern7{opacity:0.2;fill:#127067;}
	.modern8{opacity:0.2;}
	.modern9{fill:#969696;}
	.modern10{fill:#C4AE7E;}
	.modern11{fill:#BC4926;}
	.modern12{fill:#60371A;}
	.modern13{fill:#383838;}
</style>
<g>
	<polygon class="modern0" points="123.1,178.2 66.9,178.2 50.8,85.5 139.2,85.5 	"/>
	<path class="modern1" d="M44.6,144.7c-8.3-6.3-12.3-17.4-9-28c2.8-9.4,10.6-16,19.6-17.8l-1.5-7.3c-11.6,2.4-21.6,10.8-25.3,23
		c-4.1,13.7,0.9,27.9,11.7,36.1L44.6,144.7z"/>
	<path class="modern1" d="M142.3,146.1c8.3-6.3,12.3-17.4,9-28c-2.8-9.4-10.6-16-19.6-17.8l1.5-7.3c11.6,2.4,21.6,10.8,25.3,23
		c4.1,13.7-0.9,27.9-11.7,36.1L142.3,146.1z"/>
	<g>
		<g>
			<path class="modern1" d="M93.2,180.4c1.1,3.6,1.5,7.4,1.2,11.4c-0.4,4.4-1.8,8.5-3.9,12.1c1.8-0.3,3.6-0.4,5.4-0.1
				c1.3,0.2,2.5,0.5,3.6,1c1.7-3.8,2.9-7.9,3.3-12.2c0.4-4.2,0.1-8.3-0.8-12.1H93.2z"/>
		</g>
		<g>
			<path class="modern0" d="M82.4,212.4c2-5.2,7.4-8.6,13.1-7.7c5.7,0.9,9.9,5.6,10.3,11.2l4.7,0.7c0-8.2-6-15.3-14.3-16.5
				c-8.3-1.2-16.1,3.8-18.5,11.6L82.4,212.4z"/>
			<circle class="modern0" cx="93.8" cy="216.7" r="9.5"/>
		</g>
	</g>
	<polygon class="modern2" points="123.1,178.2 66.9,178.2 50.8,85.5 139.2,85.5 	"/>
	<path class="modern3" d="M159,139.6c6.4-15.5,1.2-33.8-13.2-43.5c-2.3-1.5-4.7-2.8-7.2-3.7l0.5-6.9h-31.8H81.6H50.8l0.3,4.5
		c-3.5,1-6.9,2.6-10.1,4.7c-14.4,9.7-19.6,28.1-13.2,43.5l-3.1,2.1l5.6,8.3l13.9-9.4l-5.6-8.3l-1.4,1c-3.1-10.3,0.6-21.8,10-28.1
		c1.5-1,3.1-1.8,4.7-2.5l4.6,63.5c0,0,15.4,8,39.5,8c24.1,0,37.4-8,37.4-8l4.4-60.7c0.6,0.3,1.3,0.7,1.9,1.1
		c9.4,6.3,13.1,17.8,10,28.1l-1.4-1l-5.6,8.3l13.9,9.4l5.6-8.3L159,139.6z"/>
	<path class="modern2" d="M159.4,139.6c6.4-15.5,1.2-33.8-13.2-43.5c-2.3-1.5-4.7-2.8-7.2-3.7l0.5-6.9h-31.8H82H51.2l0.3,4.5
		c-3.5,1-6.9,2.6-10.1,4.7c-14.4,9.7-19.6,28.1-13.2,43.5l-3.1,2.1l5.6,8.3l13.9-9.4l-5.6-8.3l-1.4,1c-3.1-10.3,0.6-21.8,10-28.1
		c1.5-1,3.1-1.8,4.7-2.5l4.6,63.5c0,0,15.4,8,39.5,8s37.4-8,37.4-8l4.4-60.7c0.6,0.3,1.3,0.7,1.9,1.1c9.4,6.3,13.1,17.8,10,28.1
		l-1.4-1l-5.6,8.3l13.9,9.4l5.6-8.3L159.4,139.6z"/>
	<path class="modern2" d="M159,139.6c6.4-15.5,1.2-33.8-13.2-43.5c-2.3-1.5-4.7-2.8-7.2-3.7l0.5-6.9h-31.8H81.6H50.8l0.3,4.5
		c-3.5,1-6.9,2.6-10.1,4.7c-14.4,9.7-19.6,28.1-13.2,43.5l-3.1,2.1l5.6,8.3l13.9-9.4l-5.6-8.3l-1.4,1c-3.1-10.3,0.6-21.8,10-28.1
		c1.5-1,3.1-1.8,4.7-2.5l4.6,63.5c0,0,15.4,8,39.5,8c24.1,0,37.4-8,37.4-8l4.4-60.7c0.6,0.3,1.3,0.7,1.9,1.1
		c9.4,6.3,13.1,17.8,10,28.1l-1.4-1l-5.6,8.3l13.9,9.4l5.6-8.3L159,139.6z"/>
	<path class="modern2" d="M159,139.6c6.4-15.5,1.2-33.8-13.2-43.5c-2.3-1.5-4.7-2.8-7.2-3.7l0.5-6.9h-31.8H81.6H50.8l0.3,4.5
		c-3.5,1-6.9,2.6-10.1,4.7c-14.4,9.7-19.6,28.1-13.2,43.5l-3.1,2.1l5.6,8.3l13.9-9.4l-5.6-8.3l-1.4,1c-3.1-10.3,0.6-21.8,10-28.1
		c1.5-1,3.1-1.8,4.7-2.5l4.6,63.5c0,0,15.4,8,39.5,8c24.1,0,37.4-8,37.4-8l4.4-60.7c0.6,0.3,1.3,0.7,1.9,1.1
		c9.4,6.3,13.1,17.8,10,28.1l-1.4-1l-5.6,8.3l13.9,9.4l5.6-8.3L159,139.6z"/>
	<path class="modern4" d="M96,172.8c11,0,19.7-1.7,25.9-3.5H69.2C75.9,171.1,85.1,172.8,96,172.8z"/>
	<path class="modern4" d="M56,157.6l0.5,7.1c0,0,1.3,0.7,3.7,1.6h70c2.1-0.9,3.2-1.6,3.2-1.6l0.5-7.1H56z"/>
	<g class="modern5">
		<polygon class="modern6" points="30.4,148.5 34.2,146 28.7,146 		"/>
		<polygon class="modern6" points="134.8,146 55.2,146 55.8,154.7 134.2,154.7 		"/>
		<polygon class="modern6" points="150.6,146 156.5,150 159.3,146 		"/>
	</g>
	<g class="modern5">
		<path class="modern6" d="M146.9,134.3l-4.3,6.3l3.6,2.4h15l0.9-1.3l-3.1-2.1c0.7-1.7,1.3-3.5,1.7-5.3H146.9z"/>
		<polygon class="modern6" points="135.6,134.3 54.4,134.3 55,143 135,143 		"/>
		<path class="modern6" d="M44.3,139.2l-3.3-4.9H26.6c0.4,1.3,0.8,2.6,1.3,3.9l-3.1,2.1l1.9,2.8h11.9L44.3,139.2z"/>
	</g>
	<g class="modern5">
		<path class="modern6" d="M36.3,122.6h-11c-0.2,2.9,0,5.8,0.6,8.7h11.3C36.3,128.5,36.1,125.5,36.3,122.6z"/>
		<path class="modern6" d="M150.2,131.3h11.2c0.4-2.9,0.5-5.8,0.2-8.7h-11.1C150.9,125.5,150.8,128.4,150.2,131.3z"/>
		<polygon class="modern6" points="38.7,130.9 38,131.3 39,131.3 		"/>
		<polygon class="modern6" points="136.5,122.6 53.5,122.6 54.1,131.3 135.9,131.3 		"/>
	</g>
	<g class="modern5">
		<path class="modern6" d="M145.7,110.9c2,2.6,3.4,5.6,4.2,8.7h11.2c-0.5-3-1.4-6-2.7-8.7H145.7z"/>
		<polygon class="modern6" points="137.3,110.9 52.7,110.9 53.3,119.7 136.7,119.7 		"/>
		<path class="modern6" d="M27.9,110.9c-1.1,2.8-1.9,5.7-2.3,8.7h11.1c0.6-3.1,1.8-6.1,3.5-8.7H27.9z"/>
	</g>
	<path class="modern4" d="M29.2,108h13.2c1.4-1.6,3-3,4.8-4.2c1.5-1,3.1-1.8,4.7-2.5l0.5,6.7h85.1l0.3-3.9c0.6,0.3,1.3,0.7,1.9,1.1
		c1.2,0.8,2.4,1.8,3.4,2.8h13.8c-1.8-3.2-4.2-6.2-7.1-8.7H35.6C33,101.9,30.9,104.8,29.2,108z"/>
	<path class="modern4" d="M51,87.6l0.2,2.4c-3.5,1-6.9,2.6-10.1,4.7c-0.8,0.5-1.5,1.1-2.3,1.7h107.3c-0.1-0.1-0.2-0.1-0.3-0.2
		c-2.3-1.5-4.7-2.8-7.2-3.7l0.3-4.8H51z"/>
	<path class="modern7" d="M25.6,141.4l4.8,7.1l3.9-2.6v-45.3c-4.8,5.4-7.8,12-8.7,18.9v10.2c0.4,2.9,1.2,5.8,2.3,8.6l-2.3,1.6V141.4z"/>
	<path class="modern7" d="M139.3,92.6c-0.2-0.1-0.4-0.2-0.7-0.3l0.5-6.9h-8.6v80.8c1.9-0.8,2.9-1.4,2.9-1.4l4.4-60.7
		c0.5,0.3,1,0.6,1.5,0.9V92.6z"/>
	<path class="modern7" d="M107.2,172.2c3.2-0.4,6.1-0.8,8.7-1.4V85.5h-8.6h-0.1V172.2z"/>
	<path class="modern7" d="M95.6,172.8c0.2,0,0.3,0,0.5,0c2.9,0,5.7-0.1,8.3-0.3v-87h-8.7V172.8z"/>
	<path class="modern7" d="M83.9,172.1c2.7,0.3,5.7,0.5,8.7,0.6V85.5h-8.7V172.1z"/>
	<path class="modern7" d="M72.2,170.1c2.6,0.6,5.6,1.2,8.7,1.6V85.5h-8.7V170.1z"/>
	<path class="modern7" d="M60.6,166.5c2.1,0.8,5.1,1.9,8.7,2.8V85.5h-8.7V166.5z"/>
	<path class="modern7" d="M57.7,85.5h-6.8l0.3,4.5c-0.8,0.2-1.5,0.5-2.2,0.7v12.1c1-0.6,2-1.1,3.1-1.5l4.6,63.5c0,0,0.4,0.2,1.1,0.5
		V85.5z"/>
	<g class="modern8">
		<path class="modern6" d="M38.7,130.9l-1.4,1c0-0.1,0-0.1,0-0.2v12.3l7-4.7L38.7,130.9z"/>
		<path class="modern6" d="M46,91.9c-1.7,0.8-3.3,1.7-4.9,2.8c-1.4,0.9-2.7,1.9-3.9,3v19.8c1.5-4.9,4.4-9.4,8.7-12.8V91.9z"/>
	</g>
	<path class="modern7" d="M118.9,170.1c3.5-0.9,6.5-1.8,8.7-2.7v-82h-8.7V170.1z"/>
	<path class="modern7" d="M148.2,132.3l-5.6,8.3l8.3,5.6v-45.9c-1.6-1.5-3.3-2.9-5.2-4.2c-1.2-0.8-2.4-1.5-3.6-2.1v13.2
		c7.5,6.6,10.2,16.8,7.4,26.1L148.2,132.3z"/>
	<path class="modern7" d="M153.9,103.5v44.7l2.6,1.8l5.6-8.3l-3.1-2.1C164,127.5,162,113.7,153.9,103.5z"/>
	<g>
		<path class="modern1" d="M52.6,160.5c-0.2,0-0.3,0.1-0.5,0.1c-3.4,0.6-6.7-1.6-7.3-5c-0.6-3.4,1.6-6.7,5-7.3c3.4-0.6,6.7,1.6,7.3,5
			c0.1,0.3,0.1,0.6,0.1,0.9l7.5-0.3c0-0.6-0.1-1.3-0.2-1.9c-1.4-7.5-8.5-12.4-16-11.1c-7.5,1.4-12.4,8.5-11.1,16
			c1.4,7.5,8.5,12.4,16,11.1c0.3-0.1,0.7-0.1,1-0.2L52.6,160.5z"/>
		<circle class="modern9" cx="43" cy="148.4" r="4.9"/>
	</g>
	<g>
		<path class="modern1" d="M134.4,162c0.2,0,0.3,0.1,0.5,0.1c3.4,0.6,6.7-1.6,7.3-5c0.6-3.4-1.6-6.7-5-7.3c-3.4-0.6-6.7,1.6-7.3,5
			c-0.1,0.3-0.1,0.6-0.1,0.9l-7.5-0.3c0-0.6,0.1-1.3,0.2-1.9c1.4-7.5,8.5-12.4,16-11.1c7.5,1.4,12.4,8.5,11.1,16
			c-1.4,7.5-8.5,12.4-16,11.1c-0.3-0.1-0.7-0.1-1-0.2L134.4,162z"/>
		<circle class="modern9" cx="143.9" cy="149.9" r="4.9"/>
	</g>
	<g>
		<g>
			<g>
				<path class="modern10" d="M113.1,46.7c0,0,1.4-21-8.1-21s-1.8,1.2-6.5,0s-12.3-2-13.5,0s-6.4,14.7-5.2,19.2S113.1,46.7,113.1,46.7z"
					/>
				<path class="modern11" d="M98.8,35.2c5.8,0.4,10.4,1.4,14.1,2.7c0.5,4.6,0.3,8.8,0.3,8.8S81,49.4,79.8,44.9c-0.6-2,0.2-5.7,1.3-9.3
					C85.4,34.9,91.2,34.6,98.8,35.2z"/>
				<path class="modern10" d="M126.1,57.7c0,0-1.1-13.5-27.5-15.5s-30.2,6.2-32,9.5s1,13.5,10.8,15s26.1-1.2,31.9-3
					S127.3,61.3,126.1,57.7z"/>
			</g>
			<path class="modern1" d="M96,45.8c-18,0-32.7,14.6-32.7,32.7v5.1h65.3v-5.1C128.7,60.4,114.1,45.8,96,45.8z"/>
			<g>
				<path class="modern12" d="M99.7,88.8h-7.1c-3.3,0-6.1-2.7-6.1-6.1v0c0-3.3,2.7-6.1,6.1-6.1h7.1c3.3,0,6.1,2.7,6.1,6.1v0
					C105.7,86.1,103,88.8,99.7,88.8z"/>
				<path class="modern12" d="M126.9,79.3L106.8,81l0-0.1l-10.4,0.9l-10.4-0.9l0,0.1L66,79.3c0,0-0.1,7.3-0.1,16.8s27.2,21,30.6,21
					c3.4,0,30.6-11.5,30.6-21S126.9,79.3,126.9,79.3z"/>
				<path class="modern1" d="M96,86.2c-1.5,0-3,0.3-4.4,0.7c2-1.8,3.5-4.1,4.4-6.7c0.9,2.6,2.4,4.9,4.4,6.7C99,86.5,97.6,86.2,96,86.2z"
					/>
			</g>
			<g>
				<path class="modern13" d="M88.4,75.7c1.1-2.6,3.7-4.4,6.6-4.3c2.6,0.1,4.9,1.6,5.9,3.8l1.8-0.9c-1.4-2.8-4.3-4.8-7.7-5
					c-3.8-0.1-7.1,2.2-8.5,5.5L88.4,75.7z"/>
				<g>
					<path class="modern13" d="M91.7,78.3H78.1c-1.1,0-2-0.9-2-2v-8.1c0-1.1,0.9-2,2-2h13.7c1.1,0,2,0.9,2,2v8.1
						C93.7,77.4,92.8,78.3,91.7,78.3z"/>
					<path class="modern13" d="M79.4,69.1h-4.1c-0.5,0-1-0.4-1-1v-1c0-0.5,0.5-1,1-1h4.1c0.6,0,1,0.5,1,1v1
						C80.4,68.7,79.9,69.1,79.4,69.1z"/>
					<path class="modern1" d="M90.7,76.9H79.9c-0.6,0-1-0.4-1-1v-5.8c0-0.5,0.4-1,1-1h10.9c0.6,0,1,0.5,1,1v5.8
						C91.7,76.5,91.3,76.9,90.7,76.9z"/>
				</g>
				<g>
					<path class="modern13" d="M98.5,78.3h13.7c1.1,0,2-0.9,2-2v-8.1c0-1.1-0.9-2-2-2H98.5c-1.1,0-2,0.9-2,2v8.1
						C96.5,77.4,97.4,78.3,98.5,78.3z"/>
					<path class="modern13" d="M110.9,69.1h4.1c0.6,0,1-0.4,1-1v-1c0-0.5-0.4-1-1-1h-4.1c-0.5,0-1,0.5-1,1v1
						C109.9,68.7,110.3,69.1,110.9,69.1z"/>
					<path class="modern1" d="M99.5,76.9h10.9c0.6,0,1-0.4,1-1v-5.8c0-0.5-0.4-1-1-1H99.5c-0.5,0-1,0.5-1,1v5.8
						C98.5,76.5,99,76.9,99.5,76.9z"/>
				</g>
				<circle class="modern9" cx="100.6" cy="74.7" r="1.7"/>
				<circle class="modern9" cx="89.2" cy="74.7" r="1.7"/>
			</g>
		</g>
		<path class="modern11" d="M90.8,84.1c-3.2,0-6.7,9.7-8.8,9.7c-1.3,0-1.7-0.8-1.8-1.4c0,0,0,0,0-0.1v-4.2h-7.3v4.2
			c0,4.4,1.8,6.9,8.4,5.9c4.2-0.6,6.5-12.8,9.4-12.8c1.9,0,3.2,0,3.2,0v-1.4C94,84.1,94,84.1,90.8,84.1z"/>
	</g>
</g>
</svg>
