<?xml version="1.0" encoding="utf-8"?>
<!-- Generator: Adobe Illustrator 19.0.1, SVG Export Plug-In . SVG Version: 6.00 Build 0)  -->
<svg version="1.1" xmlns="http://www.w3.org/2000/svg" xmlns:xlink="http://www.w3.org/1999/xlink" x="0px" y="0px"
	 viewBox="0 0 161.3 226.2" style="enable-background:new 0 0 161.3 226.2;" xml:space="preserve">
<style type="text/css">
	.business0{fill:#ECECEC;}
	.business1{fill:#CECCCB;}
	.business2{fill:#FFFFFF;}
	.business3{fill:#9F9C9A;}
	.business4{fill:#68ACAF;}
	.business5{fill:none;stroke:#CECCCB;stroke-miterlimit:10;}
	.business6{fill:none;stroke:#CECCCB;stroke-width:2;stroke-miterlimit:10;}
	.business7{display:none;}
	.business8{display:inline;fill:#ECECEC;}
	.business9{display:inline;fill:#CECCCB;}
	.business10{display:inline;fill:#FFFFFF;}
	.business11{display:inline;}
	.business12{display:inline;fill:none;stroke:#CECCCB;stroke-width:2;stroke-miterlimit:10;}
	.business13{opacity:0.23;}
	.business14{clip-path:url(#SVGID_2_);fill:none;stroke:#FFFFFF;stroke-miterlimit:10;}
	.business15{display:inline;fill:#5C9390;}
	.business16{display:inline;opacity:0.49;fill:#68ACAF;}
	.business17{display:inline;fill:#68ACAF;}
	.business18{fill:#5C9390;}
	.business19{opacity:0.49;fill:#68ACAF;}
	.business20{fill:none;stroke:#5C9390;stroke-width:5;stroke-miterlimit:10;}
	.business21{opacity:0.5;fill:#5C9390;}
	.business22{display:none;fill:#ECECEC;}
	.business23{fill:#E75B5B;}
	.business24{fill:none;}
</style>
<g id="robot_old">
	<path class="business0" d="M-145.5,209l0.1,0.2l9.1,0.9c2.3-4.3,3.8-9.1,4.3-14.3c1.2-12.4-3.8-23.9-12.4-31.6l-5.4,6.5
		c6.5,6,10.2,14.8,9.4,24.3C-140.8,200.2-142.6,205-145.5,209z"/>
	<circle class="business1" cx="-140.9" cy="219.9" r="16.8"/>
	<circle class="business2" cx="-140.9" cy="219.9" r="12.1"/>

		<rect x="-170.6" y="217.4" transform="matrix(0.9891 0.1474 -0.1474 0.9891 32.0508 23.2765)" class="business2" width="59.2" height="21"/>
	<path class="business0" d="M-80.1,142.5c7-7.8,8.9-19.3,3.8-29.2c-4.5-8.7-13.3-13.8-22.5-13.9l0.1-7.5c11.8,0.2,23.2,6.7,29,17.9
		c6.6,12.7,4.2,27.6-4.8,37.6L-80.1,142.5z"/>
	<path class="business0" d="M-79.6,159.9c0.1-0.1,0.3-0.1,0.4-0.2c3-1.7,4.2-5.5,2.5-8.5c-1.7-3-5.5-4.2-8.5-2.5c-3,1.7-4.2,5.5-2.5,8.5
		c0.1,0.3,0.3,0.5,0.5,0.7l-6,4.4c-0.4-0.5-0.7-1-1-1.6c-3.6-6.7-1.2-15,5.5-18.6c6.7-3.6,15-1.2,18.6,5.5c3.6,6.7,1.2,15-5.5,18.6
		c-0.3,0.2-0.6,0.3-0.9,0.4L-79.6,159.9z"/>
	<circle class="business3" cx="-77.9" cy="145.8" r="4.9"/>
	<g>
		<path class="business0" d="M-196.4,74.5c-4.4,9.5-2.8,21.1,5,29c6.9,7,16.8,9.3,25.6,6.7l2.1,7.2c-11.4,3.3-24.2,0.4-33-8.6
			c-10-10.2-12.1-25.2-6.4-37.4L-196.4,74.5z"/>
		<path class="business0" d="M-196.7,56.8c-0.2,0-0.3,0.1-0.5,0.1c-3.3,1-5.1,4.5-4.1,7.8c1,3.3,4.5,5.1,7.8,4.1c3.3-1,5.1-4.5,4.1-7.8
			c-0.1-0.3-0.2-0.6-0.3-0.8l6.8-3.2c0.3,0.6,0.5,1.2,0.7,1.8c2.3,7.2-1.8,15-9,17.2c-7.2,2.3-15-1.8-17.2-9c-2.3-7.2,1.8-15,9-17.2
			c0.3-0.1,0.7-0.2,1-0.3L-196.7,56.8z"/>
		<circle class="business3" cx="-199.5" cy="71.9" r="4.9"/>
	</g>
	<circle class="business1" cx="-140.9" cy="219.9" r="9.5"/>
	<g>
		<g>
			<circle class="business4" cx="-120.6" cy="8.2" r="5"/>
			<path class="business5" d="M-128.9,13.2"/>
			<path class="business5" d="M-138.1,52.8c-4.6-13.7-2.6-23.4,1.2-30l5.9,0l-6.8-5l4.5,0c4.2-4.7,8.6-6.7,8.6-6.7"/>
		</g>
		<path class="business0" d="M-138.7,49c-18,0-32.7,14.6-32.7,32.7v5.1h65.3v-5.1C-106,63.6-120.6,49-138.7,49z"/>
		<circle class="business3" cx="-142.5" cy="77.2" r="1.7"/>
		<circle class="business3" cx="-131.2" cy="77.2" r="1.7"/>
	</g>
	<polygon class="business2" points="-109.5,187.1 -168.9,185.1 -186.4,88 -92,86 	"/>
	<g>
		<polygon class="business1" points="-166,181.5 -181.6,91.7 -96.8,89.8 -112.3,183.4 		"/>
		<path class="business1" d="M-98.6,91.3l-15,90.5l-51.2-1.8l-15-86.9L-98.6,91.3 M-95,88.2l-88.3,2l16,92.7l56.3,2L-95,88.2L-95,88.2z"/>
	</g>
	<circle class="business6" cx="-145.8" cy="77.2" r="6.8"/>
	<circle class="business6" cx="-131.2" cy="76.2" r="6.8"/>
	<path class="business6" d="M-124.7,72.2c5.6-2.9,11.1-4.4,17.3-3.8"/>
	<path class="business6" d="M-152.7,74.6c0,0-5-6-16.9-4.5"/>
</g>
<g id="robot" class="business7">
	<path class="business8" d="M-145.5,209l0.1,0.2l9.1,0.9c2.3-4.3,3.8-9.1,4.3-14.3c1.2-12.4-3.8-23.9-12.4-31.6l-5.4,6.5
		c6.5,6,10.2,14.8,9.4,24.3C-140.8,200.2-142.6,205-145.5,209z"/>

		<rect x="-87.2" y="146.3" transform="matrix(0.8553 0.5181 -0.5181 0.8553 68.5845 65.8467)" class="business8" width="7.1" height="18.8"/>
	<circle class="business9" cx="-140.9" cy="219.9" r="16.8"/>
	<circle class="business10" cx="-140.9" cy="219.9" r="12.1"/>

		<rect x="-170.6" y="217.4" transform="matrix(0.9891 0.1474 -0.1474 0.9891 32.0508 23.2765)" class="business10" width="59.2" height="21"/>
	<g class="business11">
		<path class="business0" d="M-81.1,144.4c6.5-8.2,7.6-19.9,2-29.4c-5.1-8.4-14.2-12.9-23.3-12.5l-0.4-7.5c11.8-0.5,23.6,5.3,30.1,16.1
			c7.3,12.2,5.9,27.3-2.5,37.8L-81.1,144.4z"/>
		<circle class="business3" cx="-78.7" cy="147.6" r="4.9"/>
	</g>
	<g class="business11">
		<path class="business0" d="M-196.4,74.5c-4.4,9.5-2.8,21.1,5,29c6.9,7,16.8,9.3,25.6,6.7l2.1,7.2c-11.4,3.3-24.2,0.4-33-8.6
			c-10-10.2-12.1-25.2-6.4-37.4L-196.4,74.5z"/>
		<path class="business0" d="M-196.7,56.8c-0.2,0-0.3,0.1-0.5,0.1c-3.3,1-5.1,4.5-4.1,7.8c1,3.3,4.5,5.1,7.8,4.1c3.3-1,5.1-4.5,4.1-7.8
			c-0.1-0.3-0.2-0.6-0.3-0.8l6.8-3.2c0.3,0.6,0.5,1.2,0.7,1.8c2.3,7.2-1.8,15-9,17.2c-7.2,2.3-15-1.8-17.2-9c-2.3-7.2,1.8-15,9-17.2
			c0.3-0.1,0.7-0.2,1-0.3L-196.7,56.8z"/>
		<circle class="business3" cx="-199.5" cy="71.9" r="4.9"/>
	</g>
	<circle class="business9" cx="-140.9" cy="219.9" r="9.5"/>
	<g class="business11">
		<g>
			<circle class="business4" cx="-120.6" cy="8.2" r="5"/>
			<path class="business5" d="M-128.9,13.2"/>
			<path class="business5" d="M-138.1,52.8c-4.6-13.7-2.6-23.4,1.2-30l5.9,0l-6.8-5l4.5,0c4.2-4.7,8.6-6.7,8.6-6.7"/>
		</g>
		<path class="business0" d="M-138.7,49c-18,0-32.7,14.6-32.7,32.7v5.1h65.3v-5.1C-106,63.6-120.6,49-138.7,49z"/>
		<circle class="business3" cx="-142.5" cy="77.2" r="1.7"/>
		<circle class="business3" cx="-131.2" cy="77.2" r="1.7"/>
	</g>
	<polygon class="business10" points="-109.5,187.1 -168.9,185.1 -186.4,88 -92,86 	"/>
	<g class="business11">
		<polygon class="business1" points="-166,181.5 -181.6,91.7 -96.8,89.8 -112.3,183.4 		"/>
		<path class="business1" d="M-98.6,91.3l-15,90.5l-51.2-1.8l-15-86.9L-98.6,91.3 M-95,88.2l-88.3,2l16,92.7l56.3,2L-95,88.2L-95,88.2z"/>
	</g>
	<circle class="business12" cx="-145.8" cy="77.2" r="6.8"/>
	<circle class="business12" cx="-131.2" cy="76.2" r="6.8"/>
	<path class="business12" d="M-124.7,72.2c5.6-2.9,11.1-4.4,17.3-3.8"/>
	<path class="business12" d="M-152.7,74.6c0,0-5-6-16.9-4.5"/>
	<circle class="business10" cx="-66.6" cy="153.8" r="3"/>
</g>
<g id="Stripes">
	<g class="business13">
		<defs>
			<polygon id="SVGID_1_" class="business13" points="-111.1,184.9 -167.3,182.9 -183.4,90.2 -95,88.2 			"/>
		</defs>
		<clipPath id="SVGID_2_">
			<use xlink:href="#SVGID_1_"  style="overflow:visible;"/>
		</clipPath>
		<line class="business14" x1="-118.6" y1="188.9" x2="-43.3" y2="84.3"/>
		<line class="business14" x1="-124.3" y1="188.9" x2="-49" y2="84.3"/>
		<line class="business14" x1="-130" y1="188.9" x2="-54.6" y2="84.3"/>
		<line class="business14" x1="-135.6" y1="188.9" x2="-60.3" y2="84.3"/>
		<line class="business14" x1="-141.3" y1="188.9" x2="-66" y2="84.3"/>
		<line class="business14" x1="-147" y1="188.9" x2="-71.6" y2="84.3"/>
		<line class="business14" x1="-152.7" y1="188.9" x2="-77.3" y2="84.3"/>
		<line class="business14" x1="-158.3" y1="188.9" x2="-83" y2="84.3"/>
		<line class="business14" x1="-164" y1="188.9" x2="-88.7" y2="84.3"/>
		<line class="business14" x1="-169.7" y1="188.9" x2="-94.3" y2="84.3"/>
		<line class="business14" x1="-175.3" y1="188.9" x2="-100" y2="84.3"/>
		<line class="business14" x1="-181" y1="188.9" x2="-105.7" y2="84.3"/>
		<line class="business14" x1="-186.7" y1="188.9" x2="-111.3" y2="84.3"/>
		<line class="business14" x1="-192.3" y1="188.9" x2="-117" y2="84.3"/>
		<line class="business14" x1="-198" y1="188.9" x2="-122.7" y2="84.3"/>
		<line class="business14" x1="-203.7" y1="188.9" x2="-128.3" y2="84.3"/>
		<line class="business14" x1="-209.3" y1="188.9" x2="-134" y2="84.3"/>
		<line class="business14" x1="-215" y1="188.9" x2="-139.7" y2="84.3"/>
		<line class="business14" x1="-220.7" y1="188.9" x2="-145.3" y2="84.3"/>
		<line class="business14" x1="-226.4" y1="188.9" x2="-151" y2="84.3"/>
		<line class="business14" x1="-232" y1="188.9" x2="-156.7" y2="84.3"/>
		<line class="business14" x1="-237.7" y1="188.9" x2="-162.4" y2="84.3"/>
		<line class="business14" x1="-243.4" y1="188.9" x2="-168" y2="84.3"/>
		<line class="business14" x1="-249" y1="188.9" x2="-173.7" y2="84.3"/>
	</g>
	<g>
		<path class="business1" d="M-97.4,90.3l-15.4,92.6l-52.9-1.9L-181,92.2L-97.4,90.3 M-95,88.2l-88.3,2l16,92.7l56.3,2L-95,88.2L-95,88.2z
			"/>
	</g>
</g>
<g id="Tie" class="business7">
	<polygon class="business15" points="-140.7,165.9 -129.4,155.5 -140.7,89.7 -140.7,89.7 -140.7,89.7 -140.7,89.7 -140.7,89.7 -152,155.5
		-140.7,165.9 -140.7,165.9 -140.7,165.9 -140.7,165.9 	"/>
	<polyline class="business16" points="-140.7,165.9 -140.7,165.9 -140.7,165.9 -140.7,165.9 -140.7,165.9 -129.4,155.5 -140.7,89.7
		-140.7,89.7 -140.7,89.7 -140.7,89.7 -140.7,89.7 	"/>
	<polygon class="business17" points="-134.2,104.1 -147.2,104.1 -151.2,88.2 -130.1,88.2 	"/>
</g>
<g id="Tie_copy">
	<g>
		<polygon class="business18" points="-140.2,164.9 -129,154.4 -141,88.7 -141,88.7 -141,88.7 -141,88.7 -141,88.7 -151.6,154.6
			-140.2,164.9 -140.2,164.9 -140.2,164.9 -140.2,164.9 		"/>
		<polyline class="business19" points="-140.2,164.9 -140.2,164.9 -140.2,164.9 -140.2,164.9 -140.2,164.9 -129,154.4 -141,88.7
			-141,88.7 -141,88.7 -141,88.7 -141,88.7 		"/>
	</g>
	<polygon class="business4" points="-134.5,104.3 -147.5,103.9 -151,87.9 -129.9,88.6 	"/>
</g>
<g id="front-on_briefase" class="business7">
	<rect x="-68.6" y="146.3" class="business17" width="8.3" height="17.6"/>
	<polygon class="business15" points="-56,206.6 -76.1,206.3 -77.5,158.7 -51.6,160.1 	"/>
</g>
<g id="Sideways_briefcase">
	<polygon class="business20" points="-72.1,174.2 -99,172.8 -100.4,152.4 -67.4,153.9 	"/>
	<polygon class="business4" points="-51,208.1 -120.1,206.7 -122.7,160.9 -47.7,162.3 	"/>
	<polygon class="business21" points="-51,208.1 -120.1,206.7 -122.7,160.9 -47.7,162.3 	"/>
	<polyline class="business4" points="-120.1,206.7 -122.7,160.9 -47.7,162.3 	"/>
	<path class="business22" d="M-83.1,163.2c0.2,0,0.3-0.1,0.5-0.1c3.3-1,5.2-4.5,4.2-7.8s-4.5-5.2-7.8-4.2c-3.3,1-5.2,4.5-4.2,7.8
		c0.1,0.3,0.2,0.6,0.3,0.8l-6.8,3.1c-0.3-0.6-0.5-1.2-0.7-1.8c-2.2-7.3,2-14.9,9.3-17.1c7.3-2.2,14.9,2,17.1,9.3
		c2.2,7.3-2,14.9-9.3,17.1c-0.3,0.1-0.7,0.2-1,0.2L-83.1,163.2z"/>
	<polygon class="business22" points="-88.2,139.2 -85.9,158.3 -91,165 -103.7,164.2 -99.4,143.2 	"/>
	<path class="business0" d="M-94.2,160.8c0.3,0.6,0.7,1.1,1,1.6l6-4.4c-0.2-0.2-0.3-0.5-0.5-0.7c-1.6-2.9-0.6-6.4,2.1-8.2l-2.5-7.2
		c-0.2,0.1-0.4,0.2-0.7,0.3C-95.4,145.8-97.8,154.1-94.2,160.8z"/>
	<path class="business0" d="M68.7,191.8c-0.4,4.1-1.6,8-3.5,11.4c1.7-0.3,3.5-0.4,5.4-0.1c1.3,0.2,2.5,0.5,3.6,1c1.5-3.6,2.6-7.4,3-11.5
		c0.3-3.2,0.2-6.4-0.3-9.4l-8.7-0.3C68.8,185.7,69,188.7,68.7,191.8z"/>
	<path class="business0" d="M139.3,106.7c-4.9-9.5-13.7-15.6-23.5-17.4l-1.3,7.3c7.5,1.4,14.3,6.1,18.1,13.5c5.1,9.8,3.2,21.4-3.8,29.2
		l5.5,5C143.5,134.3,145.9,119.4,139.3,106.7z"/>
	<path class="business0" d="M129.4,156.8c0.1-0.1,0.3-0.1,0.4-0.2c3-1.7,4.2-5.5,2.5-8.5c-1.7-3-5.5-4.2-8.5-2.5c-3,1.7-4.2,5.5-2.5,8.5
		c0.1,0.3,0.3,0.5,0.5,0.7l-6,4.4c-0.4-0.5-0.7-1-1-1.6c-3.6-6.7-1.2-15,5.5-18.6c6.7-3.6,15-1.2,18.6,5.5c3.6,6.7,1.2,15-5.5,18.6
		c-0.3,0.2-0.6,0.3-0.9,0.4L129.4,156.8z"/>
	<circle class="business3" cx="131.1" cy="142.6" r="4.9"/>
	<g>
		<circle class="business23" cx="88.4" cy="5" r="5"/>
		<path class="business5" d="M80.1,10"/>
		<path class="business1" d="M70.4,49.8c-4-11.7-3.6-22,1.2-30.4l0.1-0.3l4.7,0l-6.8-5l5.8,0c4.2-4.6,8.5-6.6,8.7-6.6l0.4,0.9
			c0,0-4.4,2-8.5,6.6l-0.1,0.2l-3.2,0l6.8,5l-7.2,0c-4.5,8.1-4.8,18-1,29.3L70.4,49.8z"/>
	</g>
	<path class="business0" d="M70.4,45.8c-18,0-32.7,14.6-32.7,32.7v5.1H103v-5.1C103,60.4,88.4,45.8,70.4,45.8z"/>
	<circle class="business3" cx="66.5" cy="74" r="1.7"/>
	<circle class="business3" cx="77.8" cy="74" r="1.7"/>
	<g>
		<polygon class="business1" points="43,178.3 27.4,88.5 112.2,86.6 96.7,180.2 		"/>
		<path class="business1" d="M110.5,88.1l-15,90.5l-51.2-1.8L29.2,90L110.5,88.1 M114,85l-88.3,2l16,92.7l56.3,2L114,85L114,85z"/>
	</g>
	<path class="business1" d="M63.2,81.9c-4.3,0-7.8-3.5-7.8-7.9c0-4.3,3.5-7.8,7.8-7.8c4.3,0,7.9,3.5,7.9,7.8
		C71.1,78.4,67.5,81.9,63.2,81.9z M63.2,68.2c-3.2,0-5.8,2.6-5.8,5.8s2.6,5.9,5.8,5.9s5.9-2.6,5.9-5.9S66.4,68.2,63.2,68.2z"/>
	<path class="business1" d="M77.8,80.8c-4.3,0-7.9-3.5-7.9-7.9c0-4.3,3.5-7.8,7.9-7.8c4.3,0,7.8,3.5,7.8,7.8
		C85.7,77.3,82.2,80.8,77.8,80.8z M77.8,67.1c-3.2,0-5.9,2.6-5.9,5.8s2.6,5.9,5.9,5.9s5.8-2.6,5.8-5.9S81.1,67.1,77.8,67.1z"/>
	<path class="business1" d="M84.8,69.9l-0.9-1.8c6.3-3.2,11.9-4.5,17.9-3.9l-0.2,2C96,65.7,90.8,66.9,84.8,69.9z"/>
	<path class="business1" d="M55.6,72.1c-0.2-0.2-4.9-5.6-16-4.1l-0.3-2c12.3-1.6,17.6,4.6,17.8,4.8L55.6,72.1l0.8-0.6L55.6,72.1z"/>
	<polygon class="business2" points="93.9,181.6 99.2,174.3 99.6,172.1 92.7,181.6 	"/>
	<polygon class="business2" points="88.4,181.4 100.9,164.1 101.3,161.9 87.2,181.4 	"/>
	<polygon class="business2" points="82.9,181.2 102.6,153.9 103,151.6 81.7,181.2 	"/>
	<polygon class="business2" points="77.4,181 104.3,143.6 104.7,141.4 76.2,181 	"/>
	<polygon class="business2" points="106,133.4 106.4,131.2 70.6,180.8 71.8,180.8 	"/>
	<polygon class="business2" points="66.3,180.6 107.7,123.2 108,120.9 65.1,180.6 	"/>
	<polygon class="business2" points="60.8,180.4 109.4,112.9 109.7,110.7 59.6,180.4 	"/>
	<polygon class="business2" points="55.3,180.2 111.1,102.7 111.4,100.5 54.1,180.2 	"/>
	<polygon class="business2" points="49.7,180 112.8,92.5 113.1,90.3 48.5,180 	"/>
	<polygon class="business2" points="112.4,85.1 111.2,85.1 43,179.8 44.2,179.8 	"/>
	<polygon class="business2" points="41.1,176.3 106.7,85.2 105.4,85.2 40.9,174.9 	"/>
	<polygon class="business2" points="40,169.9 100.9,85.3 99.6,85.4 39.8,168.5 	"/>
	<polygon class="business2" points="38.9,163.6 95.1,85.5 93.9,85.5 38.7,162.2 	"/>
	<polygon class="business2" points="37.8,157.2 89.4,85.6 88.1,85.6 37.6,155.8 	"/>
	<polygon class="business2" points="36.7,150.9 83.6,85.7 82.4,85.8 36.5,149.5 	"/>
	<polygon class="business2" points="35.6,144.5 77.8,85.9 76.6,85.9 35.4,143.1 	"/>
	<polygon class="business2" points="34.5,138.2 72.1,86 70.8,86 34.3,136.8 	"/>
	<polygon class="business2" points="33.4,131.8 66.3,86.1 65.1,86.2 33.2,130.4 	"/>
	<polygon class="business2" points="32.3,125.5 60.6,86.3 59.3,86.3 32.1,124.1 	"/>
	<polygon class="business2" points="31.2,119.1 54.8,86.4 53.5,86.4 31,117.7 	"/>
	<polygon class="business2" points="30.1,112.8 49,86.5 47.8,86.5 29.9,111.4 	"/>
	<polygon class="business2" points="29,106.4 43.3,86.6 42,86.7 28.8,105.1 	"/>
	<polygon class="business2" points="27.9,100.1 37.5,86.8 36.3,86.8 27.7,98.7 	"/>
	<polygon class="business2" points="26.8,93.7 31.7,86.9 30.5,86.9 26.6,92.4 	"/>
	<polygon class="business24" points="98,181.7 41.7,179.7 25.7,87 114,85 	"/>
	<g>
		<path class="business1" d="M111.6,87.1l-15.4,92.6l-52.9-1.9L28,89L111.6,87.1 M114,85l-88.3,2l16,92.7l56.3,2L114,85L114,85z"/>
	</g>
	<g>
		<polygon class="business18" points="68.8,161.7 80,151.2 68,85.5 68,85.5 68,85.5 68,85.5 68,85.5 57.4,151.4 68.8,161.7 68.8,161.7
			68.8,161.7 68.8,161.7 		"/>
		<polyline class="business19" points="68.8,161.7 68.8,161.7 68.8,161.7 68.8,161.7 68.8,161.7 80,151.2 68,85.5 68,85.5 68,85.5
			68,85.5 68,85.5 		"/>
	</g>
	<polygon class="business4" points="74.6,101.2 61.5,100.7 58.1,84.7 79.1,85.4 	"/>
	<polygon class="business20" points="136.9,171.1 110.1,169.6 108.6,149.2 141.6,150.8 	"/>
	<polygon class="business4" points="158,204.9 88.9,203.6 86.3,157.7 161.3,159.2 	"/>
	<polygon class="business21" points="158,204.9 88.9,203.6 86.3,157.7 161.3,159.2 	"/>
	<polyline class="business4" points="88.9,203.6 86.3,157.7 161.3,159.2 	"/>
	<path class="business0" d="M114.8,157.6c0.3,0.6,0.7,1.1,1,1.6l6-4.4c-0.2-0.2-0.3-0.5-0.5-0.7c-1.6-2.9-0.6-6.4,2.1-8.2l-2.5-7.2
		c-0.2,0.1-0.4,0.2-0.7,0.3C113.6,142.6,111.2,151,114.8,157.6z"/>
	<g>
		<path class="business0" d="M26.5,106.3c-3.3-1.3-6.3-3.3-8.9-5.9c-7.8-7.9-9.4-19.5-5-29l-6.8-3.2c-5.7,12.2-3.6,27.2,6.4,37.4
			c4.5,4.6,9.9,7.5,15.7,9L26.5,106.3z"/>
		<path class="business0" d="M12.3,53.6c-0.2,0-0.3,0.1-0.5,0.1c-3.3,1-5.1,4.5-4.1,7.8c1,3.3,4.5,5.1,7.8,4.1c3.3-1,5.1-4.5,4.1-7.8
			c-0.1-0.3-0.2-0.6-0.3-0.8l6.8-3.2c0.3,0.6,0.5,1.2,0.7,1.8c2.3,7.2-1.8,15-9,17.2c-7.2,2.3-15-1.8-17.2-9c-2.3-7.2,1.8-15,9-17.2
			c0.3-0.1,0.7-0.2,1-0.3L12.3,53.6z"/>
		<circle class="business3" cx="9.5" cy="68.7" r="4.9"/>
	</g>
	<path class="business1" d="M56.8,212.4c2-5.2,7.4-8.6,13.1-7.7c5.7,0.9,9.9,5.6,10.3,11.2l4.7,0.7c0-8.2-6-15.3-14.3-16.5
		c-8.3-1.2-16.1,3.8-18.5,11.6L56.8,212.4z"/>
	<circle class="business1" cx="68.1" cy="216.7" r="9.5"/>
</g>
</svg>
