<svg class="large-robot" id="robot-magazine" xmlns="http://www.w3.org/2000/svg" width="172.3" height="208.8" viewBox="-219 292.2 172.3 208.8" aria-hidden="true"><style>.robot-magazine0{fill:#e5e5e5}.robot-magazine1{fill:#969696}.robot-magazine2{fill:#eae0cc}.robot-magazine3{fill:#d7c7a3}.robot-magazine4{fill:none}.robot-magazine5{fill:#f06a66}.robot-magazine6{fill:none;stroke:#c4c4c3;stroke-miterlimit:10}.robot-magazine7{fill:#c4c4c3}.robot-magazine8{fill:#FFF}.robot-magazine9{fill:#e28888}.robot-magazine10{fill:#efe4a6}.robot-magazine11{fill:#39c3de}.robot-magazine12{fill:#afbb87}.robot-magazine13{fill:#509ea3}.robot-magazine14{fill:#95bec0}.robot-magazine15{fill:#8cced8}</style><path class="robot-magazine0" d="M-71.9 395.8c-7.1 7.7-18.5 10.6-28.7 6.4-9.1-3.7-14.9-12-15.9-21.2l-7.4.8c1.2 11.8 8.8 22.5 20.5 27.3 13.2 5.4 27.9 1.7 37-8.2l-5.5-5.1z"/><path class="robot-magazine0" d="M-54.1 393.4c0 .2 0 .3-.1.5-.7 3.4-4 5.6-7.3 4.9-3.4-.7-5.6-4-4.9-7.3.7-3.4 4-5.6 7.3-4.9.3.1.6.1.8.2l2.4-7.1c-.6-.2-1.2-.4-1.8-.5-7.5-1.5-14.7 3.4-16.1 10.9-1.5 7.5 3.4 14.7 10.9 16.1 7.5 1.5 14.7-3.4 16.1-10.9.1-.3.1-.7.1-1l-7.4-.9z"/><circle class="robot-magazine1" cx="-68.4" cy="397.7" r="4.9"/><path class="robot-magazine2" d="M-63.9 313.2l-36.4 9.5s5.1 30.8 2.1 62.4c-3 31.7-7.6 55.2-7.6 55.2l35.5-12.7s4.9-13.2 8.9-55.7c4.1-42.5-2.5-58.7-2.5-58.7z"/><path class="robot-magazine3" d="M-60.7 363.6l-39.1 9.3.6 4.9 38.1-8.8c.1-1.8.2-3.6.4-5.4zM-61.7 374.5l-36.3 8.6-1.3 1.5 37.4-8.7c.1-.5.2-1 .2-1.4zM-62.1 379l-37.4 8.9v2.9l37.1-8.5c0-1.2.2-2.3.3-3.3zM-62.8 385.4l-39.5 9.4.6 4.9 38.3-8.8c.1-1.8.3-3.6.6-5.5zM-64.2 396.3l-36.3 8.6-1.3 1.5 37.4-8.6c.1-.5.1-1 .2-1.5zM-64.9 400.8l-37.2 8.8v2.9l36.7-8.5c.2-1 .4-2 .5-3.2zM-105 422.7l38.2-9.9c.3-1.7.6-3.5 1-5.6l-38.9 10.3-.3 5.2zM-67.4 415.9l-36 10.8-1.3 1.5 37-10.8.3-1.5zM-105.7 436.5l36.2-11.8c.2-.9.5-2.1.9-3.5l-37 12.4-.1 2.9z"/><path class="robot-magazine4" d="M-63.9 313.2l-36.4 9.5-5.5 117.7 35.5-12.7s4.9-13.2 8.9-55.7c4.1-42.6-2.5-58.8-2.5-58.8z"/><circle class="robot-magazine5" cx="-214" cy="309.5" r="5"/><path class="robot-magazine6" d="M-171.3 331.4c-5.6-13.3-13.6-19.2-20.7-21.7l-4.5 3.9 1.8-8.3-3.4 3c-6.3-.7-10.9.7-10.9.7"/><path class="robot-magazine0" d="M-170.4 324.4c-17.3 5-27.3 23.2-22.2 40.5l1.4 4.9 62.7-18.3-1.4-4.9c-5-17.2-23.2-27.2-40.5-22.2z"/><circle class="robot-magazine1" cx="-164" cy="345.7" r="1.7"/><circle class="robot-magazine1" cx="-154.1" cy="341.6" r="1.7"/><path class="robot-magazine7" d="M-105.9 447.2l-54.5 13.8-41.4-84.5 84.3-26.6z"/><circle class="robot-magazine8" cx="-151.6" cy="390.6" r="19.8"/><path class="robot-magazine7" d="M-174.044 398.353l44.854-15.628 6.514 18.698-44.854 15.627z"/><path class="robot-magazine9" d="M-169.5 382c-.5 1.1-.9 2.2-1.3 3.4 0 .1 0 .1-.1.2-.1.5-.2 1-.3 1.6 0 .1-.1.2-.1.3-.1.5-.1 1-.2 1.5v2.5c0 .4.1.9.1 1.3 0 .2 0 .4.1.6l.3 1.5c0 .1 0 .3.1.4.2.6.3 1.3.6 1.9l18.7-6.5-17.9-8.7z"/><path class="robot-magazine10" d="M-158.2 371.9c-1.1.4-2.2.9-3.3 1.5-.1 0-.1.1-.2.1-.5.3-.9.6-1.3.9-.1.1-.2.1-.3.2-.4.3-.8.6-1.1.9-.1.1-.3.2-.4.3-.3.3-.7.6-1 1l-.4.4c-.3.3-.6.7-.9 1-.1.2-.3.3-.4.5-.3.4-.6.8-.9 1.3-.1.1-.1.2-.2.3-.3.6-.7 1.1-1 1.8l17.8 8.6-6.4-18.8z"/><path class="robot-magazine11" d="M-143 372.8c1.1.5 2.1 1.2 3.1 1.9l.1.1c.4.3.8.7 1.2 1 .1.1.2.1.3.2.4.3.7.7 1 1 .1.1.2.2.3.4.3.3.6.7.9 1.1.1.2.3.3.4.5.3.4.5.7.7 1.1.1.2.2.3.3.5.3.4.5.9.7 1.4.1.1.1.2.2.3.3.6.5 1.2.8 1.8l-18.7 6.5 8.7-17.8z"/><path class="robot-magazine12" d="M-158.2 371.9c1.1-.4 2.3-.7 3.5-.9h.2c.5-.1 1.1-.1 1.6-.2h2.4c.5 0 .9.1 1.4.1.2 0 .4 0 .6.1.4.1.9.2 1.3.3.2 0 .4.1.6.1.5.1 1 .3 1.5.5.1 0 .2.1.4.1.6.2 1.2.5 1.8.8l-8.6 17.8-6.7-18.7z"/><path class="robot-magazine8" d="M-150.3 388c.1.8-.5 1.5-1.4 1.6-.8.1-1.5-.5-1.6-1.4-.1-.8.6-11.5.6-11.5s2.4 10.5 2.4 11.3z"/><circle class="robot-magazine0" cx="-151.6" cy="390.6" r="4.7"/><path class="robot-magazine13" d="M-100.3 322.6l-50-21.7s5.6 28.6 3.1 55.1-8.8 56.9-8.8 56.9l48.8 28.1 1.3-.6s4.6-23.6 7.6-55.2c3.1-31.8-2-62.6-2-62.6z"/><path class="robot-magazine14" d="M-150.3 300.9l41.2-8.7 45.2 21-36.4 9.4z"/><path class="robot-magazine8" d="M-96.1 352.8l16.1-4.3-4.1 5.8zM-80 400.7l16.1-4.3 2.4 2.9zM-81.5 368.7l16.1-4.2-4.1 5.7z"/><path class="robot-magazine0" d="M-69.7 310.5c-1.7.5-3.9.8-6.4.8l1.5 1.6c3-.1 5.8-.4 8-1l-3.1-1.4zM-103.8 321.1c1-.9 2.8-1.6 5.3-2l-2.7-1.5c-2.6.4-4.7 1.1-6.1 2l3.5 1.5z"/><path class="robot-magazine1" d="M-89.7 329.6c.9.5.6 1.1-.7 1.3-1.3.2-3.2-.1-4.1-.6s-.6-1.1.7-1.3c1.3-.2 3.2.1 4.1.6z"/><path class="robot-magazine5" d="M-124.2 295.9c1.2.5 3.1.7 4.2.4 1.2-.3 1.1-.9 0-1.5-.2-.1-.5-.2-.7-.2l-4.2.9c.2.2.4.3.7.4z"/><path class="robot-magazine7" d="M-110.5 305.6c-6.7-1.8-10.9-3.7-12.5-5.8v-.1l2-.5-5-.2 2.4-.6c-.2-1.3.7-2.1.8-2.1l.6.1s-1 .8-.7 2.1l-1.3.3 5 .2-3 .7c1.6 2 5.7 3.9 12.1 5.6l-.4.3z"/><path class="robot-magazine0" d="M-112.2 304.9c-7.6 1.9-7.4 6.1.3 9.5l2.2.9 27.4-6.8-2.2-.9c-7.7-3.4-20.1-4.6-27.7-2.7z"/><path class="robot-magazine1" d="M-101 310.4c.4.2.4.4 0 .5-.4.1-1.1 0-1.5-.1-.4-.2-.4-.4 0-.5.4-.2 1.1-.1 1.5.1zM-96.3 309.2c.4.2.4.4 0 .5s-1.1 0-1.5-.1c-.4-.2-.4-.4 0-.5.5-.1 1.1-.1 1.5.1z"/><path class="robot-magazine7" d="M-110.5 318.2l11.9 4 32.2-8.4-10.7-6.1-35.8 9.4z"/><path class="robot-magazine9" d="M-94.8 316.8c0 .3.2.5.3.8l.3.3s0 .1.1.1l.3.3.1.1c.1.1.3.2.4.3.1 0 .1.1.2.1.1.1.3.2.5.3.1 0 .1.1.2.1l.6.3c.1 0 .1.1.1.1.3.1.6.3.9.4l7.9-2.2-11.9-1z"/><path class="robot-magazine10" d="M-91.9 314.2c-.5.1-.9.3-1.3.5h-.1c-.2.1-.3.2-.4.2 0 0-.1 0-.1.1-.1.1-.2.2-.3.2l-.1.1-.2.2-.1.1c-.1.1-.1.2-.2.3 0 0 0 .1-.1.1 0 .1-.1.2-.1.3v.5l11.9.9-8.9-3.5z"/><path class="robot-magazine15" d="M-83.7 313.7c.7.1 1.5.1 2.2.2h.1c.3 0 .6.1.9.2h.2c.3.1.6.1.8.2.1 0 .2 0 .3.1.3.1.5.1.8.2.1 0 .2.1.3.1.2.1.5.1.7.2.1 0 .2.1.3.1.3.1.5.2.8.3.1 0 .1 0 .2.1l.9.3-7.9 2.2-.6-4.2z"/><path class="robot-magazine12" d="M-91.9 314.2c.5-.1 1-.3 1.6-.3h.1c.3 0 .5-.1.8-.1h.2c.2 0 .5 0 .8-.1h3.5c.4 0 .8 0 1.2.1l.7 4.1-8.9-3.7z"/><path class="robot-magazine8" d="M-83 317.2c.3.2.2.3-.2.4s-1 0-1.2-.2c-.3-.2-3.1-2.4-3.1-2.4s4.2 2 4.5 2.2z"/><path class="robot-magazine0" d="M-81.1 317.3c1.2.5 1.3 1.1.2 1.4-1 .3-2.8.2-3.9-.3-1.2-.5-1.3-1.1-.2-1.4 1.1-.3 2.7-.2 3.9.3z"/><path class="robot-magazine8" d="M-130.4 300.9c.6-.2 1.1-.2 1.7-.2.5 0 1 .2 1.4.4.2.1.3.3.4.4 0 .1 0 .3-.2.4h1l.9.3.4.2c.1.1.3.1.4.2h.5l.4.2-.4.1c-.3.1-.6.1-.9 0-.3-.1-.6-.2-.8-.3l-.4-.2c-.3-.1-.5-.2-.9-.3-.3 0-.6 0-.9.1l-1.2.3 1.6.9.7-.1.4.2-1.9.5-.4-.2.5-.2-3.7-2-.7.1-.4-.2.6-.2 1.9-.4zm1 1.4l.9-.3c.4-.1.6-.2.7-.4 0-.1-.1-.3-.3-.4-.2-.1-.5-.2-.8-.2s-.7 0-1 .1l-1 .3 1.5.9zM-124.7 301.7c-.5-.3-.8-.6-.8-.8 0-.3.3-.5.8-.6.5-.2 1.1-.2 1.8-.1.6.1 1.2.3 1.7.6h.1c.5.3.8.6.8.8 0 .3-.3.5-.8.6-.5.2-1.1.2-1.8.1s-1.2-.3-1.8-.6zm.8-.2c.4.2.8.3 1.2.4.4.1.8.1 1.1 0 .3-.1.5-.2.4-.4-.1-.2-.3-.4-.6-.6h-.1c-.4-.2-.8-.3-1.2-.4-.4-.1-.8-.1-1.1 0-.3.1-.5.2-.4.4 0 .2.2.4.7.6zM-116.7 299.6c.5.3.8.5.8.8 0 .2-.2.4-.7.6-.3.1-.5.1-.8.1s-.6 0-.9-.1l.4.3-.6.2-4.5-2.5-.7.1-.4-.2 1.3-.4 1.9 1.1c0-.1 0-.2.1-.3s.3-.2.5-.2c.5-.1 1-.2 1.7 0 .7 0 1.2.2 1.9.5zm-.8.2c-.4-.2-.8-.4-1.2-.5-.4-.1-.8-.1-1.1 0-.2.1-.4.1-.4.2-.1.1-.1.2 0 .3l1.5.8c.2.1.5.1.7.1s.5 0 .7-.1c.3-.1.5-.2.4-.4 0 0-.2-.2-.6-.4zM-116.2 299.3c-.5-.3-.8-.6-.8-.8 0-.3.3-.5.8-.6.5-.2 1.1-.2 1.8-.1.6.1 1.2.3 1.7.6h.1c.5.3.8.6.8.8 0 .3-.3.5-.8.6-.5.2-1.1.2-1.8.1-.6-.1-1.2-.3-1.8-.6zm.8-.2c.4.2.7.3 1.2.4.4.1.8.1 1.1 0 .3-.1.5-.2.4-.4-.1-.2-.3-.4-.6-.6h-.1c-.4-.2-.7-.3-1.2-.4-.4-.1-.8-.1-1.1 0-.3.1-.5.2-.4.4.1.2.3.4.7.6zM-113.2 296.4l.8.5.8-.2.5.3-.8.2 2.1 1.1c.2.1.3.1.5.2h.4c.1 0 .1 0 .2-.1.1 0 .1-.1.2-.1l.5.2s-.1.1-.2.1c-.1.1-.2.1-.4.1-.3.1-.6.1-.9.1s-.6-.1-1-.3l-2.1-1.1-.6.2-.5-.4.6-.2-.8-.5.7-.1zM-121.3 308.6l-.4-.2.5-.2-3.6-2-.7.1-.4-.2.6-.2.7-.2.6-.2.4.2-.5.2 3.6 2 1.8-.5-.5-.3.6-.2 1 .5-3.7 1.2zM-117.2 307.1l.5-.2-2.4-1.3-.7.1-.4-.2 1.3-.4 2.9 1.6.7-.1.4.2-1.9.5-.4-.2zm-2.6-2.4l-.7.2-.6-.3.7-.2.6.3zM-116.1 304.6l-.4.2 2.7.8.3.1-.2-.2-1.1-1.3-.5.1-.4-.2 1.5-.4.4.2-.3.1 1.6 2-.5.2-4.3-1.2-.4.1-.4-.2 1.5-.4.5.1zM-110.7 305.3l.5-.2-2.4-1.3-.7.1-.4-.2 1.3-.4 2.9 1.6.7-.1.4.2-1.9.5-.4-.2zm-2.5-2.5l-.7.2-.6-.3.7-.2.6.3zM-108.3 304.6l.5-.2-2.4-1.3-.7.1-.4-.2 1.2-.3.6.3c0-.1 0-.3.1-.4s.3-.2.5-.3c.4-.1.9-.2 1.3-.1s.9.2 1.3.4l1.6.9.7-.1.4.2-1.9.5-.4-.2.5-.2-1.6-.9c-.3-.2-.6-.3-.8-.3-.3 0-.5 0-.8.1-.2.1-.3.1-.4.2s-.1.2 0 .3l2 1.1.7-.1.4.2-1.9.5-.5-.2zM-104.7 302.6c-.5-.3-.8-.6-.9-.8-.1-.3.2-.5.6-.6.2-.1.5-.1.8-.1s.5 0 .8.1l-.4-.3.6-.2 3.3 1.8c.4.2.6.5.6.7s-.3.4-.8.5c-.2.1-.4.1-.7.1-.3 0-.5.1-.8.1l-.3-.3c.2 0 .4 0 .6-.1.2 0 .4-.1.6-.1.3-.1.5-.2.5-.3s-.1-.3-.4-.4l-.3-.2c0 .1 0 .2-.1.3s-.3.2-.5.2c-.5.1-1 .2-1.6.1-.5 0-1.1-.2-1.6-.5zm.8-.2c.3.2.7.3 1.1.4s.7.1 1.1 0c.2-.1.4-.1.4-.2.1-.1.1-.2 0-.3l-1.5-.9c-.2-.1-.5-.1-.7-.1s-.5 0-.7.1c-.3.1-.5.2-.4.4 0 .2.2.4.7.6z"/><path class="robot-magazine14" d="M-99.3 330l-49.8-22.2c.2 1.7.5 3.6.8 5.8l49.6 21.9c-.2-2-.4-3.9-.6-5.5zM-98.2 341.5l-49.5-22c0 .4.1.8.1 1.2l49.4 21.8c.1-.3.1-.6 0-1zM-97.9 346l-49.3-20.7c.1 1.1.2 2.1.2 3.2l49.2 20.5c.1-1.1 0-2.1-.1-3zM-97.5 352.5l-49.2-20.7c.1 1.8.1 3.6.2 5.5l49.2 20.5c-.1-1.9-.2-3.6-.2-5.3zM-97.3 364.5v-1l-49.2-20.7v1.2l49.2 20.5zM-98.5 387.6c0-.3.1-.6.1-.9l-49.8-21c0 .4-.1.7-.1 1.1l49.8 20.8zM-99.3 395c.1-.9.2-1.8.3-2.8l-49.8-22.1c-.1 1-.3 2-.4 3l49.9 21.9zM-100.2 402.6c.2-1.6.4-3.3.6-4.9l-50-22.3c-.2 1.7-.5 3.4-.8 5.1l50.2 22.1zM-101.1 409.8c0-.3.1-.6.1-.9l-50.2-23c-.1.4-.1.7-.2 1.1l50.3 22.8zM-101.8 415.4c.1-.9.3-1.8.4-2.7l-50.3-23.1c-.2 1-.3 2-.5 2.9l50.4 22.9zM-103 423.2c.2-1.6.5-3.2.7-4.9l-50.3-23.6c-.3 1.8-.6 3.5-.9 5.1l50.5 23.4zM-103.9 429c0-.3.1-.6.1-.8l-50.2-25.4c-.1.4-.1.7-.2 1l50.3 25.2zM-105 435.5c.1-.8.3-1.8.5-2.8l-50.2-26.5c-.2 1.1-.4 2.2-.6 3l50.3 26.3z"/><path class="robot-magazine4" d="M-150.3 300.9s5.6 28.6 3.1 55.1-8.8 56.9-8.8 56.9l48.8 28.1 1.3-.6s4.6-23.6 7.6-55.2c3-31.7-2.1-62.4-2.1-62.4l-49.9-21.9z"/><path class="robot-magazine14" d="M-97.9 381.1c.1-1.7.2-3.4.3-5l-49.5-20.9c0 .2 0 .5-.1.7-.1 1.5-.3 3-.5 4.5l49.8 20.7zM-97.4 370.5c0-1 0-1.9.1-2.9l-49.3-20.7c0 1-.1 2-.1 3.1l49.3 20.5z"/><path class="robot-magazine2" d="M-133.7 329.9l-13.4-4.2-3.2 5.7zM-103 352.8l-16.1-4.3 4.1 5.8zM-127.1 383.4l-16.1-4.3 4.1 5.8zM-138.7 398.5l-13.4-4.3-3.2 5.8z"/><path class="robot-magazine0" d="M-145.3 411.6c-7.8 7-19.4 8.8-29.2 3.6-8.5-4.4-13.5-13-13.7-22 0-.2.1-.3.1-.5 0-2.1-1.7-3.8-3.8-3.8-2.1 0-3.8 1.7-3.8 3.8v.1c.1 11.8 6.6 23.2 17.8 29.1 12.6 6.6 27.6 4.3 37.6-4.7l-5-5.6z"/><g><path class="robot-magazine0" d="M-128.2 406.8v.5c0 3.5-2.9 6.2-6.3 6.2-3.5 0-6.2-2.9-6.2-6.3 0-3.5 2.9-6.2 6.3-6.2.3 0 .6 0 .9.1l1.1-7.4c-.6-.1-1.3-.2-1.9-.2-7.6-.1-13.8 6-13.9 13.6s6 13.8 13.6 13.9c7.6.1 13.8-6 13.9-13.6v-1l-7.5.4z"/><circle class="robot-magazine1" cx="-141.8" cy="413.9" r="4.9"/></g><path class="robot-magazine0" d="M-125.9 454.6l-8.4 2.1c0 3.7-.8 7.6-2.3 11.2-1.6 3.7-3.8 6.9-6.5 9.5 1.5.3 2.9.7 4.3 1.4s2.6 1.5 3.7 2.4c2.6-2.9 4.7-6.3 6.3-10.1 2.3-5.3 3.2-11 2.9-16.5z"/><g><path class="robot-magazine7" d="M-154.2 484c3.5-4.4 9.6-5.9 14.8-3.4 5.2 2.5 7.8 8.4 6.5 13.8l4.3 2.1c2.4-7.8-1.1-16.4-8.7-20.1s-16.5-1.2-21.2 5.5l4.3 2.1z"/><path class="robot-magazine7" d="M-148.9 500c-4.7-2.3-6.7-8-4.4-12.7s8-6.7 12.7-4.4 6.7 8 4.4 12.7c-2.3 4.8-7.9 6.7-12.7 4.4"/></g><path class="robot-magazine3" d="M-61.4 324.4c-.2-1.5-.4-2.8-.6-3.9 0-.2-.1-.3-.1-.5s-.1-.4-.1-.6l-37.2 8.8c.2 1.4.4 3 .6 4.9l37.4-8.7zM-60.7 330.9c0-.5-.1-.9-.1-1.4l-37.6 8.9c0 .4.1.8.1 1.2l37.6-8.7zM-60.4 335.2c0-.4-.1-.9-.1-1.3l-37.6 8.9c.1.9.1 1.9.2 2.8l37.6-8.7c0-.6-.1-1.1-.1-1.7zM-60.2 339.8l-37.5 8.9c.1 1.6.2 3.3.2 5l37.4-8.6c0-1.8 0-3.6-.1-5.3zM-97.3 359.2v1.2l37.1-8.6v-1.4l-37.1 8.8zM-60.4 358c.1-1.1.1-2.1.1-3.2l-37 8.8v2.9l36.9-8.5z"/><path class="robot-magazine3" d="M-60.4 358c.1-1.1.1-2.1.1-3.1l-37 8.8v2.9l36.9-8.6z"/><path class="robot-magazine8" d="M-77 331.4l16.1-4.2 2.4 2.9z"/></svg>