<svg id="Layer_1" xmlns="http://www.w3.org/2000/svg" width="188.3" height="226.2" viewBox="0 0 188.3 226.2" aria-hidden="true"><style>.portfolio0{fill:#e5e5e5}.portfolio1{fill:#ea6361}.portfolio2{fill:none;stroke:#c4c4c3;stroke-miterlimit:10}.portfolio3{fill:#c4c4c3}.portfolio4{fill:#969696}.portfolio5{fill:#FFF}.portfolio6{fill:#e28888}.portfolio7{fill:#efe4a6}.portfolio8{fill:#8cced8}.portfolio9{fill:#afbb87}.portfolio10{fill:#383838}.portfolio11{fill:#95bec0}.portfolio12{fill:#eec260}.portfolio13{fill:#509ea3}.portfolio14{fill:#d45334}.portfolio15{fill:none}.portfolio16{fill:#f06a66}.portfolio17{fill:#d39f5b}</style><path class="portfolio0" d="M151.6 89.3c-3.3 9.9-12.5 17.2-23.5 17.7-7.2.3-13.8-2.5-18.7-7.1l-1.5 8.4c5.8 4.1 12.8 6.4 20.4 6.1 14.3-.5 26.1-10 30.3-22.8l-7-2.3z"/><circle class="portfolio1" cx="48.6" cy="4.6" r="5"/><path class="portfolio3" d="M66.6 49.5l-.9-.3c3.8-11.3 3.5-21.2-1-29.3h-7.2l6.8-5h-3.2l-.1-.3C56.9 10 52.5 8.1 52.5 8l.4-.9c.2.1 4.5 2 8.7 6.6h5.8l-6.8 5h4.7l.1.3c4.8 8.5 5.2 18.7 1.2 30.5z"/><path class="portfolio0" d="M166.8 79.7c0 .1.1.3.1.5.8 3.4-1.3 6.7-4.6 7.5s-6.7-1.3-7.5-4.6c-.8-3.4 1.3-6.7 4.6-7.5.3-.1.6-.1.9-.1l-.7-7.4c-.6.1-1.3.1-1.9.3-7.4 1.8-12 9.2-10.2 16.5 1.7 7.4 9.2 12 16.5 10.2 7.4-1.8 12-9.2 10.2-16.5-.1-.3-.2-.7-.3-1l-7.1 2.1z"/><circle class="portfolio4" cx="155.5" cy="89.5" r="4.9"/><path class="portfolio0" d="M13.2 162.8c-.2 0-.3 0-.5-.1-3.4-.6-5.7-3.8-5.1-7.2.6-3.4 3.8-5.7 7.2-5.1 3.4.6 5.7 3.8 5.1 7.2 0 .3-.1.6-.2.9l7.1 2.2c.2-.6.4-1.2.5-1.9 1.3-7.5-3.8-14.6-11.3-15.8-7.5-1.3-14.6 3.8-15.8 11.3-1.3 7.5 3.8 14.6 11.3 15.8.3.1.7.1 1 .1l.7-7.4zM57.4 204.1c1.2-.6 2.5-1 3.9-1.2 1.8-.3 3.5-.2 5.1.2-2-3.5-3.3-7.4-3.7-11.7-.9-9.5 2.8-18.3 9.4-24.3l-5.4-6.5c-8.6 7.7-13.5 19.2-12.4 31.6.4 4.3 1.5 8.3 3.1 11.9z"/><path class="portfolio0" d="M20.9 100.2c-5.5 2.2-10.5 5.9-14.3 11-8.5 11.5-8.6 26.6-1.2 37.9l6.3-4.1c-5.7-8.8-5.6-20.5 1-29.4 2.6-3.5 6-6.2 9.7-7.9l-1.5-7.5z"/><path class="portfolio3" d="M93.4 181.4l-56.3-2-16-92.7 88.3-2z"/><circle class="portfolio5" cx="65.2" cy="114.2" r="19.8"/><path class="portfolio3" d="M89.945 132.776l-47.438 2.462-1.027-19.774L88.92 113z"/><path class="portfolio6" d="M50.5 100.9c-.8.9-1.5 1.9-2.2 2.9 0 .1-.1.1-.1.2-.3.5-.5.9-.8 1.4-.1.1-.1.2-.2.3-.2.4-.4.9-.6 1.3-.1.2-.1.3-.2.5-.2.4-.3.9-.4 1.3-.1.2-.1.4-.2.6-.1.4-.2.9-.3 1.3 0 .2-.1.4-.1.6-.1.5-.1 1-.2 1.6v2.4l19.8-1-14.5-13.4z"/><path class="portfolio7" d="M64.2 94.4c-1.2.1-2.4.2-3.6.5h-.2c-.5.1-1 .3-1.5.5-.1 0-.2.1-.3.1-.5.2-.9.4-1.4.6-.1.1-.3.1-.4.2l-1.2.6c-.2.1-.3.2-.5.3-.4.2-.8.5-1.1.7-.2.1-.3.2-.5.3-.4.3-.8.6-1.2 1-.1.1-.2.2-.3.2-.5.4-1 .9-1.4 1.4l14.7 13.3-1.1-19.7z"/><path class="portfolio8" d="M78.5 99.5c.9.8 1.7 1.7 2.5 2.7l.1.1c.3.4.6.9.9 1.3.1.1.1.2.2.3.3.4.5.8.7 1.3.1.1.2.3.2.4.2.4.4.8.5 1.3.1.2.2.4.2.5.2.4.3.9.4 1.3.1.2.1.4.2.6l.3 1.5c0 .1.1.2.1.4.1.7.2 1.3.2 2l-19.8 1 13.3-14.7z"/><path class="portfolio9" d="M64.2 94.4c1.2-.1 2.4 0 3.6.2h.2c.5.1 1 .2 1.6.3.1 0 .2 0 .3.1.5.1.9.3 1.4.4.2.1.3.1.5.1.4.2.8.3 1.3.5.2.1.4.1.5.2l1.2.6c.2.1.4.2.5.3.4.3.9.6 1.3.9.1.1.2.1.3.2.5.4 1 .8 1.5 1.3l-13.3 14.7-.9-19.8z"/><path class="portfolio5" d="M67.3 112.1c-.2.8-.9 1.3-1.7 1.1-.8-.2-1.3-.9-1.1-1.7.2-.8 3.8-10.9 3.8-10.9s-.9 10.7-1 11.5z"/><circle class="portfolio0" cx="65.2" cy="114.2" r="4.7"/><path class="portfolio10" d="M181.6 87.1c-1.7-.4-2.7-2.2-2.3-3.9.4-1.7 2.2-2.7 3.9-2.3 1.7.4 5.2 4.6 5.2 4.6s-5.1 2-6.8 1.6z"/><path class="portfolio11" d="M184.2 82.6c-.3 1.4-.1 2.8.5 4.1 1.8-.5 3.5-1.2 3.5-1.2s-2-2.4-3.8-3.8c0 .3-.1.6-.2.9z"/><path class="portfolio12" d="M171.2 84c-3.4-.9-30.4-8.8-30-10.2.3-1.4 27.9 4.5 31.3 5.3s5.9 2.7 5.5 4c-.3 1.4-3.4 1.8-6.8.9z"/><path class="portfolio0" d="M159.4 75.6c.3-.1.6-.1.9-.1l-.7-7.4c-.6.1-1.3.1-1.9.3-7.1 1.7-11.6 8.6-10.4 15.7l7.3-3.1c.3-2.7 2.2-4.8 4.8-5.4zM65.7 45.5c-18 0-32.7 14.6-32.7 32.7v5.1h65.3v-5.1c.1-18.1-14.5-32.7-32.6-32.7z"/><circle class="portfolio4" cx="61.9" cy="73.6" r="1.7"/><circle class="portfolio4" cx="73.2" cy="73.6" r="1.7"/><circle class="portfolio13" cx="87.7" cy="154.5" r="1.4"/><circle class="portfolio13" cx="82.7" cy="145.5" r=".7"/><circle class="portfolio11" cx="35.6" cy="116.5" r="1.2"/><circle class="portfolio14" cx="73.7" cy="60.1" r="1.3"/><circle class="portfolio14" cx="77.7" cy="67.1" r=".9"/><path class="portfolio14" d="M86.4 52.8c-.2.1-.4.3-.5.7-.6 2-.2 5.7-.2 5.7-.2 2-5.1 2.8-4.1 5 1.1 2.2 7.6 2.6 8.5.8.9-1.7 4.2-1.1 4.2 1.3-.1 1.7 1.5 1.9 2.5 1.4-2.1-5.9-5.7-11.1-10.4-14.9z"/><path class="portfolio15" d="M65.7 45.5c-18 0-32.7 14.6-32.7 32.7v5.1h65.3v-5.1c.1-18.1-14.5-32.7-32.6-32.7z"/><path class="portfolio16" d="M95.9 118.9c-1.3-7.5-9 3.3-9 3.3S84 128 90 129s6.2 6.7 4.3 8c-2 1.3-7 8-2.3 9.3 2 .6 4.7.7 7.1.6l4.2-25.3c-3.3 1-6.7 1.1-7.4-2.7z"/><path class="portfolio11" d="M45.6 132.3c-4.1-.2-1.6-11.8-8.3-12-6.6-.2.6 10.2-3 12 0 0-2.3 1.4-4.9 2.4l5 28.9c2.1 3.1 4.1 6.7 7.1 5.1 5-2.6 5.3-17.4 1.3-19.3s-2.9-9.6 2.7-9.6c5.7 0 4.2-7.3.1-7.5z"/><path class="portfolio13" d="M97.1 158.6c-2.3 2.1-4.2 7.6-6.8 6.7 0 0-13.9-3.3-9.5-9.5s-8.7-4-8.7-4-6.2 2.1-2.7 7-.3 9.1-2.7 8.7c-2.3-.5-10.6.7-8.2 5 1.7 3 5.6 6.4 7.7 8.1l17.9.6c.8-3.3 5.6-5.8 8.8-2.5.2.2.5.5.7.6l3.5-20.7z"/><path class="portfolio15" d="M93.4 181.4l-56.3-2-16-92.7 88.3-2z"/><g><path class="portfolio12" d="M32.9 150.3c-3-.4-5.9-.7-8.6-.4s-4.5 1.9-4.4 3.3c.1 2.3 4.8 2 2.2 4.4-2.6 2.3-5.5-2.5-9.4-3-3.9-.5-6.9 2.3-7.2 4.6-.9 6.8 10 13.8 24.2 15.6s26.5-2.1 27.4-8.9c.9-6.7-10-13.7-24.2-15.6zm-3.1 6.7c-1.8-.2-3.2-1.1-3.1-2 .1-.9 1.7-1.4 3.5-1.1s3.2 1.1 3.1 2c-.1.9-1.7 1.4-3.5 1.1z"/><path class="portfolio6" d="M12 163.8c-.4 1.3 1.8 2.8 2.8 2.6s3.1-.5 3.2-1.2c.2-.7-2-2-2.6-2.1-.6-.1-1.9-1.2-2.5-.8s-.9 1.5-.9 1.5z"/><path class="portfolio17" d="M20.1 168.2c-.4 1.3 1.8 2.8 2.8 2.6s3.1-.5 3.2-1.2c.2-.7-2-2-2.6-2.1s-1.9-1.2-2.5-.8-.9 1.5-.9 1.5z"/><path class="portfolio7" d="M29 170.3c-.4 1.3 1.8 2.8 2.8 2.6 1-.2 3.1-.5 3.3-1.2.2-.7-2-2-2.6-2.1-.6-.1-1.9-1.2-2.5-.8s-1 1.5-1 1.5z"/><path class="portfolio9" d="M38.4 168.8c-.4 1.3 1.8 2.8 2.8 2.6s3.1-.5 3.2-1.2c.2-.7-2-2-2.6-2.1s-1.9-1.2-2.5-.8-.9 1.5-.9 1.5z"/><path class="portfolio8" d="M45.4 165.9c-.4 1.3 1.8 2.8 2.8 2.6s3.1-.5 3.2-1.2c.2-.7-2-2-2.6-2.1s-1.9-1.2-2.5-.8-.9 1.5-.9 1.5z"/></g><path class="portfolio0" d="M16.9 143.2l-1.8 7.3c3.3.7 5.4 3.8 4.9 7.2 0 .3-.1.6-.2.9l7.1 2.2c.2-.6.4-1.2.5-1.9 1.1-7.3-3.5-14.1-10.5-15.7z"/><circle class="portfolio4" cx="8.9" cy="148.1" r="4.9"/><path class="portfolio3" d="M51.2 215.6c.4-5.6 4.6-10.3 10.3-11.2 5.7-.9 11.2 2.5 13.1 7.7l4.7-.7c-2.4-7.8-10.2-12.9-18.5-11.6-8.3 1.2-14.3 8.4-14.3 16.5l4.7-.7z"/><circle class="portfolio3" cx="63.3" cy="216.4" r="9.5"/></svg>