<?xml version="1.0" encoding="utf-8"?>
<!-- Generator: Adobe Illustrator 19.0.1, SVG Export Plug-In . SVG Version: 6.00 Build 0)  -->
<svg version="1.1" id="Layer_1" xmlns="http://www.w3.org/2000/svg" xmlns:xlink="http://www.w3.org/1999/xlink" x="0px" y="0px"
	 viewBox="0 0 188.3 226.2" style="enable-background:new 0 0 188.3 226.2;" xml:space="preserve">
<style type="text/css">
	.portfolio0{fill:#E5E5E5;}
	.portfolio1{fill:#39C3DE;}
	.portfolio2{fill:none;stroke:#C4C4C3;stroke-miterlimit:10;}
	.portfolio3{fill:#969696;}
	.portfolio4{fill:#C4C4C3;}
	.portfolio5{fill:#FFFFFF;}
	.portfolio6{fill:#C82027;}
	.portfolio7{fill:#F3D41A;}
	.portfolio8{fill:#A1C63A;}
	.portfolio9{fill:#383838;}
	.portfolio10{fill:#EEC260;}
	.portfolio11{clip-path:url(#SVGID_2_);fill:#A1C63A;}
	.portfolio12{clip-path:url(#SVGID_4_);}
	.portfolio13{fill:#DB3A3A;}
	.portfolio14{fill:#D7983A;}
	.portfolio15{fill:#E5E020;}
	.portfolio16{fill:#7EC242;}
	.portfolio17{fill:#EA6361;}
	.portfolio18{fill:#E28888;}
	.portfolio19{fill:#EFE4A6;}
	.portfolio20{fill:#8CCED8;}
	.portfolio21{fill:#AFBB87;}
	.portfolio22{fill:#95BEC0;}
	.portfolio23{fill:#509EA3;}
	.portfolio24{fill:#D45334;}
	.portfolio25{fill:none;}
	.portfolio26{fill:#F06A66;}
	.portfolio27{fill:#D39F5B;}
	.portfolio28{fill:#001833;}
	.portfolio29{fill:#4B9DA1;}
	.portfolio30{fill:#418788;}
	.portfolio31{fill:#BC4926;}
	.portfolio32{fill:#C8E2E1;}
	.portfolio33{fill:#E2E8E8;}
	.portfolio34{fill:#6D9D9F;}
	.portfolio35{fill:#BC8488;}
</style>
<path class="portfolio0" d="M151.6,89.6c-3.3,9.9-12.5,17.2-23.5,17.7c-7.2,0.3-13.8-2.5-18.7-7.1l-1.5,8.4c5.8,4.1,12.8,6.4,20.4,6.1
	c14.3-0.5,26.1-10,30.3-22.8L151.6,89.6z"/>
<g>
	<circle class="portfolio1" cx="-219.6" cy="-49.2" r="5"/>
	<path class="portfolio2" d="M-211.3-44.1"/>
	<path class="portfolio2" d="M-202.1-4.5c4.6-13.7,2.6-23.4-1.2-30l-5.9,0l6.8-5l-4.5,0c-4.2-4.7-8.6-6.7-8.6-6.7"/>
</g>
<g>
	<path class="portfolio0" d="M-116.7,35.5c-3.3,9.9-12.5,17.2-23.5,17.7c-9.8,0.4-18.6-4.8-23.2-12.7l-6.4,3.8c6,10.2,17.3,16.9,29.9,16.4
		c14.3-0.5,26.1-10,30.3-22.8L-116.7,35.5z"/>
	<path class="portfolio0" d="M-101.5,26c0,0.1,0.1,0.3,0.1,0.5c0.8,3.4-1.3,6.7-4.6,7.5c-3.4,0.8-6.7-1.3-7.5-4.6c-0.8-3.4,1.3-6.7,4.6-7.5
		c0.3-0.1,0.6-0.1,0.9-0.1l-0.7-7.4c-0.6,0.1-1.3,0.1-1.9,0.3c-7.4,1.8-12,9.2-10.2,16.5c1.7,7.4,9.2,12,16.5,10.2
		c7.4-1.8,12-9.2,10.2-16.5c-0.1-0.3-0.2-0.7-0.3-1L-101.5,26z"/>
	<circle class="portfolio3" cx="-112.7" cy="35.7" r="4.9"/>
</g>
<g>
	<path class="portfolio0" d="M-256.7,91.3c-5.7-8.8-5.6-20.5,1-29.4c5.9-7.9,15.4-11.5,24.5-10.1l1.1-7.4c-11.7-1.7-24,2.9-31.5,13.1
		c-8.5,11.5-8.6,26.6-1.2,37.9L-256.7,91.3z"/>
	<path class="portfolio0" d="M-255.1,109c-0.2,0-0.3,0-0.5-0.1c-3.4-0.6-5.7-3.8-5.1-7.2c0.6-3.4,3.8-5.7,7.2-5.1c3.4,0.6,5.7,3.8,5.1,7.2
		c0,0.3-0.1,0.6-0.2,0.9l7.1,2.2c0.2-0.6,0.4-1.2,0.5-1.9c1.3-7.5-3.8-14.6-11.3-15.8c-7.5-1.3-14.6,3.8-15.8,11.3
		c-1.3,7.5,3.8,14.6,11.3,15.8c0.3,0.1,0.7,0.1,1,0.1L-255.1,109z"/>
	<circle class="portfolio3" cx="-259.4" cy="94.3" r="4.9"/>
</g>
<g>
	<path class="portfolio0" d="M-200.4,151.6l-0.1,0.2l-9.1,0.9c-2.3-4.3-3.8-9.1-4.3-14.3c-1.2-12.4,3.8-23.9,12.4-31.6l5.4,6.5
		c-6.5,6-10.2,14.8-9.4,24.3C-205.1,142.9-203.2,147.6-200.4,151.6z"/>
	<circle class="portfolio4" cx="-205" cy="162.6" r="16.8"/>
	<circle class="portfolio5" cx="-205" cy="162.6" r="12.1"/>

		<rect x="-234.5" y="160.1" transform="matrix(-0.9891 0.1474 -0.1474 -0.9891 -382.3432 369.4225)" class="portfolio5" width="59.2" height="21"/>
	<circle class="portfolio4" cx="-205" cy="162.6" r="9.5"/>
</g>
<polygon class="portfolio5" points="-173.4,129.8 -232.7,127.8 -250.2,30.7 -155.9,28.7 "/>
<polygon class="portfolio4" points="-174.9,127.6 -231.2,125.6 -247.2,32.9 -158.9,30.9 "/>
<g>
	<circle class="portfolio5" cx="-203" cy="60.4" r="19.8"/>

		<rect x="-226.3" y="60.4" transform="matrix(-0.9987 5.183915e-02 -5.183915e-02 -0.9987 -401.1268 151.0372)" class="portfolio4" width="47.5" height="19.8"/>
	<g>
		<path class="portfolio6" d="M-217.8,47.1c-0.8,0.9-1.5,1.9-2.2,2.9c0,0.1-0.1,0.1-0.1,0.2c-0.3,0.5-0.5,0.9-0.8,1.4
			c-0.1,0.1-0.1,0.2-0.2,0.3c-0.2,0.4-0.4,0.9-0.6,1.3c-0.1,0.2-0.1,0.3-0.2,0.5c-0.2,0.4-0.3,0.9-0.4,1.3c-0.1,0.2-0.1,0.4-0.2,0.6
			c-0.1,0.4-0.2,0.9-0.3,1.3c0,0.2-0.1,0.4-0.1,0.6c-0.1,0.5-0.1,1-0.2,1.6c0,0.1,0,0.3,0,0.4c0,0.7,0,1.3,0,2l19.8-1L-217.8,47.1z"
			/>
		<path class="portfolio7" d="M-204.1,40.6c-1.2,0.1-2.4,0.2-3.6,0.5c-0.1,0-0.1,0-0.2,0c-0.5,0.1-1,0.3-1.5,0.5c-0.1,0-0.2,0.1-0.3,0.1
			c-0.5,0.2-0.9,0.4-1.4,0.6c-0.1,0.1-0.3,0.1-0.4,0.2c-0.4,0.2-0.8,0.4-1.2,0.6c-0.2,0.1-0.3,0.2-0.5,0.3c-0.4,0.2-0.8,0.5-1.1,0.7
			c-0.2,0.1-0.3,0.2-0.5,0.3c-0.4,0.3-0.8,0.6-1.2,1c-0.1,0.1-0.2,0.2-0.3,0.2c-0.5,0.4-1,0.9-1.4,1.4l14.7,13.3L-204.1,40.6z"/>
		<path class="portfolio1" d="M-189.8,45.7c0.9,0.8,1.7,1.7,2.5,2.7c0,0,0.1,0.1,0.1,0.1c0.3,0.4,0.6,0.9,0.9,1.3c0.1,0.1,0.1,0.2,0.2,0.3
			c0.3,0.4,0.5,0.8,0.7,1.3c0.1,0.1,0.2,0.3,0.2,0.4c0.2,0.4,0.4,0.8,0.5,1.3c0.1,0.2,0.2,0.4,0.2,0.5c0.2,0.4,0.3,0.9,0.4,1.3
			c0.1,0.2,0.1,0.4,0.2,0.6c0.1,0.5,0.2,1,0.3,1.5c0,0.1,0.1,0.2,0.1,0.4c0.1,0.7,0.2,1.3,0.2,2l-19.8,1L-189.8,45.7z"/>
		<path class="portfolio8" d="M-204.1,40.6c1.2-0.1,2.4,0,3.6,0.2c0.1,0,0.1,0,0.2,0c0.5,0.1,1,0.2,1.6,0.3c0.1,0,0.2,0,0.3,0.1
			c0.5,0.1,0.9,0.3,1.4,0.4c0.2,0.1,0.3,0.1,0.5,0.1c0.4,0.2,0.8,0.3,1.3,0.5c0.2,0.1,0.4,0.1,0.5,0.2c0.4,0.2,0.8,0.4,1.2,0.6
			c0.2,0.1,0.4,0.2,0.5,0.3c0.4,0.3,0.9,0.6,1.3,0.9c0.1,0.1,0.2,0.1,0.3,0.2c0.5,0.4,1,0.8,1.5,1.3L-203,60.4L-204.1,40.6z"/>
	</g>
	<path class="portfolio5" d="M-201,58.3c-0.2,0.8-0.9,1.3-1.7,1.1c-0.8-0.2-1.3-0.9-1.1-1.7c0.2-0.8,3.8-10.9,3.8-10.9
		S-200.8,57.6-201,58.3z"/>
	<circle class="portfolio0" cx="-203" cy="60.4" r="4.7"/>
</g>
<g>
	<g>
		<path class="portfolio9" d="M-86.7,33.3c-1.7-0.4-2.7-2.2-2.3-3.9s2.2-2.7,3.9-2.3c1.7,0.4,5.2,4.6,5.2,4.6S-85,33.7-86.7,33.3z"/>
		<path class="portfolio1" d="M-84,28.8c-0.3,1.4-0.1,2.8,0.5,4.1c1.8-0.5,3.5-1.2,3.5-1.2s-2-2.4-3.8-3.8C-83.8,28.2-83.9,28.5-84,28.8z"
			/>
	</g>
	<path class="portfolio10" d="M-97,30.2c-3.4-0.9-30.4-8.8-30-10.2c0.3-1.4,27.9,4.5,31.3,5.3c3.4,0.9,5.9,2.7,5.5,4
		C-90.6,30.7-93.6,31.1-97,30.2z"/>
</g>
<path class="portfolio0" d="M-108.9,21.8c0.3-0.1,0.6-0.1,0.9-0.1l-0.7-7.4c-0.6,0.1-1.3,0.1-1.9,0.3c-7.1,1.7-11.6,8.6-10.4,15.7l7.3-3.1
	C-113.3,24.5-111.5,22.4-108.9,21.8z"/>
<path class="portfolio0" d="M-202.5-8.3c-18,0-32.7,14.6-32.7,32.7v5.1h65.3v-5.1C-169.8,6.3-184.5-8.3-202.5-8.3z"/>
<circle class="portfolio3" cx="-206.4" cy="19.8" r="1.7"/>
<circle class="portfolio3" cx="-195" cy="19.8" r="1.7"/>
<circle class="portfolio7" cx="-180.6" cy="100.7" r="1.4"/>
<circle class="portfolio7" cx="-185.6" cy="91.7" r="0.7"/>
<circle class="portfolio1" cx="-232.7" cy="62.7" r="1.2"/>
<circle class="portfolio8" cx="-194.6" cy="6.3" r="1.3"/>
<circle class="portfolio8" cx="-190.6" cy="13.3" r="0.9"/>
<g>
	<defs>
		<path id="SVGID_1_" d="M-202.5-8.3c-18,0-32.7,14.6-32.7,32.7v5.1h65.3v-5.1C-169.8,6.3-184.5-8.3-202.5-8.3z"/>
	</defs>
	<clipPath id="SVGID_2_">
		<use xlink:href="#SVGID_1_"  style="overflow:visible;"/>
	</clipPath>
	<path class="portfolio11" d="M-170.6,7.7c0,0-3.1-5.4,0.2-5.9s-1.3-4-1.3-4s-2.5-1.3-3,1.3c-0.5,2.6-3,2.6-3.6,1.8s-3.4-3.2-4.1-1.1
		c-0.6,2-0.2,5.7-0.2,5.7c-0.2,2-5.1,2.8-4.1,5c1.1,2.2,7.6,2.6,8.5,0.8c0.9-1.7,4.2-1.1,4.2,1.3c-0.1,2.5,3.2,1.9,3.3,0.1
		c0.1-1.8,5.2-0.6,5.4-3.5S-169.8,9.3-170.6,7.7z"/>
</g>
<g>
	<defs>
		<polygon id="SVGID_3_" points="-174.9,127.6 -231.2,125.6 -247.2,32.9 -158.9,30.9 		"/>
	</defs>
	<clipPath id="SVGID_4_">
		<use xlink:href="#SVGID_3_"  style="overflow:visible;"/>
	</clipPath>
	<g class="portfolio12">
		<path class="portfolio13" d="M-158.9,65.1c0,0-12.1,7.5-13.5,0s-9,3.3-9,3.3s-2.9,5.8,3.1,6.8s6.2,6.7,4.3,8c-2,1.3-7,8-2.3,9.3
			c4.7,1.3,13,0,13,0c4.7,0.3,6.7,11.5,11.7,8.9c5-2.6,5.3-17.4,1.3-19.3c-4-1.9-2.9-9.6,2.7-9.6c5.6,0,4.1-7.3,0-7.5
			s-1.6-11.8-8.3-12C-162.5,52.8-155.2,63.2-158.9,65.1z"/>
		<path class="portfolio1" d="M-233.9,78.5c0,0-12.1,7.5-13.5,0c-1.3-7.5-9,3.3-9,3.3s-2.9,5.8,3.1,6.8c5.9,1,6.2,6.7,4.3,8
			c-2,1.3-7,8-2.3,9.3c4.7,1.3,13,0,13,0c4.7,0.3,6.7,11.5,11.7,8.9s5.3-17.4,1.3-19.3c-4-1.9-2.9-9.6,2.7-9.6c5.6,0,4.1-7.3,0-7.5
			c-4.1-0.2-1.6-11.8-8.3-12C-237.6,66.3-230.3,76.7-233.9,78.5z"/>
		<path class="portfolio7" d="M-177.9,111.5c0,0-13.9-3.3-9.5-9.5s-8.7-4-8.7-4s-6.2,2.1-2.7,7c3.5,4.9-0.3,9.1-2.7,8.7
			c-2.3-0.5-10.6,0.7-8.2,5c2.4,4.2,9.2,9.2,9.2,9.2c3.1,3.5-3.4,12.8,2,14.5c5.4,1.7,16.1-8.5,14.6-12.7c-1.5-4.2,4.7-8.8,8.7-4.8
			c4,4,8.1-2.3,5.3-5.3s7.2-9.5,2.6-14.3C-171.9,100.2-174.1,112.7-177.9,111.5z"/>
	</g>
</g>
<g>
	<path class="portfolio10" d="M-236.1,94.7c-3-0.4-5.9-0.7-8.6-0.4s-4.5,1.9-4.4,3.3c0.1,2.3,4.8,2,2.2,4.4c-2.6,2.3-5.5-2.5-9.4-3
		c-3.9-0.5-6.9,2.3-7.2,4.6c-0.9,6.8,10,13.8,24.2,15.6s26.5-2.1,27.4-8.9C-211,103.5-221.9,96.5-236.1,94.7z M-239.3,101.4
		c-1.8-0.2-3.2-1.1-3.1-2c0.1-0.9,1.7-1.4,3.5-1.1s3.2,1.1,3.1,2C-235.9,101.1-237.4,101.6-239.3,101.4z"/>
	<path class="portfolio13" d="M-257,108.2c-0.4,1.3,1.8,2.8,2.8,2.6s3.1-0.5,3.2-1.2s-2-2-2.6-2.1s-1.9-1.2-2.5-0.8
		C-256.5,107.1-257,108.2-257,108.2z"/>
	<path class="portfolio14" d="M-249,112.6c-0.4,1.3,1.8,2.8,2.8,2.6s3.1-0.5,3.2-1.2s-2-2-2.6-2.1s-1.9-1.2-2.5-0.8S-249,112.6-249,112.6z"
		/>
	<path class="portfolio15" d="M-240,114.7c-0.4,1.3,1.8,2.8,2.8,2.6s3.1-0.5,3.2-1.2s-2-2-2.6-2.1s-1.9-1.2-2.5-0.8S-240,114.7-240,114.7z"
		/>
	<path class="portfolio16" d="M-230.6,113.2c-0.4,1.3,1.8,2.8,2.8,2.6s3.1-0.5,3.2-1.2s-2-2-2.6-2.1s-1.9-1.2-2.5-0.8
		S-230.6,113.2-230.6,113.2z"/>
	<path class="portfolio1" d="M-223.6,110.3c-0.4,1.3,1.8,2.8,2.8,2.6s3.1-0.5,3.2-1.2s-2-2-2.6-2.1s-1.9-1.2-2.5-0.8
		C-223.1,109.2-223.6,110.3-223.6,110.3z"/>
</g>
<path class="portfolio0" d="M-251.4,89.4l-1.8,7.3c3.3,0.7,5.4,3.8,4.9,7.2c0,0.3-0.1,0.6-0.2,0.9l7.1,2.2c0.2-0.6,0.4-1.2,0.5-1.9
	C-239.7,97.8-244.4,91-251.4,89.4z"/>
<g>
	<circle class="portfolio17" cx="48.6" cy="5" r="5"/>
	<path class="portfolio2" d="M56.9,10"/>
	<path class="portfolio4" d="M66.6,49.8l-0.9-0.3c3.8-11.3,3.5-21.2-1-29.3l-7.2,0l6.8-5l-3.2,0L61,15c-4.1-4.6-8.4-6.5-8.5-6.6l0.4-0.9
		c0.2,0.1,4.5,2,8.7,6.6l5.8,0l-6.8,5l4.7,0l0.1,0.3C70.2,27.9,70.6,38.1,66.6,49.8z"/>
</g>
<path class="portfolio0" d="M166.8,80.1c0,0.1,0.1,0.3,0.1,0.5c0.8,3.4-1.3,6.7-4.6,7.5s-6.7-1.3-7.5-4.6c-0.8-3.4,1.3-6.7,4.6-7.5
	c0.3-0.1,0.6-0.1,0.9-0.1l-0.7-7.4c-0.6,0.1-1.3,0.1-1.9,0.3c-7.4,1.8-12,9.2-10.2,16.5c1.7,7.4,9.2,12,16.5,10.2
	c7.4-1.8,12-9.2,10.2-16.5c-0.1-0.3-0.2-0.7-0.3-1L166.8,80.1z"/>
<circle class="portfolio3" cx="155.5" cy="89.9" r="4.9"/>
<path class="portfolio0" d="M13.2,163.1c-0.2,0-0.3,0-0.5-0.1c-3.4-0.6-5.7-3.8-5.1-7.2c0.6-3.4,3.8-5.7,7.2-5.1c3.4,0.6,5.7,3.8,5.1,7.2
	c0,0.3-0.1,0.6-0.2,0.9l7.1,2.2c0.2-0.6,0.4-1.2,0.5-1.9c1.3-7.5-3.8-14.6-11.3-15.8c-7.5-1.3-14.6,3.8-15.8,11.3
	c-1.3,7.5,3.8,14.6,11.3,15.8c0.3,0.1,0.7,0.1,1,0.1L13.2,163.1z"/>
<path class="portfolio0" d="M57.4,204.5c1.2-0.6,2.5-1,3.9-1.2c1.8-0.3,3.5-0.2,5.1,0.2c-2-3.5-3.3-7.4-3.7-11.7
	c-0.9-9.5,2.8-18.3,9.4-24.3l-5.4-6.5c-8.6,7.7-13.5,19.2-12.4,31.6C54.7,196.8,55.8,200.8,57.4,204.5z"/>
<path class="portfolio0" d="M20.9,100.6c-5.5,2.2-10.5,5.9-14.3,11c-8.5,11.5-8.6,26.6-1.2,37.9l6.3-4.1c-5.7-8.8-5.6-20.5,1-29.4
	c2.6-3.5,6-6.2,9.7-7.9L20.9,100.6z"/>
<polygon class="portfolio4" points="93.4,181.7 37.1,179.7 21.1,87 109.4,85 "/>
<g>
	<circle class="portfolio5" cx="65.2" cy="114.6" r="19.8"/>

		<rect x="42" y="114.6" transform="matrix(-0.9987 5.183915e-02 -5.183915e-02 -0.9987 137.8293 245.3802)" class="portfolio4" width="47.5" height="19.8"/>
	<g>
		<path class="portfolio18" d="M50.5,101.3c-0.8,0.9-1.5,1.9-2.2,2.9c0,0.1-0.1,0.1-0.1,0.2c-0.3,0.5-0.5,0.9-0.8,1.4
			c-0.1,0.1-0.1,0.2-0.2,0.3c-0.2,0.4-0.4,0.9-0.6,1.3c-0.1,0.2-0.1,0.3-0.2,0.5c-0.2,0.4-0.3,0.9-0.4,1.3c-0.1,0.2-0.1,0.4-0.2,0.6
			c-0.1,0.4-0.2,0.9-0.3,1.3c0,0.2-0.1,0.4-0.1,0.6c-0.1,0.5-0.1,1-0.2,1.6c0,0.1,0,0.3,0,0.4c0,0.7,0,1.3,0,2l19.8-1L50.5,101.3z"
			/>
		<path class="portfolio19" d="M64.2,94.8c-1.2,0.1-2.4,0.2-3.6,0.5c-0.1,0-0.1,0-0.2,0c-0.5,0.1-1,0.3-1.5,0.5c-0.1,0-0.2,0.1-0.3,0.1
			c-0.5,0.2-0.9,0.4-1.4,0.6c-0.1,0.1-0.3,0.1-0.4,0.2c-0.4,0.2-0.8,0.4-1.2,0.6c-0.2,0.1-0.3,0.2-0.5,0.3c-0.4,0.2-0.8,0.5-1.1,0.7
			c-0.2,0.1-0.3,0.2-0.5,0.3c-0.4,0.3-0.8,0.6-1.2,1c-0.1,0.1-0.2,0.2-0.3,0.2c-0.5,0.4-1,0.9-1.4,1.4l14.7,13.3L64.2,94.8z"/>
		<path class="portfolio20" d="M78.5,99.9c0.9,0.8,1.7,1.7,2.5,2.7c0,0,0.1,0.1,0.1,0.1c0.3,0.4,0.6,0.9,0.9,1.3c0.1,0.1,0.1,0.2,0.2,0.3
			c0.3,0.4,0.5,0.8,0.7,1.3c0.1,0.1,0.2,0.3,0.2,0.4c0.2,0.4,0.4,0.8,0.5,1.3c0.1,0.2,0.2,0.4,0.2,0.5c0.2,0.4,0.3,0.9,0.4,1.3
			c0.1,0.2,0.1,0.4,0.2,0.6c0.1,0.5,0.2,1,0.3,1.5c0,0.1,0.1,0.2,0.1,0.4c0.1,0.7,0.2,1.3,0.2,2l-19.8,1L78.5,99.9z"/>
		<path class="portfolio21" d="M64.2,94.8c1.2-0.1,2.4,0,3.6,0.2c0.1,0,0.1,0,0.2,0c0.5,0.1,1,0.2,1.6,0.3c0.1,0,0.2,0,0.3,0.1
			c0.5,0.1,0.9,0.3,1.4,0.4c0.2,0.1,0.3,0.1,0.5,0.1c0.4,0.2,0.8,0.3,1.3,0.5c0.2,0.1,0.4,0.1,0.5,0.2c0.4,0.2,0.8,0.4,1.2,0.6
			c0.2,0.1,0.4,0.2,0.5,0.3c0.4,0.3,0.9,0.6,1.3,0.9c0.1,0.1,0.2,0.1,0.3,0.2c0.5,0.4,1,0.8,1.5,1.3l-13.3,14.7L64.2,94.8z"/>
	</g>
	<path class="portfolio5" d="M67.3,112.5c-0.2,0.8-0.9,1.3-1.7,1.1c-0.8-0.2-1.3-0.9-1.1-1.7c0.2-0.8,3.8-10.9,3.8-10.9
		S67.4,111.7,67.3,112.5z"/>
	<circle class="portfolio0" cx="65.2" cy="114.6" r="4.7"/>
</g>
<g>
	<g>
		<path class="portfolio9" d="M181.6,87.4c-1.7-0.4-2.7-2.2-2.3-3.9c0.4-1.7,2.2-2.7,3.9-2.3c1.7,0.4,5.2,4.6,5.2,4.6
			S183.3,87.9,181.6,87.4z"/>
		<path class="portfolio22" d="M184.2,83c-0.3,1.4-0.1,2.8,0.5,4.1c1.8-0.5,3.5-1.2,3.5-1.2s-2-2.4-3.8-3.8C184.4,82.4,184.3,82.7,184.2,83
			z"/>
	</g>
	<path class="portfolio10" d="M171.2,84.4c-3.4-0.9-30.4-8.8-30-10.2c0.3-1.4,27.9,4.5,31.3,5.3s5.9,2.7,5.5,4
		C177.7,84.9,174.6,85.3,171.2,84.4z"/>
</g>
<path class="portfolio0" d="M159.4,75.9c0.3-0.1,0.6-0.1,0.9-0.1l-0.7-7.4c-0.6,0.1-1.3,0.1-1.9,0.3c-7.1,1.7-11.6,8.6-10.4,15.7l7.3-3.1
	C154.9,78.7,156.8,76.5,159.4,75.9z"/>
<path class="portfolio0" d="M65.7,45.8c-18,0-32.7,14.6-32.7,32.7v5.1h65.3v-5.1C98.4,60.4,83.8,45.8,65.7,45.8z"/>
<circle class="portfolio3" cx="61.9" cy="74" r="1.7"/>
<circle class="portfolio3" cx="73.2" cy="74" r="1.7"/>
<circle class="portfolio23" cx="87.7" cy="154.8" r="1.4"/>
<circle class="portfolio23" cx="82.7" cy="145.8" r="0.7"/>
<circle class="portfolio22" cx="35.6" cy="116.8" r="1.2"/>
<circle class="portfolio24" cx="73.7" cy="60.5" r="1.3"/>
<circle class="portfolio24" cx="77.7" cy="67.4" r="0.9"/>
<path class="portfolio24" d="M86.4,53.1c-0.2,0.1-0.4,0.3-0.5,0.7c-0.6,2-0.2,5.7-0.2,5.7c-0.2,2-5.1,2.8-4.1,5c1.1,2.2,7.6,2.6,8.5,0.8
	c0.9-1.7,4.2-1.1,4.2,1.3c-0.1,1.7,1.5,1.9,2.5,1.4C94.7,62.1,91.1,57,86.4,53.1z"/>
<path class="portfolio25" d="M65.7,45.8c-18,0-32.7,14.6-32.7,32.7v5.1h65.3v-5.1C98.4,60.4,83.8,45.8,65.7,45.8z"/>
<path class="portfolio26" d="M95.9,119.2c-1.3-7.5-9,3.3-9,3.3s-2.9,5.8,3.1,6.8s6.2,6.7,4.3,8c-2,1.3-7,8-2.3,9.3c2,0.6,4.7,0.7,7.1,0.6
	l4.2-25.3C100,123,96.6,123,95.9,119.2z"/>
<path class="portfolio22" d="M45.6,132.7c-4.1-0.2-1.6-11.8-8.3-12c-6.6-0.2,0.6,10.2-3,12c0,0-2.3,1.4-4.9,2.4l5,28.9
	c2.1,3.1,4.1,6.7,7.1,5.1c5-2.6,5.3-17.4,1.3-19.3s-2.9-9.6,2.7-9.6C51.2,140.2,49.7,132.9,45.6,132.7z"/>
<path class="portfolio23" d="M97.1,158.9c-2.3,2.1-4.2,7.6-6.8,6.7c0,0-13.9-3.3-9.5-9.5s-8.7-4-8.7-4s-6.2,2.1-2.7,7
	c3.5,4.9-0.3,9.1-2.7,8.7c-2.3-0.5-10.6,0.7-8.2,5c1.7,3,5.6,6.4,7.7,8.1l17.9,0.6c0.8-3.3,5.6-5.8,8.8-2.5c0.2,0.2,0.5,0.5,0.7,0.6
	L97.1,158.9z"/>
<polygon class="portfolio25" points="93.4,181.7 37.1,179.7 21.1,87 109.4,85 "/>
<g>
	<path class="portfolio10" d="M32.9,150.7c-3-0.4-5.9-0.7-8.6-0.4s-4.5,1.9-4.4,3.3c0.1,2.3,4.8,2,2.2,4.4c-2.6,2.3-5.5-2.5-9.4-3
		c-3.9-0.5-6.9,2.3-7.2,4.6c-0.9,6.8,10,13.8,24.2,15.6s26.5-2.1,27.4-8.9C58,159.5,47.1,152.5,32.9,150.7z M29.8,157.4
		c-1.8-0.2-3.2-1.1-3.1-2c0.1-0.9,1.7-1.4,3.5-1.1s3.2,1.1,3.1,2C33.2,157.1,31.6,157.7,29.8,157.4z"/>
	<path class="portfolio18" d="M12,164.2c-0.4,1.3,1.8,2.8,2.8,2.6s3.1-0.5,3.2-1.2c0.2-0.7-2-2-2.6-2.1c-0.6-0.1-1.9-1.2-2.5-0.8
		S12,164.2,12,164.2z"/>
	<path class="portfolio27" d="M20.1,168.6c-0.4,1.3,1.8,2.8,2.8,2.6s3.1-0.5,3.2-1.2c0.2-0.7-2-2-2.6-2.1s-1.9-1.2-2.5-0.8
		S20.1,168.6,20.1,168.6z"/>
	<path class="portfolio19" d="M29,170.7c-0.4,1.3,1.8,2.8,2.8,2.6c1-0.2,3.1-0.5,3.3-1.2c0.2-0.7-2-2-2.6-2.1c-0.6-0.1-1.9-1.2-2.5-0.8
		S29,170.7,29,170.7z"/>
	<path class="portfolio21" d="M38.4,169.2c-0.4,1.3,1.8,2.8,2.8,2.6s3.1-0.5,3.2-1.2c0.2-0.7-2-2-2.6-2.1s-1.9-1.2-2.5-0.8
		S38.4,169.2,38.4,169.2z"/>
	<path class="portfolio20" d="M45.4,166.3c-0.4,1.3,1.8,2.8,2.8,2.6s3.1-0.5,3.2-1.2c0.2-0.7-2-2-2.6-2.1s-1.9-1.2-2.5-0.8
		S45.4,166.3,45.4,166.3z"/>
</g>
<path class="portfolio0" d="M16.9,143.5l-1.8,7.3c3.3,0.7,5.4,3.8,4.9,7.2c0,0.3-0.1,0.6-0.2,0.9l7.1,2.2c0.2-0.6,0.4-1.2,0.5-1.9
	C28.5,152,23.9,145.1,16.9,143.5z"/>
<circle class="portfolio3" cx="8.9" cy="148.5" r="4.9"/>
<path class="portfolio4" d="M51.2,215.9c0.4-5.6,4.6-10.3,10.3-11.2c5.7-0.9,11.2,2.5,13.1,7.7l4.7-0.7c-2.4-7.8-10.2-12.9-18.5-11.6
	c-8.3,1.2-14.3,8.4-14.3,16.5L51.2,215.9z"/>
<circle class="portfolio4" cx="63.3" cy="216.7" r="9.5"/>
<rect x="322.9" y="-159.3" class="portfolio28" width="156.2" height="95.1"/>
<rect x="677.7" y="-105.3" class="portfolio29" width="150" height="150"/>
<rect x="677.7" y="10.3" class="portfolio30" width="150" height="75"/>
<rect x="677.7" y="-212.2" class="portfolio22" width="150" height="167"/>
<rect x="458.1" y="-41" class="portfolio31" width="182.1" height="40.3"/>
<rect x="549.2" y="-233.3" class="portfolio26" width="110.4" height="121.6"/>
<rect x="826.9" y="-212.3" class="portfolio32" width="88" height="296"/>
<rect x="-153.1" y="166.1" class="portfolio25" width="134" height="128"/>
<text transform="matrix(1 0 0 1 -153.0677 174.5704)"><tspan x="0" y="0" style="font-family:'MyriadPro-Regular'; font-size:12px;">$color__offwhite: #f3f2ed;</tspan><tspan x="0" y="14.4" style="font-family:'MyriadPro-Regular'; font-size:12px;">$color__navy: #141f32;</tspan><tspan x="0" y="28.8" style="font-family:'MyriadPro-Regular'; font-size:12px;">$color__teal: #509ea3;</tspan><tspan x="0" y="43.2" style="font-family:'MyriadPro-Regular'; font-size:12px;">$color__pink: #EB6361;</tspan><tspan x="0" y="57.6" style="font-family:'MyriadPro-Regular'; font-size:12px;">$color__grey: #cbcac8;</tspan></text>
<g>
	<g>
		<path class="portfolio33" d="M121.6-98.2c-16.2,0-29.6-12.7-30.4-28.9c-0.9-16.8,12.1-31.2,28.9-32c0.5,0,1.1,0,1.6,0
			c16.2,0,29.6,12.7,30.4,28.9c0.9,16.8-12.1,31.2-28.9,32C122.7-98.2,122.1-98.2,121.6-98.2z"/>
		<path class="portfolio34" d="M121.6-157.7c15.3,0,28.1,12,28.9,27.5c0.8,16-11.5,29.6-27.5,30.5c-0.5,0-1,0-1.5,0
			c-15.3,0-28.1-12-28.9-27.5c-0.8-16,11.5-29.6,27.5-30.5C120.6-157.7,121.1-157.7,121.6-157.7 M121.6-160.7L121.6-160.7
			c-0.6,0-1.1,0-1.7,0c-17.6,0.9-31.2,16-30.3,33.6c0.9,17,14.9,30.3,31.9,30.3c0.6,0,1.1,0,1.7,0c8.5-0.4,16.4-4.2,22.1-10.5
			c5.7-6.3,8.6-14.5,8.2-23.1C152.7-147.4,138.7-160.7,121.6-160.7L121.6-160.7z"/>
	</g>
	<g>
		<path class="portfolio35" d="M100.1-148.1c-1.2,1.3-2.2,2.7-3.2,4.3c0,0.1-0.1,0.1-0.1,0.2c-0.4,0.7-0.8,1.3-1.1,2
			c-0.1,0.2-0.2,0.3-0.2,0.5c-0.3,0.6-0.6,1.3-0.8,2c-0.1,0.2-0.2,0.4-0.3,0.7c-0.2,0.6-0.4,1.3-0.6,1.9c-0.1,0.3-0.2,0.5-0.2,0.8
			c-0.2,0.6-0.3,1.3-0.4,1.9c-0.1,0.3-0.1,0.6-0.2,0.9c-0.1,0.7-0.2,1.5-0.2,2.3c0,0.2,0,0.4-0.1,0.6c0,1,0,1.9,0,2.9l28.9-1.5
			L100.1-148.1z"/>
		<path class="portfolio19" d="M120.1-157.6c-1.8,0.1-3.5,0.4-5.3,0.8c-0.1,0-0.2,0-0.3,0.1c-0.7,0.2-1.5,0.4-2.2,0.7
			c-0.2,0.1-0.3,0.1-0.5,0.2c-0.7,0.2-1.3,0.5-2,0.8c-0.2,0.1-0.4,0.2-0.7,0.3c-0.6,0.3-1.2,0.6-1.8,0.9c-0.2,0.1-0.5,0.3-0.8,0.4
			c-0.6,0.3-1.1,0.7-1.6,1.1c-0.2,0.2-0.5,0.3-0.7,0.5c-0.6,0.5-1.2,0.9-1.8,1.4c-0.1,0.1-0.3,0.2-0.4,0.4c-0.7,0.6-1.4,1.3-2.1,2.1
			l21.5,19.4L120.1-157.6z"/>
		<path class="portfolio20" d="M141-150.2c1.3,1.2,2.5,2.5,3.6,3.9c0.1,0.1,0.1,0.1,0.2,0.2c0.5,0.6,0.9,1.3,1.3,1.9
			c0.1,0.1,0.2,0.3,0.3,0.4c0.4,0.6,0.7,1.2,1,1.9c0.1,0.2,0.2,0.4,0.3,0.6c0.3,0.6,0.5,1.2,0.8,1.8c0.1,0.3,0.2,0.5,0.3,0.8
			c0.2,0.6,0.4,1.3,0.6,1.9c0.1,0.3,0.2,0.6,0.2,0.8c0.2,0.7,0.3,1.5,0.5,2.2c0,0.2,0.1,0.4,0.1,0.5c0.1,1,0.2,1.9,0.3,2.9
			l-28.9,1.5L141-150.2z"/>
		<path class="portfolio21" d="M120.1-157.6c1.8-0.1,3.5,0,5.3,0.2c0.1,0,0.2,0,0.3,0c0.8,0.1,1.5,0.3,2.3,0.4c0.2,0,0.3,0.1,0.5,0.1
			c0.7,0.2,1.4,0.4,2.1,0.6c0.2,0.1,0.5,0.1,0.7,0.2c0.6,0.2,1.2,0.5,1.9,0.7c0.3,0.1,0.5,0.2,0.8,0.3c0.6,0.3,1.2,0.6,1.8,0.9
			c0.3,0.1,0.5,0.3,0.8,0.4c0.7,0.4,1.3,0.8,1.9,1.3c0.2,0.1,0.3,0.2,0.5,0.3c0.8,0.6,1.5,1.2,2.3,1.8l-19.4,21.5L120.1-157.6z"/>
	</g>
	<path class="portfolio34" d="M124.6-131.7c-0.2,1.2-1.4,1.9-2.5,1.7c-1.2-0.2-1.9-1.4-1.7-2.5s5.6-16,5.6-16S124.8-132.9,124.6-131.7z"/>
	<circle class="portfolio34" cx="121.6" cy="-128.7" r="6.8"/>
</g>
</svg>
