<?xml version="1.0" encoding="utf-8"?>
<!-- Generator: Adobe Illustrator 19.0.1, SVG Export Plug-In . SVG Version: 6.00 Build 0)  -->
<svg version="1.1" id="Layer_1" class="robot-sad" xmlns="http://www.w3.org/2000/svg" xmlns:xlink="http://www.w3.org/1999/xlink" x="0px" y="0px"
	 width="101.7px" height="204.4px" viewBox="0 0 101.7 204.4" style="enable-background:new 0 0 101.7 204.4;" xml:space="preserve"
	>
<style type="text/css">
	.sad0{fill:none;stroke:#C4C4C3;stroke-miterlimit:10;}
	.sad1{fill:#C4C4C3;}
	.sad2{fill:#39C3DE;}
	.sad3{fill:none;stroke:#E5E5E5;stroke-width:4;stroke-miterlimit:10;}
	.sad4{fill:#FFFFFF;}
	.sad5{fill:#E5E5E5;}
	.sad6{fill:#969696;}
	.sad7{fill:none;stroke:#F3B71B;stroke-miterlimit:10;}
	.sad8{fill:#7FAFB5;}
	.sad9{fill:#E28888;}
	.sad10{fill:#EFE4A6;}
	.sad11{fill:#8CCED8;}
	.sad12{fill:#AFBB87;}
	.sad13{fill:#6DB4B5;}
</style>
<path class="sad0" d="M181.5,8.6"/>
<path class="sad1" d="M55.1,25l-0.7-0.7c2.9-3.2,4.4-7.3,4.2-11.6l0-0.2l2.9-3.7l-9,0.5L56,5.5c-1-1.2-4.7-4.4-9.3-4.5
	c-3.7-0.1-7.1,1.9-10.1,5.9l-0.8-0.6C39.1,2,42.8-0.1,46.8,0c5.6,0.1,9.7,4.4,10.3,5.2l0.2,0.3l-2.5,2.7l8.8-0.5l-4,5.2
	C59.8,17.4,58.2,21.7,55.1,25z"/>
<circle class="sad2" cx="184.2" cy="25.5" r="5"/>
<g>
	<line class="sad3" x1="199.4" y1="167.8" x2="200.6" y2="200.2"/>
	<g>
		<circle class="sad1" cx="200.6" cy="200.2" r="12"/>
		<circle class="sad4" cx="200.6" cy="200.2" r="7.5"/>
		<circle class="sad1" cx="200.6" cy="200.2" r="2"/>
	</g>
</g>
<path class="sad5" d="M206,38.3c-18,0-32.7,14.6-32.7,32.7V76h65.3V71C238.7,52.9,224.1,38.3,206,38.3z"/>
<g>
	<g>
		<circle class="sad2" cx="190.3" cy="70.9" r="1.7"/>
		<circle class="sad2" cx="201.7" cy="70.9" r="1.7"/>
	</g>

		<rect x="200.1" y="68.1" transform="matrix(0.8927 0.4507 -0.4507 0.8927 52.9504 -84.0301)" class="sad5" width="5.6" height="2.1"/>

		<rect x="186.3" y="68.1" transform="matrix(-0.8927 0.4507 -0.4507 -0.8927 389.0947 45.6653)" class="sad5" width="5.6" height="2.1"/>
</g>
<polygon class="sad1" points="237.1,172 169.7,172 156.8,76 250.1,76 "/>
<g>
	<path class="sad5" d="M232.9,145.6c9.9-3.3,17.2-12.5,17.7-23.5c0.4-9.8-4.8-18.6-12.7-23.2l3.8-6.4c10.2,6,16.9,17.3,16.4,29.9
		c-0.5,14.3-10,26.1-22.8,30.3L232.9,145.6z"/>
	<path class="sad5" d="M223.3,160.7c0.1,0,0.3,0.1,0.5,0.1c3.4,0.8,6.7-1.3,7.5-4.6c0.8-3.4-1.3-6.7-4.6-7.5
		c-3.4-0.8-6.7,1.3-7.5,4.6c-0.1,0.3-0.1,0.6-0.1,0.9l-7.4-0.7c0.1-0.6,0.1-1.3,0.3-1.9c1.8-7.4,9.2-12,16.6-10.2
		c7.4,1.8,12,9.2,10.2,16.6c-1.8,7.4-9.2,12-16.6,10.2c-0.3-0.1-0.7-0.2-1-0.3L223.3,160.7z"/>
	<circle class="sad6" cx="233.1" cy="149.5" r="4.9"/>
	<circle class="sad5" cx="239.7" cy="95.6" r="3.7"/>
</g>
<g>
	<path class="sad5" d="M172.7,146c-9.3-4.8-15-15-13.7-26c1.2-9.8,7.7-17.6,16.3-20.9l-2.7-7c-11,4.3-19.4,14.4-21,27
		c-1.7,14.2,5.7,27.3,17.7,33.6L172.7,146z"/>
	<path class="sad5" d="M179.7,162.5c-0.2,0-0.3,0-0.5,0.1c-3.4,0.3-6.4-2.3-6.7-5.8c-0.3-3.4,2.3-6.4,5.8-6.7
		c3.4-0.3,6.4,2.3,6.7,5.8c0,0.3,0,0.6,0,0.9l7.5,0.5c0-0.6,0.1-1.3,0-1.9c-0.6-7.6-7.1-13.3-14.7-12.7c-7.6,0.6-13.3,7.1-12.7,14.7
		c0.6,7.6,7.1,13.3,14.7,12.7c0.3,0,0.7-0.1,1-0.1L179.7,162.5z"/>
	<circle class="sad6" cx="171.9" cy="149.9" r="4.9"/>
	<circle class="sad5" cx="173.9" cy="95.6" r="3.7"/>
</g>
<polygon class="sad1" points="239.7,114.7 217.8,76 156.8,76 163.4,125.5 "/>
<circle class="sad4" cx="199" cy="106.2" r="19.8"/>
<g>
	<line class="sad7" x1="199" y1="88.9" x2="199" y2="118.5"/>
	<line class="sad7" x1="203.6" y1="89.5" x2="195.7" y2="119.2"/>
	<line class="sad7" x1="207.9" y1="91.3" x2="192.7" y2="117.7"/>
	<line class="sad7" x1="211.6" y1="94.1" x2="190.2" y2="115.5"/>
	<line class="sad7" x1="194.4" y1="89.5" x2="202.2" y2="118.5"/>
	<line class="sad7" x1="190.2" y1="91.3" x2="204.8" y2="116.7"/>
	<line class="sad7" x1="186.5" y1="94.1" x2="206.7" y2="114.3"/>
	<circle class="sad4" cx="199" cy="106.6" r="14.8"/>
</g>
<path class="sad8" d="M191.4,103.7l-7.7-0.6l7.6,1.6l7.6,1.6c0.6,0.1,1.1-0.3,1.2-0.9s-0.3-1.1-0.9-1.2L191.4,103.7z"/>
<circle class="sad5" cx="199" cy="106.2" r="4.7"/>
<rect x="169.9" y="106.2" class="sad1" width="62.3" height="28.9"/>
<g>
	<path class="sad5" d="M50.7,170c-0.3,3.6-1.3,6.9-2.8,10c1.4-0.1,2.8-0.1,4.3,0.1c1.5,0.2,3,0.7,4.4,1.3c1.3-3.3,2.2-6.8,2.6-10.5
		c0.3-3.2,0.2-6.4-0.3-9.4l-8.7-0.3C50.8,163.9,51,166.9,50.7,170z"/>
</g>
<path class="sad0" d="M62.2-11.8"/>
<path class="sad5" d="M51.7,24c-18,0.7-32.1,15.8-31.4,33.9l0.2,5.1l65.3-2.5l-0.2-5.1C84.9,37.4,69.7,23.3,51.7,24z"/>
<polygon class="sad1" points="80,159.9 23.7,157.9 7.7,65.2 96,63.2 "/>
<circle class="sad4" cx="51.9" cy="92.7" r="19.8"/>
<rect x="28.6" y="92.7" transform="matrix(-0.9987 5.183915e-02 -5.183915e-02 -0.9987 109.9974 202.4159)" class="sad1" width="47.5" height="19.8"/>
<path class="sad9" d="M37.1,79.5c-0.8,0.9-1.5,1.9-2.2,2.9c0,0.1-0.1,0.1-0.1,0.2c-0.3,0.5-0.5,0.9-0.8,1.4C34.1,84,34,84.1,34,84.2
	c-0.2,0.4-0.4,0.9-0.6,1.3c-0.1,0.2-0.1,0.3-0.2,0.5c-0.2,0.4-0.3,0.9-0.4,1.3c-0.1,0.2-0.1,0.4-0.2,0.6c-0.1,0.4-0.2,0.9-0.3,1.3
	c0,0.2-0.1,0.4-0.1,0.6c-0.1,0.5-0.1,1-0.2,1.6c0,0.1,0,0.3,0,0.4c0,0.7,0,1.3,0,2l19.8-1L37.1,79.5z"/>
<path class="sad10" d="M50.8,72.9c-1.2,0.1-2.4,0.2-3.6,0.5c-0.1,0-0.1,0-0.2,0c-0.5,0.1-1,0.3-1.5,0.5c-0.1,0-0.2,0.1-0.3,0.1
	c-0.5,0.2-0.9,0.4-1.4,0.6c-0.1,0.1-0.3,0.1-0.4,0.2c-0.4,0.2-0.8,0.4-1.2,0.6c-0.2,0.1-0.3,0.2-0.5,0.3c-0.4,0.2-0.8,0.5-1.1,0.7
	c-0.2,0.1-0.3,0.2-0.5,0.3c-0.4,0.3-0.8,0.6-1.2,1c-0.1,0.1-0.2,0.2-0.3,0.2c-0.5,0.4-1,0.9-1.4,1.4l14.7,13.3L50.8,72.9z"/>
<path class="sad11" d="M65.1,78c0.9,0.8,1.7,1.7,2.5,2.7c0,0,0.1,0.1,0.1,0.1c0.3,0.4,0.6,0.9,0.9,1.3c0.1,0.1,0.1,0.2,0.2,0.3
	c0.3,0.4,0.5,0.8,0.7,1.3c0.1,0.1,0.2,0.3,0.2,0.4c0.2,0.4,0.4,0.8,0.5,1.3c0.1,0.2,0.2,0.4,0.2,0.5c0.2,0.4,0.3,0.9,0.4,1.3
	c0.1,0.2,0.1,0.4,0.2,0.6c0.1,0.5,0.2,1,0.3,1.5c0,0.1,0.1,0.2,0.1,0.4c0.1,0.7,0.2,1.3,0.2,2l-19.8,1L65.1,78z"/>
<path class="sad12" d="M50.8,72.9c1.2-0.1,2.4,0,3.6,0.2c0.1,0,0.1,0,0.2,0c0.5,0.1,1,0.2,1.6,0.3c0.1,0,0.2,0,0.3,0.1
	c0.5,0.1,0.9,0.3,1.4,0.4c0.2,0.1,0.3,0.1,0.5,0.1c0.4,0.2,0.8,0.3,1.3,0.5c0.2,0.1,0.4,0.1,0.5,0.2c0.4,0.2,0.8,0.4,1.2,0.6
	c0.2,0.1,0.4,0.2,0.5,0.3c0.4,0.3,0.9,0.6,1.3,0.9c0.1,0.1,0.2,0.1,0.3,0.2c0.5,0.4,1,0.8,1.5,1.3L51.9,92.7L50.8,72.9z"/>
<path class="sad4" d="M50.6,90.5c0.8,0.2,1.3,0.9,1.1,1.7c-0.2,0.8-0.9,1.3-1.7,1.1s-10.9-3.8-10.9-3.8S49.9,90.4,50.6,90.5z"/>
<circle class="sad5" cx="51.9" cy="92.7" r="4.7"/>
<path class="sad1" d="M38.8,190.6c2-5.2,7.4-8.6,13.1-7.7c5.7,0.9,9.9,5.6,10.3,11.2l4.7,0.7c0-8.2-6-15.3-14.3-16.5
	c-8.3-1.2-16.1,3.8-18.5,11.6L38.8,190.6z"/>
<circle class="sad1" cx="50.1" cy="194.9" r="9.5"/>
<g>
	<g>
		<circle class="sad6" cx="36.3" cy="54" r="1.7"/>
		<circle class="sad6" cx="47.6" cy="54" r="1.7"/>
	</g>

		<rect x="46.1" y="51.2" transform="matrix(0.8927 0.4507 -0.4507 0.8927 28.7839 -16.4118)" class="sad5" width="5.6" height="2.1"/>

		<rect x="32.3" y="51.2" transform="matrix(-0.8927 0.4507 -0.4507 -0.8927 89.8849 83.0547)" class="sad5" width="5.6" height="2.1"/>
</g>
<path class="sad5" d="M101.7,99.1c0-3-0.5-5.9-1.3-8.7l-0.1,0c-0.5-1.5-1-3.1-1.7-4.6c-1-2.1-2.1-4-3.4-5.8l-2,12.3
	c0.6,1.9,0.9,3.7,1,5.6c0,0.2,0,0.3,0,0.5c0,0.3,0,0.6,0,0.9c0,3.3-0.6,6.7-2,9.9c-4.3,10.2-14.3,16.2-24.8,15.9l-0.3,7.5
	c13.5,0.5,26.5-7.3,31.9-20.4c1.2-2.8,1.9-5.7,2.3-8.6l0,0c0.1-0.9,0.2-1.9,0.2-2.8c0-0.5,0-1,0-1.5
	C101.7,99.3,101.7,99.2,101.7,99.1z"/>
<path class="sad5" d="M8.4,95.7c0.3-2,0.9-3.9,1.6-5.7L8.1,78.9C4.5,83.3,2,88.6,1,94.5c-2.3,14.1,4.6,27.6,16.3,34.3l3.7-6.5
	C11.9,117.1,6.6,106.6,8.4,95.7z"/>
<g>
	<path class="sad5" d="M30.9,137c-0.1,0.1-0.3,0.1-0.4,0.2c-3.3,1.1-6.8-0.8-7.9-4.1c-1.1-3.3,0.8-6.8,4.1-7.9
		c3.3-1.1,6.8,0.8,7.9,4.1c0.1,0.3,0.2,0.6,0.2,0.9l7.4-1.3c-0.1-0.6-0.2-1.2-0.4-1.9c-2.3-7.2-10-11.2-17.3-8.9
		c-7.2,2.3-11.2,10-8.9,17.3c2.3,7.2,10,11.2,17.3,8.9c0.3-0.1,0.7-0.2,1-0.4L30.9,137z"/>
	<circle class="sad6" cx="19.9" cy="126.2" r="4.9"/>
</g>
<g>
	<path class="sad5" d="M53.3,136.1c0.1,0.1,0.2,0.2,0.4,0.3c2.9,1.9,6.8,1.2,8.7-1.7c1.9-2.9,1.2-6.8-1.7-8.7
		c-2.9-1.9-6.8-1.2-8.7,1.7c-0.2,0.2-0.3,0.5-0.4,0.8l-6.7-3.3c0.3-0.6,0.6-1.1,0.9-1.7c4.2-6.3,12.8-8,19.1-3.8
		c6.3,4.2,8,12.8,3.8,19.1c-4.2,6.3-12.8,8-19.1,3.8c-0.3-0.2-0.6-0.4-0.8-0.6L53.3,136.1z"/>
	<circle class="sad6" cx="66.3" cy="129" r="4.9"/>
</g>
<circle class="sad13" cx="35.1" cy="8.6" r="5"/>
</svg>
