<svg class="large-robot" id="robot-base" xmlns="http://www.w3.org/2000/svg" width="135.2" height="226.2" viewBox="0 0 135.2 226.2"><style>.robot-base0{fill:#e5e5e5}.robot-base1{fill:#ea6361}.robot-base2{fill:none;stroke:#c4c4c3;stroke-miterlimit:10}.robot-base3{fill:#c4c4c3}.robot-base4{fill:#969696}.robot-base5{fill:#FFF}.robot-base6{fill:#e28888}.robot-base7{fill:#efe4a6}.robot-base8{fill:#8cced8}.robot-base9{fill:#afbb87}</style><path class="robot-base0" d="M64.1 191.8c-.3 3.6-1.3 6.9-2.8 10 1.4-.1 2.8-.1 4.3.1s3 .7 4.4 1.3c1.3-3.3 2.2-6.8 2.6-10.5.3-3.2.2-6.4-.3-9.4l-8.7-.3c.6 2.7.8 5.7.5 8.8z"/><circle class="robot-base1" cx="83.8" cy="5" r="5"/><path class="robot-base3" d="M65.8 49.8c-4-11.7-3.6-22 1.2-30.4l.1-.3h4.7l-6.8-5h5.8c4.2-4.6 8.5-6.6 8.7-6.6l.4.9s-4.4 2-8.5 6.6l-.1.2h-3.2l6.8 5h-7.2c-4.5 8.1-4.8 18-1 29.3l-.9.3z"/><path class="robot-base0" d="M65.7 45.8c-18 0-32.7 14.6-32.7 32.7v5.1h65.3v-5.1c.1-18.1-14.5-32.7-32.6-32.7z"/><circle class="robot-base4" cx="61.9" cy="74" r="1.7"/><circle class="robot-base4" cx="73.2" cy="74" r="1.7"/><path class="robot-base0" d="M20.9 100.6c-5.5 2.2-10.5 5.9-14.3 11-8.5 11.5-8.6 26.6-1.2 37.9l6.3-4.1c-5.7-8.8-5.6-20.5 1-29.4 2.6-3.5 6-6.2 9.7-7.9l-1.5-7.5z"/><path class="robot-base3" d="M93.4 181.7l-56.3-2-16-92.7 88.3-2z"/><circle class="robot-base5" cx="65.2" cy="114.6" r="19.8"/><path class="robot-base3" d="M89.943 133.106l-47.438 2.463-1.027-19.775 47.44-2.463z"/><path class="robot-base6" d="M50.5 101.3c-.8.9-1.5 1.9-2.2 2.9 0 .1-.1.1-.1.2-.3.5-.5.9-.8 1.4-.1.1-.1.2-.2.3-.2.4-.4.9-.6 1.3-.1.2-.1.3-.2.5-.2.4-.3.9-.4 1.3-.1.2-.1.4-.2.6-.1.4-.2.9-.3 1.3 0 .2-.1.4-.1.6-.1.5-.1 1-.2 1.6v2.4l19.8-1-14.5-13.4z"/><path class="robot-base7" d="M64.2 94.8c-1.2.1-2.4.2-3.6.5h-.2c-.5.1-1 .3-1.5.5-.1 0-.2.1-.3.1-.5.2-.9.4-1.4.6-.1.1-.3.1-.4.2l-1.2.6c-.2.1-.3.2-.5.3-.4.2-.8.5-1.1.7-.2.1-.3.2-.5.3-.4.3-.8.6-1.2 1-.1.1-.2.2-.3.2-.5.4-1 .9-1.4 1.4l14.7 13.3-1.1-19.7z"/><path class="robot-base8" d="M78.5 99.9c.9.8 1.7 1.7 2.5 2.7l.1.1c.3.4.6.9.9 1.3.1.1.1.2.2.3.3.4.5.8.7 1.3.1.1.2.3.2.4.2.4.4.8.5 1.3.1.2.2.4.2.5.2.4.3.9.4 1.3.1.2.1.4.2.6l.3 1.5c0 .1.1.2.1.4.1.7.2 1.3.2 2l-19.8 1 13.3-14.7z"/><path class="robot-base9" d="M64.2 94.8c1.2-.1 2.4 0 3.6.2h.2c.5.1 1 .2 1.6.3.1 0 .2 0 .3.1.5.1.9.3 1.4.4.2.1.3.1.5.1.4.2.8.3 1.3.5.2.1.4.1.5.2l1.2.6c.2.1.4.2.5.3.4.3.9.6 1.3.9.1.1.2.1.3.2.5.4 1 .8 1.5 1.3l-13.3 14.7-.9-19.8z"/><path class="robot-base5" d="M67.3 112.5c-.2.8-.9 1.3-1.7 1.1s-1.3-.9-1.1-1.7c.2-.8 3.8-10.9 3.8-10.9s-.9 10.7-1 11.5z"/><circle class="robot-base0" cx="65.2" cy="114.6" r="4.7"/><g><path class="robot-base0" d="M13.7 163.1c-.2 0-.3 0-.5-.1-3.4-.6-5.7-3.8-5.1-7.2.6-3.4 3.8-5.7 7.2-5.1 3.4.6 5.7 3.8 5.1 7.2 0 .3-.1.6-.2.9l7.1 2.2c.2-.6.4-1.2.5-1.9 1.3-7.5-3.8-14.6-11.3-15.8C9 142 1.9 147.1.7 154.6c-1.3 7.5 3.8 14.6 11.3 15.8.3.1.7.1 1 .1l.7-7.4z"/><circle class="robot-base4" cx="8.9" cy="148.5" r="4.9"/></g><g><path class="robot-base0" d="M128.1 147.4l-6.2-4.2c5.9-8.6 6.2-20.4-.2-29.4-3.3-4.7-7.9-7.9-12.9-9.6l1.2-7.5c7 2 13.3 6.3 17.8 12.7 8.2 11.7 7.9 26.9.3 38z"/><path class="robot-base0" d="M123.6 161c.1-.1.3-.1.4-.2 3.2-1.4 4.6-5.1 3.2-8.3-1.4-3.2-5.1-4.6-8.3-3.2-3.2 1.4-4.6 5.1-3.2 8.3.1.3.3.5.4.8l-6.4 4c-.3-.5-.6-1.1-.9-1.7-3.1-6.9 0-15.1 7-18.2 6.9-3.1 15.1 0 18.2 7 3.1 6.9 0 15.1-7 18.2-.3.1-.6.3-1 .4l-2.4-7.1z"/><circle class="robot-base4" cx="124.5" cy="146.2" r="4.9"/></g><path class="robot-base3" d="M52.1 212.4c2-5.2 7.4-8.6 13.1-7.7 5.7.9 9.9 5.6 10.3 11.2l4.7.7c0-8.2-6-15.3-14.3-16.5-8.3-1.2-16.1 3.8-18.5 11.6l4.7.7z"/><circle class="robot-base3" cx="63.5" cy="216.7" r="9.5"/></svg>