<svg id="Layer_1" xmlns="http://www.w3.org/2000/svg" width="144.2" height="144.2" viewBox="-233 324.8 144.2 144.2"><style>.octocat0{fill:#a0c3c6}.octocat1{fill:#e5e5e4}.octocat2{fill:#141e33}.octocat3{fill:#eb6461}.octocat4{fill:#c1dfe0}.octocat5{fill:none}.octocat6{fill:#959595}</style><circle class="octocat0" cx="-160.9" cy="396.9" r="72.1"/><path class="octocat1" d="M-189.3 421.6c-8 13.9-3.2 31.6 10.7 39.5 1.2.7 2.4 1.2 3.6 1.7l5.9-14.6c-.6-.2-1.1-.5-1.7-.8-6.3-3.6-8.5-11.7-4.9-18 1.4-2.4 3.5-4.2 5.8-5.4l-4.5-15.2c-6 2.4-11.4 6.8-14.9 12.8z"/><path class="octocat2" d="M-88.8 395.5c-.2-9.6-2.2-18.7-5.8-27-8.8.5-17.8 2.3-25.2 6.5-21.6 12.4-31.7 38.1-39.3 47.7-7.6 9.5-25.6 16.5-25.6 20.9 0 4.4 8.4 6.8 19.6 5.2 11.2-1.6 23.3-10.5 28.9-23.3 5.6-12.9 21.2-25.7 40.9-29.3 2.2-.4 4.4-.6 6.5-.7z"/><path class="octocat3" d="M-160.9 381s-30.6-18.9-15.8-30.8c7.1-5.7 15.9 4.7 15.9 4.7s7.7-10.5 15.9-4.3c14.7 11.2-16 30.4-16 30.4z"/><path class="octocat1" d="M-157.6 424.6c6.3 3.6 8.5 11.7 4.9 18-.2.3-.4.6-.5.8l13 8.9 1.2-1.8c8-13.9 3.2-31.6-10.7-39.5-7.8-4.5-16.8-4.9-24.6-2l4.5 15.2c3.8-1.8 8.3-1.8 12.2.4z"/><ellipse transform="rotate(-111.315 -160.807 440.21)" class="octocat4" cx="-160.8" cy="440.2" rx="2.4" ry="3.3"/><ellipse transform="rotate(-127.728 -151.007 432.79)" class="octocat4" cx="-151" cy="432.8" rx="2.4" ry="4"/><ellipse transform="rotate(-140.95 -141.036 420.81)" class="octocat4" cx="-141" cy="420.8" rx="3.3" ry="4.3"/><ellipse transform="rotate(-140.95 -129.91 407.382)" class="octocat4" cx="-129.9" cy="407.4" rx="3.3" ry="4.3"/><ellipse transform="rotate(-133.805 -117.322 395.203)" class="octocat4" cx="-117.3" cy="395.2" rx="3.3" ry="5.1"/><ellipse transform="rotate(-100.673 -100.3 389.604)" class="octocat4" cx="-100.3" cy="389.6" rx="3.3" ry="5.1"/><path class="octocat1" d="M-224.6 363.1c-2.6 4.9-4.7 10.1-6.1 15.6h2.4c23.3 1.1 42.5 16.7 49.1 37.7l15-4.8c-8.3-26.2-31.7-45.9-60.4-48.5z"/><path class="octocat1" d="M-150 410.9c-12.3-7-27.5-4.1-36.4 6.3l15.8 7.2c3.9-2.1 8.7-2.2 12.8.2 6.3 3.6 8.5 11.7 4.9 18-.2.3-.4.6-.5.8l13 8.9 1.2-1.8c7.8-13.9 3-31.6-10.8-39.6z"/><circle class="octocat5" cx="-160.9" cy="396.9" r="72.1"/><circle class="octocat6" cx="-170.6" cy="416" r="10.3"/></svg>