<svg id="robot-sad" class="robot-sad" xmlns="http://www.w3.org/2000/svg" width="101.7" height="204.4" viewBox="0 0 101.7 204.4" aria-hidden="true"><style>.sad0{fill:none;stroke:#c4c4c3;stroke-miterlimit:10}.sad1{fill:#c4c4c3}.sad2{fill:#39c3de}.sad3{fill:none;stroke:#e5e5e5;stroke-width:4;stroke-miterlimit:10}.sad4{fill:#FFF}.sad5{fill:#e5e5e5}.sad6{fill:#969696}.sad7{fill:none;stroke:#f3b71b;stroke-miterlimit:10}.sad8{fill:#7fafb5}.sad9{fill:#e28888}.sad10{fill:#efe4a6}.sad11{fill:#8cced8}.sad12{fill:#afbb87}.sad13{fill:#ea6361}</style><path class="sad1" d="M55.1 25l-.7-.7c2.9-3.2 4.4-7.3 4.2-11.6v-.2l2.9-3.7-9 .5L56 5.5c-1-1.2-4.7-4.4-9.3-4.5-3.7-.1-7.1 1.9-10.1 5.9l-.8-.6c3.3-4.3 7-6.4 11-6.3 5.6.1 9.7 4.4 10.3 5.2l.2.3-2.5 2.7 8.8-.5-4 5.2c.2 4.5-1.4 8.8-4.5 12.1z"/><circle class="sad2" cx="184.2" cy="25.5" r="5"/><path class="sad3" d="M199.4 167.8l1.2 32.4"/><circle class="sad1" cx="200.6" cy="200.2" r="12"/><circle class="sad4" cx="200.6" cy="200.2" r="7.5"/><circle class="sad1" cx="200.6" cy="200.2" r="2"/><path class="sad5" d="M206 38.3c-18 0-32.7 14.6-32.7 32.7v5h65.3v-5c.1-18.1-14.5-32.7-32.6-32.7z"/><circle class="sad2" cx="190.3" cy="70.9" r="1.7"/><circle class="sad2" cx="201.7" cy="70.9" r="1.7"/><path class="sad5" d="M200.887 66.948l5 2.524-.947 1.874-5-2.523zM192.092 68.838l-5 2.524-.946-1.875 5-2.524z"/><path class="sad1" d="M237.1 172h-67.4l-12.9-96h93.3z"/><path class="sad5" d="M232.9 145.6c9.9-3.3 17.2-12.5 17.7-23.5.4-9.8-4.8-18.6-12.7-23.2l3.8-6.4c10.2 6 16.9 17.3 16.4 29.9-.5 14.3-10 26.1-22.8 30.3l-2.4-7.1z"/><path class="sad5" d="M223.3 160.7c.1 0 .3.1.5.1 3.4.8 6.7-1.3 7.5-4.6.8-3.4-1.3-6.7-4.6-7.5-3.4-.8-6.7 1.3-7.5 4.6-.1.3-.1.6-.1.9l-7.4-.7c.1-.6.1-1.3.3-1.9 1.8-7.4 9.2-12 16.6-10.2 7.4 1.8 12 9.2 10.2 16.6-1.8 7.4-9.2 12-16.6 10.2-.3-.1-.7-.2-1-.3l2.1-7.2z"/><circle class="sad6" cx="233.1" cy="149.5" r="4.9"/><circle class="sad5" cx="239.7" cy="95.6" r="3.7"/><path class="sad5" d="M172.7 146c-9.3-4.8-15-15-13.7-26 1.2-9.8 7.7-17.6 16.3-20.9l-2.7-7a33.5 33.5 0 0 0-21 27c-1.7 14.2 5.7 27.3 17.7 33.6l3.4-6.7z"/><path class="sad5" d="M179.7 162.5c-.2 0-.3 0-.5.1-3.4.3-6.4-2.3-6.7-5.8-.3-3.4 2.3-6.4 5.8-6.7 3.4-.3 6.4 2.3 6.7 5.8v.9l7.5.5c0-.6.1-1.3 0-1.9-.6-7.6-7.1-13.3-14.7-12.7-7.6.6-13.3 7.1-12.7 14.7.6 7.6 7.1 13.3 14.7 12.7.3 0 .7-.1 1-.1l-1.1-7.5z"/><circle class="sad6" cx="171.9" cy="149.9" r="4.9"/><circle class="sad5" cx="173.9" cy="95.6" r="3.7"/><path class="sad1" d="M239.7 114.7L217.8 76h-61l6.6 49.5z"/><circle class="sad4" cx="199" cy="106.2" r="19.8"/><path class="sad7" d="M199 88.9v29.6M203.6 89.5l-7.9 29.7M207.9 91.3l-15.2 26.4M211.6 94.1l-21.4 21.4M194.4 89.5l7.8 29M190.2 91.3l14.6 25.4M186.5 94.1l20.2 20.2"/><circle class="sad4" cx="199" cy="106.6" r="14.8"/><path class="sad8" d="M191.4 103.7l-7.7-.6 7.6 1.6 7.6 1.6c.6.1 1.1-.3 1.2-.9s-.3-1.1-.9-1.2l-7.8-.5z"/><circle class="sad5" cx="199" cy="106.2" r="4.7"/><path class="sad1" d="M169.9 106.2h62.3v28.9h-62.3z"/><g><path class="sad5" d="M50.7 170c-.3 3.6-1.3 6.9-2.8 10 1.4-.1 2.8-.1 4.3.1s3 .7 4.4 1.3c1.3-3.3 2.2-6.8 2.6-10.5.3-3.2.2-6.4-.3-9.4l-8.7-.3c.6 2.7.8 5.7.5 8.8z"/></g><path class="sad5" d="M51.7 24c-18 .7-32.1 15.8-31.4 33.9l.2 5.1 65.3-2.5-.2-5.1c-.7-18-15.9-32.1-33.9-31.4z"/><path class="sad1" d="M80 159.9l-56.3-2-16-92.7 88.3-2z"/><circle class="sad4" cx="51.9" cy="92.7" r="19.8"/><path class="sad1" d="M76.63 111.32l-47.44 2.46-1.026-19.773 47.44-2.462z"/><path class="sad9" d="M37.1 79.5c-.8.9-1.5 1.9-2.2 2.9 0 .1-.1.1-.1.2-.3.5-.5.9-.8 1.4.1 0 0 .1 0 .2-.2.4-.4.9-.6 1.3-.1.2-.1.3-.2.5-.2.4-.3.9-.4 1.3-.1.2-.1.4-.2.6-.1.4-.2.9-.3 1.3 0 .2-.1.4-.1.6-.1.5-.1 1-.2 1.6v2.4l19.8-1-14.7-13.3z"/><path class="sad10" d="M50.8 72.9c-1.2.1-2.4.2-3.6.5H47c-.5.1-1 .3-1.5.5-.1 0-.2.1-.3.1-.5.2-.9.4-1.4.6-.1.1-.3.1-.4.2l-1.2.6c-.2.1-.3.2-.5.3-.4.2-.8.5-1.1.7-.2.1-.3.2-.5.3-.4.3-.8.6-1.2 1-.1.1-.2.2-.3.2-.5.4-1 .9-1.4 1.4l14.7 13.3-1.1-19.7z"/><path class="sad11" d="M65.1 78c.9.8 1.7 1.7 2.5 2.7l.1.1c.3.4.6.9.9 1.3.1.1.1.2.2.3.3.4.5.8.7 1.3.1.1.2.3.2.4.2.4.4.8.5 1.3.1.2.2.4.2.5.2.4.3.9.4 1.3.1.2.1.4.2.6l.3 1.5c0 .1.1.2.1.4.1.7.2 1.3.2 2l-19.8 1L65.1 78z"/><path class="sad12" d="M50.8 72.9c1.2-.1 2.4 0 3.6.2h.2c.5.1 1 .2 1.6.3.1 0 .2 0 .3.1.5.1.9.3 1.4.4.2.1.3.1.5.1.4.2.8.3 1.3.5.2.1.4.1.5.2l1.2.6c.2.1.4.2.5.3.4.3.9.6 1.3.9.1.1.2.1.3.2.5.4 1 .8 1.5 1.3L51.9 92.7l-1.1-19.8z"/><path class="sad4" d="M50.6 90.5c.8.2 1.3.9 1.1 1.7-.2.8-.9 1.3-1.7 1.1s-10.9-3.8-10.9-3.8 10.8.9 11.5 1z"/><circle class="sad5" cx="51.9" cy="92.7" r="4.7"/><path class="sad1" d="M38.8 190.6c2-5.2 7.4-8.6 13.1-7.7 5.7.9 9.9 5.6 10.3 11.2l4.7.7c0-8.2-6-15.3-14.3-16.5-8.3-1.2-16.1 3.8-18.5 11.6l4.7.7z"/><circle class="sad1" cx="50.1" cy="194.9" r="9.5"/><g><circle class="sad6" cx="36.3" cy="54" r="1.7"/><circle class="sad6" cx="47.6" cy="54" r="1.7"/><path class="sad5" d="M46.862 50.072l5 2.524-.948 1.874-5-2.524zM37.975 51.906l-5 2.524-.946-1.875 4.998-2.524z"/></g><path class="sad5" d="M101.7 99.1c0-3-.5-5.9-1.3-8.7h-.1c-.5-1.5-1-3.1-1.7-4.6-1-2.1-2.1-4-3.4-5.8l-2 12.3c.6 1.9.9 3.7 1 5.6v1.4c0 3.3-.6 6.7-2 9.9-4.3 10.2-14.3 16.2-24.8 15.9l-.3 7.5c13.5.5 26.5-7.3 31.9-20.4 1.2-2.8 1.9-5.7 2.3-8.6.1-.9.2-1.9.2-2.8v-1.5c.2 0 .2-.1.2-.2zM8.4 95.7c.3-2 .9-3.9 1.6-5.7L8.1 78.9C4.5 83.3 2 88.6 1 94.5c-2.3 14.1 4.6 27.6 16.3 34.3l3.7-6.5c-9.1-5.2-14.4-15.7-12.6-26.6z"/><g><path class="sad5" d="M30.9 137c-.1.1-.3.1-.4.2-3.3 1.1-6.8-.8-7.9-4.1-1.1-3.3.8-6.8 4.1-7.9 3.3-1.1 6.8.8 7.9 4.1.1.3.2.6.2.9l7.4-1.3c-.1-.6-.2-1.2-.4-1.9-2.3-7.2-10-11.2-17.3-8.9-7.2 2.3-11.2 10-8.9 17.3 2.3 7.2 10 11.2 17.3 8.9.3-.1.7-.2 1-.4l-3-6.9z"/><circle class="sad6" cx="19.9" cy="126.2" r="4.9"/></g><g><path class="sad5" d="M53.3 136.1c.1.1.2.2.4.3 2.9 1.9 6.8 1.2 8.7-1.7 1.9-2.9 1.2-6.8-1.7-8.7-2.9-1.9-6.8-1.2-8.7 1.7-.2.2-.3.5-.4.8l-6.7-3.3c.3-.6.6-1.1.9-1.7 4.2-6.3 12.8-8 19.1-3.8 6.3 4.2 8 12.8 3.8 19.1-4.2 6.3-12.8 8-19.1 3.8-.3-.2-.6-.4-.8-.6l4.5-5.9z"/><circle class="sad6" cx="66.3" cy="129" r="4.9"/></g><circle class="sad13" cx="35.1" cy="8.6" r="5"/></svg>
