<svg class="large-robot" id="robot-business" xmlns="http://www.w3.org/2000/svg" width="188.3" height="226.2" viewBox="0 0 188.3 226.2" aria-hidden="true"><style>.business0{fill:#e5e5e5}.business1{fill:#969696}.business2{fill:#ea6361}.business3{fill:none;stroke:#c4c4c3;stroke-miterlimit:10}.business4{fill:#c4c4c3}.business5{fill:#FFF}.business6{fill:none}.business7{fill:#59918e}.business8{opacity:.49}.business8,.business9{fill:#62aaac}.business10{fill:none;stroke:#59918e;stroke-width:5;stroke-miterlimit:10}.business11{opacity:.5;fill:#59918e}</style><path class="business0" d="M81.9 191.8c-.4 4.1-1.6 8-3.5 11.4 1.7-.3 3.5-.4 5.4-.1 1.3.2 2.5.5 3.6 1 1.5-3.6 2.6-7.4 3-11.5.3-3.2.2-6.4-.3-9.4l-8.7-.3c.6 2.8.8 5.8.5 8.9zM152.6 106.7c-4.9-9.5-13.7-15.6-23.5-17.4l-1.3 7.3c7.5 1.4 14.3 6.1 18.1 13.5 5.1 9.8 3.2 21.4-3.8 29.2l5.5 5c9.2-10 11.6-24.9 5-37.6z"/><path class="business0" d="M142.7 156.8c.1-.1.3-.1.4-.2 3-1.7 4.2-5.5 2.5-8.5-1.7-3-5.5-4.2-8.5-2.5-3 1.7-4.2 5.5-2.5 8.5.1.3.3.5.5.7l-6 4.4c-.4-.5-.7-1-1-1.6-3.6-6.7-1.2-15 5.5-18.6 6.7-3.6 15-1.2 18.6 5.5 3.6 6.7 1.2 15-5.5 18.6-.3.2-.6.3-.9.4l-3.1-6.7z"/><circle class="business1" cx="144.3" cy="142.6" r="4.9"/><circle class="business2" cx="101.6" cy="5" r="5"/><path class="business4" d="M83.7 49.8c-4-11.7-3.6-22 1.2-30.4l.1-.3h4.7l-6.8-5h5.8c4.2-4.6 8.5-6.6 8.7-6.6l.4.9s-4.4 2-8.5 6.6l-.1.2H86l6.8 5h-7.2c-4.5 8.1-4.8 18-1 29.3l-.9.3z"/><path class="business0" d="M83.6 45.8c-18 0-32.7 14.6-32.7 32.7v5.1h65.3v-5.1c.1-18.1-14.6-32.7-32.6-32.7z"/><circle class="business1" cx="79.7" cy="74" r="1.7"/><circle class="business1" cx="91.1" cy="74" r="1.7"/><path class="business4" d="M56.2 178.3L40.7 88.5l84.8-1.9-15.6 93.6z"/><path class="business4" d="M123.7 88.1l-15 90.5-51.2-1.8-15-86.9 81.2-1.8m3.5-3.1l-88.3 2 16 92.7 56.3 2 16-96.7zM76.4 81.9c-4.3 0-7.8-3.5-7.8-7.9 0-4.3 3.5-7.8 7.8-7.8s7.9 3.5 7.9 7.8c0 4.4-3.5 7.9-7.9 7.9zm0-13.7c-3.2 0-5.8 2.6-5.8 5.8s2.6 5.9 5.8 5.9 5.9-2.6 5.9-5.9-2.6-5.8-5.9-5.8z"/><path class="business4" d="M91.1 80.8c-4.3 0-7.9-3.5-7.9-7.9 0-4.3 3.5-7.8 7.9-7.8 4.3 0 7.8 3.5 7.8 7.8 0 4.4-3.5 7.9-7.8 7.9zm0-13.7c-3.2 0-5.9 2.6-5.9 5.8s2.6 5.9 5.9 5.9 5.8-2.6 5.8-5.9-2.6-5.8-5.8-5.8z"/><path class="business4" d="M98 69.9l-.9-1.8c6.3-3.2 11.9-4.5 17.9-3.9l-.2 2c-5.6-.5-10.8.6-16.8 3.7zM68.8 72c-.2-.2-4.9-5.6-16-4.1l-.3-2c12.3-1.6 17.6 4.6 17.8 4.8L68.8 72l.8-.6-.8.6z"/><path class="business5" d="M107.2 181.6l5.2-7.3.4-2.2-6.8 9.4zM101.7 181.4l12.4-17.3.4-2.3-14 19.5zM96.1 181.2l19.7-27.4.4-2.2-21.3 29.5zM90.6 181l26.9-37.4.4-2.2-28.5 39.5zM119.2 133.4l.4-2.3-35.7 49.6 1.2.1zM79.6 180.6l41.3-57.5.4-2.2-42.9 59.6zM74 180.4l48.6-67.5.4-2.2-50.2 69.7zM68.5 180.2l55.8-77.5.4-2.2-57.4 79.7zM63 180l63-87.6.4-2.2L61.8 180zM125.7 85.1h-1.3l-68.2 94.7h1.2zM54.3 176.2l65.6-91h-1.2l-64.6 89.7zM53.2 169.9l60.9-84.6h-1.2L53 168.5zM52.2 163.5l56.2-78.1-1.3.1-55.2 76.7zM51.1 157.2l51.5-71.6h-1.2l-50.6 70.2zM50 150.8l46.9-65.1h-1.3l-45.9 63.8zM48.9 144.5l42.2-58.7-1.3.1-41.2 57.2zM47.8 138.1L85.3 86h-1.2l-36.6 50.8zM46.7 131.8l32.9-45.7h-1.3l-31.9 44.3zM45.6 125.4l28.2-39.2-1.2.1-27.3 37.8zM44.5 119.1L68 86.4h-1.2l-22.6 31.3zM43.4 112.8l18.9-26.3H61l-17.9 24.9zM42.3 106.4l14.2-19.8h-1.2L42 105zM41.2 100.1l9.6-13.4-1.3.1-8.6 11.9zM40.1 93.7l4.9-6.8h-1.3l-3.9 5.4z"/><path class="business6" d="M111.2 181.7l-56.2-2L38.9 87l88.3-2z"/><path class="business4" d="M124.9 87.1l-15.4 92.6-52.9-1.9L41.3 89l83.6-1.9m2.3-2.1l-88.3 2 16 92.7 56.3 2 16-96.7z"/><path class="business7" d="M82.1 161.7l11.2-10.5-12.1-65.7-10.6 65.9 11.5 10.3z"/><path class="business8" d="M82.1 161.7l11.2-10.5-12.1-65.7"/><path class="business9" d="M87.8 101.1l-13-.4-3.5-16 21.1.7z"/><path class="business10" d="M150.2 171l-26.9-1.4-1.5-20.4 33 1.5z"/><path class="business9" d="M171.2 204.9l-69.1-1.4-2.5-45.8 74.9 1.4z"/><path class="business11" d="M171.2 204.9l-69.1-1.4-2.5-45.8 74.9 1.4z"/><path class="business9" d="M102.1 203.5l-2.5-45.8 74.9 1.4"/><path class="business0" d="M128 157.6c.3.6.7 1.1 1 1.6l6-4.4c-.2-.2-.3-.5-.5-.7-1.6-2.9-.6-6.4 2.1-8.2l-2.5-7.2c-.2.1-.4.2-.7.3-6.5 3.6-9 11.9-5.4 18.6z"/><g><path class="business0" d="M39.8 106.2c-3.3-1.3-6.3-3.3-8.9-5.9-7.8-7.9-9.4-19.5-5-29l-6.8-3.2c-5.7 12.2-3.6 27.2 6.4 37.4 4.5 4.6 9.9 7.5 15.7 9l-1.4-8.3z"/><path class="business0" d="M25.6 53.6c-.2 0-.3.1-.5.1-3.3 1-5.1 4.5-4.1 7.8s4.5 5.1 7.8 4.1 5.1-4.5 4.1-7.8c-.1-.3-.2-.6-.3-.8l6.8-3.2c.3.6.5 1.2.7 1.8 2.3 7.2-1.8 15-9 17.2-7.2 2.3-15-1.8-17.2-9-2.3-7.2 1.8-15 9-17.2.3-.1.7-.2 1-.3l1.7 7.3z"/><circle class="business1" cx="22.8" cy="68.7" r="4.9"/></g><path class="business4" d="M70 212.4c2-5.2 7.4-8.6 13.1-7.7 5.7.9 9.9 5.6 10.3 11.2l4.7.7c0-8.2-6-15.3-14.3-16.5-8.3-1.2-16.1 3.8-18.5 11.6l4.7.7z"/><circle class="business4" cx="81.3" cy="216.7" r="9.5"/></svg>
