<svg id="Layer_1" xmlns="http://www.w3.org/2000/svg" width="188.3" height="226.2" viewBox="0 0 188.3 226.2"><style>.classic0{fill:#e5e5e5}.classic1{fill:#c4c4c3}.classic2{fill:#FFF}.classic3{fill:#4b9da1}.classic4{fill:none;stroke:#c4c4c3;stroke-miterlimit:10}.classic5{fill:#969696}.classic6{fill:#f06a66}.classic7{fill:#bc4926}.classic8{fill:#d3b22a}</style><path class="classic0" d="M55.7 100.6c-5.5 2.2-10.5 5.9-14.3 11-8.5 11.5-8.6 26.6-1.2 37.9l6.3-4.1c-5.7-8.8-5.6-20.5 1-29.4 2.6-3.5 6-6.2 9.7-7.9l-1.5-7.5zM98.4 182.9c.6 2.9.8 5.9.5 8.9-.4 4.6-1.9 8.8-4.1 12.5 1.9-.4 4-.5 6-.2 1.1.2 2.2.4 3.2.8 1.8-3.8 2.9-7.9 3.3-12.3.3-3.2.2-6.4-.3-9.4l-8.6-.3z"/><path class="classic1" d="M128.2 181.7l-56.3-2-16-92.7 88.3-2z"/><path class="classic2" d="M122.7 85.5v.3c0 8.6-10.1 15.5-22.7 15.5-12.2 0-22.1-6.6-22.6-14.8l-21.5.5 16 92.7 56.3 2 16-96.7-21.5.5z"/><circle class="classic3" cx="118.6" cy="5" r="5"/><path class="classic4" d="M101.1 49.6c-4.6-13.7-2.6-23.4 1.2-30h5.9l-6.8-5h4.5c4.2-4.7 8.6-6.7 8.6-6.7"/><path class="classic0" d="M100.6 45.8c-18 0-32.7 14.6-32.7 32.7v5.1h65.3v-5.1c0-18.1-14.6-32.7-32.6-32.7z"/><circle class="classic5" cx="93" cy="73.5" r="1.9"/><circle class="classic5" cx="108.3" cy="73.5" r="1.9"/><path class="classic6" d="M127.1 84.6s-8 31.7-26.5 41.2-37.2 17.3-37.2 17.3l4.5 28.4s34.9-7.1 46.7-18.2S131.3 85 131.3 85l-4.2-.4z"/><path class="classic7" d="M139.2 83.5h-6l-4 .8s-10.1 36.7-28.6 46.3c-18.5 9.5-37.2 17.3-37.2 17.3l.8 5.1c-1.1.4-1.8.6-1.8.6l3 26.1s39.3-7.6 57.4-25.1c24.6-23.8 16.4-71.1 16.4-71.1z"/><path class="classic0" d="M145.4 93.1l-2.2 12.5c1.4 5.1 1.3 10.6-.6 15.9-.8 2.2-1.9 4.1-3.1 5.9-4.8 6.8-12.7 10.9-21 10.9v7.5c6.8 0 13.3-2.1 18.8-5.9.2-.1.4-.3.6-.5.1-.1.3-.2.4-.3 3.3-2.4 6.1-5.5 8.3-9.1 1.2-1.9 2.2-3.9 3-6 4-10.7 2.1-22.2-4.2-30.9z"/><path class="classic6" d="M137.6 124.5c1.9.5 3.7 1.4 4.6 3 2.5 4.2-1.5 34.8-1.5 34.4.1-.4 12.2-1 12.2-1s1.3-39.3-6.5-39.6c-2.7-.1-5.4.2-7.7.6-.2.7-.6 1.9-1.1 2.6z"/><path class="classic7" d="M144.2 122.8c-6.9-.3-9.9 4.7-10.6 6-2.5 1.8-3.6 4.2-3.6 4.2s4-4.2 6.5 0-1.5 34.8-1.5 34.4 12.2-1 12.2-1 0-1.4.1-3.7c1.9-.1 3.3-.2 3.3-.2s1.5-39.4-6.4-39.7zm-9.7 5.4c.6-.4 1.3-.8 2.2-1-.8.3-1.6.7-2.2 1z"/><path class="classic0" d="M104.8 149.7c.1.1.3.2.4.3 2.9 1.8 6.8.9 8.6-2.1s.9-6.8-2.1-8.6c-2.9-1.8-6.8-.9-8.6 2.1-.2.3-.3.5-.4.8l-6.9-3c.3-.6.5-1.1.9-1.7 4-6.5 12.4-8.5 18.9-4.5 6.5 4 8.5 12.4 4.5 18.9-4 6.5-12.4 8.5-18.9 4.5l-.9-.6 4.5-6.1z"/><circle class="classic5" cx="117.5" cy="142.1" r="4.9"/><path class="classic8" d="M67.8 70.9c-1.7-.4-2.7-2.2-2.3-3.9.4-1.7 2.2-2.7 3.9-2.3 1.7.4 5.2 4.6 5.2 4.6s-5.1 2-6.8 1.6zM72.3 64.6c-1.7-.4-2.7-2.2-2.3-3.9.4-1.7 2.2-2.7 3.9-2.3 1.7.4 5.2 4.6 5.2 4.6s-5.1 2-6.8 1.6zM77.3 71.6c-1.7-.4-2.7-2.2-2.3-3.9.4-1.7 2.2-2.7 3.9-2.3 1.7.4 5.2 4.6 5.2 4.6s-5.1 2-6.8 1.6z"/><g><path class="classic8" d="M133.7 70.9c1.7-.4 2.7-2.2 2.3-3.9-.4-1.7-2.2-2.7-3.9-2.3-1.7.4-5.2 4.6-5.2 4.6s5.1 2 6.8 1.6zM129.1 64.6c1.7-.4 2.7-2.2 2.3-3.9s-2.2-2.7-3.9-2.3c-1.7.4-5.2 4.6-5.2 4.6s5.1 2 6.8 1.6zM124.1 71.6c1.7-.4 2.7-2.2 2.3-3.9-.4-1.7-2.2-2.7-3.9-2.3-1.7.4-5.2 4.6-5.2 4.6s5.1 2 6.8 1.6z"/></g><g><path class="classic1" d="M87 212.4c2-5.2 7.4-8.6 13.1-7.7 5.7.9 9.9 5.6 10.3 11.2l4.7.7c0-8.2-6-15.3-14.3-16.5-8.3-1.2-16.1 3.8-18.5 11.6l4.7.7z"/><circle class="classic1" cx="98.3" cy="216.7" r="9.5"/></g><g><path class="classic0" d="M48.5 163.1c-.2 0-.3 0-.5-.1-3.4-.6-5.7-3.8-5.1-7.2.6-3.4 3.8-5.7 7.2-5.1 3.4.6 5.7 3.8 5.1 7.2 0 .3-.1.6-.2.9l7.1 2.2c.2-.6.4-1.2.5-1.9 1.3-7.5-3.8-14.6-11.3-15.8-7.5-1.3-14.6 3.8-15.8 11.3-1.3 7.5 3.8 14.6 11.3 15.8.3.1.7.1 1 .1l.7-7.4z"/><circle class="classic5" cx="43.7" cy="148.5" r="4.9"/></g></svg>