<svg class="large-robot" id="robot-blog-modern" xmlns="http://www.w3.org/2000/svg" width="137.7" height="201.7" viewBox="0 0 137.7 201.7"><style>.robot-modern0{fill:#c4c4c3}.robot-modern1{fill:#e5e5e5}.robot-modern2{fill:none}.robot-modern3{fill:#3cbfb8}.robot-modern4{opacity:.1;fill:#127067}.robot-modern5{opacity:.1}.robot-modern6{fill:#127067}.robot-modern7{opacity:.2;fill:#127067}.robot-modern8{opacity:.2}.robot-modern9{fill:#969696}.robot-modern10{fill:#c4ae7e}.robot-modern11{fill:#bc4926}.robot-modern12{fill:#60371a}.robot-modern13{fill:#383838}</style><path class="robot-modern0" d="M98.3 153.7H42.1L26 61h88.4z"/><path class="robot-modern1" d="M19.8 120.2c-8.3-6.3-12.3-17.4-9-28 2.8-9.4 10.6-16 19.6-17.8l-1.5-7.3C17.2 69.4 7.3 77.9 3.6 90c-4.1 13.7.9 27.9 11.7 36.1l4.5-5.9zM117.5 121.6c8.3-6.3 12.3-17.4 9-28-2.8-9.4-10.6-16-19.6-17.8l1.5-7.3c11.6 2.4 21.6 10.8 25.3 23 4.1 13.7-.9 27.9-11.7 36.1l-4.5-6zM68.4 156c1.1 3.6 1.5 7.4 1.2 11.4-.4 4.4-1.8 8.5-3.9 12.1 1.8-.3 3.6-.4 5.4-.1 1.3.2 2.5.5 3.6 1 1.7-3.8 2.9-7.9 3.3-12.2.4-4.2.1-8.3-.8-12.1h-8.8z"/><path class="robot-modern0" d="M57.6 187.9c2-5.2 7.4-8.6 13.1-7.7 5.7.9 9.9 5.6 10.3 11.2l4.7.7c0-8.2-6-15.3-14.3-16.5-8.3-1.2-16.1 3.8-18.5 11.6l4.7.7z"/><circle class="robot-modern0" cx="69" cy="192.2" r="9.5"/><path class="robot-modern2" d="M98.3 153.7H42.1L26 61h88.4z"/><path class="robot-modern3" d="M134.2 115.2c6.4-15.5 1.2-33.8-13.2-43.5-2.3-1.5-4.7-2.8-7.2-3.7l.5-6.9H26l.3 4.5c-3.5 1-6.9 2.6-10.1 4.7C1.9 79.9-3.3 98.2 3.1 113.7L0 115.8l5.6 8.3 13.9-9.4-5.6-8.3-1.4 1c-3.1-10.3.6-21.8 10-28.1 1.5-1 3.1-1.8 4.7-2.5l4.6 63.5s15.4 8 39.5 8 37.4-8 37.4-8l4.4-60.7c.6.3 1.3.7 1.9 1.1 9.4 6.3 13.1 17.8 10 28.1l-1.4-1-5.6 8.3 13.9 9.4 5.6-8.3-3.3-2z"/><path class="robot-modern2" d="M134.6 115.2c6.4-15.5 1.2-33.8-13.2-43.5-2.3-1.5-4.7-2.8-7.2-3.7l.5-6.9H26.4l.3 4.5c-3.5 1-6.9 2.6-10.1 4.7C2.2 79.9-2.9 98.2 3.5 113.7l-3.1 2.1 5.6 8.3 13.9-9.4-5.6-8.3-1.4 1c-3.1-10.3.6-21.8 10-28.1 1.5-1 3.1-1.8 4.7-2.5l4.6 63.5s15.4 8 39.5 8 37.4-8 37.4-8l4.4-60.7c.6.3 1.3.7 1.9 1.1 9.4 6.3 13.1 17.8 10 28.1l-1.4-1-5.6 8.3 13.9 9.4 5.6-8.3-3.3-2z"/><path class="robot-modern2" d="M134.2 115.2c6.4-15.5 1.2-33.8-13.2-43.5-2.3-1.5-4.7-2.8-7.2-3.7l.5-6.9H26l.3 4.5c-3.5 1-6.9 2.6-10.1 4.7C1.9 79.9-3.3 98.2 3.1 113.7L0 115.8l5.6 8.3 13.9-9.4-5.6-8.3-1.4 1c-3.1-10.3.6-21.8 10-28.1 1.5-1 3.1-1.8 4.7-2.5l4.6 63.5s15.4 8 39.5 8 37.4-8 37.4-8l4.4-60.7c.6.3 1.3.7 1.9 1.1 9.4 6.3 13.1 17.8 10 28.1l-1.4-1-5.6 8.3 13.9 9.4 5.6-8.3-3.3-2z"/><path class="robot-modern2" d="M134.2 115.2c6.4-15.5 1.2-33.8-13.2-43.5-2.3-1.5-4.7-2.8-7.2-3.7l.5-6.9H26l.3 4.5c-3.5 1-6.9 2.6-10.1 4.7C1.9 79.9-3.3 98.2 3.1 113.7L0 115.8l5.6 8.3 13.9-9.4-5.6-8.3-1.4 1c-3.1-10.3.6-21.8 10-28.1 1.5-1 3.1-1.8 4.7-2.5l4.6 63.5s15.4 8 39.5 8 37.4-8 37.4-8l4.4-60.7c.6.3 1.3.7 1.9 1.1 9.4 6.3 13.1 17.8 10 28.1l-1.4-1-5.6 8.3 13.9 9.4 5.6-8.3-3.3-2z"/><path class="robot-modern4" d="M71.2 148.3c11 0 19.7-1.7 25.9-3.5H44.4c6.7 1.9 15.9 3.5 26.8 3.5zM31.2 133.2l.5 7.1s1.3.7 3.7 1.6h70c2.1-.9 3.2-1.6 3.2-1.6l.5-7.1H31.2z"/><g class="robot-modern5"><path class="robot-modern6" d="M5.6 124.1l3.8-2.6H3.8zM110 121.5H30.4l.6 8.8h78.4zM125.8 121.5l5.9 4 2.7-4z"/></g><g class="robot-modern5"><path class="robot-modern6" d="M122.1 109.8l-4.3 6.3 3.6 2.4h15l.9-1.3-3.1-2.1c.7-1.7 1.3-3.5 1.7-5.3h-13.8zM110.8 109.8H29.5l.7 8.8h80zM19.5 114.7l-3.3-4.9H1.7c.4 1.3.8 2.6 1.3 3.9l-3 2.1 1.9 2.8h11.9l5.7-3.9z"/></g><g class="robot-modern5"><path class="robot-modern6" d="M11.5 98.1H.5c-.2 2.9 0 5.8.6 8.7h11.3c-.9-2.8-1.1-5.7-.9-8.7zM125.3 106.9h11.2c.4-2.9.5-5.8.2-8.7h-11.1c.5 2.8.4 5.8-.3 8.7zM13.9 106.4l-.7.5h1zM111.7 98.1h-83l.6 8.8H111z"/></g><g class="robot-modern5"><path class="robot-modern6" d="M120.9 86.5c2 2.6 3.4 5.6 4.2 8.7h11.2c-.5-3-1.4-6-2.7-8.7h-12.7zM112.5 86.5H27.9l.6 8.7h83.4zM3.1 86.5C2 89.3 1.2 92.2.8 95.2h11.1c.6-3.1 1.8-6.1 3.5-8.7H3.1z"/></g><path class="robot-modern4" d="M4.4 83.5h13.2c1.4-1.6 3-3 4.8-4.2 1.5-1 3.1-1.8 4.7-2.5l.5 6.7h85.1l.3-3.9c.6.3 1.3.7 1.9 1.1 1.2.8 2.4 1.8 3.4 2.8h13.8c-1.8-3.2-4.2-6.2-7.1-8.7H10.7c-2.5 2.6-4.7 5.6-6.3 8.7zM26.2 63.1l.2 2.4c-3.5 1-6.9 2.6-10.1 4.7-.8.5-1.5 1.1-2.3 1.7h107.3c-.1-.1-.2-.1-.3-.2-2.3-1.5-4.7-2.8-7.2-3.7l.3-4.8H26.2z"/><path class="robot-modern7" d="M.8 116.9l4.8 7.1 3.9-2.6V76.1C4.7 81.5 1.7 88.1.8 95v10.2c.4 2.9 1.2 5.8 2.3 8.6l-2.3 1.6v1.5zM114.5 68.2c-.2-.1-.4-.2-.7-.3l.5-6.9h-8.6v80.8c1.9-.8 2.9-1.4 2.9-1.4l4.4-60.7 1.5.9V68.2zM82.4 147.7c3.2-.4 6.1-.8 8.7-1.4V61h-8.7v86.7zM70.8 148.3h.5c2.9 0 5.7-.1 8.3-.3V61h-8.7v87.3zM59.1 147.6c2.7.3 5.7.5 8.7.6V61h-8.7v86.6zM47.4 145.6c2.6.6 5.6 1.2 8.7 1.6V61h-8.7v84.6zM35.8 142.1c2.1.8 5.1 1.9 8.7 2.8V61h-8.7v81.1zM32.8 61H26l.3 4.5c-.8.2-1.5.5-2.2.7v12.1c1-.6 2-1.1 3.1-1.5l4.6 63.5s.4.2 1.1.5V61z"/><g class="robot-modern8"><path class="robot-modern6" d="M13.9 106.4l-1.4 1v-.2 12.3l7-4.7-5.6-8.4zM21.2 67.4c-1.7.8-3.3 1.7-4.9 2.8-1.4.9-2.7 1.9-3.9 3V93c1.5-4.9 4.4-9.4 8.7-12.8V67.4z"/></g><path class="robot-modern7" d="M94.1 145.7c3.5-.9 6.5-1.8 8.7-2.7V61h-8.7v84.7zM123.4 107.9l-5.6 8.3 8.3 5.6v-46c-1.6-1.5-3.3-2.9-5.2-4.2-1.2-.8-2.4-1.5-3.6-2.1v13.2c7.5 6.6 10.2 16.8 7.4 26.1l-1.3-.9zM129.1 79.1v44.7l2.6 1.8 5.6-8.3-3.1-2.1c5-12.1 2.9-26-5.1-36.1z"/><path class="robot-modern1" d="M27.8 136.1c-.2 0-.3.1-.5.1-3.4.6-6.7-1.6-7.3-5-.6-3.4 1.6-6.7 5-7.3 3.4-.6 6.7 1.6 7.3 5 .1.3.1.6.1.9l7.5-.3c0-.6-.1-1.3-.2-1.9-1.4-7.5-8.5-12.4-16-11.1-7.5 1.4-12.4 8.5-11.1 16 1.4 7.5 8.5 12.4 16 11.1.3-.1.7-.1 1-.2l-1.8-7.3z"/><circle class="robot-modern9" cx="18.2" cy="124" r="4.9"/><g><path class="robot-modern1" d="M109.6 137.5c.2 0 .3.1.5.1 3.4.6 6.7-1.6 7.3-5 .6-3.4-1.6-6.7-5-7.3-3.4-.6-6.7 1.6-7.3 5-.1.3-.1.6-.1.9l-7.5-.3c0-.6.1-1.3.2-1.9 1.4-7.5 8.5-12.4 16-11.1 7.5 1.4 12.4 8.5 11.1 16-1.4 7.5-8.5 12.4-16 11.1-.3-.1-.7-.1-1-.2l1.8-7.3z"/><circle class="robot-modern9" cx="119.1" cy="125.4" r="4.9"/></g><g><path class="robot-modern10" d="M88.3 22.2s1.4-21-8.1-21-1.8 1.2-6.5 0-12.3-2-13.5 0C59 3.2 53.7 16 55 20.5s33.3 1.7 33.3 1.7z"/><path class="robot-modern11" d="M74 10.7c5.8.4 10.4 1.4 14.1 2.7.5 4.6.3 8.8.3 8.8S56.2 25 55 20.5c-.6-2 .2-5.7 1.3-9.3 4.3-.8 10.1-1 17.7-.5z"/><path class="robot-modern10" d="M101.2 33.2s-1.1-13.5-27.5-15.5-30.2 6.2-32 9.5 1 13.5 10.8 15 26.1-1.2 31.9-3 18.1-2.4 16.8-6z"/><path class="robot-modern1" d="M71.2 21.3c-18 0-32.7 14.6-32.7 32.7v5.1h65.3V54c.1-18-14.5-32.7-32.6-32.7z"/><g><path class="robot-modern12" d="M74.9 64.4h-7.1c-3.3 0-6.1-2.7-6.1-6.1 0-3.3 2.7-6.1 6.1-6.1h7.1c3.3 0 6.1 2.7 6.1 6.1-.1 3.3-2.8 6.1-6.1 6.1z"/><path class="robot-modern12" d="M102.1 54.9L82 56.5v-.1l-10.4.9-10.4-.9v.1l-20.1-1.7s-.1 7.3-.1 16.8 27.2 21 30.6 21c3.4 0 30.6-11.5 30.6-21s-.1-16.7-.1-16.7z"/><path class="robot-modern1" d="M71.2 61.7c-1.5 0-3 .3-4.4.7 2-1.8 3.5-4.1 4.4-6.7.9 2.6 2.4 4.9 4.4 6.7-1.4-.4-2.8-.7-4.4-.7z"/></g><g><path class="robot-modern13" d="M63.6 51.2c1.1-2.6 3.7-4.4 6.6-4.3 2.6.1 4.9 1.6 5.9 3.8l1.8-.9c-1.4-2.8-4.3-4.8-7.7-5-3.8-.1-7.1 2.2-8.5 5.5l1.9.9z"/><path class="robot-modern13" d="M66.9 53.8H53.3c-1.1 0-2-.9-2-2v-8.1c0-1.1.9-2 2-2H67c1.1 0 2 .9 2 2v8.1c-.1 1.1-1 2-2.1 2z"/><path class="robot-modern13" d="M54.5 44.7h-4.1c-.5 0-1-.5-1-1v-1c0-.6.5-1 1-1h4.1c.5 0 1 .4 1 1v1c0 .5-.4 1-1 1z"/><path class="robot-modern1" d="M65.9 52.5H55c-.5 0-1-.5-1-1v-5.8c0-.6.5-1 1-1h10.9c.6 0 1 .4 1 1v5.8c0 .5-.4 1-1 1z"/><path class="robot-modern13" d="M73.7 53.8h13.7c1.1 0 2-.9 2-2v-8.1c0-1.1-.9-2-2-2H73.7c-1.1 0-2 .9-2 2v8.1c0 1.1.9 2 2 2z"/><path class="robot-modern13" d="M86.1 44.7h4.1c.6 0 1-.5 1-1v-1c0-.6-.4-1-1-1h-4.1c-.6 0-1 .4-1 1v1c0 .5.4 1 1 1z"/><path class="robot-modern1" d="M74.7 52.5h10.9c.5 0 1-.5 1-1v-5.8c0-.6-.5-1-1-1H74.7c-.6 0-1 .4-1 1v5.8c0 .5.4 1 1 1z"/><circle class="robot-modern9" cx="75.7" cy="50.2" r="1.7"/><circle class="robot-modern9" cx="64.4" cy="50.2" r="1.7"/></g><path class="robot-modern11" d="M66 59.7c-3.2 0-6.7 9.7-8.8 9.7-1.3 0-1.7-.8-1.8-1.4v-4.3h-7.3v4.2c0 4.4 1.8 6.9 8.4 5.9C60.7 73.2 63 61 65.9 61h3.2v-1.4c.1.1.1.1-3.1.1z"/></g></svg>