<?xml version="1.0" encoding="utf-8"?>
<!-- Generator: Adobe Illustrator 19.0.1, SVG Export Plug-In . SVG Version: 6.00 Build 0)  -->
<svg version="1.1" id="Layer_1" xmlns="http://www.w3.org/2000/svg" xmlns:xlink="http://www.w3.org/1999/xlink" x="0px" y="0px"
	 width="137.7px" height="201.7px" viewBox="0 0 137.7 201.7" style="enable-background:new 0 0 137.7 201.7;" xml:space="preserve"
	>
<style type="text/css">
	.modern0{fill:#C4AE7E;}
	.modern1{fill:#EFCA6C;}
	.modern2{fill:#C54E27;}
	.modern3{fill:#E5E5E5;}
	.modern4{fill:#969696;}
	.modern5{fill:#C4C4C3;}
	.modern6{fill:#FFFFFF;}
	.modern7{fill:#3CBFB8;}
	.modern8{fill:none;}
	.modern9{clip-path:url(#SVGID_2_);}
	.modern10{fill:#C1E6E7;}
	.modern11{fill:none;stroke:#EFCA6C;stroke-miterlimit:10;}
	.modern12{fill:none;stroke:#EFCA6C;stroke-miterlimit:10;stroke-dasharray:2.0042,2.0042;}
	.modern13{fill:none;stroke:#EFCA6C;stroke-miterlimit:10;stroke-dasharray:2.0089,2.0089;}
	.modern14{fill:none;stroke:#EFCA6C;stroke-miterlimit:10;stroke-dasharray:1.9733,1.9733;}
	.modern15{fill:none;stroke:#EFCA6C;stroke-miterlimit:10;stroke-dasharray:2.018,2.018;}
	.modern16{fill:none;stroke:#EFCA6C;stroke-miterlimit:10;stroke-dasharray:2.0162,2.0162;}
	.modern17{fill:none;stroke:#EFCA6C;stroke-miterlimit:10;stroke-dasharray:1.9874,1.9874;}
	.modern18{fill:none;stroke:#EFCA6C;stroke-miterlimit:10;stroke-dasharray:1.9941,1.9941;}
	.modern19{fill:none;stroke:#EFCA6C;stroke-miterlimit:10;stroke-dasharray:2.0589,2.0589;}
	.modern20{fill:none;stroke:#EFCA6C;stroke-miterlimit:10;stroke-dasharray:2.02,2.02;}
	.modern21{fill:none;stroke:#EFCA6C;stroke-miterlimit:10;stroke-dasharray:1.9824,1.9824;}
	.modern22{fill:none;stroke:#EFCA6C;stroke-miterlimit:10;stroke-dasharray:2.0245,2.0245;}
	.modern23{fill:none;stroke:#EFCA6C;stroke-miterlimit:10;stroke-dasharray:1.9722,1.9722;}
	.modern24{fill:none;stroke:#EFCA6C;stroke-miterlimit:10;stroke-dasharray:2;}
	.modern25{fill:none;stroke:#EFCA6C;stroke-miterlimit:10;stroke-dasharray:1.9788,1.9788;}
	.modern26{fill:#60371A;}
	.modern27{fill:#383838;}
	.modern28{clip-path:url(#SVGID_4_);}
	.modern29{clip-path:url(#SVGID_6_);}
	.modern30{fill:#383A3A;}
	.modern31{fill:#74CDD8;}
	.modern32{fill:#B5442C;}
	.modern33{fill:#96382D;}
	.modern34{fill:#5B5C5C;}
	.modern35{fill:#333333;}
	.modern36{fill:#DDD8D9;}
	.modern37{fill:#353535;}
	.modern38{fill:#3A162D;}
	.modern39{clip-path:url(#SVGID_8_);}
	.modern40{clip-path:url(#SVGID_10_);}
	.modern41{fill:#001833;}
	.modern42{fill:#4B9DA1;}
	.modern43{fill:#418788;}
	.modern44{fill:#95BEC0;}
	.modern45{fill:#BC4926;}
	.modern46{fill:#C8E2E1;}
	.modern47{opacity:0.6;fill:#95BEC0;}
	.modern48{opacity:0.6;}
</style>
<path class="modern0" d="M-137.6,515.4c0,0,1.3-19.7-8.1-21c-3.9-0.5-3.9,2.7-8.6,1.5c-4.7-1.2-10.2-3.5-11.4-1.5s-6.4,14.8-5.2,19.2
	S-137.6,515.4-137.6,515.4z"/>
<path class="modern1" d="M-151.9,503.9c5.8,0.4,10.4,1.4,14.1,2.7c0.5,4.6,0.3,8.8,0.3,8.8s-32.1,2.8-33.4-1.8c-0.6-2,0.2-5.7,1.3-9.3
	C-165.3,503.6-159.6,503.4-151.9,503.9z"/>
<path class="modern0" d="M-112.2,532.1c0,0-1.5-19.1-39.1-22c-37.6-2.8-42.9,8.9-45.4,13.5c-2.5,4.6,7.4,12,21.2,14.2
	c13.8,2.1,31.1,5.3,39.3,2.9S-110.3,537.2-112.2,532.1z"/>
<path class="modern0" d="M-137.6,256.7c0,0,1.4-21-8.1-21c-9.5,0-1.8,1.2-6.5,0c-4.7-1.2-12.3-2-13.5,0s-6.4,14.8-5.2,19.2
	S-137.6,256.7-137.6,256.7z"/>
<path class="modern2" d="M-152,245.2c5.8,0.4,10.4,1.4,14.1,2.7c0.5,4.6,0.3,8.8,0.3,8.8s-32.1,2.8-33.4-1.8c-0.6-2,0.2-5.7,1.3-9.3
	C-165.4,244.9-159.6,244.7-152,245.2z"/>
<path class="modern0" d="M-124.7,267.7c0,0-1.1-13.5-27.5-15.5s-30.2,6.2-32,9.5s1,13.5,10.8,15s26.1-1.2,31.9-3
	C-135.7,272-123.4,271.3-124.7,267.7z"/>
<g>
	<path class="modern3" d="M-212.2,346.5c-3.4-9.9-0.4-21.3,8.1-28.3c7.6-6.2,17.7-7.3,26.2-3.8l2.9-6.9c-10.9-4.5-24-3.1-33.8,4.9
		c-11.1,9-14.8,23.7-10.5,36.4L-212.2,346.5z"/>
	<g>
		<path class="modern3" d="M-214.5,364.1c-0.1-0.1-0.3-0.1-0.4-0.2c-3.2-1.4-4.6-5.1-3.2-8.3c1.4-3.2,5.1-4.6,8.2-3.2
			c3.2,1.4,4.6,5.1,3.2,8.3c-0.1,0.3-0.3,0.5-0.4,0.8l6.4,3.9c0.3-0.5,0.6-1.1,0.9-1.7c3.1-7-0.1-15.1-7.1-18.1
			c-7-3.1-15.1,0.1-18.1,7.1c-3.1,7,0.1,15.1,7.1,18.1c0.3,0.1,0.6,0.3,1,0.4L-214.5,364.1z"/>
		<circle class="modern4" cx="-215.6" cy="348.8" r="4.9"/>
	</g>
</g>
<path class="modern3" d="M-162.1,418.3l0.1,0.2l9.1,0.9c2.3-4.3,3.8-9.1,4.3-14.3c1.2-12.4-3.8-23.9-12.4-31.6l-5.4,6.5
	c6.5,6,10.2,14.8,9.4,24.3C-157.5,409.5-159.3,414.3-162.1,418.3z"/>
<circle class="modern5" cx="-157.6" cy="429.2" r="16.8"/>
<circle class="modern6" cx="-157.6" cy="429.2" r="12.1"/>
<rect x="-187.3" y="426.7" transform="matrix(0.9891 0.1474 -0.1474 0.9891 62.7242 28.0239)" class="modern6" width="59.2" height="21"/>
<path class="modern3" d="M-132.6,354.9c10.4-1.4,19.2-9.1,21.6-20c2.1-9.6-1.4-19.1-8.3-25.1l4.9-5.7c9,7.7,13.5,20,10.7,32.4
	c-3.1,13.9-14.5,23.9-27.9,25.7L-132.6,354.9z"/>
<circle class="modern5" cx="-157.6" cy="429.2" r="9.5"/>
<path class="modern3" d="M-155.4,258.3c-18,0-32.7,14.6-32.7,32.7v5.1h65.3V291C-122.7,272.9-137.3,258.3-155.4,258.3z"/>
<polygon class="modern6" points="-126.7,392.9 -186.1,392.9 -203.6,295.8 -109.2,295.8 "/>
<polygon class="modern5" points="-128.3,390.7 -184.5,390.7 -200.6,298 -112.2,298 "/>
<polygon class="modern7" points="-125.9,377.3 -112.2,298 -134,298 -156.4,325.4 -179.7,298 -200.6,298 -186.8,377.3 "/>
<polygon class="modern8" points="-125.9,377.3 -112.2,298 -134,298 -156.4,325.4 -179.7,298 -200.6,298 -186.8,377.3 "/>
<polygon class="modern8" points="-125.9,377.3 -112.2,298 -134,298 -156.4,325.4 -179.7,298 -200.6,298 -186.8,377.3 "/>
<g>
	<defs>
		<polygon id="SVGID_1_" points="-125.9,377.3 -112.2,298 -134,298 -156.4,325.4 -179.7,298 -200.6,298 -186.8,377.3 		"/>
	</defs>
	<clipPath id="SVGID_2_">
		<use xlink:href="#SVGID_1_"  style="overflow:visible;"/>
	</clipPath>
	<g class="modern9">
		<g>
			<g>
				<g>
					<polygon class="modern2" points="-165.7,358.1 -174.5,341.7 -165.7,325.4 -156.9,341.8 					"/>
					<polygon class="modern10" points="-148.1,358.1 -156.9,341.7 -148.1,325.4 -139.3,341.8 					"/>
					<polygon class="modern2" points="-130.5,358.1 -139.3,341.7 -130.5,325.4 -121.7,341.8 					"/>
					<polygon class="modern10" points="-112.9,358.1 -121.7,341.7 -113,325.4 -104.1,341.8 					"/>
				</g>
				<g>
					<polygon class="modern2" points="-200.9,358.1 -209.7,341.7 -200.9,325.4 -192.1,341.8 					"/>
					<polygon class="modern10" points="-183.3,358.1 -192.1,341.7 -183.3,325.4 -174.5,341.8 					"/>
				</g>
			</g>
			<g>
				<g>
					<polygon class="modern2" points="-165.7,390.1 -174.5,373.8 -165.7,357.5 -156.9,373.8 					"/>
					<polygon class="modern10" points="-148.1,390.1 -156.9,373.8 -148.1,357.5 -139.3,373.8 					"/>
					<polygon class="modern2" points="-130.5,390.1 -139.3,373.8 -130.5,357.5 -121.7,373.8 					"/>
				</g>
				<g>
					<polygon class="modern10" points="-183.3,390.1 -192.1,373.8 -183.3,357.5 -174.5,373.8 					"/>
				</g>
			</g>
			<g>
				<g>
					<polygon class="modern2" points="-165.7,326 -174.5,309.7 -165.7,293.4 -156.9,309.7 					"/>
					<polygon class="modern10" points="-148.1,326 -156.9,309.7 -148.1,293.4 -139.3,309.7 					"/>
					<polygon class="modern2" points="-130.5,326 -139.3,309.7 -130.5,293.4 -121.7,309.7 					"/>
					<polygon class="modern10" points="-112.9,326 -121.7,309.7 -113,293.4 -104.1,309.7 					"/>
				</g>
				<g>
					<polygon class="modern2" points="-200.9,326 -209.7,309.7 -200.9,293.4 -192.1,309.7 					"/>
					<polygon class="modern10" points="-183.3,326 -192.1,309.7 -183.3,293.4 -174.5,309.7 					"/>
				</g>
			</g>
		</g>
		<g>
			<g>
				<line class="modern11" x1="-219.7" y1="306.9" x2="-219.2" y2="307.8"/>
				<line class="modern12" x1="-218.2" y1="309.5" x2="-164.9" y2="407.1"/>
				<line class="modern11" x1="-164.4" y1="408" x2="-164" y2="408.9"/>
			</g>
		</g>
		<g>
			<g>
				<line class="modern11" x1="-212.1" y1="288.7" x2="-211.6" y2="289.6"/>
				<line class="modern13" x1="-210.6" y1="291.3" x2="-149.5" y2="403.3"/>
				<line class="modern11" x1="-149.1" y1="404.2" x2="-148.6" y2="405.1"/>
			</g>
		</g>
		<g>
			<g>
				<line class="modern11" x1="-196.8" y1="284" x2="-196.4" y2="284.9"/>
				<line class="modern14" x1="-195.4" y1="286.6" x2="-131.5" y2="403.5"/>
				<line class="modern11" x1="-131" y1="404.3" x2="-130.5" y2="405.2"/>
			</g>
		</g>
		<g>
			<g>
				<line class="modern11" x1="-178.2" y1="286.5" x2="-177.7" y2="287.3"/>
				<line class="modern15" x1="-176.8" y1="289.1" x2="-117.2" y2="398"/>
				<line class="modern11" x1="-116.7" y1="398.9" x2="-116.2" y2="399.8"/>
			</g>
		</g>
		<g>
			<g>
				<line class="modern11" x1="-175.5" y1="259.1" x2="-175" y2="260"/>
				<line class="modern16" x1="-174" y1="261.8" x2="-105.1" y2="388.4"/>
				<line class="modern11" x1="-104.6" y1="389.3" x2="-104.1" y2="390.1"/>
			</g>
		</g>
		<g>
			<g>
				<line class="modern11" x1="-158.3" y1="258.8" x2="-157.8" y2="259.6"/>
				<line class="modern17" x1="-156.8" y1="261.4" x2="-94.3" y2="375.6"/>
				<line class="modern11" x1="-93.8" y1="376.4" x2="-93.3" y2="377.3"/>
			</g>
		</g>
		<g>
			<g>
				<line class="modern11" x1="-139.8" y1="260.3" x2="-139.3" y2="261.1"/>
				<line class="modern18" x1="-138.4" y1="262.9" x2="-83.3" y2="363.5"/>
				<line class="modern11" x1="-82.8" y1="364.3" x2="-82.4" y2="365.2"/>
			</g>
		</g>
		<g>
			<g>
				<line class="modern11" x1="-188.2" y1="286.5" x2="-188.7" y2="287.3"/>
				<line class="modern19" x1="-189.7" y1="289.1" x2="-217" y2="338.8"/>
				<line class="modern11" x1="-217.5" y1="339.7" x2="-217.9" y2="340.5"/>
			</g>
		</g>
		<g>
			<g>
				<line class="modern11" x1="-152.3" y1="254.1" x2="-152.8" y2="255"/>
				<line class="modern20" x1="-153.8" y1="256.8" x2="-211.9" y2="362"/>
				<line class="modern11" x1="-212.4" y1="362.9" x2="-212.8" y2="363.7"/>
			</g>
		</g>
		<g>
			<g>
				<line class="modern11" x1="-142" y1="267.1" x2="-142.5" y2="267.9"/>
				<line class="modern21" x1="-143.5" y1="269.7" x2="-198.6" y2="369.5"/>
				<line class="modern11" x1="-199" y1="370.3" x2="-199.5" y2="371.2"/>
			</g>
		</g>
		<g>
			<g>
				<line class="modern11" x1="-125.5" y1="268.5" x2="-126" y2="269.4"/>
				<line class="modern22" x1="-126.9" y1="271.2" x2="-191.1" y2="387.2"/>
				<line class="modern11" x1="-191.6" y1="388.1" x2="-192.1" y2="389"/>
			</g>
		</g>
		<g>
			<g>
				<line class="modern11" x1="-114.6" y1="281.2" x2="-115.1" y2="282.1"/>
				<line class="modern23" x1="-116" y1="283.8" x2="-178.7" y2="396.8"/>
				<line class="modern11" x1="-179.2" y1="397.6" x2="-179.6" y2="398.5"/>
			</g>
		</g>
		<line class="modern24" x1="-104.1" y1="293.4" x2="-165.7" y2="405"/>
		<g>
			<g>
				<line class="modern11" x1="-92.5" y1="305" x2="-93" y2="305.9"/>
				<line class="modern25" x1="-93.9" y1="307.6" x2="-145.1" y2="400.2"/>
				<line class="modern11" x1="-145.6" y1="401.1" x2="-146.1" y2="402"/>
			</g>
		</g>
	</g>
</g>
<g>
	<path class="modern26" d="M-158.1,298.6c-7.9,4.7-15.5-7-15.5-7s5.9,3,9.7-0.1c2-1.6,4.9-1.3,6.4,0.7
		C-155.9,294.1-155.9,297.3-158.1,298.6z"/>
	<path class="modern26" d="M-154.6,298.6c7.9,4.7,15.5-7,15.5-7s-5.9,3-9.7-0.1c-2-1.6-4.9-1.3-6.4,0.7
		C-156.9,294.1-156.8,297.3-154.6,298.6z"/>
</g>
<path class="modern26" d="M-153.2,300.5c-0.3,1.4-1.6,2.5-3.2,2.5c-1.5,0-2.8-1.1-3.2-2.5c-0.7,0.8-1.2,1.8-1.2,3c0,2.4,4.4,6,4.4,6
	s4.4-3.6,4.4-6C-152,302.3-152.5,301.2-153.2,300.5z"/>
<g>
	<path class="modern27" d="M-163,287.5c1.1-2.6,3.7-4.4,6.6-4.3c2.6,0.1,4.9,1.6,5.9,3.8l1.8-0.9c-1.4-2.8-4.3-4.8-7.7-5
		c-3.8-0.1-7.1,2.2-8.5,5.5L-163,287.5z"/>
	<g>
		<path class="modern27" d="M-159.7,290.1h-13.7c-1.1,0-2-0.9-2-2v-8.1c0-1.1,0.9-2,2-2h13.7c1.1,0,2,0.9,2,2v8.1
			C-157.7,289.2-158.6,290.1-159.7,290.1z"/>
		<path class="modern27" d="M-172.1,280.9h-4.1c-0.5,0-1-0.5-1-1v-1c0-0.6,0.5-1,1-1h4.1c0.5,0,1,0.4,1,1v1
			C-171.1,280.5-171.5,280.9-172.1,280.9z"/>
		<path class="modern3" d="M-160.7,288.7h-10.9c-0.6,0-1-0.5-1-1v-5.8c0-0.5,0.4-1,1-1h10.9c0.5,0,1,0.5,1,1v5.8
			C-159.7,288.2-160.1,288.7-160.7,288.7z"/>
	</g>
	<g>
		<path class="modern27" d="M-152.9,290.1h13.7c1.1,0,2-0.9,2-2v-8.1c0-1.1-0.9-2-2-2h-13.7c-1.1,0-2,0.9-2,2v8.1
			C-154.9,289.2-154,290.1-152.9,290.1z"/>
		<path class="modern27" d="M-140.5,280.9h4.1c0.5,0,1-0.5,1-1v-1c0-0.6-0.5-1-1-1h-4.1c-0.6,0-1,0.4-1,1v1
			C-141.5,280.5-141.1,280.9-140.5,280.9z"/>
		<path class="modern3" d="M-151.9,288.7h10.9c0.6,0,1-0.5,1-1v-5.8c0-0.5-0.4-1-1-1h-10.9c-0.6,0-1,0.5-1,1v5.8
			C-152.9,288.2-152.5,288.7-151.9,288.7z"/>
	</g>
	<circle class="modern4" cx="-150.9" cy="286.5" r="1.7"/>
	<circle class="modern4" cx="-162.2" cy="286.5" r="1.7"/>
</g>
<path class="modern3" d="M-110.9,335c-2.4,10.8-11.3,18.5-21.6,20l1,7.4c13.3-1.9,24.8-11.8,27.9-25.7c0.8-3.8,1-7.6,0.5-11.3l-7.2,4.1
	C-110.3,331.2-110.5,333.1-110.9,335z"/>
<g>
	<path class="modern3" d="M-144.6,368.1c0.1,0.1,0.3,0.1,0.4,0.2c3.2,1.4,6.9,0,8.3-3.2c1.4-3.2,0-6.9-3.2-8.3c-3.2-1.4-6.9,0-8.3,3.2
		c-0.1,0.3-0.2,0.5-0.3,0.8l-7.2-2c0.2-0.6,0.4-1.2,0.6-1.8c3.1-7,11.2-10.1,18.1-7.1c7,3.1,10.1,11.2,7.1,18.1
		c-3.1,7-11.2,10.1-18.1,7.1c-0.3-0.1-0.6-0.3-0.9-0.5L-144.6,368.1z"/>
	<circle class="modern4" cx="-133" cy="358.8" r="4.9"/>
</g>
<path class="modern3" d="M-205.6,181.3l0.1,0.2l9.1,0.9c2.3-4.3,3.8-9.1,4.3-14.3c1.2-12.4-3.8-23.9-12.4-31.6l-5.4,6.5
	c6.5,6,10.2,14.8,9.4,24.3C-200.9,172.5-202.8,177.3-205.6,181.3z"/>
<circle class="modern5" cx="-201" cy="192.2" r="16.8"/>
<circle class="modern6" cx="-201" cy="192.2" r="12.1"/>
<rect x="-230.8" y="189.7" transform="matrix(0.9891 0.1474 -0.1474 0.9891 27.3174 31.8359)" class="modern6" width="59.2" height="21"/>
<circle class="modern5" cx="-201" cy="192.2" r="9.5"/>
<polygon class="modern6" points="-170.1,155.9 -229.5,155.9 -247,58.8 -152.6,58.8 "/>
<polygon class="modern5" points="-171.7,153.7 -227.9,153.7 -244,61 -155.6,61 "/>
<path class="modern7" d="M-161.4,140.3l5.7-79.3h-31.8h-25.7H-244l5.7,79.3c0,0,15.4,8,39.5,8S-161.4,140.3-161.4,140.3z"/>
<polygon class="modern8" points="-171.7,153.7 -227.9,153.7 -244,61 -155.6,61 "/>
<path class="modern3" d="M-250.2,120.2c-8.3-6.3-12.3-17.4-9-28c2.8-9.4,10.6-16,19.6-17.8l-1.5-7.3c-11.6,2.4-21.6,10.8-25.3,23
	c-4.1,13.7,0.9,27.9,11.7,36.1L-250.2,120.2z"/>
<path class="modern7" d="M-263.8,119.7l8.6-7c-6.7-11.3-3.4-26,7.6-33.4c3.7-2.5,7.8-3.8,11.9-4.2l-0.9-11c-5.9,0.5-11.9,2.5-17.2,6
	C-270.1,81.2-274.5,103.2-263.8,119.7z"/>
<rect x="-268.6" y="110.3" transform="matrix(0.8293 -0.5589 0.5589 0.8293 -108.8475 -125.7739)" class="modern7" width="16.8" height="10"/>
<path class="modern3" d="M-152.5,121.6c8.3-6.3,12.3-17.4,9-28c-2.8-9.4-10.6-16-19.6-17.8l1.5-7.3c11.6,2.4,21.6,10.8,25.3,23
	c4.1,13.7-0.9,27.9-11.7,36.1L-152.5,121.6z"/>
<path class="modern7" d="M-138.9,121.2l-8.6-7c6.7-11.3,3.4-26-7.6-33.4c-3.7-2.5-7.8-3.8-11.9-4.2l0.9-11c5.9,0.5,11.9,2.5,17.2,6
	C-132.6,82.6-128.2,104.7-138.9,121.2z"/>
<rect x="-150.8" y="111.7" transform="matrix(-0.8293 -0.5589 0.5589 -0.8293 -325.7543 133.8813)" class="modern7" width="16.8" height="10"/>
<g>
	<defs>
		<path id="SVGID_3_" d="M-135.4,115.2c6.4-15.5,1.2-33.8-13.2-43.5c-2.3-1.5-4.7-2.8-7.2-3.7l0.5-6.9h-31.8h-25.7h-30.8l0.3,4.5
			c-3.5,1-6.9,2.6-10.1,4.7c-14.4,9.7-19.6,28.1-13.2,43.5l-3.1,2.1l5.6,8.3l13.9-9.4l-5.6-8.3l-1.4,1c-3.1-10.3,0.6-21.8,10-28.1
			c1.5-1,3.1-1.8,4.7-2.5l4.6,63.5c0,0,15.4,8,39.5,8s37.4-8,37.4-8l4.4-60.7c0.6,0.3,1.3,0.7,1.9,1.1c9.4,6.3,13.1,17.8,10,28.1
			l-1.4-1l-5.6,8.3l13.9,9.4l5.6-8.3L-135.4,115.2z"/>
	</defs>
	<use xlink:href="#SVGID_3_"  style="overflow:visible;fill:#3CBFB8;"/>
	<clipPath id="SVGID_4_">
		<use xlink:href="#SVGID_3_"  style="overflow:visible;"/>
	</clipPath>
	<g class="modern28">
		<rect x="-306" y="192.6" class="modern7" width="251" height="8.7"/>
		<rect x="-306" y="180.9" class="modern7" width="251" height="8.7"/>
		<rect x="-306" y="169.2" class="modern7" width="251" height="8.7"/>
		<rect x="-306" y="157.6" class="modern7" width="251" height="8.7"/>
		<rect x="-306" y="145.9" class="modern7" width="251" height="8.7"/>
		<rect x="-306" y="134.2" class="modern7" width="251" height="8.7"/>
		<rect x="-306" y="122.5" class="modern7" width="251" height="8.7"/>
		<rect x="-306" y="110.8" class="modern7" width="251" height="8.7"/>
		<rect x="-306" y="99.1" class="modern7" width="251" height="8.7"/>
		<rect x="-306" y="87.5" class="modern7" width="251" height="8.7"/>
		<rect x="-306" y="75.8" class="modern7" width="251" height="8.7"/>
		<rect x="-306" y="64.1" class="modern7" width="251" height="8.7"/>
		<rect x="-306" y="52.4" class="modern7" width="251" height="8.7"/>
		<rect x="-306" y="40.7" class="modern7" width="251" height="8.7"/>
		<rect x="-306" y="29.1" class="modern7" width="251" height="8.7"/>
		<rect x="-304.1" y="-10.3" class="modern7" width="8.7" height="251"/>
		<rect x="-304.1" y="-10.3" class="modern7" width="8.7" height="251"/>
		<rect x="-292.4" y="-10.3" class="modern7" width="8.7" height="251"/>
		<rect x="-280.7" y="-10.3" class="modern7" width="8.7" height="251"/>
		<rect x="-269.1" y="-10.3" class="modern7" width="8.7" height="251"/>
		<rect x="-257.4" y="-10.3" class="modern7" width="8.7" height="251"/>
		<rect x="-245.7" y="-10.3" class="modern7" width="8.7" height="251"/>
		<rect x="-234.1" y="-10.3" class="modern7" width="8.7" height="251"/>
		<rect x="-222.4" y="-10.3" class="modern7" width="8.7" height="251"/>
		<rect x="-210.7" y="-10.3" class="modern7" width="8.7" height="251"/>
		<rect x="-199.1" y="-10.3" class="modern7" width="8.7" height="251"/>
		<rect x="-187.4" y="-10.3" class="modern7" width="8.7" height="251"/>
		<rect x="-175.7" y="-10.3" class="modern7" width="8.7" height="251"/>
		<rect x="-164.1" y="-10.3" class="modern7" width="8.7" height="251"/>
		<rect x="-152.4" y="-10.3" class="modern7" width="8.7" height="251"/>
		<rect x="-140.7" y="-10.3" class="modern7" width="8.7" height="251"/>
		<rect x="-129.1" y="-10.3" class="modern7" width="8.7" height="251"/>
		<rect x="-117.4" y="-10.3" class="modern7" width="8.7" height="251"/>
		<rect x="-105.7" y="-10.3" class="modern7" width="8.7" height="251"/>
		<rect x="-94.1" y="-10.3" class="modern7" width="8.7" height="251"/>
		<rect x="-82.4" y="-10.3" class="modern7" width="8.7" height="251"/>
		<rect x="-70.7" y="-10.3" class="modern7" width="8.7" height="251"/>
	</g>
</g>
<path class="modern3" d="M-160.4,137.5c0.2,0,0.3,0.1,0.5,0.1c3.4,0.6,6.7-1.6,7.3-5c0.6-3.4-1.6-6.7-5-7.3c-3.4-0.6-6.7,1.6-7.3,5
	c-0.1,0.3-0.1,0.6-0.1,0.9l-7.5-0.3c0-0.6,0.1-1.3,0.2-1.9c1.4-7.5,8.5-12.4,16-11.1c7.5,1.4,12.4,8.5,11.1,16
	c-1.4,7.5-8.5,12.4-16,11.1c-0.3-0.1-0.7-0.1-1-0.2L-160.4,137.5z"/>
<circle class="modern4" cx="-150.9" cy="125.4" r="4.9"/>
<g>
	<circle class="modern4" cx="-194.3" cy="49.5" r="1.7"/>
	<circle class="modern4" cx="-205.6" cy="49.5" r="1.7"/>
</g>
<g>
	<path class="modern3" d="M-242.2,136.1c-0.2,0-0.3,0.1-0.5,0.1c-3.4,0.6-6.7-1.6-7.3-5c-0.6-3.4,1.6-6.7,5-7.3c3.4-0.6,6.7,1.6,7.3,5
		c0.1,0.3,0.1,0.6,0.1,0.9l7.5-0.3c0-0.6-0.1-1.3-0.2-1.9c-1.4-7.5-8.5-12.4-16-11.1c-7.5,1.4-12.4,8.5-11.1,16
		c1.4,7.5,8.5,12.4,16,11.1c0.3-0.1,0.7-0.1,1-0.2L-242.2,136.1z"/>
	<circle class="modern4" cx="-251.8" cy="124" r="4.9"/>
</g>
<g>
	<g>
		<path class="modern0" d="M-181.7,22.2c0,0,1.4-21-8.1-21c-9.5,0-1.8,1.2-6.5,0s-12.3-2-13.5,0s-6.4,14.8-5.2,19.2
			S-181.7,22.2-181.7,22.2z"/>
		<path class="modern2" d="M-196,10.7c5.8,0.4,10.4,1.4,14.1,2.7c0.5,4.6,0.3,8.8,0.3,8.8s-32.1,2.8-33.4-1.8c-0.6-2,0.2-5.7,1.3-9.3
			C-209.4,10.4-203.6,10.2-196,10.7z"/>
		<path class="modern0" d="M-168.8,33.2c0,0-1.1-13.5-27.5-15.5s-30.2,6.2-32,9.5s1,13.5,10.8,15s26.1-1.2,31.9-3
			S-167.5,36.8-168.8,33.2z"/>
	</g>
	<path class="modern3" d="M-198.8,21.3c-18,0-32.7,14.6-32.7,32.7v5.1h65.3V54C-166.1,36-180.7,21.3-198.8,21.3z"/>
	<g>
		<path class="modern26" d="M-195.1,64.4h-7.1c-3.3,0-6.1-2.7-6.1-6.1v0c0-3.3,2.7-6.1,6.1-6.1h7.1c3.3,0,6.1,2.7,6.1,6.1v0
			C-189.1,61.6-191.8,64.4-195.1,64.4z"/>
		<path class="modern26" d="M-167.9,54.9l-20.1,1.7l0-0.1l-10.4,0.9l-10.4-0.9l0,0.1l-20.1-1.7c0,0-0.1,7.3-0.1,16.8s27.2,21,30.6,21
			c3.4,0,30.6-11.5,30.6-21S-167.9,54.9-167.9,54.9z"/>
		<path class="modern3" d="M-198.8,61.7c-1.5,0-3,0.3-4.4,0.7c2-1.8,3.5-4.1,4.4-6.7c0.9,2.6,2.4,4.9,4.4,6.7
			C-195.8,62-197.2,61.7-198.8,61.7z"/>
	</g>
	<g>
		<path class="modern27" d="M-206.4,51.2c1.1-2.6,3.7-4.4,6.6-4.3c2.6,0.1,4.9,1.6,5.9,3.8l1.8-0.9c-1.4-2.8-4.3-4.8-7.7-5
			c-3.8-0.1-7.1,2.2-8.5,5.5L-206.4,51.2z"/>
		<g>
			<path class="modern27" d="M-203.1,53.8h-13.7c-1.1,0-2-0.9-2-2v-8.1c0-1.1,0.9-2,2-2h13.7c1.1,0,2,0.9,2,2v8.1
				C-201.1,52.9-202,53.8-203.1,53.8z"/>
			<path class="modern27" d="M-215.5,44.7h-4.1c-0.5,0-1-0.5-1-1v-1c0-0.6,0.5-1,1-1h4.1c0.5,0,1,0.4,1,1v1
				C-214.5,44.2-214.9,44.7-215.5,44.7z"/>
			<path class="modern3" d="M-204.1,52.5H-215c-0.6,0-1-0.5-1-1v-5.8c0-0.6,0.4-1,1-1h10.9c0.5,0,1,0.4,1,1v5.8
				C-203.1,52-203.5,52.5-204.1,52.5z"/>
		</g>
		<g>
			<path class="modern27" d="M-196.3,53.8h13.7c1.1,0,2-0.9,2-2v-8.1c0-1.1-0.9-2-2-2h-13.7c-1.1,0-2,0.9-2,2v8.1
				C-198.3,52.9-197.4,53.8-196.3,53.8z"/>
			<path class="modern27" d="M-183.9,44.7h4.1c0.5,0,1-0.5,1-1v-1c0-0.6-0.5-1-1-1h-4.1c-0.6,0-1,0.4-1,1v1
				C-184.9,44.2-184.5,44.7-183.9,44.7z"/>
			<path class="modern3" d="M-195.3,52.5h10.9c0.6,0,1-0.5,1-1v-5.8c0-0.6-0.4-1-1-1h-10.9c-0.6,0-1,0.4-1,1v5.8
				C-196.3,52-195.9,52.5-195.3,52.5z"/>
		</g>
		<circle class="modern4" cx="-194.3" cy="50.2" r="1.7"/>
		<circle class="modern4" cx="-205.6" cy="50.2" r="1.7"/>
	</g>
</g>
<path class="modern2" d="M-204,59.7c-3.2,0-6.7,9.7-8.8,9.7c-1.3,0-1.7-0.8-1.8-1.4c0,0,0,0,0-0.1v-4.2h-7.3v4.2c0,4.4,1.8,6.9,8.4,5.9
	c4.2-0.6,6.5-12.8,9.4-12.8c1.9,0,3.2,0,3.2,0v-1.4C-200.8,59.7-200.8,59.7-204,59.7z"/>
<path class="modern2" d="M-274.7,45.8"/>
<path class="modern2" d="M-154.3,615.8"/>
<path class="modern3" d="M-162,674.8l0.1,0.2l9.1,0.9c2.3-4.3,3.8-9.1,4.3-14.3c1.2-12.4-3.8-23.9-12.4-31.6l-5.4,6.5
	c6.5,6,10.2,14.8,9.4,24.3C-157.3,666-159.1,670.8-162,674.8z"/>
<circle class="modern5" cx="-157.4" cy="685.7" r="16.8"/>
<circle class="modern6" cx="-157.4" cy="685.7" r="12.1"/>
<rect x="-187.1" y="683.2" transform="matrix(0.9891 0.1474 -0.1474 0.9891 100.5318 30.7971)" class="modern6" width="59.2" height="21"/>
<circle class="modern5" cx="-157.4" cy="685.7" r="9.5"/>
<polygon class="modern6" points="-126.5,649.3 -185.9,649.3 -203.4,552.2 -109,552.2 "/>
<polygon class="modern5" points="-128.1,647.1 -184.3,647.1 -200.4,554.4 -112,554.4 "/>
<path class="modern7" d="M-117.8,633.8l5.7-79.3h-31.8h-25.7h-30.8l5.7,79.3c0,0,15.4,8,39.5,8S-117.8,633.8-117.8,633.8z"/>
<polygon class="modern8" points="-128.1,647.1 -184.3,647.1 -200.4,554.4 -112,554.4 "/>
<path class="modern3" d="M-206.6,613.6c-8.3-6.3-12.3-17.4-9-28c2.8-9.4,10.6-16,19.6-17.8l-1.5-7.3c-11.6,2.4-21.6,10.8-25.3,23
	c-4.1,13.7,0.9,27.9,11.7,36.1L-206.6,613.6z"/>
<path class="modern7" d="M-220.2,613.1l8.6-7c-6.7-11.3-3.4-26,7.6-33.4c3.7-2.5,7.8-3.8,11.9-4.2l-0.9-11c-5.9,0.5-11.9,2.5-17.2,6
	C-226.4,574.6-230.9,596.7-220.2,613.1z"/>
<rect x="-225" y="603.7" transform="matrix(0.8293 -0.5589 0.5589 0.8293 -377.1653 -17.1488)" class="modern7" width="16.8" height="10"/>
<path class="modern3" d="M-108.9,615.1c8.3-6.3,12.3-17.4,9-28c-2.8-9.4-10.6-16-19.6-17.8l1.5-7.3c11.6,2.4,21.6,10.8,25.3,23
	c4.1,13.7-0.9,27.9-11.7,36.1L-108.9,615.1z"/>
<path class="modern7" d="M-95.3,614.6l-8.6-7c6.7-11.3,3.4-26-7.6-33.4c-3.7-2.5-7.8-3.8-11.9-4.2l0.9-11c5.9,0.5,11.9,2.5,17.2,6
	C-89,576.1-84.6,598.1-95.3,614.6z"/>
<rect x="-107.2" y="605.1" transform="matrix(-0.8293 -0.5589 0.5589 -0.8293 -521.7346 1060.8845)" class="modern7" width="16.8" height="10"/>
<g>
	<defs>
		<path id="SVGID_5_" d="M-91.8,608.6c6.4-15.5,1.2-33.8-13.2-43.5c-2.3-1.5-4.7-2.8-7.2-3.7l0.5-6.9h-31.8h-25.7H-200l0.3,4.5
			c-3.5,1-6.9,2.6-10.1,4.7c-14.4,9.7-19.6,28.1-13.2,43.5l-3.1,2.1l5.6,8.3l13.9-9.4l-5.6-8.3l-1.4,1c-3.1-10.3,0.6-21.8,10-28.1
			c1.5-1,3.1-1.8,4.7-2.5l4.6,63.5c0,0,15.4,8,39.5,8s37.4-8,37.4-8l4.4-60.7c0.6,0.3,1.3,0.7,1.9,1.1c9.4,6.3,13.1,17.8,10,28.1
			l-1.4-1l-5.6,8.3l13.9,9.4l5.6-8.3L-91.8,608.6z"/>
	</defs>
	<use xlink:href="#SVGID_5_"  style="overflow:visible;fill:#3CBFB8;"/>
	<clipPath id="SVGID_6_">
		<use xlink:href="#SVGID_5_"  style="overflow:visible;"/>
	</clipPath>
	<g class="modern29">
		<rect x="-262.3" y="686" class="modern7" width="251" height="8.7"/>
		<rect x="-262.3" y="674.4" class="modern7" width="251" height="8.7"/>
		<rect x="-262.3" y="662.7" class="modern7" width="251" height="8.7"/>
		<rect x="-262.3" y="651" class="modern7" width="251" height="8.7"/>
		<rect x="-262.3" y="639.3" class="modern7" width="251" height="8.7"/>
		<rect x="-262.3" y="627.6" class="modern7" width="251" height="8.7"/>
		<rect x="-262.3" y="615.9" class="modern7" width="251" height="8.7"/>
		<rect x="-262.3" y="604.3" class="modern7" width="251" height="8.7"/>
		<rect x="-262.3" y="592.6" class="modern7" width="251" height="8.7"/>
		<rect x="-262.3" y="580.9" class="modern7" width="251" height="8.7"/>
		<rect x="-262.3" y="569.2" class="modern7" width="251" height="8.7"/>
		<rect x="-262.3" y="557.5" class="modern7" width="251" height="8.7"/>
		<rect x="-262.3" y="545.9" class="modern7" width="251" height="8.7"/>
		<rect x="-262.3" y="534.2" class="modern7" width="251" height="8.7"/>
		<rect x="-262.3" y="522.5" class="modern7" width="251" height="8.7"/>
		<rect x="-260.5" y="483.1" class="modern7" width="8.7" height="251"/>
		<rect x="-260.5" y="483.1" class="modern7" width="8.7" height="251"/>
		<rect x="-248.8" y="483.1" class="modern7" width="8.7" height="251"/>
		<rect x="-237.1" y="483.1" class="modern7" width="8.7" height="251"/>
		<rect x="-225.5" y="483.1" class="modern7" width="8.7" height="251"/>
		<rect x="-213.8" y="483.1" class="modern7" width="8.7" height="251"/>
		<rect x="-202.1" y="483.1" class="modern7" width="8.7" height="251"/>
		<rect x="-190.5" y="483.1" class="modern7" width="8.7" height="251"/>
		<rect x="-178.8" y="483.1" class="modern7" width="8.7" height="251"/>
		<rect x="-167.1" y="483.1" class="modern7" width="8.7" height="251"/>
		<rect x="-155.5" y="483.1" class="modern7" width="8.7" height="251"/>
		<rect x="-143.8" y="483.1" class="modern7" width="8.7" height="251"/>
		<rect x="-132.1" y="483.1" class="modern7" width="8.7" height="251"/>
		<rect x="-120.5" y="483.1" class="modern7" width="8.7" height="251"/>
		<rect x="-108.8" y="483.1" class="modern7" width="8.7" height="251"/>
		<rect x="-97.1" y="483.1" class="modern7" width="8.7" height="251"/>
		<rect x="-85.5" y="483.1" class="modern7" width="8.7" height="251"/>
		<rect x="-73.8" y="483.1" class="modern7" width="8.7" height="251"/>
		<rect x="-62.1" y="483.1" class="modern7" width="8.7" height="251"/>
		<rect x="-50.5" y="483.1" class="modern7" width="8.7" height="251"/>
		<rect x="-38.8" y="483.1" class="modern7" width="8.7" height="251"/>
		<rect x="-27.1" y="483.1" class="modern7" width="8.7" height="251"/>
	</g>
</g>
<path class="modern3" d="M-116.8,631c0.2,0,0.3,0.1,0.5,0.1c3.4,0.6,6.7-1.6,7.3-5c0.6-3.4-1.6-6.7-5-7.3c-3.4-0.6-6.7,1.6-7.3,5
	c-0.1,0.3-0.1,0.6-0.1,0.9l-7.5-0.3c0-0.6,0.1-1.3,0.2-1.9c1.4-7.5,8.5-12.4,16-11.1c7.5,1.4,12.4,8.5,11.1,16
	c-1.4,7.5-8.5,12.4-16,11.1c-0.3-0.1-0.7-0.1-1-0.2L-116.8,631z"/>
<circle class="modern4" cx="-107.3" cy="618.9" r="4.9"/>
<g>
	<circle class="modern4" cx="-150.7" cy="542.9" r="1.7"/>
	<circle class="modern4" cx="-162" cy="542.9" r="1.7"/>
</g>
<path class="modern3" d="M-155.2,514.8c-18,0-32.7,14.6-32.7,32.7v5.1h65.3v-5.1C-122.5,529.4-137.1,514.8-155.2,514.8z"/>
<path class="modern2" d="M-231.1,539.2"/>
<g>
	<path class="modern3" d="M-198.6,629.5c-0.2,0-0.3,0.1-0.5,0.1c-3.4,0.6-6.7-1.6-7.3-5c-0.6-3.4,1.6-6.7,5-7.3c3.4-0.6,6.7,1.6,7.3,5
		c0.1,0.3,0.1,0.6,0.1,0.9l7.5-0.3c0-0.6-0.1-1.3-0.2-1.9c-1.4-7.5-8.5-12.4-16-11.1c-7.5,1.4-12.4,8.5-11.1,16
		c1.4,7.5,8.5,12.4,16,11.1c0.3-0.1,0.7-0.1,1-0.2L-198.6,629.5z"/>
	<circle class="modern4" cx="-208.2" cy="617.4" r="4.9"/>
</g>
<g>
	<path class="modern30" d="M-157.6,541.6c0.5-1.2,1.7-2,3.1-1.9c1.2,0.1,2.2,0.8,2.7,1.8l0.8-0.4c-0.6-1.3-1.9-2.3-3.5-2.4
		c-1.8-0.1-3.3,0.9-4,2.4L-157.6,541.6z"/>
	<g>
		<path class="modern30" d="M-176.8,532.3c0,0,1.4,12.5,9.7,13.8c8.3,1.3,10.3-3.9,10.7-5.3c0.4-1.4,0.6-3.5-1.8-4.5
			C-160.5,535.3-176.4,531.6-176.8,532.3z"/>
		<path class="modern3" d="M-172.7,535.5c-1.1,1-1.1,3.7,0.9,6.4c2,2.7,3.2,3.6,6.9,3.7c3.7,0.1,6.3-2.3,7-3.8c0.7-1.5,1.6-3.9-2.4-5.1
			C-168.9,534-172.2,535-172.7,535.5z"/>
	</g>
	<g>
		<path class="modern30" d="M-132.5,532.3c0,0-1.4,12.5-9.7,13.8c-8.3,1.3-10.3-3.9-10.7-5.3c-0.4-1.4-0.6-3.5,1.8-4.5
			C-148.8,535.3-132.9,531.6-132.5,532.3z"/>
		<path class="modern3" d="M-136.6,535.5c1.1,1,1.1,3.7-0.9,6.4c-2,2.7-3.2,3.6-6.9,3.7c-3.7,0.1-6.3-2.3-7-3.8
			c-0.7-1.5-1.6-3.9,2.4-5.1C-140.4,534-137.1,535-136.6,535.5z"/>
	</g>
	<circle class="modern4" cx="-162.1" cy="541.1" r="1.9"/>
	<circle class="modern4" cx="-147.8" cy="541.1" r="1.9"/>
</g>
<rect x="-173.7" y="565.2" class="modern31" width="38.3" height="78"/>
<g>
	<g>
		<rect x="-191.4" y="554.6" class="modern32" width="24.9" height="67.3"/>
		<g>
			<rect x="-191.4" y="618.8" class="modern32" width="2.7" height="12"/>
			<rect x="-169.2" y="618.8" class="modern32" width="2.7" height="12"/>
			<rect x="-187" y="618.8" class="modern32" width="2.7" height="12"/>
			<rect x="-182.5" y="618.8" class="modern32" width="2.7" height="12"/>
			<rect x="-178.1" y="618.8" class="modern32" width="2.7" height="12"/>
			<rect x="-173.7" y="618.8" class="modern32" width="2.7" height="12"/>
		</g>
	</g>
	<g>
		<rect x="-182" y="560.7" class="modern2" width="24.9" height="67.3"/>
		<g>
			<rect x="-182" y="625.5" class="modern2" width="2.7" height="12"/>
			<rect x="-159.7" y="625.5" class="modern2" width="2.7" height="12"/>
			<rect x="-177.5" y="625.5" class="modern2" width="2.7" height="12"/>
			<rect x="-173.1" y="625.5" class="modern2" width="2.7" height="12"/>
			<rect x="-168.6" y="625.5" class="modern2" width="2.7" height="12"/>
			<rect x="-164.2" y="625.5" class="modern2" width="2.7" height="12"/>
		</g>
	</g>
	<path class="modern33" d="M-188.9,542.4c0,0,22.9,11.4,38.7,9.6s28.4-8.4,28.4-8.4l2,8.6c0,0-11,15.6-32.7,14.3s-40.2-15.5-40.2-15.5
		L-188.9,542.4z"/>
	<path class="modern32" d="M-191.9,545.5c0,0,24.8,9.4,41.8,7.6s30.7-9.4,30.7-9.4l2.2,11.6c0,0-11.9,15.6-35.4,14.3
		s-43.5-15.5-43.5-15.5L-191.9,545.5z"/>
	<path class="modern2" d="M-194,546.3c0,0,25.8,10.9,43.4,9.2S-119,546-119,546l2.3,11.6c0,0-12.3,15.6-36.4,14.3s-44.7-15.5-44.7-15.5
		L-194,546.3z"/>
</g>
<g>

		<rect x="-152.8" y="619.2" transform="matrix(0.96 -0.2801 0.2801 0.96 -181.7683 -12.0002)" class="modern34" width="39.8" height="21.5"/>
	<path class="modern35" d="M-144.5,624.7l-5.8,1.7c-1,0.3-2-0.3-2.3-1.3l0,0c-0.3-1,0.3-2,1.3-2.3l5.8-1.7c1-0.3,2,0.3,2.3,1.3l0,0
		C-142.9,623.3-143.5,624.4-144.5,624.7z"/>
	<path class="modern35" d="M-120.5,617.7l-2.4,0.7c-1,0.3-2-0.3-2.3-1.3l0,0c-0.3-1,0.3-2,1.3-2.3l2.4-0.7c1-0.3,2,0.3,2.3,1.3l0,0
		C-119,616.4-119.6,617.4-120.5,617.7z"/>

		<rect x="-155.3" y="619.6" transform="matrix(0.96 -0.2801 0.2801 0.96 -179.4765 -13.0398)" class="modern36" width="39.8" height="3.7"/>
	<circle class="modern7" cx="-130" cy="630.7" r="10.3"/>
	<circle class="modern37" cx="-130" cy="630.7" r="7.6"/>
	<circle class="modern34" cx="-130" cy="630.7" r="2.6"/>
	<circle class="modern38" cx="-124.4" cy="618.2" r="0.8"/>
</g>
<path class="modern3" d="M-101.7,627l-7.4-1c0,0,0,0.1,0,0.1c-0.6,3.4-3.9,5.7-7.3,5c-0.2,0-0.3-0.1-0.5-0.1l-1.9,7.2
	c0.3,0.1,0.7,0.2,1,0.2c7.5,1.4,14.6-3.6,16-11.1C-101.7,627.2-101.7,627.1-101.7,627z"/>
<path class="modern0" d="M92.4,515.4c0,0,1.3-19.7-8.1-21c-3.9-0.5-3.9,2.7-8.6,1.5s-10.2-3.5-11.4-1.5s-6.4,14.8-5.2,19.2
	S92.4,515.4,92.4,515.4z"/>
<path class="modern1" d="M78.1,503.9c5.8,0.4,10.4,1.4,14.1,2.7c0.5,4.6,0.3,8.8,0.3,8.8s-32.1,2.8-33.4-1.8c-0.6-2,0.2-5.7,1.3-9.3
	C64.7,503.6,70.4,503.4,78.1,503.9z"/>
<path class="modern0" d="M117.8,532.1c0,0-1.5-19.1-39.1-22c-37.6-2.8-42.9,8.9-45.4,13.5c-2.5,4.6,7.4,12,21.2,14.2s31.1,5.3,39.3,2.9
	S119.7,537.2,117.8,532.1z"/>
<polygon class="modern5" points="98.3,153.7 42.1,153.7 26,61 114.4,61 "/>
<path class="modern3" d="M19.8,120.2c-8.3-6.3-12.3-17.4-9-28c2.8-9.4,10.6-16,19.6-17.8l-1.5-7.3C17.2,69.4,7.3,77.9,3.6,90
	c-4.1,13.7,0.9,27.9,11.7,36.1L19.8,120.2z"/>
<path class="modern3" d="M117.5,121.6c8.3-6.3,12.3-17.4,9-28c-2.8-9.4-10.6-16-19.6-17.8l1.5-7.3c11.6,2.4,21.6,10.8,25.3,23
	c4.1,13.7-0.9,27.9-11.7,36.1L117.5,121.6z"/>
<path class="modern2" d="M-4.7,45.8"/>
<path class="modern2" d="M75.7,615.8"/>
<path class="modern3" d="M72,649.3c1.1,3.6,1.6,7.5,1.2,11.4c-0.4,4.3-1.7,8.2-3.7,11.7c1.8-0.3,3.7-0.4,5.6-0.1
	c1.2,0.2,2.4,0.5,3.5,0.9c1.6-3.6,2.7-7.5,3.1-11.7c0.4-4.2,0.1-8.3-0.9-12.2H72z"/>
<polygon class="modern5" points="101.9,647.1 45.7,647.1 29.6,554.4 118,554.4 "/>
<path class="modern7" d="M112.2,633.8l5.7-79.3H86.2H60.4H29.6l5.7,79.3c0,0,15.4,8,39.5,8S112.2,633.8,112.2,633.8z"/>
<polygon class="modern8" points="101.9,647.1 45.7,647.1 29.6,554.4 118,554.4 "/>
<path class="modern3" d="M23.4,613.6c-8.3-6.3-12.3-17.4-9-28c2.8-9.4,10.6-16,19.6-17.8l-1.5-7.3c-11.6,2.4-21.6,10.8-25.3,23
	c-4.1,13.7,0.9,27.9,11.7,36.1L23.4,613.6z"/>
<path class="modern7" d="M9.8,613.1l8.6-7c-6.7-11.3-3.4-26,7.6-33.4c3.7-2.5,7.8-3.8,11.9-4.2l-0.9-11c-5.9,0.5-11.9,2.5-17.2,6
	C3.6,574.6-0.9,596.7,9.8,613.1z"/>
<rect x="5" y="603.7" transform="matrix(0.8293 -0.5589 0.5589 0.8293 -337.8951 111.3897)" class="modern7" width="16.8" height="10"/>
<path class="modern3" d="M121.1,615.1c8.3-6.3,12.3-17.4,9-28c-2.8-9.4-10.6-16-19.6-17.8l1.5-7.3c11.6,2.4,21.6,10.8,25.3,23
	c4.1,13.7-0.9,27.9-11.7,36.1L121.1,615.1z"/>
<path class="modern7" d="M134.7,614.6l-8.6-7c6.7-11.3,3.4-26-7.6-33.4c-3.7-2.5-7.8-3.8-11.9-4.2l0.9-11c5.9,0.5,11.9,2.5,17.2,6
	C141,576.1,145.4,598.1,134.7,614.6z"/>
<rect x="122.8" y="605.1" transform="matrix(-0.8293 -0.5589 0.5589 -0.8293 -101.0048 1189.4231)" class="modern7" width="16.8" height="10"/>
<g>
	<defs>
		<path id="SVGID_7_" d="M138.2,608.6c6.4-15.5,1.2-33.8-13.2-43.5c-2.3-1.5-4.7-2.8-7.2-3.7l0.5-6.9H86.6H60.8H30l0.3,4.5
			c-3.5,1-6.9,2.6-10.1,4.7c-14.4,9.7-19.6,28.1-13.2,43.5L4,609.2l5.6,8.3l13.9-9.4l-5.6-8.3l-1.4,1c-3.1-10.3,0.6-21.8,10-28.1
			c1.5-1,3.1-1.8,4.7-2.5l4.6,63.5c0,0,15.4,8,39.5,8s37.4-8,37.4-8l4.4-60.7c0.6,0.3,1.3,0.7,1.9,1.1c9.4,6.3,13.1,17.8,10,28.1
			l-1.4-1l-5.6,8.3l13.9,9.4l5.6-8.3L138.2,608.6z"/>
	</defs>
	<use xlink:href="#SVGID_7_"  style="overflow:visible;fill:#3CBFB8;"/>
	<clipPath id="SVGID_8_">
		<use xlink:href="#SVGID_7_"  style="overflow:visible;"/>
	</clipPath>
	<g class="modern39">
		<rect x="-32.3" y="686" class="modern7" width="251" height="8.7"/>
		<rect x="-32.3" y="674.4" class="modern7" width="251" height="8.7"/>
		<rect x="-32.3" y="662.7" class="modern7" width="251" height="8.7"/>
		<rect x="-32.3" y="651" class="modern7" width="251" height="8.7"/>
		<rect x="-32.3" y="639.3" class="modern7" width="251" height="8.7"/>
		<rect x="-32.3" y="627.6" class="modern7" width="251" height="8.7"/>
		<rect x="-32.3" y="615.9" class="modern7" width="251" height="8.7"/>
		<rect x="-32.3" y="604.3" class="modern7" width="251" height="8.7"/>
		<rect x="-32.3" y="592.6" class="modern7" width="251" height="8.7"/>
		<rect x="-32.3" y="580.9" class="modern7" width="251" height="8.7"/>
		<rect x="-32.3" y="569.2" class="modern7" width="251" height="8.7"/>
		<rect x="-32.3" y="557.5" class="modern7" width="251" height="8.7"/>
		<rect x="-32.3" y="545.9" class="modern7" width="251" height="8.7"/>
		<rect x="-32.3" y="534.2" class="modern7" width="251" height="8.7"/>
		<rect x="-32.3" y="522.5" class="modern7" width="251" height="8.7"/>
		<rect x="-30.5" y="483.1" class="modern7" width="8.7" height="251"/>
		<rect x="-30.5" y="483.1" class="modern7" width="8.7" height="251"/>
		<rect x="-18.8" y="483.1" class="modern7" width="8.7" height="251"/>
		<rect x="-7.1" y="483.1" class="modern7" width="8.7" height="251"/>
		<rect x="4.5" y="483.1" class="modern7" width="8.7" height="251"/>
		<rect x="16.2" y="483.1" class="modern7" width="8.7" height="251"/>
		<rect x="27.9" y="483.1" class="modern7" width="8.7" height="251"/>
		<rect x="39.5" y="483.1" class="modern7" width="8.7" height="251"/>
		<rect x="51.2" y="483.1" class="modern7" width="8.7" height="251"/>
		<rect x="62.9" y="483.1" class="modern7" width="8.7" height="251"/>
		<rect x="74.5" y="483.1" class="modern7" width="8.7" height="251"/>
		<rect x="86.2" y="483.1" class="modern7" width="8.7" height="251"/>
		<rect x="97.9" y="483.1" class="modern7" width="8.7" height="251"/>
		<rect x="109.5" y="483.1" class="modern7" width="8.7" height="251"/>
		<rect x="121.2" y="483.1" class="modern7" width="8.7" height="251"/>
		<rect x="132.9" y="483.1" class="modern7" width="8.7" height="251"/>
		<rect x="144.5" y="483.1" class="modern7" width="8.7" height="251"/>
		<rect x="156.2" y="483.1" class="modern7" width="8.7" height="251"/>
		<rect x="167.9" y="483.1" class="modern7" width="8.7" height="251"/>
		<rect x="179.5" y="483.1" class="modern7" width="8.7" height="251"/>
		<rect x="191.2" y="483.1" class="modern7" width="8.7" height="251"/>
		<rect x="202.9" y="483.1" class="modern7" width="8.7" height="251"/>
	</g>
</g>
<path class="modern3" d="M113.2,631c0.2,0,0.3,0.1,0.5,0.1c3.4,0.6,6.7-1.6,7.3-5c0.6-3.4-1.6-6.7-5-7.3c-3.4-0.6-6.7,1.6-7.3,5
	c-0.1,0.3-0.1,0.6-0.1,0.9l-7.5-0.3c0-0.6,0.1-1.3,0.2-1.9c1.4-7.5,8.5-12.4,16-11.1c7.5,1.4,12.4,8.5,11.1,16
	c-1.4,7.5-8.5,12.4-16,11.1c-0.3-0.1-0.7-0.1-1-0.2L113.2,631z"/>
<circle class="modern4" cx="122.7" cy="618.9" r="4.9"/>
<g>
	<circle class="modern4" cx="79.3" cy="542.9" r="1.7"/>
	<circle class="modern4" cx="68" cy="542.9" r="1.7"/>
</g>
<path class="modern3" d="M74.8,514.8c-18,0-32.7,14.6-32.7,32.7v5.1h65.3v-5.1C107.5,529.4,92.9,514.8,74.8,514.8z"/>
<path class="modern2" d="M-1.1,539.2"/>
<g>
	<path class="modern3" d="M31.4,629.5c-0.2,0-0.3,0.1-0.5,0.1c-3.4,0.6-6.7-1.6-7.3-5c-0.6-3.4,1.6-6.7,5-7.3c3.4-0.6,6.7,1.6,7.3,5
		c0.1,0.3,0.1,0.6,0.1,0.9l7.5-0.3c0-0.6-0.1-1.3-0.2-1.9c-1.4-7.5-8.5-12.4-16-11.1c-7.5,1.4-12.4,8.5-11.1,16
		c1.4,7.5,8.5,12.4,16,11.1c0.3-0.1,0.7-0.1,1-0.2L31.4,629.5z"/>
	<circle class="modern4" cx="21.8" cy="617.4" r="4.9"/>
</g>
<g>
	<path class="modern30" d="M72.4,541.6c0.5-1.2,1.7-2,3.1-1.9c1.2,0.1,2.2,0.8,2.7,1.8l0.8-0.4c-0.6-1.3-1.9-2.3-3.5-2.4
		c-1.8-0.1-3.3,0.9-4,2.4L72.4,541.6z"/>
	<g>
		<path class="modern30" d="M53.2,532.3c0,0,1.4,12.5,9.7,13.8s10.3-3.9,10.7-5.3c0.4-1.4,0.6-3.5-1.8-4.5
			C69.5,535.3,53.6,531.6,53.2,532.3z"/>
		<path class="modern3" d="M57.3,535.5c-1.1,1-1.1,3.7,0.9,6.4c2,2.7,3.2,3.6,6.9,3.7s6.3-2.3,7-3.8c0.7-1.5,1.6-3.9-2.4-5.1
			C61.1,534,57.8,535,57.3,535.5z"/>
	</g>
	<g>
		<path class="modern30" d="M97.5,532.3c0,0-1.4,12.5-9.7,13.8s-10.3-3.9-10.7-5.3c-0.4-1.4-0.6-3.5,1.8-4.5
			C81.2,535.3,97.1,531.6,97.5,532.3z"/>
		<path class="modern3" d="M93.4,535.5c1.1,1,1.1,3.7-0.9,6.4c-2,2.7-3.2,3.6-6.9,3.7s-6.3-2.3-7-3.8c-0.7-1.5-1.6-3.9,2.4-5.1
			C89.6,534,92.9,535,93.4,535.5z"/>
	</g>
	<circle class="modern4" cx="67.9" cy="541.1" r="1.9"/>
	<circle class="modern4" cx="82.2" cy="541.1" r="1.9"/>
</g>
<rect x="56.3" y="565.2" class="modern31" width="38.3" height="78"/>
<g>
	<g>
		<rect x="38.6" y="554.6" class="modern32" width="24.9" height="67.3"/>
		<g>
			<rect x="38.6" y="618.8" class="modern32" width="2.7" height="12"/>
			<rect x="60.8" y="618.8" class="modern32" width="2.7" height="12"/>
			<rect x="43" y="618.8" class="modern32" width="2.7" height="12"/>
			<rect x="47.5" y="618.8" class="modern32" width="2.7" height="12"/>
			<rect x="51.9" y="618.8" class="modern32" width="2.7" height="12"/>
			<rect x="56.3" y="618.8" class="modern32" width="2.7" height="12"/>
		</g>
	</g>
	<g>
		<rect x="48" y="560.7" class="modern2" width="24.9" height="67.3"/>
		<g>
			<rect x="48" y="625.5" class="modern2" width="2.7" height="12"/>
			<rect x="70.3" y="625.5" class="modern2" width="2.7" height="12"/>
			<rect x="52.5" y="625.5" class="modern2" width="2.7" height="12"/>
			<rect x="56.9" y="625.5" class="modern2" width="2.7" height="12"/>
			<rect x="61.4" y="625.5" class="modern2" width="2.7" height="12"/>
			<rect x="65.8" y="625.5" class="modern2" width="2.7" height="12"/>
		</g>
	</g>
	<path class="modern33" d="M41.1,542.4c0,0,22.9,11.4,38.7,9.6s28.4-8.4,28.4-8.4l2,8.6c0,0-11,15.6-32.7,14.3S37.4,551,37.4,551
		L41.1,542.4z"/>
	<path class="modern32" d="M38.1,545.5c0,0,24.8,9.4,41.8,7.6s30.7-9.4,30.7-9.4l2.2,11.6c0,0-11.9,15.6-35.4,14.3s-43.5-15.5-43.5-15.5
		L38.1,545.5z"/>
	<path class="modern2" d="M36,546.3c0,0,25.8,10.9,43.4,9.2S111,546,111,546l2.3,11.6c0,0-12.3,15.6-36.4,14.3s-44.7-15.5-44.7-15.5
		L36,546.3z"/>
</g>
<g>

		<rect x="77.2" y="619.2" transform="matrix(0.96 -0.2801 0.2801 0.96 -172.562 52.4214)" class="modern34" width="39.8" height="21.5"/>
	<path class="modern35" d="M85.5,624.7l-5.8,1.7c-1,0.3-2-0.3-2.3-1.3l0,0c-0.3-1,0.3-2,1.3-2.3l5.8-1.7c1-0.3,2,0.3,2.3,1.3l0,0
		C87.1,623.3,86.5,624.4,85.5,624.7z"/>
	<path class="modern35" d="M109.5,617.7l-2.4,0.7c-1,0.3-2-0.3-2.3-1.3l0,0c-0.3-1,0.3-2,1.3-2.3l2.4-0.7c1-0.3,2,0.3,2.3,1.3l0,0
		C111,616.4,110.4,617.4,109.5,617.7z"/>

		<rect x="74.7" y="619.6" transform="matrix(0.96 -0.2801 0.2801 0.96 -170.2702 51.3819)" class="modern36" width="39.8" height="3.7"/>
	<circle class="modern7" cx="100" cy="630.7" r="10.3"/>
	<circle class="modern37" cx="100" cy="630.7" r="7.6"/>
	<circle class="modern34" cx="100" cy="630.7" r="2.6"/>
	<circle class="modern38" cx="105.6" cy="618.2" r="0.8"/>
</g>
<path class="modern3" d="M128.3,627l-7.4-1c0,0,0,0.1,0,0.1c-0.6,3.4-3.9,5.7-7.3,5c-0.2,0-0.3-0.1-0.5-0.1l-1.9,7.2
	c0.3,0.1,0.7,0.2,1,0.2c7.5,1.4,14.6-3.6,16-11.1C128.3,627.2,128.3,627.1,128.3,627z"/>
<path class="modern0" d="M85.7,250.3c0,0,1.4-21-8.1-21s-1.8,1.2-6.5,0s-12.3-2-13.5,0c-1.2,2-6.4,14.8-5.2,19.2S85.7,250.3,85.7,250.3z
	"/>
<path class="modern2" d="M71.4,238.8c5.8,0.4,10.4,1.4,14.1,2.7c0.5,4.6,0.3,8.8,0.3,8.8s-32.1,2.8-33.4-1.8c-0.6-2,0.2-5.7,1.3-9.3
	C58,238.6,63.7,238.3,71.4,238.8z"/>
<path class="modern0" d="M98.6,261.3c0,0-1.1-13.5-27.5-15.5s-30.2,6.2-32,9.5c-1.8,3.3,1,13.5,10.8,15s26.1-1.2,31.9-3
	S99.9,265,98.6,261.3z"/>
<path class="modern3" d="M68,251.9c-18,0-32.7,14.6-32.7,32.7v5.1h65.3v-5.1C100.6,266.5,86,251.9,68,251.9z"/>
<path class="modern3" d="M22,301.5c-2.6,1.2-5.1,2.7-7.4,4.6c-11.1,9-14.8,23.7-10.5,36.4l7.1-2.4c-3.4-9.9-0.4-21.3,8.1-28.3
	c1.3-1,2.6-1.9,4.1-2.7L22,301.5z"/>
<polygon class="modern5" points="95.1,384.3 38.8,384.3 22.8,291.6 111.1,291.6 "/>
<polygon class="modern7" points="97.4,370.9 111.1,291.6 89.3,291.6 66.9,319 43.6,291.6 22.8,291.6 36.5,370.9 "/>
<polygon class="modern8" points="97.4,370.9 111.1,291.6 89.3,291.6 66.9,319 43.6,291.6 22.8,291.6 36.5,370.9 "/>
<polygon class="modern8" points="97.4,370.9 111.1,291.6 89.3,291.6 66.9,319 43.6,291.6 22.8,291.6 36.5,370.9 "/>
<g>
	<defs>
		<polygon id="SVGID_9_" points="97.4,370.9 111.1,291.6 89.3,291.6 66.9,319 43.6,291.6 22.8,291.6 36.5,370.9 		"/>
	</defs>
	<clipPath id="SVGID_10_">
		<use xlink:href="#SVGID_9_"  style="overflow:visible;"/>
	</clipPath>
	<g class="modern40">
		<g>
			<g>
				<g>
					<polygon class="modern2" points="57.7,351.7 48.8,335.3 57.6,319 66.5,335.4 					"/>
					<polygon class="modern10" points="75.3,351.7 66.4,335.3 75.2,319 84,335.4 					"/>
					<polygon class="modern2" points="92.8,351.7 84,335.3 92.8,319 101.6,335.4 					"/>
					<polygon class="modern10" points="110.4,351.7 101.6,335.3 110.4,319 119.2,335.4 					"/>
				</g>
				<g>
					<polygon class="modern2" points="22.5,351.7 13.6,335.3 22.4,319 31.3,335.4 					"/>
					<polygon class="modern10" points="40.1,351.7 31.2,335.3 40,319 48.8,335.4 					"/>
				</g>
			</g>
			<g>
				<g>
					<polygon class="modern2" points="57.7,383.7 48.8,367.4 57.6,351.1 66.5,367.4 					"/>
					<polygon class="modern10" points="75.3,383.7 66.4,367.4 75.2,351.1 84,367.4 					"/>
					<polygon class="modern2" points="92.8,383.7 84,367.4 92.8,351.1 101.6,367.4 					"/>
				</g>
				<g>
					<polygon class="modern10" points="40.1,383.7 31.2,367.4 40,351.1 48.8,367.4 					"/>
				</g>
			</g>
			<g>
				<g>
					<polygon class="modern2" points="57.7,319.6 48.8,303.3 57.6,287 66.5,303.3 					"/>
					<polygon class="modern10" points="75.3,319.6 66.4,303.3 75.2,287 84,303.3 					"/>
					<polygon class="modern2" points="92.8,319.6 84,303.3 92.8,287 101.6,303.3 					"/>
					<polygon class="modern10" points="110.4,319.6 101.6,303.3 110.4,287 119.2,303.3 					"/>
				</g>
				<g>
					<polygon class="modern2" points="22.5,319.6 13.6,303.3 22.4,287 31.3,303.3 					"/>
					<polygon class="modern10" points="40.1,319.6 31.2,303.3 40,287 48.8,303.3 					"/>
				</g>
			</g>
		</g>
		<g>
			<g>
				<line class="modern11" x1="3.6" y1="300.5" x2="4.1" y2="301.4"/>
				<line class="modern12" x1="5.1" y1="303.1" x2="58.4" y2="400.8"/>
				<line class="modern11" x1="58.9" y1="401.6" x2="59.4" y2="402.5"/>
			</g>
		</g>
		<g>
			<g>
				<line class="modern11" x1="11.3" y1="282.3" x2="11.8" y2="283.2"/>
				<line class="modern13" x1="12.7" y1="285" x2="73.8" y2="396.9"/>
				<line class="modern11" x1="74.3" y1="397.8" x2="74.7" y2="398.7"/>
			</g>
		</g>
		<g>
			<g>
				<line class="modern11" x1="26.5" y1="277.6" x2="27" y2="278.5"/>
				<line class="modern14" x1="27.9" y1="280.2" x2="91.9" y2="397.1"/>
				<line class="modern11" x1="92.3" y1="397.9" x2="92.8" y2="398.8"/>
			</g>
		</g>
		<g>
			<g>
				<line class="modern11" x1="45.1" y1="280.1" x2="45.6" y2="281"/>
				<line class="modern15" x1="46.6" y1="282.7" x2="106.1" y2="391.6"/>
				<line class="modern11" x1="106.6" y1="392.5" x2="107.1" y2="393.4"/>
			</g>
		</g>
		<g>
			<g>
				<line class="modern11" x1="47.9" y1="252.7" x2="48.4" y2="253.6"/>
				<line class="modern16" x1="49.3" y1="255.4" x2="118.2" y2="382"/>
				<line class="modern11" x1="118.7" y1="382.9" x2="119.2" y2="383.7"/>
			</g>
		</g>
		<g>
			<g>
				<line class="modern11" x1="65.1" y1="252.4" x2="65.6" y2="253.3"/>
				<line class="modern17" x1="66.5" y1="255" x2="129.1" y2="369.2"/>
				<line class="modern11" x1="129.5" y1="370" x2="130" y2="370.9"/>
			</g>
		</g>
		<g>
			<g>
				<line class="modern11" x1="83.5" y1="253.9" x2="84" y2="254.8"/>
				<line class="modern18" x1="85" y1="256.5" x2="140" y2="357.1"/>
				<line class="modern11" x1="140.5" y1="358" x2="141" y2="358.8"/>
			</g>
		</g>
		<g>
			<g>
				<line class="modern11" x1="35.1" y1="280.1" x2="34.7" y2="281"/>
				<line class="modern19" x1="33.7" y1="282.8" x2="6.4" y2="332.4"/>
				<line class="modern11" x1="5.9" y1="333.3" x2="5.4" y2="334.1"/>
			</g>
		</g>
		<g>
			<g>
				<line class="modern11" x1="71" y1="247.7" x2="70.6" y2="248.6"/>
				<line class="modern20" x1="69.6" y1="250.4" x2="11.5" y2="355.6"/>
				<line class="modern11" x1="11" y1="356.5" x2="10.5" y2="357.3"/>
			</g>
		</g>
		<g>
			<g>
				<line class="modern11" x1="81.3" y1="260.7" x2="80.8" y2="261.5"/>
				<line class="modern21" x1="79.9" y1="263.3" x2="24.8" y2="363.1"/>
				<line class="modern11" x1="24.3" y1="363.9" x2="23.8" y2="364.8"/>
			</g>
		</g>
		<g>
			<g>
				<line class="modern11" x1="97.9" y1="262.2" x2="97.4" y2="263"/>
				<line class="modern22" x1="96.4" y1="264.8" x2="32.2" y2="380.8"/>
				<line class="modern11" x1="31.7" y1="381.7" x2="31.3" y2="382.6"/>
			</g>
		</g>
		<g>
			<g>
				<line class="modern11" x1="108.7" y1="274.8" x2="108.3" y2="275.7"/>
				<line class="modern23" x1="107.3" y1="277.4" x2="44.7" y2="390.4"/>
				<line class="modern11" x1="44.2" y1="391.3" x2="43.7" y2="392.1"/>
			</g>
		</g>
		<line class="modern24" x1="119.2" y1="287" x2="57.7" y2="398.6"/>
		<g>
			<g>
				<line class="modern11" x1="130.9" y1="298.6" x2="130.4" y2="299.5"/>
				<line class="modern25" x1="129.4" y1="301.2" x2="78.2" y2="393.9"/>
				<line class="modern11" x1="77.7" y1="394.7" x2="77.2" y2="395.6"/>
			</g>
		</g>
	</g>
</g>
<g>
	<path class="modern26" d="M65.2,292.2c-7.9,4.7-15.5-7-15.5-7s5.9,3,9.7-0.1c2-1.6,4.9-1.3,6.4,0.7C67.5,287.7,67.4,290.9,65.2,292.2z"
		/>
	<path class="modern26" d="M68.7,292.2c7.9,4.7,15.5-7,15.5-7s-5.9,3-9.7-0.1c-2-1.6-4.9-1.3-6.4,0.7C66.5,287.7,66.6,290.9,68.7,292.2z
		"/>
</g>
<path class="modern26" d="M70.1,294.1c-0.3,1.4-1.6,2.5-3.2,2.5c-1.5,0-2.8-1.1-3.2-2.5c-0.7,0.8-1.2,1.8-1.2,3c0,2.4,4.4,6,4.4,6
	s4.4-3.6,4.4-6C71.3,295.9,70.9,294.9,70.1,294.1z"/>
<g>
	<path class="modern27" d="M60.3,281.1c1.1-2.6,3.7-4.4,6.6-4.3c2.6,0.1,4.9,1.6,5.9,3.8l1.8-0.9c-1.4-2.8-4.3-4.8-7.7-5
		c-3.8-0.1-7.1,2.2-8.5,5.5L60.3,281.1z"/>
	<g>
		<path class="modern27" d="M63.6,283.7H50c-1.1,0-2-0.9-2-2v-8.1c0-1.1,0.9-2,2-2h13.7c1.1,0,2,0.9,2,2v8.1
			C65.6,282.8,64.7,283.7,63.6,283.7z"/>
		<path class="modern27" d="M51.3,274.5h-4.1c-0.5,0-1-0.5-1-1v-1c0-0.5,0.5-1,1-1h4.1c0.5,0,1,0.5,1,1v1
			C52.3,274.1,51.8,274.5,51.3,274.5z"/>
		<path class="modern3" d="M62.6,282.3H51.8c-0.5,0-1-0.5-1-1v-5.8c0-0.5,0.5-1,1-1h10.9c0.5,0,1,0.5,1,1v5.8
			C63.6,281.9,63.2,282.3,62.6,282.3z"/>
	</g>
	<g>
		<path class="modern27" d="M70.4,283.7h13.7c1.1,0,2-0.9,2-2v-8.1c0-1.1-0.9-2-2-2H70.4c-1.1,0-2,0.9-2,2v8.1
			C68.4,282.8,69.3,283.7,70.4,283.7z"/>
		<path class="modern27" d="M82.8,274.5h4.1c0.6,0,1-0.5,1-1v-1c0-0.5-0.4-1-1-1h-4.1c-0.6,0-1,0.5-1,1v1
			C81.8,274.1,82.2,274.5,82.8,274.5z"/>
		<path class="modern3" d="M71.4,282.3h10.9c0.5,0,1-0.5,1-1v-5.8c0-0.5-0.5-1-1-1H71.4c-0.6,0-1,0.5-1,1v5.8
			C70.4,281.9,70.9,282.3,71.4,282.3z"/>
	</g>
	<circle class="modern4" cx="72.5" cy="280.1" r="1.7"/>
	<circle class="modern4" cx="61.1" cy="280.1" r="1.7"/>
</g>
<path class="modern3" d="M112,300.9l-1.9,10.4c2.6,5.2,3.6,11.2,2.2,17.3c-2.4,10.8-11.3,18.5-21.6,20l1,7.4
	c13.3-1.9,24.8-11.8,27.9-25.7C122.1,319.4,118.9,308.6,112,300.9z"/>
<g>
	<path class="modern3" d="M78.7,361.7c0.1,0.1,0.3,0.1,0.4,0.2c3.2,1.4,6.9,0,8.3-3.2c1.4-3.2,0-6.9-3.2-8.3c-3.2-1.4-6.9,0-8.3,3.2
		c-0.1,0.3-0.2,0.5-0.3,0.8l-7.2-2c0.2-0.6,0.4-1.2,0.6-1.8c3.1-7,11.2-10.1,18.1-7.1c7,3.1,10.1,11.2,7.1,18.1
		c-3.1,7-11.2,10.1-18.1,7.1c-0.3-0.1-0.6-0.3-0.9-0.5L78.7,361.7z"/>
	<circle class="modern4" cx="90.3" cy="352.4" r="4.9"/>
</g>
<g>
	<path class="modern3" d="M8.9,357.7c-0.1-0.1-0.3-0.1-0.4-0.2c-3.2-1.4-4.6-5.1-3.2-8.3c1.4-3.2,5.1-4.6,8.2-3.2
		c3.2,1.4,4.6,5.1,3.2,8.3c-0.1,0.3-0.3,0.5-0.4,0.8l6.4,3.9c0.3-0.5,0.6-1.1,0.9-1.7c3.1-7-0.1-15.1-7.1-18.1
		c-7-3.1-15.1,0.1-18.1,7.1c-3.1,7,0.1,15.1,7.1,18.1c0.3,0.1,0.6,0.3,1,0.4L8.9,357.7z"/>
	<circle class="modern4" cx="7.8" cy="342.4" r="4.9"/>
</g>
<g>
	<path class="modern5" d="M61.2,681.4c2-5.2,7.4-8.6,13.1-7.7c5.7,0.9,9.9,5.6,10.3,11.2l4.7,0.7c0-8.2-6-15.3-14.3-16.5
		c-8.3-1.2-16.1,3.8-18.5,11.6L61.2,681.4z"/>
	<circle class="modern5" cx="72.6" cy="685.7" r="9.5"/>
</g>
<g>
	<path class="modern3" d="M65.3,387c1,3.4,1.4,7.1,1,10.9c-0.4,4.1-1.6,7.9-3.5,11.3c1.6-0.2,3.3-0.3,5,0c1.4,0.2,2.7,0.6,3.9,1.1
		c1.6-3.6,2.6-7.5,3-11.6c0.4-4,0.1-8-0.7-11.7H65.3z"/>
	<g>
		<path class="modern5" d="M54.4,418.5c2-5.2,7.4-8.6,13.1-7.7c5.7,0.9,9.9,5.6,10.3,11.2l4.7,0.7c0-8.2-6-15.3-14.3-16.5
			c-8.3-1.2-16.1,3.8-18.5,11.6L54.4,418.5z"/>
		<circle class="modern5" cx="65.7" cy="422.8" r="9.5"/>
	</g>
</g>
<g>
	<g>
		<path class="modern3" d="M68.4,156c1.1,3.6,1.5,7.4,1.2,11.4c-0.4,4.4-1.8,8.5-3.9,12.1c1.8-0.3,3.6-0.4,5.4-0.1
			c1.3,0.2,2.5,0.5,3.6,1c1.7-3.8,2.9-7.9,3.3-12.2c0.4-4.2,0.1-8.3-0.8-12.1H68.4z"/>
	</g>
	<g>
		<path class="modern5" d="M57.6,187.9c2-5.2,7.4-8.6,13.1-7.7c5.7,0.9,9.9,5.6,10.3,11.2l4.7,0.7c0-8.2-6-15.3-14.3-16.5
			c-8.3-1.2-16.1,3.8-18.5,11.6L57.6,187.9z"/>
		<circle class="modern5" cx="69" cy="192.2" r="9.5"/>
	</g>
</g>
<rect x="294.6" y="156.6" class="modern41" width="156.2" height="95.1"/>
<rect x="649.4" y="210.6" class="modern42" width="150" height="150"/>
<rect x="649.4" y="326.2" class="modern43" width="150" height="75"/>
<rect x="649.4" y="103.7" class="modern44" width="150" height="167"/>
<rect x="429.8" y="274.9" class="modern45" width="182.1" height="40.3"/>
<rect x="798.6" y="103.6" class="modern46" width="88" height="296"/>
<g>
	<polygon class="modern8" points="98.3,153.7 42.1,153.7 26,61 114.4,61 	"/>
	<path class="modern7" d="M134.2,115.2c6.4-15.5,1.2-33.8-13.2-43.5c-2.3-1.5-4.7-2.8-7.2-3.7l0.5-6.9H82.6H56.8H26l0.3,4.5
		c-3.5,1-6.9,2.6-10.1,4.7C1.9,79.9-3.3,98.2,3.1,113.7L0,115.8l5.6,8.3l13.9-9.4l-5.6-8.3l-1.4,1c-3.1-10.3,0.6-21.8,10-28.1
		c1.5-1,3.1-1.8,4.7-2.5l4.6,63.5c0,0,15.4,8,39.5,8c24.1,0,37.4-8,37.4-8l4.4-60.7c0.6,0.3,1.3,0.7,1.9,1.1
		c9.4,6.3,13.1,17.8,10,28.1l-1.4-1l-5.6,8.3l13.9,9.4l5.6-8.3L134.2,115.2z"/>
	<path class="modern8" d="M134.6,115.2c6.4-15.5,1.2-33.8-13.2-43.5c-2.3-1.5-4.7-2.8-7.2-3.7l0.5-6.9H82.9H57.2H26.4l0.3,4.5
		c-3.5,1-6.9,2.6-10.1,4.7C2.2,79.9-2.9,98.2,3.5,113.7l-3.1,2.1l5.6,8.3l13.9-9.4l-5.6-8.3l-1.4,1c-3.1-10.3,0.6-21.8,10-28.1
		c1.5-1,3.1-1.8,4.7-2.5l4.6,63.5c0,0,15.4,8,39.5,8s37.4-8,37.4-8l4.4-60.7c0.6,0.3,1.3,0.7,1.9,1.1c9.4,6.3,13.1,17.8,10,28.1
		l-1.4-1l-5.6,8.3l13.9,9.4l5.6-8.3L134.6,115.2z"/>
	<path class="modern8" d="M134.2,115.2c6.4-15.5,1.2-33.8-13.2-43.5c-2.3-1.5-4.7-2.8-7.2-3.7l0.5-6.9H82.6H56.8H26l0.3,4.5
		c-3.5,1-6.9,2.6-10.1,4.7C1.9,79.9-3.3,98.2,3.1,113.7L0,115.8l5.6,8.3l13.9-9.4l-5.6-8.3l-1.4,1c-3.1-10.3,0.6-21.8,10-28.1
		c1.5-1,3.1-1.8,4.7-2.5l4.6,63.5c0,0,15.4,8,39.5,8c24.1,0,37.4-8,37.4-8l4.4-60.7c0.6,0.3,1.3,0.7,1.9,1.1
		c9.4,6.3,13.1,17.8,10,28.1l-1.4-1l-5.6,8.3l13.9,9.4l5.6-8.3L134.2,115.2z"/>
	<path class="modern8" d="M134.2,115.2c6.4-15.5,1.2-33.8-13.2-43.5c-2.3-1.5-4.7-2.8-7.2-3.7l0.5-6.9H82.6H56.8H26l0.3,4.5
		c-3.5,1-6.9,2.6-10.1,4.7C1.9,79.9-3.3,98.2,3.1,113.7L0,115.8l5.6,8.3l13.9-9.4l-5.6-8.3l-1.4,1c-3.1-10.3,0.6-21.8,10-28.1
		c1.5-1,3.1-1.8,4.7-2.5l4.6,63.5c0,0,15.4,8,39.5,8c24.1,0,37.4-8,37.4-8l4.4-60.7c0.6,0.3,1.3,0.7,1.9,1.1
		c9.4,6.3,13.1,17.8,10,28.1l-1.4-1l-5.6,8.3l13.9,9.4l5.6-8.3L134.2,115.2z"/>
	<path class="modern47" d="M71.2,148.3c11,0,19.7-1.7,25.9-3.5H44.4C51.1,146.7,60.3,148.3,71.2,148.3z"/>
	<path class="modern47" d="M31.2,133.2l0.5,7.1c0,0,1.3,0.7,3.7,1.6h70c2.1-0.9,3.2-1.6,3.2-1.6l0.5-7.1H31.2z"/>
	<g class="modern48">
		<polygon class="modern44" points="5.6,124.1 9.4,121.5 3.8,121.5 		"/>
		<polygon class="modern44" points="110,121.5 30.4,121.5 31,130.3 109.4,130.3 		"/>
		<polygon class="modern44" points="125.8,121.5 131.7,125.5 134.4,121.5 		"/>
	</g>
	<g class="modern48">
		<path class="modern44" d="M122.1,109.8l-4.3,6.3l3.6,2.4h15l0.9-1.3l-3.1-2.1c0.7-1.7,1.3-3.5,1.7-5.3H122.1z"/>
		<polygon class="modern44" points="110.8,109.8 29.5,109.8 30.2,118.6 110.2,118.6 		"/>
		<path class="modern44" d="M19.5,114.7l-3.3-4.9H1.7c0.4,1.3,0.8,2.6,1.3,3.9L0,115.8l1.9,2.8h11.9L19.5,114.7z"/>
	</g>
	<g class="modern48">
		<path class="modern44" d="M11.5,98.1h-11c-0.2,2.9,0,5.8,0.6,8.7h11.3C11.5,104,11.3,101.1,11.5,98.1z"/>
		<path class="modern44" d="M125.3,106.9h11.2c0.4-2.9,0.5-5.8,0.2-8.7h-11.1C126.1,101,126,104,125.3,106.9z"/>
		<polygon class="modern44" points="13.9,106.4 13.2,106.9 14.2,106.9 		"/>
		<polygon class="modern44" points="111.7,98.1 28.7,98.1 29.3,106.9 111,106.9 		"/>
	</g>
	<g class="modern48">
		<path class="modern44" d="M120.9,86.5c2,2.6,3.4,5.6,4.2,8.7h11.2c-0.5-3-1.4-6-2.7-8.7H120.9z"/>
		<polygon class="modern44" points="112.5,86.5 27.9,86.5 28.5,95.2 111.9,95.2 		"/>
		<path class="modern44" d="M3.1,86.5c-1.1,2.8-1.9,5.7-2.3,8.7h11.1c0.6-3.1,1.8-6.1,3.5-8.7H3.1z"/>
	</g>
	<path class="modern47" d="M4.4,83.5h13.2c1.4-1.6,3-3,4.8-4.2c1.5-1,3.1-1.8,4.7-2.5l0.5,6.7h85.1l0.3-3.9c0.6,0.3,1.3,0.7,1.9,1.1
		c1.2,0.8,2.4,1.8,3.4,2.8h13.8c-1.8-3.2-4.2-6.2-7.1-8.7H10.7C8.2,77.4,6,80.4,4.4,83.5z"/>
	<path class="modern47" d="M26.2,63.1l0.2,2.4c-3.5,1-6.9,2.6-10.1,4.7c-0.8,0.5-1.5,1.1-2.3,1.7h107.3c-0.1-0.1-0.2-0.1-0.3-0.2
		c-2.3-1.5-4.7-2.8-7.2-3.7l0.3-4.8H26.2z"/>
	<path class="modern47" d="M0.8,116.9l4.8,7.1l3.9-2.6V76.1c-4.8,5.4-7.8,12-8.7,18.9v10.2c0.4,2.9,1.2,5.8,2.3,8.6l-2.3,1.6V116.9z"/>
	<path class="modern47" d="M114.5,68.2c-0.2-0.1-0.4-0.2-0.7-0.3l0.5-6.9h-8.6v80.8c1.9-0.8,2.9-1.4,2.9-1.4l4.4-60.7
		c0.5,0.3,1,0.6,1.5,0.9V68.2z"/>
	<path class="modern47" d="M82.4,147.7c3.2-0.4,6.1-0.8,8.7-1.4V61h-8.6h-0.1V147.7z"/>
	<path class="modern47" d="M70.8,148.3c0.2,0,0.3,0,0.5,0c2.9,0,5.7-0.1,8.3-0.3V61h-8.7V148.3z"/>
	<path class="modern47" d="M59.1,147.6c2.7,0.3,5.7,0.5,8.7,0.6V61h-8.7V147.6z"/>
	<path class="modern47" d="M47.4,145.6c2.6,0.6,5.6,1.2,8.7,1.6V61h-8.7V145.6z"/>
	<path class="modern47" d="M35.8,142.1c2.1,0.8,5.1,1.9,8.7,2.8V61h-8.7V142.1z"/>
	<path class="modern47" d="M32.8,61H26l0.3,4.5c-0.8,0.2-1.5,0.5-2.2,0.7v12.1c1-0.6,2-1.1,3.1-1.5l4.6,63.5c0,0,0.4,0.2,1.1,0.5V61z"/>
	<g class="modern48">
		<path class="modern44" d="M13.9,106.4l-1.4,1c0-0.1,0-0.1,0-0.2v12.3l7-4.7L13.9,106.4z"/>
		<path class="modern44" d="M21.2,67.4c-1.7,0.8-3.3,1.7-4.9,2.8c-1.4,0.9-2.7,1.9-3.9,3V93c1.5-4.9,4.4-9.4,8.7-12.8V67.4z"/>
	</g>
	<path class="modern47" d="M94.1,145.7c3.5-0.9,6.5-1.8,8.7-2.7V61h-8.7V145.7z"/>
	<path class="modern47" d="M123.4,107.9l-5.6,8.3l8.3,5.6V75.8c-1.6-1.5-3.3-2.9-5.2-4.2c-1.2-0.8-2.4-1.5-3.6-2.1v13.2
		c7.5,6.6,10.2,16.8,7.4,26.1L123.4,107.9z"/>
	<path class="modern47" d="M129.1,79.1v44.7l2.6,1.8l5.6-8.3l-3.1-2.1C139.2,103.1,137.1,89.2,129.1,79.1z"/>
</g>
<g>
	<path class="modern3" d="M27.8,136.1c-0.2,0-0.3,0.1-0.5,0.1c-3.4,0.6-6.7-1.6-7.3-5c-0.6-3.4,1.6-6.7,5-7.3c3.4-0.6,6.7,1.6,7.3,5
		c0.1,0.3,0.1,0.6,0.1,0.9l7.5-0.3c0-0.6-0.1-1.3-0.2-1.9c-1.4-7.5-8.5-12.4-16-11.1c-7.5,1.4-12.4,8.5-11.1,16
		c1.4,7.5,8.5,12.4,16,11.1c0.3-0.1,0.7-0.1,1-0.2L27.8,136.1z"/>
	<circle class="modern4" cx="18.2" cy="124" r="4.9"/>
</g>
<g>
	<path class="modern3" d="M109.6,137.5c0.2,0,0.3,0.1,0.5,0.1c3.4,0.6,6.7-1.6,7.3-5c0.6-3.4-1.6-6.7-5-7.3c-3.4-0.6-6.7,1.6-7.3,5
		c-0.1,0.3-0.1,0.6-0.1,0.9l-7.5-0.3c0-0.6,0.1-1.3,0.2-1.9c1.4-7.5,8.5-12.4,16-11.1c7.5,1.4,12.4,8.5,11.1,16
		c-1.4,7.5-8.5,12.4-16,11.1c-0.3-0.1-0.7-0.1-1-0.2L109.6,137.5z"/>
	<circle class="modern4" cx="119.1" cy="125.4" r="4.9"/>
</g>
<g>
	<g>
		<g>
			<path class="modern0" d="M88.3,22.2c0,0,1.4-21-8.1-21s-1.8,1.2-6.5,0s-12.3-2-13.5,0C59,3.2,53.7,16,55,20.5S88.3,22.2,88.3,22.2z"
				/>
			<path class="modern45" d="M74,10.7c5.8,0.4,10.4,1.4,14.1,2.7c0.5,4.6,0.3,8.8,0.3,8.8S56.2,25,55,20.5c-0.6-2,0.2-5.7,1.3-9.3
				C60.6,10.4,66.4,10.2,74,10.7z"/>
			<path class="modern0" d="M101.2,33.2c0,0-1.1-13.5-27.5-15.5s-30.2,6.2-32,9.5s1,13.5,10.8,15s26.1-1.2,31.9-3S102.5,36.8,101.2,33.2
				z"/>
		</g>
		<path class="modern3" d="M71.2,21.3c-18,0-32.7,14.6-32.7,32.7v5.1h65.3V54C103.9,36,89.3,21.3,71.2,21.3z"/>
		<g>
			<path class="modern26" d="M74.9,64.4h-7.1c-3.3,0-6.1-2.7-6.1-6.1v0c0-3.3,2.7-6.1,6.1-6.1h7.1c3.3,0,6.1,2.7,6.1,6.1v0
				C80.9,61.6,78.2,64.4,74.9,64.4z"/>
			<path class="modern26" d="M102.1,54.9L82,56.5l0-0.1l-10.4,0.9l-10.4-0.9l0,0.1l-20.1-1.7c0,0-0.1,7.3-0.1,16.8s27.2,21,30.6,21
				c3.4,0,30.6-11.5,30.6-21S102.1,54.9,102.1,54.9z"/>
			<path class="modern3" d="M71.2,61.7c-1.5,0-3,0.3-4.4,0.7c2-1.8,3.5-4.1,4.4-6.7c0.9,2.6,2.4,4.9,4.4,6.7
				C74.2,62,72.8,61.7,71.2,61.7z"/>
		</g>
		<g>
			<path class="modern27" d="M63.6,51.2c1.1-2.6,3.7-4.4,6.6-4.3c2.6,0.1,4.9,1.6,5.9,3.8l1.8-0.9c-1.4-2.8-4.3-4.8-7.7-5
				c-3.8-0.1-7.1,2.2-8.5,5.5L63.6,51.2z"/>
			<g>
				<path class="modern27" d="M66.9,53.8H53.3c-1.1,0-2-0.9-2-2v-8.1c0-1.1,0.9-2,2-2h13.7c1.1,0,2,0.9,2,2v8.1
					C68.9,52.9,68,53.8,66.9,53.8z"/>
				<path class="modern27" d="M54.5,44.7h-4.1c-0.5,0-1-0.5-1-1v-1c0-0.6,0.5-1,1-1h4.1c0.5,0,1,0.4,1,1v1
					C55.5,44.2,55.1,44.7,54.5,44.7z"/>
				<path class="modern3" d="M65.9,52.5H55c-0.5,0-1-0.5-1-1v-5.8c0-0.6,0.5-1,1-1h10.9c0.6,0,1,0.4,1,1v5.8
					C66.9,52,66.5,52.5,65.9,52.5z"/>
			</g>
			<g>
				<path class="modern27" d="M73.7,53.8h13.7c1.1,0,2-0.9,2-2v-8.1c0-1.1-0.9-2-2-2H73.7c-1.1,0-2,0.9-2,2v8.1
					C71.7,52.9,72.6,53.8,73.7,53.8z"/>
				<path class="modern27" d="M86.1,44.7h4.1c0.6,0,1-0.5,1-1v-1c0-0.6-0.4-1-1-1h-4.1c-0.6,0-1,0.4-1,1v1
					C85.1,44.2,85.5,44.7,86.1,44.7z"/>
				<path class="modern3" d="M74.7,52.5h10.9c0.5,0,1-0.5,1-1v-5.8c0-0.6-0.5-1-1-1H74.7c-0.6,0-1,0.4-1,1v5.8
					C73.7,52,74.1,52.5,74.7,52.5z"/>
			</g>
			<circle class="modern4" cx="75.7" cy="50.2" r="1.7"/>
			<circle class="modern4" cx="64.4" cy="50.2" r="1.7"/>
		</g>
	</g>
	<path class="modern45" d="M66,59.7c-3.2,0-6.7,9.7-8.8,9.7c-1.3,0-1.7-0.8-1.8-1.4c0,0,0,0,0-0.1v-4.2h-7.3v4.2c0,4.4,1.8,6.9,8.4,5.9
		c4.2-0.6,6.5-12.8,9.4-12.8c1.9,0,3.2,0,3.2,0v-1.4C69.2,59.7,69.2,59.7,66,59.7z"/>
</g>
</svg>
