<?xml version="1.0" encoding="utf-8"?>
<!-- Generator: Adobe Illustrator 19.0.1, SVG Export Plug-In . SVG Version: 6.00 Build 0)  -->
<svg class="top-robot" version="1.1" id="Layer_1" xmlns="http://www.w3.org/2000/svg" xmlns:xlink="http://www.w3.org/1999/xlink" x="0px" y="0px"
	 width="151.5px" height="226.2px" viewBox="0 0 151.5 226.2" style="enable-background:new 0 0 151.5 226.2;" xml:space="preserve"
	>
<style type="text/css">
	.plain0{fill:#E5E5E5;}
	.plain1{fill:#C4C4C3;}
	.plain2{fill:#FFFFFF;}
	.plain3{fill:#969696;}
	.plain4{fill:#39C3DE;}
	.plain5{fill:none;stroke:#C4C4C3;stroke-miterlimit:10;}
	.plain6{fill:#C82027;}
	.plain7{fill:#F3D41A;}
	.plain8{fill:#A1C63A;}
	.plain9{fill:#EA6361;}
	.plain10{fill:#E28888;}
	.plain11{fill:#EFE4A6;}
	.plain12{fill:#8CCED8;}
	.plain13{fill:#AFBB87;}
</style>
<g>
	<path class="plain0" d="M-167,200.2c-0.3,3.6-1.3,6.9-2.8,10c1.4-0.1,2.8-0.1,4.3,0.1c1.5,0.2,3,0.7,4.4,1.3c1.3-3.3,2.2-6.8,2.6-10.5
		c0.3-3.2,0.2-6.4-0.3-9.4l-8.7-0.3C-166.9,194.2-166.7,197.2-167,200.2z"/>
</g>
<path class="plain0" d="M-179.5-185.8l0.1,0.2l9.1,0.9c2.3-4.3,3.8-9.1,4.3-14.3c1.2-12.4-3.8-23.9-12.4-31.6l-5.4,6.5
	c6.5,6,10.2,14.8,9.4,24.3C-174.8-194.6-176.7-189.8-179.5-185.8z"/>
<circle class="plain1" cx="-174.9" cy="-174.9" r="16.8"/>
<circle class="plain2" cx="-174.9" cy="-174.9" r="12.1"/>
<rect x="-204.6" y="-177.4" transform="matrix(0.9891 0.1474 -0.1474 0.9891 -26.5184 23.9769)" class="plain2" width="59.2" height="21"/>
<g>
	<path class="plain0" d="M-104.1-323.4c2.8,10.1-0.8,21.3-9.7,27.8c-8,5.8-18.1,6.3-26.4,2.3l-3.2,6.7c10.7,5.1,23.7,4.4,34-3
		c11.6-8.4,16.1-22.8,12.5-35.8L-104.1-323.4z"/>
	<path class="plain0" d="M-96.8-339.8c0.1,0.1,0.2,0.2,0.4,0.3c2.5,2.4,2.7,6.3,0.3,8.8c-2.4,2.5-6.3,2.7-8.8,0.3
		c-2.5-2.4-2.7-6.3-0.3-8.8c0.2-0.2,0.4-0.4,0.6-0.6l-4.7-5.8c-0.5,0.4-1,0.8-1.4,1.3c-5.2,5.6-4.8,14.3,0.7,19.4
		c5.6,5.2,14.3,4.8,19.4-0.7c5.2-5.6,4.8-14.3-0.7-19.4c-0.3-0.2-0.5-0.5-0.8-0.7L-96.8-339.8z"/>
	<circle class="plain3" cx="-100.7" cy="-325.4" r="4.9"/>
</g>
<g>
	<path class="plain0" d="M-226.8-246.2c-5.7-8.8-5.6-20.5,1-29.4c5.9-7.9,15.4-11.5,24.5-10.1l1.1-7.4c-11.7-1.7-24,2.9-31.5,13.1
		c-8.5,11.5-8.6,26.6-1.2,37.9L-226.8-246.2z"/>
	<path class="plain0" d="M-224.7-228.5c-0.2,0-0.3,0-0.5-0.1c-3.4-0.6-5.7-3.8-5.1-7.2c0.6-3.4,3.8-5.7,7.2-5.1
		c3.4,0.6,5.7,3.8,5.1,7.2c0,0.3-0.1,0.6-0.2,0.9l7.1,2.2c0.2-0.6,0.4-1.2,0.5-1.9c1.3-7.5-3.8-14.6-11.3-15.8
		c-7.5-1.3-14.6,3.8-15.8,11.3c-1.3,7.5,3.8,14.6,11.3,15.8c0.3,0.1,0.7,0.1,1,0.1L-224.7-228.5z"/>
	<circle class="plain3" cx="-229.6" cy="-243.1" r="4.9"/>
</g>
<circle class="plain1" cx="-174.9" cy="-174.9" r="9.5"/>
<g>
	<g>
		<circle class="plain4" cx="-154.6" cy="-386.6" r="5"/>
		<path class="plain5" d="M-162.9-381.6"/>
		<path class="plain5" d="M-172.1-342c-4.6-13.7-2.6-23.4,1.2-30l5.9,0l-6.8-5l4.5,0c4.2-4.7,8.6-6.7,8.6-6.7"/>
	</g>
	<path class="plain0" d="M-172.7-345.8c-18,0-32.7,14.6-32.7,32.7v5.1h65.3v-5.1C-140-331.2-154.6-345.8-172.7-345.8z"/>
	<circle class="plain3" cx="-176.5" cy="-317.6" r="1.7"/>
	<circle class="plain3" cx="-165.2" cy="-317.6" r="1.7"/>
</g>
<polygon class="plain2" points="-143.5,-207.7 -202.9,-209.7 -220.4,-306.8 -126,-308.8 "/>
<polygon class="plain1" points="-145.1,-209.9 -201.3,-211.9 -217.4,-304.6 -129,-306.6 "/>
<g>
	<circle class="plain2" cx="-173.2" cy="-277.1" r="19.8"/>

		<rect x="-196.5" y="-277.1" transform="matrix(-0.9987 5.183915e-02 -5.183915e-02 -0.9987 -358.9892 -524.991)" class="plain1" width="47.5" height="19.8"/>
	<g>
		<path class="plain6" d="M-187.9-290.3c-0.8,0.9-1.5,1.9-2.2,2.9c0,0.1-0.1,0.1-0.1,0.2c-0.3,0.5-0.5,0.9-0.8,1.4
			c-0.1,0.1-0.1,0.2-0.2,0.3c-0.2,0.4-0.4,0.9-0.6,1.3c-0.1,0.2-0.1,0.3-0.2,0.5c-0.2,0.4-0.3,0.9-0.4,1.3c-0.1,0.2-0.1,0.4-0.2,0.6
			c-0.1,0.4-0.2,0.9-0.3,1.3c0,0.2-0.1,0.4-0.1,0.6c-0.1,0.5-0.1,1-0.2,1.6c0,0.1,0,0.3,0,0.4c0,0.7,0,1.3,0,2l19.8-1L-187.9-290.3z
			"/>
		<path class="plain7" d="M-174.2-296.8c-1.2,0.1-2.4,0.2-3.6,0.5c-0.1,0-0.1,0-0.2,0c-0.5,0.1-1,0.3-1.5,0.5c-0.1,0-0.2,0.1-0.3,0.1
			c-0.5,0.2-0.9,0.4-1.4,0.6c-0.1,0.1-0.3,0.1-0.4,0.2c-0.4,0.2-0.8,0.4-1.2,0.6c-0.2,0.1-0.3,0.2-0.5,0.3c-0.4,0.2-0.8,0.5-1.1,0.7
			c-0.2,0.1-0.3,0.2-0.5,0.3c-0.4,0.3-0.8,0.6-1.2,1c-0.1,0.1-0.2,0.2-0.3,0.2c-0.5,0.4-1,0.9-1.4,1.4l14.7,13.3L-174.2-296.8z"/>
		<path class="plain4" d="M-159.9-291.8c0.9,0.8,1.7,1.7,2.5,2.7c0,0,0.1,0.1,0.1,0.1c0.3,0.4,0.6,0.9,0.9,1.3c0.1,0.1,0.1,0.2,0.2,0.3
			c0.3,0.4,0.5,0.8,0.7,1.3c0.1,0.1,0.2,0.3,0.2,0.4c0.2,0.4,0.4,0.8,0.5,1.3c0.1,0.2,0.2,0.4,0.2,0.5c0.2,0.4,0.3,0.9,0.4,1.3
			c0.1,0.2,0.1,0.4,0.2,0.6c0.1,0.5,0.2,1,0.3,1.5c0,0.1,0.1,0.2,0.1,0.4c0.1,0.7,0.2,1.3,0.2,2l-19.8,1L-159.9-291.8z"/>
		<path class="plain8" d="M-174.2-296.8c1.2-0.1,2.4,0,3.6,0.2c0.1,0,0.1,0,0.2,0c0.5,0.1,1,0.2,1.6,0.3c0.1,0,0.2,0,0.3,0.1
			c0.5,0.1,0.9,0.3,1.4,0.4c0.2,0.1,0.3,0.1,0.5,0.1c0.4,0.2,0.8,0.3,1.3,0.5c0.2,0.1,0.4,0.1,0.5,0.2c0.4,0.2,0.8,0.4,1.2,0.6
			c0.2,0.1,0.4,0.2,0.5,0.3c0.4,0.3,0.9,0.6,1.3,0.9c0.1,0.1,0.2,0.1,0.3,0.2c0.5,0.4,1,0.8,1.5,1.3l-13.3,14.7L-174.2-296.8z"/>
	</g>
	<path class="plain2" d="M-171.2-279.1c-0.2,0.8-0.9,1.3-1.7,1.1c-0.8-0.2-1.3-0.9-1.1-1.7c0.2-0.8,3.8-10.9,3.8-10.9
		S-171-279.9-171.2-279.1z"/>
	<circle class="plain0" cx="-173.2" cy="-277.1" r="4.7"/>
</g>
<g>
	<path class="plain1" d="M20-356.1c-26.5,0-48,21.5-48,48c0,26.5,21.5,48,48,48c26.5,0,48-21.5,48-48C68-334.6,46.5-356.1,20-356.1z"/>
	<circle class="plain2" cx="20" cy="-308.1" r="37.2"/>
</g>
<path class="plain3" d="M-108.8-55.8c0,0.8-0.7,1.5-1.5,1.5c-0.8,0-1.5-0.7-1.5-1.5s1.5-11.5,1.5-11.5S-108.8-56.6-108.8-55.8z"/>
<g>
	<polygon class="plain2" points="-176.2,-40.8 -235.5,-40.8 -253,-137.9 -158.7,-137.9 	"/>
	<polygon class="plain1" points="-177.7,-43 -234,-43 -250,-135.7 -161.7,-135.7 	"/>
	<circle class="plain2" cx="-205.9" cy="-108.2" r="19.8"/>
	<rect x="-229.6" y="-108.2" class="plain1" width="47.5" height="19.8"/>
	<g>
		<path class="plain6" d="M-219.9-122.2c-0.9,0.9-1.6,1.8-2.3,2.8c0,0-0.1,0.1-0.1,0.1c-0.3,0.4-0.6,0.9-0.8,1.4
			c-0.1,0.1-0.1,0.2-0.2,0.3c-0.2,0.4-0.4,0.9-0.6,1.3c-0.1,0.1-0.1,0.3-0.2,0.4c-0.2,0.4-0.3,0.8-0.5,1.3c-0.1,0.2-0.1,0.4-0.2,0.6
			c-0.1,0.4-0.2,0.9-0.3,1.3c0,0.2-0.1,0.4-0.1,0.6c-0.1,0.5-0.2,1-0.2,1.5c0,0.1,0,0.3-0.1,0.4c-0.1,0.7-0.1,1.3-0.1,2h19.8
			L-219.9-122.2z"/>
		<path class="plain7" d="M-205.9-128c-1.2,0-2.4,0.1-3.6,0.3c-0.1,0-0.1,0-0.2,0c-0.5,0.1-1,0.2-1.5,0.4c-0.1,0-0.2,0.1-0.3,0.1
			c-0.5,0.1-0.9,0.3-1.4,0.5c-0.2,0.1-0.3,0.1-0.5,0.2c-0.4,0.2-0.8,0.4-1.2,0.6c-0.2,0.1-0.4,0.2-0.5,0.3c-0.4,0.2-0.8,0.4-1.2,0.7
			c-0.2,0.1-0.3,0.2-0.5,0.3c-0.4,0.3-0.8,0.6-1.3,0.9c-0.1,0.1-0.2,0.1-0.3,0.2c-0.5,0.4-1,0.9-1.5,1.3l14,14V-128z"/>
		<path class="plain4" d="M-191.9-122.2c0.9,0.9,1.6,1.8,2.3,2.8c0,0,0.1,0.1,0.1,0.1c0.3,0.4,0.6,0.9,0.8,1.4c0.1,0.1,0.1,0.2,0.2,0.3
			c0.2,0.4,0.4,0.9,0.6,1.3c0.1,0.1,0.1,0.3,0.2,0.4c0.2,0.4,0.3,0.8,0.5,1.3c0.1,0.2,0.1,0.4,0.2,0.6c0.1,0.4,0.2,0.9,0.3,1.3
			c0,0.2,0.1,0.4,0.1,0.6c0.1,0.5,0.2,1,0.2,1.5c0,0.1,0,0.3,0.1,0.4c0.1,0.7,0.1,1.3,0.1,2h-19.8L-191.9-122.2z"/>
		<path class="plain8" d="M-205.9-128c1.2,0,2.4,0.1,3.6,0.3c0.1,0,0.1,0,0.2,0c0.5,0.1,1,0.2,1.5,0.4c0.1,0,0.2,0.1,0.3,0.1
			c0.5,0.1,0.9,0.3,1.4,0.5c0.2,0.1,0.3,0.1,0.5,0.2c0.4,0.2,0.8,0.4,1.2,0.6c0.2,0.1,0.4,0.2,0.5,0.3c0.4,0.2,0.8,0.4,1.2,0.7
			c0.2,0.1,0.3,0.2,0.5,0.3c0.4,0.3,0.8,0.6,1.3,0.9c0.1,0.1,0.2,0.1,0.3,0.2c0.5,0.4,1,0.9,1.5,1.3l-14,14V-128z"/>
	</g>
	<path class="plain2" d="M-203.7-110.1c-0.2,0.8-1,1.2-1.8,1c-0.8-0.2-1.2-1-1-1.8c0.2-0.8,4.4-10.7,4.4-10.7S-203.5-110.9-203.7-110.1
		z"/>
	<circle class="plain0" cx="-205.9" cy="-108.2" r="4.7"/>
</g>
<rect x="-313.3" y="-51.5" style="fill:none;" width="126.5" height="21.3"/>
<text transform="matrix(1 0 0 1 -290.4447 -42.9323)" style="font-family:'MyriadPro-Regular'; font-size:12px;">Unskewed body</text>
<rect x="-177.7" y="-42.5" style="fill:none;" width="126.5" height="21.3"/>
<text transform="matrix(1 0 0 1 -158.5687 -33.9828)" style="font-family:'MyriadPro-Regular'; font-size:12px;">Unrotated needle</text>
<rect x="-59.2" y="-249.2" style="fill:none;" width="192" height="52"/>
<text transform="matrix(1 0 0 1 -5.9831 -240.6486)"><tspan x="0" y="0" style="font-family:'MyriadPro-Regular'; font-size:12px;">Uncropped circle </tspan><tspan x="-16.8" y="14.4" style="font-family:'MyriadPro-Regular'; font-size:12px;">(used for arms and legs)</tspan></text>
<circle class="plain4" cx="52" cy="-144.5" r="5"/>
<path class="plain5" d="M43.8-139.5"/>
<path class="plain5" d="M48-141.5c0,0-24,10.7-13.5,41.7"/>
<polyline class="plain5" points="50,-107.2 45.8,-106.1 54,-102.5 48.8,-100.7 "/>
<circle class="plain4" cx="106" cy="-141.5" r="5"/>
<path class="plain5" d="M97.8-136.5"/>
<path class="plain5" d="M111-96.8c0.9-5.2-0.5-15.6-2-24.4l3.2-3.2l-8.1-0.8l3.7-2.2c-1-5.3-1.9-9.1-1.9-9.1"/>
<rect x="4.8" y="-78.5" style="fill:none;" width="172" height="64"/>
<text transform="matrix(1 0 0 1 58.8294 -69.9821)" style="font-family:'MyriadPro-Regular'; font-size:12px;">Antenna bits</text>
<g>
	<path class="plain0" d="M221.1-329.1c2.8,10.1-0.8,21.3-9.7,27.8c-8,5.8-18.1,6.3-26.4,2.3l-3.2,6.7c10.7,5.1,23.7,4.4,34-3
		c11.6-8.4,16.1-22.8,12.5-35.8L221.1-329.1z"/>
	<path class="plain0" d="M228.4-345.4c0.1,0.1,0.2,0.2,0.4,0.3c2.5,2.4,2.7,6.3,0.3,8.8c-2.4,2.5-6.3,2.7-8.8,0.3
		c-2.5-2.4-2.7-6.3-0.3-8.8c0.2-0.2,0.4-0.4,0.6-0.6l-4.7-5.8c-0.5,0.4-1,0.8-1.4,1.3c-5.2,5.6-4.8,14.3,0.7,19.4
		c5.6,5.2,14.3,4.8,19.4-0.7c5.2-5.6,4.8-14.3-0.7-19.4c-0.3-0.2-0.5-0.5-0.8-0.7L228.4-345.4z"/>
	<circle class="plain3" cx="224.5" cy="-331.1" r="4.9"/>
</g>
<rect x="164.8" y="-262.5" style="fill:none;" width="109.3" height="50.7"/>
<text transform="matrix(1 0 0 1 207.4749 -253.9821)" style="font-family:'MyriadPro-Regular'; font-size:12px;">Arm!</text>
<g>
	<g>
		<circle class="plain4" cx="-147.3" cy="13.4" r="5"/>
		<path class="plain5" d="M-155.6,18.5"/>
		<path class="plain5" d="M-164.8,58.1c-4.6-13.7-2.6-23.4,1.2-30l5.9,0l-6.8-5l4.5,0c4.2-4.7,8.6-6.7,8.6-6.7"/>
	</g>
	<path class="plain0" d="M-165.3,54.3c-18,0-32.7,14.6-32.7,32.7V92h65.3v-5.1C-132.7,68.9-147.3,54.3-165.3,54.3z"/>
	<circle class="plain3" cx="-169.2" cy="82.4" r="1.7"/>
	<circle class="plain3" cx="-157.8" cy="82.4" r="1.7"/>
</g>
<path class="plain0" d="M-89.5,74.7l-7.2,2c2.8,10.1-0.8,21.3-9.7,27.8c-4.6,3.4-10,4.9-15.3,4.9l-1.3,7.4c7.3,0.3,14.7-1.7,21-6.3
	C-90.5,102.1-86,87.7-89.5,74.7z"/>
<path class="plain0" d="M-210.2,109c-5.5,2.2-10.5,5.9-14.3,11c-8.5,11.5-8.6,26.6-1.2,37.9l6.3-4.1c-5.7-8.8-5.6-20.5,1-29.4
	c2.6-3.5,6-6.2,9.7-7.9L-210.2,109z"/>
<polygon class="plain1" points="-137.7,190.2 -194,188.2 -210,95.5 -121.7,93.5 "/>
<g>
	<circle class="plain2" cx="-165.8" cy="123" r="19.8"/>

		<rect x="-189.1" y="123" transform="matrix(-0.9987 5.183915e-02 -5.183915e-02 -0.9987 -323.5933 274.2252)" class="plain1" width="47.5" height="19.8"/>
	<g>
		<path class="plain6" d="M-180.6,109.7c-0.8,0.9-1.5,1.9-2.2,2.9c0,0.1-0.1,0.1-0.1,0.2c-0.3,0.5-0.5,0.9-0.8,1.4
			c-0.1,0.1-0.1,0.2-0.2,0.3c-0.2,0.4-0.4,0.9-0.6,1.3c-0.1,0.2-0.1,0.3-0.2,0.5c-0.2,0.4-0.3,0.9-0.4,1.3c-0.1,0.2-0.1,0.4-0.2,0.6
			c-0.1,0.4-0.2,0.9-0.3,1.3c0,0.2-0.1,0.4-0.1,0.6c-0.1,0.5-0.1,1-0.2,1.6c0,0.1,0,0.3,0,0.4c0,0.7,0,1.3,0,2l19.8-1L-180.6,109.7z
			"/>
		<path class="plain7" d="M-166.9,103.2c-1.2,0.1-2.4,0.2-3.6,0.5c-0.1,0-0.1,0-0.2,0c-0.5,0.1-1,0.3-1.5,0.5c-0.1,0-0.2,0.1-0.3,0.1
			c-0.5,0.2-0.9,0.4-1.4,0.6c-0.1,0.1-0.3,0.1-0.4,0.2c-0.4,0.2-0.8,0.4-1.2,0.6c-0.2,0.1-0.3,0.2-0.5,0.3c-0.4,0.2-0.8,0.5-1.1,0.7
			c-0.2,0.1-0.3,0.2-0.5,0.3c-0.4,0.3-0.8,0.6-1.2,1c-0.1,0.1-0.2,0.2-0.3,0.2c-0.5,0.4-1,0.9-1.4,1.4l14.7,13.3L-166.9,103.2z"/>
		<path class="plain4" d="M-152.6,108.3c0.9,0.8,1.7,1.7,2.5,2.7c0,0,0.1,0.1,0.1,0.1c0.3,0.4,0.6,0.9,0.9,1.3c0.1,0.1,0.1,0.2,0.2,0.3
			c0.3,0.4,0.5,0.8,0.7,1.3c0.1,0.1,0.2,0.3,0.2,0.4c0.2,0.4,0.4,0.8,0.5,1.3c0.1,0.2,0.2,0.4,0.2,0.5c0.2,0.4,0.3,0.9,0.4,1.3
			c0.1,0.2,0.1,0.4,0.2,0.6c0.1,0.5,0.2,1,0.3,1.5c0,0.1,0.1,0.2,0.1,0.4c0.1,0.7,0.2,1.3,0.2,2l-19.8,1L-152.6,108.3z"/>
		<path class="plain8" d="M-166.9,103.2c1.2-0.1,2.4,0,3.6,0.2c0.1,0,0.1,0,0.2,0c0.5,0.1,1,0.2,1.6,0.3c0.1,0,0.2,0,0.3,0.1
			c0.5,0.1,0.9,0.3,1.4,0.4c0.2,0.1,0.3,0.1,0.5,0.1c0.4,0.2,0.8,0.3,1.3,0.5c0.2,0.1,0.4,0.1,0.5,0.2c0.4,0.2,0.8,0.4,1.2,0.6
			c0.2,0.1,0.4,0.2,0.5,0.3c0.4,0.3,0.9,0.6,1.3,0.9c0.1,0.1,0.2,0.1,0.3,0.2c0.5,0.4,1,0.8,1.5,1.3l-13.3,14.7L-166.9,103.2z"/>
	</g>
	<path class="plain2" d="M-163.8,120.9c-0.2,0.8-0.9,1.3-1.7,1.1c-0.8-0.2-1.3-0.9-1.1-1.7s3.8-10.9,3.8-10.9S-163.7,120.2-163.8,120.9
		z"/>
	<circle class="plain0" cx="-165.8" cy="123" r="4.7"/>
</g>
<g>
	<path class="plain0" d="M-217.4,171.6c-0.2,0-0.3,0-0.5-0.1c-3.4-0.6-5.7-3.8-5.1-7.2c0.6-3.4,3.8-5.7,7.2-5.1
		c3.4,0.6,5.7,3.8,5.1,7.2c0,0.3-0.1,0.6-0.2,0.9l7.1,2.2c0.2-0.6,0.4-1.2,0.5-1.9c1.3-7.5-3.8-14.6-11.3-15.8
		c-7.5-1.3-14.6,3.8-15.8,11.3c-1.3,7.5,3.8,14.6,11.3,15.8c0.3,0.1,0.7,0.1,1,0.1L-217.4,171.6z"/>
	<circle class="plain3" cx="-222.2" cy="156.9" r="4.9"/>
</g>
<g>
	<path class="plain0" d="M-89.4,60.3c0.1,0.1,0.2,0.2,0.4,0.3c2.5,2.4,2.7,6.3,0.3,8.8c-2.4,2.5-6.3,2.7-8.8,0.3
		c-2.5-2.4-2.7-6.3-0.3-8.8c0.2-0.2,0.4-0.4,0.6-0.6l-4.7-5.8c-0.5,0.4-1,0.8-1.4,1.3c-5.2,5.6-4.8,14.3,0.7,19.4
		c5.6,5.2,14.3,4.8,19.4-0.7c5.2-5.6,4.8-14.3-0.7-19.4c-0.3-0.2-0.5-0.5-0.8-0.7L-89.4,60.3z"/>
	<circle class="plain3" cx="-93.3" cy="74.7" r="4.9"/>
</g>
<path class="plain1" d="M-178.9,220.9c2-5.2,7.4-8.6,13.1-7.7c5.7,0.9,9.9,5.6,10.3,11.2l4.7,0.7c0-8.2-6-15.3-14.3-16.5
	c-8.3-1.2-16.1,3.8-18.5,11.6L-178.9,220.9z"/>
<circle class="plain1" cx="-167.6" cy="225.2" r="9.5"/>
<g>
	<path class="plain0" d="M64.1,191.8c-0.3,3.6-1.3,6.9-2.8,10c1.4-0.1,2.8-0.1,4.3,0.1c1.5,0.2,3,0.7,4.4,1.3c1.3-3.3,2.2-6.8,2.6-10.5
		c0.3-3.2,0.2-6.4-0.3-9.4l-8.7-0.3C64.2,185.7,64.4,188.7,64.1,191.8z"/>
</g>
<circle class="plain9" cx="83.8" cy="5" r="5"/>
<path class="plain5" d="M75.5,10"/>
<path class="plain1" d="M65.8,49.8c-4-11.7-3.6-22,1.2-30.4l0.1-0.3l4.7,0l-6.8-5l5.8,0c4.2-4.6,8.5-6.6,8.7-6.6l0.4,0.9
	c0,0-4.4,2-8.5,6.6l-0.1,0.2l-3.2,0l6.8,5l-7.2,0c-4.5,8.1-4.8,18-1,29.3L65.8,49.8z"/>
<path class="plain0" d="M65.7,45.8c-18,0-32.7,14.6-32.7,32.7v5.1h65.3v-5.1C98.4,60.4,83.8,45.8,65.7,45.8z"/>
<circle class="eyes plain3" cx="61.9" cy="74" r="1.7"/>
<circle class="eyes plain3" cx="73.2" cy="74" r="1.7"/>
<path class="plain0" d="M141.5,66.2l-7.2,2c2.8,10.1-0.8,21.3-9.7,27.8c-4.6,3.4-10,4.9-15.3,4.9l-1.3,7.4c7.3,0.3,14.7-1.7,21-6.3
	C140.6,93.6,145.1,79.2,141.5,66.2z"/>
<path class="plain0" d="M20.9,100.6c-5.5,2.2-10.5,5.9-14.3,11c-8.5,11.5-8.6,26.6-1.2,37.9l6.3-4.1c-5.7-8.8-5.6-20.5,1-29.4
	c2.6-3.5,6-6.2,9.7-7.9L20.9,100.6z"/>
<polygon class="plain1" points="93.4,181.7 37.1,179.7 21.1,87 109.4,85 "/>
<g>
	<circle class="plain2" cx="65.2" cy="114.6" r="19.8"/>

		<rect x="42" y="114.6" transform="matrix(-0.9987 5.183915e-02 -5.183915e-02 -0.9987 137.8293 245.3802)" class="plain1" width="47.5" height="19.8"/>
	<g>
		<path class="plain10" d="M50.5,101.3c-0.8,0.9-1.5,1.9-2.2,2.9c0,0.1-0.1,0.1-0.1,0.2c-0.3,0.5-0.5,0.9-0.8,1.4
			c-0.1,0.1-0.1,0.2-0.2,0.3c-0.2,0.4-0.4,0.9-0.6,1.3c-0.1,0.2-0.1,0.3-0.2,0.5c-0.2,0.4-0.3,0.9-0.4,1.3c-0.1,0.2-0.1,0.4-0.2,0.6
			c-0.1,0.4-0.2,0.9-0.3,1.3c0,0.2-0.1,0.4-0.1,0.6c-0.1,0.5-0.1,1-0.2,1.6c0,0.1,0,0.3,0,0.4c0,0.7,0,1.3,0,2l19.8-1L50.5,101.3z"
			/>
		<path class="plain11" d="M64.2,94.8c-1.2,0.1-2.4,0.2-3.6,0.5c-0.1,0-0.1,0-0.2,0c-0.5,0.1-1,0.3-1.5,0.5c-0.1,0-0.2,0.1-0.3,0.1
			c-0.5,0.2-0.9,0.4-1.4,0.6c-0.1,0.1-0.3,0.1-0.4,0.2c-0.4,0.2-0.8,0.4-1.2,0.6c-0.2,0.1-0.3,0.2-0.5,0.3c-0.4,0.2-0.8,0.5-1.1,0.7
			c-0.2,0.1-0.3,0.2-0.5,0.3c-0.4,0.3-0.8,0.6-1.2,1c-0.1,0.1-0.2,0.2-0.3,0.2c-0.5,0.4-1,0.9-1.4,1.4l14.7,13.3L64.2,94.8z"/>
		<path class="plain12" d="M78.5,99.9c0.9,0.8,1.7,1.7,2.5,2.7c0,0,0.1,0.1,0.1,0.1c0.3,0.4,0.6,0.9,0.9,1.3c0.1,0.1,0.1,0.2,0.2,0.3
			c0.3,0.4,0.5,0.8,0.7,1.3c0.1,0.1,0.2,0.3,0.2,0.4c0.2,0.4,0.4,0.8,0.5,1.3c0.1,0.2,0.2,0.4,0.2,0.5c0.2,0.4,0.3,0.9,0.4,1.3
			c0.1,0.2,0.1,0.4,0.2,0.6c0.1,0.5,0.2,1,0.3,1.5c0,0.1,0.1,0.2,0.1,0.4c0.1,0.7,0.2,1.3,0.2,2l-19.8,1L78.5,99.9z"/>
		<path class="plain13" d="M64.2,94.8c1.2-0.1,2.4,0,3.6,0.2c0.1,0,0.1,0,0.2,0c0.5,0.1,1,0.2,1.6,0.3c0.1,0,0.2,0,0.3,0.1
			c0.5,0.1,0.9,0.3,1.4,0.4c0.2,0.1,0.3,0.1,0.5,0.1c0.4,0.2,0.8,0.3,1.3,0.5c0.2,0.1,0.4,0.1,0.5,0.2c0.4,0.2,0.8,0.4,1.2,0.6
			c0.2,0.1,0.4,0.2,0.5,0.3c0.4,0.3,0.9,0.6,1.3,0.9c0.1,0.1,0.2,0.1,0.3,0.2c0.5,0.4,1,0.8,1.5,1.3l-13.3,14.7L64.2,94.8z"/>
	</g>
	<path class="plain2" d="M67.3,112.5c-0.2,0.8-0.9,1.3-1.7,1.1s-1.3-0.9-1.1-1.7c0.2-0.8,3.8-10.9,3.8-10.9S67.4,111.7,67.3,112.5z"/>
	<circle class="plain0" cx="65.2" cy="114.6" r="4.7"/>
</g>
<g>
	<path class="plain0" d="M13.7,163.1c-0.2,0-0.3,0-0.5-0.1c-3.4-0.6-5.7-3.8-5.1-7.2c0.6-3.4,3.8-5.7,7.2-5.1c3.4,0.6,5.7,3.8,5.1,7.2
		c0,0.3-0.1,0.6-0.2,0.9l7.1,2.2c0.2-0.6,0.4-1.2,0.5-1.9c1.3-7.5-3.8-14.6-11.3-15.8c-7.5-1.3-14.6,3.8-15.8,11.3
		c-1.3,7.5,3.8,14.6,11.3,15.8c0.3,0.1,0.7,0.1,1,0.1L13.7,163.1z"/>
	<circle class="plain3" cx="8.9" cy="148.5" r="4.9"/>
</g>
<g>
	<path class="plain0" d="M141.6,51.9c0.1,0.1,0.2,0.2,0.4,0.3c2.5,2.4,2.7,6.3,0.3,8.8s-6.3,2.7-8.8,0.3c-2.5-2.4-2.7-6.3-0.3-8.8
		c0.2-0.2,0.4-0.4,0.6-0.6l-4.7-5.8c-0.5,0.4-1,0.8-1.4,1.3c-5.2,5.6-4.8,14.3,0.7,19.4c5.6,5.2,14.3,4.8,19.4-0.7
		c5.2-5.6,4.8-14.3-0.7-19.4c-0.3-0.2-0.5-0.5-0.8-0.7L141.6,51.9z"/>
	<circle class="plain3" cx="137.7" cy="66.2" r="4.9"/>
</g>
<path class="plain1" d="M52.1,212.4c2-5.2,7.4-8.6,13.1-7.7c5.7,0.9,9.9,5.6,10.3,11.2l4.7,0.7c0-8.2-6-15.3-14.3-16.5
	c-8.3-1.2-16.1,3.8-18.5,11.6L52.1,212.4z"/>
<circle class="plain1" cx="63.5" cy="216.7" r="9.5"/>
</svg>
