<?xml version="1.0" encoding="utf-8"?>
<!-- Generator: Adobe Illustrator 19.0.1, SVG Export Plug-In . SVG Version: 6.00 Build 0)  -->
<svg class="top-robot" version="1.1" id="Layer_1" xmlns="http://www.w3.org/2000/svg" xmlns:xlink="http://www.w3.org/1999/xlink" x="0px" y="0px"
	 width="151.5px" height="226.2px" viewBox="0 0 151.5 226.2" style="enable-background:new 0 0 151.5 226.2;" xml:space="preserve"
	>
<style type="text/css">
	.plain0{fill:#E5E5E5;}
	.plain1{fill:#EA6361;}
	.plain2{fill:none;stroke:#C4C4C3;stroke-miterlimit:10;}
	.plain3{fill:#C4C4C3;}
	.plain4{fill:#969696;}
	.plain5{fill:#FFFFFF;}
	.plain6{fill:#E28888;}
	.plain7{fill:#EFE4A6;}
	.plain8{fill:#8CCED8;}
	.plain9{fill:#AFBB87;}
</style>
<g>
	<path class="plain0" d="M64.1,191.8c-0.3,3.6-1.3,6.9-2.8,10c1.4-0.1,2.8-0.1,4.3,0.1c1.5,0.2,3,0.7,4.4,1.3c1.3-3.3,2.2-6.8,2.6-10.5
		c0.3-3.2,0.2-6.4-0.3-9.4l-8.7-0.3C64.2,185.7,64.4,188.7,64.1,191.8z"/>
</g>
<circle class="plain1" cx="83.8" cy="5" r="5"/>
<path class="plain2" d="M75.5,10"/>
<path class="plain3" d="M65.8,49.8c-4-11.7-3.6-22,1.2-30.4l0.1-0.3l4.7,0l-6.8-5l5.8,0c4.2-4.6,8.5-6.6,8.7-6.6l0.4,0.9
	c0,0-4.4,2-8.5,6.6l-0.1,0.2l-3.2,0l6.8,5l-7.2,0c-4.5,8.1-4.8,18-1,29.3L65.8,49.8z"/>
<path class="plain0" d="M65.7,45.8c-18,0-32.7,14.6-32.7,32.7v5.1h65.3v-5.1C98.4,60.4,83.8,45.8,65.7,45.8z"/>
<circle class="plain4" cx="61.9" cy="74" r="1.7"/>
<circle class="plain4" cx="73.2" cy="74" r="1.7"/>
<path class="plain0" d="M141.5,66.2l-7.2,2c2.8,10.1-0.8,21.3-9.7,27.8c-4.6,3.4-10,4.9-15.3,4.9l-1.3,7.4c7.3,0.3,14.7-1.7,21-6.3
	C140.6,93.6,145.1,79.2,141.5,66.2z"/>
<path class="plain0" d="M20.9,100.6c-5.5,2.2-10.5,5.9-14.3,11c-8.5,11.5-8.6,26.6-1.2,37.9l6.3-4.1c-5.7-8.8-5.6-20.5,1-29.4
	c2.6-3.5,6-6.2,9.7-7.9L20.9,100.6z"/>
<polygon class="plain3" points="93.4,181.7 37.1,179.7 21.1,87 109.4,85 "/>
<g>
	<circle class="plain5" cx="65.2" cy="114.6" r="19.8"/>

		<rect x="42" y="114.6" transform="matrix(-0.9987 5.183915e-02 -5.183915e-02 -0.9987 137.8293 245.3802)" class="plain3" width="47.5" height="19.8"/>
	<g>
		<path class="plain6" d="M50.5,101.3c-0.8,0.9-1.5,1.9-2.2,2.9c0,0.1-0.1,0.1-0.1,0.2c-0.3,0.5-0.5,0.9-0.8,1.4
			c-0.1,0.1-0.1,0.2-0.2,0.3c-0.2,0.4-0.4,0.9-0.6,1.3c-0.1,0.2-0.1,0.3-0.2,0.5c-0.2,0.4-0.3,0.9-0.4,1.3c-0.1,0.2-0.1,0.4-0.2,0.6
			c-0.1,0.4-0.2,0.9-0.3,1.3c0,0.2-0.1,0.4-0.1,0.6c-0.1,0.5-0.1,1-0.2,1.6c0,0.1,0,0.3,0,0.4c0,0.7,0,1.3,0,2l19.8-1L50.5,101.3z"
			/>
		<path class="plain7" d="M64.2,94.8c-1.2,0.1-2.4,0.2-3.6,0.5c-0.1,0-0.1,0-0.2,0c-0.5,0.1-1,0.3-1.5,0.5c-0.1,0-0.2,0.1-0.3,0.1
			c-0.5,0.2-0.9,0.4-1.4,0.6c-0.1,0.1-0.3,0.1-0.4,0.2c-0.4,0.2-0.8,0.4-1.2,0.6c-0.2,0.1-0.3,0.2-0.5,0.3c-0.4,0.2-0.8,0.5-1.1,0.7
			c-0.2,0.1-0.3,0.2-0.5,0.3c-0.4,0.3-0.8,0.6-1.2,1c-0.1,0.1-0.2,0.2-0.3,0.2c-0.5,0.4-1,0.9-1.4,1.4l14.7,13.3L64.2,94.8z"/>
		<path class="plain8" d="M78.5,99.9c0.9,0.8,1.7,1.7,2.5,2.7c0,0,0.1,0.1,0.1,0.1c0.3,0.4,0.6,0.9,0.9,1.3c0.1,0.1,0.1,0.2,0.2,0.3
			c0.3,0.4,0.5,0.8,0.7,1.3c0.1,0.1,0.2,0.3,0.2,0.4c0.2,0.4,0.4,0.8,0.5,1.3c0.1,0.2,0.2,0.4,0.2,0.5c0.2,0.4,0.3,0.9,0.4,1.3
			c0.1,0.2,0.1,0.4,0.2,0.6c0.1,0.5,0.2,1,0.3,1.5c0,0.1,0.1,0.2,0.1,0.4c0.1,0.7,0.2,1.3,0.2,2l-19.8,1L78.5,99.9z"/>
		<path class="plain9" d="M64.2,94.8c1.2-0.1,2.4,0,3.6,0.2c0.1,0,0.1,0,0.2,0c0.5,0.1,1,0.2,1.6,0.3c0.1,0,0.2,0,0.3,0.1
			c0.5,0.1,0.9,0.3,1.4,0.4c0.2,0.1,0.3,0.1,0.5,0.1c0.4,0.2,0.8,0.3,1.3,0.5c0.2,0.1,0.4,0.1,0.5,0.2c0.4,0.2,0.8,0.4,1.2,0.6
			c0.2,0.1,0.4,0.2,0.5,0.3c0.4,0.3,0.9,0.6,1.3,0.9c0.1,0.1,0.2,0.1,0.3,0.2c0.5,0.4,1,0.8,1.5,1.3l-13.3,14.7L64.2,94.8z"/>
	</g>
	<path class="plain5" d="M67.3,112.5c-0.2,0.8-0.9,1.3-1.7,1.1s-1.3-0.9-1.1-1.7c0.2-0.8,3.8-10.9,3.8-10.9S67.4,111.7,67.3,112.5z"/>
	<circle class="plain0" cx="65.2" cy="114.6" r="4.7"/>
</g>
<g>
	<path class="plain0" d="M13.7,163.1c-0.2,0-0.3,0-0.5-0.1c-3.4-0.6-5.7-3.8-5.1-7.2c0.6-3.4,3.8-5.7,7.2-5.1c3.4,0.6,5.7,3.8,5.1,7.2
		c0,0.3-0.1,0.6-0.2,0.9l7.1,2.2c0.2-0.6,0.4-1.2,0.5-1.9c1.3-7.5-3.8-14.6-11.3-15.8c-7.5-1.3-14.6,3.8-15.8,11.3
		c-1.3,7.5,3.8,14.6,11.3,15.8c0.3,0.1,0.7,0.1,1,0.1L13.7,163.1z"/>
	<circle class="plain4" cx="8.9" cy="148.5" r="4.9"/>
</g>
<g>
	<path class="plain0" d="M141.6,51.9c0.1,0.1,0.2,0.2,0.4,0.3c2.5,2.4,2.7,6.3,0.3,8.8s-6.3,2.7-8.8,0.3c-2.5-2.4-2.7-6.3-0.3-8.8
		c0.2-0.2,0.4-0.4,0.6-0.6l-4.7-5.8c-0.5,0.4-1,0.8-1.4,1.3c-5.2,5.6-4.8,14.3,0.7,19.4c5.6,5.2,14.3,4.8,19.4-0.7
		c5.2-5.6,4.8-14.3-0.7-19.4c-0.3-0.2-0.5-0.5-0.8-0.7L141.6,51.9z"/>
	<circle class="plain4" cx="137.7" cy="66.2" r="4.9"/>
</g>
<path class="plain3" d="M52.1,212.4c2-5.2,7.4-8.6,13.1-7.7c5.7,0.9,9.9,5.6,10.3,11.2l4.7,0.7c0-8.2-6-15.3-14.3-16.5
	c-8.3-1.2-16.1,3.8-18.5,11.6L52.1,212.4z"/>
<circle class="plain3" cx="63.5" cy="216.7" r="9.5"/>
</svg>
