<svg id="Layer_1" xmlns="http://www.w3.org/2000/svg" width="188.3" height="226.2" viewBox="0 0 188.3 226.2"><style>.modern0{fill:#c4c4c3}.modern1{fill:#e5e5e5}.modern2{fill:none}.modern3{fill:#3cbfb8}.modern4{fill:#127067}.modern4,.modern5{opacity:.1}.modern6,.modern7{fill:#127067}.modern7,.modern8{opacity:.2}.modern9{fill:#969696}.modern10{fill:#c4ae7e}.modern11{fill:#bc4926}.modern12{fill:#60371a}.modern13{fill:#383838}</style><path class="modern0" d="M123.1 178.2H66.9L50.8 85.5h88.4z"/><path class="modern1" d="M44.6 144.7c-8.3-6.3-12.3-17.4-9-28 2.8-9.4 10.6-16 19.6-17.8l-1.5-7.3c-11.6 2.4-21.6 10.8-25.3 23-4.1 13.7.9 27.9 11.7 36.1l4.5-6zM142.3 146.1c8.3-6.3 12.3-17.4 9-28-2.8-9.4-10.6-16-19.6-17.8l1.5-7.3c11.6 2.4 21.6 10.8 25.3 23 4.1 13.7-.9 27.9-11.7 36.1l-4.5-6zM93.2 180.4c1.1 3.6 1.5 7.4 1.2 11.4-.4 4.4-1.8 8.5-3.9 12.1 1.8-.3 3.6-.4 5.4-.1 1.3.2 2.5.5 3.6 1 1.7-3.8 2.9-7.9 3.3-12.2.4-4.2.1-8.3-.8-12.1h-8.8z"/><path class="modern0" d="M82.4 212.4c2-5.2 7.4-8.6 13.1-7.7 5.7.9 9.9 5.6 10.3 11.2l4.7.7c0-8.2-6-15.3-14.3-16.5-8.3-1.2-16.1 3.8-18.5 11.6l4.7.7z"/><circle class="modern0" cx="93.8" cy="216.7" r="9.5"/><path class="modern2" d="M123.1 178.2H66.9L50.8 85.5h88.4z"/><path class="modern3" d="M159 139.6c6.4-15.5 1.2-33.8-13.2-43.5-2.3-1.5-4.7-2.8-7.2-3.7l.5-6.9H50.8l.3 4.5c-3.5 1-6.9 2.6-10.1 4.7-14.4 9.7-19.6 28.1-13.2 43.5l-3.1 2.1 5.6 8.3 13.9-9.4-5.6-8.3-1.4 1c-3.1-10.3.6-21.8 10-28.1 1.5-1 3.1-1.8 4.7-2.5l4.6 63.5s15.4 8 39.5 8 37.4-8 37.4-8l4.4-60.7c.6.3 1.3.7 1.9 1.1 9.4 6.3 13.1 17.8 10 28.1l-1.4-1-5.6 8.3 13.9 9.4 5.6-8.3-3.2-2.1z"/><path class="modern2" d="M159.4 139.6c6.4-15.5 1.2-33.8-13.2-43.5-2.3-1.5-4.7-2.8-7.2-3.7l.5-6.9H51.2l.3 4.5c-3.5 1-6.9 2.6-10.1 4.7-14.4 9.7-19.6 28.1-13.2 43.5l-3.1 2.1 5.6 8.3 13.9-9.4-5.6-8.3-1.4 1c-3.1-10.3.6-21.8 10-28.1 1.5-1 3.1-1.8 4.7-2.5l4.6 63.5s15.4 8 39.5 8 37.4-8 37.4-8l4.4-60.7c.6.3 1.3.7 1.9 1.1 9.4 6.3 13.1 17.8 10 28.1l-1.4-1-5.6 8.3L157 150l5.6-8.3-3.2-2.1z"/><path class="modern2" d="M159 139.6c6.4-15.5 1.2-33.8-13.2-43.5-2.3-1.5-4.7-2.8-7.2-3.7l.5-6.9H50.8l.3 4.5c-3.5 1-6.9 2.6-10.1 4.7-14.4 9.7-19.6 28.1-13.2 43.5l-3.1 2.1 5.6 8.3 13.9-9.4-5.6-8.3-1.4 1c-3.1-10.3.6-21.8 10-28.1 1.5-1 3.1-1.8 4.7-2.5l4.6 63.5s15.4 8 39.5 8 37.4-8 37.4-8l4.4-60.7c.6.3 1.3.7 1.9 1.1 9.4 6.3 13.1 17.8 10 28.1l-1.4-1-5.6 8.3 13.9 9.4 5.6-8.3-3.2-2.1z"/><path class="modern2" d="M159 139.6c6.4-15.5 1.2-33.8-13.2-43.5-2.3-1.5-4.7-2.8-7.2-3.7l.5-6.9H50.8l.3 4.5c-3.5 1-6.9 2.6-10.1 4.7-14.4 9.7-19.6 28.1-13.2 43.5l-3.1 2.1 5.6 8.3 13.9-9.4-5.6-8.3-1.4 1c-3.1-10.3.6-21.8 10-28.1 1.5-1 3.1-1.8 4.7-2.5l4.6 63.5s15.4 8 39.5 8 37.4-8 37.4-8l4.4-60.7c.6.3 1.3.7 1.9 1.1 9.4 6.3 13.1 17.8 10 28.1l-1.4-1-5.6 8.3 13.9 9.4 5.6-8.3-3.2-2.1z"/><path class="modern4" d="M96 172.8c11 0 19.7-1.7 25.9-3.5H69.2c6.7 1.8 15.9 3.5 26.8 3.5zM56 157.6l.5 7.1s1.3.7 3.7 1.6h70c2.1-.9 3.2-1.6 3.2-1.6l.5-7.1H56z"/><g class="modern5"><path class="modern6" d="M30.4 148.5l3.8-2.5h-5.5zM134.8 146H55.2l.6 8.7h78.4zM150.6 146l5.9 4 2.8-4z"/></g><g class="modern5"><path class="modern6" d="M146.9 134.3l-4.3 6.3 3.6 2.4h15l.9-1.3-3.1-2.1c.7-1.7 1.3-3.5 1.7-5.3h-13.8zM135.6 134.3H54.4l.6 8.7h80zM44.3 139.2l-3.3-4.9H26.6c.4 1.3.8 2.6 1.3 3.9l-3.1 2.1 1.9 2.8h11.9l5.7-3.9z"/></g><g class="modern5"><path class="modern6" d="M36.3 122.6h-11c-.2 2.9 0 5.8.6 8.7h11.3c-.9-2.8-1.1-5.8-.9-8.7zM150.2 131.3h11.2c.4-2.9.5-5.8.2-8.7h-11.1c.4 2.9.3 5.8-.3 8.7zM38.7 130.9l-.7.4h1zM136.5 122.6h-83l.6 8.7h81.8z"/></g><g class="modern5"><path class="modern6" d="M145.7 110.9c2 2.6 3.4 5.6 4.2 8.7h11.2c-.5-3-1.4-6-2.7-8.7h-12.7zM137.3 110.9H52.7l.6 8.8h83.4zM27.9 110.9c-1.1 2.8-1.9 5.7-2.3 8.7h11.1c.6-3.1 1.8-6.1 3.5-8.7H27.9z"/></g><path class="modern4" d="M29.2 108h13.2c1.4-1.6 3-3 4.8-4.2 1.5-1 3.1-1.8 4.7-2.5l.5 6.7h85.1l.3-3.9c.6.3 1.3.7 1.9 1.1 1.2.8 2.4 1.8 3.4 2.8h13.8c-1.8-3.2-4.2-6.2-7.1-8.7H35.6c-2.6 2.6-4.7 5.5-6.4 8.7zM51 87.6l.2 2.4c-3.5 1-6.9 2.6-10.1 4.7-.8.5-1.5 1.1-2.3 1.7h107.3c-.1-.1-.2-.1-.3-.2-2.3-1.5-4.7-2.8-7.2-3.7l.3-4.8H51z"/><path class="modern7" d="M25.6 141.4l4.8 7.1 3.9-2.6v-45.3c-4.8 5.4-7.8 12-8.7 18.9v10.2c.4 2.9 1.2 5.8 2.3 8.6l-2.3 1.6v1.5zM139.3 92.6c-.2-.1-.4-.2-.7-.3l.5-6.9h-8.6v80.8c1.9-.8 2.9-1.4 2.9-1.4l4.4-60.7 1.5.9V92.6zM107.2 172.2c3.2-.4 6.1-.8 8.7-1.4V85.5h-8.7v86.7zM95.6 172.8h.5c2.9 0 5.7-.1 8.3-.3v-87h-8.7v87.3zM83.9 172.1c2.7.3 5.7.5 8.7.6V85.5h-8.7v86.6zM72.2 170.1c2.6.6 5.6 1.2 8.7 1.6V85.5h-8.7v84.6zM60.6 166.5c2.1.8 5.1 1.9 8.7 2.8V85.5h-8.7v81zM57.7 85.5h-6.8l.3 4.5c-.8.2-1.5.5-2.2.7v12.1c1-.6 2-1.1 3.1-1.5l4.6 63.5s.4.2 1.1.5V85.5z"/><g class="modern8"><path class="modern6" d="M38.7 130.9l-1.4 1v-.2V144l7-4.7-5.6-8.4zM46 91.9c-1.7.8-3.3 1.7-4.9 2.8-1.4.9-2.7 1.9-3.9 3v19.8c1.5-4.9 4.4-9.4 8.7-12.8V91.9z"/></g><path class="modern7" d="M118.9 170.1c3.5-.9 6.5-1.8 8.7-2.7v-82h-8.7v84.7zM148.2 132.3l-5.6 8.3 8.3 5.6v-45.9c-1.6-1.5-3.3-2.9-5.2-4.2-1.2-.8-2.4-1.5-3.6-2.1v13.2c7.5 6.6 10.2 16.8 7.4 26.1l-1.3-1zM153.9 103.5v44.7l2.6 1.8 5.6-8.3-3.1-2.1c5-12.1 3-25.9-5.1-36.1z"/><path class="modern1" d="M52.6 160.5c-.2 0-.3.1-.5.1-3.4.6-6.7-1.6-7.3-5-.6-3.4 1.6-6.7 5-7.3 3.4-.6 6.7 1.6 7.3 5 .1.3.1.6.1.9l7.5-.3c0-.6-.1-1.3-.2-1.9-1.4-7.5-8.5-12.4-16-11.1-7.5 1.4-12.4 8.5-11.1 16 1.4 7.5 8.5 12.4 16 11.1.3-.1.7-.1 1-.2l-1.8-7.3z"/><circle class="modern9" cx="43" cy="148.4" r="4.9"/><g><path class="modern1" d="M134.4 162c.2 0 .3.1.5.1 3.4.6 6.7-1.6 7.3-5 .6-3.4-1.6-6.7-5-7.3-3.4-.6-6.7 1.6-7.3 5-.1.3-.1.6-.1.9l-7.5-.3c0-.6.1-1.3.2-1.9 1.4-7.5 8.5-12.4 16-11.1 7.5 1.4 12.4 8.5 11.1 16-1.4 7.5-8.5 12.4-16 11.1-.3-.1-.7-.1-1-.2l1.8-7.3z"/><circle class="modern9" cx="143.9" cy="149.9" r="4.9"/></g><g><path class="modern10" d="M113.1 46.7s1.4-21-8.1-21-1.8 1.2-6.5 0-12.3-2-13.5 0-6.4 14.7-5.2 19.2 33.3 1.8 33.3 1.8z"/><path class="modern11" d="M98.8 35.2c5.8.4 10.4 1.4 14.1 2.7.5 4.6.3 8.8.3 8.8S81 49.4 79.8 44.9c-.6-2 .2-5.7 1.3-9.3 4.3-.7 10.1-1 17.7-.4z"/><path class="modern10" d="M126.1 57.7S125 44.2 98.6 42.2s-30.2 6.2-32 9.5 1 13.5 10.8 15 26.1-1.2 31.9-3 18-2.4 16.8-6z"/><path class="modern1" d="M96 45.8c-18 0-32.7 14.6-32.7 32.7v5.1h65.3v-5.1c.1-18.1-14.5-32.7-32.6-32.7z"/><g><path class="modern12" d="M99.7 88.8h-7.1c-3.3 0-6.1-2.7-6.1-6.1 0-3.3 2.7-6.1 6.1-6.1h7.1c3.3 0 6.1 2.7 6.1 6.1-.1 3.4-2.8 6.1-6.1 6.1z"/><path class="modern12" d="M126.9 79.3L106.8 81v-.1l-10.4.9-10.4-.9v.1l-20-1.7s-.1 7.3-.1 16.8 27.2 21 30.6 21c3.4 0 30.6-11.5 30.6-21s-.2-16.8-.2-16.8z"/><path class="modern1" d="M96 86.2c-1.5 0-3 .3-4.4.7 2-1.8 3.5-4.1 4.4-6.7.9 2.6 2.4 4.9 4.4 6.7-1.4-.4-2.8-.7-4.4-.7z"/></g><g><path class="modern13" d="M88.4 75.7c1.1-2.6 3.7-4.4 6.6-4.3 2.6.1 4.9 1.6 5.9 3.8l1.8-.9c-1.4-2.8-4.3-4.8-7.7-5-3.8-.1-7.1 2.2-8.5 5.5l1.9.9z"/><path class="modern13" d="M91.7 78.3H78.1c-1.1 0-2-.9-2-2v-8.1c0-1.1.9-2 2-2h13.7c1.1 0 2 .9 2 2v8.1c-.1 1.1-1 2-2.1 2z"/><path class="modern13" d="M79.4 69.1h-4.1c-.5 0-1-.4-1-1v-1c0-.5.5-1 1-1h4.1c.6 0 1 .5 1 1v1c0 .6-.5 1-1 1z"/><path class="modern1" d="M90.7 76.9H79.9c-.6 0-1-.4-1-1v-5.8c0-.5.4-1 1-1h10.9c.6 0 1 .5 1 1v5.8c-.1.6-.5 1-1.1 1z"/><path class="modern13" d="M98.5 78.3h13.7c1.1 0 2-.9 2-2v-8.1c0-1.1-.9-2-2-2H98.5c-1.1 0-2 .9-2 2v8.1c0 1.1.9 2 2 2z"/><path class="modern13" d="M110.9 69.1h4.1c.6 0 1-.4 1-1v-1c0-.5-.4-1-1-1h-4.1c-.5 0-1 .5-1 1v1c0 .6.4 1 1 1z"/><path class="modern1" d="M99.5 76.9h10.9c.6 0 1-.4 1-1v-5.8c0-.5-.4-1-1-1H99.5c-.5 0-1 .5-1 1v5.8c0 .6.5 1 1 1z"/><circle class="modern9" cx="100.6" cy="74.7" r="1.7"/><circle class="modern9" cx="89.2" cy="74.7" r="1.7"/></g><path class="modern11" d="M90.8 84.1c-3.2 0-6.7 9.7-8.8 9.7-1.3 0-1.7-.8-1.8-1.4v-4.3h-7.3v4.2c0 4.4 1.8 6.9 8.4 5.9 4.2-.6 6.5-12.8 9.4-12.8h3.2V84c.1.1.1.1-3.1.1z"/></g></svg>