<svg class="top-robot" id="robot-plain" xmlns="http://www.w3.org/2000/svg" width="151.5" height="226.2" viewBox="0 0 151.5 226.2" aria-hidden="true">
<style type="text/css">.plain0{fill:#E5E5E5;}.plain1{fill:#EA6361;}.plain2{fill:#C4C4C3;}.plain3{fill:#969696;}.plain4{fill:#FFFFFF;}.plain5{fill:#E28888;}.plain6{fill:#EFE4A6;}.plain7{fill:#8CCED8;}.plain8{fill:#AFBB87;}</style>
<path class="plain0" d="M-2.1,87.4c-5.5,2.2-10.5,5.9-14.3,11c-8.5,11.5-8.6,26.6-1.2,37.9l6.3-4.1c-5.7-8.8-5.6-20.5,1-29.4c2.6-3.5,6-6.2,9.7-7.9C-0.6,94.9-2.1,87.4-2.1,87.4z"/>
<path class="plain0" d="M41.1,178.6c-0.3,3.6-1.3,6.9-2.8,10c1.4-0.1,2.8-0.1,4.3,0.1s3,0.7,4.4,1.3c1.3-3.3,2.2-6.8,2.6-10.5c0.3-3.2,0.2-6.4-0.3-9.4l-8.7-0.3C41.2,172.5,41.4,175.5,41.1,178.6L41.1,178.6z"/>
<g class="robot-head">
	<circle class="plain1" cx="60.8" cy="-8.2" r="5"/>
	<path class="plain2" d="M42.8,36.6c-4-11.7-3.6-22,1.2-30.4l0.1-0.3h4.7l-6.8-5h5.8c4.2-4.6,8.5-6.6,8.7-6.6l0.4,0.9c0,0-4.4,2-8.5,6.6L48.3,2h-3.2l6.8,5h-7.2c-4.5,8.1-4.8,18-1,29.3L42.8,36.6z"/>
	<path class="plain0" d="M42.7,32.6c-18,0-32.7,14.6-32.7,32.7v5.1h65.3v-5.1C75.4,47.2,60.8,32.6,42.7,32.6z"/>
	<circle class="plain3 eyes" cx="38.9" cy="60.8" r="1.7"/>
	<circle class="plain3 eyes" cx="50.2" cy="60.8" r="1.7"/>
</g>
<g class="robot-arm">
	<path class="plain0" d="M118.5,53l-7.2,2c2.8,10.1-0.8,21.3-9.7,27.8c-4.6,3.4-10,4.9-15.3,4.9L85,95.1c7.3,0.3,14.7-1.7,21-6.3C117.6,80.4,122.1,66,118.5,53z"/>
	<g class="robot-hand">
		<path class="plain0" d="M118.6,38.7c0.1,0.1,0.2,0.2,0.4,0.3c2.5,2.4,2.7,6.3,0.3,8.8s-6.3,2.7-8.8,0.3s-2.7-6.3-0.3-8.8l0.6-0.6l-4.7-5.8c-0.5,0.4-1,0.8-1.4,1.3c-5.2,5.6-4.8,14.3,0.7,19.4c5.6,5.2,14.3,4.8,19.4-0.7c5.2-5.6,4.8-14.3-0.7-19.4c-0.3-0.2-0.5-0.5-0.8-0.7C123.3,32.8,118.6,38.7,118.6,38.7z"/>
		<circle class="plain3" cx="114.7" cy="53" r="4.9"/>
	</g>
</g>
<path class="plain2" d="M70.4,168.5l-56.3-2l-16-92.7l88.3-2L70.4,168.5z"/>
<circle class="plain4" cx="42.2" cy="101.4" r="19.8"/>
<path class="plain2" d="M66.9,119.9l-47.4,2.5l-1-19.8l47.4-2.5L66.9,119.9z"/>
<path class="plain5" d="M27.5,88.1C26.7,89,26,90,25.3,91c0,0.1-0.1,0.1-0.1,0.2c-0.3,0.5-0.5,0.9-0.8,1.4c-0.1,0.1-0.1,0.2-0.2,0.3c-0.2,0.4-0.4,0.9-0.6,1.3c-0.1,0.2-0.1,0.3-0.2,0.5c-0.2,0.4-0.3,0.9-0.4,1.3c-0.1,0.2-0.1,0.4-0.2,0.6c-0.1,0.4-0.2,0.9-0.3,1.3c0,0.2-0.1,0.4-0.1,0.6c-0.1,0.5-0.1,1-0.2,1.6v2.4l19.8-1C42,101.5,27.5,88.1,27.5,88.1z"/>
<path class="plain6" d="M41.2,81.6c-1.2,0.1-2.4,0.2-3.6,0.5h-0.2c-0.5,0.1-1,0.3-1.5,0.5c-0.1,0-0.2,0.1-0.3,0.1c-0.5,0.2-0.9,0.4-1.4,0.6c-0.1,0.1-0.3,0.1-0.4,0.2l-1.2,0.6c-0.2,0.1-0.3,0.2-0.5,0.3c-0.4,0.2-0.8,0.5-1.1,0.7c-0.2,0.1-0.3,0.2-0.5,0.3c-0.4,0.3-0.8,0.6-1.2,1c-0.1,0.1-0.2,0.2-0.3,0.2c-0.5,0.4-1,0.9-1.4,1.4l14.7,13.3L41.2,81.6z"/>
<path class="plain7" d="M55.5,86.7c0.9,0.8,1.7,1.7,2.5,2.7l0.1,0.1c0.3,0.4,0.6,0.9,0.9,1.3c0.1,0.1,0.1,0.2,0.2,0.3c0.3,0.4,0.5,0.8,0.7,1.3c0.1,0.1,0.2,0.3,0.2,0.4c0.2,0.4,0.4,0.8,0.5,1.3c0.1,0.2,0.2,0.4,0.2,0.5c0.2,0.4,0.3,0.9,0.4,1.3c0.1,0.2,0.1,0.4,0.2,0.6l0.3,1.5c0,0.1,0.1,0.2,0.1,0.4c0.1,0.7,0.2,1.3,0.2,2l-19.8,1L55.5,86.7L55.5,86.7z"/>
<path class="plain8" d="M41.2,81.6c1.2-0.1,2.4,0,3.6,0.2H45c0.5,0.1,1,0.2,1.6,0.3c0.1,0,0.2,0,0.3,0.1c0.5,0.1,0.9,0.3,1.4,0.4c0.2,0.1,0.3,0.1,0.5,0.1c0.4,0.2,0.8,0.3,1.3,0.5c0.2,0.1,0.4,0.1,0.5,0.2l1.2,0.6c0.2,0.1,0.4,0.2,0.5,0.3
c0.4,0.3,0.9,0.6,1.3,0.9c0.1,0.1,0.2,0.1,0.3,0.2c0.5,0.4,1,0.8,1.5,1.3l-13.3,14.7L41.2,81.6z"/>
<path class="plain4" d="M44.3,99.3c-0.2,0.8-0.9,1.3-1.7,1.1s-1.3-0.9-1.1-1.7c0.2-0.8,3.8-10.9,3.8-10.9S44.4,98.5,44.3,99.3z"/>
<circle class="plain0" cx="42.2" cy="101.4" r="4.7"/>
<g>
	<path class="plain0" d="M-9.3,149.9c-0.2,0-0.3,0-0.5-0.1c-3.4-0.6-5.7-3.8-5.1-7.2s3.8-5.7,7.2-5.1c3.4,0.6,5.7,3.8,5.1,7.2c0,0.3-0.1,0.6-0.2,0.9l7.1,2.2c0.2-0.6,0.4-1.2,0.5-1.9c1.3-7.5-3.8-14.6-11.3-15.8c-7.5-1.3-14.6,3.8-15.8,11.3c-1.3,7.5,3.8,14.6,11.3,15.8c0.3,0.1,0.7,0.1,1,0.1L-9.3,149.9L-9.3,149.9z"/>
	<circle class="plain3" cx="-14.1" cy="135.3" r="4.9"/>
</g>
<path class="plain2" d="M29.1,199.2c2-5.2,7.4-8.6,13.1-7.7c5.7,0.9,9.9,5.6,10.3,11.2l4.7,0.7c0-8.2-6-15.3-14.3-16.5s-16.1,3.8-18.5,11.6C24.4,198.5,29.1,199.2,29.1,199.2z"/>
<circle class="plain2" cx="40.5" cy="203.5" r="9.5"/>
</svg>