<svg class="large-robot" id="robot-business" xmlns="http://www.w3.org/2000/svg" width="161.3" height="226.2" viewBox="0 0 161.3 226.2"><style>.robot-business0{display:none}.robot-business1{display:inline;fill:#ececec}.robot-business2{display:inline;fill:#cecccb}.robot-business3{display:inline;fill:#FFF}.robot-business4{display:inline}.robot-business5{fill:#ececec}.robot-business6{fill:#9f9c9a}.robot-business7{fill:#68acaf}.robot-business8{fill:none;stroke:#cecccb;stroke-miterlimit:10}.robot-business9{fill:#cecccb}.robot-business10{display:inline;fill:none;stroke:#cecccb;stroke-width:2;stroke-miterlimit:10}.robot-business11{display:inline;fill:#5c9390}.robot-business12{opacity:.49}.robot-business12,.robot-business13{display:inline;fill:#68acaf}.robot-business14{display:none;fill:#ececec}.robot-business15{fill:#e75b5b}.robot-business16{fill:#FFF}.robot-business17{fill:none}.robot-business18{fill:#5c9390}.robot-business19{opacity:.49;fill:#68acaf}.robot-business20{fill:none;stroke:#5c9390;stroke-width:5;stroke-miterlimit:10}.robot-business21{opacity:.5;fill:#5c9390}</style><g id="robot" class="robot-business0"><path class="robot-business1" d="M-145.5 209l.1.2 9.1.9c2.3-4.3 3.8-9.1 4.3-14.3 1.2-12.4-3.8-23.9-12.4-31.6l-5.4 6.5c6.5 6 10.2 14.8 9.4 24.3-.4 5.2-2.2 10-5.1 14zM-81.796 145.8l6.073 3.677-9.74 16.08-6.073-3.68z"/><circle class="robot-business2" cx="-140.9" cy="219.9" r="16.8"/><circle class="robot-business3" cx="-140.9" cy="219.9" r="12.1"/><path class="robot-business3" d="M-168.734 213.16l58.554 8.726-3.095 20.772-58.555-8.727z"/><g class="robot-business4"><path class="robot-business5" d="M-81.1 144.4c6.5-8.2 7.6-19.9 2-29.4-5.1-8.4-14.2-12.9-23.3-12.5l-.4-7.5c11.8-.5 23.6 5.3 30.1 16.1 7.3 12.2 5.9 27.3-2.5 37.8l-5.9-4.5z"/><circle class="robot-business6" cx="-78.7" cy="147.6" r="4.9"/></g><g class="robot-business4"><path class="robot-business5" d="M-196.4 74.5c-4.4 9.5-2.8 21.1 5 29 6.9 7 16.8 9.3 25.6 6.7l2.1 7.2c-11.4 3.3-24.2.4-33-8.6-10-10.2-12.1-25.2-6.4-37.4l6.7 3.1z"/><path class="robot-business5" d="M-196.7 56.8c-.2 0-.3.1-.5.1-3.3 1-5.1 4.5-4.1 7.8s4.5 5.1 7.8 4.1 5.1-4.5 4.1-7.8c-.1-.3-.2-.6-.3-.8l6.8-3.2c.3.6.5 1.2.7 1.8 2.3 7.2-1.8 15-9 17.2-7.2 2.3-15-1.8-17.2-9-2.3-7.2 1.8-15 9-17.2.3-.1.7-.2 1-.3l1.7 7.3z"/><circle class="robot-business6" cx="-199.5" cy="71.9" r="4.9"/></g><circle class="robot-business2" cx="-140.9" cy="219.9" r="9.5"/><g class="robot-business4"><circle class="robot-business7" cx="-120.6" cy="8.2" r="5"/><path class="robot-business8" d="M-138.1 52.8c-4.6-13.7-2.6-23.4 1.2-30h5.9l-6.8-5h4.5c4.2-4.7 8.6-6.7 8.6-6.7"/><path class="robot-business5" d="M-138.7 49c-18 0-32.7 14.6-32.7 32.7v5.1h65.3v-5.1c.1-18.1-14.5-32.7-32.6-32.7z"/><circle class="robot-business6" cx="-142.5" cy="77.2" r="1.7"/><circle class="robot-business6" cx="-131.2" cy="77.2" r="1.7"/></g><path class="robot-business3" d="M-109.5 187.1l-59.4-2-17.5-97.1 94.4-2z"/><g class="robot-business4"><path class="robot-business9" d="M-166 181.5l-15.6-89.8 84.8-1.9-15.5 93.6z"/><path class="robot-business9" d="M-98.6 91.3l-15 90.5-51.2-1.8-15-86.9 81.2-1.8m3.6-3.1l-88.3 2 16 92.7 56.3 2 16-96.7z"/></g><circle class="robot-business10" cx="-145.8" cy="77.2" r="6.8"/><circle class="robot-business10" cx="-131.2" cy="76.2" r="6.8"/><path class="robot-business10" d="M-124.7 72.2c5.6-2.9 11.1-4.4 17.3-3.8M-152.7 74.6s-5-6-16.9-4.5"/><circle class="robot-business3" cx="-66.6" cy="153.8" r="3"/></g><g id="Tie" class="robot-business0"><path class="robot-business11" d="M-140.7 165.9l11.3-10.4-11.3-65.8-11.3 65.8 11.3 10.4z"/><path class="robot-business12" d="M-140.7 165.9l11.3-10.4-11.3-65.8"/><path class="robot-business13" d="M-134.2 104.1h-13l-4-15.9h21.1z"/></g><g id="front-on_briefase" class="robot-business0"><path class="robot-business13" d="M-68.6 146.3h8.3v17.6h-8.3z"/><path class="robot-business11" d="M-56 206.6l-20.1-.3-1.4-47.6 25.9 1.4z"/></g><g id="Sideways_briefcase"><path class="robot-business14" d="M-83.1 163.2c.2 0 .3-.1.5-.1 3.3-1 5.2-4.5 4.2-7.8s-4.5-5.2-7.8-4.2-5.2 4.5-4.2 7.8c.1.3.2.6.3.8l-6.8 3.1c-.3-.6-.5-1.2-.7-1.8-2.2-7.3 2-14.9 9.3-17.1 7.3-2.2 14.9 2 17.1 9.3 2.2 7.3-2 14.9-9.3 17.1-.3.1-.7.2-1 .2l-1.6-7.3z"/><path class="robot-business14" d="M-88.2 139.2l2.3 19.1-5.1 6.7-12.7-.8 4.3-21z"/><path class="robot-business5" d="M68.7 191.8c-.4 4.1-1.6 8-3.5 11.4 1.7-.3 3.5-.4 5.4-.1 1.3.2 2.5.5 3.6 1 1.5-3.6 2.6-7.4 3-11.5.3-3.2.2-6.4-.3-9.4l-8.7-.3c.6 2.8.8 5.8.5 8.9zM139.3 106.7c-4.9-9.5-13.7-15.6-23.5-17.4l-1.3 7.3c7.5 1.4 14.3 6.1 18.1 13.5 5.1 9.8 3.2 21.4-3.8 29.2l5.5 5c9.2-10 11.6-24.9 5-37.6z"/><path class="robot-business5" d="M129.4 156.8c.1-.1.3-.1.4-.2 3-1.7 4.2-5.5 2.5-8.5-1.7-3-5.5-4.2-8.5-2.5-3 1.7-4.2 5.5-2.5 8.5.1.3.3.5.5.7l-6 4.4c-.4-.5-.7-1-1-1.6-3.6-6.7-1.2-15 5.5-18.6 6.7-3.6 15-1.2 18.6 5.5 3.6 6.7 1.2 15-5.5 18.6-.3.2-.6.3-.9.4l-3.1-6.7z"/><circle class="robot-business6" cx="131.1" cy="142.6" r="4.9"/><circle class="robot-business15" cx="88.4" cy="5" r="5"/><path class="robot-business9" d="M70.4 49.8c-4-11.7-3.6-22 1.2-30.4l.1-.3h4.7l-6.8-5h5.8c4.2-4.6 8.5-6.6 8.7-6.6l.4.9s-4.4 2-8.5 6.6l-.1.2h-3.2l6.8 5h-7.2c-4.5 8.1-4.8 18-1 29.3l-.9.3z"/><path class="robot-business5" d="M70.4 45.8c-18 0-32.7 14.6-32.7 32.7v5.1H103v-5.1c0-18.1-14.6-32.7-32.6-32.7z"/><circle class="robot-business6" cx="66.5" cy="74" r="1.7"/><circle class="robot-business6" cx="77.8" cy="74" r="1.7"/><path class="robot-business9" d="M43 178.3L27.4 88.5l84.8-1.9-15.5 93.6z"/><path class="robot-business9" d="M110.5 88.1l-15 90.5-51.2-1.8L29.2 90l81.3-1.9M114 85l-88.3 2 16 92.7 56.3 2L114 85zM63.2 81.9c-4.3 0-7.8-3.5-7.8-7.9 0-4.3 3.5-7.8 7.8-7.8s7.9 3.5 7.9 7.8c0 4.4-3.6 7.9-7.9 7.9zm0-13.7c-3.2 0-5.8 2.6-5.8 5.8s2.6 5.9 5.8 5.9 5.9-2.6 5.9-5.9-2.7-5.8-5.9-5.8z"/><path class="robot-business9" d="M77.8 80.8c-4.3 0-7.9-3.5-7.9-7.9 0-4.3 3.5-7.8 7.9-7.8 4.3 0 7.8 3.5 7.8 7.8.1 4.4-3.4 7.9-7.8 7.9zm0-13.7c-3.2 0-5.9 2.6-5.9 5.8s2.6 5.9 5.9 5.9 5.8-2.6 5.8-5.9-2.5-5.8-5.8-5.8z"/><path class="robot-business9" d="M84.8 69.9l-.9-1.8c6.3-3.2 11.9-4.5 17.9-3.9l-.2 2c-5.6-.5-10.8.7-16.8 3.7zM55.6 72.1c-.2-.2-4.9-5.6-16-4.1l-.3-2c12.3-1.6 17.6 4.6 17.8 4.8l-1.5 1.3.8-.6-.8.6z"/><path class="robot-business16" d="M93.9 181.6l5.3-7.3.4-2.2-6.9 9.5zM88.4 181.4l12.5-17.3.4-2.2-14.1 19.5zM82.9 181.2l19.7-27.3.4-2.3-21.3 29.6zM77.4 181l26.9-37.4.4-2.2L76.2 181zM106 133.4l.4-2.2-35.8 49.6h1.2zM66.3 180.6l41.4-57.4.3-2.3-42.9 59.7zM60.8 180.4l48.6-67.5.3-2.2-50.1 69.7zM55.3 180.2l55.8-77.5.3-2.2-57.3 79.7zM49.7 180l63.1-87.5.3-2.2L48.5 180zM112.4 85.1h-1.2L43 179.8h1.2zM41.1 176.3l65.6-91.1h-1.3l-64.5 89.7zM40 169.9l60.9-84.6-1.3.1-59.8 83.1zM38.9 163.6l56.2-78.1h-1.2l-55.2 76.7zM37.8 157.2l51.6-71.6h-1.3l-50.5 70.2zM36.7 150.9l46.9-65.2-1.2.1-45.9 63.7zM35.6 144.5l42.2-58.6h-1.2l-41.2 57.2zM34.5 138.2L72.1 86h-1.3l-36.5 50.8zM33.4 131.8l32.9-45.7-1.2.1-31.9 44.2zM32.3 125.5l28.3-39.2h-1.3l-27.2 37.8zM31.2 119.1l23.6-32.7h-1.3L31 117.7zM30.1 112.8L49 86.5h-1.2l-17.9 24.9zM29 106.4l14.3-19.8-1.3.1-13.2 18.4zM27.9 100.1l9.6-13.3h-1.2l-8.6 11.9zM26.8 93.7l4.9-6.8h-1.2l-3.9 5.5z"/><path class="robot-business17" d="M98 181.7l-56.3-2-16-92.7 88.3-2z"/><path class="robot-business9" d="M111.6 87.1l-15.4 92.6-52.9-1.9L28 89l83.6-1.9M114 85l-88.3 2 16 92.7 56.3 2L114 85z"/><path class="robot-business18" d="M68.8 161.7L80 151.2 68 85.5l-10.6 65.9 11.4 10.3z"/><path class="robot-business19" d="M68.8 161.7L80 151.2 68 85.5"/><path class="robot-business7" d="M74.6 101.2l-13.1-.5-3.4-16 21 .7z"/><path class="robot-business20" d="M136.9 171.1l-26.8-1.5-1.5-20.4 33 1.6z"/><path class="robot-business7" d="M158 204.9l-69.1-1.3-2.6-45.9 75 1.5z"/><path class="robot-business21" d="M158 204.9l-69.1-1.3-2.6-45.9 75 1.5z"/><path class="robot-business7" d="M88.9 203.6l-2.6-45.9 75 1.5"/><path class="robot-business5" d="M114.8 157.6c.3.6.7 1.1 1 1.6l6-4.4c-.2-.2-.3-.5-.5-.7-1.6-2.9-.6-6.4 2.1-8.2l-2.5-7.2c-.2.1-.4.2-.7.3-6.6 3.6-9 12-5.4 18.6z"/><g><path class="robot-business5" d="M26.5 106.3c-3.3-1.3-6.3-3.3-8.9-5.9-7.8-7.9-9.4-19.5-5-29l-6.8-3.2c-5.7 12.2-3.6 27.2 6.4 37.4 4.5 4.6 9.9 7.5 15.7 9l-1.4-8.3z"/><path class="robot-business5" d="M12.3 53.6c-.2 0-.3.1-.5.1-3.3 1-5.1 4.5-4.1 7.8s4.5 5.1 7.8 4.1 5.1-4.5 4.1-7.8c-.1-.3-.2-.6-.3-.8l6.8-3.2c.3.6.5 1.2.7 1.8 2.3 7.2-1.8 15-9 17.2-7.2 2.3-15-1.8-17.2-9-2.3-7.2 1.8-15 9-17.2.3-.1.7-.2 1-.3l1.7 7.3z"/><circle class="robot-business6" cx="9.5" cy="68.7" r="4.9"/></g><path class="robot-business9" d="M56.8 212.4c2-5.2 7.4-8.6 13.1-7.7 5.7.9 9.9 5.6 10.3 11.2l4.7.7c0-8.2-6-15.3-14.3-16.5-8.3-1.2-16.1 3.8-18.5 11.6l4.7.7z"/><circle class="robot-business9" cx="68.1" cy="216.7" r="9.5"/></g></svg>