<svg id="Magazine" xmlns="http://www.w3.org/2000/svg" width="188.3" height="226.2" viewBox="0 0 188.3 226.2"><style>.magazine0{fill:none}.magazine1{fill:#e5e5e5}.magazine2{fill:#969696}.magazine3{fill:#eae0cc}.magazine4{fill:#d7c7a3}.magazine5{fill:#f06a66}.magazine6{fill:none;stroke:#c4c4c3;stroke-miterlimit:10}.magazine7{fill:#c4c4c3}.magazine8{fill:#FFF}.magazine9{fill:#e28888}.magazine10{fill:#efe4a6}.magazine11{fill:#39c3de}.magazine12{fill:#afbb87}.magazine13{fill:#509ea3}.magazine14{fill:#95bec0}.magazine15{fill:#8cced8}</style><path class="magazine0" d="M162.2 38.4l-36.4 9.5-5.5 117.7 35.5-12.7s4.9-13.2 8.9-55.7c4-42.6-2.5-58.8-2.5-58.8z"/><path class="magazine1" d="M154.2 121c-7.1 7.7-18.5 10.6-28.7 6.4-9.1-3.7-14.9-12-15.9-21.2l-7.4.8c1.2 11.8 8.8 22.5 20.5 27.3 13.2 5.4 27.9 1.7 37-8.2l-5.5-5.1z"/><path class="magazine1" d="M172 118.6c0 .2 0 .3-.1.5-.7 3.4-4 5.6-7.3 4.9-3.4-.7-5.6-4-4.9-7.3.7-3.4 4-5.6 7.3-4.9.3.1.6.1.8.2l2.4-7.1c-.6-.2-1.2-.4-1.8-.5-7.5-1.5-14.7 3.4-16.1 10.9-1.5 7.5 3.4 14.7 10.9 16.1 7.5 1.5 14.7-3.4 16.1-10.9.1-.3.1-.7.1-1l-7.4-.9z"/><circle class="magazine2" cx="157.7" cy="122.9" r="4.9"/><path class="magazine3" d="M162.2 38.4l-36.4 9.5-5.5 117.7 35.5-12.7s4.9-13.2 8.9-55.7c4-42.6-2.5-58.8-2.5-58.8z"/><path class="magazine4" d="M125.3 58.3v.4l39.3-9.1c-.3-2-.6-3.7-.9-5.1l-38.3 9.1-.1 4.7zM125.4 65.4l40-9.3c0-.5-.1-.9-.1-1.4l-38.6 9.2-1.3 1.5zM165.6 59.1L125 68.7v2.9l40.8-9.4c-.1-1.1-.1-2.1-.2-3.1zM165.9 65.1l-39.2 9.3.6 4.9 38.7-8.9c0-1.9 0-3.7-.1-5.3zM166 75.6l-37.3 8.9-1.3 1.5 38.6-8.9c-.1-.5 0-1 0-1.5zM165.8 80.1L127 89.3v2.9l38.7-8.9c.1-1.2.1-2.2.1-3.2zM165.4 88.9l-39.1 9.3.6 4.9 38.1-8.8c.1-1.9.2-3.7.4-5.4zM164.4 99.7l-36.3 8.6-1.3 1.5 37.4-8.7c.1-.5.2-.9.2-1.4zM164 104.2l-37.4 8.9v2.9l37.1-8.5c0-1.2.2-2.2.3-3.3zM163.3 110.6l-39.5 9.4.6 4.9 38.3-8.8c.1-1.8.3-3.6.6-5.5zM161.9 121.5l-36.3 8.6-1.3 1.5 37.4-8.6c.1-.5.1-1 .2-1.5zM161.2 126.1l-37.2 8.8v2.9l36.7-8.5c.2-1.1.4-2.1.5-3.2zM121.1 147.9l38.2-9.9c.3-1.7.6-3.5 1-5.6l-38.9 10.3-.3 5.2zM158.7 141.1l-36 10.8-1.3 1.5 37-10.8.3-1.5zM120.4 161.7l36.2-11.8c.2-.9.5-2.1.9-3.5l-37 12.4-.1 2.9z"/><circle class="magazine5" cx="12.1" cy="34.7" r="5"/><path class="magazine6" d="M54.8 56.6c-5.6-13.3-13.5-19.2-20.7-21.7l-4.5 3.9 1.8-8.3-3.4 3c-6.3-.8-10.9.7-10.9.7"/><path class="magazine1" d="M55.7 49.7c-17.3 5-27.3 23.2-22.2 40.5l1.4 4.9 62.7-18.3-1.4-4.9c-5-17.3-23.2-27.3-40.5-22.2z"/><circle class="magazine2" cx="62.1" cy="70.9" r="1.7"/><circle class="magazine2" cx="72" cy="66.8" r="1.7"/><path class="magazine7" d="M120.2 172.4l-54.5 13.9-41.4-84.6 84.3-26.6z"/><circle class="magazine8" cx="74.5" cy="115.8" r="19.8"/><path class="magazine7" d="M103.425 126.695L58.57 142.323l-6.514-18.697 44.854-15.628z"/><path class="magazine9" d="M56.6 107.2c-.5 1.1-.9 2.2-1.3 3.4 0 .1 0 .1-.1.2-.1.5-.2 1-.3 1.6 0 .1-.1.2-.1.3-.1.5-.1 1-.2 1.5v2.5c0 .4.1.9.1 1.3 0 .2 0 .4.1.6l.3 1.5c0 .1 0 .3.1.4.2.6.3 1.3.6 1.9l18.7-6.5-17.9-8.7z"/><path class="magazine10" d="M67.9 97.1c-1.1.4-2.2.9-3.3 1.5-.1 0-.1.1-.2.1-.5.3-.9.6-1.3.9-.1.1-.2.1-.3.2-.4.3-.8.6-1.1.9-.1.1-.3.2-.4.3-.3.3-.7.6-1 1l-.4.4c-.3.3-.6.7-.9 1-.1.2-.3.3-.4.5-.3.4-.6.8-.9 1.3-.1.1-.1.2-.2.3-.3.6-.7 1.1-1 1.8l17.8 8.6-6.4-18.8z"/><path class="magazine11" d="M83.1 98c1.1.5 2.1 1.2 3.1 1.9l.1.1c.4.3.8.7 1.2 1 .1.1.2.1.3.2.4.3.7.7 1 1 .1.1.2.2.3.4.3.3.6.7.9 1.1.1.2.3.3.4.5.3.4.5.7.7 1.1.1.2.2.3.3.5.3.4.5.9.7 1.4.1.1.1.2.2.3.3.6.5 1.2.8 1.8l-18.7 6.5L83.1 98z"/><path class="magazine12" d="M67.9 97.1c1.1-.4 2.3-.7 3.5-.9h.2c.5-.1 1.1-.1 1.6-.2h2.4c.5 0 .9.1 1.4.1.2 0 .4 0 .6.1.4.1.9.2 1.3.3.2 0 .4.1.6.1.5.1 1 .3 1.5.5.1 0 .2.1.4.1.6.2 1.2.5 1.8.8l-8.6 17.8-6.7-18.7z"/><path class="magazine8" d="M75.8 113.3c.1.8-.5 1.5-1.4 1.6-.8.1-1.5-.5-1.6-1.4-.1-.8.6-11.5.6-11.5s2.4 10.5 2.4 11.3z"/><circle class="magazine1" cx="74.5" cy="115.8" r="4.7"/><path class="magazine13" d="M125.8 47.8l-50-21.7s5.6 28.6 3.1 55.1c-2.5 26.4-8.8 56.9-8.8 56.9l48.8 28.1 1.3-.6s4.6-23.6 7.6-55.2c3.1-31.8-2-62.6-2-62.6z"/><path class="magazine14" d="M75.8 26.1l41.2-8.7 45.2 21-36.4 9.4z"/><path class="magazine8" d="M130 78l16.1-4.2-4.1 5.7zM146.1 125.9l16.1-4.3 2.4 2.9zM144.6 94l16.1-4.3-4.1 5.8zM149.1 56.6l16.1-4.2 2.4 2.9z"/><path class="magazine1" d="M156.4 35.7c-1.7.5-3.9.8-6.4.8l1.5 1.6c3-.1 5.8-.4 8-1l-3.1-1.4zM122.3 46.3c1-.9 2.8-1.6 5.3-2l-2.7-1.5c-2.6.4-4.7 1.1-6.1 2l3.5 1.5z"/><path class="magazine5" d="M101.9 21.1c1.2.5 3.1.7 4.2.4 1.2-.3 1.1-.9 0-1.5-.2-.1-.5-.2-.7-.2l-4.2.9c.1.2.4.3.7.4z"/><path class="magazine7" d="M115.6 30.9c-6.7-1.8-10.9-3.7-12.5-5.8V25l2-.5-5-.2 2.4-.6c-.2-1.3.7-2.1.8-2.1l.6.1s-1 .8-.7 2.1l-1.3.3 5 .2-3 .7c1.6 2 5.7 3.9 12.1 5.6l-.4.3z"/><path class="magazine1" d="M113.9 30.1c-7.6 1.9-7.4 6.1.3 9.5l2.2.9 27.4-6.8-2.2-.9c-7.7-3.3-20.1-4.6-27.7-2.7z"/><path class="magazine2" d="M125.1 35.6c.4.2.4.4 0 .5-.4.1-1.1 0-1.5-.1-.4-.2-.4-.4 0-.5.4-.1 1-.1 1.5.1zM129.8 34.4c.4.2.4.4 0 .5-.4.1-1.1 0-1.5-.1-.4-.2-.4-.4 0-.5.5-.1 1.1-.1 1.5.1z"/><path class="magazine7" d="M115.6 43.4l11.9 4 32.2-8.4-10.7-6.1-35.8 9.5z"/><path class="magazine9" d="M131.3 42.1c0 .3.2.5.3.8l.3.3s0 .1.1.1l.3.3.1.1c.1.1.3.2.4.3.1 0 .1.1.2.1.1.1.3.2.5.3.1 0 .1.1.2.1l.6.3c.1 0 .1.1.1.1.3.1.6.3.9.4l7.9-2.2-11.9-1z"/><path class="magazine10" d="M134.2 39.4c-.5.1-.9.3-1.3.5h-.1c-.2.1-.3.2-.4.2 0 0-.1 0-.1.1-.1.1-.2.2-.3.2l-.1.1-.2.2-.1.1c-.1.1-.1.2-.2.3 0 0 0 .1-.1.1 0 .1-.1.2-.1.3v.5l11.9.9-8.9-3.5z"/><path class="magazine15" d="M142.4 38.9c.7.1 1.5.1 2.2.2h.1c.3 0 .6.1.9.2h.2c.3.1.6.1.8.2.1 0 .2 0 .3.1.3.1.5.1.8.2.1 0 .2.1.3.1.2.1.5.1.7.2.1 0 .2.1.3.1.3.1.5.2.8.3.1 0 .1 0 .2.1l.9.3-7.9 2.2-.6-4.2z"/><path class="magazine12" d="M134.2 39.4c.5-.1 1-.3 1.6-.3h.1c.3 0 .5-.1.8-.1h.2c.2 0 .5 0 .8-.1h3.5c.4 0 .8 0 1.2.1l.7 4.1-8.9-3.7z"/><path class="magazine8" d="M143.1 42.4c.3.2.2.3-.2.4s-1 0-1.2-.2-3.1-2.4-3.1-2.4 4.2 2 4.5 2.2z"/><path class="magazine1" d="M145 42.5c-1.2-.5-2.9-.6-3.9-.3s-.9.9.2 1.4c.1.1.3.1.4.2l3.7-1c-.1-.2-.2-.2-.4-.3z"/><path class="magazine8" d="M95.7 26.1c.6-.2 1.1-.2 1.7-.2.5 0 1 .2 1.4.4.2.1.4.3.4.4 0 .1 0 .3-.2.4h1l.9.3.4.2c.1.1.3.1.4.2h.5l.4.2-.4.1c-.3.1-.6.1-.9 0-.3-.1-.6-.2-.8-.3l-.4-.2c-.3-.1-.5-.2-.9-.3-.3 0-.6 0-.9.1l-1.2.3 1.6.9.7-.1.4.2-1.8.6-.4-.2.5-.2-3.7-2-.7.1-.4-.2.6-.2 1.8-.5zm1 1.5l.9-.3c.4-.1.6-.2.7-.4 0-.1-.1-.3-.3-.4-.2-.1-.5-.2-.8-.2-.3 0-.7 0-1 .1l-1 .3 1.5.9zM101.4 26.9c-.5-.3-.8-.6-.8-.8 0-.3.3-.5.8-.6.5-.2 1.1-.2 1.8-.1.6.1 1.2.3 1.7.6h.1c.5.3.8.6.8.8 0 .3-.3.5-.8.6-.5.2-1.1.2-1.8.1s-1.2-.3-1.8-.6zm.8-.1c.4.2.8.3 1.2.4.4.1.8.1 1.1 0 .3-.1.5-.2.4-.4-.1-.2-.3-.4-.6-.6h-.1c-.4-.2-.8-.3-1.2-.4-.4-.1-.8-.1-1.1 0-.3.1-.5.2-.4.4 0 .1.2.3.7.6zM109.4 24.8c.5.3.8.5.8.8 0 .2-.2.4-.7.6-.3.1-.5.1-.8.1-.3 0-.6 0-.9-.1l.4.3-.6.2-4.5-2.4-.7.1-.4-.2 1.3-.4 1.9 1.1c0-.1 0-.2.1-.3.1-.1.3-.2.5-.2.5-.1 1-.2 1.7 0 .7-.1 1.2.1 1.9.4zm-.8.2c-.4-.2-.8-.4-1.2-.5-.4-.1-.8-.1-1.1 0-.2.1-.4.1-.4.2-.1.1-.1.2 0 .3l1.5.8c.2.1.5.1.7.1.2 0 .5 0 .7-.1.3-.1.5-.2.4-.4 0 0-.2-.2-.6-.4zM109.9 24.5c-.5-.3-.8-.6-.8-.8 0-.3.3-.5.8-.6.5-.2 1.1-.2 1.8-.1.6.1 1.2.3 1.7.6h.1c.5.3.8.6.8.8 0 .3-.3.5-.8.6-.5.2-1.1.2-1.8.1-.6-.1-1.2-.3-1.8-.6zm.8-.1c.4.2.7.3 1.2.4.4.1.8.1 1.1 0 .3-.1.5-.2.4-.4-.1-.2-.3-.4-.6-.6h-.1c-.4-.2-.7-.3-1.2-.4-.4-.1-.8-.1-1.1 0-.3.1-.5.2-.4.4.1.1.3.3.7.6zM112.9 21.6l.8.5.8-.2.5.3-.8.2 2.1 1.1c.2.1.3.1.5.2h.4c.1 0 .1 0 .2-.1s.1-.1.2-.1l.5.2s-.1.1-.2.1-.2.1-.4.1c-.3.1-.6.1-.9.1-.3 0-.6-.1-1-.3l-2.1-1.1-.6.2-.5-.3.6-.2-.8-.5.7-.2zM104.8 33.8l-.4-.2.5-.2-3.6-2-.7.1-.4-.2.6-.2.7-.2.6-.2.4.2-.5.2 3.6 2 1.8-.5-.5-.3.6-.2 1 .5-3.7 1.2zM108.8 32.3l.5-.2-2.4-1.3-.7.1-.4-.2 1.3-.4 2.9 1.6.7-.1.4.2-1.9.5-.4-.2zm-2.5-2.4l-.7.2-.6-.3.7-.2.6.3zM110 29.9l-.4.2 2.7.8.3.1-.2-.2-1.1-1.3-.5.1-.4-.2 1.6-.4.4.2-.3.1 1.6 2-.5.2-4.3-1.2-.4.1-.4-.2 1.5-.4.4.1zM115.4 30.5l.5-.2-2.4-1.3-.7.1-.4-.2 1.3-.4 2.9 1.6.7-.1.4.2-1.9.5-.4-.2zm-2.5-2.5l-.7.2-.6-.3.7-.2.6.3zM117.8 29.8l.5-.2-2.4-1.3-.7.1-.4-.2 1.2-.3.6.3c0-.1 0-.3.1-.4.1-.1.3-.2.5-.3.4-.1.9-.2 1.3-.1s.9.2 1.3.4l1.6.9.7-.1.4.2-1.9.5-.4-.2.5-.2-1.6-.9c-.3-.2-.6-.3-.8-.3-.3 0-.5 0-.8.1-.2.1-.3.1-.4.2-.1.1-.1.2 0 .3l2 1.1.7-.1.4.2-1.9.5-.5-.2zM121.4 27.8c-.5-.3-.8-.6-.9-.8-.1-.3.2-.5.6-.6.2-.1.5-.1.8-.1.3 0 .5 0 .8.1l-.4-.3.6-.2 3.3 1.8c.4.2.6.5.6.7 0 .2-.3.4-.8.5-.2.1-.4.1-.7.1-.3 0-.5.1-.8.1l-.3-.3c.2 0 .4 0 .6-.1.2 0 .4-.1.6-.1.3-.1.5-.2.5-.3 0-.1-.1-.3-.4-.4l-.3-.2c0 .1 0 .2-.1.3-.1.1-.3.2-.5.2-.5.1-1 .2-1.6.1-.6 0-1.1-.2-1.6-.5zm.8-.2c.3.2.7.3 1.1.4.4.1.7.1 1.1 0 .2-.1.4-.1.4-.2.1-.1.1-.2 0-.3l-1.5-.9c-.2-.1-.5-.1-.7-.1-.2 0-.5 0-.7.1-.3.1-.5.2-.4.4 0 .2.2.4.7.6z"/><path class="magazine14" d="M126.8 55.3L77 33c.2 1.7.5 3.6.8 5.8l49.6 21.9c-.2-2-.4-3.8-.6-5.4zM127.9 66.8L78.4 44.7c0 .4.1.8.1 1.2L128 67.7c0-.3-.1-.6-.1-.9zM128.2 71.2L78.9 50.5c.1 1.1.2 2.1.2 3.2l49.2 20.5c.1-1.1 0-2-.1-3zM128.6 77.7L79.4 57c.1 1.8.1 3.6.2 5.5L128.8 83c-.1-1.9-.2-3.6-.2-5.3zM128.8 89.7v-1L79.6 68v1.2l49.2 20.5zM128.7 95.7c0-1 0-1.9.1-2.9L79.5 72.1c0 1-.1 2-.1 3.1l49.3 20.5zM128.2 106.3c.1-1.7.2-3.4.3-5L79 80.4c0 .2 0 .5-.1.7-.1 1.5-.3 3-.5 4.5l49.8 20.7zM127.6 112.8c0-.3.1-.6.1-.9l-49.8-21c0 .4-.1.7-.1 1.1l49.8 20.8zM126.8 120.2c.1-.9.2-1.8.3-2.8L77.3 95.3c-.1 1-.3 2-.4 3l49.9 21.9zM125.9 127.8c.2-1.6.4-3.3.6-4.9l-50-22.3c-.2 1.7-.5 3.4-.8 5.1l50.2 22.1zM125 135c0-.3.1-.6.1-.9l-50.2-23c-.1.4-.1.7-.2 1.1L125 135zM124.3 140.6c.1-.9.3-1.8.4-2.7l-50.3-23.1c-.2 1-.3 2-.5 2.9l50.4 22.9zM123.1 148.5c.2-1.6.5-3.2.7-4.9L73.5 120c-.3 1.8-.6 3.5-.9 5.1l50.5 23.4zM122.2 154.2c0-.3.1-.6.1-.8L72.1 128c-.1.4-.1.7-.2 1l50.3 25.2zM121.1 160.7c.1-.8.3-1.8.5-2.8l-50.2-26.4c-.2 1.1-.4 2.2-.6 3l50.3 26.2z"/><path class="magazine3" d="M92.4 55.1L79 50.9l-3.2 5.7zM123.1 78L107 73.8l4.1 5.7zM99 108.6l-16.1-4.3 4.1 5.8zM87.4 123.7L74 119.5l-3.2 5.7z"/><path class="magazine1" d="M80.8 136.8c-7.8 7-19.4 8.8-29.2 3.6-8.5-4.5-13.5-13.1-13.8-22.1 0-.2.1-.3.1-.5 0-2.1-1.7-3.8-3.8-3.8s-3.8 1.7-3.8 3.8v.1c.1 11.8 6.6 23.2 17.8 29.1 12.6 6.6 27.6 4.3 37.6-4.7l-4.9-5.5z"/><path class="magazine1" d="M97.9 132v.5c0 3.5-2.9 6.2-6.3 6.2-3.5 0-6.2-2.9-6.2-6.3 0-3.5 2.9-6.2 6.3-6.2.3 0 .6 0 .9.1l1.1-7.4c-.6-.1-1.3-.2-1.9-.2-7.6-.1-13.8 6-13.9 13.6-.1 7.6 6 13.8 13.6 13.9 7.6.1 13.8-6 13.9-13.6v-1l-7.5.4z"/><circle class="magazine2" cx="84.3" cy="139.1" r="4.9"/><path class="magazine1" d="M100.2 179.8l-8.4 2.1c0 3.7-.8 7.6-2.3 11.2-1.6 3.7-3.8 6.9-6.5 9.5 1.5.3 2.9.7 4.3 1.4s2.6 1.5 3.7 2.4c2.6-2.9 4.7-6.3 6.3-10.1 2.3-5.3 3.2-11 2.9-16.5z"/><path class="magazine7" d="M71.9 209.2c3.5-4.4 9.6-5.9 14.8-3.4 5.2 2.5 7.8 8.4 6.5 13.8l4.3 2.1c2.4-7.8-1.1-16.4-8.7-20.1-7.6-3.7-16.5-1.2-21.2 5.5l4.3 2.1z"/><path class="magazine7" d="M77.2 225.2c-4.7-2.3-6.7-8-4.4-12.7 2.3-4.7 8-6.7 12.7-4.4 4.7 2.3 6.7 8 4.4 12.7-2.3 4.8-8 6.8-12.7 4.4"/></svg>