<svg id="pipe-tap-2" xmlns="http://www.w3.org/2000/svg" width="34.1" height="19.2" viewBox="0 0 34.1 19.2" aria-hidden="true"><style>.pipe20{fill:#a0c3c6}.pipe21{fill:#4d9da3}</style><path class="pipe20" d="M13.5 4.5h7v14.6h-7z"/><path class="pipe21" d="M12.5 10.5V3.9s.3-2.4 4.3-2.4c4.2 0 4.7 2.4 4.7 2.4v6.7h-9z"/><path class="pipe21" d="M13 9.5H2.6C1.2 9.5 0 8.1 0 6.7V2.3C0 1 1.4-.4 3.1.1S13 4.3 13 4.3v5.2zM21.1 9.5h10.5c1.4 0 2.5-1.5 2.5-2.8V2.3C34.1.9 32.7-.5 31 .1s-9.9 4.2-9.9 4.2v5.2z"/></svg>