<?xml version="1.0" encoding="utf-8"?>
<svg version="1.1" id="pipe-tap" xmlns="http://www.w3.org/2000/svg" xmlns:xlink="http://www.w3.org/1999/xlink" x="0px" y="0px"
	 viewBox="-160 568.9 75 76" style="enable-background:new -160 568.9 75 76;" xml:space="preserve" aria-hidden="true">
  <path class="teal" d="M-122.6,638.8c-17.5,0-31.7-14.2-31.7-31.7s14.2-31.7,31.7-31.7s31.7,14.2,31.7,31.7S-105.1,638.8-122.6,638.8z M-122.6,584
  	c-12.8,0-23.2,10.4-23.2,23.2c0,12.8,10.4,23.2,23.2,23.2s23.2-10.4,23.2-23.2C-99.4,594.4-109.8,584-122.6,584z"/>
  <path class="teal" d="M-122.4,619.7c-6.9,0-12.5-5.6-12.5-12.5s5.6-12.5,12.5-12.5s12.5,5.6,12.5,12.5S-115.5,619.7-122.4,619.7z M-122.4,603.2
  	c-2.2,0-4,1.8-4,4s1.8,4,4,4s4-1.8,4-4S-120.2,603.2-122.4,603.2z"/>
  <path class="teal" d="M-124,568.9h3v76h-3V568.9z"/>
  <path class="teal" d="M-160,604.9h75v4h-75V604.9z"/>
  <path class="teal" d="M-148,579.2l53,53l-2.2,2.2l-53-53L-148,579.2z"/>
  <path class="teal" d="M-97.2,579.3l2.2,2.2l-53,53l-2.2-2.2L-97.2,579.3z"/>
</svg>
