<svg version="1.1" id="pipe-tap" xmlns="http://www.w3.org/2000/svg" xmlns:xlink="http://www.w3.org/1999/xlink" x="0px" y="0px"
	 viewBox="-160 568.9 75 76" style="enable-background:new -160 568.9 75 76;" xml:space="preserve" aria-hidden="true"><path class="teal" d="M-122.6 638.8c-17.5 0-31.7-14.2-31.7-31.7s14.2-31.7 31.7-31.7 31.7 14.2 31.7 31.7-14.2 31.7-31.7 31.7zm0-54.8c-12.8 0-23.2 10.4-23.2 23.2 0 12.8 10.4 23.2 23.2 23.2s23.2-10.4 23.2-23.2c0-12.8-10.4-23.2-23.2-23.2z"/><path class="teal" d="M-122.4 619.7c-6.9 0-12.5-5.6-12.5-12.5s5.6-12.5 12.5-12.5 12.5 5.6 12.5 12.5-5.6 12.5-12.5 12.5zm0-16.5c-2.2 0-4 1.8-4 4s1.8 4 4 4 4-1.8 4-4-1.8-4-4-4z"/><path class="teal" d="M-124 568.9h3v76h-3v-76z"/><path class="teal" d="M-160 604.9h75v4h-75v-4z"/><path class="teal" d="M-148 579.2l53 53-2.2 2.2-53-53 2.2-2.2z"/><path class="teal" d="M-97.2 579.3l2.2 2.2-53 53-2.2-2.2 53-53z"/></svg>