<svg id="Layer_1_copy_2" xmlns="http://www.w3.org/2000/svg" viewBox="0 0 14.4 14.3" aria-hidden="true"><style>.st0{fill:#418789}</style><path class="st0" d="M14.3 8.4V5.9l-2.4-.4c-.1-.2-.1-.3-.2-.5l1.4-2-1.8-1.8-2 1.4c-.1 0-.3-.1-.5-.2L8.4 0H5.9l-.4 2.4c-.2.1-.3.2-.5.2L3 1.2 1.2 3l1.4 2c0 .2-.1.3-.2.5L0 5.9v2.5l2.5.4c0 .2.1.3.2.5l-1.5 2L3 13.1l2-1.5c.1.1.3.1.4.2l.4 2.5h2.5l.4-2.5c.1-.1.3-.1.4-.2l2.1 1.5 1.8-1.8-1.5-2c.1-.1.1-.3.2-.5l2.6-.4zm-7.1.7c-1.1 0-1.9-.9-1.9-1.9s.9-1.9 1.9-1.9 1.9.9 1.9 1.9-.9 1.9-1.9 1.9z"/></svg>