<?xml version="1.0" encoding="utf-8"?>
<!-- Generator: Adobe Illustrator 19.1.0, SVG Export Plug-In . SVG Version: 6.00 Build 0)  -->
<svg version="1.1" id="Layer_1_copy_2" xmlns="http://www.w3.org/2000/svg" xmlns:xlink="http://www.w3.org/1999/xlink" x="0px"
	 y="0px" viewBox="0 0 14.4 14.3" style="enable-background:new 0 0 14.4 14.3;" xml:space="preserve" aria-hidden="true">
<style type="text/css">
	.st0{fill:#418789;}
</style>
<path class="st0" d="M14.3,8.4V5.9l-2.4-0.4c-0.1-0.2-0.1-0.3-0.2-0.5l1.4-2l-1.8-1.8l-2,1.4C9.2,2.6,9,2.5,8.8,2.4L8.4,0H5.9
	L5.5,2.4C5.3,2.5,5.2,2.6,5,2.6L3,1.2L1.2,3l1.4,2C2.6,5.2,2.5,5.3,2.4,5.5L0,5.9v2.5l2.5,0.4C2.5,9,2.6,9.1,2.7,9.3l-1.5,2L3,13.1
	L5,11.6c0.1,0.1,0.3,0.1,0.4,0.2l0.4,2.5h2.5l0.4-2.5c0.1-0.1,0.3-0.1,0.4-0.2l2.1,1.5l1.8-1.8l-1.5-2c0.1-0.1,0.1-0.3,0.2-0.5
	L14.3,8.4z M7.2,9.1c-1.1,0-1.9-0.9-1.9-1.9s0.9-1.9,1.9-1.9s1.9,0.9,1.9,1.9S8.2,9.1,7.2,9.1z"/>
</svg>
