<svg class="tiny-gear" xmlns="http://www.w3.org/2000/svg" viewBox="0 0 32 32">
	<style>
		.teal {
			fill: #418789
		}
		.teal-dark {
			fill: #366e6e
		}
	</style>
	<path class="teal" d="M13.5 31.5v-4.3l-.4-.1c-1-.3-2-.7-2.9-1.2l-.3-.2-3.1 3.1-3.5-3.5 3.1-3.1-.2-.3C5.7 21 5.3 20 5 19l-.1-.4H.5v-5h4.4l.1-.5c.3-1 .7-2 1.2-2.9l.2-.3-3.1-3.1 3.5-3.5 3.1 3.1.3-.2c.9-.5 1.9-1 2.9-1.2l.4-.1V.5h5v4.3l.4.1c1.1.3 2.1.7 3 1.2l.3.2 3-3 3.5 3.5-3 3 .2.3c.6.9 1 2 1.3 3l.1.4h4.2v5h-4.2l-.1.4c-.3 1.1-.7 2.1-1.3 3l-.2.3 3 3-3.5 3.5-3-3-.3.2c-.9.5-1.9.9-3 1.2l-.4.1v4.3h-5zm2.6-21c-3 0-5.5 2.5-5.5 5.5s2.5 5.5 5.5 5.5 5.5-2.5 5.5-5.5-2.5-5.5-5.5-5.5z"/>
	<path class="teal-dark" d="M18 1v4.2l.8.2c1 .3 2 .6 2.9 1.2l.7.4.5-.5L25.2 4l1.4 1.4L28 6.8l-2.3 2.3-.6.6.4.7c.5.9.9 1.9 1.2 2.9l.2.8H31v4h-4.1l-.2.8c-.3 1-.7 2-1.2 2.9l-.4.7.6.6 2.3 2.3-1.4 1.4-1.4 1.2-2.4-2.4-.5-.5-.7.4c-.9.5-1.8.9-2.9 1.2l-.7.1V31h-4v-4.2l-.7-.2c-1-.3-1.9-.7-2.8-1.2l-.7-.4-.6.6L6.8 28l-1.4-1.4L4 25.2l2.5-2.5.5-.5-.4-.7c-.5-.9-.9-1.8-1.1-2.8l-.2-.7H1v-4h4.3l.2-.8c.3-1 .6-1.9 1.1-2.8l.4-.6-.6-.5L4 6.8l1.4-1.4L6.8 4l2.4 2.4.6.6.7-.4c.9-.5 1.8-.9 2.8-1.2l.7-.2V1h4m-1.9 21c3.3 0 6-2.7 6-6s-2.7-6-6-6-6 2.7-6 6 2.7 6 6 6M19 0h-6v4.4c-1.1.3-2.1.7-3.1 1.3L6.8 2.6 4.7 4.7 2.6 6.8 5.7 10c-.5.9-1 2-1.2 3H0v6h4.5c.3 1.1.7 2.1 1.2 3l-3.2 3.2 2.1 2.1 2.1 2.1 3.1-3.1c.9.6 2 1 3.1 1.3V32h6v-4.4c1.1-.3 2.2-.7 3.1-1.3l3.1 3.1 2.1-2.1 2.1-2.1-3.1-3.1c.6-1 1-2 1.3-3.1H32v-6h-4.3c-.3-1.1-.7-2.2-1.3-3.1l3.1-3.1-2.1-2.1-2.1-2.1-3.1 3.1c-1-.6-2-1-3.1-1.3V0H19zm-2.9 21c-2.8 0-5-2.2-5-5s2.2-5 5-5 5 2.2 5 5-2.3 5-5 5z"/>
</svg>
