<?xml version="1.0" encoding="utf-8"?>
<svg version="1.1" id="toolbox" xmlns="http://www.w3.org/2000/svg" xmlns:xlink="http://www.w3.org/1999/xlink" x="0px" y="0px"
	 width="237.3px" height="160px" viewBox="0 0 237.3 160" style="enable-background:new 0 0 237.3 160;" xml:space="preserve">
<style type="text/css">
	.toolbox0{fill:#D3A94B;}
	.toolbox1{fill:#ECEBEC;}
	.toolbox2{fill:#68ABAE;}
	.toolbox3{fill:#CECBCB;}
	.toolbox4{fill:#EB625E;}
	.toolbox5{fill:#9E9B9A;}
	.toolbox6{fill:#E75B5A;}
	.toolbox7{fill:none;stroke:#CECBCB;stroke-miterlimit:10;}
	.toolbox8{fill:#F1C557;}
</style>
<rect x="52.1" y="51.7" class="toolbox0" width="142.2" height="11.7"/>
<g>
	<g>
		<path class="toolbox1" d="M144.9,13c0,0-8.1,8.5-8.1,24.3c0,9.2,11.5,28.4,11.5,28.4l9-0.2c0,0-1.4-16.7-1.4-19.2s2.5-12-7.2-12l0.5-3
			l-4.1-1.7l0.8-1.7l-1.1-1l0.7-1l-0.9-1.3l1-0.9l-0.5-1.8l1.2-0.4v-1.8l1-0.1l-0.3-6.6C146.9,12.9,146.1,12.2,144.9,13z"/>
		<path class="toolbox2" d="M146.9,65.2l10.3,0.3c0,0,4.8,22,5.7,31.1c1.5,14.7-3.8,30.4-5.5,33.2c-1.7,2.9-5.7,1.3-4.8-1.5
			c0.9-2.9,4.7-15.7,3.3-30.3C154.2,79.8,146.9,65.2,146.9,65.2z"/>
	</g>
	<g>
		<path class="toolbox3" d="M148.8,13c0,0,8.1,8.5,8.1,24.3c0,9.2-11.5,28.4-11.5,28.4l-9-0.2c0,0,1.4-16.7,1.4-19.2s-2.5-12,7.2-12
			l-0.5-3l4.1-1.7l-0.8-1.7l1.1-1l-0.7-1l0.9-1.3l-1-0.9l0.5-1.8l-1.2-0.4v-1.8l-1-0.1l0.3-6.6C146.8,12.9,147.6,12.2,148.8,13z"/>
		<path class="toolbox2" d="M146.8,65.2l-10.3,0.3c0,0-4.8,22-5.7,31.1c-1.5,14.7,3.8,30.4,5.5,33.2c1.7,2.9,5.7,1.3,4.8-1.5
			c-0.9-2.9-4.7-15.7-3.3-30.3C139.5,79.8,146.8,65.2,146.8,65.2z"/>
	</g>
	<circle class="toolbox1" cx="149.9" cy="44" r="4.5"/>
</g>
<g>
	<g>

			<rect x="104.9" y="26.6" transform="matrix(0.9967 8.067451e-02 -8.067451e-02 0.9967 4.0998 -8.5343)" class="toolbox3" width="5.6" height="39.7"/>
		<polygon class="toolbox3" points="112,28.2 106.3,27.7 105.3,18.6 108.1,10.4 113,10.8 114.4,19.4 		"/>
	</g>

		<rect x="97.4" y="65" transform="matrix(0.9967 8.067451e-02 -8.067451e-02 0.9967 5.9482 -8.3093)" class="toolbox4" width="16.8" height="8.9"/>
	<path class="toolbox4" d="M101.9,128.6l-1.8-0.1c-5.5-0.4-9.6-5.3-9.2-10.8l2.6-32c0.4-5.5,5.3-9.6,10.8-9.2l1.8,0.1
		c5.5,0.4,9.6,5.3,9.2,10.8l-2.6,32C112.3,125,107.4,129.1,101.9,128.6z"/>

		<rect x="99.5" y="67.7" transform="matrix(0.9967 8.067451e-02 -8.067451e-02 0.9967 6.3033 -8.266)" class="toolbox4" width="11.9" height="12.3"/>
</g>
<g>
	<path class="toolbox1" d="M186.2,94.1c-2.9-4.8-4.8-10.3-5.5-16.2c-2.1-17.6,7.3-33.9,22.2-41.6l-5.5-10.6
		c-19.2,9.8-31.3,30.9-28.6,53.6c1.2,10.2,5.2,19.3,11.1,26.8L186.2,94.1z"/>
	<path class="toolbox1" d="M220,13.5c-0.2-0.1-0.5-0.2-0.7-0.3c-5.2-1.9-11,0.7-12.9,5.9c-1.9,5.2,0.7,11,5.9,12.9
		c5.2,1.9,11-0.7,12.9-5.9c0.2-0.4,0.3-0.9,0.4-1.3l11.7,2.6c-0.2,1-0.5,2-0.8,2.9c-4.2,11.4-16.9,17.2-28.3,12.9
		c-11.4-4.2-17.2-16.9-12.9-28.3C199.4,3.5,212.1-2.3,223.5,2c0.5,0.2,1,0.4,1.5,0.7L220,13.5z"/>
	<circle class="toolbox5" cx="201.5" cy="29.9" r="7.9"/>
</g>
<rect x="35.8" y="48.8" class="toolbox0" width="21.3" height="110.7"/>
<rect x="191.4" y="48.8" class="toolbox0" width="21.3" height="110.7"/>
<path class="toolbox5" d="M82.2,34.2l-9.7-1.9L77.8,47l-4.5,5l-1,0.1l-6.8-1.3l-5.1-14.6l-6.6,7.6l5.7,16.3l10.1,1.8l11.8,45.2
	c1.9,5.3,7.6,7.9,12.5,6.1c5.3-1.9,7.9-7.6,6.1-12.5L81.1,58.4l6.6-7.6C87.7,50.7,82.2,34.2,82.2,34.2z M92.1,107.3
	c-2.3,0.6-4.7-0.4-5.3-2.7c-0.6-2.3,0.4-4.7,2.7-5.3c2.3-0.6,4.7,0.4,5.3,2.7C95.3,103.9,94.3,106.3,92.1,107.3z"/>
<g>
	<g>
		<circle class="toolbox6" cx="7.7" cy="49.3" r="7.4"/>
		<path class="toolbox7" d="M21.9,48.6"/>
		<path class="toolbox3" d="M66.4,89.2c-4.8-17.6-13.7-29.7-26.4-36L39.6,53l-5.8,3.9L38,45.1l-7,4.7c-8.9-2.2-15.7-1.1-16-1l0.3,1.4
			c0.1,0,7-1.2,15.7,1.1l0.3,0.1l3.9-2.6L31,60.5l8.7-5.9c12.1,6.2,20.6,17.9,25.2,34.9L66.4,89.2z"/>
	</g>
</g>
<rect x="35.8" y="85.6" class="toolbox0" width="176.8" height="72.4"/>
<rect x="57.1" y="89.4" class="toolbox8" width="134.2" height="13.7"/>
<rect x="39.6" y="89.5" class="toolbox8" width="13.7" height="65"/>
<rect x="57.1" y="140.5" class="toolbox8" width="134.8" height="13.9"/>
<polygon class="toolbox8" points="90.2,106.9 60.3,136.8 89.3,136.8 119.2,106.9 "/>
<polygon class="toolbox8" points="57.1,106.9 57.1,134.3 84.5,106.9 "/>
<polygon class="toolbox8" points="191.3,109.9 164.3,136.8 191.3,136.8 "/>
<polygon class="toolbox8" points="159.6,106.9 129.7,136.8 158.6,136.8 188.5,106.9 "/>
<polygon class="toolbox8" points="124.9,106.9 95,136.8 124,136.8 153.9,106.9 "/>
<rect x="195.2" y="89.5" class="toolbox8" width="13.7" height="65"/>
</svg>
