<svg id="toolbox" xmlns="http://www.w3.org/2000/svg" width="247.7" height="180" viewBox="19 1 247.7 180" aria-hidden="true"><style>.toolbox0{fill:#d3a94b}.toolbox1{fill:#ecebec}.toolbox2{fill:#68abae}.toolbox3{fill:#cecbcb}.toolbox4{fill:#eb625e}.toolbox5{fill:#9e9b9a}.toolbox6{fill:#e75b5a}.toolbox7{fill:none;stroke:#cecbcb;stroke-miterlimit:10}.toolbox8{fill:#f1c557}</style><path class="toolbox0" d="M71.1 72.7h142.2v11.7H71.1z"/><path class="toolbox1" d="M163.9 34s-8.1 8.5-8.1 24.3c0 9.2 11.5 28.4 11.5 28.4l9-.2s-1.4-16.7-1.4-19.2 2.5-12-7.2-12l.5-3-4.1-1.7.8-1.7-1.1-1 .7-1-.9-1.3 1-.9-.5-1.8 1.2-.4v-1.8l1-.1-.3-6.6c-.1-.1-.9-.8-2.1 0z"/><path class="toolbox2" d="M165.9 86.2l10.3.3s4.8 22 5.7 31.1c1.5 14.7-3.8 30.4-5.5 33.2-1.7 2.9-5.7 1.3-4.8-1.5.9-2.9 4.7-15.7 3.3-30.3-1.7-18.2-9-32.8-9-32.8z"/><path class="toolbox3" d="M167.8 34s8.1 8.5 8.1 24.3c0 9.2-11.5 28.4-11.5 28.4l-9-.2s1.4-16.7 1.4-19.2-2.5-12 7.2-12l-.5-3 4.1-1.7-.8-1.7 1.1-1-.7-1 .9-1.3-1-.9.5-1.8-1.2-.4v-1.8l-1-.1.3-6.6c.1-.1.9-.8 2.1 0z"/><path class="toolbox2" d="M165.8 86.2l-10.3.3s-4.8 22-5.7 31.1c-1.5 14.7 3.8 30.4 5.5 33.2 1.7 2.9 5.7 1.3 4.8-1.5-.9-2.9-4.7-15.7-3.3-30.3 1.7-18.2 9-32.8 9-32.8z"/><circle class="toolbox1" cx="168.9" cy="65" r="4.5"/><path class="toolbox3" d="M127.888 87.465l-5.58-.452 3.202-39.57 5.58.453z"/><path class="toolbox3" d="M131 49.2l-5.7-.5-1-9.1 2.8-8.2 4.9.4 1.4 8.6z"/><path class="toolbox4" d="M132.81 95.56l-16.744-1.355.718-8.87 16.745 1.354zM120.9 149.6l-1.8-.1c-5.5-.4-9.6-5.3-9.2-10.8l2.6-32c.4-5.5 5.3-9.6 10.8-9.2l1.8.1c5.5.4 9.6 5.3 9.2 10.8l-2.6 32c-.4 5.6-5.3 9.7-10.8 9.2z"/><path class="toolbox4" d="M129.884 101.458l-11.86-.96.992-12.26 11.86.96z"/><path class="toolbox1" d="M205.2 115.1c-2.9-4.8-4.8-10.3-5.5-16.2-2.1-17.6 7.3-33.9 22.2-41.6l-5.5-10.6c-19.2 9.8-31.3 30.9-28.6 53.6 1.2 10.2 5.2 19.3 11.1 26.8l6.3-12z"/><path class="toolbox1" d="M239 34.5c-.2-.1-.5-.2-.7-.3-5.2-1.9-11 .7-12.9 5.9s.7 11 5.9 12.9 11-.7 12.9-5.9c.2-.4.3-.9.4-1.3l11.7 2.6c-.2 1-.5 2-.8 2.9-4.2 11.4-16.9 17.2-28.3 12.9-11.4-4.2-17.2-16.9-12.9-28.3 4.1-11.4 16.8-17.2 28.2-12.9.5.2 1 .4 1.5.7l-5 10.8z"/><circle class="toolbox5" cx="220.5" cy="50.9" r="7.9"/><path class="toolbox0" d="M54.8 69.8h21.3v110.7H54.8zM210.4 69.8h21.3v110.7h-21.3z"/><path class="toolbox5" d="M101.2 55.2l-9.7-1.9L96.8 68l-4.5 5-1 .1-6.8-1.3-5.1-14.6-6.6 7.6 5.7 16.3 10.1 1.8 11.8 45.2c1.9 5.3 7.6 7.9 12.5 6.1 5.3-1.9 7.9-7.6 6.1-12.5l-18.9-42.3 6.6-7.6c0-.1-5.5-16.6-5.5-16.6zm9.9 73.1c-2.3.6-4.7-.4-5.3-2.7-.6-2.3.4-4.7 2.7-5.3 2.3-.6 4.7.4 5.3 2.7.5 1.9-.5 4.3-2.7 5.3z"/><circle class="toolbox6" cx="26.7" cy="70.3" r="7.4"/><path class="toolbox3" d="M85.4 110.2c-4.8-17.6-13.7-29.7-26.4-36l-.4-.2-5.8 3.9L57 66.1l-7 4.7c-8.9-2.2-15.7-1.1-16-1l.3 1.4c.1 0 7-1.2 15.7 1.1l.3.1 3.9-2.6L50 81.5l8.7-5.9c12.1 6.2 20.6 17.9 25.2 34.9l1.5-.3z"/><path class="toolbox0" d="M54.8 106.6h176.8V179H54.8z"/><path class="toolbox8" d="M76.1 110.4h134.2v13.7H76.1zM58.6 110.5h13.7v65H58.6zM76.1 161.5h134.8v13.9H76.1zM109.2 127.9l-29.9 29.9h29l29.9-29.9zM76.1 127.9v27.4l27.4-27.4zM210.3 130.9l-27 26.9h27zM178.6 127.9l-29.9 29.9h28.9l29.9-29.9zM143.9 127.9L114 157.8h29l29.9-29.9zM214.2 110.5h13.7v65h-13.7z"/></svg>