<svg id="cart" xmlns="http://www.w3.org/2000/svg" width="272.2" height="265.6" viewBox="0 0 272.2 265.6" aria-hidden="true"><style>.cart0{fill:#d3a94b}.cart1{fill:#f1c557}.cart2{fill:#FFF}.cart3{fill:#68abae}.cart4{fill:#cccbcb}.cart5{fill:#141e33}.cart6{fill:#9e9b9a}.cart7{fill:#e75b5a}</style><path class="cart0" d="M74 25.4v182c6.6 3 12 8.2 15.3 14.7H272V25.4H74z"/><path class="cart1" d="M236.4 66.1h30.2v115.4h-30.2zM79.3 66.1h30.3v115.4H79.3zM79.3 30.5h187.4v30.2H79.3zM183.8 66.1l-68.9 68.8v42.7L226.4 66.1zM132.7 66.1l-17.8 17.8v42.6l60.4-60.4zM114.9 66.1v9.4l9.4-9.4zM231.2 171.9l-9.6 9.6h9.6zM231.2 120.8l-60.7 60.7h42.7l18-18zM231.2 69.8L119.5 181.5h42.6l69.1-69.1z"/><circle class="cart2" cx="174.8" cy="120.8" r="35.1"/><circle class="cart3" cx="174.8" cy="120.8" r="32.5"/><circle class="cart4" cx="188.1" cy="99.2" r="2.4"/><path class="cart4" d="M175.2 118.2c-.7-5.9.6-10.6 3.7-14l.1-.1 2.2.5-2.6-3 2.7.6c2.4-1.7 4.6-2.2 4.7-2.2l.1.5s-2.2.5-4.6 2.2l-.1.1-1.5-.3 2.6 3-3.3-.7c-2.9 3.3-4.1 7.9-3.4 13.5l-.6-.1z"/><path class="cart4" d="M175.5 116.3c-8.4-1.8-16.7 3.5-18.5 11.9l-.5 2.3 30.3 6.6.5-2.3c1.9-8.4-3.4-16.7-11.8-18.5zM191.8 139l-41.2-8.1-.5 11.1c4.4 5.1 10.5 9 17.6 10.5 6.7 1.5 13.5.8 19.4-1.7l4.7-11.8z"/><circle class="cart6" cx="89.1" cy="39.6" r="2.7"/><circle class="cart6" cx="102.4" cy="51.4" r="2.7"/><circle class="cart6" cx="257.8" cy="39.6" r="2.7"/><circle class="cart6" cx="244.5" cy="51.4" r="2.7"/><circle class="cart6" cx="244.5" cy="195.3" r="2.7"/><circle class="cart6" cx="257.8" cy="207.1" r="2.7"/><circle class="cart6" cx="100.9" cy="193.5" r="2.7"/><circle class="cart6" cx="89.1" cy="206.8" r="2.7"/><path class="cart4" d="M51 58h-7v14.7h7V136h-7v14.7h7v55.6c3.1-1 6.5-1.6 10-1.6 1.7 0 3.4.1 5 .4V4.3H20.3v8.5H51V58zM92.1 230.3c.4 1.9.6 3.9.6 6 0 3.1-.5 6.1-1.3 9h57v-15H92.1z"/><path class="cart1" d="M79.5 186.7v23.9c2.5 1.8 4.6 3.9 6.5 6.3h180.7v-30.2H79.5z"/><path class="cart6" d="M61 207.6c-15.9 0-28.7 12.9-28.7 28.7S45.2 265 61 265s28.7-12.9 28.7-28.7-12.8-28.7-28.7-28.7zm0 43.9c-8.4 0-15.2-6.8-15.2-15.2s6.8-15.2 15.2-15.2 15.2 6.8 15.2 15.2-6.8 15.2-15.2 15.2z"/><circle class="cart4" cx="61" cy="236.3" r="12.3"/><path class="cart7" d="M.3.6H46v15.9H.3z"/></svg>