<?xml version="1.0" encoding="utf-8"?>
<svg version="1.1" id="crate" xmlns="http://www.w3.org/2000/svg" xmlns:xlink="http://www.w3.org/1999/xlink" x="0px" y="0px"
	 width="198px" height="196.7px" viewBox="0 0 198 196.7" style="enable-background:new 0 0 198 196.7;" xml:space="preserve">
<style type="text/css">
	.crate0{fill:#D3A94B;}
	.crate1{fill:#F1C557;}
	.crate2{fill:#FFFFFF;}
	.crate3{fill:#68ABAE;}
	.crate4{fill:#CCCBCB;}
	.crate5{fill:#141E33;}
	.crate6{fill:#9E9B9A;}
</style>
<rect y="0.1" class="crate0" width="198" height="196.7"/>
<rect x="5.5" y="161.4" class="crate1" width="187.2" height="30.2"/>
<rect x="162.4" y="40.8" class="crate1" width="30.2" height="115.4"/>
<rect x="5.3" y="40.8" class="crate1" width="30.3" height="115.4"/>
<rect x="5.3" y="5.2" class="crate1" width="187.4" height="30.2"/>
<polygon class="crate1" points="109.8,40.8 40.9,109.6 40.9,152.3 152.4,40.8 "/>
<polygon class="crate1" points="58.7,40.8 40.9,58.6 40.9,101.2 101.3,40.8 "/>
<polygon class="crate1" points="40.9,40.8 40.9,50.2 50.3,40.8 "/>
<polygon class="crate1" points="157.2,146.6 147.6,156.2 157.2,156.2 "/>
<polygon class="crate1" points="157.2,95.5 96.5,156.2 139.2,156.2 157.2,138.2 "/>
<polygon class="crate1" points="157.2,44.5 45.5,156.2 88.1,156.2 157.2,87.1 "/>
<circle class="crate2" cx="100.8" cy="95.5" r="35.1"/>
<circle class="crate3" cx="100.8" cy="95.5" r="32.5"/>
<circle class="crate4" cx="114.1" cy="73.9" r="2.4"/>
<path class="crate5" d="M109.7,75.4"/>
<path class="crate4" d="M101.2,92.9c-0.7-5.9,0.6-10.6,3.7-14l0.1-0.1l2.2,0.5l-2.6-3l2.7,0.6c2.4-1.7,4.6-2.2,4.7-2.2l0.1,0.5
	c0,0-2.2,0.5-4.6,2.2l-0.1,0.1l-1.5-0.3l2.6,3l-3.3-0.7c-2.9,3.3-4.1,7.9-3.4,13.5L101.2,92.9z"/>
<path class="crate4" d="M101.5,91c-8.4-1.8-16.7,3.5-18.5,11.9l-0.5,2.3l30.3,6.6l0.5-2.3C115.2,101.1,109.9,92.8,101.5,91z"/>
<path class="crate4" d="M117.8,113.7l-41.2-8.1l-0.5,11.1c4.4,5.1,10.5,9,17.6,10.5c6.7,1.5,13.5,0.8,19.4-1.7L117.8,113.7z"/>
<g>
	<circle class="crate6" cx="15.1" cy="14.3" r="2.7"/>
	<circle class="crate6" cx="28.4" cy="26.1" r="2.7"/>
</g>
<g>
	<circle class="crate6" cx="183.8" cy="14.3" r="2.7"/>
	<circle class="crate6" cx="170.5" cy="26.1" r="2.7"/>
</g>
<g>
	<circle class="crate6" cx="170.5" cy="170" r="2.7"/>
	<circle class="crate6" cx="183.8" cy="181.8" r="2.7"/>
</g>
<g>
	<circle class="crate6" cx="26.9" cy="168.2" r="2.7"/>
	<circle class="crate6" cx="15.1" cy="181.5" r="2.7"/>
</g>
</svg>
